<svg width="32" height="32" fill="none" xmlns="http://www.w3.org/2000/svg"><path d="M20.634 8H6v15.79h4.073v-5.137h7.805l3.561 5.137H26l-3.927-5.16c1.22-.19 2.098-.64 2.634-1.35.537-.71.805-1.847.805-3.362v-1.183c0-.9-.097-1.61-.268-2.155a3.58 3.58 0 00-.878-1.444 3.996 3.996 0 00-1.512-.875C22.268 8.095 21.537 8 20.634 8zm-.658 7.173h-9.903V11.48h9.903c.56 0 .95.095 1.146.26.195.166.317.474.317.924v1.325c0 .474-.122.781-.317.947-.195.166-.585.237-1.146.237zM26 8a2 2 0 100-4 2 2 0 000 4z" fill="#E1E2E5"/></svg>