<svg xmlns="http://www.w3.org/2000/svg" width="256" height="150"><g fill="none" fill-rule="evenodd"><rect width="255" height="149" x=".5" y=".5" stroke="#E8E9EB" rx="4"/><path fill="#8F96A3" fill-rule="nonzero" d="M50.34 49v-.984h-1.656V40.6h-1.128l-2.016 1.452v1.236l2.016-1.452v6.18H45.54V49h4.8zm4.44.12c.432 0 .838-.068 1.218-.204.38-.136.71-.37.99-.702.28-.332.502-.774.666-1.326.164-.552.246-1.244.246-2.076v-.24c0-.776-.076-1.426-.228-1.95-.152-.524-.366-.944-.642-1.26a2.335 2.335 0 00-.984-.678 3.736 3.736 0 00-1.266-.204c-.424 0-.826.068-1.206.204-.38.136-.712.362-.996.678-.284.316-.508.736-.672 1.26-.164.524-.246 1.174-.246 1.95v.24c0 .832.084 1.524.252 2.076.168.552.394.994.678 1.326.284.332.614.566.99.702a3.5 3.5 0 001.2.204zm0-1.008c-.24 0-.478-.046-.714-.138a1.498 1.498 0 01-.636-.504c-.188-.244-.342-.58-.462-1.008-.12-.428-.18-.978-.18-1.65v-.24c0-.624.06-1.134.18-1.53.12-.396.274-.71.462-.942.188-.232.4-.392.636-.48a2.03 2.03 0 01.714-.132c.272 0 .53.044.774.132.244.088.456.248.636.48.18.232.322.546.426.942.104.396.156.906.156 1.53v.24c0 .68-.058 1.234-.174 1.662-.116.428-.268.764-.456 1.008s-.402.41-.642.498a2.08 2.08 0 01-.72.132zm5.712.888v-4.62l1.848 3.18h.84l1.848-3.18V49h1.032v-6.36h-1.032l-2.232 3.9-2.232-3.9H59.46V49h1.032zm8.52 0v-4.62l1.848 3.18h.84l1.848-3.18V49h1.032v-6.36h-1.032l-2.232 3.9-2.232-3.9H67.98V49h1.032z"/><path fill="#8F96A3" d="M80 62h-1v-2H41v2h-1v-5h1v2h38v-2h1v5z"/><path fill="#595959" fill-rule="nonzero" d="M60.044 70c11.075 0 20.051 8.955 20.051 19.999 0 11.048-8.976 20.001-20.051 20.001C48.974 110 40 101.045 40 89.999 40 78.955 48.974 70 60.044 70zm1.279 5.629c-.09 1.026.697 1.556.95 1.7-.817.882-1.957 2.646-2.23 5.154-.27-2.508-1.412-4.272-2.226-5.155.252-.143 1.038-.673.95-1.7 0 0-.465.84-2.613.456-1.78-.316-2.767.146-2.767.74 0 0-1.263.15-1.83.516-.564.365.036 1.279.036 1.279.085-.17.206-.267.548-.34 0 0 1.368-.352 1.842.535 1.043.089 1.938.71 2.363 1.556.024.049.444.84.174 2.408-.144.826-.538 1.532-1.122 2.13-.255.265-.574.432-.956.388-.608-.071-1.113-.361-1.548-.79-.238-.239-.31-.505-.129-.815l.031-.064.024-.07c.54-1.3.088-2.447-.827-3.128-.67-.496-1.447-.554-2.233-.446-5.005.705-5.353 5.594-5.372 7.399l-.001.194c0 4.574-.069 7.818-.099 8.443-.055.951-.386 1.151-.594 1.3.33.228 3.033-.62 3.684-1.427.042-.053.131-.077.2-.093 1.61-.375 1.614-2.054 1.645-2.566 1.347 0 1.87-1.47 2.014-1.851.12-.33.208-.714.243-1.062 0 .715 1.06 1.328 2.198.189 0 1.173 1.399.966 2.096.27.06.238.446.84.446.84-.798.146-1.157.321-1.537.652-.883.776-.984 2.07-.984 2.738 0 0-1.219 1.191-1.702 1.633-.143.13-.299.248-.457.367-1.25-1.397-1.669-.851-1.665-.849-.925-.371-1.438.29-1.234.625.214-.244.565-.175.778.018-1.251.206-.96 1.121-.623 1.313 0-.263.081-.555.475-.583-.018.405.253.476.511.486.619.026 1.655.056 1.97.363.18.175.094.69.288.865.161.143.333.125.422.127.03.189-.026.4-.265.65.897.08 1.572-.713 1.126-1.134-.188-.18-.817-.774-.849-1.03-.038-.279.25-.585.455-.765.432-.385.899-.73 1.358-1.088.135-.105.293-.2.448-.285a.612.612 0 01.459-.05c.345.109.34.099.428.042.34-.225.954-.727 2.231-.87a.7.7 0 00-.194.179c-.068.095-.117.21-.19.365-.083.177-.145.359-.22.536-.826 1.948-1.645 3.865-2.467 5.812-.275.647-.03 1.214.634 1.522.487.226 1.039.103 1.366-.364-.095.324-.137.6-.006.87.13.269.34.458.616.575.265.119.58.16.871.103.295-.06.491-.254.643-.54.026.637.445 1.102 1.138 1.102.693 0 1.113-.467 1.14-1.102.15.286.347.481.642.54.291.056.604.016.87-.103a1.16 1.16 0 00.617-.575c.132-.27.09-.548-.006-.87.326.47.877.59 1.364.364.667-.308.91-.875.637-1.522-.823-1.947-1.643-3.864-2.468-5.812-.074-.177-.137-.359-.22-.536-.075-.155-.123-.27-.192-.365a.672.672 0 00-.194-.18c1.28.146 1.894.648 2.231.871.091.057.085.067.43-.042a.603.603 0 01.46.05c.155.085.312.18.446.285.46.359.925.703 1.36 1.088.202.18.493.486.452.764-.032.257-.66.851-.846 1.03-.447.422.226 1.212 1.125 1.136-.238-.25-.295-.462-.265-.651.09-.002.261.016.42-.127.197-.176.11-.69.29-.865.315-.309 1.35-.337 1.968-.363.26-.01.531-.08.513-.486.392.028.475.32.475.583.338-.19.627-1.105-.622-1.313.212-.193.561-.262.778-.018.202-.335-.311-.998-1.235-.625.002-.002-.414-.548-1.667.849-.156-.12-.313-.238-.455-.367a114.645 114.645 0 01-1.703-1.633c0-.667-.101-1.96-.984-2.738-.378-.33-.738-.506-1.538-.651 0 0 .386-.603.449-.84.695.695 2.093.902 2.093-.271 1.14 1.14 2.2.526 2.2-.19.035.35.124.732.243 1.063.144.381.665 1.85 2.013 1.85.032.51.034 2.19 1.643 2.567.07.016.161.04.204.093.648.808 3.352 1.655 3.683 1.427-.208-.151-.54-.349-.594-1.3-.03-.59-.093-3.517-.1-7.693v-.844c-.009-1.716-.27-6.78-5.372-7.499-.786-.108-1.564-.05-2.235.446-.913.681-1.364 1.828-.824 3.129a.513.513 0 00.054.133l.052.102c.112.267.03.5-.18.712-.435.43-.94.72-1.549.79-.386.045-.703-.122-.956-.386-.584-.6-.992-1.303-1.121-2.131-.247-1.577.15-2.36.174-2.408.422-.846 1.32-1.467 2.358-1.556.479-.887 1.847-.534 1.847-.534.341.072.46.17.547.339 0 0 .6-.914.035-1.279-.568-.367-1.833-.516-1.833-.516 0-.594-.982-1.056-2.762-.74-1.92.342-2.495-.29-2.596-.429zm81.694 11.376c3.009.002 4.89 2.173 4.89 5.137 0 3.022-1.96 5.274-5.068 5.274-3.049 0-4.95-2.232-4.95-4.998 0-3.278 2.099-5.413 5.128-5.413zm53.835.002c1.05 0 1.663.236 2.335.67-.196.415-.432.97-.592 1.443-.614-1.085-1.325-1.343-2.039-1.343-.95 0-1.683.631-1.683 1.621 0 1.224 1.03 1.718 2.158 1.994 1.724.436 2.714.966 2.714 2.687 0 1.898-1.843 3.337-3.823 3.337-1.01 0-1.9-.276-2.613-.808.216-.394.493-1.047.63-1.444.754 1.226 1.526 1.484 2.359 1.484 1.148 0 2.059-.671 2.059-1.819 0-1.302-1.09-1.637-2.336-1.973-1.546-.418-2.536-1.188-2.536-2.786 0-1.857 1.368-3.063 3.367-3.063zm-8.14 0c1.053 0 1.663.236 2.338.67-.196.415-.432.97-.592 1.443-.614-1.085-1.328-1.343-2.041-1.343-.952 0-1.683.631-1.683 1.621 0 1.224 1.028 1.718 2.156 1.994 1.726.436 2.714.966 2.714 2.687 0 1.898-1.84 3.337-3.822 3.337-1.01 0-1.899-.276-2.612-.808.216-.394.493-1.047.63-1.444.754 1.226 1.528 1.484 2.358 1.484 1.146 0 2.06-.671 2.06-1.819 0-1.302-1.09-1.637-2.337-1.973-1.545-.418-2.534-1.188-2.534-2.786 0-1.857 1.366-3.063 3.365-3.063zm22.598 0c2.077 0 3.522 1.047 3.522 3.633v4.764c0 1.125.216 1.244.633 1.244.139 0 .297-.022.416-.042l.119.493c-.774.277-1.21.315-1.427.315-.652 0-1.067-.294-1.224-.869l-.12-.433c-1.068.848-2.236 1.302-3.208 1.302-1.803 0-2.973-.948-2.973-2.607 0-1.778 1.21-2.607 2.775-2.885l2.396-.433c.673-.117 1.029-.317 1.029-.81 0-2.154-.91-2.906-2.415-2.906-1.164 0-2.138.436-2.671 1.583h-.239V88.21h-.002c1.13-.87 2.199-1.204 3.389-1.204zm-105.82 0c2.077 0 3.524 1.047 3.524 3.633v4.764c0 1.125.218 1.244.635 1.244.14 0 .297-.022.416-.042l.117.493c-.772.277-1.206.315-1.424.315-.655 0-1.071-.294-1.227-.869l-.121-.433c-1.07.848-2.237 1.302-3.207 1.302-1.803 0-2.97-.948-2.97-2.607 0-1.778 1.206-2.607 2.772-2.885l2.394-.433c.675-.117 1.03-.317 1.03-.81 0-2.154-.908-2.906-2.414-2.906-1.168 0-2.14.436-2.673 1.583h-.239V88.21c1.13-.87 2.199-1.204 3.387-1.204zm77.483.196c-.148 1.394-.173 3.68-.175 4.801v.497c.004 1.05.033 3.344.175 4.697a6.572 6.572 0 00-.911-.062c-.336 0-.732.022-1.029.062.04-.338.1-1.187.1-1.542-.653 1.183-1.92 1.756-3.17 1.756-1.919 0-3.422-1.222-3.422-3.238 0-.494.056-1.342.056-1.974 0-.828-.018-3.495-.176-4.997.336.018.77.06 1.009.06.216 0 .634-.042.931-.058-.16 1.502-.18 4.169-.18 4.998 0 3.022.912 4.086 2.458 4.086 2.414 0 2.572-2.47 2.572-4.343 0-.356-.02-3.24-.178-4.743.336.016.772.058 1.01.058.217 0 .633-.042.93-.058zm-66.08-.196c1.924 0 3.427 1.206 3.427 3.22 0 .494-.058 1.342-.058 1.976 0 .828.018 3.493.177 4.997a6.572 6.572 0 00-.91-.062 8.35 8.35 0 00-1.032.062c.16-1.504.178-4.169.178-4.997 0-3.025-.911-4.069-2.455-4.069-2.415 0-2.572 2.448-2.572 4.325 0 .354.02 3.237.178 4.743a6.593 6.593 0 00-.912-.062c-.335 0-.733.022-1.028.062.15-1.429.175-3.905.177-4.86v-.137c0-1.008-.02-3.516-.177-4.998.335.014.772.056 1.008.056.218 0 .635-.042.932-.058-.04.336-.101 1.185-.101 1.54.654-1.185 1.921-1.738 3.168-1.738zm37.527-5.473c.259 0 .416.02.554.062-.014.274-.057.728-.057.887 0 .198.043.593.059.93-.633-.24-.97-.299-1.227-.299-1.127 0-1.721.595-1.721 1.76 0 .454.038 1.325.177 2.39.572 0 1.524-.08 2.177-.158-.016.2-.04.474-.04.631 0 .177.024.417.04.575-.671-.1-1.387-.158-1.625-.158h-.592v3.12c0 1.54.018 4.426.176 5.928a6.54 6.54 0 00-.91-.06c-.337 0-.731.02-1.03.06.149-1.402.176-4.01.18-5.604v-3.444h-.338c-.178 0-.454.016-1.05.158.042-.198.06-.494.06-.593 0-.1-.02-.395-.06-.613a3.18 3.18 0 001.05.157h.338c0-3.201 2.196-5.73 3.84-5.73zm-60.48 1.304c2.812 0 5.03.532 5.03 3.062 0 1.797-1.149 2.805-3.167 3.496 2.829.593 3.623 1.897 3.623 3.595 0 2.905-2.478 4.21-5.626 4.21-.75 0-1.938-.06-2.534-.06-.257 0-.91.043-1.186.06.12-2.174.158-5.176.158-7.666l-.001-.556c-.004-2.202-.033-5.143-.157-6.14.495.02 1.701.058 2.02.058.534 0 1.484-.059 1.84-.059zm110.439 4.367c-.158 1.482-.18 3.97-.18 4.998 0 .828.022 3.493.18 4.997a6.615 6.615 0 00-.912-.062 8.35 8.35 0 00-1.03.062c.151-1.429.175-3.905.177-4.86v-.137c0-1.009-.018-3.516-.177-4.998.335.016.772.058 1.008.058.218 0 .635-.042.934-.058zm-79.308-5.573c-.15 1.402-.175 3.991-.178 5.599v4.318h.315c.655 0 4.003-3.794 4.319-4.346.277.018.731.06.972.06.196 0 .673-.042.968-.06l-4.733 4.227c.594.712 3.742 4.246 5.17 5.768-.536-.04-.91-.058-1.19-.058-.357 0-.888.02-1.307.058-.729-1.145-2.968-3.772-4.199-5.116h-.315v.237c.004.984.032 3.51.178 4.88a6.93 6.93 0 00-.91-.06c-.337 0-.735.02-1.03.06.147-1.4.176-4.009.18-5.601V87.56c0-1.56-.022-4.426-.18-5.928.335.019.772.059 1.01.059.215 0 .63-.04.93-.059zm37.076 1.204c.57.04 1.78.06 2.254.06.535 0 1.978-.058 2.734-.058 2.536 0 4.158 1.107 4.158 3.26 0 1.937-1.426 3.615-4.255 3.91 3.681 4.702 4.455 5.632 5.842 7.19a16.63 16.63 0 00-1.387-.058c-.436 0-.911.02-1.305.058-1.409-2.056-3.783-5.078-5.385-6.971h-.716c0 2.369.018 4.798.158 6.971a8.514 8.514 0 00-1.01-.058c-.356 0-.772.02-1.088.058.12-2.173.158-5.175.158-7.665 0-2.231-.022-5.61-.158-6.697zm-19.19 4.943c-2.136-.002-3.19 2.228-3.19 4.58 0 2.228.932 4.289 3.032 4.289 2.019 0 3.227-1.938 3.227-4.585 0-2.133-.829-4.284-3.07-4.284zm70.29 4.323l-1.305.2c-1.426.215-3.01.711-3.01 2.21 0 1.148.634 1.76 1.92 1.76.793 0 1.583-.277 2.396-1.126v-3.044zm-105.817 0l-1.305.2c-1.427.215-3.011.711-3.011 2.21 0 1.148.634 1.76 1.92 1.76.793 0 1.586-.277 2.396-1.126v-3.044zm-14.857-2.034h-.553v5.985c.436.02 1.168.042 1.683.042 2.019 0 3.704-.85 3.704-3.122 0-1.779-.97-2.905-4.834-2.905zm73.135-6.123c-.673 0-1.346.02-1.623.058v5.175h.653c1.881 0 4.415-.471 4.415-2.862 0-1.482-1.145-2.371-3.445-2.371zm-72.025 0c-.455 0-1.249.02-1.663.038v4.998c.218.018.574.04 1.05.04 2.197 0 3.878-.907 3.878-2.727 0-1.68-1.463-2.35-3.265-2.35zm109.762-1.462c.675 0 1.071.335 1.071 1.047 0 .63-.396 1.086-1.07 1.086s-1.068-.455-1.068-1.086c0-.593.439-1.047 1.067-1.047z"/></g></svg>