<svg viewBox="0 0 188 48" xmlns="http://www.w3.org/2000/svg" xmlns:xlink="http://www.w3.org/1999/xlink"><defs><path id="a" d="M0 0h233.52v93.407H0z"/><path id="c" d="M0 0h233.52v93.407H0z"/><path id="e" d="M0 0h233.52v93.407H0z"/><path id="g" d="M0 0h233.52v93.407H0z"/><path id="i" d="M0 0h233.52v93.407H0z"/><path id="k" d="M0 0h233.52v93.407H0z"/><path id="m" d="M0 0h233.52v93.407H0z"/><path id="o" d="M0 0h233.52v93.407H0z"/><path id="q" d="M0 0h233.52v93.407H0z"/><path id="s" d="M0 0h233.52v93.407H0z"/><path id="u" d="M0 0h233.52v93.407H0z"/><path id="w" d="M0 0h233.52v93.407H0z"/><path id="y" d="M0 0h233.52v93.407H0z"/><path id="A" d="M0 0h233.52v93.407H0z"/></defs><g fill="none" fill-rule="evenodd"><g transform="translate(-22.785 -22.803)"><mask id="b" fill="#fff"><use xlink:href="#a"/></mask><path d="M86.187 38.4c1.287 0 3.914-.114 5.414-.206a7.324 7.324 0 00-.068.83c0 .161.048.53.068.784-1.34-.184-3.551-.321-4.24-.321-.482 0-2.352.044-3.366.137v5.79h1.174c2.402 0 7.454.46 7.454 4.633 0 3.389-2.84 4.936-6.573 4.913-.418 0-1.982-.068-2.98-.068-.435 0-.965.022-1.335.068.14-2.538.185-6.043.185-8.95 0-2.604-.02-6.548-.185-7.816 1.476.07 3.917.206 4.452.206zm-2.192 15.223c.6.021 1.311.046 1.959.046 2.723 0 4.308-1.27 4.308-3.644 0-2.56-1.887-3.391-6.267-3.391v6.989z" fill="#FFF" fill-rule="nonzero" mask="url(#b)"/></g><g transform="translate(-22.785 -22.803)"><mask id="d" fill="#fff"><use xlink:href="#c"/></mask><path d="M95.237 44.651c.901-1.106 2.559-1.589 3.946-1.589 2.421 0 4.103 1.197 4.103 4.079v5.72c0 1.176.253 1.451.736 1.451.165 0 .418-.046.555-.092l.137.555a4.106 4.106 0 01-1.73.439c-.76 0-1.243-.347-1.428-1.016l-.137-.505c-1.246.992-2.606 1.52-3.736 1.52-2.1 0-3.464-1.108-3.464-3.044 0-2.076 1.55-3.045 3.669-3.435l2.349-.439c.788-.138 1.207-.37 1.207-.945 0-2.514-1.063-3.16-2.816-3.16-1.36 0-2.377.393-3.113 1.893h-.278V44.65zm6.207 4.358l-1.525.229c-1.661.256-3.507.83-3.507 2.587 0 1.335.74 2.051 2.236 2.051.925 0 1.846-.324 2.796-1.313V49.01z" fill="#FFF" fill-rule="nonzero" mask="url(#d)"/></g><g transform="translate(-22.785 -22.803)"><mask id="f" fill="#fff"><use xlink:href="#e"/></mask><path d="M107.875 43.36c.254 0 .736-.046 1.082-.068-.185 1.75-.21 4.655-.21 4.772.97.046 2.374.093 3.118.093.76 0 2.212-.047 2.904-.093 0-.14-.024-3.043-.205-4.772.386.022.897.068 1.17.068.258 0 .741-.046 1.087-.068-.185 1.73-.21 4.633-.21 5.832 0 .97.025 4.083.21 5.836a8.103 8.103 0 00-1.062-.068c-.39 0-.853.022-1.195.068.181-1.753.205-4.867.205-5.603-1.013-.073-2.397-.163-2.928-.163-.627 0-2.168.045-3.093.115 0 .784.024 3.898.21 5.651a8.15 8.15 0 00-1.063-.068c-.39 0-.852.022-1.198.068.18-1.753.205-4.867.205-5.836 0-1.177-.024-4.103-.205-5.832.39.022.9.068 1.178.068" fill="#FFF" mask="url(#f)"/></g><g transform="translate(-22.785 -22.803)"><mask id="h" fill="#fff"><use xlink:href="#g"/></mask><path d="M121.132 43.36c.25 0 .736-.046 1.078-.068-.18 1.73-.2 4.655-.2 5.073h.37c.76 0 4.657-4.43 5.027-5.073.322.022.849.068 1.127.068.233 0 .788-.046 1.13-.068l-5.51 4.935c.695.829 4.355 4.957 6.017 6.733a19.532 19.532 0 00-1.38-.068c-.419 0-1.042.022-1.525.068-.852-1.337-3.459-4.404-4.887-5.975h-.37c0 .855.02 4.222.201 5.975a7.998 7.998 0 00-1.057-.068c-.387 0-.85.022-1.2.068.19-1.753.214-4.867.214-5.836 0-1.176-.024-4.102-.213-5.832.394.022.9.068 1.178.068" fill="#FFF" mask="url(#h)"/></g><g transform="translate(-22.785 -22.803)"><mask id="j" fill="#fff"><use xlink:href="#i"/></mask><path d="M140.36 38.264c.805 0 1.847-.07 2.442-.07 4.268 0 5.929 1.293 5.929 4.197 0 3.76-3.161 4.96-6.915 4.96-.208 0-1.09-.048-1.528-.093v3.988c0 1.152.048 2.56.19 3.714a11.1 11.1 0 00-2.45 0c.14-2.538.189-6.043.189-8.95 0-2.604-.024-6.548-.19-7.816.765.022 1.803.07 2.334.07m.897 7.863c3.23 0 5.124-1.291 5.124-3.736 0-2.283-1.802-2.904-4.038-2.904-.39 0-1.73.022-2.055.068v6.478c.28.05.74.094.97.094" fill="#FFF" fill-rule="nonzero" mask="url(#j)"/></g><g transform="translate(-22.785 -22.803)"><mask id="l" fill="#fff"><use xlink:href="#k"/></mask><path d="M160.742 49.055c0 3.53-2.29 6.159-5.905 6.159-3.552 0-5.768-2.605-5.768-5.835 0-3.827 2.446-6.317 5.973-6.317 3.507 0 5.7 2.536 5.7 5.993m-9.481.254c0 2.606 1.086 5.004 3.527 5.004 2.354 0 3.761-2.26 3.761-5.35 0-2.489-.969-5.004-3.576-5.004-2.49 0-3.712 2.607-3.712 5.35" fill="#FFF" fill-rule="nonzero" mask="url(#l)"/></g><g transform="translate(-22.785 -22.803)"><mask id="n" fill="#fff"><use xlink:href="#m"/></mask><path d="M172.044 45.803h-.278c-.809-1.313-1.935-1.844-3.206-1.844-2.699 0-3.99 2.607-3.99 5.143 0 2.928 1.614 5.21 4.473 5.21.95 0 1.802-.136 3.138-1.59l.209.253-.278 1.13c-1.11.74-2.349 1.109-3.781 1.109-3.6 0-5.953-2.514-5.953-6.066 0-3.712 2.538-6.085 6.251-6.085 1.202 0 2.514.229 3.99 1.013l-.575 1.727z" fill="#FFF" mask="url(#n)"/></g><g transform="translate(-22.785 -22.803)"><mask id="p" fill="#fff"><use xlink:href="#o"/></mask><path d="M183.684 45.803h-.273c-.804-1.313-1.934-1.844-3.202-1.844-2.702 0-3.994 2.607-3.994 5.143 0 2.928 1.621 5.21 4.477 5.21.94 0 1.798-.136 3.133-1.59l.206.253-.274 1.13c-1.106.74-2.353 1.109-3.781 1.109-3.596 0-5.95-2.514-5.95-6.066 0-3.712 2.54-6.085 6.251-6.085 1.2 0 2.514.229 3.99 1.013l-.583 1.727z" fill="#FFF" mask="url(#p)"/></g><g transform="translate(-22.785 -22.803)"><mask id="r" fill="#fff"><use xlink:href="#q"/></mask><path d="M187.103 54.892c-.14 0-.555.044-.74.068.185-1.753.21-4.867.21-5.836 0-1.177-.025-4.103-.21-5.832.394.022.897.068 1.174.068.254 0 .737-.046 1.087-.068-.185 1.73-.206 4.633-.206 5.832 0 .969.02 2.328.045 2.974 1.267-1.543 5.788-7.284 6.873-8.806.25.044.41.068.689.068.136 0 .619-.047.88-.068-.188 1.729-.213 4.633-.213 5.832 0 .968.024 4.082.213 5.836a8.237 8.237 0 00-1.062-.068c-.394 0-.852.021-1.202.068.185-1.754.21-4.868.21-5.836 0-1.2-.025-2.673-.045-3.16-1.573 1.593-5.723 7.035-7.035 8.996a3.007 3.007 0 00-.668-.068" fill="#FFF" mask="url(#r)"/></g><g transform="translate(-22.785 -22.803)"><mask id="t" fill="#fff"><use xlink:href="#s"/></mask><path d="M200.163 54.892a8.92 8.92 0 00-.735.068c.18-1.753.205-4.867.205-5.836 0-1.177-.025-4.103-.205-5.832.39.022.892.068 1.17.068.253 0 .74-.046 1.086-.068-.185 1.73-.205 4.633-.205 5.832 0 .969.02 2.328.044 2.974 1.268-1.543 5.784-7.284 6.87-8.806.254.044.415.068.692.068.137 0 .623-.047.877-.068-.18 1.729-.205 4.633-.205 5.832 0 .968.024 4.082.205 5.836a8.14 8.14 0 00-1.062-.068c-.39 0-.853.021-1.194.068.184-1.754.205-4.868.205-5.836 0-1.2-.02-2.673-.045-3.16-1.569 1.593-5.724 7.035-7.038 8.996a2.954 2.954 0 00-.665-.068" fill="#FFF" mask="url(#t)"/></g><g transform="translate(-22.785 -22.803)"><mask id="v" fill="#fff"><use xlink:href="#u"/></mask><path d="M46.699 23.352c-12.894 0-23.349 10.455-23.349 23.35 0 12.895 10.455 23.35 23.349 23.35 12.9 0 23.354-10.455 23.354-23.35 0-12.895-10.454-23.35-23.354-23.35m0 44.896c-11.9 0-21.544-9.646-21.544-21.546 0-11.901 9.644-21.547 21.544-21.547 11.902 0 21.55 9.646 21.55 21.547 0 11.9-9.648 21.546-21.55 21.546" fill="#FFF" fill-rule="nonzero" mask="url(#v)"/></g><g transform="translate(-22.785 -22.803)"><mask id="x" fill="#fff"><use xlink:href="#w"/></mask><path d="M40.034 31.815c0 .054.05.097.11.097.057 0 .107-.043.107-.097 0-.053-.05-.098-.107-.098-.06 0-.11.045-.11.098" fill="#FFF" mask="url(#x)"/></g><g transform="translate(-22.785 -22.803)"><mask id="z" fill="#fff"><use xlink:href="#y"/></mask><path d="M53.264 31.912c.058 0 .106-.043.106-.097 0-.053-.048-.098-.106-.098-.062 0-.109.045-.109.098 0 .053.047.097.11.097" fill="#FFF" mask="url(#z)"/></g><g transform="translate(-22.785 -22.803)"><mask id="B" fill="#fff"><use xlink:href="#A"/></mask><path d="M65.062 53.733c-.037-.73.019-1.776.01-2.587-.008-.712-.223-1.606-.422-1.93.135.116.362.177.53.177-.097-.2-.363-1.006-.267-2.256.14-1.736-.203-2.382-.255-2.527.157.055.277.074.448.092-.06-.294-.113-.56-.165-.829-.18-.9-.453-2.909-.942-3.52 0 0 .101.01.174.006-.026-.385-.354-1.812-.933-2.698-.19-.292-.6-.783-.97-.953.022-.043.045-.077.06-.116.084-.225.015-.38-.219-.45-.124-.037-.261-.039-.384-.08-.366-.12-.737-.238-1.094-.388-.635-.266-1.25-.579-1.948-.663-.92-.107-1.82-.06-2.602.52-1.066.795-1.59 2.138-.965 3.655.021.054.039.107.066.155.213.36.125.671-.154.95-.5.5-1.09.84-1.804.922-.438.052-.811-.143-1.11-.452-.673-.7-1.156-1.519-1.304-2.487-.09-.585-.137-.982-.105-1.574.024-.402.133-.86.217-.957 0 0 .152.264.339.356-.23-.749.006-1.163.006-1.163s.086.243.253.412c-.073-.611.322-1.15 1.08-1.347.205-.054.572-.099.78-.159 1.399-.403 1.616-.051 1.616-.051-.052-.166-.28-.479-.474-.556.495.172 1.211.629 2.27.457.877-.14 1.072-1.11.424-1.495 0 0 .324.544-.154.922-.251.197-.841.125-1.043.075-.399-.094-1.021-.472-1.021-.472.536-.25 1.073-.05 1.562.206.085-.412-.191-.98-.584-1.208-.427-.244-.772-.315-1.521-.399 0 0-.47-.495-1.315-.66-.281-.056-.798-.043-1.246.04-.71.135-1.022.286-1.689.455-.513.129-1.761.416-2.733-.23-.004-.004.356.818 1.287 1.052-.26.077-.742.008-1.105-.178.163.232.475.573.96.73-.14.143-.616.173-.88.03.287.344.502.478.815.54-.936 1.042-1.534 2.377-1.85 4.827-.368-2.463-.911-3.785-1.846-4.827.313-.062.527-.196.815-.54-.264.143-.74.113-.882-.03.485-.157.796-.498.963-.73-.364.186-.85.255-1.104.178a2.008 2.008 0 001.283-1.051c-.968.645-2.219.358-2.731.23-.666-.17-.979-.32-1.689-.456-.448-.083-.965-.096-1.248-.04-.844.165-1.314.66-1.314.66-.75.084-1.096.155-1.52.4-.393.227-.67.795-.586 1.207.491-.255 1.028-.457 1.562-.206 0 0-.62.378-1.02.472-.2.05-.789.122-1.042-.075-.48-.378-.154-.922-.154-.922-.65.386-.455 1.355.422 1.495 1.06.172 1.777-.285 2.274-.457-.2.077-.425.39-.48.556 0 0 .219-.352 1.617.051.208.06.577.105.781.16.758.196 1.152.735 1.08 1.346.167-.17.255-.412.255-.412s.233.414.006 1.163c.187-.092.337-.356.337-.356.086.096.197.555.219.957.032.592-.015.989-.103 1.574-.15.968-.633 1.787-1.309 2.487-.296.309-.67.504-1.11.452-.71-.081-1.301-.422-1.801-.922-.281-.279-.367-.59-.155-.95.028-.048.045-.101.067-.155.624-1.517.103-2.86-.966-3.656-.78-.579-1.682-.626-2.604-.519-.695.084-1.313.397-1.948.663-.356.15-.725.268-1.092.388-.124.041-.26.043-.384.08-.234.07-.302.225-.219.45.015.039.041.073.06.116-.37.17-.776.66-.97.953-.58.886-.909 2.313-.935 2.698.075.005.174-.006.174-.006-.487.611-.76 2.62-.94 3.52-.055.269-.107.535-.165.829.172-.018.29-.037.45-.092-.05.145-.396.791-.26 2.527.1 1.25-.166 2.055-.265 2.256a.885.885 0 00.532-.178c-.202.325-.414 1.219-.422 1.931-.009.811.049 1.858.008 2.587-.058 1.108-.442 1.337-.69 1.515.306.08.705.026.986-.186.21-.157.33-.163.607-.17.462-.008.83-.223 1.17-.523a.863.863 0 01.467-.2c.5-.043.723-.236 1.062-.588a.516.516 0 01.234-.11c1.877-.434 1.883-2.395 1.918-2.994.277-.036.611-.351.764-.588.023-.043.079-.1.148-.079.763.236 1.267-1.049 1.433-1.495.137-.384.244-.83.287-1.238.028.345.655.946 1.221-.007 0 1.39 1.075 1.146 1.336.228.28 1.682 1.472.886 1.464-.374.008 1.916 1.173 1.64 1.12 1.06.066.277.373.611.373.611-2.746.496-1.961 1.925-3.167 2.642.42.145.798-.09.725.02a3.01 3.01 0 00-.491 1.299s-1.42 1.386-1.984 1.902c-.215.198-.45.373-.687.551a1.62 1.62 0 01-.257.155c-.018-.073-.024-.14-.032-.176-.108-.457-.232-.91-.52-1.296-.39-.525-.965-.658-1.519-.309-.22.14-.429.187-.677.187-.438.002-.811.41-.8.84.33-.222.71-.11.86.065-.698.137-1.064.772-.863 1.172a.537.537 0 01.206-.217c.294-.163.558-.066.622.097.146.362.449.47.79.51.609.07 1.203.11 1.827.19.86.11.835.692 1 1.095a.736.736 0 001.08.337c.074.234.006.495-.254.547.212.077.614-.062.749-.343.242-.509.137-.914-.292-1.281l-.11-.09a4.37 4.37 0 01-.405-.347c-.187-.18-.22-.395-.085-.614a2.37 2.37 0 01.454-.545c.515-.437 1.05-.853 1.581-1.27.161-.126.34-.233.52-.335a.68.68 0 01.536-.057c.414.147.652-.04.75-.117.06-.044.631-.61 2.346-.847-.24.153-.346.391-.447.633-.086.208-.165.416-.253.625-.965 2.274-1.918 4.511-2.879 6.787-.315.751-.034 1.412.744 1.775.57.264 1.213.124 1.59-.425-.111.375-.16.701-.008 1.012.152.315.399.54.712.676.313.135.684.185 1.021.116.345-.07.573-.296.744-.63.032.744.494 1.184 1.133 1.27v.012c.05.005.101.007.153.007l.047-.002.05.002c.05 0 .102-.002.151-.007V64.2c.64-.087 1.101-.526 1.131-1.27.174.334.401.56.744.63.34.069.708.02 1.02-.116.315-.137.561-.36.716-.676.152-.31.1-.637-.01-1.012.381.55 1.023.689 1.591.425.779-.363 1.06-1.024.744-1.775-.963-2.276-1.915-4.513-2.879-6.787-.088-.209-.171-.417-.255-.625-.099-.242-.204-.48-.446-.633 1.714.236 2.285.803 2.345.847.1.078.339.264.75.117a.679.679 0 01.537.057c.18.102.358.209.52.336.533.416 1.067.832 1.582 1.27.178.147.327.345.453.544.14.219.103.433-.084.614-.107.107-.227.204-.343.298-.024.015-.043.032-.062.049-.039.03-.075.06-.112.09-.427.367-.534.772-.292 1.28.134.282.54.421.747.344-.255-.052-.324-.313-.25-.547a.742.742 0 001.081-.337c.165-.404.137-.984.995-1.096.628-.08 1.225-.118 1.832-.189.339-.04.646-.148.79-.51.066-.163.325-.26.622-.097a.518.518 0 01.203.217c.204-.4-.165-1.035-.86-1.172.152-.176.53-.287.858-.064.01-.432-.362-.839-.798-.841a1.18 1.18 0 01-.676-.187c-.557-.35-1.13-.216-1.523.31-.285.386-.41.838-.521 1.295-.007.037-.01.103-.028.176a1.51 1.51 0 01-.257-.155c-.234-.178-.472-.353-.69-.55-.563-.517-1.984-1.903-1.984-1.903a3.008 3.008 0 00-.489-1.298c-.073-.112.305.124.725-.021-1.207-.717-.42-2.146-3.17-2.642 0 0 .309-.334.38-.61-.06.579 1.106.855 1.12-1.06-.014 1.259 1.18 2.055 1.458.373.264.918 1.339 1.162 1.337-.228.568.953 1.192.352 1.223.007.042.407.148.854.287 1.238.163.446.67 1.731 1.433 1.495.069-.021.122.036.15.08.152.236.487.551.76.587.036.599.04 2.56 1.918 2.995a.52.52 0 01.236.11c.339.351.561.544 1.06.587.162.015.345.09.467.2.341.3.708.514 1.174.523.272.007.394.013.602.17.281.212.68.266.987.186-.244-.178-.633-.407-.69-1.515zM39.457 51.11s.126-.067.217-.232c.092-.167.203-.056.216.053.013.112-.17.222-.433.179zm-1.32 2.795a3.669 3.669 0 00-.385 1.137c-.06.391-.359.382-.526.324-.346-.12-.684-.114-.684-.114.946-.315 1.596-1.347 1.596-1.347zm-1.999.749c.017.08.067.348.063.508a4.963 4.963 0 00-.262-.538c-.007-.01-.007-.03.002-.051a.233.233 0 01.08-.103c.018-.018.036-.026.057-.037l.06.22zm-.594.067c.062-.105.15-.153.191-.142.14.191.245.399.285.607-.16-.09-.336-.184-.523-.277a.287.287 0 01.047-.188zm-.157-.086a.537.537 0 00-.068.19c-.101-.046-.206-.091-.31-.136a.19.19 0 01-.018-.084.429.429 0 01.072-.23.51.51 0 01.183-.171c.045-.022.088-.028.12-.016a2.304 2.304 0 01.186.174c.022.021.041.045.06.067a.47.47 0 00-.225.206zm.472-.623c.011-.004.022-.004.033-.004.05.096.1.196.139.294a.366.366 0 00-.099.06.33.33 0 00-.092.108 2.164 2.164 0 00-.189-.232c0-.011 0-.024.005-.039a.25.25 0 01.077-.12.254.254 0 01.126-.067zm-.34-.388c.025-.013.049-.017.064-.01.081.076.156.162.219.255a.473.473 0 00-.172.1.415.415 0 00-.103.147 2.038 2.038 0 00-.185-.14.1.1 0 01-.012-.066.339.339 0 01.188-.286zm-.614-.14c.047-.091.113-.14.16-.15.108.018.209.05.297.106.015.008.03.021.044.03a.556.556 0 00-.261.384 2.569 2.569 0 00-.262-.142.103.103 0 01-.02-.053.347.347 0 01.042-.174zm.075.451a.164.164 0 01.034.015s.004.002.004.005c.05.025.1.053.146.086a.02.02 0 01.005.008.676.676 0 00-.26.239.604.604 0 00-.097.322 4.701 4.701 0 00-.29-.101.197.197 0 01-.023-.14.509.509 0 01.125-.26.525.525 0 01.233-.167.21.21 0 01.123-.007zm-.494.058a.705.705 0 00-.165.352.415.415 0 00-.004.1 3.61 3.61 0 00-.466-.096c.05-.41.382-.553.644-.547.062.003.127.009.19.024a.78.78 0 00-.199.167zm.294-.659a.518.518 0 00-.103.303 1.095 1.095 0 00-.431-.036c.099-.14.307-.239.534-.267zm-1.755.835c.073-.294.423-.605 1.138-.437-.38.098-.426.392-.453.538-.09-.114-.425-.227-.685-.1zm.496 1.017c-.219-.064-.427-.015-.562.12.013-.358.418-.684.798-.656-.208.085-.275.369-.236.536zm.176.103c-.09-.239.05-.686.45-.652a.89.89 0 01.142.03c-.148.124-.247.356-.247.628 0 .19.045.356.123.481-.236-.07-.376-.243-.468-.487zm.764.536c-.136-.062-.24-.279-.24-.53 0-.295.147-.547.321-.547.088.033.18.067.279.106-.124.118-.206.326-.206.568 0 .168.04.318.103.436l-.257-.033zm.858.104c-.118-.016-.236-.028-.341-.042-.097-.062-.183-.235-.183-.465 0-.266.114-.457.223-.485.135.054.267.112.385.163a.7.7 0 00-.162.477c0 .132.028.253.078.352zm.583.066c-.109-.011-.225-.026-.345-.04-.073-.014-.133-.198-.133-.378 0-.213.077-.397.165-.397.112.047.197.083.25.1.04.018.145.044.181.056-.128.069-.188.213-.188.36a.66.66 0 00.07.299zm.461.1a.341.341 0 01-.026-.682 1.674 1.674 0 011.15.275c-.533-.036-.81.245-.883.31a.348.348 0 01-.24.097zm.558.185c-.098-.1-.268-.131-.268-.131.195-.231.296-.3.55-.35-.323.146-.282.481-.282.481zm.142-.03a.396.396 0 11.791 0 .395.395 0 01-.792 0zm.959.03c.036.034.075.071.116.105.146.12.306.226.427.369.3.363.28.751.182.98-.11.263-.298.327-.298.327s.186-.224-.024-.63a.606.606 0 01-.461.213.616.616 0 01-.595-.459l-.094-.326c-.01-.038-.019-.075-.032-.111a.561.561 0 00.485-.024.585.585 0 00.294-.444zm.461-1.703a1.107 1.107 0 01-.26.376 2.178 2.178 0 00-.369.43s.095-1.336.957-2.127c0 0-.188.356-.248.877-.022.162-.035.337-.08.444zm.798-.97a.85.85 0 01-.064.378c-.073.163-.266.338-.266.338l-.382.361s.092-.142.124-.536c.03-.403.25-.98.637-1.4 0-.001-.118.19-.049.86zm.706-.352a.628.628 0 01-.189.372c-.223.182-.435.373-.435.373s.122-.183.07-.513c-.083-.545.056-1.384.496-2.064 0 0-.219.596.002 1.347a1.5 1.5 0 01.056.485zM56.13 56.86l-.095.327a.615.615 0 01-1.058.245c-.208.406-.021.63-.021.63s-.187-.064-.3-.326c-.097-.23-.116-.618.184-.981.12-.143.28-.249.425-.368.043-.035.081-.072.118-.105a.577.577 0 00.292.444.568.568 0 00.484.023c-.01.036-.021.073-.03.111zm-.19-.215a.397.397 0 010-.791.395.395 0 110 .791zm.541-.364s.043-.335-.279-.48c.253.049.352.118.547.349 0 0-.165.03-.268.131zm1.367-.326c-.12.015-.236.03-.348.04a.632.632 0 00.071-.297c0-.148-.06-.292-.187-.36.037-.013.142-.04.183-.057a3.44 3.44 0 00.244-.1c.092 0 .17.184.17.397 0 .18-.06.364-.133.377zm.013-1.233a.317.317 0 01.047.188c-.187.093-.363.187-.524.277.041-.208.146-.416.284-.607.04-.01.13.036.193.142zm-.071-.292c.02-.021.04-.045.062-.067l.022-.023a1.46 1.46 0 01.165-.15c.03-.013.075-.007.122.015a.485.485 0 01.178.172.41.41 0 01.073.23.163.163 0 01-.02.083c-.102.045-.205.09-.308.137a.495.495 0 00-.067-.19.49.49 0 00-.227-.207zm.64 1.458c-.112.014-.226.026-.344.042a.82.82 0 00.077-.352.7.7 0 00-.163-.476c.12-.052.251-.11.384-.163.112.027.225.219.225.484 0 .23-.083.403-.18.465zm.512-.062l-.258.033a.91.91 0 00.105-.436c0-.242-.08-.45-.203-.568.096-.039.189-.073.274-.106.176 0 .322.252.322.548 0 .25-.105.467-.24.53zm-.024-1.832a.761.761 0 00-.2-.167 1.05 1.05 0 01.19-.024c.261-.006.594.137.645.547a3.88 3.88 0 00-.467.096.385.385 0 00-.005-.1.701.701 0 00-.163-.352zm.788 1.296c-.09.244-.232.416-.466.487a.935.935 0 00.122-.48c0-.273-.098-.505-.246-.63a.958.958 0 01.14-.029c.4-.034.54.413.45.652zm.74.017a.553.553 0 00-.56-.12c.034-.167-.033-.45-.24-.536.381-.028.787.298.8.656zm-.065-1.137c-.261-.126-.598-.013-.686.101-.028-.146-.073-.44-.453-.538.717-.168 1.062.143 1.14.437zm-1.222-.568a1.096 1.096 0 00-.432.036.536.536 0 00-.1-.303c.223.028.43.127.532.267zm-.378.508c.066.08.114.173.122.26.007.036.009.096-.023.14-.097.03-.191.064-.288.1a.592.592 0 00-.098-.322.637.637 0 00-.26-.238c.002-.002.002-.007.004-.009.05-.032.099-.06.148-.085.002-.003.002-.005.004-.005a.203.203 0 01.033-.015.218.218 0 01.124.007.524.524 0 01.234.167zm-.738-.669a.784.784 0 01.296-.105c.047.009.114.058.16.15.03.06.046.122.04.174a.125.125 0 01-.015.053 2.388 2.388 0 00-.264.142.623.623 0 00-.086-.214.551.551 0 00-.176-.17c.015-.009.03-.022.045-.03zm-.223.174c.017-.007.04-.003.067.01.047.02.094.065.13.118a.352.352 0 01.06.168.11.11 0 01-.017.066c-.064.043-.126.09-.18.14a.425.425 0 00-.107-.146.45.45 0 00-.17-.101c.062-.093.133-.178.217-.255zm-.305.394a.236.236 0 01.155.071.25.25 0 01.077.12c.006.015.006.028.006.038a1.9 1.9 0 00-.186.232.405.405 0 00-.097-.107.39.39 0 00-.096-.06c.04-.098.086-.198.141-.294zm-.246.646c.015-.073.034-.146.06-.221.017.01.036.02.055.036.039.03.067.067.08.103.008.021.008.04.002.051a5.447 5.447 0 00-.264.54 2.53 2.53 0 01.067-.51zm-.202.76a.34.34 0 01-.025.682.356.356 0 01-.243-.1c-.071-.063-.348-.345-.884-.308.487-.33.982-.298 1.152-.274zm-.202-.161s-.343-.007-.684.113c-.17.058-.47.067-.53-.323a3.512 3.512 0 00-.386-1.137s.65 1.031 1.6 1.347zm-1.317.13a2.176 2.176 0 00-.365-.43 1.115 1.115 0 01-.261-.376c-.048-.108-.06-.282-.08-.445-.062-.52-.249-.877-.249-.877.86.792.955 2.129.955 2.129zm-.837-1.235c.035.394.127.536.127.536l-.384-.36s-.193-.176-.266-.34a.823.823 0 01-.062-.377c.07-.67-.052-.86-.052-.86.389.42.605.998.637 1.4zm-.982-3.27a.644.644 0 00.219.232c-.269.043-.444-.067-.434-.179.013-.109.123-.22.215-.053zm-.258 1.892c.223-.75.002-1.347.002-1.347.445.68.58 1.52.496 2.064-.051.33.073.513.073.513s-.217-.19-.436-.373a.63.63 0 01-.188-.371 1.542 1.542 0 01.053-.486zm11.282-6.236c-.051.965-.1 1.75.17 2.471 0 0-1.322-.735-1.491-3.507-.024-.39.034-1.395.354-1.416.122-.009.184.122.19.442l.147 1.993c.006.086.039.133.094.13v-.001c.056-.002.073-.06.077-.127l-.028-1.573c.003-.308.078-.362.185-.3.27.161.326 1.429.302 1.888zm-8.778-3.205l-.112-.478c-.055-.213-.008-.27.088-.256.245.032.466.468.52.622.148.432.05.964-.16 1.258-.336-.073-.722-.408-.872-.841-.054-.155-.15-.638.012-.837.065-.077.136-.07.222.13l.207.44c.02.041.039.104.082.086.047-.019.022-.079.013-.124zm.543-.412c-.078-.182-.24-.768-.067-1.023.071-.101.155-.097.279.141l.369.706c.03.048.058.122.11.097.05-.026.017-.097 0-.153l-.262-.76c-.088-.252-.037-.328.077-.319.296.024.6.537.68.721.221.517.159 1.189-.06 1.566-.406-.064-.905-.457-1.126-.976zm1.819-.854l-.837-2.358c-.086-.274-.047-.336.05-.306.248.081.72 1.158.864 1.538.324.86.513 2.074.348 2.41-.341-.145-.979-1.162-1.311-2.047-.127-.337-.485-1.466-.352-1.689.054-.088.125-.066.24.198l.908 2.289c.028.051.053.135.094.117.043-.015.01-.094-.004-.152zm1.22-.738l-1.05-2.134c-.114-.253-.076-.322.03-.307.265.038.757.843.94 1.195.411.794.793 2.175.649 2.527-.373-.086-1.203-1.202-1.628-2.019-.161-.313-.569-1.203-.449-1.443.047-.095.125-.086.269.156l1.152 2.07c.032.052.066.127.109.103.043-.021.004-.092-.021-.148zm1.236-.787l-1.092-1.985c-.122-.25-.079-.326.037-.326.3.007.815.723 1.012 1.066.453.773.786 1.996.693 2.52v.001c-.525-.154-1.343-1.064-1.806-1.86-.176-.302-.592-1.147-.45-1.415.055-.103.141-.103.295.128l1.208 1.929c.037.05.062.1.112.07.05-.027.015-.074-.009-.128zm1.195-.869l-.972-1.916c-.118-.264-.07-.339.052-.332.311.019.83.794 1.023 1.154.434.815.652 1.924.534 2.46-.538-.182-1.274-.99-1.72-1.831-.167-.32-.543-1.176-.386-1.444.062-.106.154-.103.304.143l1.056 1.826c.034.05.062.103.114.075.051-.028.017-.077-.005-.135zm.59 3.56l-.366-1.44c-.052-.228.019-.299.14-.277.308.054.612.76.709 1.09.215.744.227 1.924-.073 2.235-.418-.103-1.066-1.075-1.287-1.842-.086-.292-.163-.938.068-1.148.088-.082.18-.069.266.158l.419 1.26c.023.047.036.117.098.098.059-.014.033-.083.026-.135zm-4.67.788c.08-.072.158-.061.236.134l.371 1.072c.021.041.034.101.086.084.053-.013.032-.073.028-.116l-.296-1.174c-.043-.2.019-.253.124-.235.272.04.566.742.648 1.025.187.635.193 1.646-.073 1.918-.371-.084-.94-.91-1.13-1.561-.076-.252-.2-.964.006-1.147zm1.231.363c-.094-.25-.188-.783.002-.982.076-.075.157-.071.247.122l.455 1.115c.021.04.04.1.092.08.05-.02.026-.075.017-.118l-.394-1.21c-.056-.204.002-.26.109-.249.274.026.547.526.65.807.234.633.313 1.66.067 1.952-.376-.062-1.007-.865-1.245-1.517zm1.21-.701c-.098-.272-.174-.758.032-.974.08-.084.165-.078.266.133l.47 1.156c.024.045.043.11.099.088.054-.02.03-.084.017-.129l-.403-1.28c-.062-.224 0-.286.114-.273.298.03.561.504.675.811.253.693.346 1.813.084 2.13-.406-.068-1.09-.948-1.354-1.662zm.41 2.08c.086-.083.167-.055.246.23l.378 1.474c.02.058.034.144.09.13.054-.01.032-.094.026-.156l-.26-1.5c-.042-.29.022-.351.134-.31.285.109.583 1.14.671 1.548.197.92.141 2.118-.137 2.446-.39-.187-.925-1.227-1.129-2.176-.077-.36-.234-1.47-.019-1.685zm1.377 1.23c-.066-.37-.195-1.498.024-1.71.083-.082.167-.047.238.24l.335 1.506c.017.06.03.148.084.138.055-.009.036-.095.03-.157l-.217-1.53c-.037-.296.03-.354.137-.307.281.12.547 1.174.624 1.59.172.94.086 2.148-.197 2.47-.377-.2-.882-1.275-1.058-2.24zm2.309-4.818c.141.862.264 1.608.444 2.216 0 0-1.283-.329-1.712-2.193-.077-.337-.165-1.152.077-1.364.092-.084.195-.003.245.279l.31 1.317c.016.075.06.112.116.096.06-.012.071-.066.065-.124l-.275-1.648c-.04-.272.032-.332.15-.296.31.093.515 1.313.58 1.717zm-2.122-5.28c.27.004.903.972 1.066 1.3.266.528.434 1.105.59 1.864 0 0-.965-.212-1.692-1.454-.161-.281-.74-1.337-.612-1.584.05-.096.129-.098.27.118l1.103 1.7c.03.045.056.092.097.064.047-.026.015-.07-.007-.12l-.85-1.59c-.11-.23-.073-.3.035-.298zm-10.038 4.552c-.045-.167.021-.24.19-.21.1.017.194.06.29.075.168.026.34.067.5.045.762-.105 1.397-.463 1.927-1.008.313-.322.412-.678.174-1.09-.03-.053-.052-.114-.078-.172-.495-1.21-.248-2.407.659-3.252.646-.599 1.427-.734 2.268-.718.731.014 1.39.27 2.048.56.52.23 1.032.48 1.605.562.112.017.292.03.29.182 0 .18-.247.225-.476.225-.348.002-.938-.056-1.363-.189.105.155.273.539.28.631.023.266-.08.422-.346.446-.258.022-.545-.176-.762-.304-.19-.114-.519-.307-.594-.395.184.248.365.498.459.787.043.135.02.275-.052.35-.072.075-.244.12-.366.096-.35-.07-.768-.433-1.097-.772.159.258.322.504.404.766.053.185.064.375-.052.502-.133.142-.334.15-.498.098-.351-.11-.922-.682-.922-.682.1.101.386.53.509.81.152.342-.106.647-.475.591a1.57 1.57 0 01-.549-.184c.045.086.412.69.515.918.092.206.165.436.178.66.026.376-.176.486-.513.312-.102-.054-.199-.114-.308-.176.027.268.075.509.068.746-.01.342-.184.46-.515.374-.165-.045-.322-.114-.489-.172.004.116.015.22.013.326-.002.359-.213.517-.556.402-.174-.06-.328-.168-.502-.256-.008.06-.021.133-.034.206-.073.425-.369.58-.755.382-.054-.028-.324-.221-.408-.279-.05.125-.294.423-.75.487.22-.547.216-1.165.083-1.68zm2.54 2.399l-.054-.52c-.027-.218.028-.27.123-.24.235.065.397.524.429.684.09.45-.08.949-.326 1.213-.322-.12-.659-.487-.751-.936-.032-.16-.065-.652.124-.83.075-.066.142-.05.202.161l.156.491c.016.045.024.11.071.097.045-.01.03-.075.026-.12zm-3.574-2.948l.208.659c.02.06.039.15.086.13.05-.014.028-.102.017-.167l-.17-.875c-.09-.41-.044-.45.028-.463.277-.052.577 1.096.629 1.317.148.618.107 1.34-.133 1.703-.365-.163-.8-.762-.948-1.382-.056-.22-.144-.9.045-1.143.073-.094.152-.07.238.221zm-.401-1.583c.12.453.025 1.019-.18 1.28a1.316 1.316 0 01-.76-.886c-.043-.16-.055-.531.122-.658.073-.051.129-.047.2.165l.135.41c.017.045.032.11.073.099.043-.011.023-.076.015-.123l-.15-.744c-.045-.221.002-.27.09-.242.225.07.412.538.455.699zm-7.652 3.123c.053.013.066-.075.081-.133l.219-.967c.062-.288.146-.315.236-.228.227.224.206.889.171 1.105-.094.612-.501 1.22-.881 1.401-.296-.337-.494-1.085-.404-1.697.037-.214.27-1.07.552-1.178.107-.04.176.022.15.318l-.161 1.218c-.004.063-.021.148.037.161zm.066-6.67l-.144-.658c-.047-.212.004-.253.086-.232.228.058.395.556.43.717.07.347.087.702-.117 1.047-.22-.084-.542-.249-.697-.693-.054-.155-.135-.534.037-.653.07-.049.124-.044.2.16l.117.334c.02.043.034.105.075.095.04-.011.02-.074.013-.116zm1.012-.424l-.16-.674c-.054-.216-.009-.268.077-.244.225.064.429.52.479.68.14.45.072 1.017-.116 1.287-.307-.114-.687-.545-.827-.991-.051-.16-.141-.653.007-.835.058-.066.122-.051.206.16l.249.643c.017.042.034.109.075.096.04-.013.019-.077.01-.122zm.618 2.375l-.098-.796c-.033-.255.027-.31.124-.27.255.102.429.654.466.842.105.534-.052 1.178-.307 1.461-.344-.167-.725-.71-.828-1.242-.037-.188-.077-.768.12-.954.077-.073.152-.045.217.203l.203.775c.015.052.026.129.076.118.051-.008.032-.082.027-.137zm3.64.137c.05.01.063-.066.078-.118l.202-.775c.068-.248.14-.276.217-.203.195.186.156.766.12.954-.101.533-.485 1.075-.828 1.242-.256-.283-.41-.927-.307-1.46.038-.19.214-.74.465-.844.099-.038.155.016.125.27l-.097.797c-.006.055-.021.129.026.137zm.602-2.39c.04.013.06-.054.077-.096l.251-.644c.08-.21.146-.225.204-.159.148.182.056.674.006.835-.14.446-.519.877-.826.991-.19-.27-.255-.837-.118-1.287.05-.16.256-.616.48-.68.089-.024.131.028.078.244l-.16.674c-.01.045-.033.11.008.122zm1.014.419c.041.01.06-.052.076-.095l.12-.335c.075-.203.128-.208.2-.159.169.119.09.498.038.653-.157.444-.479.61-.702.693-.201-.345-.186-.7-.113-1.047.03-.161.201-.659.429-.717.083-.021.133.02.085.232l-.143.659c-.011.042-.028.105.01.116zm-1.514 6.86l-.067-1.287c-.012-.313.067-.378.19-.33.312.122.478.798.505 1.027.073.65-.197 1.435-.555 1.783-.42-.206-.852-.865-.925-1.515-.026-.231-.013-.937.26-1.167.105-.088.197-.056.255.254l.202 1.26c.012.065.019.157.084.145.062-.011.05-.103.05-.17zm-.191-2.815c-.03-.195-.05-.785.18-.974.09-.072.17-.044.232.213l.203.888c.016.051.024.13.082.123.054-.01.039-.086.034-.144l-.083-.906c-.022-.264.045-.315.154-.277.277.11.446.674.479.87.09.544-.116 1.201-.414 1.486-.376-.176-.78-.734-.867-1.279zm.92-2.295c-.015-.146.004-.588.193-.723.073-.05.135-.023.17.17l.11.602c.008.041.012.101.053.097.043-.007.034-.065.036-.105l-.01-.612c-.007-.2.05-.236.13-.2.215.093.32.524.333.67.04.414-.154.895-.406 1.099-.283-.15-.568-.586-.609-.998zm-1.09 2.473c0 .49-.283 1.035-.603 1.243h-.002a1.342 1.342 0 01-.6-1.097c0-.171.1-.55.34-.63.102-.03.166-.013.183.22l.024.477c.006.05.004.12.053.12h.002c.052 0 .05-.07.056-.12l.056-.82c.017-.234.086-.27.178-.216.24.13.313.65.313.823zm-.49 5.237c.01.067.012.159.083.153.068-.005.058-.095.062-.161v-1.16c0-.314.09-.37.217-.31.332.154.476.837.493 1.069.047.652-.283 1.402-.684 1.71-.442-.247-.873-.945-.919-1.597-.014-.231.03-.929.337-1.128.119-.075.215-.034.258.276l.152 1.148zm-.64.904c.392.19.513.941.513 1.195 0 .707-.47 1.497-.994 1.8-.521-.303-.989-1.092-.989-1.8 0-.254.116-1.005.511-1.195.152-.078.268-.024.296.315l.094 1.32c.009.072.005.173.088.173.086 0 .082-.101.092-.174l.093-1.319c.03-.339.146-.393.296-.315zm-.78-1.2c-.044.652-.475 1.35-.917 1.596-.403-.307-.732-1.057-.685-1.71.016-.231.16-.914.492-1.068.129-.06.219-.004.219.31v1.16c.004.066-.005.156.062.16.069.007.07-.085.086-.152l.148-1.148c.045-.31.141-.351.26-.276.304.2.353.897.336 1.128zm-2.101-4.87c.053.009.064-.07.079-.122l.204-.888c.06-.257.14-.285.23-.213.229.19.212.78.182.974-.09.545-.491 1.103-.87 1.28-.297-.286-.501-.943-.415-1.487.034-.196.206-.76.483-.87.109-.038.175.013.15.277l-.082.906c-.002.058-.017.135.039.144zm-.125 1.976c.026-.23.193-.905.507-1.027.117-.048.201.017.188.33l-.066 1.287c0 .067-.013.159.05.17.063.012.07-.08.087-.144l.202-1.261c.056-.31.145-.342.25-.254.277.23.288.936.26 1.167-.073.65-.502 1.31-.924 1.515-.359-.348-.624-1.133-.554-1.783zm1.59-.804c-.318-.208-.6-.754-.6-1.243 0-.173.07-.693.31-.823.093-.054.163-.018.178.216l.058.82c.005.05.003.12.054.12s.05-.07.056-.12l.027-.477c.018-.233.078-.25.179-.22.242.08.34.459.34.63 0 .492-.285.889-.602 1.097zm-2.707-3.817c.014-.146.118-.577.33-.67.084-.036.142 0 .135.2l-.01.612c0 .04-.011.098.034.105.045.004.05-.056.058-.097l.105-.603c.034-.192.096-.218.171-.169.191.135.206.577.194.723-.044.412-.327.847-.612.998-.251-.204-.446-.685-.405-1.099zm-.065 7.144c.024-.232.195-.905.521-1.028.127-.045.213.02.198.333l-.037.955c.003.066-.012.158.054.17.066.012.073-.08.088-.145l.182-.93c.056-.307.153-.34.262-.25.287.232.305.938.277 1.17a1.651 1.651 0 01-.925 1.321c-.375-.348-.695-.944-.62-1.596zm1.133 1.564c.135-.064.253-.02.279.311l.075 1.111c.01.07.006.168.088.168.081 0 .077-.099.086-.168l.1-.834c.026-.333.136-.382.281-.31.374.187.412.76.412 1.005 0 .693-.368 1.345-.864 1.64-.5-.295-.944-1.063-.944-1.754 0-.247.11-.987.487-1.17zm1.028 5.838l-.318-.679c-.105-.22-.06-.292.05-.292.283-.002.557.333.65.49.25.444.289 1.108.111 1.462a1.404 1.404 0 01-1.11-.686c-.09-.159-.323-.726-.177-.965.056-.097.14-.1.274.104l.42.623c.03.04.065.105.11.076.047-.024.011-.086-.01-.133zm-.196-2.135c-.028-.187-.036-.83.223-1.015.099-.07.187-.045.245.204l.18.768c.013.051.024.127.082.118.062-.01.047-.084.047-.137l-.05-.786c-.015-.257.059-.307.174-.268.303.101.481.719.507.906.08.529-.191 1.012-.528 1.291-.406-.17-.8-.554-.88-1.081zm1.4 1.004c.113-.056.198-.015.222.24l.067.785c.01.056.006.131.07.131.065 0 .063-.075.07-.13l.068-.786c.021-.255.11-.296.223-.24.296.146.388.785.388.974 0 .536-.354 1.42-.749 1.645-.394-.225-.748-1.109-.748-1.645 0-.19.09-.828.388-.974zm.75-1.214c.028-.187.206-.805.506-.906.118-.038.193.011.174.268l-.047.786c-.003.053-.017.126.045.137.062.008.068-.067.086-.118l.178-.768c.058-.249.144-.275.246-.204.256.185.25.828.22 1.015-.076.528-.475.912-.878 1.081-.34-.279-.607-.762-.53-1.291zm.832 1.864c.09-.157.367-.491.65-.49.108 0 .153.072.05.293l-.32.678c-.02.047-.058.11-.01.134.046.029.079-.036.109-.076l.42-.623c.135-.203.217-.201.277-.104.146.24-.09.806-.176.965a1.41 1.41 0 01-1.111.686c-.18-.354-.142-1.02.111-1.463zm.088-4.074c0-.245.039-.818.412-1.004.146-.073.253-.024.283.309l.099.834c.008.07.005.168.088.168.08 0 .075-.099.084-.168l.075-1.11c.027-.331.143-.376.28-.312.378.182.486.922.486 1.17 0 .69-.445 1.458-.94 1.754-.496-.296-.867-.949-.867-1.641zm.91-2.572c-.028-.232-.013-.938.274-1.17.112-.09.209-.057.262.25l.183.93c.017.065.023.157.09.144.066-.01.053-.103.053-.17l-.038-.954c-.013-.313.07-.378.197-.333.328.123.498.796.526 1.028.072.652-.247 1.248-.622 1.596a1.655 1.655 0 01-.925-1.321zm1.476-1.337c-.38-.18-.787-.79-.882-1.4-.03-.217-.056-.882.176-1.106.086-.087.172-.06.232.228l.22.967c.016.058.026.146.082.133.056-.013.039-.098.037-.16l-.163-1.219c-.024-.296.045-.358.154-.318.279.108.513.964.547 1.178.094.612-.103 1.36-.403 1.697zm.52-8.285a.88.88 0 01-.415-.656c-.017-.11.01-.357.137-.423.058-.028.09-.02.12.128l.041.239c.009.03.013.073.043.07.026-.004.02-.049.02-.08l-.024-.458c-.007-.15.025-.178.083-.152.144.068.223.392.234.504.04.31-.079.675-.24.828zm.522-.81c-.336-.524-.339-.968-.339-.968s-.517.645-1.523.634c.052-.97.704-1.417.704-1.417s-.665-.06-.993-.436c.294-.073.553-.206.703-.281.054-.028.097-.065.164-.04.062.02.092.156.023.177-.04.013-.114.026-.114.026a.12.12 0 00-.092.14.118.118 0 00.142.09l.045-.011s.051-.009.094.013a.22.22 0 01.073.088c.073.135.148.26.238.364a.14.14 0 01.03.103c0 .058-.058.118-.058.118l-.442.485c-.04.039-.027.067-.02.08.012.006.042.03.089-.007l.545-.395s.054-.047.122-.045a.184.184 0 01.122.043c.11.082.222.146.33.202.057.026.102.043.119.094.015.045-.01.103-.01.103l-.029.056a.115.115 0 00.056.157c.06.03.13.004.157-.054l.034-.073s.022-.075.092-.096c.065-.02.103-.007.163.004.217.043.386.047.46.051-.112.022-.764.2-.885.794zm.438-1.093c-1.115-.18-1.476-1.278-1.54-1.502.433.562 1 .335 1.214.213.397-.228.646-.534.91-.264.118.124.227.309.502.367.285.062.465-.013.611-.144.146-.129.294-.343.504-.217.238.148.017.614-.453 1.058-.54.509-1.22.573-1.748.49zm1.075-1.588c0-.139.124-.253.279-.253.152 0 .276.114.276.253 0 .142-.124.256-.276.256-.155 0-.28-.114-.28-.256zm1.737 1.689s-.347-.1-.969.092c-.622.191-.914.07-.914.07.425-.048.755-.205.997-.28.679-.204.886.118.886.118zm.855-.382c.43.2 1.074.348 1.563.118.408-.189.35-.65.35-.65.107.337-.084.747-.517.869-.791.225-1.588-.16-1.965-.348-.416-.205-.695-.075-.695-.075s.094-.105.324-.184c.296-.106.444.043.94.27zm-.886-1.632c.055.042.044.195.139.193.058-.003.056-.078.137-.11.155-.064 1.363.071 1.482 1.038 0 0-.39-.268-1.122-.175-.714.086-1.555.64-1.555.64s.67-.512.642-1.243c-.01-.313.18-.42.277-.343zm-6.53-.15s.825.381 2.447-.104c1.62-.485 2.09-.562 2.759-.39.778.2 1 .605.884.774-.114.161-.395.078-.698-.047-.21-.083-.476-.197-.71-.212-.33-.026-.551.015-1.04.39-.472.367-1.004.48-1.354-.051 0 0-1.566.351-2.289-.36zm.083.72s.365.084.753-.054c.171-.075.24.005.231.071-.012.114-.56.247-.984-.017zm0 .67s.296.051.599-.084c.124-.065.218-.011.207.06-.012.103-.424.24-.806.024zm.624.319c.096-.122.425-.448.646-.4.077.016.105.072-.028.235l-.371.472c-.026.036-.069.081-.039.107.032.026.071-.021.105-.051l.348-.341c.126-.13.2-.127.24-.054.099.176-.238.57-.348.682a1.062 1.062 0 01-.896.302c-.03-.383.135-.68.343-.952zm-1.141 1.809c.073-.15.22-.52.435-.517.09 0 .133.034.069.248l-.11.348c-.01.045-.036.105.005.12.043.017.062-.045.084-.088l.287-.628c.096-.204.161-.209.217-.142.154.18-.033.685-.088.843-.163.472-.545.938-.966 1.23-.133-.2-.133-.994.067-1.414zm-.635 2.18c.028-.127.16-.492.354-.55.077-.023.12.015.099.187l-.071.532c-.005.034-.02.085.019.094.036.007.045-.043.058-.077l.152-.513c.05-.167.107-.184.165-.133.155.135.123.524.097.65-.077.354-.367.706-.629.807-.2-.202-.322-.642-.244-.998zm-.065 1.759c.048-.191.185-.415.312-.488.377-.214.682.245.454.554-.242.332-.68.287-.851.862 0-.315.027-.699.085-.928zm-.354 4.024c.009.075.007.18.08.18.077 0 .07-.105.081-.18l.082-1.347c.026-.359.126-.414.26-.335.345.202.452.993.452 1.26 0 .746-.414 1.574-.875 1.894-.46-.32-.871-1.148-.871-1.895 0-.266.103-1.057.45-1.259.133-.08.236-.024.26.335l.081 1.347zm-.092-3.096c-.17-.575-.607-.53-.85-.862-.231-.31.076-.768.456-.554.124.073.259.297.31.488.056.229.084.613.084.928zm-.545-2.518l-.07-.532c-.027-.172.019-.21.096-.187.193.058.326.423.352.55.08.355-.043.795-.24.997-.266-.101-.558-.453-.633-.807-.028-.126-.056-.515.096-.65.06-.051.116-.034.165.133l.155.513c.01.034.019.084.058.077h.002c.034-.009.024-.06.02-.094zm-.65-2.27l-.11-.348c-.066-.214-.023-.248.067-.248.217-.003.365.367.438.517.197.42.197 1.214.064 1.414-.42-.292-.8-.758-.965-1.23-.054-.158-.24-.663-.086-.843.054-.067.122-.062.215.142l.29.628c.02.043.042.105.083.088.04-.015.015-.075.004-.12zm-.403-.936c-.23.022-.575.013-.897-.302-.111-.111-.446-.506-.35-.682.041-.073.114-.075.239.054l.353.34c.03.031.071.078.104.052.03-.026-.013-.07-.039-.107l-.373-.472c-.131-.163-.105-.219-.024-.236.22-.047.55.279.644.4.208.274.373.57.343.953zm.279-1.271c-.382.216-.792.079-.805-.024-.01-.071.082-.125.206-.06.307.135.599.084.599.084zm.002-.67c-.425.264-.974.131-.987.017-.006-.066.062-.146.234-.07.388.137.753.053.753.053zm-5.125-1.214c.672-.172 1.14-.095 2.76.39 1.623.485 2.446.103 2.446.103-.72.712-2.287.36-2.287.36-.35.533-.881.419-1.355.052-.49-.375-.706-.416-1.039-.39-.233.015-.5.129-.708.212-.304.125-.59.208-.699.047-.118-.169.105-.575.882-.774zm.384.97c0 .141-.124.255-.277.255-.152 0-.28-.114-.28-.256 0-.139.128-.253.28-.253.153 0 .277.114.277.253zm-2.34.62c-.737-.093-1.127.175-1.127.175.12-.967 1.328-1.102 1.487-1.038.077.032.077.107.135.11.092.002.084-.15.14-.193.093-.078.287.03.276.343-.028.731.64 1.244.64 1.244s-.84-.555-1.552-.641zm.317.675c-.378.189-1.174.573-1.968.348-.433-.122-.622-.532-.517-.869 0 0-.055.461.352.65.49.23 1.133.082 1.564-.118.496-.227.642-.376.94-.27.23.08.324.184.324.184s-.281-.13-.695.075zm1.255.485c-.622-.193-.97-.092-.97-.092s.208-.322.884-.118c.243.075.573.232 1 .28 0 0-.296.121-.914-.07zm.092-.682c-.47-.444-.69-.91-.448-1.058.205-.126.356.088.502.217.148.131.326.206.609.144.277-.058.384-.243.504-.367.26-.27.51.036.908.264.216.122.783.35 1.216-.213-.064.224-.425 1.322-1.54 1.502-.528.084-1.21.02-1.751-.49zm2.188 1.581c-.118-.594-.772-.772-.884-.794.073-.004.24-.008.457-.051.063-.011.103-.024.165-.004.071.02.095.096.095.096l.032.073a.113.113 0 00.154.054.116.116 0 00.058-.157l-.025-.056s-.03-.058-.015-.103c.017-.051.064-.068.118-.094.111-.056.22-.12.332-.202a.19.19 0 01.125-.043.202.202 0 01.122.045l.543.395c.047.037.079.013.083.007.013-.013.028-.041-.017-.08l-.44-.485s-.057-.06-.06-.118a.128.128 0 01.035-.103 2.13 2.13 0 00.233-.364.19.19 0 01.078-.088c.04-.022.092-.013.092-.013l.045.01a.116.116 0 00.14-.09.115.115 0 00-.088-.139s-.078-.013-.114-.026c-.071-.021-.04-.156.021-.178.065-.024.108.013.166.041.145.075.407.208.699.28-.324.376-.993.437-.993.437s.652.448.705 1.417c-1.01.011-1.523-.634-1.523-.634s-.002.444-.339.967zm.522.811c-.162-.153-.277-.519-.243-.828.015-.112.094-.436.238-.504.054-.026.09.002.084.152l-.024.457c0 .032-.006.077.022.081.03.003.032-.04.038-.07l.045-.239c.026-.148.063-.156.116-.128.131.066.155.313.142.423a.89.89 0 01-.418.656zm.047 3.984c.043-.16.23-.629.457-.7.088-.027.135.022.092.243l-.154.744c-.007.047-.026.112.017.123.04.01.055-.054.072-.099l.136-.41c.073-.212.126-.216.201-.165.176.127.163.498.12.658-.12.455-.45.762-.759.887-.204-.262-.305-.828-.182-1.281zm-1.197 2.184c.051-.221.35-1.37.628-1.317.07.012.118.053.026.463l-.17.875c-.008.065-.032.153.018.167.049.02.066-.07.09-.13l.206-.659c.088-.292.163-.315.238-.22.186.241.098.921.047 1.142-.148.62-.586 1.22-.952 1.382-.24-.363-.281-1.085-.131-1.703zm-9.82-5.26c.575-.082 1.086-.333 1.605-.563.657-.29 1.317-.545 2.051-.56.837-.015 1.622.12 2.266.719.91.845 1.152 2.043.656 3.252-.024.058-.045.119-.075.172-.238.412-.14.768.174 1.09.532.545 1.165.903 1.924 1.008.163.022.333-.02.5-.045.099-.015.195-.058.29-.075.171-.03.236.043.195.21-.135.515-.142 1.133.081 1.68-.454-.064-.701-.362-.75-.487-.086.058-.357.25-.408.279-.386.197-.682.043-.76-.382a7.525 7.525 0 00-.032-.206c-.171.088-.326.195-.5.256-.34.115-.555-.043-.557-.402 0-.105.008-.21.015-.326-.168.058-.327.127-.492.172-.328.086-.501-.032-.51-.374-.009-.237.038-.478.062-.746-.105.062-.204.122-.305.176-.339.174-.536.064-.512-.311.01-.225.088-.455.178-.66.1-.228.471-.833.515-.92-.179.097-.34.153-.55.185-.37.056-.626-.249-.478-.592.124-.279.412-.708.51-.809 0 0-.566.571-.92.682-.163.052-.369.044-.498-.098-.12-.127-.109-.317-.051-.502.081-.262.243-.508.401-.766-.326.34-.746.702-1.094.772-.122.024-.294-.021-.365-.096-.073-.075-.098-.215-.053-.35.094-.29.274-.539.459-.787-.077.088-.403.28-.595.395-.216.128-.504.326-.761.304-.266-.024-.371-.18-.345-.446.008-.092.173-.476.28-.63-.428.132-1.019.19-1.366.188-.228 0-.476-.045-.476-.225-.002-.152.18-.165.292-.182zm7.067 7.727c.05.013.058-.052.071-.097l.157-.49c.06-.211.128-.228.203-.162.189.178.157.67.125.83-.093.449-.431.816-.755.936-.243-.264-.414-.764-.322-1.213.03-.16.193-.62.431-.684.09-.03.148.022.118.24l-.054.52c-.002.045-.019.11.026.12zm-7.189-4.158c.05.028.075-.025.112-.075l1.055-1.826c.153-.246.24-.249.303-.143.159.268-.215 1.124-.386 1.444-.444.84-1.18 1.65-1.719 1.832-.118-.537.101-1.646.535-2.461.188-.36.712-1.135 1.023-1.154.12-.007.17.068.051.332l-.971 1.916c-.022.058-.054.107-.003.135zm1.187.863c.051.03.077-.022.111-.071l1.208-1.929c.154-.231.243-.231.298-.128.142.268-.277 1.113-.453 1.415-.46.796-1.278 1.706-1.802 1.86h-.002v-.002c-.09-.523.243-1.746.691-2.519.197-.343.715-1.06 1.015-1.066.116 0 .159.075.034.326l-1.09 1.985c-.023.054-.057.1-.01.129zm1.225.806c.04.024.075-.051.11-.103l1.151-2.07c.142-.242.219-.251.266-.156.122.24-.285 1.13-.448 1.443-.423.817-1.256 1.933-1.627 2.02-.143-.353.239-1.734.65-2.528.183-.352.676-1.157.942-1.195.105-.015.14.054.024.307l-1.05 2.134c-.02.056-.061.127-.018.148zm1.235.742c.041.018.069-.066.095-.117l.911-2.29c.114-.263.185-.285.238-.197.131.223-.227 1.352-.351 1.689-.333.885-.968 1.902-1.313 2.046-.165-.335.026-1.549.347-2.41.144-.379.618-1.456.865-1.537.098-.03.14.032.051.306l-.836 2.358c-.015.058-.05.137-.007.152zm-4.007-.703c.118-.022.189.05.14.277l-.368 1.44c-.008.05-.032.12.026.134.06.02.078-.051.099-.098l.416-1.26c.088-.227.176-.24.266-.158.232.21.155.856.071 1.148-.221.767-.869 1.74-1.29 1.842-.295-.311-.285-1.49-.07-2.235.094-.33.399-1.036.71-1.09zm-.416 3.658c.107-.047.171.01.137.307l-.219 1.529c-.004.062-.023.148.03.157.054.01.067-.077.084-.137l.336-1.506c.072-.288.153-.322.239-.24.219.212.09 1.34.026 1.71-.18.965-.683 2.04-1.06 2.239-.285-.322-.37-1.53-.2-2.47.075-.416.348-1.47.627-1.59zm.723 2.006c.085-.408.386-1.44.671-1.55.112-.04.174.022.133.312l-.26 1.5c-.006.061-.027.145.026.156.056.013.069-.073.088-.13l.378-1.475c.08-.285.163-.313.244-.229.219.214.06 1.326-.017 1.686-.2.949-.735 1.989-1.126 2.176-.277-.329-.335-1.526-.137-2.446zm.34-1.835c-.263-.317-.169-1.437.084-2.13.114-.307.378-.78.674-.81.116-.014.174.048.116.271l-.403 1.281c-.011.045-.039.11.014.129.058.021.076-.043.102-.088l.47-1.156c.1-.21.186-.217.265-.133.206.216.129.702.03.974-.264.714-.946 1.594-1.351 1.662zm1.387-1.396c.105-.281.373-.781.65-.807.107-.01.163.045.107.249l-.39 1.21c-.011.043-.035.099.015.118.053.02.07-.04.092-.08l.455-1.115c.09-.193.171-.197.244-.122.193.2.099.731.006.982-.242.652-.87 1.455-1.246 1.517-.247-.292-.17-1.32.067-1.952zm1.212.862c.081-.283.373-.985.645-1.025.108-.018.168.034.127.235l-.294 1.174c-.008.043-.028.103.024.116.054.017.066-.043.083-.084l.376-1.072c.077-.195.154-.206.236-.134.206.183.081.895.008 1.147-.195.651-.763 1.477-1.132 1.561-.266-.272-.262-1.283-.073-1.918zm1.4-2.48c.078-.184.382-.697.679-.72.113-.01.165.066.079.319l-.264.76c-.015.055-.05.126 0 .152.054.025.081-.05.111-.097l.372-.706c.12-.238.208-.242.274-.141.176.255.013.84-.064 1.023-.221.52-.721.912-1.13.976-.217-.377-.277-1.049-.056-1.566zm1.236.89c.052-.154.273-.59.517-.622.097-.015.144.043.088.256l-.111.478c-.011.045-.035.105.008.124.045.018.065-.045.084-.086l.208-.44c.088-.2.159-.207.223-.13.163.2.065.682.013.837-.15.433-.539.768-.873.84-.208-.293-.31-.825-.157-1.257zm-6.92-5.026c.163-.328.793-1.296 1.068-1.3.105-.002.144.068.032.298l-.85 1.59c-.021.05-.053.094-.01.12.045.028.07-.02.103-.065l1.1-1.699c.144-.216.221-.214.27-.118.127.247-.45 1.303-.613 1.584-.725 1.242-1.69 1.454-1.69 1.454.154-.76.321-1.336.59-1.864zm-1.5 6.196c.18-.608.3-1.354.444-2.216.067-.404.268-1.624.58-1.717.117-.036.188.024.15.296l-.275 1.648c-.004.058.002.112.062.124.062.016.103-.021.116-.096l.313-1.317c.047-.282.152-.363.245-.28.24.213.154 1.028.075 1.365-.427 1.864-1.71 2.193-1.71 2.193zm-.037 4.618c.27-.72.224-1.506.172-2.471-.026-.459.032-1.727.305-1.888.105-.062.178-.008.18.3l-.026 1.573c.002.066.021.125.077.127v.002c.058.002.09-.045.093-.131l.146-1.993c.006-.32.07-.45.192-.442.32.021.378 1.026.357 1.416-.174 2.771-1.496 3.507-1.496 3.507zm-.313 5.977c.506-.845.395-2.001.341-3.175-.025-.556.045-2.096.354-2.293.118-.078.202-.013.202.364l-.02 2.004c.003.079.022.15.088.155.065.004.1-.054.104-.16l.079-2.37c.009-.386.081-.547.221-.536.363.025.388 1.232.373 1.706-.141 3.956-1.742 4.305-1.742 4.305zm.974-.399c.582-.688.796-1.853.942-2.945.069-.502.069-1.97.373-2.102.12-.052.243.002.226.373l-.106 2.036c-.008.073-.004.14.054.152.058.011.099-.036.12-.129l.208-1.911c.011-.38.125-.44.247-.415.324.08.298 1.245.225 1.672-.543 3.2-2.289 3.27-2.289 3.27zm1.431-.628c.5-.515.852-1.515 1.036-2.403.082-.395.305-1.493.558-1.582.095-.036.227.015.155.308l-.387 1.68c-.01.055-.01.109.035.124.047.01.081-.021.103-.097l.416-1.576c.068-.273.146-.374.244-.344.252.078.046.97-.036 1.305-.607 2.513-2.124 2.585-2.124 2.585zm3.147-2.491c-.433 1.695-1.65 1.718-1.65 1.718.395-.364.646-.967.799-1.62.066-.291.25-1.1.446-1.155.077-.022.18.02.12.233l-.354 1.318c-.008.04-.007.08.028.091.034.011.062-.012.08-.066l.377-1.238c.056-.201.118-.272.193-.247.195.067.026.721-.039.966zm.236-3.64c-.15.915-.605 1.94-.954 2.138-.269-.298-.365-1.441-.217-2.332.066-.396.305-1.396.562-1.516.1-.048.159.008.131.29l-.18 1.426c-.005.06-.02.142.032.15.05.009.06-.075.073-.133l.292-1.409c.064-.275.137-.307.218-.23.206.195.101 1.265.043 1.615zm.258 2.233c-.2-.265-.221-1.251-.056-2.012.073-.342.26-1.024.474-1.12.083-.037.129.015.09.255l-.14.97c-.008.048-.023.12.016.128.04.009.056-.062.07-.111l.359-1.44c.064-.238.128-.264.186-.195.157.174-.055 1.414-.12 1.712-.165.787-.585 1.656-.88 1.813zm1.913-1.626c-.673 1.531-1.463 1.585-.766-.264.084-.224.303-.721.46-.77.073-.022.111.025.073.188l-.245.813c-.004.037-.024.082.01.093.037.01.048-.035.063-.07l.513-1.238c.064-.156.12-.166.169-.11.131.143-.141 1.046-.277 1.358zm.597-2.629c-.17.704-.58 1.226-.931 1.339-.255-.262-.388-.934-.221-1.618.073-.302.343-1.105.6-1.17.101-.025.16.025.125.244l-.213 1.1c-.004.045-.023.11.026.123.052.01.062-.054.08-.097l.296-1.004c.07-.21.143-.228.223-.16.2.177.08.976.015 1.243zm.452 1.485c-.334-.084-.442-.811-.298-1.422.067-.273.292-.933.55-.987.098-.024.158.022.128.219l-.189 1.068c-.002.04-.019.095.03.107.052.013.063-.045.078-.083l.292-.981c.06-.186.135-.201.214-.14.206.164.116.829.06 1.071-.15.629-.534 1.232-.865 1.148zm2.077-.747c-.111.599-.433 1.273-.785 1.197-.352-.073-.427-.823-.32-1.405.05-.26.245-.95.485-1.012.092-.024.15.017.133.203l-.144 1.035c0 .038-.013.092.033.1.049.01.058-.045.07-.08l.236-.958c.05-.18.118-.195.195-.14.202.145.142.83.097 1.06zm.092-2.409c.017-.16.13-.63.346-.719.083-.033.14.011.13.23l-.023.676c0 .047-.009.11.037.118.042.006.049-.058.06-.1l.116-.662c.036-.212.1-.236.173-.176.191.161.202.653.182.814-.044.452-.34.956-.633 1.102-.246-.242-.435-.828-.388-1.283zm1.195 2.62c-.051.581-.31 1.243-.65 1.216-.337-.032-.472-.753-.418-1.318.021-.25.148-.862.367-.94.088-.033.146 0 .146.18l-.052 1.014c.005.036-.002.09.045.094.045.002.047-.05.056-.084l.135-.935c.032-.176.097-.195.176-.15.202.12.219.702.195.923zm.069-2.555c.075-.376.466-.659.663-.68-.221.547-.33 1.317.244 2.194-.075-.038-.493-.126-.699-.414-.249-.343-.305-.611-.208-1.1zm.817 3.964c-.244.024-.489-.448-.545-1.053-.056-.605.099-1.113.346-1.137.14-.01.279.135.384.375a3.229 3.229 0 00.109 1.436c-.062.223-.163.368-.294.38zm-.111-3.831c.006-.204.107-.813.395-.962.109-.057.192-.015.203.265l.045.506c.007.058 0 .14.063.141.062.003.06-.079.068-.137l.086-.502c.028-.277.114-.317.22-.253.28.165.346.779.34.985-.015.577-.37 1.21-.751 1.443-.369-.255-.684-.905-.67-1.486zm.483 2.81c-.03-.236-.074-.953.24-1.17.115-.077.225-.047.287.269l.165.716c.015.067.024.16.097.153.073-.009.056-.103.056-.172l.025-.47c.018-.31.078-.381.215-.326.356.14.429.726.459.961.082.668-.146 1.298-.556 1.635-.478-.23-.905-.929-.988-1.596zm-.093 2.285c.011-.148.097-.528.283-.57.073-.02.125.001.131.106v.548c.002.02-.002.053.039.055.036.002.039-.028.045-.05l.086-.538c.019-.104.077-.116.143-.088.178.073.204.477.194.61-.028.345-.217.742-.513.714-.294-.028-.436-.45-.408-.787zm-.954.156c.008-.113.077-.401.236-.433.06-.013.105.005.109.083l.004.42c.002.014-.002.037.033.04.032.004.032-.022.036-.036l.068-.41c.02-.08.065-.088.123-.067.15.058.171.365.165.465-.021.265-.18.565-.425.541-.249-.021-.37-.347-.35-.603zm-.698.912c.01-.127.084-.444.251-.483.065-.012.112.005.116.092l.004.464c.002.017-.002.043.035.047.034.002.034-.026.04-.043l.073-.455c.02-.088.07-.098.131-.073.159.062.183.404.172.515-.024.292-.189.626-.453.603-.264-.023-.39-.383-.369-.667zm.401 2.69c-.264.125-.302-.113-.218-.264.081-.148.405-.122.7.17 0 0-.218-.029-.482.094zm.588-1.184c-.028.359-.234.768-.56.738-.324-.03-.48-.47-.454-.82.013-.154.105-.544.308-.59.082-.016.14.005.144.113l.004.568c.005.023-.002.054.044.058.042.005.042-.028.049-.051l.092-.56c.024-.105.084-.118.161-.088.195.077.223.495.212.632zm-.025-1.167c.023-.163.146-.57.366-.605.086-.015.146.013.144.129l-.037.6c.005.027-.004.058.041.065.05.007.05-.028.06-.051l.136-.587c.03-.11.094-.12.174-.083.201.097.203.541.182.683-.054.38-.303.8-.642.746-.34-.054-.478-.53-.424-.897zm.87 1.74c-.068.305-.285.637-.53.577-.246-.06-.308-.457-.24-.755.028-.13.153-.457.318-.476.064-.007.105.02.094.113l-.073.487c0 .021-.008.05.026.056.032.009.036-.02.047-.038l.144-.473c.032-.09.081-.094.135-.06.142.088.105.451.08.569zm.603-.058c-.3-.007-.478-.365-.478-.659 0-.128.058-.463.245-.512.072-.022.128-.007.141.085l.043.475c.002.017 0 .044.04.044.044 0 .041-.026.044-.044l.047-.475c.015-.092.068-.105.14-.085.186.051.244.4.244.516-.002.3-.165.66-.466.655zm.228-1.336c-.264-.024-.39-.352-.372-.61.01-.116.082-.405.247-.44.067-.012.11.005.118.086l.005.42c.004.018-.002.041.034.044.034.004.034-.02.04-.037l.072-.416c.017-.08.068-.088.13-.064.155.057.18.369.172.47-.021.268-.184.57-.446.547zm1.218.347c-.023.3-.19.648-.448.624-.257-.025-.382-.394-.356-.688.008-.13.083-.46.247-.498.062-.018.109 0 .113.092v.478c.005.02-.002.048.033.05.036.002.036-.024.04-.041l.075-.474c.02-.09.069-.101.129-.075.157.064.176.416.167.532zm-.787-1.508c-.11-.193-.375-.798-.234-1.076.05-.106.14-.104.305.143l.512.757c.037.051.08.129.127.1.047-.03.002-.102-.023-.16l-.408-.817c-.135-.266-.095-.345.026-.337.308.015.707.543.82.734.312.534.394 1.287.23 1.686-.428-.054-1.042-.496-1.355-1.03zm-.292 11.25c-.184.718-.922.998-1.587.616-.51-.299-.695-.792-.487-1.365.684-1.864 2.935-7.046 3.168-7.667a.19.19 0 01.23-.119c.098.03.154.136.12.237-.457 1.523-2.16 6.461-2.272 6.832-.017.056-.045.112-.04.164.006.061.038.117.062.177.053-.036.12-.061.152-.11.04-.055.051-.128.073-.194.354-1.176 1.862-5.716 2.13-6.588a.185.185 0 01.234-.13.19.19 0 01.126.22c-.3 1.291-1.62 6.818-1.909 7.927zm2.457 1.133c-.06.742-.755 1.14-1.498.877-.575-.204-.85-.661-.74-1.262.352-1.952 1.712-7.802 1.84-8.49h.003a.199.199 0 01.22-.166c.11.013.19.113.179.225-.202 1.665-1.066 7.13-1.111 7.513-.007.056-.026.118-.011.17.015.058.062.107.094.163.047-.045.11-.081.135-.135.03-.06.03-.135.039-.204.148-1.216.895-6.33 1.017-7.285a.202.202 0 01.401.028 784.743 784.743 0 01-.568 8.566zm1.39 1.62c-.655.034-1.163-.421-1.137-1.084 0-.018 0-.032.002-.05 0-.019.002-.04.004-.062l.002-.053c.069-1.472.406-7.18.515-8.818a.242.242 0 01.245-.22h.002c.137 0 .247.11.247.244.004 2.05 0 7.412.002 7.8 0 .056-.011.119.008.166.022.055.071.098.11.146.043-.048.088-.09.111-.146.02-.047.009-.11.009-.165 0-.389-.002-5.75 0-7.8 0-.136.111-.245.249-.245.13 0 .236.094.247.22.109 1.638.446 7.346.512 8.818l.007.053v.112c.032.663-.479 1.118-1.135 1.083zm2.887-.743c-.738.264-1.437-.135-1.495-.877-.09-1.142-.496-7.17-.568-8.566a.201.201 0 01.401-.028c.12.954.868 6.069 1.019 7.285.006.068.004.144.036.203.026.054.086.09.133.136.034-.056.082-.105.097-.163.015-.052-.005-.114-.01-.17-.046-.384-.91-5.848-1.112-7.513a.203.203 0 01.401-.06c.127.688 1.489 6.538 1.84 8.491.11.601-.165 1.058-.742 1.262zm-.132-10.426c.229.622 2.483 5.803 3.168 7.667.21.573.026 1.066-.491 1.365-.661.382-1.399.103-1.585-.616-.288-1.109-1.606-6.635-1.908-7.927a.19.19 0 01.127-.22.185.185 0 01.231.13c.27.873 1.775 5.412 2.133 6.588.021.067.032.14.07.193.037.05.101.076.153.112.024-.06.058-.116.062-.178.006-.052-.021-.108-.038-.164-.114-.37-1.815-5.309-2.277-6.832a.188.188 0 01.125-.236.189.189 0 01.23.118zm-.554-1.804c-.163-.4-.082-1.153.232-1.687.113-.19.51-.718.82-.734.115-.008.158.072.025.337l-.406.817c-.026.058-.075.131-.026.161.05.028.09-.049.127-.1l.513-.758c.165-.247.253-.249.307-.142.137.277-.127.882-.238 1.075-.314.535-.925.977-1.354 1.03zm1.017 1.102c-.26.024-.423-.324-.449-.624-.008-.116.013-.468.168-.532.06-.026.107-.015.128.075l.073.474c.007.018.007.043.04.04.036-.001.033-.03.033-.048v-.479c.007-.092.052-.11.114-.092.165.038.238.369.249.498.023.294-.101.663-.356.688zm.324-1.519c-.009-.1.017-.412.173-.47.063-.023.11-.014.13.065l.072.416c.002.017.002.041.04.037.033-.003.03-.026.033-.043l.004-.42c.007-.082.052-.1.118-.087.166.035.238.324.247.44.021.258-.11.586-.371.61-.26.023-.427-.28-.446-.548zm.673 1.884c-.302.004-.463-.354-.463-.654-.002-.117.056-.466.24-.517.073-.02.127-.007.142.085l.043.475c.006.019.004.045.045.045.04 0 .038-.028.045-.045l.04-.475c.013-.092.07-.106.14-.085.187.05.245.384.245.513.002.293-.174.652-.477.658zm1.133.635c-.247.06-.46-.272-.528-.577-.03-.118-.062-.48.078-.569.053-.034.1-.03.134.06l.144.473c.009.019.016.047.048.038.034-.007.025-.035.025-.056l-.075-.487c-.01-.094.03-.12.095-.113.165.02.287.345.32.476.068.298.006.694-.241.755zm.903.034c-.266-.122-.48-.094-.48-.094.294-.292.615-.318.7-.17.083.15.044.389-.22.264zm-.03-.446c-.324.03-.53-.38-.56-.738-.01-.137.02-.555.215-.633.077-.03.137-.017.159.088l.092.56c.008.024.008.056.051.052.043-.005.039-.035.043-.058v-.569c.009-.108.065-.129.144-.111.208.044.3.435.313.59.026.35-.133.79-.457.82zm-.088-2.621l.076.455c.001.017.001.045.038.042.036-.004.032-.03.036-.047v-.463c.005-.088.052-.105.116-.092.167.038.243.356.253.482.02.284-.107.644-.369.667-.261.024-.429-.31-.452-.602-.011-.112.013-.453.172-.515.062-.026.11-.016.13.073zm-.787-.938c.056-.021.105-.013.12.066l.069.41c.006.015.006.041.038.036.034-.002.03-.025.034-.04l.003-.419c.004-.079.05-.096.111-.084.157.033.226.32.234.434.017.255-.1.582-.35.603-.246.023-.403-.277-.424-.541-.009-.1.013-.407.165-.465zm-.174 1.843c.047-.007.041-.038.041-.065l-.037-.6c0-.116.06-.144.146-.129.223.034.346.442.37.605.05.367-.088.843-.428.897-.34.054-.587-.367-.641-.746-.022-.142-.02-.586.184-.683.076-.036.142-.028.172.083l.137.587c.009.023.011.058.056.05zm-.671-1.506c.006.021.006.051.049.05.039-.003.032-.035.034-.056v-.548c.007-.105.058-.126.131-.107.187.043.275.423.286.57.025.337-.116.76-.41.788-.296.028-.485-.369-.51-.714-.012-.133.012-.537.19-.61.069-.028.125-.017.144.088l.086.539zm.405-2.375c-.08.667-.51 1.367-.987 1.596-.408-.337-.635-.967-.553-1.635.028-.235.1-.821.457-.96.137-.056.197.014.214.325l.024.47c0 .069-.015.163.058.172.073.008.08-.086.096-.153l.165-.716c.063-.316.17-.346.288-.268.315.216.268.933.238 1.169zm-.182-1.324c-.384-.233-.738-.866-.756-1.443-.004-.206.063-.82.342-.985.105-.064.189-.024.219.253l.085.502c.009.058.009.14.071.137.062-.002.056-.083.062-.141l.045-.506c.013-.28.093-.322.204-.265.288.149.389.758.395.962.015.581-.303 1.231-.667 1.486zm1.1 1.292c-.058.605-.3 1.077-.547 1.053-.126-.01-.23-.157-.291-.38a3.211 3.211 0 00.109-1.435c.105-.24.244-.386.382-.375.244.024.401.532.347 1.137zm.065-1.81c-.208.287-.623.375-.697.413.572-.877.463-1.647.24-2.194.197.021.59.304.665.68.094.489.04.757-.208 1.1zm.926 2.67c-.337.027-.596-.635-.652-1.216-.021-.221-.004-.803.197-.923.08-.045.142-.026.176.15l.134.936c.01.034.012.086.06.083.045-.004.038-.057.04-.094l-.05-1.015c-.001-.178.059-.212.145-.178.22.078.345.69.371.94.051.564-.081 1.285-.42 1.317zm.155-2.553c-.292-.146-.586-.65-.633-1.102-.017-.161-.007-.653.185-.814.072-.06.135-.036.173.176l.116.661c.01.043.015.107.058.101.047-.009.036-.07.036-.118l-.021-.676c-.009-.219.047-.263.13-.23.215.089.33.558.347.72.046.454-.142 1.04-.391 1.282zm1.266 2.323c-.352.076-.674-.598-.786-1.197-.043-.23-.102-.915.099-1.06.077-.055.146-.04.195.14l.236.957c.013.036.022.09.069.082.047-.01.034-.063.032-.101l-.142-1.035c-.017-.186.041-.227.134-.203.24.062.433.753.482 1.012.11.582.035 1.332-.32 1.405zm1.295-.45c-.334.084-.716-.519-.866-1.148-.058-.242-.146-.907.057-1.07.08-.062.155-.047.217.139l.292.98c.013.04.026.097.077.084.047-.012.032-.066.028-.107l-.189-1.068c-.03-.197.03-.243.131-.22.255.055.483.715.545.988.146.611.04 1.338-.292 1.422zm.449-1.485c-.064-.267-.183-1.066.019-1.242.075-.068.152-.051.219.159l.298 1.004c.015.043.028.107.08.097.047-.013.03-.078.025-.123l-.212-1.1c-.037-.219.023-.268.122-.243.26.065.53.867.603 1.17.165.684.034 1.356-.223 1.617-.35-.113-.76-.635-.931-1.339zm.6 2.629c-.137-.311-.41-1.215-.28-1.359.05-.055.102-.044.169.112l.515 1.238c.012.034.025.08.062.069.032-.01.017-.056.01-.092l-.242-.814c-.04-.163 0-.21.07-.188.158.049.377.547.462.77.695 1.849-.096 1.795-.765.264zm1.91 1.626c-.292-.157-.71-1.026-.88-1.813-.064-.298-.274-1.538-.118-1.712.06-.069.125-.043.187.195l.358 1.44c.017.049.028.12.069.111.04-.008.023-.08.017-.129l-.142-.97c-.036-.24.01-.291.093-.255.214.097.399.78.471 1.12.166.762.146 1.748-.055 2.013zm.3-3.85c.082-.076.157-.044.219.23l.292 1.41c.017.058.025.142.077.133.05-.009.034-.09.028-.15l-.18-1.427c-.03-.281.032-.337.132-.29.258.12.494 1.12.563 1.517.146.89.051 2.034-.217 2.332-.35-.198-.802-1.223-.955-2.139-.06-.35-.165-1.42.041-1.615zm.195 5.257c-.064-.245-.236-.899-.04-.966.075-.025.137.046.197.247l.375 1.238c.017.054.043.077.08.066.034-.01.034-.05.026-.091l-.355-1.318c-.06-.212.046-.255.123-.233.197.055.38.864.448 1.155.148.653.402 1.256.794 1.62 0 0-1.216-.023-1.648-1.718zm1.024-.094c-.082-.335-.288-1.227-.037-1.305.095-.03.176.071.247.344l.414 1.576c.02.076.056.108.1.097.046-.015.05-.069.037-.124l-.388-1.68c-.07-.293.06-.344.159-.308.25.089.472 1.187.553 1.582.187.888.54 1.888 1.038 2.403 0 0-1.516-.072-2.123-2.585zm1.263-.056c-.07-.427-.096-1.592.228-1.672.122-.025.236.035.248.415l.206 1.911c.022.093.063.14.118.13.058-.014.065-.08.056-.153l-.105-2.036c-.017-.371.107-.425.225-.373.307.132.305 1.6.371 2.102.146 1.092.363 2.257.944 2.945 0 0-1.746-.068-2.29-3.269zm1.523-.637c-.017-.474.011-1.68.374-1.706.137-.01.21.15.218.537l.082 2.37c.002.105.04.163.103.159.064-.005.084-.076.086-.155l-.02-2.004c0-.377.084-.442.202-.364.309.197.382 1.737.356 2.293-.056 1.174-.165 2.33.341 3.175 0 0-1.602-.35-1.742-4.305z" fill="#FFF" fill-rule="nonzero" mask="url(#B)"/></g></g></svg>