<svg xmlns="http://www.w3.org/2000/svg" width="153" height="153"><g fill="none" fill-rule="evenodd"><circle cx="76.5" cy="76.5" r="76.5" fill="#E8E9EB"/><path fill="#231F20" fill-rule="nonzero" d="M92.524 70.804C90.544 72.956 87.927 74 83.344 74H63V50h20.188c3.229 0 5.468.196 6.614.587 1.897 1.142 3.385 2.022 4.48 3.978C95.426 56.587 96 59 96 61.74c0 3.913-1.6 6.978-3.476 9.065m9.47-17.383c-1.14-2.836-2.8-4.526-4.562-6.109-1.761-1.583-4.879-3.125-7.47-3.653-1.865-.461-4.611-.659-8.134-.659H54.47v31.5H50v7.064h4.47v2.864H50v7.064h4.47V111h7.844V91.492H90.41v-7.064H62.314v-2.864H82.45c7.564 0 12.976-2.04 16.35-6.002 3.227-3.786 5.2-7.103 5.2-12.907 0-3.364-.97-6.464-2.007-9.234"/></g></svg>