<svg xmlns="http://www.w3.org/2000/svg" width="340" height="240"><g fill="none" fill-rule="evenodd"><rect width="339" height="239" x=".5" y=".5" stroke="#E8E9EB" rx="4"/><path fill="#8F96A3" fill-rule="nonzero" d="M136.16 48.7v-.984h-1.656V40.3h-1.128l-2.016 1.452v1.236l2.016-1.452v6.18h-2.016v.984h4.8zm4.44.12c.432 0 .838-.068 1.218-.204.38-.136.71-.37.99-.702.28-.332.502-.774.666-1.326.164-.552.246-1.244.246-2.076v-.24c0-.776-.076-1.426-.228-1.95-.152-.524-.366-.944-.642-1.26a2.335 2.335 0 00-.984-.678 3.736 3.736 0 00-1.266-.204c-.424 0-.826.068-1.206.204-.38.136-.712.362-.996.678-.284.316-.508.736-.672 1.26-.164.524-.246 1.174-.246 1.95v.24c0 .832.084 1.524.252 2.076.168.552.394.994.678 1.326.284.332.614.566.99.702a3.5 3.5 0 001.2.204zm0-1.008c-.24 0-.478-.046-.714-.138a1.498 1.498 0 01-.636-.504c-.188-.244-.342-.58-.462-1.008-.12-.428-.18-.978-.18-1.65v-.24c0-.624.06-1.134.18-1.53.12-.396.274-.71.462-.942.188-.232.4-.392.636-.48a2.03 2.03 0 01.714-.132c.272 0 .53.044.774.132.244.088.456.248.636.48.18.232.322.546.426.942.104.396.156.906.156 1.53v.24c0 .68-.058 1.234-.174 1.662-.116.428-.268.764-.456 1.008s-.402.41-.642.498a2.08 2.08 0 01-.72.132zm5.712.888v-4.62l1.848 3.18h.84l1.848-3.18v4.62h1.032v-6.36h-1.032l-2.232 3.9-2.232-3.9h-1.104v6.36h1.032zm8.52 0v-4.62l1.848 3.18h.84l1.848-3.18v4.62h1.032v-6.36h-1.032l-2.232 3.9-2.232-3.9H153.8v6.36h1.032zm11.52 0l3.396-4.8v4.8h1.032v-6.36h-1.032l-3.396 4.8v-4.8h-1.032v6.36h1.032zm9.912-5.24c.04-.336.105-.628.198-.874.116-.308.276-.558.48-.75.204-.192.452-.332.744-.42a3.8 3.8 0 011.014-.144 16.441 16.441 0 001.398-.084c.34-.04.574-.096.702-.168V40c-.264.136-.584.214-.96.234-.376.02-.816.042-1.32.066-.624.032-1.142.16-1.554.384a2.679 2.679 0 00-.996.93c-.252.396-.43.876-.534 1.44a10.693 10.693 0 00-.156 1.926v.24c0 .568.078 1.076.234 1.524.156.448.368.826.636 1.134.268.308.584.542.948.702.364.16.758.24 1.182.24.432 0 .832-.076 1.2-.228.368-.152.684-.37.948-.654.264-.284.472-.624.624-1.02a3.71 3.71 0 00.228-1.338v-.24c0-.464-.068-.882-.204-1.254a2.677 2.677 0 00-.57-.942 2.532 2.532 0 00-.87-.594 2.874 2.874 0 00-1.116-.21c-.528 0-.992.124-1.392.372a2.26 2.26 0 00-.888 1.008v-.001l.024-.26zm2.016 4.424c-.264 0-.514-.054-.75-.162a1.831 1.831 0 01-.618-.462 2.264 2.264 0 01-.42-.726 2.759 2.759 0 01-.156-.954v-.24c0-.312.048-.594.144-.846a1.862 1.862 0 011.026-1.068c.236-.1.494-.15.774-.15s.538.05.774.15a1.862 1.862 0 011.026 1.068c.096.252.144.534.144.846v.24c0 .368-.048.696-.144.984-.096.288-.232.53-.408.726a1.73 1.73 0 01-.618.444c-.236.1-.494.15-.774.15zm7.14.936c.408 0 .796-.066 1.164-.198.368-.132.692-.332.972-.6.28-.268.504-.606.672-1.014.168-.408.252-.884.252-1.428v-.24c0-.512-.084-.964-.252-1.356a2.839 2.839 0 00-.672-.978 2.803 2.803 0 00-.972-.588 3.421 3.421 0 00-1.164-.198c-.408 0-.796.066-1.164.198a2.803 2.803 0 00-.972.588c-.28.26-.504.586-.672.978-.168.392-.252.844-.252 1.356v.24c0 .544.084 1.02.252 1.428.168.408.392.746.672 1.014s.604.468.972.6c.368.132.756.198 1.164.198zm0-.936c-.248 0-.492-.042-.732-.126a1.723 1.723 0 01-.642-.402 2.032 2.032 0 01-.456-.714c-.116-.292-.174-.646-.174-1.062v-.24c0-.384.058-.714.174-.99.116-.276.268-.502.456-.678a1.8 1.8 0 01.642-.39 2.201 2.201 0 011.464 0 1.8 1.8 0 01.642.39c.188.176.34.402.456.678.116.276.174.606.174.99v.24c0 .416-.058.77-.174 1.062-.116.292-.268.53-.456.714a1.723 1.723 0 01-.642.402c-.24.084-.484.126-.732.126zm3.78.936c.352 0 .666-.058.942-.174.276-.116.51-.318.702-.606.192-.288.338-.676.438-1.164.1-.488.15-1.104.15-1.848v-1.776h2.592V48.7h1.056v-6.36h-4.68v2.46c0 1.032-.084 1.788-.252 2.268-.168.48-.484.72-.948.72v1.032zm10.38 0c.32 0 .626-.04.918-.12.292-.08.554-.198.786-.354.232-.156.43-.35.594-.582.164-.232.278-.5.342-.804h-.948c-.064.288-.236.514-.516.678-.28.164-.672.246-1.176.246-.224 0-.452-.038-.684-.114a1.745 1.745 0 01-.624-.36 1.909 1.909 0 01-.456-.636c-.12-.26-.18-.574-.18-.942h4.704v-.792c0-.88-.25-1.57-.75-2.07-.5-.5-1.19-.75-2.07-.75-.392 0-.766.062-1.122.186a2.517 2.517 0 00-.936.576c-.268.26-.482.586-.642.978-.16.392-.24.852-.24 1.38v.24c0 .544.084 1.02.252 1.428.168.408.39.746.666 1.014s.594.468.954.6c.36.132.736.198 1.128.198zm1.764-3.852h-3.708c0-.32.056-.596.168-.828a1.63 1.63 0 011.032-.882 2.342 2.342 0 011.374 0c.22.068.412.174.576.318.164.144.296.332.396.564.1.232.154.508.162.828zm5.076 3.852c.32 0 .626-.04.918-.12.292-.08.554-.198.786-.354.232-.156.43-.35.594-.582.164-.232.278-.5.342-.804h-.948c-.064.288-.236.514-.516.678-.28.164-.672.246-1.176.246-.224 0-.452-.038-.684-.114a1.745 1.745 0 01-.624-.36 1.909 1.909 0 01-.456-.636c-.12-.26-.18-.574-.18-.942h4.704v-.792c0-.88-.25-1.57-.75-2.07-.5-.5-1.19-.75-2.07-.75-.392 0-.766.062-1.122.186a2.517 2.517 0 00-.936.576c-.268.26-.482.586-.642.978-.16.392-.24.852-.24 1.38v.24c0 .544.084 1.02.252 1.428.168.408.39.746.666 1.014s.594.468.954.6c.36.132.736.198 1.128.198zm1.764-3.852h-3.708c0-.32.056-.596.168-.828a1.63 1.63 0 011.032-.882 2.342 2.342 0 011.374 0c.22.068.412.174.576.318.164.144.296.332.396.564.1.232.154.508.162.828z"/><path fill="#8F96A3" d="M210 61.7h-1v-2h-78v2h-1v-5h1v2h78v-2h1v5z"/><path fill="#595959" fill-rule="nonzero" d="M243.66 178.372c2.169 0 3.436.495 4.829 1.395-.412.864-.903 2.012-1.228 2.996-1.267-2.256-2.744-2.785-4.215-2.785-1.96 0-3.476 1.311-3.476 3.36 0 2.545 2.13 3.575 4.462 4.149 3.557.9 5.6 2.011 5.6 5.578 0 3.939-3.8 6.935-7.89 6.935-2.088 0-3.924-.574-5.395-1.685.451-.819 1.02-2.172 1.306-2.993 1.556 2.546 3.15 3.083 4.869 3.083 2.368 0 4.246-1.398 4.246-3.784 0-2.706-2.248-3.401-4.818-4.096-3.196-.87-5.239-2.467-5.239-5.792 0-3.855 2.823-6.361 6.948-6.361zm16.805 0c2.164 0 3.434.495 4.824 1.395-.409.864-.9 2.012-1.23 2.996-1.262-2.256-2.739-2.785-4.21-2.785-1.96 0-3.473 1.311-3.473 3.36 0 2.545 2.13 3.575 4.462 4.149 3.554.9 5.6 2.011 5.6 5.578 0 3.939-3.806 6.935-7.892 6.935-2.086 0-3.922-.574-5.399-1.685.454-.819 1.023-2.172 1.306-2.993 1.559 2.546 3.15 3.083 4.869 3.083 2.374 0 4.252-1.398 4.252-3.784 0-2.706-2.25-3.401-4.827-4.096-3.187-.87-5.233-2.467-5.233-5.792 0-3.855 2.823-6.361 6.951-6.361zm-46.32.408c.693.042 1.592.126 2.083.126.445 0 1.314-.081 1.925-.123-.33 3.12-.37 8.661-.37 10.383 0 6.277 1.884 8.493 5.068 8.493 4.907 0 5.307-4.947 5.32-8.818v-.351c-.005-1.173-.06-6.74-.37-9.707.692.042 1.59.123 2.085.123.449 0 1.306-.081 1.92-.123-.328 3.083-.367 8.254-.367 10.383 0 1.725.04 7.264.367 10.381a15.08 15.08 0 00-1.88-.124c-.696 0-1.511.045-2.125.124.078-.7.199-2.464.199-3.201-1.346 2.458-3.96 3.651-6.54 3.651-3.965 0-7.068-2.54-7.068-6.732 0-1.027.12-2.788.12-4.102 0-1.721-.042-7.263-.367-10.383zm76.165-.408c4.294 0 7.277 2.177 7.277 7.553v9.895c0 2.335.448 2.582 1.311 2.582.284 0 .617-.045.858-.084l.244 1.027c-1.598.576-2.495.652-2.943.652-1.351 0-2.206-.613-2.537-1.803l-.243-.903c-2.206 1.764-4.617 2.706-6.624 2.706-3.72 0-6.132-1.963-6.132-5.415 0-3.691 2.494-5.416 5.726-5.993l4.944-.9c1.39-.245 2.128-.655 2.128-1.682 0-4.476-1.884-6.032-4.984-6.032-2.413 0-4.414.9-5.524 3.283h-.49v-2.38h-.004c2.33-1.809 4.535-2.506 6.993-2.506zm-218.492 0c4.291 0 7.276 2.177 7.276 7.553v9.895c0 2.335.452 2.582 1.31 2.582.285 0 .613-.045.86-.084l.24 1.027c-1.591.576-2.49.652-2.94.652-1.35 0-2.21-.613-2.536-1.803l-.244-.903c-2.211 1.764-4.622 2.706-6.62 2.706-3.725 0-6.136-1.963-6.136-5.415 0-3.691 2.492-5.416 5.721-5.993l4.947-.9c1.393-.245 2.128-.655 2.128-1.682 0-4.476-1.881-6.032-4.99-6.032-2.41 0-4.414.9-5.518 3.283h-.488v-2.38c2.329-1.809 4.535-2.506 6.99-2.506zm77.488.003c6.212-.003 10.096 4.512 10.096 10.665 0 6.276-4.047 10.957-10.466 10.957-6.292 0-10.222-4.63-10.222-10.378 0-6.81 4.336-11.244 10.592-11.244zm23.55-11.36c.527 0 .852.036 1.14.123-.038.563-.122 1.511-.122 1.838 0 .41.084 1.232.123 1.932-1.309-.498-2.004-.619-2.534-.619-2.326 0-3.557 1.233-3.557 3.655 0 .945.082 2.748.367 4.965 1.186 0 3.148-.166 4.493-.332-.036.417-.078.993-.078 1.317 0 .371.045.866.078 1.193-1.384-.206-2.861-.327-3.352-.327h-1.222v6.482c0 3.199.04 9.194.365 12.31a14.066 14.066 0 00-1.878-.123c-.696 0-1.511.04-2.128.124.331-3.117.37-9.112.37-12.311v-6.482h-.695c-.37 0-.939.037-2.17.327a7.938 7.938 0 00.127-1.233c0-.205-.042-.818-.126-1.274.9.293 1.516.332 2.17.332h.694c0-6.65 4.54-11.897 7.935-11.897zm26.24 2.7c5.236 0 8.589 2.302 8.589 6.772 0 4.02-2.946 7.508-8.793 8.122 7.607 9.767 9.199 11.7 12.064 14.94a35.063 35.063 0 00-2.862-.123c-.897 0-1.88.042-2.7.124-2.903-4.27-7.808-10.55-11.118-14.488H192.8c0 4.926.045 9.973.328 14.488a17.95 17.95 0 00-2.085-.124c-.734 0-1.59.042-2.248.124.231-4.278.319-10.098.327-15.095v-1.934c-.007-4.58-.066-10.725-.327-12.803 1.186.079 3.683.118 4.658.118 1.108 0 4.087-.12 5.643-.12zm-151.125 0c5.805 0 10.385 1.112 10.385 6.361 0 3.733-2.374 5.826-6.54 7.261 5.845 1.232 7.482 3.942 7.482 7.47 0 6.037-5.115 8.743-11.615 8.743-1.553 0-4.003-.124-5.233-.124-.533 0-1.881.082-2.45.124.231-4.28.319-10.103.327-15.099v-1.933c-.008-4.58-.068-10.725-.327-12.803 1.023.043 3.515.121 4.17.121 1.102 0 3.064-.12 3.801-.12zm47.397 8.662c3.966 0 7.072 2.504 7.072 6.687 0 1.03-.12 2.791-.12 4.105v.38c.005 2.05.06 7.085.369 10-.62-.078-1.27-.123-1.883-.123-.696 0-1.511.045-2.128.124.328-3.117.367-8.656.367-10.381 0-6.28-1.88-8.451-5.067-8.451-4.902 0-5.302 4.91-5.314 8.777v.35c.004 1.173.055 6.74.367 9.705a15.125 15.125 0 00-1.884-.124c-.692 0-1.51.045-2.124.124.32-3.017.367-8.302.37-10.202v-.179c0-2.093-.04-7.303-.37-10.384.695.037 1.594.121 2.085.121.451 0 1.309-.081 1.923-.123-.084.7-.208 2.464-.208 3.204 1.351-2.459 3.966-3.61 6.545-3.61zm16.884-11.168c-.313 2.981-.363 8.56-.367 11.876v8.722h.653c1.351 0 8.26-7.877 8.916-9.027.57.042 1.511.123 2.002.123.409 0 1.39-.081 2-.123l-9.767 8.783c1.225 1.474 7.724 8.825 10.67 11.984-1.104-.084-1.88-.124-2.455-.124-.734 0-1.839.04-2.7.124-1.51-2.383-6.132-7.838-8.666-10.628h-.653v.312c.006 1.9.059 7.382.367 10.316a14.107 14.107 0 00-1.88-.124c-.695 0-1.514.04-2.125.124.328-3.117.37-9.112.37-12.31v-7.715c0-3.24-.042-9.196-.37-12.313.692.045 1.59.124 2.085.124.446 0 1.307-.08 1.92-.124zm163.753 11.574c-.317 2.973-.367 7.887-.37 10.144v.24c0 1.724.042 7.263.37 10.38a15.195 15.195 0 00-1.884-.124c-.692 0-1.513.045-2.13.124.307-2.916.366-7.952.372-10.001v-.38c0-2.093-.044-7.303-.372-10.383.695.039 1.592.123 2.085.123.449 0 1.312-.081 1.929-.123zm-126.822 1.19c-4.417.002-6.584 4.639-6.584 9.52 0 4.633 1.926 8.906 6.256 8.906 4.17 0 6.663-4.025 6.663-9.523 0-4.43-1.716-8.903-6.335-8.903zm145.133 8.988l-2.697.41c-2.948.453-6.216 1.475-6.216 4.595 0 2.382 1.309 3.651 3.966 3.651 1.634 0 3.268-.574 4.947-2.338v-6.318zm-218.49 0l-2.699.41c-2.943.453-6.211 1.475-6.211 4.595 0 2.382 1.306 3.651 3.96 3.651 1.64 0 3.274-.574 4.95-2.338v-6.318zm-30.672-4.231h-1.146v12.437c.9.042 2.41.084 3.473.084 4.173 0 7.649-1.766 7.649-6.484 0-3.694-2.007-6.037-9.976-6.037zm150.997-12.71c-1.39 0-2.775.036-3.35.12v10.747h1.351c3.885 0 9.115-.985 9.115-5.944 0-3.08-2.368-4.924-7.116-4.924zm-148.707-.003c-.944 0-2.578.036-3.436.076v10.38a23.86 23.86 0 002.164.088c4.543 0 8.013-1.888 8.013-5.669 0-3.486-3.021-4.875-6.74-4.875zm226.632-3.036c1.39-.003 2.209.695 2.209 2.172 0 1.311-.819 2.253-2.209 2.253-1.39 0-2.206-.942-2.206-2.253 0-1.232.9-2.172 2.206-2.172zM169.994 70c21.95 0 39.734 17.853 39.734 39.872 0 22.022-17.784 39.875-39.734 39.875-21.935 0-39.722-17.853-39.722-39.875 0-22.02 17.787-39.872 39.722-39.872zm0 3.08c-20.245 0-36.653 16.47-36.653 36.792 0 20.32 16.408 36.792 36.653 36.792 20.251 0 36.665-16.472 36.665-36.792 0-20.323-16.414-36.791-36.665-36.791zm2.534 8.15s.914 1.674 5.177.91c3.526-.631 5.48.289 5.48 1.473 0 0 2.505.301 3.627 1.03 1.12.731-.07 2.549-.07 2.549-.169-.335-.407-.53-1.088-.678 0 0-2.708-.704-3.652 1.069-2.063.177-3.84 1.415-4.678 3.1-.05.101-.833 1.657-.342 4.802.252 1.654 1.068 3.053 2.223 4.248.501.523 1.132.858 1.892.771 1.205-.14 2.208-.72 3.066-1.575.47-.473.62-1.008.258-1.624-.05-.081-.073-.171-.11-.264-1.067-2.591-.173-4.881 1.637-6.237 1.335-.993 2.865-1.108 4.429-.889 10.3 1.457 10.642 11.911 10.642 15.135v.95c.01 8.615.143 14.68.202 15.885.104 1.89.765 2.287 1.177 2.585-.653.456-6.009-1.235-7.298-2.844-.093-.107-.264-.152-.404-.186-3.192-.751-3.198-4.099-3.257-5.117-2.668 0-3.702-2.929-3.991-3.691a9.45 9.45 0 01-.482-2.116c0 1.424-2.1 2.648-4.359.377 0 2.338-2.772 1.925-4.15.54-.121.473-.88 1.677-.88 1.677 1.58.287 2.292.636 3.043 1.297 1.755 1.55 1.954 4.13 1.954 5.463 0 0 2.41 2.372 3.369 3.25.283.261.594.492.902.728 2.478-2.782 3.308-1.693 3.302-1.69 1.83-.74 2.85.576 2.444 1.243-.423-.487-1.118-.343-1.539.034 2.473.416 1.9 2.242 1.234 2.622 0-.524-.166-1.106-.942-1.16.036.805-.502.946-1.018.966-1.224.05-3.273.11-3.898.723-.36.348-.188 1.372-.57 1.721-.322.287-.664.253-.84.256-.062.377.05.802.527 1.303-1.78.149-3.117-1.43-2.234-2.268.37-.354 1.62-1.541 1.679-2.053.084-.552-.494-1.165-.892-1.525-.863-.768-1.788-1.455-2.693-2.166a6.55 6.55 0 00-.889-.569 1.179 1.179 0 00-.908-.098c-.684.214-.675.197-.852.079-.673-.445-1.886-1.45-4.42-1.728.171.107.289.22.384.352.137.189.23.416.381.729.157.351.286.714.435 1.066 1.637 3.885 3.257 7.703 4.888 11.59.546 1.286.064 2.409-1.259 3.03-.964.448-2.057.206-2.704-.728.187.644.277 1.198.01 1.733a2.304 2.304 0 01-1.221 1.147 2.94 2.94 0 01-1.724.206c-.586-.121-.975-.512-1.275-1.08-.05 1.266-.88 2.194-2.257 2.194-1.376 0-2.205-.928-2.256-2.194-.3.568-.69.959-1.275 1.08a2.942 2.942 0 01-1.724-.206 2.314 2.314 0 01-1.222-1.147c-.26-.535-.174-1.09.011-1.733-.644.934-1.74 1.176-2.702.728-1.32-.621-1.802-1.744-1.261-3.03 1.631-3.887 3.251-7.705 4.888-11.59.149-.352.275-.715.44-1.066.146-.313.238-.54.376-.729.095-.132.213-.245.384-.352-2.531.279-3.748 1.283-4.42 1.728l-.036.023c-.146.096-.181.097-.816-.102a1.18 1.18 0 00-.909.098 6.52 6.52 0 00-.885.569c-.911.711-1.836 1.398-2.694 2.166-.4.36-.978.973-.897 1.525.062.512 1.31 1.699 1.68 2.053.882.839-.452 2.417-2.235 2.268.477-.5.586-.926.527-1.303-.176-.003-.516.031-.835-.256-.387-.349-.213-1.373-.569-1.721-.628-.614-2.677-.673-3.902-.723-.515-.02-1.054-.16-1.017-.965-.78.053-.942.635-.942 1.159-.667-.38-1.242-2.206 1.233-2.62-.417-.38-1.112-.523-1.541-.036-.401-.667.616-1.983 2.447-1.243-.003-.003.824-1.092 3.302 1.69.308-.236.619-.467.905-.728.956-.878 3.372-3.25 3.372-3.25 0-1.333.199-3.913 1.95-5.463.749-.661 1.464-1.01 3.047-1.297 0 0-.765-1.204-.885-1.677-1.38 1.385-4.152 1.798-4.152-.54-2.259 2.27-4.358 1.047-4.358-.377a9.298 9.298 0 01-.482 2.116c-.283.762-1.32 3.69-3.989 3.69-.061 1.02-.067 4.367-3.26 5.118-.134.034-.31.079-.397.186-1.29 1.609-6.649 3.3-7.305 2.844.418-.298 1.074-.695 1.178-2.585.067-1.25.201-7.717.201-16.835v-.117c.01-3.352.47-13.578 10.646-15.018 1.56-.22 3.097-.104 4.428.889 1.81 1.356 2.702 3.646 1.637 6.237-.034.093-.062.183-.11.264-.36.616-.215 1.151.256 1.624.86.855 1.861 1.434 3.066 1.575.763.087 1.39-.248 1.895-.77 1.155-1.196 1.94-2.6 2.223-4.249.535-3.131-.297-4.7-.345-4.802-.838-1.685-2.615-2.923-4.678-3.1-.942-1.773-3.652-1.07-3.652-1.07-.681.15-.92.344-1.09.679 0 0-1.189-1.818-.068-2.55 1.121-.728 3.63-1.029 3.63-1.029 0-1.184 1.95-2.104 5.477-1.474 4.26.765 5.177-.909 5.177-.909.176 2.049-1.382 3.106-1.881 3.39 1.614 1.762 3.876 5.28 4.414 10.274.536-4.993 2.8-8.512 4.418-10.274-.505-.284-2.06-1.341-1.884-3.39z"/></g></svg>