<svg xmlns="http://www.w3.org/2000/svg" width="419" height="279"><g fill="none" fill-rule="evenodd"><rect width="418" height="278" x=".5" y=".5" stroke="#E8E9EB" rx="4"/><path fill="#8F96A3" fill-rule="nonzero" d="M176.16 48.7v-.984h-1.656V40.3h-1.128l-2.016 1.452v1.236l2.016-1.452v6.18h-2.016v.984h4.8zm4.44.12c.432 0 .838-.068 1.218-.204.38-.136.71-.37.99-.702.28-.332.502-.774.666-1.326.164-.552.246-1.244.246-2.076v-.24c0-.776-.076-1.426-.228-1.95-.152-.524-.366-.944-.642-1.26a2.335 2.335 0 00-.984-.678 3.736 3.736 0 00-1.266-.204c-.424 0-.826.068-1.206.204-.38.136-.712.362-.996.678-.284.316-.508.736-.672 1.26-.164.524-.246 1.174-.246 1.95v.24c0 .832.084 1.524.252 2.076.168.552.394.994.678 1.326.284.332.614.566.99.702a3.5 3.5 0 001.2.204zm0-1.008c-.24 0-.478-.046-.714-.138a1.498 1.498 0 01-.636-.504c-.188-.244-.342-.58-.462-1.008-.12-.428-.18-.978-.18-1.65v-.24c0-.624.06-1.134.18-1.53.12-.396.274-.71.462-.942.188-.232.4-.392.636-.48a2.03 2.03 0 01.714-.132c.272 0 .53.044.774.132.244.088.456.248.636.48.18.232.322.546.426.942.104.396.156.906.156 1.53v.24c0 .68-.058 1.234-.174 1.662-.116.428-.268.764-.456 1.008s-.402.41-.642.498a2.08 2.08 0 01-.72.132zm5.712.888v-4.62l1.848 3.18h.84l1.848-3.18v4.62h1.032v-6.36h-1.032l-2.232 3.9-2.232-3.9h-1.104v6.36h1.032zm8.52 0v-4.62l1.848 3.18h.84l1.848-3.18v4.62h1.032v-6.36h-1.032l-2.232 3.9-2.232-3.9H193.8v6.36h1.032zm11.52 0l3.396-4.8v4.8h1.032v-6.36h-1.032l-3.396 4.8v-4.8h-1.032v6.36h1.032zm9.912-5.24c.04-.336.105-.628.198-.874.116-.308.276-.558.48-.75.204-.192.452-.332.744-.42a3.8 3.8 0 011.014-.144 16.441 16.441 0 001.398-.084c.34-.04.574-.096.702-.168V40c-.264.136-.584.214-.96.234-.376.02-.816.042-1.32.066-.624.032-1.142.16-1.554.384a2.679 2.679 0 00-.996.93c-.252.396-.43.876-.534 1.44a10.693 10.693 0 00-.156 1.926v.24c0 .568.078 1.076.234 1.524.156.448.368.826.636 1.134.268.308.584.542.948.702.364.16.758.24 1.182.24.432 0 .832-.076 1.2-.228.368-.152.684-.37.948-.654.264-.284.472-.624.624-1.02a3.71 3.71 0 00.228-1.338v-.24c0-.464-.068-.882-.204-1.254a2.677 2.677 0 00-.57-.942 2.532 2.532 0 00-.87-.594 2.874 2.874 0 00-1.116-.21c-.528 0-.992.124-1.392.372a2.26 2.26 0 00-.888 1.008v-.001l.024-.26zm2.016 4.424c-.264 0-.514-.054-.75-.162a1.831 1.831 0 01-.618-.462 2.264 2.264 0 01-.42-.726 2.759 2.759 0 01-.156-.954v-.24c0-.312.048-.594.144-.846a1.862 1.862 0 011.026-1.068c.236-.1.494-.15.774-.15s.538.05.774.15a1.862 1.862 0 011.026 1.068c.096.252.144.534.144.846v.24c0 .368-.048.696-.144.984-.096.288-.232.53-.408.726a1.73 1.73 0 01-.618.444c-.236.1-.494.15-.774.15zm7.14.936c.408 0 .796-.066 1.164-.198.368-.132.692-.332.972-.6.28-.268.504-.606.672-1.014.168-.408.252-.884.252-1.428v-.24c0-.512-.084-.964-.252-1.356a2.839 2.839 0 00-.672-.978 2.803 2.803 0 00-.972-.588 3.421 3.421 0 00-1.164-.198c-.408 0-.796.066-1.164.198a2.803 2.803 0 00-.972.588c-.28.26-.504.586-.672.978-.168.392-.252.844-.252 1.356v.24c0 .544.084 1.02.252 1.428.168.408.392.746.672 1.014s.604.468.972.6c.368.132.756.198 1.164.198zm0-.936c-.248 0-.492-.042-.732-.126a1.723 1.723 0 01-.642-.402 2.032 2.032 0 01-.456-.714c-.116-.292-.174-.646-.174-1.062v-.24c0-.384.058-.714.174-.99.116-.276.268-.502.456-.678a1.8 1.8 0 01.642-.39 2.201 2.201 0 011.464 0 1.8 1.8 0 01.642.39c.188.176.34.402.456.678.116.276.174.606.174.99v.24c0 .416-.058.77-.174 1.062-.116.292-.268.53-.456.714a1.723 1.723 0 01-.642.402c-.24.084-.484.126-.732.126zm3.78.936c.352 0 .666-.058.942-.174.276-.116.51-.318.702-.606.192-.288.338-.676.438-1.164.1-.488.15-1.104.15-1.848v-1.776h2.592V48.7h1.056v-6.36h-4.68v2.46c0 1.032-.084 1.788-.252 2.268-.168.48-.484.72-.948.72v1.032zm10.38 0c.32 0 .626-.04.918-.12.292-.08.554-.198.786-.354.232-.156.43-.35.594-.582.164-.232.278-.5.342-.804h-.948c-.064.288-.236.514-.516.678-.28.164-.672.246-1.176.246-.224 0-.452-.038-.684-.114a1.745 1.745 0 01-.624-.36 1.909 1.909 0 01-.456-.636c-.12-.26-.18-.574-.18-.942h4.704v-.792c0-.88-.25-1.57-.75-2.07-.5-.5-1.19-.75-2.07-.75-.392 0-.766.062-1.122.186a2.517 2.517 0 00-.936.576c-.268.26-.482.586-.642.978-.16.392-.24.852-.24 1.38v.24c0 .544.084 1.02.252 1.428.168.408.39.746.666 1.014s.594.468.954.6c.36.132.736.198 1.128.198zm1.764-3.852h-3.708c0-.32.056-.596.168-.828a1.63 1.63 0 011.032-.882 2.342 2.342 0 011.374 0c.22.068.412.174.576.318.164.144.296.332.396.564.1.232.154.508.162.828zm5.076 3.852c.32 0 .626-.04.918-.12.292-.08.554-.198.786-.354.232-.156.43-.35.594-.582.164-.232.278-.5.342-.804h-.948c-.064.288-.236.514-.516.678-.28.164-.672.246-1.176.246-.224 0-.452-.038-.684-.114a1.745 1.745 0 01-.624-.36 1.909 1.909 0 01-.456-.636c-.12-.26-.18-.574-.18-.942h4.704v-.792c0-.88-.25-1.57-.75-2.07-.5-.5-1.19-.75-2.07-.75-.392 0-.766.062-1.122.186a2.517 2.517 0 00-.936.576c-.268.26-.482.586-.642.978-.16.392-.24.852-.24 1.38v.24c0 .544.084 1.02.252 1.428.168.408.39.746.666 1.014s.594.468.954.6c.36.132.736.198 1.128.198zm1.764-3.852h-3.708c0-.32.056-.596.168-.828a1.63 1.63 0 011.032-.882 2.342 2.342 0 011.374 0c.22.068.412.174.576.318.164.144.296.332.396.564.1.232.154.508.162.828z"/><path fill="#8F96A3" d="M262 61.7h-1v-2H159v2h-1v-5h1v2h102v-2h1v5z"/><path fill="#595959" fill-rule="nonzero" d="M81.486 210.888c5.595 0 9.487 2.827 9.487 9.816v12.86c0 3.035.587 3.359 1.708 3.359.373 0 .797-.056 1.12-.11l.315 1.338c-2.075.744-3.248.849-3.834.849-1.76 0-2.882-.798-3.306-2.344l-.32-1.174c-2.88 2.29-6.025 3.518-8.633 3.518-4.856 0-8-2.56-8-7.042 0-4.8 3.25-7.04 7.46-7.788l6.45-1.171c1.817-.319 2.776-.854 2.776-2.187 0-5.817-2.453-7.843-6.507-7.843-3.143 0-5.757 1.176-7.192 4.269h-.64v-3.093c3.039-2.35 5.916-3.257 9.116-3.257zm284.881 0c5.597 0 9.486 2.827 9.486 9.816v12.86c0 3.035.587 3.359 1.707 3.359a7.23 7.23 0 001.12-.11l.32 1.338c-2.084.744-3.256.849-3.842.849-1.757 0-2.874-.798-3.303-2.344l-.319-1.174c-2.878 2.29-6.023 3.518-8.639 3.518-4.847 0-7.995-2.56-7.995-7.042 0-4.8 3.255-7.04 7.466-7.788l6.448-1.171c1.812-.319 2.772-.854 2.772-2.187 0-5.817-2.452-7.843-6.502-7.843-3.142 0-5.757 1.176-7.197 4.269h-.64v-3.093c3.038-2.35 5.916-3.257 9.118-3.257zm-38.916 0c2.825 0 4.479.641 6.29 1.81-.532 1.125-1.172 2.616-1.6 3.895-1.651-2.932-3.57-3.624-5.49-3.624-2.558 0-4.532 1.704-4.532 4.373 0 3.307 2.776 4.64 5.814 5.39 4.636 1.173 7.301 2.611 7.301 7.256 0 5.121-4.958 9.012-10.288 9.012-2.719 0-5.117-.747-7.035-2.186.587-1.066 1.33-2.826 1.703-3.896 2.027 3.313 4.107 4.005 6.346 4.005 3.093 0 5.545-1.813 5.545-4.913 0-3.517-2.934-4.423-6.292-5.331-4.159-1.122-6.825-3.203-6.825-7.523 0-5.013 3.679-8.268 9.063-8.268zm-37.367.53c-.41 3.877-.474 10.296-.478 13.22v.28c0 2.24.054 9.441.478 13.498a18.76 18.76 0 00-2.452-.163c-.906 0-1.97.054-2.768.163.106-.91.263-3.203.263-4.16-1.758 3.196-5.166 4.744-8.528 4.744-5.17 0-9.22-3.305-9.22-8.75 0-1.333.158-3.624.158-5.332v-.405c-.007-2.603-.075-9.256-.477-13.094.905.052 2.073.161 2.717.161.582 0 1.707-.108 2.505-.161-.43 4.057-.481 11.261-.481 13.5 0 8.161 2.454 11.04 6.61 11.04 6.507 0 6.931-6.668 6.931-11.733 0-.96-.054-8.75-.478-12.807.903.052 2.075.161 2.72.161.586 0 1.702-.108 2.5-.161zm15.457-.53c2.83 0 4.479.641 6.29 1.81-.53 1.125-1.17 2.616-1.595 3.895-1.652-2.932-3.578-3.624-5.495-3.624-2.558 0-4.531 1.704-4.531 4.373 0 3.307 2.771 4.64 5.81 5.39 4.64 1.173 7.302 2.611 7.302 7.256 0 5.121-4.95 9.012-10.284 9.012-2.723 0-5.118-.747-7.035-2.186.586-1.066 1.33-2.826 1.701-3.896 2.03 3.313 4.109 4.005 6.347 4.005 3.09 0 5.54-1.813 5.54-4.913 0-3.517-2.934-4.423-6.287-5.331-4.16-1.122-6.826-3.203-6.826-7.523 0-5.013 3.68-8.268 9.063-8.268zm-123.025 0c8.1-.001 13.164 5.866 13.164 13.868 0 8.16-5.276 14.243-13.647 14.243-8.205 0-13.326-6.022-13.326-13.495 0-8.853 5.651-14.616 13.809-14.616zm-70.326 0c5.17 0 9.22 3.254 9.22 8.693 0 1.337-.158 3.627-.158 5.337v.405c.007 2.604.077 9.255.482 13.093a18.894 18.894 0 00-2.456-.163c-.905 0-1.97.054-2.772.163.425-4.057.479-11.26.479-13.498 0-8.163-2.453-10.988-6.608-10.988-6.407 0-6.916 6.415-6.93 11.45v.482c.008 1.647.079 8.746.477 12.554a18.743 18.743 0 00-2.452-.162c-.905 0-1.971.054-2.77.162.417-3.947.477-10.872.48-13.305v-.192c0-2.722-.052-9.494-.48-13.5.905.052 2.077.161 2.718.161.586 0 1.706-.108 2.504-.161-.106.91-.267 3.203-.267 4.163 1.76-3.199 5.17-4.694 8.533-4.694zm235.52.53c-.398 3.748-.473 9.87-.481 12.916v.99c.006 2.603.078 9.254.48 13.092a18.844 18.844 0 00-2.452-.163c-.905 0-1.974.054-2.774.163.406-3.838.473-10.49.48-13.093v-.405c0-2.722-.05-9.494-.48-13.5.904.053 2.077.162 2.718.162.586 0 1.706-.108 2.508-.161zM40 199.632c1.33.054 4.582.16 5.437.16 1.436 0 3.997-.159 4.956-.159 7.57 0 13.541 1.439 13.541 8.268 0 4.855-3.095 7.576-8.529 9.442 7.62 1.6 9.755 5.122 9.755 9.71 0 7.842-6.668 11.364-15.144 11.364-2.022 0-5.218-.162-6.822-.162-.694 0-2.45.11-3.194.162.306-5.615.415-13.28.424-19.816v-1.67c-.005-6.005-.073-14.492-.424-17.299zm194.007 0c1.547.106 4.8.16 6.077.16 1.44 0 5.327-.159 7.355-.159 6.826 0 11.194 2.99 11.194 8.802 0 5.227-3.838 9.761-11.462 10.56 9.917 12.696 11.997 15.208 15.728 19.422a44.332 44.332 0 00-3.73-.161c-1.173 0-2.453.05-3.52.16-3.787-5.551-10.18-13.713-14.496-18.835h-1.922c0 6.402.05 12.965.428 18.836a22.64 22.64 0 00-2.722-.161c-.955 0-2.076.05-2.93.16.32-5.87.425-13.98.425-20.7v-.786c-.005-6.005-.069-14.49-.425-17.298zm-20.786-3.52c.691 0 1.116.051 1.493.16-.053.745-.163 1.972-.163 2.401 0 .532.11 1.6.161 2.507-1.706-.645-2.613-.802-3.305-.802-3.037 0-4.636 1.604-4.636 4.749 0 1.227.106 3.576.479 6.455 1.545 0 4.105-.215 5.863-.429a22.67 22.67 0 00-.106 1.708c0 .482.055 1.122.106 1.547-1.81-.264-3.731-.425-4.376-.425h-1.592v8.428c0 4.16.052 11.949.476 16.006a18.51 18.51 0 00-2.45-.162c-.908 0-1.97.052-2.772.162.412-3.907.476-11.275.48-15.53v-8.904h-.905c-.482 0-1.226.05-2.828.425a10.41 10.41 0 00.163-1.6c0-.268-.054-1.064-.163-1.655 1.173.375 1.975.429 2.828.429h.906c0-8.644 5.916-15.47 10.34-15.47zm-84.24.265c.9.053 2.074.158 2.718.158.582 0 1.703-.106 2.504-.157-.428 4.052-.48 11.789-.48 16.006v10.773h.854c1.758 0 10.769-10.245 11.622-11.737.744.05 1.97.161 2.61.161.535 0 1.813-.11 2.613-.16l-12.74 11.416c1.6 1.918 10.073 11.471 13.914 15.579-1.44-.11-2.453-.162-3.2-.162-.96 0-2.4.052-3.52.162-1.97-3.096-7.996-10.191-11.3-13.819h-.853c0 1.972.052 9.762.48 13.819a18.573 18.573 0 00-2.452-.162c-.906 0-1.974.052-2.77.162.409-3.907.476-11.274.48-15.529v-10.504c0-4.217-.056-11.953-.48-16.006zm53.373 16.593c-5.758 0-8.582 6.024-8.582 12.373 0 6.028 2.509 11.58 8.158 11.58 5.436 0 8.685-5.23 8.685-12.378 0-5.76-2.237-11.575-8.26-11.575zm189.232 11.681l-3.515.534c-3.84.588-8.103 1.92-8.103 5.973 0 3.097 1.707 4.75 5.17 4.75 2.132 0 4.264-.747 6.448-3.042v-8.215zm-284.877 0l-3.519.534c-3.836.588-8.1 1.92-8.1 5.973 0 3.097 1.703 4.75 5.166 4.75 2.137 0 4.268-.747 6.453-3.042v-8.215zm-39.993-5.495h-1.494v16.164c1.173.052 3.145.11 4.528.11 5.44 0 9.973-2.297 9.973-8.431 0-4.8-2.615-7.843-13.007-7.843zm196.883-16.533c-1.812 0-3.621.05-4.368.157v13.976h1.76c5.065 0 11.887-1.28 11.887-7.733 0-4-3.091-6.4-9.279-6.4zm-193.898 0c-1.23 0-3.363.05-4.479.103v13.496c.587.051 1.545.11 2.824.11 5.92 0 10.446-2.454 10.446-7.366 0-4.533-3.94-6.343-8.791-6.343zm295.5-3.949c1.81 0 2.88.903 2.88 2.826 0 1.705-1.07 2.933-2.88 2.933-1.813 0-2.879-1.228-2.879-2.933 0-1.604 1.175-2.826 2.879-2.826zM209.496 70c28.614 0 51.804 23.207 51.804 51.831 0 28.624-23.19 51.832-51.804 51.832-28.599 0-51.788-23.208-51.788-51.832 0-28.624 23.188-51.831 51.788-51.831zm0 4.004c-26.395 0-47.785 21.41-47.785 47.827 0 26.415 21.39 47.828 47.785 47.828 26.402 0 47.8-21.413 47.8-47.828 0-26.417-21.398-47.827-47.8-47.827zm11.529 12.31c.993-.185 2.14-.213 2.764-.09 1.718.337 2.737 1.29 2.895 1.446l.021.021c1.66.186 2.428.343 3.374.886.87.505 1.485 1.767 1.295 2.681-1.085-.567-2.275-1.014-3.465-.457 0 0 1.38.838 2.266 1.047.447.11 1.755.272 2.312-.166 1.061-.839.342-2.048.342-2.048 1.438.857 1.004 3.01-.94 3.32-2.347.38-3.937-.634-5.036-1.015.432.172.938.867 1.052 1.233l-.002-.002c-.06-.08-.62-.69-3.322.044l-.26.073c-.461.133-1.275.233-1.732.353-1.678.437-2.556 1.632-2.393 2.989-.372-.375-.562-.914-.562-.914s-.523.92-.014 2.582c-.414-.206-.752-.791-.752-.791-.185.214-.428 1.233-.48 2.123-.072 1.315.032 2.196.233 3.496.328 2.148 1.399 3.967 2.893 5.519.661.686 1.49 1.119 2.46 1.005 1.584-.18 2.893-.938 4.002-2.048.618-.618.814-1.31.342-2.109-.061-.105-.1-.224-.147-.343-1.384-3.367-.223-6.348 2.142-8.115 1.732-1.286 3.73-1.39 5.771-1.152 1.547.186 2.913.88 4.321 1.472.79.333 1.613.595 2.427.86.271.092.576.097.851.178.52.156.671.5.486 1-.033.085-.086.161-.134.256.819.377 1.728 1.467 2.151 2.115 1.285 1.967 2.013 5.134 2.07 5.99a2.94 2.94 0 01-.386-.013c1.085 1.357 1.69 5.814 2.09 7.814.114.595.233 1.186.366 1.838-.38-.038-.647-.08-.995-.205.115.324.876 1.757.567 5.61-.215 2.776.376 4.562.59 5.01-.37 0-.875-.138-1.175-.396.442.72.919 2.705.936 4.287.02 1.8-.103 4.123-.022 5.742.128 2.458.99 2.967 1.536 3.362-.68.176-1.565.058-2.19-.414-.46-.348-.732-.361-1.336-.376-1.034-.02-1.847-.495-2.603-1.162a1.902 1.902 0 00-1.038-.443c-1.105-.095-1.599-.524-2.351-1.305-.129-.129-.347-.2-.524-.243-4.163-.967-4.173-5.319-4.253-6.647-.605-.081-1.348-.781-1.686-1.306-.061-.095-.18-.223-.333-.175-1.693.523-2.816-2.33-3.178-3.32a12.08 12.08 0 01-.637-2.748l-.001.002-.008.062c-.13.751-1.404 1.913-2.601.086l-.103-.163c.005 3.085-2.38 2.542-2.964.504-.62 3.734-3.265 1.967-3.237-.829l-.001.027-.004.218c-.121 3.904-2.512 3.391-2.483 2.183l.005-.075c-.157.614-.842 1.357-.842 1.357 6.1 1.1 4.354 4.271 7.032 5.862-.931.324-1.77-.2-1.608.048.652 1 .937 1.862 1.085 2.88 0 0 3.149 3.077 4.402 4.225.48.438 1.008.828 1.527 1.223.146.115.361.243.57.344.04-.163.049-.31.062-.39.248-1.015.525-2.02 1.156-2.878.872-1.166 2.143-1.462 3.379-.685.486.31.947.414 1.5.414.965.005 1.793.91 1.77 1.867-.728-.495-1.565-.248-1.903.142 1.541.305 2.36 1.715 1.907 2.6a1.154 1.154 0 00-.451-.48c-.658-.362-1.233-.148-1.38.214-.319.805-1 1.043-1.751 1.134-1.347.157-2.67.243-4.064.42-1.904.246-1.842 1.537-2.208 2.432a1.644 1.644 0 01-1.513 1.01c-.328 0-.628-.1-.885-.262-.162.518-.01 1.1.557 1.214-.462.172-1.362-.138-1.657-.762-.538-1.128-.3-2.029.648-2.843.08-.066.161-.133.247-.2.042-.038.085-.076.137-.11a9.49 9.49 0 00.762-.661c.414-.4.495-.876.185-1.363-.28-.442-.609-.88-1.004-1.209-1.142-.971-2.326-1.895-3.512-2.819a8.922 8.922 0 00-1.152-.743c-.322-.176-.779-.276-1.189-.128-.913.328-1.441-.086-1.665-.258-.133-.1-1.399-1.356-5.2-1.88.536.337.77.866.989 1.404.185.463.37.924.565 1.386 2.138 5.048 4.25 10.015 6.386 15.067.7 1.667.076 3.134-1.651 3.939-1.261.585-2.684.275-3.531-.943.248.832.362 1.556.024 2.247-.343.7-.89 1.196-1.59 1.5-.69.3-1.51.41-2.26.258-.762-.158-1.266-.657-1.651-1.4-.067 1.652-1.09 2.628-2.509 2.82v.028c-.11.01-.223.014-.337.014-.033 0-.071-.005-.11-.005-.038 0-.072.005-.105.005-.114 0-.228-.005-.337-.014v-.029c-1.419-.19-2.442-1.167-2.513-2.819-.38.743-.885 1.242-1.651 1.4-.747.152-1.57.042-2.265-.258-.695-.304-1.242-.8-1.58-1.5-.338-.69-.229-1.414.02-2.247-.838 1.218-2.266 1.528-3.527.943-1.727-.805-2.351-2.272-1.651-3.94 2.132-5.051 4.245-10.018 6.385-15.066.196-.462.372-.923.562-1.386.223-.538.457-1.067.99-1.405-3.803.525-5.068 1.781-5.201 1.881-.22.172-.747.586-1.666.258-.409-.148-.86-.048-1.19.128a8.788 8.788 0 00-1.15.743c-1.181.924-2.366 1.848-3.508 2.82-.395.327-.723.766-1.008 1.208-.3.487-.225.963.19 1.363a9.98 9.98 0 00.899.77c.08.068.162.135.242.201.953.814 1.185 1.715.648 2.843-.3.624-1.19.934-1.66.762.575-.114.727-.696.56-1.214a1.66 1.66 0 01-.884.262c-.68 0-1.266-.419-1.51-1.01-.365-.895-.308-2.186-2.217-2.433-1.384-.176-2.703-.262-4.053-.419-.757-.09-1.428-.329-1.751-1.134-.144-.362-.728-.576-1.38-.214-.196.105-.362.3-.457.48-.448-.885.366-2.295 1.913-2.6-.334-.39-1.177-.637-1.909-.142-.023-.958.804-1.862 1.775-1.867.552 0 1.014-.105 1.504-.414 1.227-.777 2.503-.48 3.369.685.638.858.913 1.863 1.15 2.877.02.08.035.228.073.39.21-.1.418-.228.571-.343.523-.395 1.047-.785 1.523-1.223 1.25-1.148 4.401-4.224 4.401-4.224.152-1.019.433-1.88 1.09-2.881.161-.247-.675.276-1.609-.048 2.675-1.59.934-4.762 7.024-5.862 0 0-.68-.743-.828-1.357.118 1.286-2.465 1.9-2.484-2.353l-.001.027v.122c-.072 2.66-2.544 4.287-3.21.875l-.035-.195c-.58 2.038-2.963 2.58-2.963-.504-1.257 2.113-2.646.78-2.708.013l-.001.002-.049.39a12.59 12.59 0 01-.462 1.983l-.126.373c-.367.99-1.485 3.843-3.178 3.32-.153-.048-.277.08-.329.175-.338.525-1.08 1.225-1.695 1.306-.076 1.328-.09 5.68-4.253 6.647-.171.043-.395.114-.519.243-.752.781-1.247 1.21-2.355 1.305-.357.034-.766.2-1.038.443-.752.667-1.57 1.143-2.593 1.162-.614.015-.88.028-1.347.376-.623.472-1.508.59-2.189.414.553-.395 1.404-.904 1.533-3.362.09-1.62-.038-3.942-.02-5.742.02-1.582.49-3.567.938-4.287-.3.258-.8.395-1.18.395.219-.447.81-2.233.585-5.009-.3-3.853.467-5.286.58-5.61a3.895 3.895 0 01-.998.205c.128-.652.242-1.243.366-1.838.4-2 1.004-6.457 2.084-7.814 0 0-.219.023-.385.014.057-.857.785-4.024 2.075-5.99.428-.649 1.327-1.739 2.15-2.116-.042-.095-.1-.17-.133-.256-.186-.5-.033-.844.485-1 .276-.081.576-.086.852-.177.814-.266 1.632-.528 2.422-.861 1.408-.591 2.779-1.286 4.321-1.472 2.046-.237 4.045-.134 5.776 1.152 2.37 1.767 3.527 4.748 2.142 8.115-.047.12-.085.238-.148.343-.471.8-.28 1.49.343 2.109 1.109 1.11 2.422 1.867 3.998 2.048.975.114 1.803-.32 2.46-1.005 1.498-1.552 2.569-3.371 2.902-5.519.195-1.3.3-2.181.229-3.496-.048-.89-.295-1.909-.485-2.123 0 0-.334.585-.748.79.438-1.445.104-2.329.01-2.535l-.024-.046-.004.01a2.962 2.962 0 01-.473.807l-.09.097c.162-1.357-.713-2.552-2.393-2.99-.452-.12-1.27-.219-1.732-.352-3.102-.896-3.588-.115-3.588-.115l.039-.098c.168-.38.622-.977 1.027-1.135-1.104.381-2.693 1.396-5.044 1.015-1.946-.31-2.38-2.463-.938-3.32 0 0-.723 1.21.343 2.048.561.438 1.865.276 2.313.166.796-.188 1.99-.886 2.22-1.023l.04-.024c-1.184-.557-2.374-.11-3.464.457-.186-.914.428-2.176 1.299-2.68.942-.544 1.708-.7 3.373-.887 0 0 1.043-1.1 2.912-1.466.629-.124 1.776-.096 2.77.09 1.576.3 2.27.633 3.745 1.01 1.138.285 3.912.923 6.059-.51.018-.01-.791 1.814-2.847 2.334.566.17 1.642.019 2.451-.395-.371.514-1.061 1.27-2.136 1.618.313.32 1.37.386 1.955.068-.638.765-1.113 1.06-1.808 1.2 2.074 2.313 3.278 5.247 4.097 10.714v-.003l.065-.485c.693-4.97 1.943-7.802 3.85-10.015l.186-.212c-.696-.138-1.17-.434-1.808-1.2.585.319 1.641.252 1.95-.067-1.074-.347-1.764-1.104-2.126-1.618.804.414 1.875.566 2.451.395-2.065-.52-2.866-2.343-2.855-2.335 2.156 1.434 4.925.796 6.062.511 1.479-.377 2.17-.71 3.746-1.01zm-12.334 51.122c-.29 0-.524.21-.548.49-.243 3.634-.99 16.305-1.142 19.573 0 .038-.005.075-.005.118-.004.048-.01.095-.01.138-.004.038-.004.071-.004.11-.057 1.471 1.07 2.48 2.522 2.404 1.455.077 2.588-.933 2.518-2.405v-.247l-.014-.118c-.148-3.268-.896-15.939-1.139-19.572a.536.536 0 00-.547-.49.547.547 0 00-.551.542c-.004 3.358-.002 10.715-.001 14.69v2.625c0 .124.025.261-.017.367-.053.123-.153.217-.248.323-.086-.105-.196-.2-.244-.323-.043-.106-.019-.243-.019-.367-.004-.862.005-12.763-.004-17.315 0-.3-.243-.543-.547-.543zm-2.657-.829a.441.441 0 00-.49.366c-.29 1.53-3.307 14.515-4.087 18.848-.243 1.334.366 2.348 1.641 2.8 1.647.586 3.189-.3 3.322-1.947.2-2.534 1.094-15.915 1.261-19.014a.447.447 0 00-.89-.062c-.271 2.118-1.928 13.471-2.256 16.172-.019.152-.019.319-.085.452-.057.119-.195.2-.3.3-.072-.124-.176-.233-.21-.362-.033-.115.01-.253.024-.376.1-.853 2.018-12.982 2.465-16.677a.456.456 0 00-.395-.5zm7.029-.002l-.086.002a.45.45 0 00-.395.5c.446 3.695 2.364 15.824 2.464 16.677.015.123.057.261.024.376-.033.13-.138.238-.214.362-.104-.1-.239-.181-.295-.3-.07-.133-.066-.3-.08-.452-.333-2.7-1.994-14.054-2.26-16.173a.447.447 0 00-.89.063c.161 3.1 1.06 16.48 1.26 19.014.129 1.647 1.68 2.533 3.317 1.947 1.28-.452 1.89-1.465 1.647-2.8-.78-4.333-3.802-17.319-4.083-18.848a.455.455 0 00-.495-.366zm2.12-1.404l-.08.015a.417.417 0 00-.275.524c1.023 3.381 4.797 14.343 5.05 15.167l.03.092a.628.628 0 01.055.27c-.01.138-.086.262-.139.396-.113-.082-.256-.139-.337-.248-.086-.119-.11-.281-.157-.428-.795-2.61-4.13-12.687-4.73-14.625a.411.411 0 00-.514-.29.42.42 0 00-.281.49c.67 2.866 3.593 15.134 4.23 17.596.415 1.595 2.052 2.214 3.517 1.367 1.146-.662 1.556-1.757 1.09-3.03-1.518-4.138-6.52-15.638-7.028-17.019a.42.42 0 00-.51-.262zm-11.276.015a.422.422 0 00-.509.262c-.518 1.38-5.51 12.881-7.028 17.02-.462 1.272-.052 2.367 1.08 3.029 1.475.847 3.112.228 3.521-1.367.643-2.462 3.57-14.73 4.235-17.596a.42.42 0 00-.28-.49.413.413 0 00-.52.29c-.594 1.938-3.939 12.014-4.724 14.625-.048.147-.072.31-.162.428-.072.11-.219.166-.338.248-.052-.134-.123-.258-.138-.395-.01-.115.053-.24.09-.363.248-.824 4.026-11.786 5.04-15.167a.408.408 0 00-.267-.524zm-13.657 7.877c-.052.41-.28.78-.652.986a1.253 1.253 0 01-1.075.052c.029.08.048.162.071.248.034.11.191.656.21.723.152.582.68 1.02 1.318 1.02.41 0 .775-.186 1.023-.477.466.905.052 1.4.052 1.4s.419-.142.661-.724c.22-.509.262-1.371-.404-2.176-.267-.319-.623-.553-.947-.819-.09-.076-.175-.157-.257-.233zm38.512 0c-.081.076-.167.157-.262.233-.318.266-.676.5-.943.819-.666.805-.622 1.667-.408 2.176.252.582.666.724.666.724s-.415-.495.046-1.4c.253.29.62.477 1.033.477.633 0 1.16-.438 1.314-1.02.019-.067.18-.614.21-.723.018-.086.042-.167.066-.248a1.266 1.266 0 01-1.075-.053 1.28 1.28 0 01-.647-.985zm1.237-.948a.88.88 0 00-.87.881.875.875 0 101.749 0 .882.882 0 00-.88-.881zm-40.995 0a.882.882 0 00-.88.881.877.877 0 001.755 0 .88.88 0 00-.875-.881zm41.574-.119c.715.324.62 1.067.62 1.067.227-.224.594-.291.593-.291-.432-.515-.65-.667-1.213-.776zm-42.145 0c-.562.11-.786.261-1.219.776 0 0 .377.067.595.29 0 0-.09-.742.624-1.066zm44.064-.857a3.716 3.716 0 00-2.555.61c1.19-.081 1.804.542 1.96.685a.792.792 0 00.538.22.756.756 0 10.19-1.49.428.428 0 00-.133-.025zm-43.432.61a3.708 3.708 0 00-2.55-.61.758.758 0 00.057 1.514.77.77 0 00.533-.219c.162-.143.776-.766 1.96-.686zm45.083-1.13a7.237 7.237 0 01-.542.225c-.09.038-.324.095-.404.124.28.152.413.47.413.8 0 .247-.058.476-.157.661.247-.024.505-.056.77-.09.163-.028.296-.439.296-.838 0-.472-.172-.881-.376-.881zm-49.294 0c-.195 0-.366.41-.366.882 0 .4.133.81.295.838.266.034.523.066.766.09a1.462 1.462 0 01-.157-.662c0-.328.133-.647.419-.8-.081-.028-.314-.085-.405-.123a9.438 9.438 0 01-.552-.224zm-1.266-.537c-.242.062-.495.486-.495 1.075 0 .51.191.896.405 1.034.233.03.494.058.756.091a1.76 1.76 0 01-.17-.78c0-.449.142-.83.356-1.058-.262-.115-.552-.243-.852-.362zm51.829 0c-.294.12-.585.247-.85.362.213.228.36.61.36 1.057 0 .295-.066.562-.17.781.26-.033.514-.062.76-.091.215-.138.4-.523.4-1.034 0-.59-.252-1.013-.5-1.075zm1.058-.42c-.19.072-.395.149-.61.234.272.262.453.724.453 1.261 0 .373-.09.705-.234.968.22-.029.419-.053.572-.072.3-.137.532-.62.533-1.176 0-.657-.324-1.215-.714-1.215zm-53.943 0c-.385 0-.714.558-.714 1.215 0 .557.233 1.039.533 1.176l.571.072a2.088 2.088 0 01-.228-.968c0-.537.18-.999.456-1.26a30.864 30.864 0 00-.618-.235zm-.876-.247c-.89-.076-1.199.919-.999 1.448.205.542.514.924 1.037 1.08-.17-.275-.27-.647-.27-1.066 0-.605.219-1.12.546-1.395a2.288 2.288 0 00-.314-.067zm55.83-.003l-.136.003c-.081.01-.19.033-.309.067.328.275.547.79.547 1.395 0 .42-.104.79-.271 1.067.518-.157.833-.539 1.032-1.081.2-.53-.109-1.524-.999-1.448zm-8.981-1.613l.154.302c.356.731.597 1.518.696 2.214.134.867.8.847 1.176.719.757-.267 1.518-.252 1.518-.252-2.108-.7-3.55-2.99-3.55-2.99zm-37.998-.008s-1.442 2.291-3.54 2.991c0 0 .752-.015 1.518.252.37.128 1.032.148 1.166-.72.119-.794.423-1.709.856-2.523zm36.503-1.443s.415.79.553 1.948c.042.361.07.748.175.986a2.5 2.5 0 00.58.833c.29.271.548.552.81.957 0 0-.21-2.966-2.118-4.724zm-35.009 0c-1.912 1.758-2.122 4.724-2.122 4.724a4.82 4.82 0 01.819-.957 2.43 2.43 0 00.575-.833c.1-.238.129-.625.177-.986a6.155 6.155 0 01.535-1.916zm46.35 3.092l-.135.004c.461.19.61.819.533 1.19.481-.143.942-.033 1.242.267-.029-.796-.928-1.519-1.775-1.457zm-57.56.004c-.843-.062-1.742.661-1.77 1.457.299-.3.76-.41 1.246-.267-.086-.371.062-1 .523-1.19zm53.083-.159l-.045.003c-.304.423-.537.885-.627 1.347.355-.2.746-.41 1.16-.614a.698.698 0 00-.105-.42c-.138-.234-.338-.338-.428-.313zm-48.696.003c-.09-.024-.286.08-.424.314-.1.166-.123.323-.104.419.414.204.804.414 1.16.614-.09-.462-.323-.924-.632-1.347zm47.9-.326c-.058.167-.1.33-.134.491-.043.177-.157.772-.148 1.129.177-.4.358-.8.586-1.196.014-.024.014-.066-.006-.114a.525.525 0 00-.174-.228c-.044-.039-.086-.058-.125-.082zm-47.14 0c-.047.024-.085.043-.127.082a.518.518 0 00-.176.228c-.02.048-.02.09-.005.114.228.396.409.796.58 1.196.01-.357-.1-.952-.137-1.129-.044-.162-.087-.323-.134-.49zm-14.512-12.123c-.31-.025-.472.332-.49 1.19l-.177 5.262c-.01.234-.085.362-.228.352-.147-.01-.19-.167-.196-.342l.044-4.448c0-.838-.186-.982-.448-.81-.685.438-.842 3.858-.785 5.091.12 2.605.366 5.171-.756 7.048 0 0 3.55-.777 3.863-9.558.034-1.052-.023-3.728-.827-3.785zm76.219 0h-.06c-.803.057-.865 2.733-.827 3.785.31 8.781 3.864 9.558 3.863 9.558-1.123-1.877-.88-4.443-.757-7.048.058-1.233-.105-4.653-.79-5.09-.261-.173-.447-.03-.447.809l.043 4.448c-.005.175-.048.333-.19.342-.138.01-.223-.118-.228-.352l-.18-5.262c-.02-.858-.181-1.215-.486-1.19zm-63.286 11.58c-.071-.028-.166-.013-.266.034a1.126 1.126 0 00-.405.381.945.945 0 00-.161.51.43.43 0 00.042.186c.228.1.462.199.685.304.02-.138.072-.28.153-.423.128-.225.309-.381.5-.458-.043-.048-.086-.1-.134-.147-.014-.015-.034-.034-.047-.053a4.674 4.674 0 00-.367-.333zm50.348-.013l-.055.014c-.129.1-.253.214-.367.333-.019.02-.032.038-.047.053-.048.047-.094.1-.137.147.189.077.366.233.502.458.08.142.133.285.148.423.229-.105.458-.204.686-.304a.363.363 0 00.043-.187.91.91 0 00-.163-.509 1.075 1.075 0 00-.394-.38c-.105-.048-.206-.063-.271-.034zm-41.554-3.187c-.861.934-1.347 2.215-1.413 3.11-.072.876-.276 1.19-.276 1.19l.001-.002.846-.798s.354-.322.54-.652l.05-.1a1.88 1.88 0 00.142-.838c-.152-1.486.11-1.91.11-1.91zm32.706 0s.27.424.114 1.91a1.83 1.83 0 00.137.838c.162.363.59.752.59.752l.85.798c-.023-.039-.182-.325-.262-1.02l-.016-.167c-.072-.896-.552-2.177-1.413-3.11zm9.72 2.626l-.074.013a.43.43 0 00-.072.033c-.004 0-.004.005-.01.01-.108.056-.22.118-.328.19-.004.005-.004.015-.01.02a1.412 1.412 0 01.574.529c.145.228.23.485.221.714.214-.082.423-.158.638-.225.07-.095.067-.228.052-.31-.019-.19-.124-.4-.272-.576a1.164 1.164 0 00-.518-.37.478.478 0 00-.275-.015zm-52.076.013a.465.465 0 00-.271.014 1.17 1.17 0 00-.52.371 1.132 1.132 0 00-.275.577.435.435 0 00.052.309c.214.067.433.143.642.225a1.336 1.336 0 01.215-.715 1.506 1.506 0 01.576-.529.042.042 0 00-.01-.019 3.101 3.101 0 00-.324-.19c0-.005-.01-.01-.01-.01a.358.358 0 00-.075-.033zm-9.536-8.938c.038-.823-.234-.943-.5-.829-.676.296-.676 3.553-.828 4.667-.324 2.424-.8 5.01-2.09 6.539 0 0 3.874-.153 5.078-7.257.162-.948.22-3.534-.499-3.71-.272-.057-.523.076-.547.919l-.462 4.243c-.048.205-.138.31-.266.286-.13-.029-.139-.177-.12-.338zm71.577-.83c-.262-.113-.538.006-.5.83l.234 4.52c.018.16.004.308-.125.337-.123.024-.214-.081-.26-.286l-.457-4.243c-.029-.843-.282-.976-.554-.92-.717.177-.66 2.763-.503 3.711 1.17 6.872 4.831 7.24 5.07 7.256h.012c-1.29-1.527-1.77-4.114-2.093-6.538-.148-1.114-.143-4.37-.824-4.666zm-12.053 9.93a5.429 5.429 0 00-.314.652.882.882 0 01.215.134.9.9 0 01.214.238c.124-.181.261-.353.413-.515 0-.024 0-.052-.014-.085a.557.557 0 00-.172-.267.508.508 0 00-.276-.148c-.023-.01-.047-.01-.066-.01zm-47.966 0c-.024 0-.047 0-.071.009a.562.562 0 00-.281.148.56.56 0 00-.171.267c-.01.033-.01.061-.01.085.152.162.29.334.418.515a.742.742 0 01.206-.238c.07-.062.142-.1.218-.134a6.291 6.291 0 00-.309-.653zm-3.098-.458c-.58-.014-1.318.305-1.427 1.215.333.043.68.12 1.032.214a.923.923 0 01.01-.223c.033-.267.166-.543.366-.782.128-.152.286-.28.443-.371a2.254 2.254 0 00-.424-.053zm54.153 0c-.133.005-.277.02-.42.053.162.09.31.219.443.371.2.239.328.515.362.782a.854.854 0 01.01.223 8.14 8.14 0 011.037-.214c-.114-.91-.851-1.229-1.432-1.215zm3.268.815c-.171-.652-.937-1.343-2.526-.971.842.218.942.87 1.004 1.194.194-.251.942-.504 1.522-.223zm-58.158-.971c-1.585-.372-2.36.319-2.522.971.576-.28 1.318-.028 1.518.223.061-.323.161-.976 1.004-1.194zm52.52-.269l-.044.007a3.214 3.214 0 00-.48.567.985.985 0 01.376.223.95.95 0 01.238.325c.12-.11.257-.215.4-.31a.25.25 0 00.038-.148.77.77 0 00-.134-.372.711.711 0 00-.29-.262c-.057-.028-.108-.038-.148-.023zm-49.37.007c-.033-.015-.086-.005-.143.023a.767.767 0 00-.419.634c-.004.066.005.115.029.147.142.096.28.2.409.31a.91.91 0 01.229-.324c.119-.105.251-.186.38-.223a3.412 3.412 0 00-.485-.567zm39.686-4.862s.49 1.323-.005 2.99c-.08.29-.152.772-.118 1.076.028.296.22.658.419.824.484.405.965.828.965.828s-.276-.404-.162-1.138c.186-1.209-.114-3.071-1.1-4.58zm-30.045 0c-.976 1.509-1.285 3.371-1.1 4.58.115.734-.156 1.138-.156 1.138s.47-.423.966-.828c.2-.166.39-.528.418-.824.033-.304-.038-.786-.124-1.076-.49-1.667-.004-2.99-.004-2.99zm-16.879-2.543c.162-.648-.133-.762-.343-.682-.561.196-1.056 2.634-1.236 3.51-.41 1.972-1.19 4.191-2.3 5.333 0 0 3.365-.157 4.712-5.737.18-.743.638-2.724.08-2.895-.219-.068-.39.156-.542.761l-.923 3.5c-.047.167-.124.239-.229.214-.099-.033-.099-.152-.076-.275zm64.154-.682c-.218-.08-.509.034-.352.682l.861 3.729c.03.123.021.242-.08.275-.1.025-.18-.047-.224-.214l-.918-3.5c-.157-.605-.338-.829-.547-.761-.557.17-.1 2.152.08 2.895 1.347 5.58 4.712 5.737 4.711 5.737-1.103-1.142-1.89-3.36-2.303-5.333-.18-.876-.671-3.314-1.228-3.51zm-6.439 7.467a1.74 1.74 0 00-.655.234c-.033.019-.067.047-.102.067.148.086.282.214.39.375.096.153.162.32.19.477.177-.11.377-.219.587-.314a.288.288 0 00.033-.119.705.705 0 00-.086-.386c-.104-.205-.251-.314-.357-.334zm-51.624.001c-.105.02-.252.129-.357.334a.765.765 0 00-.09.386c.005.047.018.09.043.118.21.096.4.205.58.315.024-.157.09-.324.186-.477.11-.161.247-.29.394-.375-.033-.02-.066-.049-.1-.067a1.712 1.712 0 00-.656-.234zm-.632 0c-.505.06-.967.28-1.186.59.352-.038.667-.005.957.08a1.132 1.132 0 01.229-.67zm52.895 0a1.179 1.179 0 01.223.671 2.42 2.42 0 01.957-.081c-.223-.31-.686-.53-1.18-.59zm-25.696-5.306c-.252-.123-.448-.033-.495.534l-.152 1.743c-.015.124-.01.29-.153.29-.142 0-.133-.166-.156-.29l-.148-1.743c-.053-.567-.243-.657-.495-.534-.661.325-.861 1.743-.86 2.163 0 1.19.784 3.152 1.66 3.652.876-.5 1.66-2.462 1.66-3.652 0-.42-.204-1.838-.861-2.163zm13.595 4.382c-.185-.329-.9-.272-1.551.375 0 0 .475-.062 1.065.21.586.277.671-.252.486-.585zm-27.148.375c-.652-.647-1.37-.704-1.55-.375-.186.333-.1.861.485.585.585-.272 1.065-.21 1.065-.21zm42.5-5.951c-.171-.049-.405.047-.272.518l.785 2.925c.02.09.02.18-.057.204-.08.024-.138-.029-.176-.147l-.832-2.748c-.135-.448-.271-.605-.439-.548-.432.148-.052 1.6.09 2.143.957 3.762 3.655 3.814 3.655 3.814-.87-.81-1.431-2.147-1.761-3.595-.151-.648-.556-2.443-.993-2.566zm-59.135.518c.133-.47-.095-.567-.267-.518-.433.123-.842 1.918-.99 2.566-.337 1.448-.894 2.786-1.77 3.595 0 0 2.699-.052 3.66-3.814.142-.542.518-1.995.085-2.143-.166-.057-.304.1-.428.548l-.838 2.748c-.038.118-.1.17-.176.147-.076-.024-.08-.114-.061-.204zm41.118 2.834c-.143-.015-.233.042-.21.252l.167 1.081c0 .047.02.11-.057.124-.071.019-.086-.043-.105-.086l-.319-1.048c-.076-.2-.18-.209-.3-.133-.308.195-.238 1-.17 1.262.152.676.623 1.414 1.17 1.281.548-.134.686-1.014.533-1.676-.072-.29-.343-1.015-.71-1.057zm-23.323-.002l-.05.002c-.367.042-.643.767-.705 1.057-.152.662-.014 1.542.533 1.676.542.133 1.023-.605 1.175-1.281.057-.261.138-1.067-.176-1.262-.119-.076-.229-.066-.3.133l-.318 1.048c-.024.043-.034.105-.105.086-.076-.015-.057-.077-.057-.124l.162-1.081c.023-.21-.067-.267-.21-.252zm15.748-1.798c-.628-.005-1.242.739-1.442 1.085-.562.986-.647 2.462-.247 3.249.875-.063 1.903-.544 2.464-1.525.19-.352.713-1.61.39-2.143-.134-.214-.314-.219-.614.233l-.931 1.381c-.068.091-.139.234-.244.172-.104-.057-.02-.195.024-.3l.71-1.504c.228-.49.127-.648-.11-.648zm-8.218 0c-.243 0-.343.157-.11.648l.704 1.504c.048.105.129.243.024.3-.1.062-.176-.08-.242-.172l-.934-1.38c-.299-.453-.484-.448-.608-.234-.324.533.195 1.79.395 2.143.557.981 1.584 1.462 2.46 1.525.395-.787.31-2.263-.248-3.249-.204-.346-.813-1.09-1.44-1.085zm18.224.49c-.177-.038-.3.01-.319.249v1.26c-.01.053 0 .12-.095.13-.096.009-.096-.063-.114-.115l-.205-1.243c-.048-.233-.18-.262-.351-.195-.433.171-.5 1.1-.476 1.405.067.795.523 1.705 1.242 1.638.719-.067 1.07-1.043 1.013-1.82-.029-.342-.233-1.209-.695-1.308zm-27.922.249c-.01-.24-.138-.287-.319-.248-.452.1-.656.966-.685 1.309-.058.776.29 1.752 1.008 1.819.724.067 1.18-.843 1.243-1.638.023-.305-.038-1.234-.471-1.405-.172-.067-.305-.038-.358.195l-.204 1.243c-.014.052-.014.124-.11.114-.1-.01-.085-.076-.095-.128zm4.254-.025c-.028-.205-.153-.238-.314-.19-.414.11-.542.852-.542 1.138 0 .652.394 1.447 1.06 1.461.667.01 1.028-.785 1.033-1.452 0-.257-.129-1.033-.542-1.147-.158-.044-.276-.015-.31.19l-.104 1.053c-.005.042 0 .1-.095.1-.09 0-.086-.062-.09-.1zm19.415-.19c-.156-.048-.28-.015-.309.19l-.09 1.053c-.014.038-.01.1-.1.1-.09 0-.085-.058-.1-.1l-.096-1.053c-.033-.205-.152-.234-.314-.19-.41.114-.538.89-.533 1.147 0 .667.357 1.462 1.028 1.452.67-.014 1.06-.809 1.057-1.461 0-.286-.128-1.029-.543-1.138zm-16.988-.638c-.01-.206-.115-.244-.252-.206-.362.086-.529.82-.548 1.105-.057.653.22 1.472.79 1.53.571.052.943-.72.995-1.387.02-.257-.024-1.038-.371-1.18-.134-.058-.243-.034-.286.166l-.167 1.052c-.01.039-.01.096-.09.09-.076-.004-.062-.066-.071-.108zm14.5-.206c-.138-.038-.237 0-.253.206v1.089c0 .038-.01.078-.07.082-.076.005-.076-.052-.091-.09l-.162-1.053c-.048-.2-.152-.224-.287-.167-.342.143-.389.924-.37 1.181.057.666.418 1.439.994 1.386.567-.057.842-.876.791-1.529-.023-.286-.185-1.02-.552-1.105zm4.43-1.632c-.19-.034-.324.028-.324.285l.081 1.333c0 .058.015.129-.09.143-.1.015-.106-.062-.123-.113l-.305-1.302c-.067-.246-.214-.266-.381-.185-.453.215-.457 1.2-.41 1.515.12.843.667 1.776 1.423 1.657.751-.12 1.06-1.176.947-1.99-.053-.363-.324-1.268-.818-1.343zm-23.29.285c.006-.257-.127-.32-.318-.285-.49.075-.76.98-.813 1.343-.12.814.184 1.87.942 1.99.751.119 1.304-.814 1.423-1.657.047-.314.042-1.3-.405-1.515-.176-.081-.319-.061-.385.185l-.3 1.302c-.024.051-.024.128-.134.113-.1-.014-.08-.085-.09-.143zm20.606-.504c-.147-.029-.247.01-.262.19l-.009.934c-.005.038 0 .09-.071.095-.086.01-.086-.043-.091-.081l-.162-.924c-.043-.175-.148-.195-.286-.142-.346.128-.403.819-.386 1.042.043.595.415 1.266.991 1.215.58-.053.87-.781.824-1.353-.02-.257-.181-.9-.548-.976zm-18.18-.009l-.06.008c-.366.077-.528.72-.547.977-.043.57.238 1.3.823 1.352.58.052.942-.62.99-1.215.019-.223-.038-.914-.38-1.042-.14-.053-.253-.033-.291.142l-.157.924c-.015.038-.015.091-.09.081-.082-.005-.067-.057-.077-.095l-.01-.933c-.018-.181-.113-.22-.261-.19zm-5.079-.262l-.059.008c-.37.087-.532.791-.556 1.072-.047.629.233 1.428.819 1.481.584.052.951-.69 1.003-1.338.024-.248-.028-1.005-.38-1.144-.139-.056-.248-.033-.29.163l-.162 1.01c-.015.038-.015.1-.09.095-.081-.01-.072-.067-.077-.105l-.01-1.029c-.009-.195-.113-.233-.257-.205zm28.331.008c-.143-.028-.247.01-.257.205v1.029c-.009.038 0 .095-.08.105-.08.005-.08-.057-.086-.095l-.167-1.01c-.043-.196-.152-.22-.289-.163-.352.14-.406.896-.38 1.144.051.648.422 1.39 1.003 1.338.58-.053.86-.852.818-1.481-.024-.281-.19-.985-.562-1.072zm-29.303 2.048c-.029-.243-.276-.49-.48-.12-.2.368-.481.515-.481.515.585.095.99-.147.96-.395zm30.697-.12c-.205-.37-.447-.123-.475.12-.024.248.366.49.96.395 0 0-.27-.147-.485-.515zm-8.323-5h-.053c-.684.034-1.564 1.206-1.816 1.63-.696 1.185-.876 2.857-.514 3.743.951-.12 2.307-1.101 3.002-2.286.248-.429.834-1.772.529-2.387-.119-.238-.315-.232-.681.315l-1.137 1.681c-.083.114-.172.286-.281.224-.11-.066 0-.229.057-.358l.899-1.814c.295-.59.2-.766-.058-.748zm-14.475 0c-.266-.018-.357.157-.057.748l.904 1.814c.057.13.157.292.052.358-.104.062-.2-.11-.28-.224l-1.138-1.68c-.366-.548-.566-.554-.675-.316-.314.615.276 1.958.518 2.387.695 1.185 2.056 2.166 3.008 2.286.362-.886.18-2.558-.514-3.744-.248-.423-1.133-1.595-1.818-1.629zm5.263.444c-.257-.086-.419.024-.385.595l.11 1.743c0 .118.032.28-.106.305-.129.019-.152-.148-.18-.262l-.4-1.705c-.129-.552-.324-.61-.543-.452-.576.409-.557 1.837-.494 2.252.176 1.171 1.051 2.024 1.95 2.4.747-.619 1.347-1.691 1.171-2.867-.057-.414-.452-1.785-1.123-2.009zm4.277.595c.043-.571-.123-.681-.386-.595-.665.224-1.06 1.595-1.122 2.01-.17 1.175.423 2.247 1.176 2.866.894-.376 1.779-1.229 1.945-2.4.068-.415.081-1.843-.485-2.252-.228-.157-.419-.1-.547.452l-.395 1.705c-.038.114-.053.28-.19.262-.14-.024-.105-.187-.1-.305zm8.129-.533c-.161-.044-.276.005-.291.237v1.215c-.004.048.01.119-.076.124-.095.004-.095-.062-.11-.11l-.19-1.195c-.042-.233-.167-.257-.319-.195-.394.161-.447 1.057-.423 1.352.057.767.476 1.648 1.132 1.586.652-.062.967-1 .91-1.748-.024-.329-.22-1.171-.633-1.266zm-20.629.237c-.014-.232-.128-.28-.29-.237-.414.095-.604.937-.629 1.266-.061.748.253 1.687.905 1.748.657.062 1.075-.819 1.138-1.586.023-.295-.034-1.19-.43-1.352-.146-.062-.275-.038-.317.195l-.191 1.195c-.014.048-.02.114-.1.11-.09-.005-.08-.076-.086-.124zm-2.457.406l-.055.008c-.352.072-.504.71-.524.963-.048.566.224 1.291.775 1.338.544.052.896-.614.943-1.2.014-.224-.033-.905-.367-1.033-.127-.048-.228-.029-.27.147l-.153.91c-.01.033-.01.09-.08.08-.077-.004-.067-.056-.073-.09l-.008-.929c-.01-.175-.11-.214-.243-.186zm25.317.008c-.138-.028-.239.01-.248.186l-.005.93c-.009.033 0 .085-.076.09-.07.01-.07-.048-.085-.08l-.152-.911c-.033-.176-.142-.195-.266-.147-.338.128-.386.81-.367 1.032.046.587.394 1.253.942 1.2.552-.046.814-.77.775-1.337-.018-.252-.17-.89-.518-.963zm-38.177-5.804c-.13-.153-.272-.095-.414.433l-.795 3.196c-.033.109-.067.266-.157.247-.086-.019-.052-.176-.033-.286l.309-2.152c.086-.534-.015-.648-.2-.567-.476.215-.89 1.73-1.052 2.487-.366 1.69-.318 3.88.124 4.466.652-.348 1.585-2.276 1.95-4.024.144-.662.615-3.414.268-3.8zm51.392.433c-.138-.528-.28-.586-.414-.433-.348.386.119 3.138.262 3.8.375 1.748 1.304 3.676 1.95 4.024.448-.586.49-2.777.125-4.466-.162-.757-.572-2.272-1.048-2.487-.18-.08-.285.033-.204.567l.314 2.152c.014.11.052.267-.038.286-.09.02-.114-.138-.152-.247zm-55.243-.719c.063-.624-.066-.747-.29-.643-.57.267-1.099 2.487-1.246 3.367-.328 1.977-.114 4.515.48 5.177.776-.44 1.785-2.715 2.118-4.748.129-.777.362-3.153-.096-3.586-.18-.172-.342-.1-.485.51l-.648 3.129c-.028.128-.051.314-.161.294-.114-.019-.081-.2-.072-.333zm58.968-.643c-.223-.104-.36.02-.294.643l.4 3.167c.013.134.046.314-.063.333-.114.02-.133-.166-.17-.294l-.647-3.129c-.139-.61-.305-.682-.487-.51-.456.433-.223 2.81-.09 3.586.338 2.033 1.342 4.309 2.118 4.748.594-.662.803-3.2.48-5.177-.153-.88-.676-3.1-1.247-3.367zm2.912-1.08c-.247-.09-.39.047-.295.69l.576 3.329c.015.137.061.323-.058.348-.123.028-.156-.163-.199-.291l-.837-3.272c-.175-.634-.356-.695-.548-.51-.475.477-.128 2.944.043 3.744.452 2.104 1.637 4.414 2.503 4.829.618-.729.742-3.386.305-5.43-.195-.904-.857-3.195-1.49-3.437zm-64.787.69c.09-.643-.047-.78-.294-.69-.633.242-1.3 2.533-1.49 3.438-.438 2.044-.309 4.7.305 5.429.866-.415 2.055-2.725 2.498-4.83.171-.799.523-3.266.037-3.742-.18-.186-.366-.125-.541.509l-.838 3.272c-.043.128-.071.32-.195.29-.119-.024-.072-.21-.058-.347zm55.466 2.766c-.148-.347-.263-.37-.376-.247-.286.319.319 2.324.624 3.015 1.484 3.4 3.24 3.519 1.698-.586-.19-.496-.676-1.6-1.028-1.71-.153-.048-.243.057-.153.419l.538 1.805c.014.08.047.18-.024.204-.081.024-.11-.075-.137-.152zm-46.068-.247c-.109-.124-.232-.1-.375.247l-1.138 2.748c-.033.077-.057.176-.138.152-.076-.023-.033-.123-.023-.204l.542-1.805c.086-.362 0-.467-.162-.42-.347.11-.833 1.215-1.018 1.711-1.546 4.105.204 3.986 1.7.586.299-.691.902-2.696.612-3.015zm23.832-1.837c-.334-.172-.59-.053-.658.699l-.204 2.93c-.024.16-.014.385-.205.385-.185 0-.176-.225-.195-.386l-.209-2.93c-.062-.751-.319-.87-.656-.698-.876.423-1.133 2.09-1.133 2.652 0 1.57 1.037 3.323 2.193 3.995 1.162-.672 2.204-2.424 2.204-3.995 0-.563-.268-2.229-1.137-2.652zm34.652-2.386c-.238-.105-.385.023-.305.68l.48 3.395c.014.14.057.33-.066.348-.12.024-.149-.17-.186-.305l-.742-3.342c-.158-.638-.343-.715-.53-.534-.484.471-.198 2.976-.052 3.796.39 2.142 1.51 4.528 2.347 4.97.628-.713.819-3.395.438-5.48-.172-.924-.76-3.262-1.384-3.528zm-70.965.68c.076-.657-.067-.785-.304-.68-.619.266-1.223 2.604-1.39 3.527-.376 2.086-.19 4.768.442 5.482.838-.443 1.951-2.829 2.352-4.971.142-.82.428-3.325-.058-3.796-.19-.181-.37-.104-.529.534l-.747 3.342c-.037.134-.065.329-.184.305-.12-.019-.076-.209-.067-.348zm41.124 1.69c-.305-.142-.563-.042-.624.691l-.167 2.467c-.019.153-.01.371-.185.371-.186 0-.177-.218-.196-.371l-.219-1.853c-.066-.737-.305-.848-.628-.685-.828.414-.913 1.686-.913 2.228 0 1.538.823 2.986 1.923 3.643 1.099-.657 2.084-2.361 2.084-3.895 0-.548-.238-2.19-1.075-2.596zm-10.97.691c-.056-.733-.318-.833-.618-.69-.837.404-1.08 2.047-1.08 2.595 0 1.534.985 3.238 2.094 3.895 1.099-.657 1.917-2.105 1.917-3.643 0-.542-.085-1.814-.913-2.228-.323-.163-.566-.052-.624.685l-.224 1.853c-.019.153-.009.371-.19.371-.18 0-.171-.218-.195-.371zm-32.718-5.477c-.272-.018-.415.272-.429.982l-.324 4.424c-.005.19-.076.294-.204.29-.124-.009-.167-.138-.171-.285l.057-3.491c-.005-.686-.167-.804-.4-.667-.604.358-.733 3.172-.676 4.19.115 2.143.22 3.886-.38 5.487 0 0 2.93-1.634 3.316-7.787.047-.866-.08-3.094-.79-3.143zm75.789 0c-.71.049-.838 2.277-.785 3.143.375 6.153 3.307 7.787 3.307 7.787-.6-1.6-.49-3.344-.377-5.486.053-1.02-.07-3.833-.67-4.19-.24-.138-.405-.02-.41.666l.062 3.49c-.009.148-.048.277-.171.282-.124.008-.195-.095-.21-.286l-.323-4.424c-.014-.71-.152-1-.423-.982zm-27.544 4.191c-.26-.171-.5-.105-.637.595l-.366 1.591c-.039.148-.053.357-.214.338-.163-.018-.13-.228-.13-.38l-.052-1.043c-.038-.692-.17-.848-.475-.725-.79.31-.951 1.61-1.013 2.134-.182 1.481.323 2.881 1.227 3.628 1.057-.509 2.013-2.061 2.189-3.542.067-.524.17-2.115-.529-2.596zm-20.066.595c-.138-.7-.38-.766-.637-.595-.695.481-.6 2.072-.533 2.596.185 1.48 1.132 3.033 2.193 3.542.909-.747 1.414-2.147 1.233-3.628-.067-.524-.228-1.824-1.019-2.134-.304-.123-.437.033-.475.725l-.057 1.043c0 .152.038.362-.124.38-.162.019-.181-.19-.214-.338zm-2.436-.595c-.548.053-.89 1.181-.767 2.524.124 1.343.667 2.391 1.21 2.338.29-.024.514-.347.651-.842a7.13 7.13 0 01-.295-1.486 6.43 6.43 0 01.052-1.7c-.233-.534-.542-.857-.851-.834zm24.296 0c-.305-.023-.613.3-.846.834.084.49.104 1.076.051 1.7a7.085 7.085 0 01-.294 1.486c.138.495.367.818.648.842.546.053 1.084-.995 1.213-2.338.119-1.343-.228-2.47-.772-2.524zm3.08-.576c-.19-.076-.323 0-.319.396l.11 2.252c-.005.08.01.2-.09.21-.106.004-.11-.11-.134-.187l-.295-2.075c-.076-.391-.214-.434-.39-.334-.448.266-.486 1.557-.439 2.048.123 1.29.7 2.761 1.447 2.7.752-.071 1.047-1.672.934-2.925-.057-.556-.333-1.913-.823-2.085zm-30.132.396c0-.396-.128-.472-.323-.396-.485.172-.766 1.529-.814 2.085-.12 1.253.181 2.854.928 2.925.752.061 1.328-1.41 1.442-2.7.052-.49.014-1.782-.433-2.048-.176-.1-.319-.057-.39.334l-.3 2.075c-.019.077-.023.191-.124.186-.104-.01-.09-.129-.1-.209zm32.81-1.263c-.203-.052-.332.038-.294.452l.315 2.296c.004.086.033.204-.072.224-.105.02-.124-.1-.152-.18l-.524-2.125c-.11-.4-.262-.433-.434-.31-.446.32-.313 1.844-.218 2.353.247 1.329.962 2.824 1.74 2.657.787-.162.953-1.829.711-3.119-.11-.576-.538-2.11-1.072-2.248zm-35.513.452c.04-.414-.09-.504-.294-.452-.533.139-.966 1.672-1.076 2.248-.238 1.29-.07 2.957.71 3.119.78.167 1.494-1.328 1.74-2.657.1-.51.234-2.032-.213-2.353-.171-.123-.323-.09-.433.31l-.524 2.125c-.028.08-.048.2-.157.18-.1-.02-.071-.138-.071-.224zm-2.683-.947c.066-.437-.067-.538-.285-.486-.571.12-1.071 1.586-1.219 2.191-.319 1.357-.08 2.971.662 3.157.733.187 1.584-1.152 1.917-2.548.124-.537.324-2.013-.133-2.376-.176-.138-.342-.105-.475.31l-.648 2.176c-.033.086-.057.214-.171.186-.11-.029-.072-.148-.067-.238zm40.87-.486c-.222-.052-.356.049-.29.486l.42 2.372c.009.09.042.21-.064.238-.113.028-.142-.1-.17-.186l-.647-2.177c-.138-.414-.305-.447-.48-.309-.453.363-.259 1.839-.13 2.376.334 1.396 1.18 2.735 1.924 2.548.737-.186.97-1.8.646-3.157-.139-.605-.643-2.071-1.209-2.19zm2.78-1.162c-.22-.057-.352.054-.271.54l.47 2.442c.01.1.049.242-.056.272-.115.023-.143-.12-.177-.215l-.66-2.23c-.148-.466-.319-.504-.486-.352-.448.392-.185 2.163-.043 2.758.38 1.562 1.29 2.72 2.064 2.972.572-.581.862-2.072.495-3.592-.161-.671-.761-2.451-1.337-2.595zm-46.443.54c.076-.486-.053-.597-.277-.54-.57.144-1.17 1.924-1.332 2.595-.37 1.52-.076 3.011.49 3.592.78-.253 1.69-1.41 2.066-2.972.143-.595.409-2.366-.034-2.758-.176-.152-.338-.114-.494.353l-.658 2.23c-.038.094-.06.237-.176.214-.109-.03-.066-.173-.057-.272zm49.16-1.811c-.233-.038-.37.077-.275.524l.656 2.605c.01.094.057.228-.062.257-.114.038-.143-.095-.19-.186l-.823-2.38c-.173-.434-.348-.458-.525-.296-.456.405-.18 1.986-.013 2.543.423 1.447 1.685 3.281 2.508 3.467.59-.605.575-2.848.162-4.257-.181-.63-.833-2.186-1.437-2.277zm-52.096-.006l-.057.006c-.605.09-1.252 1.648-1.433 2.277-.419 1.409-.428 3.652.162 4.257.818-.186 2.08-2.02 2.513-3.467.161-.557.437-2.138-.02-2.543-.18-.162-.352-.138-.523.295l-.833 2.381c-.037.09-.066.224-.185.186-.115-.029-.072-.163-.053-.257l.652-2.605c.09-.447-.043-.562-.28-.524zm29.227.187c-.281-.133-.48-.01-.48.686v2.576c-.01.148.014.348-.139.358-.157.013-.161-.19-.186-.338l-.339-2.549c-.094-.69-.308-.78-.57-.614-.68.443-.78 1.99-.747 2.505.1 1.448 1.056 2.995 2.037 3.543.89-.682 1.623-2.348 1.518-3.795-.038-.515-.357-2.03-1.094-2.372zm-5.93.686c0-.695-.2-.819-.485-.686-.737.343-1.056 1.857-1.09 2.372-.104 1.447.624 3.113 1.518 3.795.98-.548 1.937-2.095 2.037-3.543.038-.514-.071-2.062-.747-2.505-.262-.166-.476-.076-.576.614l-.328 2.549c-.034.147-.038.351-.19.338-.148-.01-.13-.21-.139-.358zm9.87-1.167c-.28-.1-.466.043-.438.739l.086 2.118c0 .148.028.353-.12.377-.147.028-.162-.176-.2-.32l-.404-2.066c-.118-.681-.333-.753-.58-.553-.638.515-.671 2.082-.61 2.596.162 1.443 1.076 2.48 2.052 2.933.833-.772 1.542-2.095 1.379-3.543-.061-.514-.437-2.01-1.165-2.28zm-13.857.739c.033-.696-.158-.84-.438-.739-.723.271-1.104 1.767-1.157 2.28-.166 1.449.544 2.772 1.376 3.544.975-.452 1.894-1.49 2.05-2.933.062-.514.024-2.081-.613-2.596-.243-.2-.457-.128-.58.553l-.405 2.066c-.033.144-.048.348-.195.32-.147-.024-.114-.23-.119-.377zm35.47-1.868c-.237-.023-.366.1-.242.553l.875 2.686c.019.095.071.219-.039.261-.113.044-.156-.09-.203-.176l-1.01-2.476c-.198-.428-.38-.438-.546-.271-.423.443-.214 1.624-.006 2.181.528 1.448 1.927 3.229 2.761 3.367.547-.648.372-2.93-.147-4.334-.23-.623-.834-1.734-1.443-1.79zm-57.46-.002l-.057.002c-.613.057-1.208 1.168-1.441 1.791-.523 1.404-.695 3.686-.148 4.334.833-.138 2.227-1.92 2.764-3.367.206-.557.415-1.738-.013-2.181-.162-.167-.343-.157-.543.271l-1.01 2.476c-.047.086-.084.22-.203.176-.11-.042-.058-.166-.034-.26l.866-2.687c.124-.452 0-.576-.238-.553zm18.073 1.098c-.024-.62-.209-.714-.451-.586-.638.329-.862 1.681-.876 2.133-.034 1.291.666 2.734 1.485 3.3.847-.518 1.632-1.923 1.665-3.205.014-.457-.134-1.818-.752-2.185-.237-.143-.428-.052-.49.562l-.19 1.114c-.02.129-.014.31-.153.305-.138-.005-.124-.186-.138-.314zm21.708-.586c-.247-.128-.422-.033-.45.586l-.102 1.124c-.013.128 0 .31-.137.314-.139.005-.139-.176-.157-.305l-.192-1.114c-.065-.614-.251-.705-.485-.562-.618.367-.765 1.728-.756 2.185.038 1.282.823 2.687 1.676 3.205.809-.566 1.513-2.009 1.48-3.3-.014-.452-.239-1.804-.877-2.133zm.967.329c.494 1.214.737 2.924-.533 4.871.166-.085 1.085-.28 1.546-.919.552-.762.671-1.357.462-2.443-.166-.833-1.037-1.462-1.475-1.51zm-24.098 0c-.437.047-1.303.676-1.47 1.51-.214 1.085-.09 1.68.462 2.442.456.638 1.385.834 1.551.92-1.275-1.948-1.032-3.658-.543-4.872zm27.61-.23c-.185-.075-.309.025-.29.51l.048 1.5c0 .105.024.244-.081.263-.096.014-.106-.128-.13-.224l-.256-1.467c-.086-.472-.223-.524-.386-.39-.424.357-.447 1.447-.409 1.805.105 1.004.757 2.123 1.404 2.447.552-.538.97-1.838.866-2.847-.038-.358-.29-1.4-.766-1.596zm-30.826.51c.019-.485-.105-.585-.29-.51-.48.197-.729 1.24-.767 1.597-.104 1.01.315 2.309.861 2.847.648-.324 1.305-1.443 1.404-2.447.044-.358.02-1.448-.404-1.805-.162-.134-.305-.082-.385.39l-.257 1.467c-.024.096-.038.238-.133.224-.1-.02-.081-.158-.081-.262zm-16.265-2.76l-.062.004c-.656.066-1.242 1.119-1.494 1.8-.561 1.537-.77 4.024-.185 4.729.9-.153 2.412-2.105 2.997-3.691.22-.605.391-1.681-.066-2.162-.177-.186-.367-.172-.59.295l-1.042 2.567c-.058.1-.096.243-.224.194-.12-.042-.057-.185-.033-.285l.895-2.843c.127-.495 0-.633-.258-.604zm63.123.004c-.253-.029-.39.109-.253.604l.896 2.843c.028.1.08.243-.039.285-.124.049-.167-.095-.219-.194l-1.043-2.567c-.223-.467-.413-.481-.59-.295-.456.48-.291 1.557-.071 2.162.585 1.586 2.103 3.538 3.004 3.69.58-.704.375-3.19-.186-4.728-.253-.681-.838-1.734-1.499-1.8zm-49.494 2.047c.066-.486-.062-.6-.262-.533-.528.142-.89 1.161-.957 1.518-.204.997.177 2.105.715 2.691.718-.266 1.47-1.08 1.674-2.076.072-.357.143-1.447-.275-1.843-.167-.148-.32-.11-.453.357l-.347 1.09c-.029.101-.048.244-.157.215-.1-.023-.062-.166-.057-.266zm36.075-.533c-.21-.067-.334.047-.272.533l.119 1.153c.01.1.043.243-.056.266-.105.029-.124-.114-.158-.214l-.347-1.09c-.134-.468-.28-.506-.447-.358-.419.396-.347 1.486-.276 1.843.204.995.95 1.81 1.665 2.076.548-.586.923-1.694.723-2.69-.071-.358-.429-1.377-.951-1.52zm16.545-3.486c-.271-.048-.429.11-.314.614l.813 3.196c.014.114.072.267-.056.3-.139.042-.167-.115-.22-.22l-.928-2.795c-.19-.504-.395-.533-.59-.352-.514.467-.343 1.9-.152 2.548.49 1.705 1.926 3.862 2.855 4.09.666-.69.638-3.31.162-4.962-.214-.733-.89-2.3-1.57-2.419zm-69.364-.007l-.063.007c-.69.119-1.366 1.686-1.575 2.42-.476 1.652-.5 4.27.157 4.96.932-.227 2.37-2.384 2.86-4.09.185-.647.356-2.08-.157-2.547-.2-.181-.396-.152-.59.352l-.924 2.795c-.048.105-.086.262-.219.22-.128-.033-.076-.186-.057-.3l.814-3.196c.11-.505-.048-.662-.31-.614zm55.164 2.412c-.214-.033-.319.095-.195.567l.248 1.06c.018.101.075.235-.028.277-.096.038-.138-.1-.181-.19l-.462-.976c-.19-.448-.347-.462-.49-.29-.361.442-.147 1.513-.029 1.857.334.961 1.19 1.705 1.937 1.866.46-.652.68-1.833.352-2.79-.12-.343-.61-1.31-1.152-1.381zm-40.982-.005l-.051.005c-.542.07-1.032 1.038-1.146 1.38-.339.958-.115 2.139.347 2.791.742-.161 1.604-.905 1.937-1.866.114-.344.332-1.415-.03-1.858-.142-.17-.299-.157-.494.29l-.461.977c-.043.09-.086.228-.186.19-.095-.042-.043-.176-.019-.276l.247-1.061c.124-.472.02-.6-.195-.567zm-17.272-4.09c.086-.606-.07-.739-.333-.657-.69.204-1.137 2.914-1.285 3.809-.319 1.914-.585 3.57-.985 4.919 0 0 2.846-.729 3.793-4.866.176-.749.366-2.558-.167-3.03-.204-.185-.438-.004-.542.62l-.695 2.924c-.029.166-.119.248-.257.214-.133-.028-.147-.148-.138-.276zm75.808-.657c-.261-.082-.424.051-.333.656l.609 3.658c.014.128-.01.248-.143.276-.123.034-.223-.048-.256-.214l-.69-2.925c-.11-.623-.339-.804-.543-.618-.538.471-.342 2.28-.17 3.029.95 4.137 3.796 4.866 3.796 4.866-.4-1.348-.67-3.005-.985-4.92-.142-.894-.6-3.604-1.285-3.808zm-37.136 1.566c-.294-.176-.519-.052-.576.743l-.18 2.99c-.024.167-.01.4-.18.4-.162 0-.158-.233-.177-.4l-.181-2.99c-.053-.795-.28-.919-.576-.743-.771.447-1 2.205-1 2.795 0 1.658.914 3.496 1.933 4.205 1.023-.71 1.942-2.547 1.942-4.205 0-.59-.24-2.348-1.005-2.795zm-5.077.653c.029-.695-.157-.838-.418-.733-.695.271-1.067 1.771-1.123 2.28-.157 1.443.433 3.185 1.228 3.958.937-.457 1.889-1.919 2.05-3.362.062-.514.038-2.081-.575-2.59-.234-.195-.434-.125-.558.562l-.446 2.8c-.038.142-.053.347-.196.318-.138-.024-.11-.228-.11-.375zm8.703-.734c-.27-.105-.446.038-.418.734l.147 2.857c0 .148.024.352-.115.376-.142.028-.157-.177-.185-.32l-.448-2.8c-.127-.685-.332-.756-.566-.562-.604.51-.632 2.077-.576 2.591.163 1.443 1.12 2.905 2.052 3.363.795-.773 1.395-2.515 1.233-3.958-.062-.51-.429-2.01-1.124-2.28zm18.335 1.072c-.251-.02-.366.147-.17.708l.58 1.686c.038.125.114.282 0 .34-.114.056-.176-.11-.242-.215l-.818-1.568c-.277-.528-.462-.537-.62-.314-.385.567-.024 1.867.147 2.272.49 1.152 1.6 2.024 2.498 2.167.485-.838.624-2.329.134-3.477-.176-.409-.852-1.547-1.509-1.6zm-45.74-.001h-.056c-.657.053-1.332 1.191-1.503 1.6-.49 1.149-.357 2.639.123 3.477.909-.143 2.018-1.015 2.508-2.167.171-.405.533-1.705.143-2.272-.148-.223-.343-.214-.61.314l-.823 1.568c-.066.104-.128.271-.247.214-.11-.057-.034-.214 0-.339l.585-1.686c.19-.56.077-.728-.176-.708zm15.348-1.223c.057-.658-.095-.796-.334-.705-.622.238-1.141 2.139-1.223 2.614-.2 1.358.239 3.02.895 3.767.842-.4 1.746-1.753 1.956-3.11.076-.48.124-1.957-.38-2.452-.201-.195-.386-.134-.524.505l-.485 2.147c-.034.129-.063.324-.182.295-.128-.028-.09-.218-.08-.357zm15.332-.705c-.243-.09-.396.047-.343.705l.36 2.704c.006.14.044.329-.08.357-.123.029-.146-.166-.18-.295l-.49-2.147c-.134-.639-.323-.7-.514-.505-.514.495-.457 1.971-.39 2.453.21 1.356 1.114 2.709 1.955 3.109.667-.748 1.104-2.41.895-3.767-.076-.475-.595-2.376-1.213-2.614zm-31.787-2.291c.195-.61.104-.747-.114-.681-.548.18-1.6 2.572-1.918 3.414-.714 1.91-1.138 4.606-.771 5.349.766-.32 2.174-2.577 2.912-4.543.276-.748 1.07-3.253.78-3.748-.119-.196-.275-.147-.528.438l-2.022 5.081c-.057.114-.12.3-.209.261-.096-.033-.02-.209.014-.338zm48.013-.681c-.214-.066-.3.072-.109.681l1.856 5.233c.033.13.104.305.01.338-.09.04-.148-.147-.21-.26l-2.013-5.082c-.256-.585-.413-.634-.532-.438-.296.495.499 3 .779 3.748.738 1.966 2.151 4.223 2.908 4.543.366-.743-.053-3.439-.771-5.349-.319-.842-1.366-3.233-1.918-3.414zm-13.521 1.728l-.074.001c-.161.029-.26.12-.061 1.029l.375 1.942c.024.144.071.339-.038.372-.105.043-.148-.157-.19-.29l-.462-1.462c-.19-.648-.367-.7-.527-.49-.42.537-.225 2.047-.101 2.537.329 1.376 1.295 2.705 2.103 3.067.533-.805.624-2.41.296-3.78-.115-.491-.782-3.04-1.395-2.925zm-21.007.001c-.618-.115-1.28 2.434-1.394 2.924-.333 1.372-.243 2.976.29 3.781.814-.362 1.785-1.69 2.113-3.067.114-.49.31-2-.104-2.538-.167-.21-.334-.157-.529.491l-.457 1.461c-.052.134-.09.334-.199.29-.11-.032-.058-.227-.039-.37l.377-1.943c.204-.91.099-1-.058-1.029zm36.004-11.243c-1.866-.034-3.597.266-5.03 1.595-2.013 1.877-2.56 4.534-1.46 7.219.056.129.103.263.17.381.53.914.31 1.705-.384 2.42-1.177 1.209-2.585 2.005-4.274 2.237-.357.048-.739-.042-1.11-.1-.214-.033-.423-.128-.642-.166-.376-.067-.523.095-.423.467.295 1.142.305 2.514-.183 3.728 1.012-.143 1.556-.804 1.665-1.08.185.127.785.556.904.618.856.438 1.513.095 1.675-.847.028-.162.056-.324.076-.458.385.196.727.434 1.112.567.762.258 1.228-.095 1.233-.89.006-.234-.02-.467-.028-.724.37.128.718.28 1.085.381.732.19 1.117-.072 1.141-.829.015-.528-.09-1.062-.152-1.656.244.137.458.27.686.39.747.386 1.194.142 1.137-.691-.028-.5-.19-1.01-.395-1.467-.228-.504-1.041-1.847-1.141-2.038.394.214.746.338 1.218.41.818.124 1.389-.553 1.051-1.314-.271-.62-.905-1.572-1.128-1.796 0 0 1.266 1.267 2.046 1.514.362.115.81.095 1.105-.219.256-.28.233-.704.113-1.114-.18-.581-.542-1.128-.894-1.7h.001l.17.174c.64.64 1.404 1.28 2.078 1.493l.182.047c.272.053.652-.047.813-.214.158-.167.21-.476.115-.776-.211-.643-.61-1.196-1.019-1.748.167.195.895.624 1.318.877.482.285 1.12.723 1.69.676.59-.053.818-.4.767-.99-.016-.206-.387-1.058-.62-1.4.942.294 2.251.423 3.022.418.509 0 1.056-.1 1.056-.5.005-.338-.395-.366-.642-.404-1.27-.182-2.408-.738-3.56-1.248-1.46-.643-2.922-1.21-4.544-1.243zm-50.791-.002l-.278.002c-1.628.033-3.093.6-4.55 1.243-1.15.51-2.284 1.066-3.559 1.248-.247.038-.652.066-.647.404 0 .4.552.5 1.056.5.771.005 2.08-.124 3.032-.419-.238.343-.605 1.196-.624 1.4-.057.59.177.938.766.99.571.048 1.21-.39 1.69-.675.423-.253 1.146-.682 1.317-.877-.408.552-.808 1.105-1.018 1.748-.1.3-.042.61.12.776.156.167.537.267.808.214.772-.156 1.704-.961 2.427-1.714h-.001l-.15.244c-.25.404-.488.8-.65 1.209l-.088.247c-.13.41-.153.834.114 1.114.285.314.742.334 1.103.22.786-.248 2.042-1.515 2.042-1.515-.219.224-.856 1.176-1.133 1.796-.328.761.239 1.438 1.062 1.313a3.52 3.52 0 001.218-.41c-.096.192-.919 1.535-1.142 2.04-.2.457-.372.966-.395 1.466-.053.833.385 1.077 1.137.691.224-.12.443-.253.676-.39-.053.594-.157 1.128-.138 1.656.019.757.404 1.02 1.132.829.367-.1.719-.253 1.09-.381-.014.257-.033.49-.033.724.005.795.48 1.148 1.237.89.385-.133.728-.371 1.109-.567.023.134.047.296.07.458.173.942.829 1.285 1.685.847.115-.062.715-.49.905-.619.11.277.656.938 1.665 1.08-.494-1.213-.48-2.585-.18-3.727.09-.372-.054-.534-.434-.467-.209.038-.423.133-.642.166-.371.058-.747.148-1.109.1-1.685-.232-3.088-1.028-4.268-2.237-.695-.715-.914-1.506-.386-2.42.067-.118.114-.252.167-.381 1.1-2.685.561-5.342-1.456-7.22-1.428-1.328-3.17-1.628-5.025-1.594zm-.944 8.37l-.048.003c-.59.086-1.685 1.872-2.089 2.653-.914 1.762-1.76 4.829-1.442 5.61.823-.191 2.67-2.668 3.607-4.482.362-.695 1.266-2.67.995-3.204-.105-.21-.276-.191-.59.347l-2.555 4.596c-.077.114-.153.28-.243.228-.096-.047-.005-.205.042-.328l2.328-4.739c.256-.561.18-.714-.053-.68zm52.449.003c-.234-.033-.32.12-.067.681l2.331 4.739c.057.123.143.28.05.328-.097.053-.172-.114-.244-.228l-2.555-4.596c-.319-.538-.49-.557-.595-.347-.267.533.638 2.51.995 3.204.942 1.814 2.783 4.291 3.61 4.482.32-.781-.527-3.848-1.44-5.61-.406-.78-1.495-2.567-2.085-2.653zm-55.166-1.457c-.667.014-1.814 1.605-2.251 2.367-.994 1.714-1.733 4.43-1.532 5.59v.005c1.165-.342 2.978-2.362 4.001-4.128.39-.672 1.319-2.548 1.005-3.143-.124-.228-.32-.228-.662.286l-2.679 4.28c-.076.11-.133.224-.247.158-.105-.062-.029-.166.024-.286l2.417-4.405c.276-.558.18-.724-.076-.724zm57.83.001c-.257 0-.352.166-.081.724l2.422 4.404c.053.12.129.224.02.286-.11.067-.168-.047-.249-.157l-2.679-4.28c-.34-.515-.532-.515-.655-.286-.314.595.609 2.471.999 3.143 1.027 1.766 2.84 3.786 4.006 4.128.205-1.166-.533-3.881-1.537-5.596-.439-.761-1.58-2.352-2.246-2.366zm-31.32 2.818c-.034-.519-.191-.6-.396-.48-.532.29-.69 1.442-.69 1.828 0 1.085.628 2.296 1.333 2.757.704-.461 1.337-1.343 1.337-2.433 0-.381-.219-1.224-.757-1.4-.223-.067-.356-.029-.395.49l-.062 1.058c-.014.11-.01.267-.123.267-.114 0-.11-.158-.12-.267zm5.2-.48c-.204-.12-.356-.039-.395.48l-.124 1.82c-.014.11-.009.267-.123.267s-.108-.158-.124-.267l-.052-1.058c-.038-.519-.18-.557-.405-.49-.532.176-.757 1.019-.757 1.4 0 1.09.638 1.972 1.333 2.433.714-.461 1.342-1.672 1.342-2.757 0-.386-.162-1.538-.695-1.829zm2.85-.958c-.243-.086-.39.028-.343.614l.186 2.01c.01.129.043.3-.076.319-.129.019-.147-.157-.181-.27l-.451-1.973c-.138-.572-.315-.633-.514-.471-.51.419-.467 1.728-.4 2.162.195 1.209 1.09 2.448 1.922 2.838.66-.633 1.117-2.09.918-3.3-.071-.434-.447-1.686-1.061-1.93zm-10.958.614c.057-.586-.09-.7-.333-.614-.614.243-.995 1.495-1.07 1.93-.192 1.208.26 2.666.922 3.299.837-.39 1.727-1.63 1.928-2.838.065-.434.104-1.743-.405-2.162-.2-.162-.376-.1-.509.471l-.452 1.972c-.033.114-.057.29-.177.271-.123-.018-.09-.19-.085-.319zm-26.498-3.786h-.055c-.69.043-1.851 1.763-2.27 2.562-.96 1.81-1.446 4.272-1.185 5.463 1.195-.405 2.827-2.2 3.812-4.067.38-.71 1.209-2.61.856-3.204-.137-.235-.332-.23-.67.318l-2.342 4.053c-.08.11-.137.229-.247.166-.114-.062-.043-.17.005-.3l2.156-4.252c.262-.586.152-.753-.115-.739zm63.677 0c-.272-.014-.376.153-.115.739l2.156 4.253c.048.128.124.237.01.3-.115.062-.177-.058-.253-.167l-2.341-4.053c-.333-.547-.538-.553-.676-.318-.347.594.485 2.494.857 3.204.99 1.867 2.622 3.662 3.816 4.067.262-1.191-.224-3.653-1.186-5.463-.428-.8-1.58-2.519-2.268-2.562zm-23.675 2.644c-.195-.062-.3.047-.2.538l.334 1.652c.018.105.06.248-.034.272-.09.023-.124-.12-.162-.22l-.3-.909c-.156-.472-.28-.48-.442-.366-.395.28-.366 1.105-.271 1.461.262 1.01.994 1.691 1.684 1.968.457-.582.665-1.84.4-2.844-.095-.357-.509-1.395-1.01-1.552zm-16.179.538c.096-.49-.009-.6-.204-.538-.505.157-.919 1.195-1.014 1.552-.271 1.005-.047 2.262.405 2.844.685-.277 1.418-.958 1.684-1.968.095-.356.124-1.18-.266-1.461-.166-.115-.285-.106-.448.366l-.3.91c-.037.1-.071.242-.16.219-.096-.024-.054-.167-.039-.272zm-26.657-4.357c-.609.01-2.008 2.157-2.37 2.885-.594 1.172-.966 2.453-1.308 4.139 0 0 2.14-.472 3.75-3.229.36-.624 1.64-2.967 1.36-3.514-.11-.215-.281-.22-.6.261l-2.44 3.772c-.071.1-.128.205-.229.143-.095-.057-.024-.157.024-.267l1.885-3.53c.247-.508.161-.665-.072-.66zm69.294 0c-.238-.005-.324.152-.076.66l1.884 3.53c.048.11.12.21.015.267-.09.062-.149-.043-.214-.143l-2.447-3.772c-.313-.48-.49-.476-.6-.261-.285.547 1 2.89 1.357 3.514 1.613 2.757 3.754 3.229 3.754 3.229-.347-1.686-.718-2.967-1.308-4.139-.362-.728-1.765-2.876-2.365-2.885zm-32.344 4.423c.505-.686-.17-1.705-1.008-1.228-.28.162-.585.657-.69 1.081-.13.51-.19 1.362-.19 2.062.38-1.277 1.351-1.177 1.888-1.915zm-3.563-1.228c-.843-.477-1.524.542-1.01 1.228.538.738 1.509.638 1.884 1.915 0-.7-.06-1.552-.185-2.062-.114-.424-.414-.919-.69-1.081zm5.48-3.134c.066-.566-.058-.685-.276-.6-.557.229-.948 1.453-1.033 1.871-.228 1.186.115 2.615.681 3.244.761-.371 1.613-1.576 1.837-2.758.081-.418.166-1.704-.266-2.118-.171-.163-.33-.1-.482.452l-.446 1.72c-.033.114-.062.285-.17.26-.106-.018-.072-.18-.06-.304zm-8.175-.6c-.214-.085-.347.034-.275.6l.218 1.767c.01.124.053.286-.062.305-.109.024-.133-.147-.166-.262l-.452-1.72c-.143-.551-.31-.614-.481-.451-.437.414-.347 1.7-.266 2.118.229 1.182 1.075 2.387 1.837 2.758.566-.629.913-2.058.68-3.244-.08-.418-.466-1.642-1.033-1.87zm-3.178.915c.014-.444-.114-.524-.3-.444-.47.206-.7 1.163-.732 1.487-.09.918.342 1.985.899 2.438.633-.334 1.26-1.3 1.356-2.214.029-.324-.005-1.305-.428-1.605-.167-.11-.305-.052-.38.376l-.235 1.338c-.018.09-.027.223-.128.215-.1-.015-.076-.144-.076-.235zm14.551-.444c-.176-.08-.304 0-.29.444l.024 1.356c-.005.091.015.22-.08.235-.091.008-.1-.124-.12-.215l-.242-1.338c-.077-.428-.214-.486-.376-.376-.42.3-.462 1.281-.429 1.605.091.914.723 1.88 1.352 2.214.556-.453.989-1.52.899-2.438-.029-.324-.263-1.281-.738-1.487zm-8.955-.78c-.171-.052-.272.034-.214.414l.157 1.181c.01.076.033.19-.043.21-.09.014-.11-.095-.133-.172l-.343-1.138c-.11-.371-.233-.41-.366-.295-.338.3-.276 1.162-.214 1.443.167.785.814 1.567 1.403 1.79.438-.447.71-1.424.533-2.214-.057-.28-.351-1.09-.78-1.22zm3.289.414c.046-.38-.049-.466-.22-.414-.428.129-.722.938-.785 1.22-.171.79.1 1.766.543 2.213.58-.223 1.223-1.005 1.394-1.79.058-.281.13-1.143-.214-1.443-.128-.114-.257-.076-.366.295l-.338 1.138c-.028.077-.048.186-.13.172-.085-.02-.051-.134-.041-.21zm6.189-3.529c.105-.47-.004-.561-.19-.514-.504.129-.885 1.233-.952 1.591-.161.771-.194 1.557.252 2.324.496-.187 1.21-.553 1.557-1.539.114-.342.29-1.185-.086-1.448-.156-.109-.275-.099-.441.353l-.267.743c-.034.095-.077.233-.167.21-.085-.024-.047-.162-.024-.257zm-15.697-.514c-.181-.047-.295.043-.19.514l.318 1.463c.015.095.062.233-.029.257-.09.023-.123-.115-.166-.21l-.262-.743c-.167-.452-.286-.462-.442-.353-.38.262-.2 1.105-.081 1.448.343.987 1.057 1.353 1.546 1.539.453-.767.414-1.553.258-2.324-.077-.358-.448-1.462-.952-1.59zm2.188-1.005c-.19-.052-.29.062-.17.544l.356 1.495c.019.1.067.243-.023.271-.091.029-.129-.12-.167-.214l-.552-1.429c-.186-.467-.329-.5-.457-.352-.329.404-.128 1.496-.014 1.852.309.99 1.15 1.948 1.832 2.2.419-.6.57-1.856.257-2.857-.11-.353-.562-1.367-1.062-1.51zm11.302.544c.119-.482.024-.596-.171-.544-.5.143-.956 1.157-1.066 1.51-.305 1-.162 2.257.262 2.858.68-.253 1.522-1.21 1.832-2.2.109-.357.313-1.449-.015-1.853-.129-.148-.276-.115-.452.352l-.558 1.429c-.036.095-.08.243-.17.214-.09-.028-.038-.171-.018-.271zm-9.607-.677c-.205-.453-.357-.462-.476-.314-.343.4.071 1.52.19 1.871.367 1.048 1.209 2.081 2.141 2.73.296-.444.296-2.206-.142-3.14-.162-.332-.49-1.152-.972-1.147-.2 0-.294.076-.146.552l.242.772c.024.1.081.233-.01.267-.09.038-.137-.101-.185-.195zm8.217-.314c-.123-.148-.265-.139-.48.314l-.637 1.396c-.048.094-.09.233-.186.195-.09-.034-.034-.167-.01-.267l.243-.772c.143-.476.048-.552-.152-.552-.476-.005-.804.815-.967 1.148-.442.933-.442 2.695-.147 3.138.933-.648 1.78-1.681 2.142-2.729.123-.351.538-1.471.194-1.87zm4.974-.5c-.13-.057-.2.004-.186.338l.052 1.014c0 .071.014.172-.043.181-.066.005-.077-.09-.095-.157l-.09-.529c-.067-.328-.138-.347-.267-.285-.281.147-.342.695-.304.938.076.69.494 1.21.918 1.457.357-.338.623-1.153.534-1.839-.024-.247-.2-.966-.519-1.118zm-18.454.338c.014-.334-.067-.395-.186-.338-.319.152-.495.871-.528 1.118-.076.686.18 1.5.537 1.84.43-.249.843-.768.928-1.458.029-.243-.023-.79-.314-.938-.118-.062-.2-.043-.256.285l-.1.529c-.015.067-.02.162-.086.157-.062-.01-.048-.11-.048-.18zm1.598-4.765l-.08.017c-.138.048-.205.348-.048.396.081.028.252.057.252.057a.256.256 0 01.195.31.258.258 0 01-.309.199l-.1-.023s-.114-.02-.205.028a.413.413 0 00-.17.195c-.158.3-.329.577-.52.81a.283.283 0 00-.076.228c.005.128.134.262.134.262l.975 1.077c.1.085.067.148.038.175-.01.014-.081.068-.186-.014l-1.203-.876s-.124-.105-.272-.1a.421.421 0 00-.276.095c-.247.18-.49.324-.737.448-.119.058-.224.095-.262.21-.033.1.034.228.034.228l.057.123a.258.258 0 01-.129.349.251.251 0 01-.343-.12l-.07-.161s-.053-.168-.21-.215c-.139-.043-.228-.014-.367.01-.48.094-.852.105-1.013.114.247.048 1.698.443 1.96 1.762.676-1.051.744-1.958.751-2.121l.001-.026s1.137 1.433 3.379 1.408c-.12-2.152-1.566-3.146-1.566-3.146s1.485-.134 2.203-.968c-.647-.16-1.228-.457-1.55-.623-.13-.062-.224-.144-.368-.09zm15.152.017c-.147-.053-.242.03-.362.09-.332.167-.908.463-1.56.624.727.834 2.203.968 2.203.968s-1.447.994-1.56 3.146c2.06.023 3.195-1.197 3.357-1.384l.02-.024s.006.985.752 2.147c.267-1.32 1.713-1.714 1.961-1.762-.162-.01-.538-.02-1.019-.114-.133-.024-.218-.053-.362-.01-.156.047-.204.215-.204.215l-.076.161a.255.255 0 01-.347.12.255.255 0 01-.123-.349l.061-.123s.057-.129.023-.228c-.037-.115-.137-.152-.26-.21a5.056 5.056 0 01-.733-.448.408.408 0 00-.272-.095.43.43 0 00-.27.1l-1.21.876c-.104.082-.17.028-.195.014-.018-.027-.047-.09.043-.175l.981-1.077s.129-.134.129-.262a.317.317 0 00-.067-.229 4.522 4.522 0 01-.529-.809.488.488 0 00-.161-.195c-.096-.047-.21-.028-.21-.028l-.1.023a.265.265 0 01-.315-.2.266.266 0 01.205-.31s.162-.028.251-.056c.153-.048.087-.348-.05-.396zm-1.494 1.467c-.49-.105-1.219.618-1.433.89-.462.606-.828 1.262-.762 2.114.505.048 1.275.029 1.99-.671.243-.247.99-1.124.771-1.514-.091-.162-.252-.167-.533.12l-.772.756c-.075.067-.16.171-.232.114-.067-.057.028-.157.085-.237l.823-1.049c.295-.362.234-.485.063-.523zm-12.14-.01l-.1.01c-.18.038-.238.161.053.523l.828 1.049c.057.08.152.18.086.237-.048.038-.104.005-.156-.042l-.073-.072-.785-.757c-.276-.286-.438-.28-.528-.12-.215.391.528 1.268.775 1.515.714.7 1.48.719 1.99.671.066-.852-.3-1.508-.762-2.114-.21-.272-.942-.995-1.427-.89zm-9.697 1.648c-1.5-.452-1.961.262-1.961.262s.771-.224 2.151.205c1.37.424 2.027.156 2.027.156-.947-.109-1.68-.457-2.217-.623zm33.39.262s-.461-.714-1.965-.262c-.537.166-1.27.514-2.212.623 0 0 .647.268 2.026-.156 1.38-.429 2.152-.205 2.152-.205zm6.138-2.028c.012.106.081 1.045-.775 1.442-1.085.51-2.512.181-3.468-.262-1.1-.504-1.429-.834-2.084-.6-.509.177-.719.41-.719.41s.618-.29 1.542.167c.837.418 2.603 1.271 4.359.77.96-.27 1.383-1.18 1.146-1.927h-.001zm-47.633 0l-.032.125c-.152.72.272 1.546 1.18 1.803 1.76.5 3.525-.353 4.363-.771.919-.457 1.542-.168 1.542-.168s-.21-.232-.719-.409c-.66-.234-.985.096-2.084.6-.956.443-2.384.772-3.469.262-.904-.42-.78-1.442-.78-1.442h-.001zm36.552-1.643c-.586-.6-1.138.08-2.019.585-.476.272-1.732.776-2.693-.471.143.495.943 2.933 3.417 3.333 1.17.186 2.68.043 3.878-1.086 1.042-.985 1.532-2.019 1.003-2.347-.465-.282-.795.195-1.117.48-.324.291-.723.457-1.356.32-.61-.129-.852-.538-1.113-.814zm-23.45.585c-.881-.505-1.438-1.186-2.013-.585-.267.276-.505.685-1.12.814-.627.137-1.022-.029-1.35-.32-.324-.285-.657-.762-1.114-.48-.537.328-.048 1.362.995 2.347 1.198 1.129 2.712 1.272 3.882 1.086 2.475-.4 3.275-2.838 3.417-3.333-.96 1.247-2.217.743-2.698.471zm-6.272-.624c.023-.695-.405-.933-.614-.761-.124.095-.105.433-.31.428-.128-.005-.128-.172-.3-.243-.352-.142-3.03.158-3.297 2.304 0 0 .866-.594 2.498-.39 1.458.176 3.156 1.24 3.408 1.403l.032.021s-1.48-1.137-1.417-2.762zm34.594-.761c-.215-.172-.638.066-.615.761.063 1.625-1.422 2.762-1.422 2.762s1.866-1.233 3.45-1.423c1.622-.205 2.489.39 2.489.39-.266-2.147-2.946-2.447-3.289-2.305-.18.071-.175.238-.304.243-.21.005-.185-.333-.309-.428zm-12.51 2.7c.023-.158-.186-.277-.462-.134-.671.3-1.327.186-1.327.186.847.48 1.76.176 1.789-.053zm-9.731-.134c-.277-.143-.481-.024-.457.133.028.23.937.534 1.784.053 0 0-.647.114-1.327-.186zm10.126-1.262c.019-.147-.134-.324-.514-.157-.861.305-1.67.119-1.67.119.942.586 2.155.29 2.184.038zm-10.464-.157c-.38-.167-.534.01-.519.157.028.253 1.247.548 2.189-.038 0 0-.81.186-1.67-.12zm-9.46-.986c-.338 0-.62.253-.62.562 0 .315.282.567.62.567.337 0 .614-.252.614-.567 0-.31-.277-.562-.614-.562zm28.875 0c-.343 0-.62.253-.62.562 0 .315.277.567.62.567.338 0 .614-.252.614-.567 0-.31-.276-.562-.614-.562zm-22.99-.724c-3.597-1.076-4.634-1.248-6.123-.866-1.723.443-2.217 1.343-1.956 1.718.243.358.875.172 1.551-.104.462-.185 1.052-.438 1.57-.471.738-.057 1.219.033 2.304.866 1.051.814 2.232 1.067 3.007-.114 0 0 3.474.78 5.073-.8 0 0-1.828.848-5.425-.229zm23.218-.866c-1.484-.382-2.527-.21-6.12.866-3.385 1.013-5.207.322-5.41.237l-.019-.008c1.604 1.58 5.077.8 5.078.8.776 1.18 1.956.928 3.002.114 1.086-.833 1.576-.923 2.308-.866.52.033 1.11.286 1.575.471.671.276 1.294.462 1.547.104.257-.375-.234-1.275-1.96-1.718zm-.114 1.886c.128 0 .232.1.232.218 0 .12-.103.215-.232.215-.138 0-.243-.095-.243-.215 0-.118.106-.218.243-.218zm-29.103 0c.128 0 .238.1.238.218 0 .12-.11.215-.238.215-.133 0-.243-.095-.243-.215 0-.118.11-.218.243-.218z"/></g></svg>