<svg xmlns="http://www.w3.org/2000/svg" xmlns:xlink="http://www.w3.org/1999/xlink" width="450" height="278"><defs><rect id="a" width="450" height="278" rx="4"/></defs><g fill="none" fill-rule="evenodd"><mask id="b" fill="#fff"><use xlink:href="#a"/></mask><use fill="#F2F3F5" xlink:href="#a"/><path stroke="#E4E6EB" stroke-opacity=".8" d="M-631 533L623-721M-623 533L631-721M-615 533L639-721M-607 533L647-721M-599 533L655-721M-591 533L663-721M-583 533L671-721M-575 533L679-721M-567 533L687-721M-559 533L695-721M-551 533L703-721M-543 533L711-721M-535 533L719-721M-527 533L727-721M-519 533L735-721M-511 533L743-721M-503 533L751-721M-495 533L759-721M-487 533L767-721M-479 533L775-721M-471 533L783-721M-463 533L791-721M-455 533L799-721M-447 533L807-721M-439 533L815-721M-431 533L823-721M-423 533L831-721M-415 533L839-721M-407 533L847-721M-399 533L855-721M-391 533L863-721M-383 533L871-721M-375 533L879-721M-367 533L887-721M-359 533L895-721M-351 533L903-721M-343 533L911-721M-335 533L919-721M-327 533L927-721M-319 533L935-721M-311 533L943-721M-303 533L951-721M-295 533L959-721M-287 533L967-721M-279 533L975-721M-271 533L983-721M-263 533L991-721M-255 533L999-721M-247 533L1007-721M-239 533L1015-721M-231 533L1023-721M-223 533L1031-721M-215 533L1039-721M-207 533L1047-721M-199 533L1055-721M-191 533L1063-721M-183 533L1071-721M-175 533L1079-721M-167 533L1087-721M-159 533L1095-721M-151 533L1103-721M-143 533L1111-721M-135 533L1119-721M-127 533L1127-721M-119 533L1135-721M-111 533L1143-721M-103 533L1151-721M-95 533L1159-721M-87 533L1167-721M-79 533L1175-721M-71 533L1183-721M-63 533L1191-721M-55 533L1199-721M-47 533L1207-721M-39 533L1215-721M-31 533L1223-721M-23 533L1231-721M-15 533L1239-721M-7 533L1247-721M1 533L1255-721M9 533L1263-721M17 533L1271-721M25 533L1279-721M33 533L1287-721M41 533L1295-721M49 533L1303-721M57 533L1311-721M65 533L1319-721M73 533L1327-721M81 533L1335-721M89 533L1343-721M97 533L1351-721M105 533L1359-721M113 533L1367-721M121 533L1375-721M129 533L1383-721M137 533L1391-721M145 533L1399-721M153 533L1407-721M161 533L1415-721M169 533L1423-721M177 533L1431-721M185 533L1439-721M193 533L1447-721M201 533L1455-721M209 533L1463-721M217 533L1471-721M225 533L1479-721M233 533L1487-721M241 533L1495-721M249 533L1503-721M257 533L1511-721M265 533L1519-721M273 533L1527-721M281 533L1535-721M289 533L1543-721M297 533L1551-721M305 533L1559-721M313 533L1567-721M321 533L1575-721M329 533L1583-721M337 533L1591-721M345 533L1599-721M353 533L1607-721M361 533L1615-721M369 533L1623-721M377 533L1631-721M385 533L1639-721M393 533L1647-721M401 533L1655-721M409 533L1663-721M417 533L1671-721M425 533L1679-721M433 533L1687-721M441 533L1695-721M449 533L1703-721" mask="url(#b)"/><text fill="#8F96A3" font-family="PT_RussiaText, PT_Russia Text" font-size="14"><tspan x="36" y="31">Protected area</tspan></text><text fill="#8F96A3" font-family="PT_RussiaText, PT_Russia Text" font-size="14"><tspan x="315" y="31">Protected area</tspan></text><path fill="#FFF" d="M53 53h344v172H53z"/><circle cx="225" cy="53" r="51" stroke="#676E7B" stroke-width="4" opacity=".2"/><circle cx="225" cy="225" r="51" stroke="#676E7B" stroke-width="4" opacity=".2"/><circle cx="53" cy="225" r="51" stroke="#676E7B" stroke-width="4" opacity=".2"/><circle cx="397" cy="225" r="51" stroke="#676E7B" stroke-width="4" opacity=".2"/><path fill="#595959" fill-rule="nonzero" d="M322.457 196.384c2.87 0 4.547.655 6.39 1.846-.545 1.143-1.194 2.662-1.625 3.964-1.676-2.985-3.63-3.684-5.577-3.684-2.592 0-4.598 1.734-4.598 4.444 0 3.368 2.818 4.73 5.903 5.49 4.706 1.191 7.41 2.661 7.41 7.38 0 5.212-5.029 9.176-10.44 9.176-2.762 0-5.191-.76-7.138-2.23.597-1.083 1.35-2.873 1.728-3.96 2.058 3.369 4.168 4.08 6.442 4.08 3.133 0 5.618-1.85 5.618-5.007 0-3.58-2.974-4.5-6.375-5.42-4.228-1.15-6.931-3.263-6.931-7.663 0-5.1 3.734-8.416 9.193-8.416zm22.236 0c2.863 0 4.543.655 6.382 1.846-.541 1.143-1.19 2.662-1.628 3.964-1.669-2.985-3.623-3.684-5.57-3.684-2.592 0-4.595 1.734-4.595 4.444 0 3.368 2.819 4.73 5.904 5.49 4.702 1.191 7.41 2.661 7.41 7.38 0 5.212-5.037 9.176-10.443 9.176-2.76 0-5.189-.76-7.143-2.23.6-1.083 1.354-2.873 1.728-3.96 2.062 3.369 4.169 4.08 6.442 4.08 3.14 0 5.625-1.85 5.625-5.007 0-3.58-2.977-4.5-6.385-5.42-4.217-1.15-6.924-3.263-6.924-7.663 0-5.1 3.734-8.416 9.197-8.416zm-61.285.54c.916.056 2.106.167 2.755.167.59 0 1.74-.108 2.548-.163-.438 4.127-.49 11.46-.49 13.738 0 8.304 2.492 11.237 6.705 11.237 6.51 0 7.024-6.58 7.038-11.708v-.386c-.005-1.466-.076-8.922-.49-12.881.917.055 2.104.163 2.76.163.593 0 1.728-.108 2.54-.163-.42 3.952-.482 10.496-.485 13.462v.689c.006 2.652.075 9.42.485 13.322a19.952 19.952 0 00-2.488-.164c-.92 0-1.999.06-2.811.164.104-.927.263-3.26.263-4.236-1.78 3.253-5.24 4.831-8.651 4.831-5.248 0-9.353-3.36-9.353-8.907 0-1.358.16-3.688.16-5.427 0-2.278-.056-9.61-.486-13.738zm100.772-.54c5.681 0 9.627 2.881 9.627 9.994v13.09c0 3.09.593 3.418 1.736 3.418.374 0 .815-.06 1.134-.112l.323 1.359c-2.114.763-3.3.863-3.894.863-1.787 0-2.918-.811-3.356-2.386l-.323-1.194c-2.918 2.333-6.107 3.58-8.763 3.58-4.92 0-8.114-2.598-8.114-7.165 0-4.883 3.3-7.165 7.577-7.928l6.541-1.191c1.84-.324 2.815-.867 2.815-2.226 0-5.922-2.492-7.98-6.594-7.98-3.192 0-5.84 1.19-7.309 4.344h-.649v-3.15h-.003c3.081-2.393 6-3.316 9.252-3.316zm-289.082 0c5.678 0 9.627 2.881 9.627 9.994v13.09c0 3.09.597 3.418 1.732 3.418.378 0 .812-.06 1.138-.112l.32 1.359c-2.107.763-3.298.863-3.89.863-1.788 0-2.927-.811-3.357-2.386l-.323-1.194c-2.926 2.333-6.115 3.58-8.759 3.58-4.928 0-8.118-2.598-8.118-7.165 0-4.883 3.297-7.165 7.57-7.928l6.545-1.191c1.843-.324 2.814-.867 2.814-2.226 0-5.922-2.488-7.98-6.6-7.98-3.19 0-5.841 1.19-7.303 4.344h-.645v-3.15c3.082-2.393 6-3.316 9.249-3.316zm102.523.004c8.218-.004 13.357 5.97 13.357 14.11 0 8.305-5.354 14.498-13.847 14.498-8.325 0-13.524-6.126-13.524-13.73 0-9.012 5.737-14.878 14.014-14.878zm31.158-15.03c.697 0 1.127.048 1.51.164-.053.744-.164 1.998-.164 2.43 0 .544.111 1.63.163 2.557-1.732-.658-2.651-.819-3.352-.819-3.078 0-4.706 1.63-4.706 4.836 0 1.25.107 3.636.486 6.57 1.568 0 4.164-.22 5.944-.44-.048.55-.104 1.314-.104 1.742 0 .491.06 1.146.104 1.578-1.832-.272-3.786-.432-4.435-.432h-1.617v8.576c0 4.232.052 12.164.482 16.288a18.61 18.61 0 00-2.484-.164c-.92 0-2 .053-2.815.164.421-3.971.485-11.474.49-15.803v-9.06h-.92c-.49 0-1.243.048-2.87.431.11-.543.166-1.359.166-1.63 0-.272-.055-1.083-.167-1.686 1.19.387 2.007.439 2.87.439h.92c0-8.8 6.008-15.741 10.499-15.741zm34.718 3.573c6.927 0 11.363 3.045 11.363 8.96 0 5.318-3.898 9.934-11.634 10.745 10.065 12.923 12.171 15.48 15.961 19.768a46.39 46.39 0 00-3.786-.163c-1.187 0-2.488.056-3.571.163-3.842-5.65-10.332-13.958-14.711-19.169h-1.951c0 6.518.06 13.195.434 19.17a23.749 23.749 0 00-2.76-.164c-.97 0-2.102.056-2.973.163.322-5.974.434-14.222.434-21.063v-.8c-.006-6.114-.076-14.755-.434-17.606 1.568.104 4.872.156 6.163.156 1.465 0 5.407-.16 7.465-.16zm-199.95 0c7.68 0 13.74 1.47 13.74 8.416 0 4.94-3.142 7.708-8.652 9.607 7.732 1.63 9.897 5.214 9.897 9.882 0 7.988-6.767 11.568-15.367 11.568-2.055 0-5.296-.163-6.924-.163-.704 0-2.488.108-3.241.163.31-5.728.424-13.546.433-20.205v-2.073c-.008-6.084-.086-14.407-.433-17.195 1.354.056 4.65.16 5.518.16 1.458 0 4.053-.16 5.029-.16zm62.709 11.46c5.247 0 9.356 3.313 9.356 8.848 0 1.362-.16 3.693-.16 5.43 0 2.282.053 9.611.49 13.735-.82-.104-1.68-.163-2.492-.163-.92 0-1.998.06-2.814.163.434-4.124.485-11.453.485-13.734 0-8.308-2.488-11.182-6.704-11.182-6.503 0-7.017 6.53-7.031 11.653v.386c.004 1.466.07 8.922.485 12.877a20.011 20.011 0 00-2.492-.163c-.916 0-1.999.06-2.81.163.413-3.9.482-10.67.488-13.321v-.98c-.007-3.053-.078-9.35-.489-13.172.92.049 2.11.16 2.76.16.596 0 1.731-.108 2.543-.163-.11.926-.274 3.26-.274 4.24 1.787-3.254 5.247-4.776 8.659-4.776zm22.34-14.776c-.418 3.971-.482 11.425-.486 15.8v11.453h.864c1.787 0 10.928-10.422 11.796-11.944.753.056 2 .164 2.648.164.541 0 1.84-.108 2.648-.164l-12.924 11.62c1.62 1.95 10.22 11.677 14.118 15.857-1.461-.112-2.488-.164-3.249-.164-.971 0-2.432.052-3.57.164-2-3.153-8.115-10.37-11.467-14.063h-.864c0 2.007.052 9.939.486 14.063a18.665 18.665 0 00-2.489-.164c-.92 0-2.002.052-2.81.164.417-3.972.484-11.474.488-15.803v-10.691c0-4.288-.055-12.168-.489-16.292.916.06 2.103.164 2.76.164.589 0 1.727-.105 2.54-.164zm216.656 15.313c-.42 3.952-.485 10.496-.49 13.462v.276c0 2.282.056 9.61.49 13.735a20.105 20.105 0 00-2.492-.164c-.916 0-2.002.06-2.818.164.434-4.124.493-11.453.493-13.735 0-2.77-.06-9.663-.493-13.738.92.052 2.106.163 2.759.163.593 0 1.735-.108 2.551-.163zm-167.794 1.574c-5.845.004-8.711 6.138-8.711 12.596 0 6.13 2.547 11.784 8.277 11.784 5.518 0 8.815-5.326 8.815-12.6 0-5.862-2.27-11.78-8.381-11.78zm192.021 11.892l-3.567.544c-3.901.599-8.225 1.95-8.225 6.078 0 3.153 1.731 4.831 5.247 4.831 2.162 0 4.324-.759 6.545-3.093v-8.36zm-289.078 0l-3.571.544c-3.894.599-8.218 1.95-8.218 6.078 0 3.153 1.728 4.831 5.24 4.831 2.17 0 4.331-.759 6.549-3.093v-8.36zm-40.581-5.598h-1.517v16.456c1.19.056 3.19.111 4.595.111 5.522 0 10.12-2.337 10.12-8.58 0-4.886-2.655-7.987-13.198-7.987zM259.6 187.98c-1.84 0-3.672.048-4.432.16v14.218h1.787c5.14 0 12.06-1.303 12.06-7.865 0-4.075-3.133-6.513-9.415-6.513zm-196.75-.004c-1.25 0-3.412.048-4.547.1v13.735a31.57 31.57 0 002.863.115c6.011 0 10.602-2.497 10.602-7.5 0-4.611-3.997-6.45-8.918-6.45zm299.85-4.016c1.84-.004 2.923.92 2.923 2.873 0 1.735-1.083 2.982-2.922 2.982-1.84 0-2.919-1.247-2.919-2.982 0-1.63 1.19-2.873 2.919-2.873zM224.994 53c29.04 0 52.57 23.62 52.57 52.754 0 29.137-23.53 52.757-52.57 52.757-29.022 0-52.556-23.62-52.556-52.757C172.437 76.62 195.97 53 224.993 53zm0 4.076c-26.786 0-48.495 21.79-48.495 48.678 0 26.885 21.709 48.678 48.495 48.678 26.793 0 48.51-21.793 48.51-48.678 0-26.889-21.717-48.678-48.51-48.678zm3.352 10.783s1.209 2.214 6.85 1.202c4.665-.834 7.25.383 7.25 1.95 0 0 3.315.399 4.798 1.363 1.483.967-.093 3.372-.093 3.372-.222-.443-.537-.7-1.439-.897 0 0-3.582-.93-4.832 1.414-2.729.235-5.08 1.873-6.189 4.102-.067.134-1.101 2.192-.452 6.354.333 2.188 1.413 4.038 2.94 5.62.664.693 1.499 1.136 2.504 1.02 1.594-.186 2.922-.953 4.057-2.084.623-.626.82-1.333.34-2.148-.066-.108-.096-.227-.144-.35-1.413-3.428-.23-6.458 2.166-8.252 1.765-1.314 3.79-1.466 5.86-1.176 13.628 1.928 14.08 15.76 14.08 20.025 0 12.064.185 20.62.267 22.273.137 2.502 1.012 3.026 1.558 3.421-.864.603-7.951-1.634-9.657-3.763-.123-.141-.349-.201-.534-.246-4.224-.994-4.231-5.423-4.31-6.77-3.53 0-4.898-3.875-5.28-4.884a12.502 12.502 0 01-.638-2.799c0 1.884-2.778 3.503-5.767.499 0 3.093-3.667 2.546-5.492.715-.16.625-1.164 2.218-1.164 2.218 2.091.38 3.033.841 4.027 1.716 2.322 2.05 2.585 5.464 2.585 7.228 0 0 3.19 3.138 4.457 4.3.375.346.787.65 1.195.963 3.278-3.68 4.376-2.24 4.368-2.237 2.422-.978 3.772.763 3.234 1.646-.56-.644-1.48-.454-2.036.044 3.27.551 2.514 2.967 1.632 3.47 0-.693-.22-1.463-1.246-1.534.048 1.064-.664 1.25-1.347 1.276-1.62.067-4.331.146-5.158.957-.475.462-.248 1.816-.753 2.278-.349.31-.715.337-.965.339h-.147c-.082.499.066 1.06.697 1.723-2.355.197-4.124-1.89-2.956-3 .49-.469 2.144-2.04 2.222-2.717.11-.73-.653-1.541-1.18-2.018-1.142-1.016-2.366-1.924-3.563-2.866a8.667 8.667 0 00-1.176-.751 1.56 1.56 0 00-1.202-.13c-.904.282-.893.26-1.127.104-.89-.589-2.496-1.917-5.848-2.286.226.142.382.29.508.465.182.25.304.551.504.964.208.466.379.946.575 1.411 2.166 5.14 4.31 10.191 6.468 15.335.723 1.701.085 3.186-1.665 4.01-1.276.59-2.722.27-3.58-.965.25.852.368 1.586.016 2.293a3.049 3.049 0 01-1.617 1.519c-.694.308-1.52.42-2.28.271-.776-.16-1.291-.677-1.688-1.43-.067 1.676-1.165 2.904-2.985 2.904-1.821 0-2.919-1.228-2.986-2.903-.396.752-.912 1.27-1.687 1.43a3.892 3.892 0 01-2.28-.272c-.724-.306-1.276-.812-1.618-1.52-.344-.706-.23-1.44.015-2.292-.853 1.236-2.303 1.556-3.575.964-1.746-.823-2.384-2.308-1.668-4.009 2.158-5.144 4.301-10.195 6.467-15.335.197-.465.363-.945.582-1.41.193-.414.315-.715.497-.965.126-.175.282-.323.508-.465-3.348.369-4.958 1.697-5.848 2.286-.237.156-.222.178-1.127-.105a1.561 1.561 0 00-1.202.13c-.404.224-.82.473-1.172.752-1.205.942-2.429 1.85-3.563 2.866-.53.477-1.295 1.288-1.187 2.018.081.677 1.732 2.248 2.221 2.717 1.168 1.11-.597 3.197-2.955 3 .63-.662.775-1.224.697-1.723-.234-.004-.683.04-1.105-.339-.512-.462-.282-1.816-.753-2.278-.83-.811-3.542-.89-5.162-.957-.683-.026-1.395-.212-1.346-1.276-1.031.07-1.246.841-1.246 1.533-.883-.502-1.643-2.918 1.631-3.465-.552-.502-1.472-.692-2.04-.048-.53-.883.816-2.624 3.238-1.646-.004-.003 1.09-1.444 4.369 2.237.408-.312.82-.617 1.197-.964 1.265-1.16 4.462-4.299 4.462-4.299 0-1.764.263-5.177 2.58-7.228.99-.875 1.936-1.336 4.032-1.716 0 0-1.013-1.593-1.172-2.218-1.825 1.83-5.492 2.378-5.492-.715-2.99 3.004-5.767 1.385-5.767-.499-.093.92-.326 1.928-.638 2.8-.374 1.008-1.746 4.883-5.277 4.883-.081 1.347-.089 5.776-4.313 6.77-.178.045-.411.105-.526.246-1.706 2.129-8.797 4.366-9.664 3.763.552-.395 1.42-.92 1.557-3.42.09-1.653.267-10.21.267-22.274v-.267c.024-4.547.732-17.868 14.085-19.758 2.065-.29 4.097-.138 5.859 1.176 2.396 1.794 3.575 4.824 2.166 8.252-.045.123-.082.242-.145.35-.478.815-.285 1.522.338 2.148 1.138 1.131 2.462 1.898 4.057 2.084 1.008.116 1.839-.327 2.506-1.02 1.528-1.582 2.567-3.439 2.941-5.62.709-4.143-.393-6.22-.456-6.354-1.109-2.23-3.46-3.867-6.19-4.102-1.245-2.345-4.831-1.414-4.831-1.414-.901.197-1.217.454-1.443.897 0 0-1.572-2.405-.089-3.372 1.483-.964 4.802-1.363 4.802-1.363 0-1.567 2.582-2.784 7.247-1.95 5.637 1.012 6.85-1.202 6.85-1.202.233 2.71-1.83 4.109-2.49 4.485 2.137 2.33 5.13 6.986 5.842 13.593.708-6.607 3.704-11.263 5.844-13.593-.667-.376-2.726-1.776-2.492-4.485z"/></g></svg>