<svg width="21" height="21" fill="none" xmlns="http://www.w3.org/2000/svg"><mask id="a" style="mask-type:alpha" maskUnits="userSpaceOnUse" x="0" y="0" width="21" height="21"><path fill="#D9D9D9" d="M.5.069h20v20H.5z"/></mask><g mask="url(#a)"><path d="M13.75 17.07v-2.25H11.5v-1.5h2.25v-2.25h1.5v2.25h2.25v1.5h-2.25v2.25h-1.5zm-10.25-1v-1.5h6.042c.027.263.07.52.125.77.055.25.139.493.25.73H3.5zm0-3.5v-1.5h7.02a7.246 7.246 0 00-.447.718 4.07 4.07 0 00-.323.781H3.5zm0-3.5v-1.5h14v1.5h-14zm0-3.5v-1.5h14v1.5h-14z" fill="#8F96A3"/></g></svg>