<svg width="20" height="21" fill="none" xmlns="http://www.w3.org/2000/svg"><mask id="a" style="mask-type:alpha" maskUnits="userSpaceOnUse" x="0" y="0" width="20" height="21"><path fill="#D9D9D9" d="M0 .069h20v20H0z"/></mask><g mask="url(#a)" fill="#2AA65E"><path d="M13.674 15.743l2.407-2.418-.66-.627-1.739 1.78-.985-.947-.616.626 1.593 1.586zm.327 1.643c-.917 0-1.7-.324-2.347-.97a3.193 3.193 0 01-.97-2.346c0-.917.323-1.699.97-2.346a3.193 3.193 0 012.345-.97c.917 0 1.7.322 2.346.969.647.646.97 1.428.97 2.345 0 .918-.322 1.7-.969 2.347a3.193 3.193 0 01-2.345.97zM3 16.07v-1.5h6.042c.027.263.07.52.125.77.055.25.139.493.25.73H3zm0-3.5v-1.5h7.02a7.23 7.23 0 00-.447.718 4.07 4.07 0 00-.323.781H3zm0-3.5v-1.5h14v1.5H3zm0-3.5v-1.5h14v1.5H3z"/></g></svg>