<svg viewBox="0 0 94 47" xmlns="http://www.w3.org/2000/svg" xmlns:xlink="http://www.w3.org/1999/xlink"><defs><path id="a" d="M0 0h120.472v74.409H0z"/><path id="c" d="M0 0h120.472v74.409H0z"/><path id="e" d="M0 0h120.472v74.409H0z"/><path id="g" d="M0 0h120.472v74.409H0z"/><path id="i" d="M0 0h120.472v74.409H0z"/><path id="k" d="M0 0h120.472v74.409H0z"/><path id="m" d="M0 0h120.472v74.409H0z"/><path id="o" d="M0 0h120.472v74.409H0z"/><path id="q" d="M0 0h120.472v74.409H0z"/><path id="s" d="M0 0h120.472v74.409H0z"/><path id="u" d="M0 0h120.472v74.409H0z"/><path id="w" d="M0 0h120.472v74.409H0z"/><path id="y" d="M0 0h120.472v74.409H0z"/><path id="A" d="M0 0h120.472v74.409H0z"/></defs><g fill="none" fill-rule="evenodd"><g transform="translate(-13.516 -13.799)"><mask id="b" fill="#fff"><use xlink:href="#a"/></mask><path d="M15.343 49.661c.393 0 1.093-.043 1.356-.043 2.071 0 3.705.395 3.705 2.261 0 1.327-.847 2.071-2.333 2.581 2.085.438 2.669 1.401 2.669 2.655 0 2.146-1.825 3.108-4.144 3.108-.554 0-1.428-.044-1.867-.044-.19 0-.671.029-.874.044.087-1.606.117-3.823.117-5.66 0-1.648-.017-4.145-.117-4.945.365.015 1.254.043 1.488.043zm-.058 4.492c.161.015.423.031.772.031 1.621 0 2.859-.671 2.859-2.015 0-1.239-1.078-1.733-2.405-1.733-.337 0-.92.013-1.226.027v3.69zm0 5.223c.321.015.86.03 1.239.03 1.489 0 2.729-.628 2.729-2.305 0-1.313-.716-2.146-3.559-2.146h-.409v4.421z" fill="#595959" fill-rule="nonzero" mask="url(#b)"/></g><g transform="translate(-13.516 -13.799)"><mask id="d" fill="#fff"><use xlink:href="#c"/></mask><path d="M22.713 53.586c.831-.643 1.618-.891 2.494-.891 1.531 0 2.596.774 2.596 2.685v3.517c0 .83.161.918.467.918.102 0 .219-.016.307-.03l.086.365c-.568.205-.889.232-1.049.232-.482 0-.789-.218-.905-.641l-.087-.321c-.789.627-1.649.962-2.362.962-1.329 0-2.189-.698-2.189-1.925 0-1.312.889-1.925 2.041-2.13l1.765-.32c.497-.087.759-.233.759-.598 0-1.591-.671-2.144-1.78-2.144-.86 0-1.575.32-1.969 1.167h-.174v-.846zm3.924 2.873l-.963.146c-1.05.161-2.216.524-2.216 1.633 0 .847.466 1.298 1.413 1.298.585 0 1.168-.204 1.766-.831v-2.246z" fill="#595959" fill-rule="nonzero" mask="url(#d)"/></g><g transform="translate(-13.516 -13.799)"><mask id="f" fill="#fff"><use xlink:href="#e"/></mask><path d="M30.662 52.885c.161 0 .467-.029.686-.044-.03.249-.074.876-.074 1.139.482-.874 1.415-1.283 2.335-1.283 1.415 0 2.523.89 2.523 2.377 0 .366-.043.992-.043 1.459 0 .613.014 2.582.132 3.69a5.441 5.441 0 00-.672-.044c-.248 0-.539.016-.759.044.117-1.108.131-3.077.131-3.69 0-2.232-.671-3.004-1.808-3.004-1.78 0-1.896 1.808-1.896 3.193 0 .263.014 2.393.131 3.501a5.416 5.416 0 00-.672-.044c-.247 0-.539.016-.758.044.118-1.108.132-3.077.132-3.69 0-.744-.014-2.596-.132-3.691.248.013.569.043.744.043" fill="#595959" mask="url(#f)"/></g><g transform="translate(-13.516 -13.799)"><mask id="h" fill="#fff"><use xlink:href="#g"/></mask><path d="M38.948 48.771c.159 0 .466-.028.685-.044-.117 1.108-.131 3.225-.131 4.377v2.945h.233c.482 0 2.947-2.8 3.181-3.209.203.015.539.044.714.044.146 0 .496-.029.714-.044l-3.485 3.122a183.09 183.09 0 003.807 4.26c-.394-.03-.671-.044-.876-.044-.262 0-.656.014-.963.044-.539-.847-2.188-2.786-3.092-3.778h-.233c0 .539.014 2.67.131 3.778a5.052 5.052 0 00-.671-.044c-.248 0-.54.014-.758.044.117-1.108.132-3.239.132-4.376v-2.742c0-1.152-.015-3.269-.132-4.377.247.016.567.044.744.044" fill="#595959" mask="url(#h)"/></g><g transform="translate(-13.516 -13.799)"><mask id="j" fill="#fff"><use xlink:href="#i"/></mask><path d="M56.455 56.487c0 2.231-1.444 3.895-3.734 3.895-2.245 0-3.647-1.646-3.647-3.689 0-2.421 1.547-3.997 3.779-3.997 2.216-.001 3.602 1.604 3.602 3.791m-5.995.161c0 1.647.687 3.166 2.232 3.166 1.488 0 2.377-1.431 2.377-3.385 0-1.575-.612-3.165-2.26-3.165-1.576.001-2.349 1.649-2.349 3.384" fill="#595959" fill-rule="nonzero" mask="url(#j)"/></g><g transform="translate(-13.516 -13.799)"><mask id="l" fill="#fff"><use xlink:href="#k"/></mask><path d="M61.618 49.355c0 .146.03.438.044.687-.467-.177-.715-.22-.904-.22-.83 0-1.269.438-1.269 1.299 0 .336.029.977.131 1.765.423 0 1.123-.059 1.603-.118a6.64 6.64 0 00-.028.468c0 .132.016.308.028.424a11.033 11.033 0 00-1.196-.116h-.436v2.304c0 1.137.014 3.268.13 4.376a5.037 5.037 0 00-.67-.044c-.248 0-.539.014-.759.044.118-1.108.132-3.239.132-4.376v-2.304h-.248c-.132 0-.335.013-.774.116.03-.146.045-.365.045-.438a3.21 3.21 0 00-.045-.453c.321.104.541.118.774.118h.248c0-2.364 1.62-4.229 2.831-4.229.188 0 .304.013.407.044-.014.2-.044.537-.044.653" fill="#595959" mask="url(#l)"/></g><g transform="translate(-13.516 -13.799)"><mask id="n" fill="#fff"><use xlink:href="#m"/></mask><path d="M68.604 49.661c.395 0 1.458-.043 2.013-.043 1.868 0 3.064.818 3.064 2.407 0 1.429-1.051 2.669-3.137 2.887 2.714 3.472 3.282 4.159 4.304 5.311a12.556 12.556 0 00-1.021-.044c-.32 0-.671.015-.963.044-1.036-1.518-2.786-3.75-3.967-5.15h-.526c0 1.751.016 3.545.117 5.15a6.427 6.427 0 00-.744-.044c-.262 0-.567.015-.802.044.087-1.605.117-3.821.117-5.659 0-1.648-.016-4.145-.117-4.945.423.028 1.314.042 1.662.042zm-.233 4.639h.482c1.386 0 3.252-.35 3.252-2.113 0-1.095-.845-1.75-2.539-1.75-.496 0-.99.013-1.195.043v3.82z" fill="#595959" fill-rule="nonzero" mask="url(#n)"/></g><g transform="translate(-13.516 -13.799)"><mask id="p" fill="#fff"><use xlink:href="#o"/></mask><path d="M76.729 52.885c.159 0 .469-.029.687-.044-.118 1.109-.132 3.079-.132 3.691 0 2.231.672 3.019 1.808 3.019 1.782 0 1.898-1.822 1.898-3.208 0-.263-.016-2.393-.132-3.502.247.015.567.044.744.044.16 0 .466-.029.685-.044-.117 1.096-.131 2.934-.131 3.691 0 .613.014 2.582.131 3.69a5.4 5.4 0 00-.671-.044c-.248 0-.539.016-.758.044.028-.249.071-.876.071-1.138-.48.874-1.413 1.298-2.333 1.298-1.415 0-2.522-.903-2.522-2.393 0-.365.043-.991.043-1.458 0-.612-.015-2.582-.131-3.691.247.015.568.045.743.045" fill="#595959" mask="url(#p)"/></g><g transform="translate(-13.516 -13.799)"><mask id="r" fill="#fff"><use xlink:href="#q"/></mask><path d="M87.801 54.256c-.452-.802-.979-.99-1.504-.99-.699 0-1.24.466-1.24 1.194 0 .905.76 1.271 1.592 1.475 1.269.32 1.998.715 1.998 1.983 0 1.4-1.356 2.465-2.815 2.465-.745 0-1.4-.204-1.925-.599a8.27 8.27 0 00.466-1.064c.555.905 1.124 1.096 1.737 1.096.845 0 1.515-.497 1.515-1.345 0-.962-.802-1.209-1.719-1.456-1.14-.309-1.869-.877-1.869-2.059 0-1.37 1.007-2.261 2.479-2.261.774 0 1.226.176 1.723.496a9.822 9.822 0 00-.438 1.065" fill="#595959" mask="url(#r)"/></g><g transform="translate(-13.516 -13.799)"><mask id="t" fill="#fff"><use xlink:href="#s"/></mask><path d="M93.794 54.256c-.45-.802-.977-.99-1.502-.99-.699 0-1.239.466-1.239 1.194 0 .905.76 1.271 1.592 1.475 1.268.32 1.998.715 1.998 1.983 0 1.4-1.358 2.465-2.816 2.465-.744 0-1.399-.204-1.926-.599a8 8 0 00.466-1.064c.556.905 1.124 1.096 1.737 1.096.847 0 1.517-.497 1.517-1.345 0-.962-.803-1.209-1.722-1.456-1.137-.309-1.867-.877-1.867-2.059 0-1.37 1.007-2.261 2.48-2.261.772 0 1.225.176 1.721.496-.146.307-.321.715-.439 1.065" fill="#595959" mask="url(#t)"/></g><g transform="translate(-13.516 -13.799)"><mask id="v" fill="#fff"><use xlink:href="#u"/></mask><path d="M98.156 50.129c0 .466-.292.801-.788.801-.496 0-.787-.335-.787-.801 0-.438.321-.772.787-.772.496-.001.788.247.788.772m-.788 2.756c.16 0 .468-.029.688-.044-.117 1.096-.132 2.934-.132 3.691 0 .613.015 2.582.132 3.69a5.441 5.441 0 00-.672-.044c-.247 0-.54.016-.76.044.117-1.108.133-3.077.133-3.69 0-.744-.016-2.596-.133-3.691.248.014.568.044.744.044" fill="#595959" fill-rule="nonzero" mask="url(#v)"/></g><g transform="translate(-13.516 -13.799)"><mask id="x" fill="#fff"><use xlink:href="#w"/></mask><path d="M100.665 53.586c.831-.643 1.618-.891 2.495-.891 1.532 0 2.596.774 2.596 2.685v3.517c0 .83.16.918.468.918.101 0 .22-.016.306-.03l.087.365c-.57.205-.89.232-1.05.232-.482 0-.787-.218-.905-.641l-.087-.321c-.787.627-1.647.962-2.363.962-1.327 0-2.188-.698-2.188-1.925 0-1.312.89-1.925 2.043-2.13l1.764-.32c.496-.087.759-.233.759-.598 0-1.591-.672-2.144-1.778-2.144-.861 0-1.575.32-1.971 1.167h-.175v-.846h-.001zm3.924 2.873l-.962.146c-1.052.161-2.218.524-2.218 1.633 0 .847.467 1.298 1.415 1.298.583 0 1.166-.204 1.765-.831v-2.246z" fill="#595959" fill-rule="nonzero" mask="url(#x)"/></g><g transform="translate(-13.516 -13.799)"><mask id="z" fill="#fff"><use xlink:href="#y"/></mask><path d="M60.234 14.173c-7.826 0-14.172 6.346-14.172 14.173 0 7.828 6.346 14.174 14.172 14.174 7.831 0 14.176-6.346 14.176-14.174 0-7.827-6.345-14.173-14.176-14.173m0 27.251c-7.223 0-13.077-5.855-13.077-13.078 0-7.224 5.854-13.078 13.077-13.078 7.225 0 13.081 5.854 13.081 13.078 0 7.223-5.856 13.078-13.081 13.078" fill="#595959" fill-rule="nonzero" mask="url(#z)"/></g><g transform="translate(-13.516 -13.799)"><mask id="B" fill="#fff"><use xlink:href="#A"/></mask><path d="M60.234 38.976c.491 0 .787-.33.805-.78.107.202.246.341.455.384.205.04.428.01.615-.073a.82.82 0 00.436-.408c.095-.19.063-.387-.004-.616a.755.755 0 00.965.259c.472-.221.644-.62.449-1.077-.582-1.382-1.16-2.739-1.744-4.12-.053-.125-.099-.254-.155-.379-.054-.111-.087-.192-.136-.259a.465.465 0 00-.137-.125c.904.099 1.337.456 1.577.614.063.042.06.048.304-.028a.422.422 0 01.324.035c.11.06.221.127.317.202.323.253.653.497.961.77.142.128.348.346.318.542-.021.182-.467.604-.599.73-.315.298.162.859.797.806-.17-.178-.21-.329-.188-.463.063-.001.185.011.3-.091.136-.124.075-.488.203-.612.223-.218.954-.239 1.391-.257.184-.007.376-.057.363-.343.277.019.336.226.336.412.238-.135.442-.784-.44-.931v-.001c.15-.134.398-.185.549-.012.145-.237-.219-.705-.872-.442.002-.001-.294-.388-1.178.601-.11-.084-.221-.166-.322-.259a73.912 73.912 0 01-1.202-1.155c0-.474-.071-1.391-.697-1.942-.268-.235-.522-.359-1.086-.461 0 0 .271-.428.314-.596.492.492 1.481.639 1.481-.192.806.807 1.555.372 1.555-.134.026.247.088.518.172.752.103.271.472 1.312 1.424 1.312.021.362.023 1.552 1.162 1.819.05.012.111.028.144.066.46.572 2.371 1.173 2.604 1.011-.147-.106-.383-.247-.42-.919-.022-.444-.072-2.743-.072-5.984 0-1.146-.122-4.862-3.797-5.38-.558-.078-1.104-.037-1.58.316-.646.482-.965 1.296-.584 2.217.013.033.021.065.039.094.129.219.076.409-.092.577-.306.304-.664.51-1.094.56-.271.031-.496-.088-.675-.274-.412-.425-.703-.922-.793-1.51-.175-1.118.104-1.671.122-1.707.299-.599.933-1.039 1.669-1.102.337-.63 1.303-.38 1.303-.38.243.053.328.122.388.241 0 0 .425-.646.025-.906-.4-.259-1.294-.366-1.294-.366 0-.421-.697-.748-1.955-.524-1.521.272-1.847-.323-1.847-.323-.063.728.492 1.104.672 1.205-.577.626-1.385 1.877-1.576 3.652-.192-1.775-.999-3.026-1.575-3.652.178-.101.734-.477.671-1.205 0 0-.327.595-1.847.323-1.258-.224-1.954.103-1.954.524 0 0-.895.107-1.295.366-.4.26.024.906.024.906.061-.119.146-.188.389-.241 0 0 .967-.25 1.303.38.736.063 1.37.503 1.669 1.102.017.036.314.594.123 1.707-.101.586-.381 1.085-.793 1.51-.18.186-.404.305-.676.274-.43-.05-.787-.256-1.094-.56-.168-.168-.22-.358-.091-.577.017-.029.027-.061.039-.094.38-.921.062-1.735-.584-2.217-.475-.353-1.023-.394-1.58-.316-3.674.518-3.798 4.234-3.798 5.38 0 3.241-.048 5.54-.072 5.984-.037.672-.271.813-.42.919.234.162 2.146-.439 2.606-1.011.031-.038.094-.054.142-.066 1.139-.267 1.141-1.457 1.163-1.819.952 0 1.322-1.041 1.423-1.312.084-.234.147-.505.172-.752 0 .506.749.941 1.555.134 0 .831.989.684 1.481.192.043.168.316.596.316.596-.565.102-.82.226-1.087.461-.625.551-.696 1.468-.696 1.942 0 0-.862.843-1.203 1.155-.102.093-.213.175-.323.259-.884-.989-1.179-.602-1.178-.601-.653-.263-1.016.205-.873.442.153-.173.401-.122.55.012v.001c-.883.147-.678.796-.44.931 0-.186.058-.393.336-.412-.013.286.179.336.363.343.437.018 1.168.039 1.392.257.127.124.065.488.203.612.114.102.235.09.298.091.021.134-.018.285-.188.463.636.053 1.112-.508.797-.806-.132-.126-.577-.548-.599-.73-.029-.196.177-.414.32-.542.306-.273.636-.517.961-.77.095-.075.207-.142.316-.202a.422.422 0 01.324-.035c.244.076.24.07.304.028.24-.158.674-.515 1.577-.614a.465.465 0 00-.137.125c-.049.067-.082.148-.134.259-.059.125-.104.254-.157.379-.584 1.381-1.162 2.738-1.744 4.12-.193.457-.021.856.45 1.077a.754.754 0 00.964-.259c-.066.229-.097.426-.004.616.092.19.241.326.436.408.188.083.41.113.615.073.209-.043.348-.182.455-.384.018.45.314.78.805.78" fill="#595959" mask="url(#B)"/></g></g></svg>