<svg xmlns="http://www.w3.org/2000/svg" width="160" height="40"><path fill="#FFF" fill-rule="evenodd" d="M20.026 0c11.065 0 20.031 8.955 20.031 20s-8.966 20-20.031 20C8.966 40 0 31.045 0 20S8.967 0 20.026 0zm0 1.545C9.82 1.545 1.549 9.806 1.549 20c0 10.192 8.27 18.455 18.477 18.455 10.21 0 18.483-8.263 18.483-18.455 0-10.194-8.274-18.455-18.483-18.455zm1.213 4.919s.438.792 2.477.43c1.686-.299 2.62.137 2.62.697 0 0 1.199.142 1.736.488.536.345-.033 1.205-.033 1.205-.081-.159-.196-.25-.52-.32 0 0-1.297-.333-1.749.506-.987.083-1.837.669-2.238 1.466-.022.047-.397.785-.164 2.272.122.782.51 1.444 1.064 2.01.24.248.542.406.905.365.577-.066 1.056-.34 1.467-.746.225-.224.296-.476.123-.767-.023-.04-.036-.082-.052-.126-.51-1.226-.084-2.309.783-2.951.636-.47 1.372-.524 2.119-.42 4.926.69 5.092 5.635 5.092 7.16v.378c.003 4.114.066 7.014.096 7.587.05.895.364 1.082.563 1.224-.314.216-2.877-.585-3.494-1.346-.04-.05-.125-.073-.19-.088-1.528-.355-1.53-1.938-1.559-2.42-1.278 0-1.773-1.386-1.91-1.748a4.373 4.373 0 01-.23-1c0 .674-1.004 1.252-2.085.179 0 1.105-1.325.91-1.985.254-.058.224-.424.794-.424.794.757.135 1.099.3 1.457.614.838.733.934 1.954.934 2.585 0 0 1.155 1.121 1.613 1.536.136.125.285.235.433.346 1.185-1.317 1.581-.802 1.58-.8.875-.35 1.361.272 1.17.588-.205-.23-.537-.163-.737.017 1.184.196.91 1.06.589 1.24 0-.249-.078-.524-.45-.549.018.38-.24.447-.486.457-.586.024-1.567.051-1.867.342-.17.165-.088.65-.272.814-.153.137-.315.12-.4.122-.029.177.025.379.252.615-.853.071-1.492-.675-1.069-1.073.177-.167.774-.728.803-.97.04-.262-.237-.552-.428-.721-.412-.364-.854-.69-1.289-1.026a3.232 3.232 0 00-.424-.269.575.575 0 00-.435-.047c-.327.102-.322.094-.407.038-.321-.211-.903-.686-2.115-.818a.638.638 0 01.184.166c.066.09.11.198.18.345.078.166.139.338.21.505.782 1.838 1.558 3.644 2.338 5.484.26.608.029 1.14-.602 1.433-.461.214-.985.1-1.294-.343.09.305.131.566.005.82a1.102 1.102 0 01-.584.544c-.251.11-.55.15-.825.095-.28-.056-.466-.24-.61-.51-.024.6-.421 1.04-1.079 1.04-.658 0-1.056-.44-1.08-1.04-.143.27-.33.454-.61.51a1.408 1.408 0 01-.824-.095 1.104 1.104 0 01-.585-.545c-.125-.253-.083-.514.006-.819-.31.442-.833.557-1.294.343-.631-.292-.862-.825-.602-1.433.78-1.84 1.555-3.646 2.338-5.484.071-.167.131-.339.21-.505.07-.147.114-.255.18-.345a.631.631 0 01.184-.166c-1.212.132-1.794.607-2.115.818-.085.056-.08.064-.407-.038a.575.575 0 00-.435.047c-.146.08-.296.17-.424.269-.435.337-.878.662-1.289 1.026-.191.169-.467.459-.429.72.03.243.626.804.804.971.423.398-.216 1.144-1.069 1.073.227-.236.28-.438.252-.615-.085-.002-.247.015-.4-.122-.184-.164-.102-.65-.272-.814-.3-.29-1.281-.318-1.867-.342-.246-.01-.504-.076-.486-.457-.372.025-.45.3-.45.549-.32-.18-.595-1.044.59-1.24-.2-.18-.533-.247-.737-.017-.193-.316.294-.939 1.17-.588-.003-.002.394-.517 1.579.8.148-.111.297-.221.433-.346.458-.415 1.613-1.536 1.613-1.536 0-.63.095-1.852.934-2.585.358-.313.7-.479 1.457-.614 0 0-.366-.57-.424-.794-.66.655-1.985.851-1.985-.254-1.081 1.073-2.085.495-2.085-.18-.034.33-.118.69-.23 1.001-.137.362-.632 1.747-1.91 1.747-.03.483-.031 2.066-1.558 2.42-.066.016-.15.038-.191.09-.617.76-3.18 1.56-3.494 1.345.199-.142.513-.33.563-1.224.031-.59.096-3.651.096-7.964v-.092c.009-1.623.26-6.393 5.092-7.069.747-.104 1.482-.05 2.12.42.866.642 1.293 1.725.782 2.95-.016.045-.029.088-.052.127-.173.291-.102.543.123.767.411.405.89.68 1.467.746.364.041.665-.117.905-.365.553-.566.929-1.23 1.064-2.01.257-1.481-.142-2.225-.164-2.272-.4-.797-1.251-1.383-2.238-1.466-.452-.839-1.748-.506-1.748-.506-.325.07-.44.161-.52.32 0 0-.57-.86-.034-1.205.537-.346 1.737-.488 1.737-.488 0-.56.933-.996 2.62-.697 2.038.362 2.476-.43 2.476-.43.086.969-.66 1.468-.899 1.603.773.834 1.854 2.499 2.112 4.862.258-2.363 1.339-4.028 2.112-4.862-.239-.135-.985-.634-.9-1.603zm113.312 9.705c1.027 0 2.155.196 3.42.868l-.5 1.479h-.234c-.69-1.125-1.659-1.58-2.745-1.58-2.317 0-3.424 2.232-3.424 4.403 0 2.508 1.39 4.461 3.838 4.461.807 0 1.541-.116 2.686-1.361l.176.217-.234.967c-.949.634-2.018.95-3.242.95-3.083 0-5.1-2.153-5.1-5.194 0-3.179 2.176-5.21 5.36-5.21zm-69.524 0c2.076 0 3.517 1.024 3.517 3.492v4.896c0 1.008.217 1.244.631 1.244a1.8 1.8 0 00.476-.08l.117.476a3.52 3.52 0 01-1.482.375c-.652 0-1.066-.296-1.225-.87l-.117-.432c-1.069.849-2.234 1.302-3.203 1.302-1.8 0-2.97-.948-2.97-2.607 0-1.777 1.328-2.607 3.145-2.94l2.014-.376c.676-.119 1.035-.317 1.035-.81 0-2.152-.91-2.704-2.414-2.704-1.165 0-2.038.335-2.669 1.62h-.238v-1.226c.773-.947 2.193-1.36 3.383-1.36zm59.537 0c1.032 0 2.156.196 3.421.868l-.493 1.479h-.238c-.693-1.125-1.658-1.58-2.748-1.58-2.314 0-3.421 2.232-3.421 4.403 0 2.508 1.383 4.461 3.835 4.461.813 0 1.544-.116 2.69-1.361l.178.217-.238.967c-.951.634-2.013.95-3.241.95-3.086 0-5.103-2.153-5.103-5.194 0-3.179 2.176-5.21 5.358-5.21zm-11.648 0c3.007 0 4.886 2.17 4.886 5.13 0 3.022-1.962 5.273-5.062 5.273-3.045 0-4.945-2.23-4.945-4.995 0-3.277 2.096-5.409 5.121-5.409zM58.526 12a6.28 6.28 0 00-.058.71c0 .14.041.456.059.673-1.148-.159-3.045-.276-3.635-.276-.414 0-2.017.038-2.886.117v4.958h1.007c2.059 0 6.39.394 6.39 3.967 0 2.901-2.435 4.225-5.635 4.206-.359 0-1.7-.059-2.555-.059a10.3 10.3 0 00-1.145.06c.111-2.007.152-4.718.158-7.08v-1.139c-.003-2.2-.028-5.137-.158-6.137 1.266.06 3.359.178 3.818.178 1.103 0 3.355-.099 4.64-.178zM160 16.365c-.146 1.393-.173 3.678-.176 4.797v.196c0 .83.02 3.496.176 4.997a7.092 7.092 0 00-.91-.059c-.335 0-.732.02-1.025.059.159-1.501.176-4.167.176-4.997 0-1.026-.017-2.288-.038-2.705-1.345 1.364-4.907 6.023-6.035 7.702a2.54 2.54 0 00-.568-.059c-.121 0-.476.038-.632.059.148-1.426.174-3.903.176-4.859v-.138c0-1.007-.02-3.513-.176-4.993.335.019.766.058 1.004.058.217 0 .635-.04.931-.058-.158 1.48-.176 3.967-.176 4.993 0 .83.018 1.994.038 2.547 1.086-1.32 4.959-6.237 5.89-7.54.217.038.355.058.593.058.117 0 .535-.04.752-.058zm-79.852 0c-.15 1.394-.177 3.678-.18 4.798v.195c0 .83.021 3.495.18 4.997a7.046 7.046 0 00-.91-.058c-.335 0-.731.019-1.024.058.154-1.502.176-4.167.176-4.797-.87-.062-2.056-.14-2.51-.14-.539 0-1.86.038-2.653.099v.23c.005.916.035 3.243.18 4.608a7.075 7.075 0 00-.911-.058 8.54 8.54 0 00-1.028.058c.148-1.426.174-3.903.176-4.859v-.138c0-1.007-.02-3.512-.176-4.993.335.02.773.058 1.01.058.218 0 .632-.039.928-.058-.158 1.498-.179 3.986-.179 4.086.831.04 2.034.08 2.672.08a49.4 49.4 0 002.49-.08v-.068c-.004-.428-.033-2.651-.175-4.018.33.02.768.058 1.003.058.22 0 .634-.039.931-.058zm11.01 0l-4.723 4.225c.596.71 3.734 4.244 5.158 5.765-.53-.04-.907-.058-1.183-.058-.359 0-.893.019-1.307.058-.73-1.145-2.965-3.77-4.19-5.115h-.316c0 .731.017 3.613.171 5.115a6.937 6.937 0 00-.906-.058 8.69 8.69 0 00-1.028.058c.162-1.502.183-4.167.183-4.997 0-1.007-.02-3.512-.183-4.993.338.02.773.058 1.01.058.214 0 .632-.039.924-.058-.154 1.48-.171 3.986-.171 4.344h.316c.653 0 3.994-3.793 4.311-4.344.276.02.728.058.966.058.2 0 .675-.039.968-.058zM102.423 12c3.658 0 5.082 1.107 5.082 3.593 0 3.22-2.71 4.246-5.927 4.246-.18 0-.935-.04-1.31-.079v3.415c0 .987.04 2.192.162 3.18a9.583 9.583 0 00-2.1 0c.12-2.173.161-5.174.161-7.662 0-2.23-.02-5.607-.162-6.693.656.02 1.545.06 2 .06.69 0 1.583-.06 2.094-.06zm46.383 4.365c-.152 1.393-.18 3.678-.182 4.797v.196c0 .83.02 3.496.182 4.997-.3-.04-.617-.059-.91-.059-.338 0-.731.02-1.03.059.15-1.426.176-3.903.178-4.859v-.138c0-1.026-.02-2.288-.038-2.705-1.348 1.364-4.907 6.023-6.03 7.702a2.597 2.597 0 00-.573-.059 7.78 7.78 0 00-.635.059c.15-1.426.177-3.903.18-4.859v-.138c0-1.007-.021-3.513-.18-4.993.338.019.77.058 1.007.058.217 0 .631-.04.931-.058-.149 1.393-.173 3.678-.175 4.797v.196c0 .83.017 1.994.037 2.547 1.087-1.32 4.963-6.237 5.894-7.54.213.038.351.058.59.058.116 0 .53-.04.754-.058zm-35.949.571c-2.134 0-3.183 2.232-3.183 4.58 0 2.232.931 4.284 3.024 4.284 2.018 0 3.225-1.935 3.225-4.58 0-2.131-.831-4.284-3.066-4.284zM66.965 21.26l-1.307.197c-1.424.218-3.007.71-3.007 2.214 0 1.143.635 1.756 1.917 1.756.794 0 1.583-.277 2.397-1.124V21.26zm-14.96-2.033v5.983c.515.019 1.125.04 1.68.04 2.335 0 3.694-1.089 3.694-3.12 0-2.192-1.618-2.903-5.373-2.903zm50.024-6.12c-.334 0-1.482.02-1.762.059v5.546c.242.043.635.08.831.08 2.77 0 4.393-1.105 4.393-3.199 0-1.954-1.544-2.486-3.462-2.486z"/></svg>