<svg xmlns="http://www.w3.org/2000/svg" width="427" height="190"><g fill="none" fill-rule="evenodd"><rect width="426" height="189" x=".5" y=".5" stroke="#E8E9EB" rx="4"/><path fill="#595959" fill-rule="nonzero" d="M79.52 70c21.837 0 39.534 17.91 39.534 39.999 0 22.09-17.697 40.001-39.534 40.001C57.698 150 40 132.09 40 109.999 40 87.91 57.698 70 79.52 70zm0 3.09c-20.14 0-36.463 16.523-36.463 36.909s16.322 36.91 36.463 36.91c20.15 0 36.478-16.524 36.478-36.91 0-20.386-16.329-36.909-36.478-36.909zm2.521 8.171s.912 1.677 5.154.912c3.508-.635 5.447.29 5.447 1.479 0 0 2.495.302 3.611 1.033 1.116.73-.067 2.557-.067 2.557-.17-.336-.41-.534-1.082-.683 0 0-2.7-.703-3.637 1.075-2.052.178-3.82 1.42-4.654 3.11-.045.1-.826 1.663-.343 4.818.256 1.657 1.062 3.062 2.211 4.26.502.524 1.127.86 1.886.772 1.199-.14 2.194-.722 3.05-1.58.47-.471.614-1.008.254-1.626-.047-.082-.075-.175-.108-.268-1.06-2.596-.173-4.894 1.628-6.254 1.325-.997 2.856-1.115 4.407-.892 10.246 1.462 10.589 11.947 10.589 15.181v.48c.004 8.894.138 15.181.203 16.41.103 1.896.756 2.294 1.172 2.593-.656.457-5.985-1.242-7.268-2.853-.084-.107-.262-.153-.396-.19-3.177-.747-3.182-4.109-3.243-5.128-2.658 0-3.687-2.938-3.969-3.702a9.36 9.36 0 01-.48-2.123c0 1.431-2.086 2.659-4.336.378 0 2.346-2.756 1.93-4.128.542-.12.474-.884 1.682-.884 1.682 1.579.291 2.287.641 3.032 1.301 1.743 1.553 1.94 4.144 1.94 5.481 0 0 2.405 2.377 3.356 3.257.284.266.59.497.903.734 2.463-2.794 3.285-1.704 3.28-1.696 1.824-.745 2.836.573 2.437 1.245-.426-.489-1.118-.345-1.53.034 2.459.42 1.887 2.249 1.22 2.633 0-.525-.158-1.11-.936-1.163.039.807-.5.948-1.01.968-1.219.054-3.257.11-3.882.725-.354.35-.181 1.378-.566 1.728a.992.992 0 01-.692.256h-.139c-.059.379.053.805.524 1.307-1.773.147-3.1-1.433-2.222-2.277.37-.353 1.609-1.541 1.673-2.06.078-.551-.497-1.17-.895-1.528-.854-.77-1.774-1.459-2.68-2.173a6.762 6.762 0 00-.882-.57 1.164 1.164 0 00-.903-.099c-.68.215-.67.198-.848.08-.667-.447-1.88-1.451-4.398-1.734.17.108.287.22.385.353.134.192.229.42.37.731.165.353.29.714.439 1.067 1.628 3.9 3.24 7.73 4.863 11.631.539 1.29.059 2.419-1.255 3.04-.956.451-2.047.209-2.688-.728.184.643.27 1.2.011 1.735-.256.537-.672.92-1.216 1.155a2.881 2.881 0 01-1.715.2c-.583-.118-.97-.508-1.269-1.08-.05 1.272-.876 2.203-2.245 2.203-1.366 0-2.195-.931-2.245-2.204-.298.573-.686.963-1.269 1.081a2.883 2.883 0 01-1.715-.2 2.31 2.31 0 01-1.213-1.155c-.262-.536-.173-1.09.011-1.735-.641.937-1.732 1.18-2.691.728-1.31-.621-1.79-1.75-1.252-3.04 1.62-3.9 3.235-7.73 4.86-11.63.149-.354.277-.715.439-1.068.145-.313.24-.542.373-.73.098-.133.215-.246.382-.354-2.518.28-3.728 1.287-4.395 1.733-.178.119-.17.136-.848-.079a1.164 1.164 0 00-.903.1 6.48 6.48 0 00-.881.57c-.907.713-1.827 1.405-2.68 2.172-.402.359-.974.977-.896 1.527.064.517 1.303 1.708 1.674 2.06.878.845-.45 2.428-2.223 2.278.471-.502.583-.928.524-1.306-.178-.003-.516.03-.83-.257-.386-.35-.213-1.378-.567-1.728-.625-.615-2.663-.671-3.885-.725-.51-.02-1.048-.16-1.01-.968-.775.05-.934.635-.934 1.163-.666-.384-1.24-2.216 1.222-2.633-.413-.379-1.104-.523-1.531-.034-.399-.672.613-1.99 2.437-1.245-.005-.008.815-1.095 3.28 1.696.31-.237.619-.468.903-.734.951-.877 3.355-3.257 3.355-3.257 0-1.335.198-3.925 1.941-5.48.745-.661 1.453-1.011 3.032-1.302 0 0-.764-1.208-.884-1.682-1.372 1.392-4.128 1.804-4.128-.542-2.25 2.278-4.336 1.053-4.336-.378a9.36 9.36 0 01-.48 2.123c-.282.764-1.31 3.702-3.968 3.702-.062 1.02-.067 4.378-3.244 5.129-.134.034-.312.082-.396.189-1.283 1.614-6.612 3.31-7.267 2.853.415-.302 1.068-.697 1.17-2.594.068-1.25.204-7.741.204-16.889v-.117c.01-3.362.464-13.62 10.587-15.064 1.553-.223 3.084-.105 4.409.892 1.801 1.36 2.688 3.658 1.629 6.254-.034.093-.062.186-.112.268-.357.618-.212 1.155.257 1.626.856.858 1.851 1.44 3.05 1.58.756.088 1.384-.248 1.883-.773 1.152-1.197 1.93-2.605 2.214-4.259.533-3.141-.298-4.719-.343-4.818-.834-1.69-2.602-2.932-4.654-3.11-.94-1.778-3.637-1.075-3.637-1.075-.675.15-.912.347-1.082.683 0 0-1.182-1.826-.067-2.557 1.116-.731 3.612-1.033 3.612-1.033 0-1.188 1.938-2.114 5.446-1.48 4.242.766 5.151-.91 5.151-.91.176 2.054-1.372 3.112-1.868 3.4 1.606 1.767 3.857 5.298 4.39 10.307.535-5.01 2.785-8.54 4.392-10.307-.497-.288-2.047-1.346-1.872-3.4zm295.709 22.751c4.105 0 6.946 2.095 6.946 7.268v9.525c0 2.25.43 2.49 1.25 2.49.273 0 .588-.043.82-.085l.234.994c-1.525.55-2.382.632-2.814.632-1.283 0-2.103-.593-2.418-1.739l-.234-.866c-2.106 1.693-4.41 2.605-6.328 2.605-3.547 0-5.856-1.897-5.856-5.216 0-3.556 2.381-5.216 5.468-5.769l4.722-.872c1.327-.237 2.03-.63 2.03-1.617 0-4.307-1.796-5.806-4.76-5.806-2.301 0-4.217.87-5.271 3.161h-.471v-2.294c2.23-1.739 4.336-2.41 6.682-2.41zm-208.628 0c4.096 0 6.947 2.095 6.947 7.268v9.525c0 2.25.426 2.49 1.249 2.49.273 0 .583-.043.82-.085l.231.994c-1.52.55-2.378.632-2.808.632-1.288 0-2.108-.593-2.42-1.739l-.235-.866c-2.111 1.693-4.415 2.605-6.322 2.605-3.556 0-5.86-1.897-5.86-5.216 0-3.556 2.382-5.216 5.464-5.769l4.724-.872c1.33-.237 2.033-.63 2.033-1.617 0-4.307-1.799-5.806-4.766-5.806-2.3 0-4.217.87-5.268 3.161h-.468v-2.294c2.225-1.739 4.333-2.41 6.679-2.41zm164.085.003c2.069 0 3.28.474 4.604 1.34-.388.83-.856 1.934-1.168 2.882-1.21-2.173-2.616-2.684-4.025-2.684-1.874 0-3.316 1.262-3.316 3.238 0 2.45 2.03 3.437 4.256 3.993 3.397.872 5.349 1.936 5.349 5.374 0 3.79-3.631 6.675-7.535 6.675-1.992 0-3.746-.553-5.154-1.62.43-.788.976-2.094 1.247-2.882 1.483 2.453 3.009 2.967 4.646 2.967 2.264 0 4.057-1.35 4.057-3.638 0-2.608-2.144-3.277-4.601-3.952-3.048-.827-5-2.37-5-5.568 0-3.715 2.7-6.125 6.64-6.125zm-90.101-.003c5.932 0 9.64 4.344 9.64 10.27 0 6.046-3.862 10.551-9.991 10.551-6.008 0-9.761-4.462-9.761-9.994 0-6.56 4.138-10.827 10.112-10.827zm106.148.003c2.063 0 3.276.474 4.601 1.34-.388.83-.856 1.934-1.171 2.882-1.21-2.173-2.613-2.684-4.016-2.684-1.877 0-3.322 1.262-3.322 3.238 0 2.45 2.033 3.437 4.259 3.993 3.394.872 5.346 1.936 5.346 5.374 0 3.79-3.634 6.675-7.535 6.675-1.992 0-3.746-.553-5.154-1.62.43-.788.976-2.094 1.247-2.882 1.486 2.453 3.009 2.967 4.649 2.967 2.264 0 4.06-1.35 4.06-3.638 0-2.608-2.147-3.277-4.604-3.952-3.051-.827-4.998-2.37-4.998-5.568 0-3.715 2.691-6.125 6.638-6.125zm-27.373.392c-.312 2.967-.351 7.94-.351 9.997 0 1.66.039 6.994.351 9.997a13.723 13.723 0 00-1.798-.121c-.661 0-1.445.042-2.028.121.075-.674.193-2.373.193-3.082-1.289 2.368-3.785 3.514-6.247 3.514-3.782 0-6.752-2.447-6.752-6.483 0-.985.114-2.681.114-3.946 0-1.66-.039-6.994-.348-9.997.672.037 1.525.119 1.996.119.427 0 1.25-.079 1.835-.119-.315 3.003-.354 8.338-.354 9.997 0 6.046 1.8 8.174 4.844 8.174 4.764 0 5.073-4.94 5.073-8.69 0-.711-.042-6.478-.351-9.48.66.039 1.52.118 1.991.118.43 0 1.247-.079 1.832-.119zm-31.226-8.73c4.998 0 8.2 2.214 8.2 6.518 0 3.872-2.815 7.23-8.398 7.82 7.262 9.405 8.785 11.265 11.518 14.386a31.844 31.844 0 00-2.73-.121c-.862 0-1.8.04-2.577.121-2.775-4.112-7.455-10.158-10.62-13.95h-1.408c0 4.74.041 9.6.312 13.95a16.286 16.286 0 00-1.991-.121c-.7 0-1.52.04-2.148.121.222-4.12.302-9.728.31-14.54v-1.92c-.007-4.4-.058-10.271-.31-12.263 1.135.076 3.52.116 4.457.116 1.054 0 3.896-.116 5.385-.116zm-82.928-2.412c-.312 3-.351 8.732-.351 11.854v7.981H208c1.289 0 7.887-7.586 8.515-8.695.54.04 1.442.118 1.91.118.39 0 1.328-.079 1.913-.118l-9.331 8.458c1.171 1.42 7.379 8.496 10.19 11.538-1.054-.082-1.799-.118-2.345-.118-.7 0-1.754.036-2.574.118-1.448-2.292-5.86-7.55-8.278-10.234h-.624c0 1.462.039 7.231.351 10.234a13.226 13.226 0 00-1.793-.118c-.667 0-1.447.036-2.03.118.31-3.003.351-8.772.351-11.854v-7.425c0-3.122-.042-8.854-.351-11.854.655.036 1.517.112 1.99.112.425 0 1.248-.076 1.833-.115zm-16.122 10.747c3.787 0 6.752 2.413 6.752 6.441 0 .99-.115 2.687-.115 3.951l.001.366c.006 1.972.059 6.822.35 9.631a13.789 13.789 0 00-1.798-.121c-.664 0-1.442.042-2.03.121.312-3.003.351-8.337.351-9.997 0-6.045-1.796-8.14-4.838-8.14-4.764 0-5.076 4.903-5.076 8.654 0 .708.039 6.48.349 9.483a13.649 13.649 0 00-1.796-.121c-.664 0-1.442.042-2.028.121.302-2.906.349-7.995.351-9.825v-.172c0-2.015-.039-7.03-.35-9.997.66.037 1.519.119 1.99.119.427 0 1.25-.079 1.833-.119-.076.672-.196 2.371-.196 3.083 1.292-2.368 3.785-3.478 6.25-3.478zm172.48.395c-.31 2.967-.352 7.94-.352 9.997 0 1.66.042 6.994.351 9.997a13.704 13.704 0 00-1.793-.121c-.666 0-1.45.042-2.033.121.302-2.906.349-7.995.351-9.825v-.172c0-2.015-.039-7.03-.35-9.997.66.037 1.519.119 1.99.119.427 0 1.25-.079 1.835-.119zm-98.496-11.34c.51 0 .82.04 1.096.122-.036.55-.117 1.462-.117 1.778 0 .392.078 1.182.117 1.854-1.25-.477-1.916-.593-2.42-.593-2.226 0-3.397 1.188-3.397 3.517 0 .912.078 2.65.351 4.781 1.133 0 3.007-.158 4.295-.319-.039.398-.078.951-.078 1.267 0 .356.042.83.078 1.146-1.327-.195-2.73-.316-3.202-.316h-1.168v6.24c0 3.082.039 8.851.349 11.854a13.237 13.237 0 00-1.796-.118c-.664 0-1.442.036-2.028.118.296-2.866.347-8.253.351-11.417v-6.677h-.666c-.351 0-.895.037-2.07.316.079-.395.118-.988.118-1.185a9.07 9.07 0 00-.117-1.228c.859.28 1.45.319 2.069.319h.667c0-6.401 4.33-11.459 7.568-11.459zM138.74 95.675c.974.04 3.355.119 3.983.119 1.051 0 2.923-.116 3.625-.116 5.547 0 9.92 1.064 9.92 6.122 0 3.595-2.267 5.61-6.247 6.99 5.58 1.186 7.142 3.797 7.142 7.192 0 5.811-4.883 8.413-11.088 8.413-1.48 0-3.82-.115-4.995-.115-.51 0-1.796.079-2.34.115.235-4.346.31-10.352.31-15.328 0-4.462-.042-11.224-.31-13.392zm104.249 9.878c-4.214 0-6.286 4.463-6.286 9.165 0 4.465 1.838 8.577 5.98 8.577 3.976 0 6.355-3.875 6.355-9.167 0-4.268-1.637-8.575-6.05-8.575zm138.581 8.65l-2.571.399c-2.814.432-5.935 1.422-5.935 4.423 0 2.291 1.25 3.516 3.788 3.516 1.558 0 3.117-.553 4.718-2.252v-6.085zm-208.625 0l-2.58.399c-2.808.432-5.931 1.422-5.931 4.423 0 2.291 1.25 3.516 3.787 3.516 1.562 0 3.123-.553 4.724-2.252v-6.085zm-29.285-4.069h-1.096v11.973c.859.04 2.303.079 3.316.079 3.982 0 7.304-1.702 7.304-6.246 0-3.554-1.916-5.806-9.524-5.806zm144.18-12.243c-1.327 0-2.652.04-3.199.115v10.353h1.292c3.709 0 8.704-.949 8.704-5.727 0-2.963-2.265-4.741-6.797-4.741zm-141.997 0c-.901 0-2.463.04-3.28.076v9.994c.43.04 1.132.082 2.066.082 4.337 0 7.65-1.818 7.65-5.456 0-3.356-2.883-4.696-6.436-4.696zm216.405-2.924c1.328 0 2.109.666 2.109 2.091 0 1.264-.778 2.173-2.109 2.173-1.33 0-2.108-.909-2.108-2.173 0-1.185.862-2.091 2.108-2.091z"/><path fill="#8F96A3" fill-rule="nonzero" d="M46.16 49v-.984h-1.656V40.6h-1.128l-2.016 1.452v1.236l2.016-1.452v6.18H41.36V49h4.8zm4.44.12c.432 0 .838-.068 1.218-.204.38-.136.71-.37.99-.702.28-.332.502-.774.666-1.326.164-.552.246-1.244.246-2.076v-.24c0-.776-.076-1.426-.228-1.95-.152-.524-.366-.944-.642-1.26a2.335 2.335 0 00-.984-.678 3.736 3.736 0 00-1.266-.204c-.424 0-.826.068-1.206.204-.38.136-.712.362-.996.678-.284.316-.508.736-.672 1.26-.164.524-.246 1.174-.246 1.95v.24c0 .832.084 1.524.252 2.076.168.552.394.994.678 1.326.284.332.614.566.99.702a3.5 3.5 0 001.2.204zm0-1.008c-.24 0-.478-.046-.714-.138a1.498 1.498 0 01-.636-.504c-.188-.244-.342-.58-.462-1.008-.12-.428-.18-.978-.18-1.65v-.24c0-.624.06-1.134.18-1.53.12-.396.274-.71.462-.942.188-.232.4-.392.636-.48a2.03 2.03 0 01.714-.132c.272 0 .53.044.774.132.244.088.456.248.636.48.18.232.322.546.426.942.104.396.156.906.156 1.53v.24c0 .68-.058 1.234-.174 1.662-.116.428-.268.764-.456 1.008s-.402.41-.642.498a2.08 2.08 0 01-.72.132zm5.712.888v-4.62l1.848 3.18H59l1.848-3.18V49h1.032v-6.36h-1.032l-2.232 3.9-2.232-3.9H55.28V49h1.032zm8.52 0v-4.62l1.848 3.18h.84l1.848-3.18V49H70.4v-6.36h-1.032l-2.232 3.9-2.232-3.9H63.8V49h1.032zm11.52 0l3.396-4.8V49h1.032v-6.36h-1.032l-3.396 4.8v-4.8H75.32V49h1.032zm9.912-5.24c.04-.336.105-.628.198-.874.116-.308.276-.558.48-.75.204-.192.452-.332.744-.42a3.8 3.8 0 011.014-.144 16.441 16.441 0 001.398-.084c.34-.04.574-.096.702-.168V40.3c-.264.136-.584.214-.96.234-.376.02-.816.042-1.32.066-.624.032-1.142.16-1.554.384a2.679 2.679 0 00-.996.93c-.252.396-.43.876-.534 1.44a10.693 10.693 0 00-.156 1.926v.24c0 .568.078 1.076.234 1.524.156.448.368.826.636 1.134.268.308.584.542.948.702.364.16.758.24 1.182.24.432 0 .832-.076 1.2-.228.368-.152.684-.37.948-.654.264-.284.472-.624.624-1.02a3.71 3.71 0 00.228-1.338v-.24c0-.464-.068-.882-.204-1.254a2.677 2.677 0 00-.57-.942 2.532 2.532 0 00-.87-.594 2.874 2.874 0 00-1.116-.21c-.528 0-.992.124-1.392.372a2.26 2.26 0 00-.888 1.008v-.001l.024-.26zm2.016 4.424c-.264 0-.514-.054-.75-.162a1.831 1.831 0 01-.618-.462 2.264 2.264 0 01-.42-.726 2.759 2.759 0 01-.156-.954v-.24c0-.312.048-.594.144-.846a1.862 1.862 0 011.026-1.068c.236-.1.494-.15.774-.15s.538.05.774.15a1.862 1.862 0 011.026 1.068c.096.252.144.534.144.846v.24c0 .368-.048.696-.144.984-.096.288-.232.53-.408.726a1.73 1.73 0 01-.618.444c-.236.1-.494.15-.774.15zm7.14.936c.408 0 .796-.066 1.164-.198.368-.132.692-.332.972-.6.28-.268.504-.606.672-1.014.168-.408.252-.884.252-1.428v-.24c0-.512-.084-.964-.252-1.356a2.839 2.839 0 00-.672-.978 2.803 2.803 0 00-.972-.588 3.421 3.421 0 00-1.164-.198c-.408 0-.796.066-1.164.198a2.803 2.803 0 00-.972.588c-.28.26-.504.586-.672.978-.168.392-.252.844-.252 1.356v.24c0 .544.084 1.02.252 1.428.168.408.392.746.672 1.014s.604.468.972.6c.368.132.756.198 1.164.198zm0-.936c-.248 0-.492-.042-.732-.126a1.723 1.723 0 01-.642-.402 2.032 2.032 0 01-.456-.714c-.116-.292-.174-.646-.174-1.062v-.24c0-.384.058-.714.174-.99.116-.276.268-.502.456-.678a1.8 1.8 0 01.642-.39 2.201 2.201 0 011.464 0 1.8 1.8 0 01.642.39c.188.176.34.402.456.678.116.276.174.606.174.99v.24c0 .416-.058.77-.174 1.062-.116.292-.268.53-.456.714a1.723 1.723 0 01-.642.402c-.24.084-.484.126-.732.126zm3.78.936c.352 0 .666-.058.942-.174.276-.116.51-.318.702-.606.192-.288.338-.676.438-1.164.1-.488.15-1.104.15-1.848v-1.776h2.592V49h1.056v-6.36h-4.68v2.46c0 1.032-.084 1.788-.252 2.268-.168.48-.484.72-.948.72v1.032zm10.38 0c.32 0 .626-.04.918-.12.292-.08.554-.198.786-.354.232-.156.43-.35.594-.582.164-.232.278-.5.342-.804h-.948c-.064.288-.236.514-.516.678-.28.164-.672.246-1.176.246-.224 0-.452-.038-.684-.114a1.745 1.745 0 01-.624-.36 1.909 1.909 0 01-.456-.636c-.12-.26-.18-.574-.18-.942h4.704v-.792c0-.88-.25-1.57-.75-2.07-.5-.5-1.19-.75-2.07-.75-.392 0-.766.062-1.122.186a2.517 2.517 0 00-.936.576c-.268.26-.482.586-.642.978-.16.392-.24.852-.24 1.38v.24c0 .544.084 1.02.252 1.428.168.408.39.746.666 1.014s.594.468.954.6c.36.132.736.198 1.128.198zm1.764-3.852h-3.708c0-.32.056-.596.168-.828a1.63 1.63 0 011.032-.882 2.342 2.342 0 011.374 0c.22.068.412.174.576.318.164.144.296.332.396.564.1.232.154.508.162.828zm5.076 3.852c.32 0 .626-.04.918-.12.292-.08.554-.198.786-.354.232-.156.43-.35.594-.582.164-.232.278-.5.342-.804h-.948c-.064.288-.236.514-.516.678-.28.164-.672.246-1.176.246-.224 0-.452-.038-.684-.114a1.745 1.745 0 01-.624-.36 1.909 1.909 0 01-.456-.636c-.12-.26-.18-.574-.18-.942h4.704v-.792c0-.88-.25-1.57-.75-2.07-.5-.5-1.19-.75-2.07-.75-.392 0-.766.062-1.122.186a2.517 2.517 0 00-.936.576c-.268.26-.482.586-.642.978-.16.392-.24.852-.24 1.38v.24c0 .544.084 1.02.252 1.428.168.408.39.746.666 1.014s.594.468.954.6c.36.132.736.198 1.128.198zm1.764-3.852h-3.708c0-.32.056-.596.168-.828a1.63 1.63 0 011.032-.882 2.342 2.342 0 011.374 0c.22.068.412.174.576.318.164.144.296.332.396.564.1.232.154.508.162.828z"/><path fill="#8F96A3" d="M120 62h-1v-2H41v2h-1v-5h1v2h78v-2h1v5z"/></g></svg>