<svg xmlns="http://www.w3.org/2000/svg" xmlns:xlink="http://www.w3.org/1999/xlink" width="629" height="234"><defs><rect id="a" width="629" height="234" rx="4"/></defs><g fill="none" fill-rule="evenodd"><mask id="b" fill="#fff"><use xlink:href="#a"/></mask><use fill="#F2F3F5" xlink:href="#a"/><path stroke="#E4E6EB" stroke-opacity=".8" d="M-635 519L619-735M-627 519L627-735M-619 519L635-735M-611 519L643-735M-603 519L651-735M-595 519L659-735M-587 519L667-735M-579 519L675-735M-571 519L683-735M-563 519L691-735M-555 519L699-735M-547 519L707-735M-539 519L715-735M-531 519L723-735M-523 519L731-735M-515 519L739-735M-507 519L747-735M-499 519L755-735M-491 519L763-735M-483 519L771-735M-475 519L779-735M-467 519L787-735M-459 519L795-735M-451 519L803-735M-443 519L811-735M-435 519L819-735M-427 519L827-735M-419 519L835-735M-411 519L843-735M-403 519L851-735M-395 519L859-735M-387 519L867-735M-379 519L875-735M-371 519L883-735M-363 519L891-735M-355 519L899-735M-347 519L907-735M-339 519L915-735M-331 519L923-735M-323 519L931-735M-315 519L939-735M-307 519L947-735M-299 519L955-735M-291 519L963-735M-283 519L971-735M-275 519L979-735M-267 519L987-735M-259 519L995-735M-251 519L1003-735M-243 519L1011-735M-235 519L1019-735M-227 519L1027-735M-219 519L1035-735M-211 519L1043-735M-203 519L1051-735M-195 519L1059-735M-187 519L1067-735M-179 519L1075-735M-171 519L1083-735M-163 519L1091-735M-155 519L1099-735M-147 519L1107-735M-139 519L1115-735M-131 519L1123-735M-123 519L1131-735M-115 519L1139-735M-107 519L1147-735M-99 519L1155-735M-91 519L1163-735M-83 519L1171-735M-75 519L1179-735M-67 519L1187-735M-59 519L1195-735M-51 519L1203-735M-43 519L1211-735M-35 519L1219-735M-27 519L1227-735M-19 519L1235-735M-11 519L1243-735M-3 519L1251-735M5 519L1259-735M13 519L1267-735M21 519L1275-735M29 519L1283-735M37 519L1291-735M45 519L1299-735M53 519L1307-735M61 519L1315-735M69 519L1323-735M77 519L1331-735M85 519L1339-735M93 519L1347-735M101 519L1355-735M109 519L1363-735M117 519L1371-735M125 519L1379-735M133 519L1387-735M141 519L1395-735M149 519L1403-735M157 519L1411-735M165 519L1419-735M173 519L1427-735M181 519L1435-735M189 519L1443-735M197 519L1451-735M205 519L1459-735M213 519L1467-735M221 519L1475-735M229 519L1483-735M237 519L1491-735M245 519L1499-735M253 519L1507-735M261 519L1515-735M269 519L1523-735M277 519L1531-735M285 519L1539-735M293 519L1547-735M301 519L1555-735M309 519L1563-735M317 519L1571-735M325 519L1579-735M333 519L1587-735M341 519L1595-735M349 519L1603-735M357 519L1611-735M365 519L1619-735M373 519L1627-735M381 519L1635-735M389 519L1643-735M397 519L1651-735M405 519L1659-735M413 519L1667-735M421 519L1675-735M429 519L1683-735M437 519L1691-735M445 519L1699-735M453 519L1707-735M461 519L1715-735M469 519L1723-735M477 519L1731-735M485 519L1739-735M493 519L1747-735M501 519L1755-735" mask="url(#b)"/><path fill="#FFF" d="M58 58h512v118H58z"/><path fill="#595959" fill-rule="nonzero" d="M116.312 58c32.22 0 58.333 26.418 58.333 58.998 0 32.584-26.113 59.002-58.333 59.002C84.113 176 58 149.582 58 116.998 58 84.418 84.113 58 116.312 58zm0 4.558c-29.718 0-53.802 24.37-53.802 54.44 0 30.07 24.084 54.444 53.802 54.444 29.73 0 53.823-24.375 53.823-54.444 0-30.07-24.093-54.44-53.823-54.44zm3.72 12.052s1.346 2.473 7.604 1.345c5.177-.937 8.037.429 8.037 2.181 0 0 3.683.446 5.329 1.524s-.1 3.772-.1 3.772c-.25-.496-.604-.787-1.596-1.008 0 0-3.983-1.036-5.366 1.586-3.028.263-5.637 2.094-6.867 4.588-.066.146-1.218 2.452-.506 7.106.378 2.444 1.567 4.517 3.263 6.282.74.774 1.662 1.27 2.781 1.14 1.77-.207 3.239-1.065 4.502-2.33.691-.696.905-1.487.374-2.398-.07-.121-.11-.258-.16-.396-1.564-3.83-.255-7.218 2.403-9.225 1.955-1.47 4.214-1.644 6.502-1.316 14.815 2.114 15.598 17.01 15.623 22.094l.001.851c.005 13.201.203 22.54.3 24.36.152 2.797 1.115 3.384 1.728 3.825-.967.675-8.83-1.831-10.723-4.208-.123-.159-.387-.225-.584-.28-4.687-1.103-4.695-6.06-4.786-7.564-3.921 0-5.44-4.333-5.855-5.461a13.801 13.801 0 01-.708-3.13c0 2.11-3.078 3.92-6.399.557 0 3.46-4.065 2.847-6.09.8-.177.699-1.304 2.48-1.304 2.48 2.329.43 3.374.945 4.473 1.92 2.571 2.29 2.864 6.11 2.864 8.084 0 0 3.547 3.505 4.95 4.804.42.391.872.733 1.333 1.082 3.634-4.12 4.847-2.514 4.84-2.501 2.69-1.1 4.184.845 3.596 1.835-.63-.72-1.65-.507-2.264.05 3.634.62 2.79 3.318 1.807 3.884 0-.774-.235-1.636-1.383-1.715.058 1.19-.736 1.4-1.49 1.428-1.798.08-4.806.163-5.727 1.07-.523.516-.268 2.032-.836 2.548-.387.354-.8.378-1.077.379h-.149c-.086.558.078 1.186.774 1.927-2.617.217-4.576-2.115-3.28-3.36.547-.52 2.374-2.272 2.47-3.038.114-.812-.733-1.724-1.322-2.253-1.259-1.136-2.617-2.152-3.954-3.205-.391-.312-.852-.587-1.3-.841a1.718 1.718 0 00-1.334-.146c-1.004.317-.987.292-1.25.117-.984-.658-2.774-2.14-6.49-2.556a2 2 0 01.568.52c.198.283.337.62.547 1.078.243.52.428 1.054.646 1.574 2.403 5.753 4.782 11.402 7.177 17.156.794 1.902.086 3.567-1.852 4.483-1.411.666-3.02.308-3.967-1.074.272.95.4 1.77.017 2.56-.379.791-.992 1.358-1.794 1.703a4.252 4.252 0 01-2.531.296c-.86-.175-1.432-.75-1.872-1.595-.074 1.878-1.292 3.252-3.313 3.252-2.016 0-3.238-1.374-3.312-3.252-.44.845-1.013 1.42-1.873 1.595-.839.17-1.757.05-2.53-.296-.803-.345-1.416-.912-1.79-1.703-.387-.79-.255-1.607.016-2.56-.946 1.382-2.555 1.74-3.97 1.074-1.935-.916-2.642-2.58-1.848-4.483 2.39-5.754 4.773-11.403 7.172-17.156.218-.52.407-1.053.646-1.574.214-.462.354-.799.551-1.078a2.03 2.03 0 01.564-.52c-3.716.412-5.501 1.898-6.485 2.556-.263.175-.25.2-1.25-.117a1.718 1.718 0 00-1.334.146c-.449.25-.91.529-1.3.84-1.338 1.054-2.696 2.074-3.955 3.206-.592.53-1.436 1.44-1.32 2.253.094.761 1.921 2.518 2.468 3.039 1.297 1.244-.662 3.58-3.28 3.36.696-.742.86-1.37.774-1.928-.263-.004-.76.045-1.226-.38-.568-.515-.313-2.03-.835-2.547-.922-.907-3.93-.99-5.732-1.07-.753-.029-1.547-.237-1.49-1.428-1.144.075-1.378.937-1.378 1.715-.984-.566-1.831-3.268 1.802-3.884-.609-.557-1.63-.77-2.26-.05-.588-.99.906-2.934 3.597-1.835-.008-.013 1.202-1.616 4.84 2.501.456-.35.913-.69 1.333-1.082 1.403-1.295 4.95-4.804 4.95-4.804 0-1.97.292-5.79 2.864-8.085 1.099-.974 2.144-1.49 4.473-1.919 0 0-1.128-1.781-1.305-2.48-2.024 2.052-6.09 2.66-6.09-.8-3.32 3.36-6.398 1.553-6.398-.558a13.801 13.801 0 01-.708 3.13c-.416 1.129-1.934 5.462-5.856 5.462-.09 1.503-.098 6.457-4.785 7.565-.198.05-.461.12-.585.279-1.892 2.38-9.756 4.883-10.723 4.208.613-.445 1.576-1.028 1.728-3.825.096-1.794.29-10.9.3-23.812v-1.246c.012-4.933.658-20.112 15.62-22.247 2.293-.328 4.552-.154 6.506 1.316 2.659 2.007 3.967 5.395 2.404 9.225-.05.138-.091.275-.165.396-.527.911-.313 1.702.379 2.398 1.263 1.265 2.732 2.123 4.501 2.33 1.115.13 2.041-.366 2.778-1.14 1.7-1.765 2.847-3.842 3.267-6.282.786-4.633-.44-6.96-.506-7.106-1.23-2.494-3.84-4.325-6.868-4.588-1.387-2.622-5.366-1.586-5.366-1.586-.996.22-1.345.512-1.596 1.008 0 0-1.745-2.694-.1-3.772 1.647-1.078 5.33-1.524 5.33-1.524 0-1.752 2.86-3.118 8.036-2.181 6.259 1.128 7.6-1.345 7.6-1.345.26 3.031-2.024 4.592-2.757 5.017 2.37 2.606 5.691 7.814 6.477 15.203.79-7.39 4.111-12.597 6.481-15.203-.732-.425-3.02-1.986-2.76-5.017zm128.488 33.558c6.044 0 10.25 3.09 10.25 10.72v14.05c0 3.318.63 3.672 1.843 3.672a7.3 7.3 0 001.21-.125l.342 1.465c-2.243.812-3.51.933-4.144.933-1.901 0-3.11-.874-3.572-2.565l-.345-1.278c-3.115 2.498-6.514 3.843-9.329 3.843-5.246 0-8.645-2.798-8.645-7.693 0-5.246 3.514-7.694 8.06-8.51l6.971-1.286c1.963-.35 3-.928 3-2.385 0-6.353-2.654-8.564-7.032-8.564-3.395 0-6.222 1.283-7.773 4.663h-.692v-3.385c3.284-2.564 6.395-3.555 9.856-3.555zm307.83 0c6.058 0 10.251 3.09 10.251 10.72v14.05c0 3.318.634 3.672 1.844 3.672.403 0 .868-.063 1.21-.125l.345 1.465c-2.25.812-3.514.933-4.152.933-1.893 0-3.103-.874-3.568-2.565l-.345-1.278c-3.107 2.498-6.506 3.843-9.337 3.843-5.234 0-8.641-2.798-8.641-7.693 0-5.246 3.514-7.694 8.07-8.51l6.966-1.286c1.958-.35 2.995-.928 2.995-2.385 0-6.353-2.65-8.564-7.024-8.564-3.395 0-6.222 1.283-7.777 4.663h-.695v-3.385h.004c3.288-2.564 6.394-3.555 9.855-3.555zm-65.722.004c3.053 0 4.839.7 6.793 1.978-.571 1.224-1.263 2.851-1.724 4.25-1.786-3.205-3.86-3.959-5.937-3.959-2.766 0-4.893 1.861-4.893 4.775 0 3.614 2.996 5.07 6.28 5.89 5.011 1.287 7.892 2.857 7.892 7.927 0 5.591-5.358 9.846-11.119 9.846-2.938 0-5.526-.816-7.604-2.39.634-1.161 1.44-3.089 1.84-4.25 2.188 3.617 4.44 4.375 6.855 4.375 3.34 0 5.987-1.99 5.987-5.366 0-3.847-3.165-4.833-6.79-5.828-4.497-1.22-7.378-3.497-7.378-8.214 0-5.478 3.983-9.034 9.798-9.034zm23.677 0c3.045 0 4.835.7 6.79 1.978-.573 1.224-1.264 2.851-1.729 4.25-1.786-3.205-3.855-3.959-5.925-3.959-2.77 0-4.901 1.861-4.901 4.775 0 3.614 3 5.07 6.283 5.89 5.008 1.287 7.889 2.857 7.889 7.927 0 5.591-5.362 9.846-11.119 9.846-2.938 0-5.526-.816-7.604-2.39.634-1.161 1.44-3.089 1.84-4.25 2.192 3.617 4.44 4.375 6.859 4.375 3.341 0 5.991-1.99 5.991-5.366 0-3.847-3.168-4.833-6.794-5.828-4.501-1.22-7.374-3.497-7.374-8.214 0-5.478 3.971-9.034 9.794-9.034zm-156.621-.004c8.752 0 14.225 6.407 14.225 15.15 0 8.916-5.7 15.56-14.744 15.56-8.863 0-14.402-6.581-14.402-14.74 0-9.675 6.107-15.97 14.92-15.97zm116.233.583c-.447 4.243-.514 11.269-.518 14.458v.287c0 2.448.057 10.316.518 14.746a20.256 20.256 0 00-2.654-.18c-.975 0-2.131.063-2.991.18.11-.995.283-3.501.283-4.546-1.9 3.492-5.583 5.183-9.217 5.183-5.58 0-9.962-3.61-9.962-9.563 0-1.453.169-3.955.169-5.82v-.406c-.007-2.82-.08-10.131-.515-14.339.992.054 2.251.175 2.947.175.63 0 1.843-.117 2.707-.175-.465 4.43-.522 12.298-.522 14.745 0 8.917 2.654 12.056 7.147 12.056 7.028 0 7.485-7.285 7.485-12.817 0-1.05-.062-9.555-.518-13.984.975.058 2.242.175 2.938.175.633 0 1.84-.117 2.703-.175zM305.482 92.316c-.444 4.267-.514 12.281-.518 16.976v12.281h.921c1.902 0 11.637-11.19 12.563-12.826.798.058 2.128.175 2.819.175.576 0 1.959-.117 2.823-.175l-13.769 12.476c1.729 2.094 10.888 12.531 15.036 17.019-1.555-.121-2.654-.175-3.46-.175-1.033 0-2.589.054-3.799.175-2.135-3.38-8.645-11.136-12.213-15.095h-.921c0 2.156.057 10.665.518 15.095a19.522 19.522 0 00-2.646-.175c-.983 0-2.135.054-2.995.175.456-4.43.518-12.939.518-17.485v-10.953c0-4.604-.062-13.059-.518-17.484.967.054 2.238.166 2.938.166.625 0 1.839-.112 2.703-.17zm-23.788 15.852c5.588 0 9.962 3.56 9.962 9.5 0 1.461-.169 3.963-.169 5.828v.407c.007 2.82.081 10.13.519 14.339a20.352 20.352 0 00-2.654-.18c-.98 0-2.128.063-2.996.18.461-4.43.519-12.298.519-14.746 0-8.917-2.65-12.006-7.14-12.006-6.928 0-7.474 7.026-7.489 12.526v.491c.008 1.76.084 9.56.515 13.735a20.145 20.145 0 00-2.65-.18c-.98 0-2.128.063-2.992.18.45-4.319.515-11.907.518-14.552v-.194c0-2.972-.057-10.37-.518-14.745.975.054 2.243.175 2.938.175.63 0 1.844-.117 2.704-.175-.112.99-.289 3.497-.289 4.546 1.906-3.493 5.584-5.129 9.222-5.129zm254.494.583c-.443 4.243-.514 11.269-.518 14.458v.694c.007 2.82.084 10.13.518 14.339a20.227 20.227 0 00-2.646-.18c-.983 0-2.14.063-3 .18.438-4.208.512-11.52.518-14.339v-.994c-.008-3.27-.085-10.048-.518-14.158.975.054 2.243.175 2.938.175.63 0 1.844-.117 2.708-.175zM427.843 95.875c7.374 0 12.097 3.264 12.097 9.612 0 5.712-4.151 10.666-12.39 11.536 10.716 13.871 12.962 16.614 16.995 21.219a47.002 47.002 0 00-4.028-.18 38.13 38.13 0 00-3.803.18c-4.094-6.066-10.999-14.983-15.67-20.578h-2.077c0 6.994.062 14.162.46 20.578a23.968 23.968 0 00-2.937-.18c-1.033 0-2.243.059-3.169.18.332-6.159.448-14.57.456-21.73v-2.132c-.007-6.53-.077-15.504-.456-18.505 1.675.112 5.193.17 6.576.17 1.555 0 5.748-.17 7.946-.17zm-36.985-3.85c.753 0 1.21.057 1.617.178-.053.812-.173 2.157-.173 2.623 0 .578.116 1.744.173 2.735-1.843-.704-2.827-.874-3.572-.874-3.283 0-5.011 1.752-5.011 5.187 0 1.344.115 3.909.518 7.052 1.67 0 4.436-.233 6.337-.47a23.299 23.299 0 00-.115 1.869c0 .524.061 1.224.115 1.69-1.959-.287-4.029-.466-4.724-.466h-1.724v9.204c0 4.546.057 13.055.514 17.485a19.539 19.539 0 00-2.65-.175c-.98 0-2.127.054-2.991.175.456-4.43.518-12.94.518-17.485v-9.204h-.983c-.519 0-1.321.054-3.054.466.116-.583.173-1.457.173-1.749 0-.291-.057-1.161-.173-1.81 1.268.412 2.14.47 3.054.47h.983c0-9.442 6.39-16.902 11.168-16.902zM203.692 95.87c1.436.058 4.95.175 5.876.175 1.551 0 4.312-.171 5.35-.171 8.184 0 14.636 1.57 14.636 9.03 0 5.303-3.345 8.275-9.217 10.311 8.234 1.749 10.538 5.6 10.538 10.607 0 8.572-7.205 12.41-16.36 12.41-2.186 0-5.638-.17-7.37-.17-.754 0-2.65.116-3.453.17.332-6.154.447-14.565.456-21.721v-1.71c-.005-6.563-.077-15.865-.456-18.931zm153.819 14.57c-6.218 0-9.275 6.582-9.275 13.517 0 6.586 2.712 12.652 8.822 12.652 5.868 0 9.378-5.716 9.378-13.522 0-6.294-2.415-12.647-8.925-12.647zm204.477 12.76l-3.794.587c-4.152.637-8.756 2.098-8.756 6.523 0 3.38 1.843 5.187 5.588 5.187 2.3 0 4.6-.816 6.962-3.322V123.2zm-307.827 0l-3.806.587c-4.144.637-8.752 2.098-8.752 6.523 0 3.38 1.843 5.187 5.588 5.187 2.304 0 4.608-.816 6.97-3.322V123.2zm-43.21-6.003h-1.617v17.66c1.267.057 3.398.116 4.892.116 5.876 0 10.777-2.51 10.777-9.213 0-5.241-2.827-8.563-14.052-8.563zm212.74-18.06c-1.959 0-3.913.059-4.72.171v15.27h1.905c5.473 0 12.843-1.399 12.843-8.446 0-4.372-3.342-6.994-10.028-6.994zm-209.518 0c-1.33 0-3.634.059-4.84.113v14.741a33.95 33.95 0 003.05.121c6.398 0 11.287-2.681 11.287-8.047 0-4.95-4.255-6.927-9.497-6.927zm319.307-4.312c1.959 0 3.111.982 3.111 3.085 0 1.865-1.148 3.205-3.11 3.205-1.964 0-3.112-1.34-3.112-3.205 0-1.749 1.272-3.085 3.111-3.085z"/><circle cx="58.5" cy="116.5" r="56.25" stroke="#676E7B" stroke-width="4.5" opacity=".2"/><circle cx="116.5" cy="58.5" r="56.25" stroke="#676E7B" stroke-width="4.5" opacity=".2"/><circle cx="116.5" cy="175.5" r="56.25" stroke="#676E7B" stroke-width="4.5" opacity=".2"/><circle cx="570.5" cy="116.5" r="56.25" stroke="#676E7B" stroke-width="4.5" opacity=".2"/><text fill="#8F96A3" font-family="PT_RussiaText, PT_Russia Text" font-size="14"><tspan x="309" y="33">Protected area</tspan></text><text fill="#8F96A3" font-family="PT_RussiaText, PT_Russia Text" font-size="14"><tspan x="309" y="209">Protected area</tspan></text></g></svg>