<svg xmlns="http://www.w3.org/2000/svg" xmlns:xlink="http://www.w3.org/1999/xlink" width="746" height="352"><defs><rect id="a" width="746" height="352" rx="4"/></defs><g fill="none" fill-rule="evenodd"><mask id="b" fill="#fff"><use xlink:href="#a"/></mask><use fill="#F2F3F5" xlink:href="#a"/><path stroke="#E4E6EB" stroke-opacity=".8" d="M-576 578L678-676M-568 578L686-676M-560 578L694-676M-552 578L702-676M-544 578L710-676M-536 578L718-676M-528 578L726-676M-520 578L734-676M-512 578L742-676M-504 578L750-676M-496 578L758-676M-488 578L766-676M-480 578L774-676M-472 578L782-676M-464 578L790-676M-456 578L798-676M-448 578L806-676M-440 578L814-676M-432 578L822-676M-424 578L830-676M-416 578L838-676M-408 578L846-676M-400 578L854-676M-392 578L862-676M-384 578L870-676M-376 578L878-676M-368 578L886-676M-360 578L894-676M-352 578L902-676M-344 578L910-676M-336 578L918-676M-328 578L926-676M-320 578L934-676M-312 578L942-676M-304 578L950-676M-296 578L958-676M-288 578L966-676M-280 578L974-676M-272 578L982-676M-264 578L990-676M-256 578L998-676M-248 578L1006-676M-240 578L1014-676M-232 578L1022-676M-224 578L1030-676M-216 578L1038-676M-208 578L1046-676M-200 578L1054-676M-192 578L1062-676M-184 578L1070-676M-176 578L1078-676M-168 578L1086-676M-160 578L1094-676M-152 578L1102-676M-144 578L1110-676M-136 578L1118-676M-128 578L1126-676M-120 578L1134-676M-112 578L1142-676M-104 578L1150-676M-96 578L1158-676M-88 578L1166-676M-80 578L1174-676M-72 578L1182-676M-64 578L1190-676M-56 578L1198-676M-48 578L1206-676M-40 578L1214-676M-32 578L1222-676M-24 578L1230-676M-16 578L1238-676M-8 578L1246-676M0 578L1254-676M8 578L1262-676M16 578L1270-676M24 578L1278-676M32 578L1286-676M40 578L1294-676M48 578L1302-676M56 578L1310-676M64 578L1318-676M72 578L1326-676M80 578L1334-676M88 578L1342-676M96 578L1350-676M104 578L1358-676M112 578L1366-676M120 578L1374-676M128 578L1382-676M136 578L1390-676M144 578L1398-676M152 578L1406-676M160 578L1414-676M168 578L1422-676M176 578L1430-676M184 578L1438-676M192 578L1446-676M200 578L1454-676M208 578L1462-676M216 578L1470-676M224 578L1478-676M232 578L1486-676M240 578L1494-676M248 578L1502-676M256 578L1510-676M264 578L1518-676M272 578L1526-676M280 578L1534-676M288 578L1542-676M296 578L1550-676M304 578L1558-676M312 578L1566-676M320 578L1574-676M328 578L1582-676M336 578L1590-676M344 578L1598-676M352 578L1606-676M360 578L1614-676M368 578L1622-676M376 578L1630-676M384 578L1638-676M392 578L1646-676M400 578L1654-676M408 578L1662-676M416 578L1670-676M424 578L1678-676M432 578L1686-676M440 578L1694-676M448 578L1702-676M456 578L1710-676M464 578L1718-676M472 578L1726-676M480 578L1734-676M488 578L1742-676M496 578L1750-676M504 578L1758-676M512 578L1766-676M520 578L1774-676M528 578L1782-676M536 578L1790-676M544 578L1798-676M552 578L1806-676M560 578L1814-676" mask="url(#b)"/><path fill="#FFF" d="M117 117h512v118H117z"/><path fill="#595959" fill-rule="nonzero" d="M175.312 117c32.22 0 58.333 26.418 58.333 58.998 0 32.584-26.113 59.002-58.333 59.002C143.113 235 117 208.582 117 175.998c0-32.58 26.113-58.998 58.312-58.998zm0 4.558c-29.718 0-53.802 24.37-53.802 54.44 0 30.07 24.084 54.444 53.802 54.444 29.73 0 53.823-24.375 53.823-54.444 0-30.07-24.093-54.44-53.823-54.44zm3.72 12.052s1.346 2.473 7.604 1.345c5.177-.937 8.037.429 8.037 2.181 0 0 3.683.446 5.329 1.524s-.1 3.772-.1 3.772c-.25-.496-.604-.787-1.596-1.008 0 0-3.983-1.036-5.366 1.586-3.028.263-5.637 2.094-6.867 4.588-.066.146-1.218 2.452-.506 7.106.378 2.444 1.567 4.517 3.263 6.282.74.774 1.662 1.27 2.781 1.14 1.77-.207 3.239-1.065 4.502-2.33.691-.696.905-1.487.374-2.398-.07-.121-.11-.258-.16-.396-1.564-3.83-.255-7.218 2.403-9.225 1.955-1.47 4.214-1.644 6.502-1.316 14.815 2.114 15.598 17.01 15.623 22.094l.001.851c.005 13.201.203 22.54.3 24.36.152 2.797 1.115 3.384 1.728 3.825-.967.675-8.83-1.831-10.723-4.208-.123-.159-.387-.225-.584-.28-4.687-1.103-4.695-6.06-4.786-7.564-3.921 0-5.44-4.333-5.855-5.461a13.801 13.801 0 01-.708-3.13c0 2.11-3.078 3.92-6.399.557 0 3.46-4.065 2.847-6.09.8-.177.699-1.304 2.48-1.304 2.48 2.329.43 3.374.945 4.473 1.92 2.571 2.29 2.864 6.11 2.864 8.084 0 0 3.547 3.505 4.95 4.804.42.391.872.733 1.333 1.082 3.634-4.12 4.847-2.514 4.84-2.501 2.69-1.1 4.184.845 3.596 1.835-.63-.72-1.65-.507-2.264.05 3.634.62 2.79 3.318 1.807 3.884 0-.774-.235-1.636-1.383-1.715.058 1.19-.736 1.4-1.49 1.428-1.798.08-4.806.163-5.727 1.07-.523.516-.268 2.032-.836 2.548-.387.354-.8.378-1.077.379h-.149c-.086.558.078 1.186.774 1.927-2.617.217-4.576-2.115-3.28-3.36.547-.52 2.374-2.272 2.47-3.038.114-.812-.733-1.724-1.322-2.253-1.259-1.136-2.617-2.152-3.954-3.205-.391-.312-.852-.587-1.3-.841a1.718 1.718 0 00-1.334-.146c-1.004.317-.987.292-1.25.117-.984-.658-2.774-2.14-6.49-2.556a2 2 0 01.568.52c.198.283.337.62.547 1.078.243.52.428 1.054.646 1.574 2.403 5.753 4.782 11.402 7.177 17.156.794 1.902.086 3.567-1.852 4.483-1.411.666-3.02.308-3.967-1.074.272.95.4 1.77.017 2.56-.379.791-.992 1.358-1.794 1.703a4.252 4.252 0 01-2.531.296c-.86-.175-1.432-.75-1.872-1.595-.074 1.878-1.292 3.252-3.313 3.252-2.016 0-3.238-1.374-3.312-3.252-.44.845-1.013 1.42-1.873 1.595-.839.17-1.757.05-2.53-.296-.803-.345-1.416-.912-1.79-1.703-.387-.79-.255-1.607.016-2.56-.946 1.382-2.555 1.74-3.97 1.074-1.935-.916-2.642-2.58-1.848-4.483 2.39-5.754 4.773-11.403 7.172-17.156.218-.52.407-1.053.646-1.574.214-.462.354-.799.551-1.078a2.03 2.03 0 01.564-.52c-3.716.412-5.501 1.898-6.485 2.556-.263.175-.25.2-1.25-.117a1.718 1.718 0 00-1.334.146c-.449.25-.91.529-1.3.84-1.338 1.054-2.696 2.074-3.955 3.206-.592.53-1.436 1.44-1.32 2.253.094.761 1.921 2.518 2.468 3.039 1.297 1.244-.662 3.58-3.28 3.36.696-.742.86-1.37.774-1.928-.263-.004-.76.045-1.226-.38-.568-.515-.313-2.03-.835-2.547-.922-.907-3.93-.99-5.732-1.07-.753-.029-1.547-.237-1.49-1.428-1.144.075-1.378.937-1.378 1.715-.984-.566-1.831-3.268 1.802-3.884-.609-.557-1.63-.77-2.26-.05-.588-.99.906-2.934 3.597-1.835-.008-.013 1.202-1.616 4.84 2.501.456-.35.913-.69 1.333-1.082 1.403-1.295 4.95-4.804 4.95-4.804 0-1.97.292-5.79 2.864-8.085 1.099-.974 2.144-1.49 4.473-1.919 0 0-1.128-1.781-1.305-2.48-2.024 2.052-6.09 2.66-6.09-.8-3.32 3.36-6.398 1.553-6.398-.558a13.801 13.801 0 01-.708 3.13c-.416 1.129-1.934 5.462-5.856 5.462-.09 1.503-.098 6.457-4.785 7.565-.198.05-.461.12-.585.279-1.892 2.38-9.756 4.883-10.723 4.208.613-.445 1.576-1.028 1.728-3.825.096-1.794.29-10.9.3-23.812v-1.246c.012-4.933.658-20.112 15.62-22.247 2.293-.328 4.552-.154 6.506 1.316 2.659 2.007 3.967 5.395 2.404 9.225-.05.138-.091.275-.165.396-.527.911-.313 1.702.379 2.398 1.263 1.265 2.732 2.123 4.501 2.33 1.115.13 2.041-.366 2.778-1.14 1.7-1.765 2.847-3.842 3.267-6.282.786-4.633-.44-6.96-.506-7.106-1.23-2.494-3.84-4.325-6.868-4.588-1.387-2.622-5.366-1.586-5.366-1.586-.996.22-1.345.512-1.596 1.008 0 0-1.745-2.694-.1-3.772 1.647-1.078 5.33-1.524 5.33-1.524 0-1.752 2.86-3.118 8.036-2.181 6.259 1.128 7.6-1.345 7.6-1.345.26 3.031-2.024 4.592-2.757 5.017 2.37 2.606 5.691 7.814 6.477 15.203.79-7.39 4.111-12.597 6.481-15.203-.732-.425-3.02-1.986-2.76-5.017zm128.488 33.558c6.044 0 10.25 3.09 10.25 10.72v14.05c0 3.318.63 3.672 1.843 3.672a7.3 7.3 0 001.21-.125l.342 1.465c-2.243.812-3.51.933-4.144.933-1.901 0-3.11-.874-3.572-2.565l-.345-1.278c-3.115 2.498-6.514 3.843-9.329 3.843-5.246 0-8.645-2.798-8.645-7.693 0-5.246 3.514-7.694 8.06-8.51l6.971-1.286c1.963-.35 3-.928 3-2.385 0-6.353-2.654-8.564-7.032-8.564-3.395 0-6.222 1.283-7.773 4.663h-.692v-3.385c3.284-2.564 6.395-3.555 9.856-3.555zm307.83 0c6.058 0 10.251 3.09 10.251 10.72v14.05c0 3.318.634 3.672 1.844 3.672.403 0 .868-.063 1.21-.125l.345 1.465c-2.25.812-3.514.933-4.152.933-1.893 0-3.103-.874-3.568-2.565l-.345-1.278c-3.107 2.498-6.506 3.843-9.337 3.843-5.234 0-8.641-2.798-8.641-7.693 0-5.246 3.514-7.694 8.07-8.51l6.966-1.286c1.958-.35 2.995-.928 2.995-2.385 0-6.353-2.65-8.564-7.024-8.564-3.395 0-6.222 1.283-7.777 4.663h-.695v-3.385h.004c3.288-2.564 6.394-3.555 9.855-3.555zm-65.722.004c3.053 0 4.839.7 6.793 1.978-.571 1.224-1.263 2.851-1.724 4.25-1.786-3.205-3.86-3.959-5.937-3.959-2.766 0-4.893 1.861-4.893 4.775 0 3.614 2.996 5.07 6.28 5.89 5.011 1.287 7.892 2.857 7.892 7.927 0 5.591-5.358 9.846-11.119 9.846-2.938 0-5.526-.816-7.604-2.39.634-1.161 1.44-3.089 1.84-4.25 2.188 3.617 4.44 4.375 6.855 4.375 3.34 0 5.987-1.99 5.987-5.366 0-3.847-3.165-4.833-6.79-5.828-4.497-1.22-7.378-3.497-7.378-8.214 0-5.478 3.983-9.034 9.798-9.034zm23.677 0c3.045 0 4.835.7 6.79 1.978-.573 1.224-1.264 2.851-1.729 4.25-1.786-3.205-3.855-3.959-5.925-3.959-2.77 0-4.901 1.861-4.901 4.775 0 3.614 3 5.07 6.283 5.89 5.008 1.287 7.889 2.857 7.889 7.927 0 5.591-5.362 9.846-11.119 9.846-2.938 0-5.526-.816-7.604-2.39.634-1.161 1.44-3.089 1.84-4.25 2.192 3.617 4.44 4.375 6.859 4.375 3.341 0 5.991-1.99 5.991-5.366 0-3.847-3.168-4.833-6.794-5.828-4.501-1.22-7.374-3.497-7.374-8.214 0-5.478 3.971-9.034 9.794-9.034zm-156.621-.004c8.752 0 14.225 6.407 14.225 15.15 0 8.916-5.7 15.56-14.744 15.56-8.863 0-14.402-6.581-14.402-14.74 0-9.675 6.107-15.97 14.92-15.97zm116.233.583c-.447 4.243-.514 11.269-.518 14.458v.287c0 2.448.057 10.316.518 14.746a20.256 20.256 0 00-2.654-.18c-.975 0-2.131.063-2.991.18.11-.995.283-3.501.283-4.546-1.9 3.492-5.583 5.183-9.217 5.183-5.58 0-9.962-3.61-9.962-9.563 0-1.453.169-3.955.169-5.82v-.406c-.007-2.82-.08-10.131-.515-14.339.992.054 2.251.175 2.947.175.63 0 1.843-.117 2.707-.175-.465 4.43-.522 12.298-.522 14.745 0 8.917 2.654 12.056 7.147 12.056 7.028 0 7.485-7.285 7.485-12.817 0-1.05-.062-9.555-.518-13.984.975.058 2.242.175 2.938.175.633 0 1.84-.117 2.703-.175zm-168.435-16.435c-.444 4.267-.514 12.281-.518 16.976v12.281h.921c1.902 0 11.637-11.19 12.563-12.826.798.058 2.128.175 2.819.175.576 0 1.959-.117 2.823-.175l-13.769 12.476c1.729 2.094 10.888 12.531 15.036 17.019-1.555-.121-2.654-.175-3.46-.175-1.033 0-2.589.054-3.799.175-2.135-3.38-8.645-11.136-12.213-15.095h-.921c0 2.156.057 10.665.518 15.095a19.522 19.522 0 00-2.646-.175c-.983 0-2.135.054-2.995.175.456-4.43.518-12.939.518-17.485v-10.953c0-4.604-.062-13.059-.518-17.484.967.054 2.238.166 2.938.166.625 0 1.839-.112 2.703-.17zm-23.788 15.852c5.588 0 9.962 3.56 9.962 9.5 0 1.461-.169 3.963-.169 5.828v.407c.007 2.82.081 10.13.519 14.339a20.352 20.352 0 00-2.654-.18c-.98 0-2.128.063-2.996.18.461-4.43.519-12.298.519-14.746 0-8.917-2.65-12.006-7.14-12.006-6.928 0-7.474 7.026-7.489 12.526v.491c.008 1.76.084 9.56.515 13.735a20.145 20.145 0 00-2.65-.18c-.98 0-2.128.063-2.992.18.45-4.319.515-11.907.518-14.552v-.194c0-2.972-.057-10.37-.518-14.745.975.054 2.243.175 2.938.175.63 0 1.844-.117 2.704-.175-.112.99-.289 3.497-.289 4.546 1.906-3.493 5.584-5.129 9.222-5.129zm254.494.583c-.443 4.243-.514 11.269-.518 14.458v.694c.007 2.82.084 10.13.518 14.339a20.227 20.227 0 00-2.646-.18c-.983 0-2.14.063-3 .18.438-4.208.512-11.52.518-14.339v-.994c-.008-3.27-.085-10.048-.518-14.158.975.054 2.243.175 2.938.175.63 0 1.844-.117 2.708-.175zm-108.345-12.876c7.374 0 12.097 3.264 12.097 9.612 0 5.712-4.151 10.666-12.39 11.536 10.716 13.871 12.962 16.614 16.995 21.219a47.002 47.002 0 00-4.028-.18 38.13 38.13 0 00-3.803.18c-4.094-6.066-10.999-14.983-15.67-20.578h-2.077c0 6.994.062 14.162.46 20.578a23.968 23.968 0 00-2.937-.18c-1.033 0-2.243.059-3.169.18.332-6.159.448-14.57.456-21.73v-2.132c-.007-6.53-.077-15.504-.456-18.505 1.675.112 5.193.17 6.576.17 1.555 0 5.748-.17 7.946-.17zm-36.985-3.85c.753 0 1.21.057 1.617.178-.053.812-.173 2.157-.173 2.623 0 .578.116 1.744.173 2.735-1.843-.704-2.827-.874-3.572-.874-3.283 0-5.011 1.752-5.011 5.187 0 1.344.115 3.909.518 7.052 1.67 0 4.436-.233 6.337-.47a23.299 23.299 0 00-.115 1.869c0 .524.061 1.224.115 1.69-1.959-.287-4.029-.466-4.724-.466h-1.724v9.204c0 4.546.057 13.055.514 17.485a19.539 19.539 0 00-2.65-.175c-.98 0-2.127.054-2.991.175.456-4.43.518-12.94.518-17.485v-9.204h-.983c-.519 0-1.321.054-3.054.466.116-.583.173-1.457.173-1.749 0-.291-.057-1.161-.173-1.81 1.268.412 2.14.47 3.054.47h.983c0-9.442 6.39-16.902 11.168-16.902zm-187.166 3.846c1.436.058 4.95.175 5.876.175 1.551 0 4.312-.171 5.35-.171 8.184 0 14.636 1.57 14.636 9.03 0 5.303-3.345 8.275-9.217 10.311 8.234 1.749 10.538 5.6 10.538 10.607 0 8.572-7.205 12.41-16.36 12.41-2.186 0-5.638-.17-7.37-.17-.754 0-2.65.116-3.453.17.332-6.154.447-14.565.456-21.721v-1.71c-.005-6.563-.077-15.865-.456-18.931zm153.819 14.57c-6.218 0-9.275 6.582-9.275 13.517 0 6.586 2.712 12.652 8.822 12.652 5.868 0 9.378-5.716 9.378-13.522 0-6.294-2.415-12.647-8.925-12.647zm204.477 12.76l-3.794.587c-4.152.637-8.756 2.098-8.756 6.523 0 3.38 1.843 5.187 5.588 5.187 2.3 0 4.6-.816 6.962-3.322v-8.975zm-307.827 0l-3.806.587c-4.144.637-8.752 2.098-8.752 6.523 0 3.38 1.843 5.187 5.588 5.187 2.304 0 4.608-.816 6.97-3.322v-8.975zm-43.21-6.003h-1.617v17.66c1.267.057 3.398.116 4.892.116 5.876 0 10.777-2.51 10.777-9.213 0-5.241-2.827-8.563-14.052-8.563zm212.74-18.06c-1.959 0-3.913.059-4.72.171v15.27h1.905c5.473 0 12.843-1.399 12.843-8.446 0-4.372-3.342-6.994-10.028-6.994zm-209.518 0c-1.33 0-3.634.059-4.84.113v14.741a33.95 33.95 0 003.05.121c6.398 0 11.287-2.681 11.287-8.047 0-4.95-4.255-6.927-9.497-6.927zm319.307-4.312c1.959 0 3.111.982 3.111 3.085 0 1.865-1.148 3.205-3.11 3.205-1.964 0-3.112-1.34-3.112-3.205 0-1.749 1.272-3.085 3.111-3.085z"/><circle cx="58.5" cy="175.5" r="56.25" stroke="#676E7B" stroke-width="4.5" opacity=".2"/><circle cx="175.5" cy="58.5" r="56.25" stroke="#676E7B" stroke-width="4.5" opacity=".2"/><circle cx="175.5" cy="293.5" r="56.25" stroke="#676E7B" stroke-width="4.5" opacity=".2"/><circle cx="687.5" cy="175.5" r="56.25" stroke="#676E7B" stroke-width="4.5" opacity=".2"/><text fill="#8F96A3" font-family="PT_RussiaText, PT_Russia Text" font-size="14"><tspan x="408" y="62">Protected area</tspan></text><text fill="#8F96A3" font-family="PT_RussiaText, PT_Russia Text" font-size="14"><tspan x="408" y="297">Protected area</tspan></text></g></svg>