<svg xmlns="http://www.w3.org/2000/svg" width="400" height="190"><g fill="none" fill-rule="evenodd"><rect width="399" height="189" x=".5" y=".5" stroke="#E8E9EB" rx="4"/><path fill="#595959" fill-rule="nonzero" d="M80.049 70c22.128 0 40.06 17.91 40.06 39.999 0 22.09-17.932 40.001-40.06 40.001C57.932 150 40 132.09 40 109.999 40 87.91 57.932 70 80.049 70zm0 3.09c-20.413 0-36.954 16.523-36.954 36.909s16.54 36.91 36.954 36.91c20.418 0 36.962-16.524 36.962-36.91 0-20.386-16.544-36.909-36.962-36.909zm2.555 8.171s.92 1.677 5.22.912c3.555-.635 5.522.29 5.522 1.479 0 0 2.529.302 3.657 1.033 1.13.73-.068 2.557-.068 2.557-.173-.336-.413-.534-1.097-.683 0 0-2.733-.703-3.685 1.075-2.077.178-3.872 1.42-4.717 3.11-.045.1-.836 1.663-.345 4.818.258 1.657 1.077 3.062 2.242 4.26.508.524 1.141.86 1.91.772 1.215-.14 2.224-.722 3.092-1.58.475-.471.621-1.008.257-1.626-.048-.082-.076-.175-.11-.268-1.074-2.596-.176-4.894 1.65-6.254 1.343-.997 2.891-1.115 4.465-.892 10.38 1.462 10.728 11.947 10.728 15.181v.953c.01 8.644.141 14.73.207 15.936.104 1.897.765 2.295 1.187 2.594-.662.457-6.065-1.242-7.362-2.853-.088-.107-.266-.153-.402-.19-3.219-.747-3.224-4.109-3.287-5.128-2.693 0-3.736-2.938-4.021-3.702a9.255 9.255 0 01-.486-2.123c0 1.431-2.117 2.659-4.395.378 0 2.346-2.795 1.93-4.185.542-.122.474-.893 1.682-.893 1.682 1.596.291 2.314.641 3.069 1.301 1.769 1.553 1.97 4.144 1.97 5.481 0 0 2.436 2.377 3.4 3.257.285.266.599.497.912.734 2.499-2.794 3.33-1.704 3.327-1.696 1.848-.745 2.871.573 2.467 1.245-.433-.489-1.13-.345-1.552.034 2.496.42 1.914 2.249 1.24 2.633 0-.525-.163-1.11-.949-1.163.04.807-.505.948-1.023.968-1.238.054-3.303.11-3.934.725-.361.35-.186 1.378-.573 1.728a1.02 1.02 0 01-.703.256h-.142c-.06.379.053.805.534 1.307-1.798.147-3.143-1.433-2.253-2.277.373-.353 1.628-1.541 1.693-2.06.082-.551-.5-1.17-.904-1.528-.865-.77-1.798-1.459-2.716-2.173a6.864 6.864 0 00-.893-.57 1.2 1.2 0 00-.916-.099c-.69.215-.68.198-.859.08-.678-.447-1.905-1.451-4.457-1.734.17.108.289.22.388.353.135.192.234.42.378.731.167.353.294.714.444 1.067 1.65 3.9 3.284 7.73 4.929 11.631.545 1.29.059 2.419-1.272 3.04-.97.451-2.074.209-2.724-.728.186.643.274 1.2.01 1.735-.26.537-.68.92-1.231 1.155a2.955 2.955 0 01-1.738.2c-.591-.118-.984-.508-1.286-1.08-.051 1.272-.89 2.203-2.275 2.203-1.385 0-2.224-.931-2.275-2.204-.303.573-.695.963-1.286 1.081a2.955 2.955 0 01-1.738-.2 2.344 2.344 0 01-1.232-1.155c-.263-.536-.176-1.09.01-1.735-.65.937-1.754 1.18-2.723.728-1.332-.621-1.818-1.75-1.272-3.04 1.645-3.9 3.278-7.73 4.929-11.63.15-.354.276-.715.443-1.068.144-.313.24-.542.376-.73.099-.133.218-.246.39-.354-2.552.28-3.781 1.287-4.457 1.733-.178.119-.17.136-.859-.079a1.194 1.194 0 00-.915.1 6.464 6.464 0 00-.894.57c-.918.713-1.85 1.405-2.715 2.172-.405.359-.987.977-.905 1.527.062.517 1.32 1.708 1.693 2.06.89.845-.455 2.428-2.252 2.278.48-.502.59-.928.531-1.306-.178-.003-.52.03-.842-.257-.39-.35-.215-1.378-.574-1.728-.633-.615-2.699-.671-3.934-.725-.517-.02-1.062-.16-1.023-.968-.788.05-.95.635-.95 1.163-.675-.384-1.254-2.216 1.241-2.633-.42-.379-1.122-.523-1.551-.034-.404-.672.619-1.99 2.467-1.245-.006-.008.828-1.095 3.326 1.696.314-.237.628-.468.913-.734.9-.819 3.082-2.946 3.369-3.226l.03-.03c0-1.336.201-3.926 1.968-5.482.757-.66 1.475-1.01 3.072-1.3 0 0-.772-1.209-.893-1.683-1.39 1.392-4.186 1.804-4.186-.542-2.278 2.278-4.394 1.053-4.394-.378a9.255 9.255 0 01-.486 2.123c-.286.764-1.329 3.702-4.022 3.702-.062 1.02-.068 4.378-3.287 5.129-.135.034-.313.082-.401.189-1.3 1.614-6.7 3.31-7.365 2.853.421-.302 1.083-.697 1.187-2.594.068-1.25.206-7.741.206-16.889v-.117c.01-3.362.473-13.62 10.731-15.064 1.574-.223 3.123-.105 4.465.892 1.826 1.36 2.725 3.658 1.65 6.254-.033.093-.061.186-.11.268-.364.618-.217 1.155.258 1.626.867.858 1.876 1.44 3.092 1.58.768.088 1.401-.248 1.91-.773 1.164-1.197 1.956-2.605 2.241-4.259.54-3.141-.3-4.719-.345-4.818-.845-1.69-2.64-2.932-4.716-3.11-.953-1.778-3.686-1.075-3.686-1.075-.684.15-.924.347-1.1.683 0 0-1.195-1.826-.067-2.557 1.13-.731 3.66-1.033 3.66-1.033 0-1.188 1.967-2.114 5.52-1.48 4.298.766 5.222-.91 5.222-.91.178 2.054-1.393 3.112-1.896 3.4 1.63 1.767 3.908 5.298 4.45 10.307.543-5.01 2.821-8.54 4.452-10.307-.506-.288-2.074-1.346-1.896-3.4zm87.383 22.757c4.154 0 7.037 2.046 7.037 6.985v9.8c0 2.018.432 2.489 1.26 2.489.286 0 .718-.082.953-.16l.234.95c-1.26.632-2.447.754-2.964.754-1.303 0-2.131-.593-2.45-1.742l-.235-.863c-2.137 1.696-4.471 2.605-6.41 2.605-3.603 0-5.94-1.9-5.94-5.219 0-3.556 2.656-5.218 6.293-5.884l4.03-.754c1.351-.237 2.07-.632 2.07-1.617 0-4.304-1.824-5.41-4.83-5.41-2.332 0-4.079.671-5.342 3.242h-.478v-2.458c1.546-1.891 4.39-2.718 6.772-2.718zm119.12 0c2.06 0 4.31.392 6.845 1.736l-.986 2.958h-.478c-1.385-2.25-3.32-3.159-5.497-3.159-4.632 0-6.845 4.465-6.845 8.809 0 5.015 2.764 8.927 7.673 8.927 1.628 0 3.09-.234 5.381-2.726l.36.434-.478 1.936c-1.908 1.268-4.033 1.9-6.486 1.9-6.175 0-10.208-4.307-10.208-10.392 0-6.359 4.352-10.423 10.72-10.423zm-23.304 0c6.014 0 9.776 4.344 9.776 10.265 0 6.048-3.929 10.55-10.13 10.55-6.09 0-9.893-4.462-9.893-9.994 0-6.556 4.19-10.821 10.247-10.821zm43.285 0c2.057 0 4.31.392 6.842 1.736l-1 2.958h-.47c-1.379-2.25-3.318-3.159-5.491-3.159-4.635 0-6.85 4.465-6.85 8.809 0 5.015 2.778 8.927 7.678 8.927 1.614 0 3.083-.234 5.375-2.726l.35.434-.468 1.936c-1.897 1.268-4.039 1.9-6.486 1.9-6.17 0-10.203-4.307-10.203-10.392 0-6.359 4.355-10.423 10.723-10.423zm28.518.392c-.308 2.854-.36 7.571-.364 9.751v.606c.006 1.973.065 6.822.364 9.631a14.73 14.73 0 00-1.82-.115c-.676 0-1.461.04-2.063.115.306-2.906.358-7.995.361-9.825v-.172c0-2.057-.045-4.577-.073-5.413-2.699 2.73-9.823 12.055-12.07 15.41a5.207 5.207 0 00-1.145-.115c-.24 0-.952.07-1.269.115.307-2.906.356-7.995.36-9.825v-.172c0-2.015-.043-7.027-.36-9.99.676.039 1.54.118 2.015.118.436 0 1.264-.08 1.863-.119-.293 2.744-.344 7.211-.35 9.489v.502c0 1.66.033 3.988.07 5.098 2.179-2.645 9.934-12.48 11.796-15.089.421.077.701.119 1.179.119.234 0 1.062-.08 1.506-.119zm22.394 0c-.294 2.854-.347 7.571-.35 9.751v.24c0 1.66.045 6.994.35 9.997a14.592 14.592 0 00-1.82-.115c-.67 0-1.467.04-2.052.115.296-2.809.345-7.658.35-9.631v-.366c0-2.057-.033-4.577-.07-5.413-2.69 2.73-9.824 12.055-12.076 15.41a5.04 5.04 0 00-1.136-.115c-.24 0-.952.07-1.26.115.288-2.809.343-7.658.35-9.631v-.86c-.008-2.252-.065-6.753-.35-9.497.666.04 1.531.119 2.006.119.435 0 1.269-.08 1.862-.119-.293 2.744-.343 7.211-.35 9.489v.502c0 1.66.034 3.988.07 5.098 2.18-2.645 9.926-12.48 11.786-15.089.435.077.715.119 1.19.119.234 0 1.07-.08 1.5-.119zm-137.727 0l-9.454 8.453c1.193 1.42 7.472 8.496 10.318 11.535-1.062-.076-1.814-.115-2.368-.115-.715 0-1.783.04-2.611.115-1.464-2.291-5.935-7.544-8.382-10.234h-.64c0 1.465.038 7.231.343 10.234a14.254 14.254 0 00-1.812-.115c-.664 0-1.455.04-2.06.115.315-2.906.367-7.995.37-9.825v-.172c0-2.015-.045-7.027-.37-9.99.681.036 1.554.118 2.03.118.423 0 1.257-.08 1.842-.119-.305 2.964-.342 7.976-.342 8.693h.639c1.302 0 7.986-7.59 8.622-8.693.551.04 1.455.119 1.93.119.404 0 1.354-.08 1.945-.119zm-22.033 0c-.307 2.854-.355 7.571-.359 9.751v.606c.007 1.973.06 6.822.36 9.631a14.568 14.568 0 00-1.824-.115c-.67 0-1.464.04-2.051.115.31-3.003.353-8.337.353-9.596-1.741-.124-4.115-.28-5.025-.28-1.077 0-3.716.071-5.307.193 0 1.346.045 6.677.359 9.683a14.58 14.58 0 00-1.818-.115c-.672 0-1.464.04-2.06.115.304-2.906.35-7.995.353-9.825v-.172c0-2.015-.04-7.027-.353-9.99.673.036 1.549.118 2.026.118.436 0 1.26-.08 1.854-.119-.313 3-.359 7.976-.359 8.174 1.665.082 4.073.164 5.35.164 1.303 0 3.796-.08 4.983-.164v-.07c-.005-.657-.058-5.288-.354-8.104.662.04 1.538.119 2.01.119.44 0 1.269-.08 1.862-.119zm-60.185-8.735c2.533.121 6.72.356 7.64.356 2.207 0 6.711-.198 9.286-.353a12.534 12.534 0 00-.119 1.422c0 .274.082.91.119 1.341-2.298-.316-6.093-.55-7.272-.55-.828 0-4.038.076-5.776.234v9.92h2.015c4.12 0 12.785.788 12.785 7.937 0 5.806-4.87 8.453-11.273 8.413-.718 0-3.403-.115-5.115-.115-.744 0-1.654.04-2.29.115.23-4.12.309-9.725.316-14.536v-1.922c-.006-4.4-.053-10.268-.316-12.262zm96.56 0c1.311.037 3.092.121 4.002.121 1.376 0 3.165-.118 4.185-.118 7.32 0 10.174 2.213 10.174 7.186 0 6.446-5.426 8.495-11.86 8.495-.36 0-1.869-.076-2.624-.158v6.83c0 1.976.08 4.389.323 6.364a17.925 17.925 0 00-2.021-.115c-.718 0-1.546.04-2.179.115.243-4.346.322-10.355.322-15.33 0-4.463-.04-11.22-.322-13.39zm29.07 9.878c-4.274 0-6.368 4.465-6.368 9.165 0 4.465 1.86 8.571 6.05 8.571 4.037 0 6.453-3.872 6.453-9.164 0-4.268-1.665-8.572-6.136-8.572zm-91.82 8.65l-2.618.393c-2.849.438-6.017 1.423-6.017 4.431 0 2.29 1.272 3.514 3.838 3.514 1.586 0 3.168-.556 4.796-2.252v-6.085zm-29.932-4.072v11.976c1.029.04 2.25.079 3.36.079 4.672 0 7.39-2.176 7.39-6.246 0-4.383-3.236-5.809-10.75-5.809zm100.084-12.24c-.667 0-2.968.036-3.525.118v11.095c.484.087 1.27.164 1.665.164 5.54 0 8.784-2.213 8.784-6.404 0-3.91-3.087-4.973-6.924-4.973z"/><path fill="#8F96A3" fill-rule="nonzero" d="M46.16 49v-.984h-1.656V40.6h-1.128l-2.016 1.452v1.236l2.016-1.452v6.18H41.36V49h4.8zm4.44.12c.432 0 .838-.068 1.218-.204.38-.136.71-.37.99-.702.28-.332.502-.774.666-1.326.164-.552.246-1.244.246-2.076v-.24c0-.776-.076-1.426-.228-1.95-.152-.524-.366-.944-.642-1.26a2.335 2.335 0 00-.984-.678 3.736 3.736 0 00-1.266-.204c-.424 0-.826.068-1.206.204-.38.136-.712.362-.996.678-.284.316-.508.736-.672 1.26-.164.524-.246 1.174-.246 1.95v.24c0 .832.084 1.524.252 2.076.168.552.394.994.678 1.326.284.332.614.566.99.702a3.5 3.5 0 001.2.204zm0-1.008c-.24 0-.478-.046-.714-.138a1.498 1.498 0 01-.636-.504c-.188-.244-.342-.58-.462-1.008-.12-.428-.18-.978-.18-1.65v-.24c0-.624.06-1.134.18-1.53.12-.396.274-.71.462-.942.188-.232.4-.392.636-.48a2.03 2.03 0 01.714-.132c.272 0 .53.044.774.132.244.088.456.248.636.48.18.232.322.546.426.942.104.396.156.906.156 1.53v.24c0 .68-.058 1.234-.174 1.662-.116.428-.268.764-.456 1.008s-.402.41-.642.498a2.08 2.08 0 01-.72.132zm5.712.888v-4.62l1.848 3.18H59l1.848-3.18V49h1.032v-6.36h-1.032l-2.232 3.9-2.232-3.9H55.28V49h1.032zm8.52 0v-4.62l1.848 3.18h.84l1.848-3.18V49H70.4v-6.36h-1.032l-2.232 3.9-2.232-3.9H63.8V49h1.032zm11.52 0l3.396-4.8V49h1.032v-6.36h-1.032l-3.396 4.8v-4.8H75.32V49h1.032zm9.912-5.24c.04-.336.105-.628.198-.874.116-.308.276-.558.48-.75.204-.192.452-.332.744-.42a3.8 3.8 0 011.014-.144 16.441 16.441 0 001.398-.084c.34-.04.574-.096.702-.168V40.3c-.264.136-.584.214-.96.234-.376.02-.816.042-1.32.066-.624.032-1.142.16-1.554.384a2.679 2.679 0 00-.996.93c-.252.396-.43.876-.534 1.44a10.693 10.693 0 00-.156 1.926v.24c0 .568.078 1.076.234 1.524.156.448.368.826.636 1.134.268.308.584.542.948.702.364.16.758.24 1.182.24.432 0 .832-.076 1.2-.228.368-.152.684-.37.948-.654.264-.284.472-.624.624-1.02a3.71 3.71 0 00.228-1.338v-.24c0-.464-.068-.882-.204-1.254a2.677 2.677 0 00-.57-.942 2.532 2.532 0 00-.87-.594 2.874 2.874 0 00-1.116-.21c-.528 0-.992.124-1.392.372a2.26 2.26 0 00-.888 1.008v-.001l.024-.26zm2.016 4.424c-.264 0-.514-.054-.75-.162a1.831 1.831 0 01-.618-.462 2.264 2.264 0 01-.42-.726 2.759 2.759 0 01-.156-.954v-.24c0-.312.048-.594.144-.846a1.862 1.862 0 011.026-1.068c.236-.1.494-.15.774-.15s.538.05.774.15a1.862 1.862 0 011.026 1.068c.096.252.144.534.144.846v.24c0 .368-.048.696-.144.984-.096.288-.232.53-.408.726a1.73 1.73 0 01-.618.444c-.236.1-.494.15-.774.15zm7.14.936c.408 0 .796-.066 1.164-.198.368-.132.692-.332.972-.6.28-.268.504-.606.672-1.014.168-.408.252-.884.252-1.428v-.24c0-.512-.084-.964-.252-1.356a2.839 2.839 0 00-.672-.978 2.803 2.803 0 00-.972-.588 3.421 3.421 0 00-1.164-.198c-.408 0-.796.066-1.164.198a2.803 2.803 0 00-.972.588c-.28.26-.504.586-.672.978-.168.392-.252.844-.252 1.356v.24c0 .544.084 1.02.252 1.428.168.408.392.746.672 1.014s.604.468.972.6c.368.132.756.198 1.164.198zm0-.936c-.248 0-.492-.042-.732-.126a1.723 1.723 0 01-.642-.402 2.032 2.032 0 01-.456-.714c-.116-.292-.174-.646-.174-1.062v-.24c0-.384.058-.714.174-.99.116-.276.268-.502.456-.678a1.8 1.8 0 01.642-.39 2.201 2.201 0 011.464 0 1.8 1.8 0 01.642.39c.188.176.34.402.456.678.116.276.174.606.174.99v.24c0 .416-.058.77-.174 1.062-.116.292-.268.53-.456.714a1.723 1.723 0 01-.642.402c-.24.084-.484.126-.732.126zm3.78.936c.352 0 .666-.058.942-.174.276-.116.51-.318.702-.606.192-.288.338-.676.438-1.164.1-.488.15-1.104.15-1.848v-1.776h2.592V49h1.056v-6.36h-4.68v2.46c0 1.032-.084 1.788-.252 2.268-.168.48-.484.72-.948.72v1.032zm10.38 0c.32 0 .626-.04.918-.12.292-.08.554-.198.786-.354.232-.156.43-.35.594-.582.164-.232.278-.5.342-.804h-.948c-.064.288-.236.514-.516.678-.28.164-.672.246-1.176.246-.224 0-.452-.038-.684-.114a1.745 1.745 0 01-.624-.36 1.909 1.909 0 01-.456-.636c-.12-.26-.18-.574-.18-.942h4.704v-.792c0-.88-.25-1.57-.75-2.07-.5-.5-1.19-.75-2.07-.75-.392 0-.766.062-1.122.186a2.517 2.517 0 00-.936.576c-.268.26-.482.586-.642.978-.16.392-.24.852-.24 1.38v.24c0 .544.084 1.02.252 1.428.168.408.39.746.666 1.014s.594.468.954.6c.36.132.736.198 1.128.198zm1.764-3.852h-3.708c0-.32.056-.596.168-.828a1.63 1.63 0 011.032-.882 2.342 2.342 0 011.374 0c.22.068.412.174.576.318.164.144.296.332.396.564.1.232.154.508.162.828zm5.076 3.852c.32 0 .626-.04.918-.12.292-.08.554-.198.786-.354.232-.156.43-.35.594-.582.164-.232.278-.5.342-.804h-.948c-.064.288-.236.514-.516.678-.28.164-.672.246-1.176.246-.224 0-.452-.038-.684-.114a1.745 1.745 0 01-.624-.36 1.909 1.909 0 01-.456-.636c-.12-.26-.18-.574-.18-.942h4.704v-.792c0-.88-.25-1.57-.75-2.07-.5-.5-1.19-.75-2.07-.75-.392 0-.766.062-1.122.186a2.517 2.517 0 00-.936.576c-.268.26-.482.586-.642.978-.16.392-.24.852-.24 1.38v.24c0 .544.084 1.02.252 1.428.168.408.39.746.666 1.014s.594.468.954.6c.36.132.736.198 1.128.198zm1.764-3.852h-3.708c0-.32.056-.596.168-.828a1.63 1.63 0 011.032-.882 2.342 2.342 0 011.374 0c.22.068.412.174.576.318.164.144.296.332.396.564.1.232.154.508.162.828z"/><path fill="#8F96A3" d="M120 62h-1v-2H41v2h-1v-5h1v2h78v-2h1v5z"/></g></svg>