<svg xmlns="http://www.w3.org/2000/svg" width="496" height="214"><g fill="none" fill-rule="evenodd"><rect width="495" height="213" x=".5" y=".5" stroke="#E8E9EB" rx="4"/><path fill="#595959" fill-rule="nonzero" d="M92.049 70c28.757 0 52.063 23.283 52.063 52 0 28.718-23.306 52-52.063 52C63.306 174 40 150.718 40 122c0-28.717 23.306-52 52.049-52zm0 4.017c-26.527 0-48.025 21.48-48.025 47.983 0 26.5 21.498 47.983 48.025 47.983 26.533 0 48.039-21.483 48.039-47.983 0-26.503-21.506-47.983-48.04-47.983zm11.585 12.35c.999-.186 2.151-.215 2.778-.09 1.885.368 2.932 1.471 2.932 1.471 1.669.187 2.439.344 3.39.889.876.506 1.492 1.772 1.301 2.69-1.09-.57-2.286-1.018-3.481-.46 0 0 1.387.842 2.277 1.052.449.11 1.764.272 2.324-.167 1.066-.842.344-2.055.344-2.055 1.445.86 1.009 3.02-.947 3.33-2.358.383-3.955-.635-5.06-1.017.435.172.943.87 1.057 1.237 0 0-.483-.784-3.601.115-.464.134-1.282.233-1.74.354-1.69.439-2.569 1.638-2.406 2.999-.374-.377-.565-.917-.565-.917s-.525.922-.013 2.59c-.417-.206-.756-.793-.756-.793-.187.215-.43 1.237-.484 2.13-.072 1.32.034 2.203.235 3.507.33 2.155 1.406 3.98 2.907 5.537.665.688 1.497 1.123 2.473 1.008 1.593-.181 2.908-.94 4.022-2.055.622-.62.818-1.313.344-2.115-.062-.106-.1-.225-.148-.344-1.392-3.378-.224-6.369 2.152-8.142 1.74-1.29 3.75-1.394 5.8-1.155 1.555.186 2.928.883 4.344 1.476.794.334 1.62.597 2.438.864.273.09.58.096.856.177.522.157.674.502.488 1.004-.033.085-.086.162-.134.257.823.378 1.737 1.471 2.162 2.122 1.291 1.973 2.023 5.15 2.08 6.01a2.849 2.849 0 01-.387-.014c1.09 1.361 1.698 5.833 2.1 7.84.114.597.234 1.19.368 1.843-.383-.038-.65-.08-1-.204.115.324.88 1.762.57 5.627-.216 2.785.378 4.578.592 5.026-.372 0-.88-.138-1.18-.397.444.722.922 2.714.941 4.3.02 1.806-.105 4.137-.023 5.762.128 2.466.994 2.977 1.54 3.373-.684.178-1.574.059-2.2-.414-.465-.35-.737-.364-1.344-.378-1.038-.02-1.856-.497-2.617-1.166a1.913 1.913 0 00-1.042-.444c-1.11-.096-1.607-.526-2.362-1.31-.13-.129-.35-.2-.526-.244-4.185-.969-4.195-5.336-4.276-6.668-.608-.08-1.353-.783-1.693-1.31-.062-.095-.182-.223-.335-.175-1.703.525-2.83-2.337-3.194-3.33a12.11 12.11 0 01-.641-2.758v.002l-.008.062c-.13.753-1.411 1.919-2.615.086l-.103-.164c.004 3.094-2.392 2.55-2.98.506-.622 3.746-3.28 1.973-3.252-.831l-.001.027-.004.213c-.12 3.924-2.525 3.407-2.496 2.193l.005-.073c-.157.615-.846 1.36-.846 1.36 6.13 1.104 4.375 4.286 7.068 5.883-.938.324-1.78-.202-1.616.047a6.694 6.694 0 011.09 2.89s3.166 3.087 4.423 4.237c.484.44 1.015.83 1.536 1.227.148.117.363.244.573.346.04-.163.048-.311.063-.392.248-1.018.526-2.026 1.162-2.887.875-1.17 2.152-1.466 3.395-.688.488.31.952.416 1.507.416.97.005 1.802.911 1.779 1.872-.732-.496-1.574-.248-1.913.144 1.55.306 2.372 1.72 1.917 2.608a1.154 1.154 0 00-.454-.482c-.66-.362-1.238-.147-1.387.215-.32.807-1.004 1.047-1.76 1.138-1.353.157-2.682.243-4.084.42-1.913.248-1.85 1.542-2.218 2.44a1.654 1.654 0 01-1.522 1.014c-.33 0-.63-.1-.89-.263-.162.52-.009 1.103.56 1.219-.463.171-1.367-.138-1.664-.765-.54-1.132-.301-2.036.65-2.852.082-.066.163-.133.25-.201.042-.037.085-.075.138-.109.258-.21.526-.425.765-.664.416-.402.498-.88.186-1.367-.281-.443-.612-.884-1.008-1.213-1.149-.975-2.34-1.9-3.53-2.828a8.888 8.888 0 00-1.157-.746c-.325-.176-.784-.277-1.196-.128-.918.328-1.45-.088-1.674-.26-.134-.099-1.406-1.36-5.226-1.887.54.34.774.871.994 1.41.187.464.373.927.569 1.391 2.148 5.065 4.27 10.048 6.418 15.116.703 1.673.076 3.144-1.66 3.952-1.267.588-2.696.277-3.548-.946v.001l.059.206c.187.68.263 1.29.04 1.873l-.075.174a3.103 3.103 0 01-1.597 1.505c-.694.301-1.516.411-2.272.259-.765-.158-1.272-.66-1.66-1.405-.066 1.657-1.095 2.636-2.52 2.828v.029c-.11.01-.225.015-.34.015-.033 0-.071-.006-.11-.006-.038 0-.07.006-.104.006-.115 0-.23-.006-.34-.015v-.029c-1.426-.191-2.454-1.17-2.525-2.828-.383.746-.89 1.247-1.66 1.405-.75.152-1.578.042-2.276-.259-.699-.305-1.248-.803-1.588-1.505-.34-.692-.23-1.418.02-2.254l-.002.001-.117.16c-.813 1.036-2.087 1.32-3.252.86l-.174-.075c-1.736-.808-2.361-2.28-1.66-3.952 2.144-5.069 4.267-10.052 6.419-15.116.196-.464.373-.927.565-1.39.224-.54.459-1.07.994-1.41-3.821.526-5.093 1.787-5.227 1.887-.22.172-.75.587-1.674.259-.411-.149-.865-.048-1.195.128-.402.225-.8.464-1.158.746-1.186.927-2.376 1.854-3.524 2.828-.398.33-.728.77-1.014 1.213-.302.488-.226.965.19 1.367a9.74 9.74 0 00.904.773l.244.2c.957.818 1.191 1.72.651 2.853-.301.627-1.196.936-1.669.765.579-.116.732-.699.564-1.22a1.67 1.67 0 01-.89.264 1.64 1.64 0 01-1.515-1.013c-.368-.898-.311-2.193-2.23-2.44-1.39-.178-2.716-.264-4.073-.421-.761-.091-1.435-.33-1.76-1.138-.144-.362-.732-.577-1.387-.215a1.202 1.202 0 00-.46.482c-.449-.888.369-2.302 1.923-2.608-.335-.392-1.18-.64-1.918-.144-.023-.96.81-1.867 1.785-1.872.554 0 1.018-.105 1.51-.416 1.234-.777 2.516-.482 3.386.688.642.86.919 1.87 1.158 2.887.02.08.033.228.071.392.211-.102.421-.23.575-.346.526-.396 1.052-.787 1.53-1.227 1.257-1.15 4.423-4.237 4.423-4.237.153-1.022.435-1.887 1.096-2.89.162-.248-.68.277-1.617-.047 2.688-1.597.938-4.78 7.06-5.882 0 0-.685-.745-.833-1.361.12 1.29-2.477 1.906-2.496-2.36l-.001.027v.122c-.073 2.667-2.558 4.3-3.226.878l-.035-.196c-.584 2.045-2.98 2.59-2.98-.506-1.262 2.121-2.658.784-2.72.014l-.001.002-.05.392c-.096.662-.26 1.353-.464 1.989l-.126.374c-.37.994-1.493 3.856-3.195 3.33-.154-.048-.278.08-.33.176-.34.527-1.086 1.23-1.703 1.31-.077 1.332-.09 5.7-4.275 6.668-.172.044-.397.115-.521.244-.756.784-1.254 1.214-2.368 1.31-.358.033-.77.2-1.042.444-.756.669-1.578 1.147-2.606 1.166-.618.014-.886.028-1.354.378-.627.472-1.516.591-2.2.414.555-.396 1.41-.908 1.54-3.373.09-1.625-.038-3.956-.019-5.762.02-1.586.492-3.578.942-4.3-.301.259-.803.397-1.186.397.22-.449.813-2.24.588-5.026-.301-3.865.47-5.303.584-5.627-.36.124-.622.166-1.004.204.128-.654.243-1.246.368-1.844.401-2.006 1.009-6.478 2.095-7.84 0 0-.22.024-.388.015.057-.86.789-4.037 2.085-6.01.43-.65 1.334-1.744 2.162-2.122-.043-.095-.1-.172-.134-.257-.187-.502-.034-.847.487-1.004.277-.081.58-.086.856-.177.818-.267 1.64-.53 2.435-.864 1.415-.593 2.792-1.29 4.342-1.476 2.056-.239 4.065-.135 5.806 1.155 2.382 1.773 3.544 4.764 2.152 8.142-.048.12-.086.238-.148.344-.473.802-.283 1.495.344 2.115 1.114 1.114 2.434 1.874 4.017 2.055.98.115 1.813-.32 2.473-1.008 1.507-1.557 2.582-3.382 2.917-5.537.196-1.304.301-2.187.23-3.507-.049-.893-.297-1.915-.488-2.13 0 0-.335.587-.751.793.507-1.668-.014-2.59-.014-2.59s-.196.54-.57.917c.164-1.361-.716-2.56-2.405-3-.454-.12-1.277-.22-1.74-.353-3.119-.899-3.606-.115-3.606-.115.124-.368.626-1.065 1.07-1.237-1.109.382-2.706 1.4-5.069 1.017-1.956-.31-2.392-2.47-.941-3.33 0 0-.728 1.213.343 2.055.564.439 1.876.277 2.324.167.801-.19 2.001-.89 2.233-1.027l.04-.024c-1.191-.56-2.387-.11-3.482.458-.187-.917.43-2.183 1.305-2.689.948-.545 1.717-.702 3.39-.889 0 0 1.048-1.103 2.928-1.471.631-.125 1.784-.096 2.783.09 1.583.301 2.281.636 3.764 1.014 1.143.286 3.931.926 6.088-.512.019-.01-.794 1.82-2.86 2.341.57.172 1.65.02 2.463-.396-.373.516-1.067 1.275-2.147 1.624.315.32 1.377.387 1.966.067-.642.769-1.12 1.065-1.818 1.204 2.085 2.322 3.295 5.264 4.118 10.75l-.001-.004.064-.471c.697-5 1.956-7.846 3.877-10.069l.182-.206c-.699-.139-1.176-.435-1.817-1.204.588.32 1.65.253 1.96-.067-1.08-.349-1.774-1.108-2.137-1.624.808.415 1.884.568 2.463.396-2.076-.52-2.88-2.35-2.87-2.34 2.167 1.437 4.95.797 6.093.51 1.487-.377 2.18-.712 3.764-1.013zm-12.396 51.288a.54.54 0 00-.55.492c-.244 3.646-.995 16.357-1.148 19.636 0 .038-.005.076-.005.12-.004.047-.01.094-.01.138-.004.037-.004.07-.004.11-.058 1.476 1.076 2.488 2.535 2.412 1.463.077 2.601-.936 2.53-2.413v-.248l-.015-.119c-.148-3.279-.899-15.99-1.143-19.636a.54.54 0 00-.55-.492.55.55 0 00-.554.545c-.004 3.518-.002 11.414-.001 15.248v2.123c0 .124.024.262-.018.368-.053.123-.154.218-.25.324-.085-.105-.196-.2-.243-.324-.044-.106-.02-.244-.02-.368-.004-.836.004-12.034-.003-16.9v-.471a.547.547 0 00-.551-.545zm-2.669-.832a.443.443 0 00-.493.368c-.291 1.533-3.323 14.56-4.107 18.91-.244 1.337.368 2.355 1.65 2.808 1.654.588 3.204-.3 3.338-1.953.2-2.543 1.1-15.967 1.267-19.076a.45.45 0 00-.895-.062c-.272 2.125-1.936 13.516-2.266 16.224-.02.153-.02.32-.086.454-.058.12-.196.2-.301.3-.072-.124-.177-.233-.211-.362-.033-.116.01-.254.024-.378.1-.856 2.027-13.024 2.477-16.731a.458.458 0 00-.397-.502zm7.065-.003l-.087.002a.452.452 0 00-.397.502c.45 3.707 2.377 15.876 2.477 16.731.014.124.058.263.024.378-.033.13-.139.239-.215.363-.105-.1-.24-.181-.296-.301-.072-.133-.068-.301-.082-.454-.335-2.708-2.004-14.099-2.271-16.224a.449.449 0 00-.895.063c.162 3.109 1.067 16.533 1.267 19.076.13 1.653 1.688 2.541 3.334 1.953 1.286-.453 1.898-1.47 1.655-2.81-.785-4.348-3.822-17.375-4.104-18.91a.456.456 0 00-.497-.367zm-9.202-1.393a.424.424 0 00-.512.264c-.521 1.384-5.538 12.923-7.063 17.075-.465 1.276-.053 2.375 1.085 3.039 1.482.85 3.128.229 3.539-1.371.646-2.47 3.587-14.778 4.256-17.654a.422.422 0 00-.282-.491.413.413 0 00-.52.29c-.599 1.944-3.961 12.053-4.75 14.672-.048.148-.072.31-.162.43-.072.11-.22.168-.34.248-.053-.134-.125-.258-.14-.396-.009-.115.054-.24.092-.364.248-.826 4.046-11.823 5.064-15.215a.41.41 0 00-.267-.527zm11.332-.014l-.08.015a.42.42 0 00-.277.527c1.028 3.392 4.82 14.389 5.074 15.215.039.124.1.249.086.364-.01.138-.086.262-.139.396-.114-.08-.257-.139-.339-.248-.086-.12-.11-.282-.158-.43-.798-2.619-4.15-12.728-4.753-14.672a.413.413 0 00-.517-.29.421.421 0 00-.282.491c.674 2.876 3.61 15.184 4.252 17.654.416 1.6 2.06 2.221 3.534 1.37 1.152-.664 1.564-1.763 1.095-3.038-1.526-4.153-6.552-15.69-7.063-17.076a.421.421 0 00-.512-.263zm-25.058 7.917c-.053.41-.282.784-.655.989-.187.1-.392.148-.593.148a1.35 1.35 0 01-.488-.095c.029.08.048.162.072.248.033.11.191.659.21.726a1.373 1.373 0 001.325 1.023c.411 0 .78-.187 1.028-.477.469.906.052 1.404.052 1.404s.421-.143.665-.726c.22-.512.264-1.376-.406-2.185-.268-.318-.627-.554-.951-.82-.091-.077-.177-.158-.259-.235zm38.704.001c-.081.076-.167.158-.263.234-.32.267-.68.502-.947.82-.67.81-.626 1.675-.411 2.185.253.584.67.727.67.727s-.417-.498.047-1.405c.254.29.622.477 1.038.477a1.37 1.37 0 001.32-1.022c.019-.067.181-.616.21-.726.019-.086.043-.168.067-.248a1.267 1.267 0 01-1.08-.053 1.286 1.286 0 01-.65-.989zm1.243-.952a.884.884 0 00-.875.885.88.88 0 10.875-.884zm-41.2 0a.88.88 0 100 1.762c.483 0 .88-.39.88-.877a.885.885 0 00-.88-.885zm-.574-.118c-.564.11-.79.263-1.224.777 0 0 .378.068.598.292 0 0-.091-.745.626-1.07zm42.358 0c.717.324.621 1.07.621 1.07.23-.225.598-.293.598-.293-.434-.515-.655-.668-1.219-.777zm1.927-.86a3.74 3.74 0 00-2.568.61c1.196-.08 1.813.545 1.97.688a.766.766 0 001.305-.54.76.76 0 00-.573-.735.427.427 0 00-.134-.023zm-43.649.61a3.734 3.734 0 00-2.563-.61.437.437 0 00-.14.023.76.76 0 00.197 1.495c.21 0 .392-.085.536-.219.163-.144.78-.769 1.97-.688zm45.309-1.131c-.24.105-.43.186-.546.224-.09.038-.325.096-.406.125.282.152.416.473.416.802 0 .25-.058.478-.158.664.249-.024.507-.057.775-.09.163-.029.296-.44.296-.841 0-.473-.172-.884-.377-.884zm-49.541 0c-.196 0-.368.41-.368.884 0 .4.133.812.296.84.268.034.526.067.77.091a1.453 1.453 0 01-.158-.664c0-.329.134-.65.421-.802-.081-.029-.316-.087-.406-.125a9.257 9.257 0 01-.555-.224zm-1.272-.54c-.244.062-.498.487-.498 1.079 0 .512.192.899.407 1.037.234.03.497.058.76.091a1.755 1.755 0 01-.172-.783c0-.45.144-.832.359-1.06-.263-.115-.555-.244-.856-.364zm52.09 0c-.297.12-.589.25-.857.364.215.228.364.611.364 1.06 0 .295-.067.563-.172.783.263-.033.516-.062.765-.091.215-.138.401-.525.401-1.036 0-.592-.253-1.017-.501-1.08zm1.061-.421c-.19.072-.397.149-.612.235.273.263.454.726.454 1.265 0 .374-.09.708-.234.97.22-.028.42-.054.573-.071.302-.138.537-.622.537-1.18 0-.66-.326-1.22-.718-1.22zm-54.213 0c-.387 0-.718.56-.718 1.219 0 .558.235 1.042.537 1.18.157.017.349.043.573.072a2.087 2.087 0 01-.23-.971c0-.54.183-1.003.46-1.265-.22-.086-.426-.162-.622-.235zm55.23-.25l-.137.003c-.08.01-.19.032-.31.066.33.276.55.793.55 1.4 0 .42-.106.793-.274 1.07.522-.157.838-.54 1.039-1.085.2-.531-.11-1.528-1.005-1.451zm-56.11.002c-.894-.076-1.205.92-1.004 1.452.206.545.516.928 1.042 1.085-.172-.278-.272-.65-.272-1.07 0-.608.22-1.124.55-1.401a2.315 2.315 0 00-.316-.066zm47.238-1.318c.357.734.6 1.523.7 2.221.135.87.805.85 1.182.72a4.92 4.92 0 011.486-.252h.04c-2.119-.702-3.568-3-3.568-3zm-38.345-.308l-.018.028c-.182.278-1.574 2.316-3.538 2.969 0 0 .756-.014 1.525.252.374.13 1.04.15 1.173-.72.119-.798.425-1.715.86-2.532l-.002.003zm1.503-1.45c-1.921 1.762-2.132 4.74-2.132 4.74a4.81 4.81 0 01.823-.961 2.47 2.47 0 00.579-.837c.1-.238.128-.627.177-.988a6.167 6.167 0 01.537-1.922zm35.185-.002s.416.793.555 1.954c.043.363.072.751.177.99.076.18.253.53.583.836.292.272.55.553.813.96 0 0-.21-2.976-2.128-4.74zM63.2 139.7c-.847-.062-1.75.664-1.78 1.462.302-.302.766-.41 1.254-.268-.086-.373.062-1.004.526-1.194zm57.848-.003l-.134.003c.463.19.611.821.535 1.194.483-.144.947-.034 1.249.268-.029-.798-.933-1.524-1.784-1.462zm88.002-25.802c5.397 0 9.145 2.665 9.145 9.082v12.738c0 2.62.564 3.233 1.64 3.233.369 0 .934-.103 1.238-.206l.306 1.237c-1.642.819-3.184.976-3.856.976-1.695 0-2.771-.771-3.183-2.262l-.305-1.124c-2.78 2.208-5.81 3.386-8.33 3.386-4.68 0-7.72-2.468-7.72-6.78 0-4.623 3.452-6.781 8.177-7.65l5.236-.977c1.757-.309 2.691-.824 2.691-2.104 0-5.6-2.368-7.037-6.277-7.037-3.03 0-5.3.873-6.94 4.215h-.619v-3.189c2.009-2.463 5.704-3.538 8.797-3.538zm180.778 0c2.673 0 5.604.511 8.895 2.258l-1.3 3.846h-.61c-1.793-2.924-4.312-4.107-7.138-4.107-6.024 0-8.903 5.805-8.903 11.453 0 6.52 3.613 11.604 9.979 11.604 2.098 0 4.008-.305 6.986-3.543l.457.565-.61 2.516c-2.465 1.648-5.246 2.469-8.43 2.469-8.015 0-13.26-5.599-13.26-13.508 0-8.268 5.658-13.553 13.934-13.553zm-56.255 0c7.817 0 12.705 5.647 12.705 13.346 0 7.86-5.103 13.714-13.163 13.714-7.918 0-12.858-5.8-12.858-12.992 0-8.523 5.452-14.068 13.316-14.068zm30.288 0c2.68 0 5.604.511 8.894 2.258l-1.282 3.846h-.62c-1.802-2.924-4.312-4.107-7.145-4.107-6.017 0-8.895 5.805-8.895 11.453 0 6.52 3.596 11.604 9.97 11.604 2.116 0 4.017-.305 6.995-3.543l.466.565-.62 2.516c-2.473 1.648-5.235 2.469-8.428 2.469-8.024 0-13.27-5.599-13.27-13.508 0-8.268 5.657-13.553 13.935-13.553zM116.55 139.54l-.045.002c-.307.425-.541.888-.632 1.352.358-.2.75-.41 1.167-.616a.706.706 0 00-.106-.42c-.138-.235-.339-.34-.43-.316zm-48.94.002c-.092-.024-.288.082-.427.315-.1.168-.124.325-.105.42.417.206.808.417 1.167.617-.09-.464-.325-.927-.636-1.352zm.765-.325c-.049.025-.087.043-.13.082a.518.518 0 00-.177.229c-.019.047-.019.09-.005.114.23.397.412.797.584 1.2v-.128a6.894 6.894 0 00-.124-.932l-.015-.074c-.043-.161-.086-.323-.133-.491zm47.374-.001c-.058.169-.1.33-.134.492-.043.179-.159.775-.148 1.133l-.001-.002.135-.3c.09-.2.186-.4.29-.6l.163-.298c.015-.024.015-.067-.004-.114a.522.522 0 00-.177-.229c-.043-.038-.086-.057-.124-.082zm-61.96-12.163c-.312-.024-.475.334-.494 1.195l-.177 5.279c-.01.234-.086.363-.23.353-.147-.01-.19-.169-.196-.344l.044-4.462c0-.841-.187-.985-.45-.813-.688.44-.846 3.87-.789 5.108.12 2.614.368 5.189-.76 7.07 0 0 3.568-.778 3.883-9.587.034-1.056-.024-3.742-.832-3.799zm76.6 0h-.059c-.808.057-.87 2.744-.832 3.799.31 8.81 3.883 9.587 3.883 9.587-1.129-1.882-.885-4.456-.76-7.07.057-1.237-.106-4.668-.794-5.108-.263-.173-.45-.028-.45.813l.044 4.462c-.005.176-.049.334-.192.344-.139.01-.225-.12-.23-.353l-.181-5.279c-.02-.861-.182-1.219-.488-1.195zm146.61-12.647l-12.285 10.991.187.221c1.93 2.263 9.654 10.957 13.227 14.774-1.38-.104-2.358-.152-3.076-.152-.933 0-2.323.048-3.399.152-1.9-2.98-7.71-9.809-10.894-13.307h-.824v.318c.005 2.31.065 9.274.448 12.989a17.848 17.848 0 00-2.358-.152c-.861 0-1.893.048-2.673.152.398-3.688.468-10.078.474-12.595v-.956c-.008-2.896-.08-8.832-.474-12.434.879.047 2.009.15 2.628.15.557 0 1.64-.103 2.403-.151-.404 3.851-.448 10.367-.448 11.299h.824c1.696 0 10.384-9.867 11.21-11.299.717.048 1.89.152 2.51.152.52 0 1.758-.104 2.52-.152zm-84.85-11.354c-.1.618-.154 1.595-.154 1.85 0 .358.108 1.182.153 1.746-2.986-.41-7.917-.716-9.451-.716-1.076 0-5.246.098-7.505.305v12.893h2.618c5.354 0 16.615 1.026 16.615 10.32 0 7.44-6.153 10.893-14.301 10.94h-.35c-.933 0-4.42-.151-6.645-.151-.968 0-2.151.049-2.976.152.313-5.653.413-13.459.413-19.93v-.791c-.005-5.778-.062-13.918-.413-16.618 3.29.157 8.733.461 9.925.461 2.87 0 8.725-.255 12.07-.46zM456 114.405c-.377 3.603-.448 9.495-.456 12.426v.965c.006 2.516.076 8.906.456 12.594a18.166 18.166 0 00-2.366-.152c-.871 0-1.903.049-2.664.152.412-3.905.458-10.84.458-12.997 0-2.67-.046-5.952-.1-7.036-3.497 3.547-12.76 15.667-15.69 20.033a6.592 6.592 0 00-1.481-.151c-.315 0-1.239.098-1.64.152.402-3.905.457-10.84.457-12.997 0-2.62-.055-9.137-.457-12.988.87.048 1.99.152 2.609.152.565 0 1.65-.104 2.42-.152-.385 3.603-.45 9.495-.456 12.426v.562c0 2.157.045 5.185.098 6.623 2.825-3.435 12.894-16.22 15.316-19.612.564.099.923.152 1.541.152.305 0 1.39-.103 1.955-.152zm-207.633.001c-.4 3.727-.463 9.904-.466 12.718v.27c0 2.158.053 9.092.466 12.997a18.082 18.082 0 00-2.368-.152c-.87 0-1.9.048-2.662.152.403-3.905.457-10.839.457-12.477-2.26-.163-5.345-.364-6.528-.364-1.399 0-4.833.1-6.895.256 0 1.747.054 8.68.466 12.585a18.186 18.186 0 00-2.367-.152c-.87 0-1.9.048-2.672.152.393-3.796.454-10.456.457-12.806v-.191c0-2.62-.053-9.137-.457-12.988.87.048 2.008.152 2.627.152.566 0 1.64-.104 2.412-.152-.412 3.897-.466 10.367-.466 10.627 2.16.104 5.29.206 6.949.206 1.694 0 4.932-.103 6.474-.206 0-.31-.054-6.776-.457-10.627.86.048 2 .152 2.609.152.573 0 1.65-.104 2.42-.152zm57.919-11.354c9.513 0 13.216 2.88 13.216 9.347 0 8.375-7.047 11.045-15.414 11.045a54 54 0 01-3.406-.206v8.881c0 2.566.107 5.702.421 8.272a22.49 22.49 0 00-2.627-.152c-.934 0-2.01.049-2.834.152.315-5.652.422-13.459.422-19.93v-.79c-.006-5.78-.07-13.92-.422-16.619 1.704.05 4.017.157 5.2.157 1.794 0 4.117-.157 5.444-.157zm120.608 11.353c-.407 3.727-.47 9.904-.474 12.718v.27c0 2.158.052 9.092.474 12.997a18.38 18.38 0 00-2.368-.152c-.878 0-1.9.049-2.68.152.413-3.905.467-10.84.467-12.997 0-2.67-.053-5.952-.1-7.036-3.504 3.547-12.758 15.667-15.682 20.033a6.71 6.71 0 00-1.488-.151c-.314 0-1.238.098-1.65.152.39-3.688.46-10.078.466-12.595v-.956c-.008-2.896-.08-8.831-.465-12.434.877.048 1.999.152 2.617.152.566 0 1.64-.104 2.421-.152-.386 3.603-.45 9.495-.457 12.426v.562c0 2.157.045 5.185.1 6.623 2.824-3.435 12.901-16.22 15.322-19.612.556.099.914.152 1.533.152.305 0 1.381-.103 1.964-.152zM117.387 138.66l-.056.014c-.13.1-.254.215-.368.335-.02.018-.034.037-.048.052-.048.047-.096.1-.139.148.191.076.368.233.507.46.08.142.134.285.148.424.23-.105.459-.205.689-.305a.363.363 0 00.042-.187.914.914 0 00-.162-.511 1.08 1.08 0 00-.397-.382c-.105-.049-.205-.063-.272-.034zm-50.602.013c-.071-.028-.167-.014-.268.034a1.137 1.137 0 00-.406.382.954.954 0 00-.162.512.43.43 0 00.042.186c.23.1.465.2.69.305.019-.138.07-.281.152-.425a1.05 1.05 0 01.502-.459c-.043-.048-.086-.1-.134-.148a4.695 4.695 0 00-.416-.387zm8.837-3.209l-.178.205c-.754.912-1.179 2.08-1.24 2.915-.073.877-.278 1.194-.278 1.194l.001-.003.85-.801s.356-.323.542-.654l.05-.1c.12-.263.164-.626.144-.84-.153-1.493.11-1.917.11-1.917l-.001.001zm32.873.002l.012.025c.054.115.235.609.1 1.888-.024.215.02.578.139.84.163.364.593.754.593.754l.854.801c-.023-.039-.183-.326-.263-1.023l-.017-.168c-.071-.898-.555-2.183-1.42-3.12l.002.003zm9.765 2.63l-.073.013a.454.454 0 00-.072.034c-.005 0-.005.004-.01.01-.11.056-.22.118-.33.19-.004.005-.004.015-.01.019a1.419 1.419 0 01.579.531c.144.23.23.488.22.717.216-.081.426-.158.641-.224.072-.096.067-.23.053-.311-.019-.193-.125-.402-.273-.579a1.168 1.168 0 00-.52-.372.486.486 0 00-.278-.015zm-52.335.014a.468.468 0 00-.273.015 1.17 1.17 0 00-.522.372 1.132 1.132 0 00-.276.578.438.438 0 00.052.311c.215.067.435.144.645.225a1.34 1.34 0 01.216-.717 1.507 1.507 0 01.578-.531.044.044 0 00-.01-.019 2.767 2.767 0 00-.324-.19c0-.006-.01-.01-.01-.01a.366.366 0 00-.076-.034zm62.352-9.798c-.263-.115-.54.005-.502.831l.235 4.534c.018.162.004.31-.125.34-.124.024-.215-.082-.263-.288l-.459-4.257c-.029-.846-.282-.978-.555-.923-.722.178-.664 2.772-.506 3.723 1.214 7.128 5.107 7.28 5.107 7.28-1.296-1.532-1.78-4.127-2.104-6.559-.148-1.117-.144-4.386-.828-4.681zm-71.936.831c.038-.826-.235-.946-.502-.831-.68.295-.68 3.564-.832 4.681-.326 2.432-.804 5.026-2.1 6.56 0 0 3.893-.153 5.103-7.281.163-.951.22-3.545-.502-3.723-.273-.055-.526.078-.55.923l-.464 4.257c-.048.207-.139.312-.268.287-.13-.028-.139-.177-.12-.339zm11.616 9.128c-.024 0-.048 0-.072.01a.567.567 0 00-.282.15.557.557 0 00-.172.266c-.01.033-.01.062-.01.086.153.162.292.335.422.517a.733.733 0 01.205-.24.816.816 0 01.22-.133 6.258 6.258 0 00-.31-.656zm48.207 0a5.572 5.572 0 00-.316.655.869.869 0 01.215.134.903.903 0 01.215.24c.125-.183.263-.355.417-.518 0-.024 0-.052-.015-.085a.557.557 0 00-.172-.267.526.526 0 00-.278-.149c-.023-.01-.047-.01-.066-.01zm3.103-.459c-.134.006-.277.02-.42.053.162.091.31.22.444.373.2.24.33.517.364.784a.856.856 0 01.01.224 8.312 8.312 0 011.042-.215c-.115-.913-.856-1.233-1.44-1.219zm-54.423 0c-.584-.014-1.325.306-1.435 1.22.335.043.684.119 1.038.214a.924.924 0 01.01-.224 1.57 1.57 0 01.367-.784c.13-.153.287-.281.445-.373a2.324 2.324 0 00-.425-.053zm268.574-21.918c-5.55-.001-8.276 5.804-8.276 11.913 0 5.804 2.421 11.144 7.863 11.144 5.247 0 8.384-5.035 8.384-11.913 0-5.544-2.16-11.144-7.971-11.144zM64.103 137.655c-1.593-.373-2.373.32-2.535.975.579-.282 1.325-.029 1.526.225.061-.326.162-.98 1.009-1.2zm58.45.975c-.172-.655-.942-1.348-2.54-.975.847.22.947.875 1.01 1.2.196-.254.947-.507 1.53-.225zm-55.284-1.238c-.034-.014-.087-.005-.144.023a.754.754 0 00-.42.636c-.005.066.003.115.028.148.143.096.282.2.411.311a.924.924 0 01.23-.325c.12-.105.253-.186.383-.225a3.42 3.42 0 00-.488-.568zm49.617-.006l-.043.006a3.194 3.194 0 00-.483.568c.129.039.263.12.377.225a.94.94 0 01.24.325c.12-.11.258-.215.402-.311a.246.246 0 00.038-.148.783.783 0 00-.134-.373.73.73 0 00-.292-.263c-.058-.028-.11-.037-.148-.023zm-9.733-4.871s.493 1.328-.004 3c-.082.29-.153.774-.12 1.08.03.295.22.659.421.827.488.406.971.83.971.83l-.001-.001c-.036-.058-.231-.397-.182-.977l.02-.164c.187-1.213-.115-3.081-1.105-4.595zm-30.197 0l-.164.27c-.85 1.461-1.115 3.183-.939 4.324.115.737-.158 1.143-.158 1.143s.473-.425.971-.831c.2-.168.392-.531.42-.827.034-.305-.037-.788-.124-1.08-.493-1.672-.004-3-.004-3l-.002.001zm47.515-3.237c-.22-.08-.512.034-.354.685l.865 3.741c.03.124.02.244-.08.277-.101.024-.182-.047-.226-.215l-.923-3.51c-.158-.608-.34-.833-.55-.765-.56.171-.1 2.158.081 2.904 1.354 5.598 4.735 5.757 4.735 5.757-1.11-1.147-1.898-3.374-2.315-5.351-.181-.88-.674-3.325-1.233-3.523zm-64.477.685c.163-.65-.133-.765-.343-.685-.565.198-1.063 2.644-1.244 3.523-.411 1.977-1.196 4.205-2.31 5.35 0 0 3.381-.158 4.734-5.756.182-.746.641-2.733.082-2.904-.22-.068-.393.157-.545.764l-.928 3.51c-.048.169-.125.24-.23.216-.1-.033-.1-.153-.077-.277zm154.094-2.824l-3.399.509c-3.703.57-7.819 1.85-7.819 5.76 0 2.975 1.651 4.57 4.986 4.57 2.062 0 4.115-.722 6.232-2.925v-7.914zM118 136.77c-.234.038-.464.11-.66.235-.033.018-.067.047-.1.066.148.087.282.215.392.378.095.153.162.32.19.477.178-.11.38-.22.59-.315a.278.278 0 00.033-.12.716.716 0 00-.087-.387c-.105-.204-.252-.314-.358-.334zm-51.884 0c-.105.02-.253.13-.359.334a.772.772 0 00-.091.388.23.23 0 00.043.119c.211.096.402.206.584.315.024-.157.09-.324.186-.477a1.24 1.24 0 01.397-.378c-.033-.02-.066-.048-.1-.066a1.735 1.735 0 00-.66-.235zm109.075-14.923v15.564c1.335.049 2.923.104 4.366.104 6.07 0 9.604-2.83 9.604-8.116 0-5.702-4.205-7.552-13.97-7.552zM65.48 136.77c-.508.062-.972.283-1.192.593.354-.038.67-.004.961.08a1.132 1.132 0 01.23-.673zm53.16 0a1.193 1.193 0 01.224.674c.293-.085.608-.12.962-.081-.225-.31-.688-.531-1.186-.593zm-25.825-5.322c-.254-.123-.449-.032-.497.536l-.153 1.749c-.015.123-.01.291-.154.291-.143 0-.133-.167-.157-.291l-.148-1.749c-.053-.568-.244-.659-.498-.536-.664.326-.866 1.75-.866 2.17 0 1.194.79 3.162 1.67 3.664.88-.5 1.669-2.47 1.669-3.664 0-.42-.206-1.844-.866-2.17zm-13.62 4.773c-.655-.65-1.377-.706-1.56-.377-.186.335-.1.864.488.588.589-.274 1.072-.212 1.072-.21zm27.284-.377c-.187-.33-.905-.272-1.56.377 0 0 .478-.062 1.071.21.589.277.674-.252.489-.587zm-44.004-5.074c.134-.472-.095-.568-.268-.52-.435.124-.846 1.925-.994 2.574-.34 1.453-.9 2.796-1.78 3.608 0 0 2.713-.052 3.679-3.827.143-.545.521-2.002.086-2.15-.168-.057-.306.1-.43.55l-.843 2.756c-.038.12-.1.172-.177.148-.076-.024-.08-.114-.061-.205zm59.431-.52c-.172-.048-.406.048-.272.52l.79 2.934c.018.091.018.181-.059.205-.08.024-.139-.028-.177-.148l-.836-2.757c-.134-.449-.273-.606-.44-.55-.435.149-.053 1.606.09 2.15.918 3.603 3.43 3.815 3.657 3.827h.016c-.874-.81-1.44-2.154-1.77-3.607-.153-.65-.559-2.45-.999-2.574zm-18.106 3.363c-.144-.014-.234.043-.21.253l.167 1.085c0 .047.02.109-.057.124-.072.02-.086-.043-.105-.086l-.321-1.051c-.077-.202-.182-.211-.3-.135-.312.197-.24 1.005-.173 1.267.152.679.626 1.419 1.176 1.285.55-.135.689-1.017.536-1.681-.072-.291-.345-1.018-.713-1.06zm-23.44-.002l-.05.002c-.37.043-.646.77-.709 1.06-.152.665-.014 1.547.536 1.682.545.134 1.028-.606 1.181-1.285.057-.262.139-1.07-.177-1.267-.12-.075-.23-.066-.301.135l-.32 1.051c-.025.043-.034.105-.105.086-.046-.01-.058-.035-.06-.065l.001-.06.164-1.084c.023-.21-.067-.268-.21-.253zm15.827-1.804c-.631-.004-1.249.74-1.45 1.09-.564.988-.65 2.469-.248 3.259.88-.063 1.913-.545 2.477-1.529.192-.354.718-1.616.392-2.15-.134-.215-.316-.22-.616.234l-.938 1.386c-.067.09-.139.233-.244.17-.105-.056-.02-.194.024-.3l.713-1.51c.229-.492.129-.65-.11-.65zm-8.26 0c-.243 0-.344.157-.11.65l.709 1.51c.047.105.128.243.023.298-.1.063-.177-.08-.244-.17l-.937-1.387c-.301-.453-.488-.448-.613-.233-.324.534.196 1.796.398 2.15.56.983 1.592 1.466 2.472 1.529.397-.79.311-2.27-.249-3.259-.205-.347-.817-1.093-1.448-1.089zm18.317.492c-.177-.038-.3.009-.32.249v1.265c-.01.053 0 .12-.096.13-.096.01-.096-.062-.115-.115l-.205-1.247c-.048-.234-.183-.263-.355-.196-.434.172-.502 1.104-.478 1.41.067.798.526 1.71 1.249 1.643.722-.067 1.075-1.046 1.018-1.826-.028-.344-.234-1.213-.698-1.313zm-28.063.25c-.01-.24-.138-.288-.32-.25-.455.1-.66.97-.689 1.314-.058.779.292 1.758 1.014 1.825.726.067 1.185-.845 1.248-1.643.024-.306-.038-1.238-.473-1.409-.173-.067-.307-.037-.36.195l-.204 1.248c-.015.053-.015.125-.11.114-.101-.01-.087-.077-.097-.129zm23.787-.216c-.157-.047-.282-.014-.31.19l-.091 1.057c-.014.038-.01.1-.1.1-.091 0-.086-.058-.101-.1l-.095-1.057c-.034-.205-.154-.234-.316-.19-.412.115-.54.892-.536 1.151 0 .669.359 1.467 1.033 1.457.674-.014 1.067-.812 1.062-1.466 0-.287-.13-1.032-.546-1.142zm-19.511.19c-.029-.206-.154-.238-.316-.19-.416.11-.545.855-.545 1.141 0 .655.396 1.452 1.066 1.467.67.01 1.033-.788 1.038-1.458 0-.258-.13-1.036-.546-1.15-.157-.044-.276-.015-.31.19l-.105 1.056c-.005.042 0 .1-.096.1-.09 0-.086-.061-.09-.1zm17.01-1.035c-.138-.04-.239 0-.253.205v1.093c-.002.037-.01.078-.072.082-.077.005-.077-.053-.09-.091l-.164-1.056c-.047-.2-.153-.224-.286-.167-.345.142-.392.926-.373 1.184.057.669.42 1.444 1 1.391.568-.057.846-.878.793-1.533-.024-.288-.186-1.024-.554-1.108zm-14.572.204c-.01-.205-.114-.244-.253-.205-.364.085-.531.82-.55 1.108-.058.656.22 1.477.794 1.534.574.053.947-.723 1-1.39.019-.258-.025-1.043-.374-1.186-.134-.057-.243-.033-.287.168l-.167 1.055c-.01.039-.01.096-.09.09-.078-.003-.063-.065-.073-.108zm19.025-1.843c-.192-.034-.325.028-.325.286l.081 1.338c0 .058.014.128-.09.143-.101.015-.107-.062-.125-.114l-.306-1.306c-.067-.247-.216-.266-.383-.185-.455.215-.46 1.204-.411 1.52.12.846.669 1.781 1.43 1.662.756-.12 1.066-1.18.951-1.997-.052-.363-.325-1.272-.822-1.347zm-23.406.286c.006-.258-.128-.32-.32-.286-.492.075-.765.984-.817 1.347-.12.817.186 1.876.946 1.997.756.12 1.31-.817 1.43-1.662.048-.315.043-1.305-.406-1.52-.177-.08-.32-.062-.387.185l-.302 1.306c-.024.052-.024.13-.134.114-.1-.014-.08-.085-.091-.143zm2.438-.514l-.06.007c-.369.078-.532.721-.55.98-.043.574.239 1.304.827 1.357.583.053.947-.62.995-1.219.019-.224-.038-.917-.383-1.046-.139-.053-.253-.033-.292.143l-.158.927c-.014.038-.014.091-.09.082-.081-.005-.067-.057-.077-.096l-.01-.936c-.019-.182-.114-.22-.263-.192zm18.27.007c-.148-.028-.248.01-.263.192l-.009.936c-.005.039 0 .09-.072.096-.086.01-.086-.044-.09-.082l-.163-.927c-.044-.176-.149-.195-.287-.143-.35.129-.407.822-.388 1.046.043.598.416 1.272.995 1.219.583-.054.875-.784.827-1.357-.019-.259-.181-.903-.55-.98zm5.099-.261c-.144-.03-.25.008-.259.204v1.032c-.01.039 0 .095-.081.106-.081.005-.081-.058-.086-.096l-.167-1.013c-.043-.197-.154-.22-.292-.162-.354.138-.407.898-.382 1.147.052.65.425 1.394 1.008 1.342.584-.052.865-.855.823-1.486-.024-.282-.192-.989-.564-1.074zm-28.473-.01l-.06.009c-.372.086-.535.792-.559 1.074-.047.632.235 1.435.823 1.485.589.052.957-.692 1.009-1.342.024-.248-.029-1.008-.383-1.146-.138-.057-.248-.035-.292.162l-.162 1.014c-.015.038-.015.1-.091.095-.08-.01-.072-.067-.076-.106l-.01-1.031c-.01-.196-.115-.234-.259-.205zm29.874 1.942c-.205-.37-.45-.124-.479.12-.023.25.368.492.966.397 0 0-.272-.147-.487-.517zm-30.852.12c-.028-.244-.277-.492-.482-.12a1.32 1.32 0 01-.484.517c.589.095.995-.147.966-.397zm7.94-5.135c-.269-.018-.36.159-.058.751l.909 1.82c.057.13.158.291.052.358-.105.063-.2-.11-.282-.224l-1.143-1.687c-.368-.55-.57-.555-.679-.317-.316.618.277 1.965.521 2.395.699 1.19 2.066 2.174 3.023 2.295.363-.889.181-2.566-.517-3.756-.249-.425-1.138-1.6-1.827-1.635zm14.547-.002l-.052.001c-.69.034-1.574 1.21-1.827 1.635-.699 1.19-.88 2.867-.516 3.756.956-.12 2.319-1.104 3.017-2.295.248-.43.837-1.777.531-2.395-.12-.238-.316-.233-.684.317l-1.143 1.686c-.081.115-.172.287-.282.225-.11-.067 0-.23.058-.36l.903-1.818c.297-.592.2-.769-.057-.751zm-9.259.447c-.257-.087-.42.024-.387.596l.11 1.75c0 .12.034.281-.105.305-.129.02-.153-.148-.182-.262l-.402-1.71c-.129-.555-.325-.612-.545-.454-.578.41-.56 1.844-.497 2.26.177 1.174 1.057 2.03 1.96 2.407.751-.621 1.354-1.698 1.177-2.876-.057-.416-.454-1.791-1.129-2.016zm4.3.596c.043-.572-.124-.682-.387-.596-.67.225-1.067 1.6-1.13 2.016-.171 1.178.427 2.255 1.182 2.876.899-.377 1.789-1.232 1.956-2.408.068-.415.082-1.848-.488-2.26-.229-.157-.42-.1-.55.454l-.397 1.71c-.038.115-.052.282-.19.263-.14-.024-.106-.186-.101-.306zm8.168-.534c-.162-.044-.277.005-.291.238v1.22c-.005.047.01.118-.077.123-.096.005-.096-.062-.11-.11l-.192-1.199c-.042-.234-.166-.259-.32-.197-.397.163-.45 1.062-.425 1.358.057.77.478 1.653 1.138 1.59.655-.061.97-1.003.913-1.752-.024-.33-.22-1.176-.636-1.271zm-20.732.238c-.014-.233-.129-.282-.291-.238-.416.094-.607.94-.631 1.27-.063.75.253 1.692.908 1.754.66.062 1.081-.821 1.143-1.591.025-.297-.033-1.195-.43-1.358-.148-.062-.278-.036-.32.197l-.191 1.2c-.015.047-.02.114-.102.11-.09-.006-.08-.078-.086-.125zm-2.47.408l-.054.008c-.354.072-.507.712-.526.965-.048.57.225 1.296.78 1.343.544.053.898-.615.946-1.205.014-.224-.033-.906-.369-1.035-.128-.049-.229-.029-.272.147l-.153.913c-.01.033-.01.091-.08.081-.077-.005-.068-.057-.073-.09l-.01-.933c-.009-.175-.11-.215-.243-.186zm25.446.007c-.14-.029-.24.01-.25.186l-.004.933c-.01.033 0 .085-.077.09-.072.01-.072-.047-.086-.08l-.153-.914c-.033-.175-.144-.195-.268-.147-.34.13-.387.812-.368 1.035.048.59.397 1.258.947 1.205.555-.047.818-.774.78-1.342-.02-.253-.172-.893-.521-.966zm-38.37-5.822c-.13-.153-.273-.096-.416.434l-.798 3.206c-.034.11-.067.267-.158.248-.086-.02-.053-.177-.034-.287l.31-2.159c.087-.535-.014-.65-.2-.568-.478.215-.895 1.734-1.057 2.494-.368 1.696-.32 3.892.124 4.48.656-.347 1.593-2.282 1.96-4.036.145-.664.618-3.426.269-3.812zm51.65.434c-.139-.53-.282-.587-.416-.434-.35.386.12 3.148.263 3.812.378 1.754 1.31 3.688 1.96 4.037.45-.589.493-2.785.125-4.481-.162-.76-.574-2.28-1.052-2.494-.182-.082-.287.033-.206.568l.316 2.16c.014.11.052.267-.038.286-.091.02-.115-.138-.153-.248zm-55.518-.721c.061-.626-.068-.75-.293-.645-.573.268-1.104 2.494-1.252 3.378-.33 1.982-.115 4.529.483 5.193.779-.44 1.793-2.723 2.128-4.763.129-.78.363-3.163-.096-3.598-.181-.171-.344-.1-.488.513l-.65 3.138c-.03.129-.053.315-.163.295-.114-.018-.081-.2-.072-.334zm59.262-.646c-.224-.105-.363.02-.296.645l.402 3.177c.014.135.048.316-.062.334-.115.021-.134-.165-.172-.295l-.651-3.138c-.14-.612-.306-.684-.488-.512-.46.435-.225 2.818-.09 3.597.339 2.04 1.348 4.322 2.128 4.763.598-.664.808-3.21.482-5.193-.152-.884-.678-3.11-1.253-3.378zm-62.184-.391c.09-.645-.049-.783-.297-.692-.636.244-1.306 2.541-1.497 3.449-.44 2.05-.311 4.715.306 5.448.87-.417 2.066-2.733 2.51-4.846.173-.802.526-3.277.039-3.755-.182-.186-.369-.124-.545.511l-.842 3.283c-.043.128-.072.32-.196.29-.12-.025-.072-.21-.058-.348zm65.111-.693c-.249-.09-.392.047-.296.692l.579 3.34c.013.138.062.324-.058.35-.125.028-.158-.163-.201-.292l-.842-3.283c-.176-.634-.358-.697-.55-.51-.478.477-.129 2.953.043 3.753.455 2.113 1.646 4.43 2.516 4.846.622-.731.746-3.397.306-5.447-.196-.908-.86-3.205-1.497-3.449zm-9.368 3.468c-.149-.348-.263-.371-.378-.248-.287.32.32 2.332.627 3.025 1.492 3.41 3.256 3.53 1.707-.587-.191-.498-.68-1.606-1.033-1.715-.153-.05-.244.057-.153.42l.54 1.81c.014.082.048.182-.024.206-.082.023-.11-.077-.139-.153zm-46.299-.249c-.11-.123-.234-.1-.378.248l-1.143 2.758c-.033.077-.057.176-.138.154-.046-.015-.049-.057-.042-.106l.018-.1.545-1.811c.086-.363 0-.468-.163-.42-.349.11-.837 1.218-1.023 1.715-1.554 4.12.205 3.999 1.708.588.3-.693.908-2.705.616-3.026zm23.95-1.842c-.334-.173-.593-.053-.66.702l-.205 2.938c-.024.161-.014.387-.206.387-.186 0-.177-.225-.196-.387l-.21-2.938c-.063-.755-.32-.875-.66-.702-.88.425-1.138 2.096-1.138 2.66 0 1.578 1.042 3.335 2.204 4.009 1.167-.674 2.215-2.432 2.215-4.008 0-.565-.268-2.236-1.143-2.661zm-36.494-1.71c.077-.66-.067-.789-.306-.684-.621.267-1.229 2.613-1.396 3.54-.378 2.094-.191 4.783.444 5.5.842-.445 1.961-2.838 2.363-4.988.143-.822.43-3.335-.058-3.808-.19-.182-.372-.104-.53.535l-.752 3.354c-.037.134-.066.33-.186.306-.12-.02-.076-.21-.066-.35zm71.32-.685c-.24-.105-.388.024-.306.684l.482 3.405c.015.14.058.331-.066.35-.12.024-.149-.171-.186-.306l-.747-3.353c-.158-.64-.344-.717-.53-.535-.488.472-.201 2.985-.053 3.808.392 2.149 1.516 4.543 2.357 4.986.631-.716.823-3.406.44-5.5-.171-.926-.764-3.272-1.39-3.539zm-29.99 2.38c-.307-.144-.565-.043-.627.693l-.167 2.474c-.02.154-.01.373-.187.373-.186 0-.177-.22-.196-.373l-.22-1.858c-.067-.74-.306-.851-.631-.688-.833.415-.919 1.691-.919 2.236 0 1.542.828 2.995 1.933 3.654 1.104-.659 2.094-2.368 2.094-3.907 0-.55-.238-2.198-1.08-2.605zm-11.023.693c-.058-.736-.321-.837-.622-.694-.842.407-1.086 2.055-1.086 2.605 0 1.538.99 3.248 2.104 3.907 1.105-.659 1.927-2.112 1.927-3.654 0-.545-.086-1.82-.918-2.236-.325-.163-.569-.052-.627.688l-.224 1.858c-.019.154-.01.373-.191.373-.182 0-.172-.22-.197-.373zm43.284-5.495c-.712.048-.841 2.284-.788 3.154.377 6.172 3.323 7.81 3.323 7.81-.603-1.604-.492-3.354-.378-5.503.053-1.022-.071-3.845-.674-4.204-.239-.138-.406-.02-.412.669l.063 3.502c-.01.148-.048.277-.172.282-.124.009-.196-.096-.21-.287l-.326-4.438c-.014-.713-.153-1.003-.426-.985zm-76.169 0c-.272-.018-.416.272-.43.985l-.325 4.438c-.005.191-.076.296-.206.291-.125-.009-.167-.138-.172-.286l.058-3.502c-.006-.688-.168-.807-.402-.669-.608.359-.737 3.182-.68 4.204.116 2.15.22 3.899-.382 5.504 0 0 2.946-1.64 3.333-7.811.048-.87-.08-3.106-.794-3.154zm28.322 4.801c-.14-.702-.383-.769-.641-.596-.699.482-.602 2.078-.536 2.603.187 1.486 1.138 3.044 2.205 3.554.913-.749 1.42-2.153 1.238-3.64-.066-.525-.229-1.83-1.023-2.14-.305-.123-.44.033-.478.726l-.057 1.047c0 .153.038.363-.124.382-.164.018-.183-.191-.216-.34zm20.167-.596c-.263-.173-.502-.106-.641.596l-.368 1.596c-.038.149-.053.358-.215.34-.163-.019-.13-.23-.13-.382l-.052-1.047c-.038-.693-.172-.85-.478-.726-.794.31-.956 1.615-1.019 2.14-.181 1.487.325 2.891 1.234 3.64 1.062-.51 2.023-2.068 2.2-3.554.066-.525.172-2.121-.53-2.603zm1.803 0c-.306-.024-.616.3-.851.836a6.84 6.84 0 01.052 1.706 7.145 7.145 0 01-.296 1.49c.138.496.368.821.65.846.55.052 1.09-1 1.22-2.346.12-1.348-.23-2.48-.775-2.532zm-24.419 0c-.55.053-.895 1.184-.77 2.532.125 1.347.67 2.398 1.215 2.346.292-.025.517-.349.655-.846a7.098 7.098 0 01-.296-1.49 6.41 6.41 0 01.052-1.706c-.234-.535-.545-.86-.856-.836zm-2.77-.182c0-.397-.128-.474-.324-.397-.488.172-.77 1.534-.818 2.092-.12 1.258.182 2.863.933 2.934.756.061 1.334-1.414 1.45-2.708.051-.492.013-1.788-.437-2.055-.177-.101-.32-.058-.392.334l-.301 2.083c-.019.077-.023.191-.124.186-.105-.01-.09-.128-.1-.21zm30.283-.396c-.191-.077-.325 0-.32.397l.11 2.259c-.005.081.01.2-.09.21-.106.005-.111-.11-.135-.187l-.297-2.082c-.076-.392-.215-.435-.392-.335-.45.267-.488 1.563-.44 2.055.125 1.294.703 2.77 1.454 2.708.756-.07 1.052-1.676.938-2.933-.058-.558-.335-1.92-.828-2.092zm2.693-.87c-.206-.052-.335.038-.297.453l.316 2.304c.005.086.034.205-.072.225-.105.019-.124-.101-.153-.182l-.526-2.132c-.11-.4-.263-.434-.435-.31-.45.32-.316 1.85-.22 2.36.248 1.333.966 2.834 1.75 2.666.79-.163.957-1.835.713-3.129-.11-.578-.54-2.116-1.076-2.255zm-35.692.453c.04-.415-.09-.505-.296-.453-.535.139-.97 1.677-1.08 2.255-.24 1.294-.072 2.966.712 3.129.784.168 1.502-1.333 1.75-2.666.1-.51.234-2.04-.215-2.36-.172-.124-.325-.09-.435.31l-.526 2.132c-.029.081-.048.2-.158.182-.067-.014-.077-.07-.076-.133l.004-.092zm-2.696-.95c.067-.439-.068-.54-.287-.487-.574.12-1.077 1.59-1.225 2.198-.32 1.361-.08 2.98.665 3.168.737.186 1.592-1.157 1.927-2.557.124-.54.326-2.02-.133-2.384-.177-.138-.345-.104-.479.31l-.65 2.184c-.033.086-.058.215-.172.186-.11-.028-.072-.148-.067-.238zm41.076-.487c-.225-.053-.36.048-.292.487l.42 2.38c.01.09.044.21-.061.238-.115.03-.144-.1-.173-.186l-.65-2.184c-.139-.414-.306-.448-.484-.31-.454.364-.257 1.845-.128 2.384.334 1.4 1.185 2.743 1.932 2.557.741-.187.975-1.807.65-3.168-.139-.607-.646-2.078-1.214-2.198zm2.793-1.166c-.22-.057-.355.053-.273.54l.473 2.45c.01.1.049.245-.057.274-.115.023-.143-.12-.177-.215l-.665-2.237c-.148-.468-.32-.506-.488-.354-.45.393-.186 2.17-.043 2.767.383 1.567 1.296 2.728 2.076 2.982.573-.583.865-2.08.497-3.604-.162-.673-.765-2.46-1.343-2.603zm-46.677.54c.077-.487-.053-.598-.277-.54-.574.143-1.176 1.93-1.339 2.603-.373 1.524-.076 3.02.492 3.603.785-.253 1.698-1.414 2.076-2.981.144-.597.41-2.374-.034-2.767-.177-.153-.339-.115-.497.353l-.66 2.237c-.038.096-.062.239-.177.215-.11-.03-.066-.173-.058-.273zm49.407-1.816c-.234-.038-.373.078-.277.526l.66 2.614c.01.094.057.229-.062.257-.115.04-.144-.095-.192-.186l-.827-2.389c-.173-.434-.35-.458-.526-.296-.459.406-.182 1.993-.015 2.552.426 1.452 1.694 3.291 2.52 3.478.594-.607.58-2.858.163-4.271-.181-.631-.837-2.194-1.444-2.285zm-52.357-.006l-.058.006c-.607.091-1.257 1.654-1.439 2.285-.422 1.413-.431 3.664.162 4.27.822-.186 2.09-2.025 2.525-3.477.163-.559.44-2.146-.019-2.552-.181-.162-.354-.138-.526.296l-.837 2.389c-.038.091-.066.225-.186.186-.115-.028-.072-.163-.053-.257l.655-2.614c.091-.448-.043-.564-.282-.526zm29.373.188c-.282-.133-.483-.01-.483.689v2.584c-.01.148.014.349-.139.358-.158.014-.162-.19-.186-.339l-.34-2.556c-.095-.692-.31-.783-.574-.617-.683.445-.784 1.998-.75 2.514.1 1.452 1.061 3.005 2.047 3.554.894-.684 1.63-2.355 1.525-3.807-.039-.517-.359-2.036-1.1-2.38zm-5.959.689c0-.698-.2-.822-.488-.69-.74.345-1.061 1.864-1.095 2.38-.105 1.453.627 3.124 1.526 3.808.985-.55 1.946-2.102 2.046-3.554.038-.516-.071-2.069-.75-2.514-.263-.166-.479-.075-.579.617l-.33 2.556c-.034.149-.038.353-.191.34-.149-.01-.13-.211-.139-.36zm9.919-1.171c-.282-.1-.469.043-.44.74l.086 2.126c0 .148.029.354-.12.378-.148.028-.162-.177-.2-.32l-.407-2.074c-.12-.683-.335-.755-.584-.555-.64.517-.674 2.089-.611 2.605.162 1.448 1.08 2.489 2.06 2.942.837-.774 1.55-2.101 1.388-3.554-.063-.516-.44-2.016-1.172-2.288zm-13.926.74c.033-.697-.159-.84-.44-.74-.727.272-1.11 1.772-1.163 2.288-.167 1.453.546 2.78 1.383 3.554.98-.453 1.903-1.494 2.06-2.942.062-.516.024-2.088-.616-2.605-.244-.2-.46-.128-.584.555l-.407 2.073c-.033.144-.047.35-.196.32-.105-.016-.118-.126-.119-.242v-.135zm219.951-10.004c-.871 0-3.855.049-4.581.152v14.426c.626.112 1.649.21 2.16.21 7.2 0 11.423-2.875 11.423-8.321 0-5.084-4.017-6.467-9.002-6.467zm-242.05 8.128l-.058.002c-.616.058-1.214 1.171-1.448 1.797-.526 1.41-.699 3.697-.149 4.348.837-.14 2.239-1.926 2.778-3.378.207-.56.417-1.744-.014-2.188-.162-.168-.344-.158-.545.272l-1.013 2.484c-.048.086-.086.22-.206.177-.11-.043-.058-.167-.034-.262l.87-2.696c.125-.453 0-.577-.239-.554zm57.747.002c-.238-.023-.368.1-.244.554l.88 2.696c.02.095.072.22-.038.262-.114.043-.158-.09-.205-.177l-1.014-2.484c-.201-.43-.383-.44-.55-.272-.426.444-.216 1.629-.006 2.188.532 1.452 1.938 3.239 2.775 3.378.55-.65.373-2.939-.148-4.348-.23-.626-.838-1.74-1.45-1.797zm-39.584 1.1c-.024-.622-.21-.717-.454-.589-.64.33-.866 1.687-.88 2.14-.033 1.296.67 2.744 1.492 3.312.852-.52 1.64-1.93 1.674-3.215.014-.459-.134-1.825-.756-2.194-.238-.143-.43-.052-.492.565l-.191 1.117c-.02.13-.014.311-.153.306-.139-.005-.124-.186-.139-.315zm21.818-.589c-.25-.128-.426-.033-.455.589l-.1 1.127c-.014.129 0 .31-.139.315-.138.005-.138-.177-.157-.306l-.191-1.117c-.067-.617-.255-.708-.489-.565-.621.369-.77 1.735-.76 2.194.038 1.285.828 2.694 1.683 3.215.814-.568 1.522-2.016 1.488-3.311-.014-.454-.24-1.81-.88-2.141zm.971.33c.497 1.218.741 2.934-.536 4.888.167-.086 1.09-.282 1.554-.922.555-.765.674-1.362.464-2.451-.167-.837-1.043-1.467-1.482-1.515zm-24.218 0c-.44.048-1.31.678-1.478 1.515-.215 1.089-.091 1.686.464 2.45.46.64 1.391.837 1.559.923-1.282-1.954-1.038-3.67-.545-4.888zm-3.233.282c.02-.487-.106-.587-.292-.511-.483.196-.732 1.242-.77 1.6-.105 1.013.316 2.317.865 2.857.651-.325 1.311-1.447 1.411-2.455.044-.359.02-1.453-.406-1.81-.162-.134-.306-.082-.387.391l-.259 1.471c-.024.096-.038.239-.133.226-.101-.02-.082-.159-.082-.264zm30.98-.511c-.187-.076-.31.024-.292.511l.048 1.505c0 .105.024.244-.082.264-.094.013-.105-.13-.128-.226l-.259-1.471c-.086-.473-.224-.525-.387-.392-.426.358-.45 1.452-.411 1.811.105 1.008.76 2.13 1.411 2.455.555-.54.975-1.844.87-2.856-.038-.359-.292-1.405-.77-1.601zm-47.327-2.258l-.062.003c-.66.067-1.248 1.123-1.501 1.806-.565 1.543-.775 4.037-.187 4.744.904-.153 2.425-2.112 3.013-3.702.22-.607.393-1.687-.067-2.17-.177-.186-.368-.172-.593.297l-1.047 2.575c-.058.1-.096.243-.225.195-.12-.043-.058-.186-.033-.286l.899-2.853c.128-.496 0-.634-.259-.606zm63.439.003c-.253-.028-.392.11-.253.606l.899 2.853c.028.1.081.243-.038.286-.125.048-.168-.095-.22-.195l-1.048-2.575c-.225-.47-.416-.483-.593-.297-.46.483-.292 1.563-.071 2.17.587 1.59 2.113 3.549 3.017 3.702.583-.707.378-3.201-.186-4.744-.255-.683-.842-1.739-1.507-1.806zm-49.742 2.054c.067-.487-.061-.602-.263-.535-.53.143-.894 1.166-.961 1.524-.206 1 .177 2.112.718 2.7.722-.268 1.477-1.085 1.682-2.083.072-.358.144-1.452-.277-1.85-.167-.148-.32-.11-.453.36l-.35 1.093c-.029.1-.048.243-.157.215-.102-.024-.063-.167-.058-.267zm36.256-.535c-.21-.067-.335.048-.273.535l.12 1.157c.009.1.043.243-.058.267-.105.028-.124-.115-.158-.215l-.349-1.094c-.134-.468-.282-.507-.45-.358-.42.397-.348 1.49-.277 1.849.206.998.956 1.815 1.674 2.082.55-.587.928-1.7.727-2.7-.072-.357-.43-1.38-.956-1.523zm16.628-3.496c-.273-.049-.43.109-.315.615l.817 3.206c.014.115.072.268-.058.301-.138.043-.167-.115-.22-.22l-.932-2.804c-.191-.506-.397-.536-.593-.354-.517.469-.344 1.907-.153 2.557.493 1.71 1.937 3.874 2.87 4.103.67-.693.64-3.32.162-4.978-.216-.736-.894-2.308-1.578-2.426zm-69.712-.008l-.063.008c-.694.118-1.372 1.69-1.583 2.426-.478 1.658-.502 4.285.158 4.978.937-.229 2.381-2.393 2.874-4.103.187-.65.359-2.088-.158-2.557-.201-.182-.397-.152-.593.354l-.928 2.805c-.047.104-.086.262-.22.22-.129-.034-.076-.187-.057-.302l.818-3.206c.11-.506-.048-.664-.311-.615zm14.254 2.415l-.051.005c-.546.07-1.038 1.042-1.153 1.385-.34.96-.115 2.145.35 2.8.745-.162 1.611-.908 1.946-1.873.115-.344.334-1.42-.03-1.863-.143-.172-.3-.158-.497.291l-.463.979c-.044.091-.086.23-.187.192-.095-.043-.043-.177-.019-.277l.248-1.066c.125-.473.02-.601-.195-.568zm41.187.005c-.215-.033-.32.095-.196.568l.25 1.066c.018.1.076.234-.03.277-.096.038-.138-.101-.182-.192l-.463-.979c-.191-.449-.35-.463-.493-.291-.364.444-.148 1.519-.029 1.863.335.965 1.196 1.71 1.947 1.873.464-.655.684-1.84.353-2.8-.119-.343-.612-1.314-1.157-1.385zm17.642-4.768c-.262-.081-.425.053-.334.659l.612 3.67c.014.128-.01.248-.144.277-.124.033-.224-.049-.258-.215l-.693-2.934c-.11-.626-.34-.808-.545-.621-.54.473-.345 2.288-.173 3.039.957 4.15 3.817 4.882 3.817 4.882-.402-1.353-.674-3.015-.99-4.934-.143-.9-.602-3.617-1.292-3.823zm-76.188.659c.087-.606-.071-.74-.334-.659-.694.206-1.143 2.924-1.292 3.823-.32 1.92-.588 3.581-.99 4.934 0 0 2.86-.731 3.812-4.882.177-.751.368-2.566-.168-3.04-.205-.186-.44-.004-.545.622l-.698 2.934c-.029.166-.12.248-.258.215-.134-.03-.148-.149-.139-.278zm38.866.913c-.296-.177-.52-.053-.578.745l-.182 3c-.024.168-.01.402-.181.402-.163 0-.158-.234-.177-.402l-.182-3c-.053-.798-.282-.922-.579-.745-.775.448-1.004 2.212-1.004 2.804 0 1.663.918 3.507 1.942 4.219 1.028-.712 1.951-2.556 1.951-4.22 0-.591-.24-2.355-1.01-2.803zm-5.102.654c.029-.697-.158-.841-.421-.736-.698.273-1.072 1.778-1.128 2.288-.158 1.448.435 3.196 1.234 3.971.942-.458 1.898-1.925 2.06-3.373.063-.516.038-2.088-.578-2.6-.235-.195-.435-.123-.56.565l-.45 2.809c-.037.143-.052.349-.195.32-.14-.024-.11-.229-.11-.377zm8.747-.736c-.273-.105-.45.04-.42.736l.147 2.867c0 .148.024.353-.114.377-.144.029-.159-.177-.187-.32l-.45-2.81c-.128-.687-.334-.759-.568-.563-.608.511-.636 2.083-.58 2.599.163 1.448 1.125 2.915 2.062 3.373.799-.775 1.4-2.523 1.239-3.97-.062-.511-.43-2.016-1.129-2.289zm18.426 1.075c-.253-.02-.368.149-.172.712l.584 1.691c.038.125.114.283 0 .34-.115.057-.177-.11-.244-.215l-.823-1.573c-.277-.53-.463-.54-.621-.315-.388.57-.025 1.873.148 2.28.493 1.155 1.606 2.03 2.51 2.173.488-.84.627-2.336.134-3.488-.177-.41-.855-1.552-1.516-1.605zm-45.97 0h-.055c-.66.053-1.34 1.195-1.511 1.605-.493 1.152-.36 2.647.124 3.488.913-.143 2.027-1.018 2.52-2.173.172-.407.536-1.71.144-2.28-.149-.224-.345-.215-.612.315l-.828 1.573c-.067.105-.129.272-.249.215-.11-.057-.033-.215 0-.34l.589-1.691c.19-.563.076-.731-.177-.712zm30.834-1.935c-.243-.09-.397.048-.344.708l.363 2.713c.006.14.043.33-.081.358-.124.028-.148-.167-.181-.296l-.493-2.154c-.134-.641-.325-.703-.517-.507-.516.497-.459 1.978-.392 2.46.21 1.362 1.12 2.719 1.966 3.121.67-.75 1.109-2.418.899-3.78-.077-.477-.598-2.383-1.22-2.623zm-15.409.708c.058-.66-.095-.799-.335-.708-.626.24-1.147 2.146-1.229 2.623-.2 1.362.24 3.03.9 3.78.846-.402 1.754-1.759 1.965-3.12.077-.483.124-1.964-.383-2.46-.2-.197-.387-.135-.526.506l-.487 2.154c-.033.13-.062.324-.182.296-.129-.029-.09-.219-.081-.358zm31.718-3.69c-.216-.065-.302.073-.11.684l1.865 5.25c.033.13.105.307.01.34-.092.038-.15-.148-.212-.262l-2.023-5.098c-.258-.587-.416-.636-.535-.44-.296.497.502 3.01.784 3.76.741 1.973 2.162 4.237 2.922 4.558.368-.745-.052-3.45-.775-5.366-.32-.845-1.372-3.243-1.926-3.425zm-48.255.684c.196-.611.105-.75-.115-.683-.55.182-1.607 2.58-1.927 3.425-.717 1.916-1.143 4.62-.775 5.366.77-.32 2.186-2.585 2.927-4.558.278-.75 1.075-3.263.784-3.76-.12-.196-.277-.147-.53.44l-2.033 5.098c-.057.114-.12.3-.21.262-.096-.033-.02-.21.014-.34zm34.665 1.05l-.074.002c-.162.028-.263.12-.062 1.031l.378 1.95c.023.143.071.34-.038.372-.106.043-.149-.158-.192-.29l-.464-1.467c-.19-.65-.368-.703-.53-.493-.422.54-.226 2.054-.101 2.546.33 1.381 1.3 2.714 2.114 3.078.535-.808.626-2.418.296-3.794-.115-.492-.784-3.049-1.401-2.933zm-21.112.002c-.622-.116-1.287 2.441-1.401 2.933-.334 1.376-.244 2.986.292 3.794.817-.364 1.793-1.697 2.123-3.078.115-.492.31-2.006-.105-2.546-.167-.21-.335-.157-.531.493l-.46 1.467c-.052.132-.09.333-.2.29-.11-.033-.058-.229-.039-.373l.379-1.949c.205-.912.1-1.003-.058-1.031zm36.184-11.28c-1.875-.034-3.616.267-5.055 1.6-2.023 1.883-2.574 4.549-1.469 7.243.058.129.105.263.173.382.53.917.31 1.71-.388 2.427-1.181 1.214-2.597 2.012-4.294 2.245-.359.049-.741-.042-1.115-.1-.215-.033-.425-.129-.645-.167-.378-.067-.526.095-.426.468.296 1.146.307 2.522-.186 3.741 1.018-.143 1.564-.807 1.673-1.084.187.128.79.558.909.62.861.44 1.521.096 1.683-.85.03-.162.058-.324.077-.459.388.196.731.436 1.12.57.764.257 1.233-.096 1.238-.894.005-.235-.02-.469-.029-.726.373.128.722.281 1.09.382.737.191 1.124-.072 1.148-.832.015-.53-.09-1.065-.152-1.662.244.138.459.273.688.392.75.387 1.2.143 1.143-.693-.029-.501-.192-1.012-.397-1.47-.23-.508-1.047-1.855-1.148-2.047a3.5 3.5 0 001.225.411c.822.125 1.396-.554 1.057-1.318-.273-.621-.91-1.577-1.134-1.801 0 0 1.273 1.27 2.056 1.519.364.115.814.096 1.11-.22.258-.282.235-.706.115-1.118-.182-.583-.546-1.132-.9-1.705.732.755 1.665 1.563 2.445 1.72.272.052.655-.048.817-.215.158-.168.21-.478.115-.779-.21-.645-.612-1.2-1.023-1.754.167.196.899.626 1.324.88.483.286 1.124.726 1.698.678.593-.053.822-.401.77-.994-.015-.205-.388-1.06-.622-1.404.947.296 2.262.425 3.037.42.512 0 1.062-.1 1.062-.502.004-.339-.397-.367-.646-.405-1.277-.182-2.42-.74-3.577-1.252-1.469-.645-2.937-1.214-4.567-1.247zm-51.046-.002l-.279.002c-1.636.033-3.108.602-4.572 1.247-1.157.511-2.296 1.07-3.577 1.252-.249.038-.655.066-.65.405 0 .402.554.502 1.061.502.775.005 2.09-.124 3.047-.42-.24.344-.608 1.199-.627 1.404-.057.593.177.941.77.994.574.048 1.215-.392 1.697-.678.427-.254 1.154-.684 1.325-.88-.41.554-.813 1.109-1.023 1.754-.1.3-.043.611.12.779.157.167.54.267.813.215.775-.157 1.712-.965 2.438-1.72-.353.573-.712 1.122-.894 1.705-.129.412-.153.836.115 1.118.287.316.746.335 1.11.22.71-.224 1.804-1.275 2.015-1.484l.037-.035c-.22.224-.861 1.18-1.139 1.801-.33.764.24 1.443 1.067 1.318a3.542 3.542 0 001.224-.41c-.096.19-.923 1.538-1.148 2.045-.2.459-.373.97-.397 1.47-.053.837.387 1.08 1.143.694.225-.12.445-.254.68-.392-.053.597-.159 1.133-.14 1.662.02.76.407 1.023 1.139.832.368-.1.722-.254 1.095-.382-.015.257-.034.491-.034.726.005.798.484 1.151 1.244.894.388-.134.732-.374 1.114-.57.024.135.048.297.072.459.172.946.832 1.29 1.693.85.114-.062.717-.492.908-.62.11.277.66.941 1.674 1.084-.497-1.219-.482-2.595-.182-3.74.091-.374-.052-.536-.435-.469-.21.038-.425.134-.645.167-.373.058-.751.149-1.115.1-1.693-.233-3.103-1.03-4.289-2.245-.698-.717-.918-1.51-.388-2.427.067-.119.115-.253.168-.382 1.105-2.694.564-5.36-1.463-7.243-1.436-1.333-3.186-1.634-5.05-1.6zm51.763 8.4c-.234-.033-.32.12-.067.684l2.343 4.754c.058.124.144.281.048.329-.095.053-.172-.114-.244-.229l-2.568-4.61c-.32-.54-.493-.56-.598-.35-.267.536.642 2.519 1 3.216.947 1.82 2.798 4.304 3.63 4.496.32-.784-.53-3.86-1.449-5.629-.406-.783-1.502-2.575-2.095-2.66zm-52.712-.004l-.047.005c-.593.085-1.694 1.877-2.1 2.66-.918 1.768-1.77 4.845-1.449 5.629.827-.192 2.683-2.676 3.625-4.496.364-.697 1.272-2.68 1-3.215-.105-.21-.278-.192-.593.348l-2.568 4.611c-.077.115-.154.282-.244.229-.096-.048-.005-.205.043-.33l2.339-4.753c.257-.564.181-.717-.053-.683zm55.39-1.457c-.258 0-.354.166-.081.726l2.434 4.419c.053.12.13.225.02.287-.111.066-.168-.048-.25-.158l-2.692-4.295c-.344-.515-.536-.515-.66-.286-.316.597.612 2.48 1.004 3.153 1.033 1.772 2.856 3.798 4.027 4.142.206-1.17-.535-3.893-1.544-5.614-.44-.764-1.589-2.36-2.258-2.374zm-58.12 0c-.67.014-1.822 1.61-2.262 2.374-1 1.72-1.741 4.444-1.54 5.61v.004c1.172-.344 2.993-2.37 4.022-4.142.392-.674 1.325-2.556 1.009-3.153-.124-.23-.321-.23-.665.286l-2.692 4.295c-.077.11-.134.224-.25.158-.104-.062-.028-.167.025-.287l2.43-4.42c.277-.559.18-.725-.077-.725zm26.642 2.828c-.033-.521-.19-.602-.396-.483-.536.291-.694 1.448-.694 1.835 0 1.089.631 2.303 1.34 2.767.707-.464 1.343-1.348 1.343-2.442 0-.383-.22-1.227-.76-1.405-.225-.067-.359-.028-.398.492l-.062 1.062c-.014.11-.01.267-.124.267s-.11-.158-.12-.267zm5.227-.483c-.204-.119-.358-.038-.396.483l-.124 1.826c-.015.11-.01.267-.125.267s-.11-.158-.124-.267l-.053-1.062c-.038-.52-.182-.559-.406-.492-.536.178-.76 1.022-.76 1.405 0 1.094.64 1.978 1.338 2.442.717-.464 1.35-1.678 1.35-2.767 0-.387-.164-1.544-.7-1.835zm-8.149-.344c.058-.587-.09-.702-.334-.616-.617.244-1 1.5-1.076 1.935-.192 1.213.263 2.676.928 3.311.841-.391 1.735-1.635 1.937-2.848.066-.434.105-1.748-.407-2.169-.2-.162-.378-.1-.512.474l-.454 1.978c-.033.114-.058.29-.177.272-.124-.02-.091-.191-.086-.32zm11.014-.616c-.244-.086-.392.029-.344.616l.186 2.017c.01.129.044.3-.076.32-.13.019-.148-.158-.182-.272l-.454-1.978c-.139-.574-.315-.636-.517-.474-.512.42-.468 1.735-.401 2.17.196 1.212 1.095 2.456 1.932 2.847.664-.635 1.123-2.098.923-3.31-.072-.436-.45-1.692-1.067-1.936zm26.351-3.182c-.273-.014-.378.153-.115.74l2.167 4.267c.047.13.124.239.01.301-.115.063-.178-.057-.254-.167l-2.353-4.066c-.334-.55-.54-.554-.679-.32-.35.597.488 2.504.86 3.215.996 1.873 2.636 3.674 3.836 4.08.263-1.194-.224-3.664-1.19-5.48-.43-.802-1.588-2.527-2.282-2.57zm-63.995 0h-.055c-.694.043-1.86 1.768-2.281 2.57-.966 1.816-1.454 4.286-1.192 5.48 1.201-.406 2.842-2.207 3.832-4.08.382-.711 1.214-2.618.86-3.214-.138-.235-.334-.23-.674.319l-2.353 4.066c-.081.11-.138.23-.249.167-.115-.062-.043-.172.006-.3l2.166-4.267c.263-.588.153-.755-.115-.74zm23.942 3.192c.097-.493-.008-.602-.205-.54-.507.158-.923 1.2-1.018 1.558-.273 1.008-.048 2.269.406 2.852.689-.277 1.425-.96 1.693-1.974.095-.357.124-1.184-.268-1.466-.167-.115-.287-.106-.45.368l-.3.912c-.04.1-.073.244-.163.22-.096-.024-.053-.168-.038-.272zm16.26-.54c-.195-.062-.3.047-.2.54l.335 1.658c.019.104.062.248-.034.272-.09.024-.124-.12-.163-.22l-.3-.912c-.159-.474-.283-.483-.445-.368-.397.282-.368 1.109-.273 1.466.263 1.013 1 1.697 1.693 1.974.459-.583.67-1.844.402-2.852-.096-.358-.512-1.4-1.014-1.558zm26.59-3.832c-.239-.005-.324.153-.075.664l1.893 3.54c.048.11.12.211.015.268-.091.063-.148-.043-.215-.143l-2.459-3.784c-.316-.483-.492-.478-.602-.263-.287.55 1.004 2.9 1.363 3.526 1.621 2.766 3.773 3.24 3.773 3.24-.349-1.692-.722-2.977-1.315-4.153-.364-.73-1.775-2.885-2.377-2.895zm-69.64 0c-.612.01-2.018 2.164-2.382 2.895-.598 1.176-.97 2.46-1.315 4.152 0 0 2.152-.473 3.769-3.239.363-.626 1.65-2.976 1.367-3.526-.11-.215-.282-.22-.603.263l-2.452 3.784c-.072.1-.13.206-.23.143-.096-.057-.025-.157.024-.267l1.894-3.541c.248-.51.162-.669-.072-.664zm33.554 3.206c-.847-.477-1.531.544-1.015 1.233.54.74 1.516.64 1.894 1.92 0-.702-.062-1.557-.187-2.068-.114-.426-.416-.922-.692-1.085zm3.58 1.233c.508-.689-.17-1.71-1.012-1.233-.283.163-.589.66-.695 1.085-.129.51-.19 1.366-.19 2.068.382-1.28 1.358-1.18 1.898-1.92zm-6.288-4.979c-.215-.086-.349.034-.277.602l.22 1.773c.01.124.053.287-.062.305-.11.024-.135-.147-.168-.262l-.454-1.725c-.144-.554-.311-.616-.484-.453-.439.415-.349 1.705-.267 2.125.23 1.186 1.08 2.394 1.846 2.766.57-.63.918-2.064.684-3.254-.082-.42-.469-1.648-1.038-1.877zm8.217.602c.066-.568-.058-.688-.278-.602-.56.23-.952 1.458-1.038 1.877-.23 1.19.115 2.624.684 3.254.766-.372 1.621-1.58 1.846-2.766.082-.42.168-1.71-.267-2.125-.173-.163-.33-.101-.484.453l-.45 1.725c-.033.115-.06.286-.172.262-.104-.018-.071-.181-.056-.305zm-11.412.316c.015-.445-.114-.526-.3-.445-.474.206-.704 1.166-.737 1.491-.091.922.344 1.992.904 2.446.636-.335 1.267-1.304 1.363-2.221.029-.325-.005-1.31-.43-1.61-.168-.11-.307-.053-.383.377l-.235 1.343c-.019.09-.028.224-.129.215-.1-.015-.076-.144-.076-.234zm14.626-.445c-.178-.08-.307 0-.293.445l.024 1.362c-.005.09.014.219-.081.234-.091.008-.1-.124-.12-.215l-.244-1.343c-.076-.43-.215-.487-.377-.377-.421.3-.464 1.285-.43 1.61.09.917.727 1.886 1.358 2.22.56-.453.994-1.523.903-2.445-.029-.325-.263-1.285-.74-1.491zm-5.696-.368c.047-.381-.049-.467-.22-.415-.431.13-.727.941-.79 1.223-.172.793.1 1.772.545 2.222.584-.225 1.23-1.009 1.401-1.797.058-.282.13-1.147-.214-1.448-.13-.114-.259-.075-.369.297l-.34 1.142c-.028.077-.047.186-.129.172-.086-.02-.052-.134-.042-.21zm-3.305-.415c-.173-.052-.273.034-.215.415l.158 1.185c.01.077.033.191-.044.211-.09.014-.11-.095-.133-.172l-.345-1.142c-.11-.372-.234-.411-.368-.297-.34.301-.278 1.166-.215 1.448.167.788.817 1.572 1.41 1.797.44-.45.713-1.43.536-2.222-.058-.282-.354-1.094-.784-1.223zm9.526-3.125c.106-.472-.005-.563-.191-.516-.507.13-.89 1.238-.957 1.596-.162.774-.196 1.563.254 2.332.497-.187 1.215-.554 1.564-1.543.114-.345.291-1.19-.086-1.453-.158-.11-.278-.1-.445.353l-.268.746c-.034.095-.076.234-.167.21-.086-.024-.048-.162-.024-.258zm-15.777-.516c-.182-.047-.296.044-.191.516l.32 1.467c.015.096.062.234-.028.259-.092.023-.125-.116-.168-.211l-.262-.746c-.168-.453-.288-.463-.446-.353-.382.263-.2 1.108-.081 1.453.344.989 1.062 1.356 1.554 1.543.455-.77.416-1.558.259-2.332-.077-.358-.45-1.466-.957-1.596zm2.2-1.008c-.191-.052-.292.063-.172.545l.358 1.5c.02.1.067.244-.023.273-.091.028-.13-.12-.168-.215l-.554-1.434c-.187-.469-.33-.502-.46-.353-.33.405-.129 1.5-.014 1.858.311.993 1.158 1.954 1.841 2.208.421-.603.574-1.863.259-2.867-.11-.354-.565-1.372-1.067-1.515zm11.358.545c.12-.482.024-.597-.172-.545-.502.143-.961 1.161-1.071 1.515-.307 1.004-.163 2.264.263 2.867.684-.254 1.53-1.215 1.84-2.208.112-.358.316-1.453-.013-1.858-.13-.149-.278-.116-.454.353l-.56 1.434c-.038.095-.082.243-.173.215-.09-.03-.038-.172-.018-.273zm-9.656-.678c-.205-.454-.358-.464-.478-.315-.344.4.072 1.524.191 1.877.369 1.051 1.215 2.088 2.153 2.738.296-.445.296-2.213-.144-3.149-.163-.334-.493-1.157-.975-1.151-.201 0-.297.077-.149.554l.244.774c.025.1.082.234-.01.268-.09.038-.138-.102-.186-.196zm8.26-.315c-.124-.15-.268-.139-.483.315l-.64 1.4c-.05.094-.092.234-.187.196-.092-.034-.034-.168-.01-.268l.244-.774c.143-.477.048-.554-.153-.554-.479-.006-.809.817-.971 1.151-.445.936-.445 2.704-.148 3.149.937-.65 1.788-1.687 2.152-2.738.124-.353.54-1.477.196-1.877zm-13.548-.163c.013-.335-.068-.396-.187-.34-.321.153-.498.875-.531 1.123-.077.689.181 1.505.54 1.845.431-.25.847-.77.933-1.462.028-.244-.024-.793-.316-.942-.12-.061-.2-.043-.258.287l-.1.53c-.015.068-.019.163-.087.158-.062-.01-.047-.11-.047-.181zm18.545-.34c-.129-.056-.201.005-.186.34l.053 1.018c0 .07.014.171-.044.18-.067.006-.076-.09-.095-.157l-.091-.53c-.067-.33-.138-.348-.268-.287-.282.149-.344.698-.306.942a1.96 1.96 0 00.923 1.462c.359-.34.626-1.156.536-1.845-.024-.248-.201-.97-.522-1.122zm-16.94-4.44l-.08.017c-.139.047-.206.348-.048.397.081.028.254.057.254.057.143.034.23.172.195.31a.259.259 0 01-.31.2l-.1-.023s-.116-.019-.207.029a.415.415 0 00-.172.196c-.157.3-.33.578-.521.811a.284.284 0 00-.077.23c.006.128.135.263.135.263l.98 1.08c.1.086.067.148.038.177-.01.013-.082.066-.187-.016l-1.21-.878s-.124-.106-.272-.1a.424.424 0 00-.278.095 5.08 5.08 0 01-.74.449c-.12.058-.226.095-.264.21-.033.1.034.23.034.23l.057.123a.258.258 0 01-.129.35.252.252 0 01-.345-.12l-.07-.162s-.054-.168-.212-.215c-.138-.043-.229-.015-.368.01-.483.095-.855.104-1.018.114.249.048 1.707.444 1.97 1.768.751-1.166.756-2.155.756-2.155s1.143 1.438 3.395 1.414c-.12-2.16-1.573-3.157-1.573-3.157s1.492-.135 2.214-.971c-.65-.162-1.234-.459-1.559-.625-.129-.062-.225-.144-.369-.091zm15.229.017c-.15-.053-.244.029-.365.09-.334.167-.913.464-1.568.626.732.836 2.214.97 2.214.97s-1.454.999-1.568 3.158c2.07.022 3.211-1.201 3.375-1.39l.02-.024s.005.989.756 2.155c.268-1.324 1.722-1.72 1.97-1.768-.162-.01-.54-.02-1.023-.115-.134-.024-.22-.052-.364-.009-.157.047-.206.215-.206.215l-.076.162a.256.256 0 01-.349.12.256.256 0 01-.124-.35l.062-.124s.057-.129.024-.229c-.038-.115-.139-.152-.263-.21a5.084 5.084 0 01-.737-.45.41.41 0 00-.272-.095c-.153-.005-.273.1-.273.1l-1.215.88c-.105.081-.172.028-.196.015-.018-.029-.048-.091.043-.177l.985-1.08s.13-.135.13-.263a.317.317 0 00-.067-.23 4.519 4.519 0 01-.531-.811.49.49 0 00-.163-.196c-.095-.048-.21-.029-.21-.029l-.1.024a.264.264 0 01-.316-.2.267.267 0 01.205-.311s.163-.029.254-.057c.153-.049.086-.35-.052-.397zM86.01 90.739l-.1.01c-.182.038-.24.162.052.525l.832 1.052c.058.08.153.181.086.238-.072.058-.163-.047-.23-.114l-.789-.76c-.277-.287-.44-.281-.53-.12-.216.393.53 1.272.779 1.52.717.702 1.487.721 2 .673.066-.854-.302-1.513-.766-2.121-.21-.272-.946-.998-1.435-.892zm12.2.01c-.493-.105-1.225.62-1.44.893-.464.608-.832 1.267-.765 2.121.507.048 1.281.03 1.999-.673.244-.248.994-1.127.775-1.52-.091-.161-.254-.167-.536.12l-.775.76c-.076.067-.163.172-.234.114-.067-.057.029-.157.086-.238l.827-1.052c.297-.363.235-.487.063-.524zm11.61 1.906s-.463-.716-1.974-.262c-.54.166-1.277.516-2.224.625 0 0 .65.268 2.038-.157 1.387-.43 2.16-.206 2.16-.206zm-33.557-.262c-1.506-.454-1.97.262-1.97.262s.775-.224 2.161.206c1.378.425 2.037.157 2.037.157-.95-.11-1.687-.459-2.228-.625zm39.728-1.772s.129 1.026-.78 1.447c-1.09.511-2.525.182-3.486-.263-1.105-.506-1.435-.837-2.095-.602-.419.145-.636.327-.7.389l-.022.021s.621-.29 1.55.168c.84.42 2.616 1.276 4.38.774.966-.272 1.391-1.185 1.153-1.934zm-47.873 0c-.234.749.187 1.662 1.153 1.934 1.77.502 3.544-.354 4.385-.774.924-.458 1.55-.168 1.55-.168s-.21-.233-.722-.41c-.665-.235-.99.096-2.095.602-.96.445-2.395.774-3.486.263-.909-.42-.785-1.447-.785-1.447zm36.734-1.649c-.588-.602-1.143.081-2.028.587-.477.273-1.74.779-2.706-.472.143.497.947 2.942 3.433 3.344 1.177.186 2.693.043 3.898-1.09 1.048-.988 1.54-2.025 1.01-2.355-.47-.282-.8.196-1.125.482-.325.292-.727.459-1.362.321-.613-.13-.857-.54-1.12-.817zm-23.567.587c-.885-.506-1.445-1.19-2.023-.587-.268.277-.507.688-1.125.817-.63.138-1.027-.029-1.357-.32-.326-.287-.66-.765-1.12-.483-.54.33-.047 1.367 1 2.355 1.206 1.133 2.726 1.276 3.902 1.09 2.487-.402 3.291-2.847 3.434-3.344-.966 1.251-2.228.745-2.711.472zm-6.303-.626c.023-.697-.407-.935-.617-.763-.125.095-.105.434-.311.43-.13-.006-.13-.173-.301-.244-.354-.143-3.047.158-3.315 2.311 0 0 .87-.596 2.511-.39 1.587.19 3.458 1.427 3.458 1.427s-1.487-1.14-1.425-2.77zm34.768-.763c-.216-.172-.64.066-.617.763.061 1.63-1.43 2.771-1.43 2.771s1.874-1.236 3.467-1.428c1.63-.205 2.5.391 2.5.391-.267-2.153-2.96-2.454-3.304-2.311-.181.071-.176.238-.306.244-.21.004-.186-.335-.31-.43zm-22.353 2.575c-.277-.144-.484-.025-.46.133.03.23.942.535 1.794.053 0 0-.65.114-1.334-.186zm9.78.133c.024-.158-.187-.277-.464-.133-.674.3-1.335.186-1.335.186.852.482 1.77.177 1.799-.053zm-10.12-1.558c-.382-.166-.535.01-.521.159.028.253 1.253.549 2.2-.04 0 0-.813.187-1.679-.119zm10.516.159c.02-.149-.133-.325-.516-.159-.865.306-1.679.12-1.679.12.947.588 2.167.292 2.195.039zm8.996-1.147c-.345 0-.621.253-.621.563 0 .316.276.569.621.569.34 0 .617-.253.617-.569 0-.31-.278-.563-.617-.563zm-29.02 0c-.339 0-.622.253-.622.563 0 .316.283.569.623.569s.617-.253.617-.569c0-.31-.277-.563-.617-.563zm29.25-1.596c-1.493-.383-2.54-.21-6.15.87-3.616 1.08-5.457.229-5.457.229 1.612 1.586 5.103.803 5.103.803.78 1.184 1.965.93 3.018.114 1.09-.836 1.582-.927 2.319-.87.521.034 1.114.288 1.583.474.674.277 1.3.463 1.554.104.258-.376-.234-1.28-1.97-1.724zm-23.334.87c-3.615-1.08-4.657-1.253-6.155-.87-1.73.444-2.228 1.348-1.965 1.724.244.359.88.173 1.559-.104.464-.186 1.057-.44 1.578-.473.741-.058 1.224.033 2.315.87 1.057.816 2.243 1.07 3.022-.115 0 0 3.492.783 5.098-.803 0 0-1.836.85-5.452-.23zm-6.03 1.022c.129 0 .24.1.24.22s-.111.215-.24.215c-.134 0-.244-.096-.244-.215 0-.12.11-.22.244-.22zm29.25 0c.129 0 .234.1.234.22s-.105.215-.235.215c-.138 0-.244-.097-.244-.215 0-.12.106-.22.244-.22z"/><path fill="#8F96A3" fill-rule="nonzero" d="M58.16 49v-.984h-1.656V40.6h-1.128l-2.016 1.452v1.236l2.016-1.452v6.18H53.36V49h4.8zm4.44.12c.432 0 .838-.068 1.218-.204.38-.136.71-.37.99-.702.28-.332.502-.774.666-1.326.164-.552.246-1.244.246-2.076v-.24c0-.776-.076-1.426-.228-1.95-.152-.524-.366-.944-.642-1.26a2.335 2.335 0 00-.984-.678 3.736 3.736 0 00-1.266-.204c-.424 0-.826.068-1.206.204-.38.136-.712.362-.996.678-.284.316-.508.736-.672 1.26-.164.524-.246 1.174-.246 1.95v.24c0 .832.084 1.524.252 2.076.168.552.394.994.678 1.326.284.332.614.566.99.702a3.5 3.5 0 001.2.204zm0-1.008c-.24 0-.478-.046-.714-.138a1.498 1.498 0 01-.636-.504c-.188-.244-.342-.58-.462-1.008-.12-.428-.18-.978-.18-1.65v-.24c0-.624.06-1.134.18-1.53.12-.396.274-.71.462-.942.188-.232.4-.392.636-.48a2.03 2.03 0 01.714-.132c.272 0 .53.044.774.132.244.088.456.248.636.48.18.232.322.546.426.942.104.396.156.906.156 1.53v.24c0 .68-.058 1.234-.174 1.662-.116.428-.268.764-.456 1.008s-.402.41-.642.498a2.08 2.08 0 01-.72.132zm5.712.888v-4.62l1.848 3.18H71l1.848-3.18V49h1.032v-6.36h-1.032l-2.232 3.9-2.232-3.9H67.28V49h1.032zm8.52 0v-4.62l1.848 3.18h.84l1.848-3.18V49H82.4v-6.36h-1.032l-2.232 3.9-2.232-3.9H75.8V49h1.032zm11.52 0l3.396-4.8V49h1.032v-6.36h-1.032l-3.396 4.8v-4.8H87.32V49h1.032zm9.912-5.24c.04-.336.105-.628.198-.874.116-.308.276-.558.48-.75.204-.192.452-.332.744-.42a3.8 3.8 0 011.014-.144 16.441 16.441 0 001.398-.084c.34-.04.574-.096.702-.168V40.3c-.264.136-.584.214-.96.234-.376.02-.816.042-1.32.066-.624.032-1.142.16-1.554.384a2.679 2.679 0 00-.996.93c-.252.396-.43.876-.534 1.44a10.693 10.693 0 00-.156 1.926v.24c0 .568.078 1.076.234 1.524.156.448.368.826.636 1.134.268.308.584.542.948.702.364.16.758.24 1.182.24.432 0 .832-.076 1.2-.228.368-.152.684-.37.948-.654.264-.284.472-.624.624-1.02a3.71 3.71 0 00.228-1.338v-.24c0-.464-.068-.882-.204-1.254a2.677 2.677 0 00-.57-.942 2.532 2.532 0 00-.87-.594 2.874 2.874 0 00-1.116-.21c-.528 0-.992.124-1.392.372a2.26 2.26 0 00-.888 1.008v-.001l.024-.26zm2.016 4.424c-.264 0-.514-.054-.75-.162a1.831 1.831 0 01-.618-.462 2.264 2.264 0 01-.42-.726 2.759 2.759 0 01-.156-.954v-.24c0-.312.048-.594.144-.846a1.862 1.862 0 011.026-1.068c.236-.1.494-.15.774-.15s.538.05.774.15a1.862 1.862 0 011.026 1.068c.096.252.144.534.144.846v.24c0 .368-.048.696-.144.984-.096.288-.232.53-.408.726a1.73 1.73 0 01-.618.444c-.236.1-.494.15-.774.15zm7.14.936c.408 0 .796-.066 1.164-.198.368-.132.692-.332.972-.6.28-.268.504-.606.672-1.014.168-.408.252-.884.252-1.428v-.24c0-.512-.084-.964-.252-1.356a2.839 2.839 0 00-.672-.978 2.803 2.803 0 00-.972-.588 3.421 3.421 0 00-1.164-.198c-.408 0-.796.066-1.164.198a2.803 2.803 0 00-.972.588c-.28.26-.504.586-.672.978-.168.392-.252.844-.252 1.356v.24c0 .544.084 1.02.252 1.428.168.408.392.746.672 1.014s.604.468.972.6c.368.132.756.198 1.164.198zm0-.936c-.248 0-.492-.042-.732-.126a1.723 1.723 0 01-.642-.402 2.032 2.032 0 01-.456-.714c-.116-.292-.174-.646-.174-1.062v-.24c0-.384.058-.714.174-.99.116-.276.268-.502.456-.678a1.8 1.8 0 01.642-.39 2.201 2.201 0 011.464 0 1.8 1.8 0 01.642.39c.188.176.34.402.456.678.116.276.174.606.174.99v.24c0 .416-.058.77-.174 1.062-.116.292-.268.53-.456.714a1.723 1.723 0 01-.642.402c-.24.084-.484.126-.732.126zm3.78.936c.352 0 .666-.058.942-.174.276-.116.51-.318.702-.606.192-.288.338-.676.438-1.164.1-.488.15-1.104.15-1.848v-1.776h2.592V49h1.056v-6.36h-4.68v2.46c0 1.032-.084 1.788-.252 2.268-.168.48-.484.72-.948.72v1.032zm10.38 0c.32 0 .626-.04.918-.12.292-.08.554-.198.786-.354.232-.156.43-.35.594-.582.164-.232.278-.5.342-.804h-.948c-.064.288-.236.514-.516.678-.28.164-.672.246-1.176.246-.224 0-.452-.038-.684-.114a1.745 1.745 0 01-.624-.36 1.909 1.909 0 01-.456-.636c-.12-.26-.18-.574-.18-.942h4.704v-.792c0-.88-.25-1.57-.75-2.07-.5-.5-1.19-.75-2.07-.75-.392 0-.766.062-1.122.186a2.517 2.517 0 00-.936.576c-.268.26-.482.586-.642.978-.16.392-.24.852-.24 1.38v.24c0 .544.084 1.02.252 1.428.168.408.39.746.666 1.014s.594.468.954.6c.36.132.736.198 1.128.198zm1.764-3.852h-3.708c0-.32.056-.596.168-.828a1.63 1.63 0 011.032-.882 2.342 2.342 0 011.374 0c.22.068.412.174.576.318.164.144.296.332.396.564.1.232.154.508.162.828zm5.076 3.852c.32 0 .626-.04.918-.12.292-.08.554-.198.786-.354.232-.156.43-.35.594-.582.164-.232.278-.5.342-.804h-.948c-.064.288-.236.514-.516.678-.28.164-.672.246-1.176.246-.224 0-.452-.038-.684-.114a1.745 1.745 0 01-.624-.36 1.909 1.909 0 01-.456-.636c-.12-.26-.18-.574-.18-.942h4.704v-.792c0-.88-.25-1.57-.75-2.07-.5-.5-1.19-.75-2.07-.75-.392 0-.766.062-1.122.186a2.517 2.517 0 00-.936.576c-.268.26-.482.586-.642.978-.16.392-.24.852-.24 1.38v.24c0 .544.084 1.02.252 1.428.168.408.39.746.666 1.014s.594.468.954.6c.36.132.736.198 1.128.198zm1.764-3.852h-3.708c0-.32.056-.596.168-.828a1.63 1.63 0 011.032-.882 2.342 2.342 0 011.374 0c.22.068.412.174.576.318.164.144.296.332.396.564.1.232.154.508.162.828z"/><path fill="#8F96A3" d="M144 62h-1v-2H41v2h-1v-5h1v2h102v-2h1v5z"/></g></svg>