<svg xmlns="http://www.w3.org/2000/svg" width="272" height="157"><g fill="none" fill-rule="evenodd"><rect width="271" height="156" x=".5" y=".5" stroke="#E8E9EB" rx="4"/><path fill="#595959" fill-rule="nonzero" d="M64 69c13.262 0 24.01 10.746 24.01 23.999C88.01 106.256 77.262 117 64 117c-13.254 0-24-10.746-24-24.001C40 79.746 50.746 69 64 69zm1.532 6.754c-.107 1.232.835 1.868 1.137 2.04-.977 1.06-2.342 3.176-2.669 6.186-.324-3.01-1.691-5.126-2.666-6.186.302-.172 1.244-.808 1.137-2.04 0 0-.556 1.007-3.128.547-2.132-.38-3.313.174-3.313.888 0 0-1.512.18-2.192.62-.675.437.043 1.533.043 1.533.102-.203.247-.32.656-.406 0 0 1.638-.424 2.207.64 1.248.107 2.32.852 2.828 1.869.03.058.533 1.006.208 2.888-.171.992-.643 1.839-1.342 2.557-.305.317-.688.518-1.145.465-.728-.085-1.333-.433-1.853-.949-.286-.285-.373-.604-.155-.977.031-.048.046-.104.065-.16.646-1.56.107-2.937-.99-3.754-.803-.595-1.732-.666-2.673-.535-6.013.848-6.413 6.75-6.433 8.899l-.001.212c0 5.49-.082 9.382-.119 10.132-.065 1.141-.462 1.381-.71 1.56.393.273 3.63-.745 4.41-1.713.05-.063.157-.092.24-.111 1.928-.45 1.933-2.465 1.97-3.08 1.613 0 2.24-1.763 2.412-2.22.142-.397.249-.857.29-1.276l-.001.001.005.082c.075.794 1.23 1.424 2.497.27l.131-.125c0 1.408 1.675 1.159 2.51.324.072.286.534 1.009.534 1.009-.955.174-1.386.385-1.841.781-1.057.932-1.178 2.485-1.178 3.286 0 0-1.46 1.43-2.038 1.96-.171.156-.358.297-.546.44-1.498-1.677-2-1.021-1.994-1.019-1.108-.445-1.723.348-1.479.75.257-.293.678-.21.932.022-1.498.246-1.15 1.345-.745 1.575 0-.315.096-.666.568-.7-.022.487.303.571.612.583.74.032 1.982.068 2.36.436.215.21.11.827.343 1.038.194.172.4.15.506.152.036.228-.032.482-.317.782 1.074.094 1.882-.857 1.348-1.362-.225-.216-.978-.93-1.017-1.237-.046-.333.3-.701.545-.917.518-.462 1.077-.875 1.626-1.306.162-.126.35-.24.537-.341a.732.732 0 01.55-.06c.413.13.406.118.512.05.407-.27 1.142-.873 2.671-1.045a.838.838 0 00-.232.216c-.082.113-.14.251-.227.437-.1.213-.175.431-.264.644-.99 2.337-1.97 4.638-2.954 6.975-.33.776-.037 1.456.76 1.826.582.271 1.243.123 1.635-.438-.114.39-.165.721-.007 1.045.155.322.406.55.738.69.317.143.694.19 1.043.123.353-.072.588-.305.77-.648.03.764.531 1.323 1.361 1.323s1.334-.561 1.365-1.323c.181.343.416.578.77.648.348.068.723.02 1.042-.123a1.39 1.39 0 00.738-.69c.158-.324.107-.658-.007-1.045.39.564 1.05.709 1.633.438.799-.37 1.09-1.05.762-1.826-.984-2.337-1.967-4.638-2.954-6.975-.09-.213-.164-.43-.264-.644-.09-.186-.147-.324-.23-.437a.805.805 0 00-.232-.216c1.532.174 2.267.777 2.671 1.045.11.068.102.08.516-.05a.72.72 0 01.55.06c.185.102.374.215.534.341.552.43 1.108.844 1.628 1.306.242.216.59.584.542.917-.038.308-.791 1.021-1.014 1.237-.534.505.271 1.454 1.348 1.362-.285-.3-.353-.554-.317-.782.107-.002.312.02.503-.152.235-.21.131-.828.346-1.038.378-.37 1.617-.404 2.357-.436.312-.012.637-.096.615-.583.47.034.568.385.568.7.404-.228.75-1.326-.745-1.575.254-.233.673-.315.932-.022.242-.402-.373-1.198-1.479-.75.003-.002-.496-.658-1.996 1.018-.186-.142-.375-.285-.544-.44-.579-.53-2.04-1.96-2.04-1.96 0-.8-.121-2.35-1.178-3.285-.453-.396-.884-.607-1.842-.781 0 0 .462-.723.537-1.009.833.835 2.507 1.084 2.507-.324 1.365 1.367 2.635.631 2.635-.228v.001l.032.255c.04.258.101.524.177.775l.081.244c.172.458.797 2.221 2.41 2.221.04.612.042 2.628 1.968 3.08.084.02.193.048.244.111.777.97 4.014 1.986 4.41 1.713-.248-.181-.645-.419-.71-1.56-.04-.75-.121-4.643-.121-10.132v-.102c-.01-2.05-.314-8.146-6.432-9.009-.941-.13-1.873-.06-2.676.535-1.094.817-1.633 2.194-.987 3.754a.616.616 0 00.065.16c.218.373.128.692-.155.977-.52.516-1.125.864-1.853.949-.462.053-.842-.148-1.145-.465-.699-.718-1.188-1.563-1.342-2.557-.296-1.892.179-2.83.208-2.888.505-1.017 1.58-1.762 2.823-1.868.574-1.065 2.212-.641 2.212-.641.409.087.552.203.656.406 0 0 .718-1.096.04-1.534-.68-.44-2.194-.619-2.194-.619 0-.714-1.176-1.268-3.307-.888-2.575.46-3.13-.547-3.13-.547zm109.916 13.667c3.61-.003 5.868 2.608 5.868 6.169 0 3.633-2.357 6.338-6.08 6.338-3.657 0-5.938-2.68-5.938-6.004 0-3.941 2.519-6.503 6.15-6.503zm-57.517-.003c2.493 0 4.223 1.234 4.223 4.2v5.889c0 1.212.263 1.495.76 1.495.169 0 .428-.049.57-.097l.143.57a4.23 4.23 0 01-1.783.453c-.782 0-1.28-.353-1.469-1.045l-.143-.52c-1.282 1.02-2.683 1.563-3.847 1.563-2.16 0-3.564-1.142-3.564-3.136 0-2.136 1.595-3.132 3.775-3.534l2.42-.452c.81-.143 1.243-.383 1.243-.973 0-2.589-1.094-3.254-2.899-3.254-1.4 0-2.448.404-3.206 1.95h-.288v-1.47c.93-1.14 2.635-1.639 4.065-1.639zm71.51-.002c1.239 0 2.587.237 4.106 1.045l-.593 1.78h-.285c-.835-1.354-1.991-1.899-3.298-1.899-2.78 0-4.111 2.683-4.111 5.294 0 3.012 1.662 5.366 4.605 5.366.977 0 1.855-.143 3.23-1.643l.215.264-.285 1.16c-1.142.763-2.418 1.143-3.891 1.143-3.707 0-6.13-2.586-6.13-6.244 0-3.823 2.614-6.266 6.437-6.266zm11.992 0c1.239 0 2.589.237 4.108 1.045l-.602 1.78h-.28c-.83-1.354-1.99-1.899-3.296-1.899-2.783 0-4.114 2.683-4.114 5.294 0 3.012 1.67 5.366 4.61 5.366.968 0 1.85-.143 3.225-1.643l.213.264-.28 1.16c-1.138.763-2.425 1.143-3.894 1.143-3.702 0-6.124-2.586-6.124-6.244 0-3.823 2.613-6.266 6.434-6.266zm-91.307-5.008a7.46 7.46 0 00-.07.852c0 .167.05.549.07.808-1.38-.189-3.656-.332-4.365-.332-.496 0-2.422.046-3.468.143v5.961h1.21c2.47 0 7.675.472 7.675 4.77 0 3.49-2.923 5.084-6.767 5.06-.431 0-2.043-.07-3.071-.07-.445 0-.994.023-1.374.07.137-2.427.184-5.712.19-8.565V91.86c-.003-2.654-.033-6.239-.19-7.452 1.52.07 4.033.21 4.587.21 1.321 0 4.029-.116 5.573-.21zm39.19 5.247l-5.674 5.08c.717.855 4.486 5.105 6.197 6.934a19.853 19.853 0 00-1.42-.07c-.433 0-1.072.024-1.57.07-.876-1.376-3.562-4.533-5.031-6.152h-.382c0 .88.021 4.345.208 6.152a8.149 8.149 0 00-1.089-.07c-.397 0-.874.024-1.234.07.194-1.807.22-5.01.22-6.007 0-1.212-.026-4.224-.22-6.004.404.02.924.068 1.21.068.256 0 .757-.049 1.11-.07-.186 1.78-.208 4.792-.208 5.223h.383c.779 0 4.793-4.56 5.178-5.224.331.022.87.07 1.159.07.242 0 .813-.048 1.163-.07zM232 89.653c-.177 1.69-.21 4.46-.213 5.798v.517c.006 1.236.043 4.051.213 5.699a8.3 8.3 0 00-1.094-.07c-.401 0-.878.024-1.231.07.174-1.648.208-4.463.212-5.7v-.307c0-1.236-.021-2.753-.045-3.254-1.617 1.64-5.897 7.243-7.25 9.263a3.003 3.003 0 00-.684-.072 9.43 9.43 0 00-.755.07c.176-1.726.208-4.734.21-5.865v-.142c0-1.212-.026-4.224-.21-6.007.401.024.917.073 1.202.073.262 0 .763-.049 1.12-.073-.19 1.783-.212 4.77-.212 6.007 0 .997.021 2.397.046 3.063 1.306-1.587 5.957-7.5 7.075-9.07.261.046.428.073.713.073.14 0 .644-.049.903-.073zm-13.446 0c-.193 1.783-.22 4.77-.22 6.007 0 .997.027 4.202.22 6.007a8.344 8.344 0 00-1.091-.07c-.407 0-.878.024-1.239.07.18-1.726.213-4.734.215-5.865v-.142c0-1.236-.026-2.753-.048-3.254-1.619 1.64-5.894 7.243-7.242 9.263a3.047 3.047 0 00-.69-.072c-.145 0-.57.046-.76.07.19-1.805.216-5.01.216-6.007 0-1.212-.027-4.224-.215-6.007.406.024.922.073 1.21.073.258 0 .754-.049 1.115-.073-.189 1.783-.208 4.77-.208 6.007 0 .997.02 2.397.043 3.063 1.305-1.587 5.962-7.5 7.08-9.07.254.046.421.073.707.073.143 0 .641-.049.907-.073zm-82.46.002c-.19 1.781-.216 4.769-.216 6.005 0 .997.026 4.2.215 6.007a8.211 8.211 0 00-1.091-.07c-.402 0-.878.024-1.23.07.187-1.807.214-5.01.214-5.77-1.046-.075-2.47-.17-3.018-.17-.646 0-2.23.051-3.184.122v.238c.005 1.073.04 3.917.215 5.58a8.327 8.327 0 00-1.093-.07c-.402 0-.879.024-1.234.07.178-1.729.208-4.734.21-5.865v-.142c0-1.212-.024-4.224-.21-6.005.4.022.922.07 1.21.07.26 0 .757-.048 1.115-.07-.191 1.803-.215 4.793-.215 4.914a87.54 87.54 0 003.208.094c.782 0 2.28-.048 2.993-.094 0-.145-.026-3.133-.213-4.914.397.022.922.07 1.205.07.264 0 .762-.048 1.118-.07zm26.75-5.25c4.395 0 6.105 1.331 6.105 4.321 0 3.871-3.257 5.107-7.118 5.107a22.59 22.59 0 01-1.573-.099v4.108c0 1.186.05 2.637.194 3.825a10.218 10.218 0 00-1.213-.073c-.433 0-.929.027-1.309.073.135-2.426.186-5.712.193-8.565v-1.244c-.003-2.652-.035-6.24-.193-7.452.787.021 1.854.07 2.4.07.83 0 1.902-.07 2.515-.07zm12.534 5.94c-2.562-.003-3.825 2.68-3.825 5.504 0 2.683 1.118 5.153 3.632 5.153 2.424 0 3.874-2.328 3.874-5.507 0-2.564-.997-5.15-3.68-5.15zM120.26 95.54l-1.57.237c-1.708.262-3.613.857-3.613 2.664 0 1.374.765 2.112 2.304 2.112.953 0 1.902-.336 2.88-1.355V95.54zm-17.966-2.445v7.194c.617.025 1.353.049 2.018.049 2.802 0 4.436-1.31 4.436-3.752 0-2.635-1.943-3.491-6.454-3.491zm60.08-7.357c-.402 0-1.779.024-2.115.07v6.67c.288.048.76.096.997.096 3.327 0 5.277-1.33 5.277-3.846 0-2.352-1.856-2.99-4.16-2.99z"/><path fill="#8F96A3" fill-rule="nonzero" d="M53.8 47.52v-.984h-1.656V39.12h-1.128L49 40.572v1.236l2.016-1.452v6.18H49v.984h4.8zm4.44.12c.432 0 .838-.068 1.218-.204.38-.136.71-.37.99-.702.28-.332.502-.774.666-1.326.164-.552.246-1.244.246-2.076v-.24c0-.776-.076-1.426-.228-1.95-.152-.524-.366-.944-.642-1.26a2.335 2.335 0 00-.984-.678A3.736 3.736 0 0058.24 39c-.424 0-.826.068-1.206.204-.38.136-.712.362-.996.678-.284.316-.508.736-.672 1.26-.164.524-.246 1.174-.246 1.95v.24c0 .832.084 1.524.252 2.076.168.552.394.994.678 1.326.284.332.614.566.99.702a3.5 3.5 0 001.2.204zm0-1.008c-.24 0-.478-.046-.714-.138a1.498 1.498 0 01-.636-.504c-.188-.244-.342-.58-.462-1.008-.12-.428-.18-.978-.18-1.65v-.24c0-.624.06-1.134.18-1.53.12-.396.274-.71.462-.942.188-.232.4-.392.636-.48a2.03 2.03 0 01.714-.132c.272 0 .53.044.774.132.244.088.456.248.636.48.18.232.322.546.426.942.104.396.156.906.156 1.53v.24c0 .68-.058 1.234-.174 1.662-.116.428-.268.764-.456 1.008s-.402.41-.642.498a2.08 2.08 0 01-.72.132zm5.712.888V42.9l1.848 3.18h.84l1.848-3.18v4.62h1.032v-6.36h-1.032l-2.232 3.9-2.232-3.9H62.92v6.36h1.032zm8.52 0V42.9l1.848 3.18h.84l1.848-3.18v4.62h1.032v-6.36h-1.032l-2.232 3.9-2.232-3.9H71.44v6.36h1.032z"/><path fill="#8F96A3" d="M88 61h-1v-2.001H41V61h-1v-5h1v1.999h46V56h1v5z"/></g></svg>