<svg xmlns="http://www.w3.org/2000/svg" xmlns:xlink="http://www.w3.org/1999/xlink" width="765" height="383"><defs><rect id="a" width="765" height="383" rx="4"/></defs><g fill="none" fill-rule="evenodd"><mask id="b" fill="#fff"><use xlink:href="#a"/></mask><use fill="#F2F3F5" xlink:href="#a"/><path stroke="#E4E6EB" stroke-opacity=".8" d="M-576 588L678-666M-568 588L686-666M-560 588L694-666M-552 588L702-666M-544 588L710-666M-536 588L718-666M-528 588L726-666M-520 588L734-666M-512 588L742-666M-504 588L750-666M-496 588L758-666M-488 588L766-666M-480 588L774-666M-472 588L782-666M-464 588L790-666M-456 588L798-666M-448 588L806-666M-440 588L814-666M-432 588L822-666M-424 588L830-666M-416 588L838-666M-408 588L846-666M-400 588L854-666M-392 588L862-666M-384 588L870-666M-376 588L878-666M-368 588L886-666M-360 588L894-666M-352 588L902-666M-344 588L910-666M-336 588L918-666M-328 588L926-666M-320 588L934-666M-312 588L942-666M-304 588L950-666M-296 588L958-666M-288 588L966-666M-280 588L974-666M-272 588L982-666M-264 588L990-666M-256 588L998-666M-248 588L1006-666M-240 588L1014-666M-232 588L1022-666M-224 588L1030-666M-216 588L1038-666M-208 588L1046-666M-200 588L1054-666M-192 588L1062-666M-184 588L1070-666M-176 588L1078-666M-168 588L1086-666M-160 588L1094-666M-152 588L1102-666M-144 588L1110-666M-136 588L1118-666M-128 588L1126-666M-120 588L1134-666M-112 588L1142-666M-104 588L1150-666M-96 588L1158-666M-88 588L1166-666M-80 588L1174-666M-72 588L1182-666M-64 588L1190-666M-56 588L1198-666M-48 588L1206-666M-40 588L1214-666M-32 588L1222-666M-24 588L1230-666M-16 588L1238-666M-8 588L1246-666M0 588L1254-666M8 588L1262-666M16 588L1270-666M24 588L1278-666M32 588L1286-666M40 588L1294-666M48 588L1302-666M56 588L1310-666M64 588L1318-666M72 588L1326-666M80 588L1334-666M88 588L1342-666M96 588L1350-666M104 588L1358-666M112 588L1366-666M120 588L1374-666M128 588L1382-666M136 588L1390-666M144 588L1398-666M152 588L1406-666M160 588L1414-666M168 588L1422-666M176 588L1430-666M184 588L1438-666M192 588L1446-666M200 588L1454-666M208 588L1462-666M216 588L1470-666M224 588L1478-666M232 588L1486-666M240 588L1494-666M248 588L1502-666M256 588L1510-666M264 588L1518-666M272 588L1526-666M280 588L1534-666M288 588L1542-666M296 588L1550-666M304 588L1558-666M312 588L1566-666M320 588L1574-666M328 588L1582-666M336 588L1590-666M344 588L1598-666M352 588L1606-666M360 588L1614-666M368 588L1622-666M376 588L1630-666M384 588L1638-666M392 588L1646-666M400 588L1654-666M408 588L1662-666M416 588L1670-666M424 588L1678-666M432 588L1686-666M440 588L1694-666M448 588L1702-666M456 588L1710-666M464 588L1718-666M472 588L1726-666M480 588L1734-666M488 588L1742-666M496 588L1750-666M504 588L1758-666M512 588L1766-666M520 588L1774-666M528 588L1782-666M536 588L1790-666M544 588L1798-666M552 588L1806-666M560 588L1814-666" mask="url(#b)"/><path fill="#FFF" d="M127 127h511v129H127z"/><path fill="#595959" fill-rule="nonzero" d="M191.577 128c35.13 0 63.596 28.433 63.596 63.498 0 35.069-28.467 63.502-63.596 63.502-35.11 0-63.577-28.433-63.577-63.502C128 156.433 156.466 128 191.577 128zm0 4.906c-32.405 0-58.664 26.23-58.664 58.592 0 32.362 26.259 58.596 58.664 58.596 32.415 0 58.679-26.234 58.679-58.596 0-32.363-26.264-58.592-58.679-58.592zm4.056 12.971s1.463 2.662 8.287 1.447c5.644-1.008 8.766.462 8.766 2.348 0 0 4.015.48 5.806 1.64 1.794 1.16-.108 4.06-.108 4.06-.274-.534-.655-.847-1.74-1.085 0 0-4.34-1.116-5.851 1.707-3.298.282-6.147 2.254-7.488 4.938-.072.157-1.328 2.639-.547 7.648.408 2.63 1.709 4.861 3.557 6.761.808.833 1.813 1.367 3.033 1.228 1.93-.224 3.531-1.147 4.908-2.51.754-.748.987-1.599.409-2.58-.077-.13-.122-.278-.175-.426-1.705-4.122-.279-7.769 2.62-9.929 2.13-1.581 4.59-1.77 7.088-1.415 16.15 2.274 17.002 18.305 17.03 23.779l.001.885c.006 14.224.221 24.288.327 26.248.166 3.01 1.216 3.642 1.885 4.117-1.05.726-9.628-1.971-11.688-4.53-.139-.17-.421-.242-.637-.3-5.11-1.187-5.119-6.523-5.217-8.14-4.276 0-5.931-4.665-6.385-5.88a14.692 14.692 0 01-.771-3.369c0 2.272-3.36 4.221-6.977.6 0 3.724-4.437 3.065-6.644.861-.193.753-1.418 2.67-1.418 2.67 2.535.462 3.675 1.017 4.873 2.066 2.808 2.464 3.127 6.577 3.127 8.701 0 0 3.867 3.773 5.397 5.17.453.422.95.79 1.449 1.165 3.966-4.435 5.285-2.706 5.28-2.692 2.935-1.183 4.559.91 3.917 1.976-.686-.776-1.794-.547-2.463.053 3.962.668 3.037 3.571 1.97 4.18 0-.833-.26-1.76-1.508-1.845.063 1.281-.803 1.505-1.624 1.536-1.965.086-5.245.175-6.245 1.152-.574.556-.296 2.186-.91 2.742-.427.38-.875.407-1.179.408h-.163c-.094.6.085 1.277.848 2.074-2.854.233-4.99-2.276-3.576-3.616.592-.56 2.584-2.446 2.687-3.27.13-.874-.794-1.855-1.435-2.424-1.373-1.223-2.854-2.317-4.312-3.45-.426-.336-.928-.632-1.417-.905-.395-.22-.952-.318-1.454-.157-1.095.34-1.081.314-1.364.125-1.077-.708-3.024-2.303-7.075-2.75.27.17.458.349.615.56.215.304.372.667.6 1.16.265.56.467 1.133.705 1.693 2.62 6.193 5.213 12.273 7.824 18.465.866 2.047.095 3.84-2.018 4.825-1.54.717-3.294.332-4.325-1.156.296 1.022.435 1.904.018 2.756-.413.851-1.082 1.46-1.957 1.832a4.691 4.691 0 01-2.759.318c-.937-.188-1.561-.806-2.041-1.716-.08 2.021-1.413 3.5-3.612 3.5-2.198 0-3.53-1.479-3.611-3.5-.48.91-1.104 1.528-2.042 1.716a4.691 4.691 0 01-2.759-.318c-.875-.372-1.543-.981-1.956-1.832-.417-.852-.278-1.73.018-2.756-1.032 1.488-2.786 1.873-4.325 1.156-2.113-.986-2.885-2.778-2.019-4.825 2.611-6.192 5.205-12.272 7.825-18.465.237-.56.44-1.133.704-1.693.229-.498.381-.86.597-1.16.157-.211.345-.39.619-.56-4.051.443-6.003 2.042-7.075 2.75-.283.189-.27.215-1.364-.125a1.895 1.895 0 00-1.454.157c-.489.269-.991.569-1.417.905-1.459 1.133-2.94 2.231-4.312 3.45-.641.569-1.566 1.55-1.436 2.424.1.82 2.096 2.71 2.688 3.27 1.413 1.34-.723 3.854-3.576 3.616.763-.797.938-1.474.844-2.074-.283-.005-.826.05-1.337-.408-.62-.556-.341-2.186-.911-2.742-1.005-.977-4.285-1.066-6.245-1.152-.821-.03-1.687-.255-1.624-1.536-1.252.08-1.508 1.008-1.508 1.846-1.072-.61-1.992-3.518 1.97-4.18-.669-.601-1.781-.83-2.463-.054-.642-1.067.982-3.16 3.916-1.976-.009-.014 1.315-1.739 5.28 2.692.499-.376.997-.743 1.45-1.164 1.53-1.394 5.397-5.171 5.397-5.171 0-2.12.319-6.232 3.123-8.701 1.202-1.049 2.342-1.604 4.877-2.066 0 0-1.225-1.917-1.418-2.67-2.208 2.209-6.645 2.863-6.645-.86-3.616 3.615-6.976 1.67-6.976-.6a14.692 14.692 0 01-.772 3.369c-.453 1.214-2.108 5.878-6.384 5.878-.099 1.618-.108 6.95-5.218 8.141-.215.054-.498.13-.637.3-2.063 2.563-10.637 5.256-11.691 4.53.668-.48 1.718-1.107 1.884-4.117.108-1.985.327-12.29.327-26.812v-.157c.013-5.309.722-21.646 17.035-23.943 2.5-.354 4.958-.166 7.089 1.415 2.898 2.16 4.325 5.807 2.62 9.93-.054.147-.099.295-.175.425-.579.981-.345 1.832.408 2.58 1.378 1.363 2.98 2.286 4.909 2.51 1.22.139 2.225-.395 3.032-1.228 1.849-1.9 3.105-4.135 3.558-6.761.857-4.987-.475-7.491-.547-7.648-1.342-2.684-4.19-4.656-7.488-4.938-1.512-2.823-5.85-1.707-5.85-1.707-1.086.238-1.467.551-1.746 1.084 0 0-1.897-2.898-.107-4.059 1.794-1.16 5.81-1.64 5.81-1.64 0-1.886 3.122-3.356 8.762-2.348 6.824 1.215 8.29-1.447 8.29-1.447.283 3.262-2.211 4.942-3.01 5.4 2.589 2.804 6.205 8.41 7.066 16.362.862-7.953 4.478-13.558 7.067-16.363-.804-.457-3.294-2.137-3.01-5.399zm138.721 36.127c6.595 0 11.171 3.248 11.171 11.089v15.556c0 3.204.687 3.952 2.001 3.952.453 0 1.14-.13 1.512-.255l.372 1.51c-2 1.003-3.885 1.196-4.706 1.196-2.068 0-3.383-.941-3.89-2.765l-.372-1.37c-3.392 2.692-7.097 4.135-10.175 4.135-5.72 0-9.43-3.016-9.43-8.285 0-5.645 4.217-8.284 9.99-9.342l6.398-1.196c2.145-.376 3.284-1.003 3.284-2.567 0-6.833-2.893-8.59-7.667-8.59-3.701 0-6.474 1.067-8.48 5.149h-.758v-3.903c2.455-3.002 6.968-4.314 10.75-4.314zm189.104 0c3.27 0 6.841.622 10.866 2.755l-1.566 4.696H532c-2.199-3.571-5.272-5.014-8.726-5.014-7.354 0-10.867 7.088-10.867 13.984 0 7.961 4.388 14.171 12.181 14.171 2.584 0 4.904-.371 8.542-4.328l.57.69-.758 3.074c-3.028 2.012-6.402 3.015-10.296 3.015-9.803 0-16.206-6.837-16.206-16.497 0-10.095 6.91-16.546 17.018-16.546zm-36.996 0c9.548 0 15.519 6.895 15.519 16.295 0 9.602-6.236 16.748-16.08 16.748-9.668 0-15.706-7.083-15.706-15.865 0-10.408 6.653-17.178 16.267-17.178zm68.715 0c3.266 0 6.842.622 10.861 2.755l-1.588 4.696h-.745c-2.189-3.571-5.267-5.014-8.717-5.014-7.357 0-10.875 7.088-10.875 13.984 0 7.961 4.41 14.171 12.19 14.171 2.562 0 4.895-.371 8.533-4.328l.556.69-.744 3.074c-3.01 2.012-6.412 3.015-10.297 3.015-9.794 0-16.196-6.837-16.196-16.497 0-10.095 6.914-16.546 17.022-16.546zm45.272.622c-.492 4.567-.574 12.138-.578 15.562v.3c0 2.634.071 11.102.578 15.87a23.383 23.383 0 00-2.889-.184c-1.072 0-2.32.062-3.275.183.49-4.656.57-12.843.574-15.676v-.194c0-3.266-.071-7.267-.116-8.593-4.285 4.332-15.595 19.136-19.162 24.463a8.266 8.266 0 00-1.817-.183c-.381 0-1.512.112-2.014.183.49-4.656.566-12.843.57-15.676v-.194c0-3.199-.068-11.156-.57-15.86 1.072.062 2.445.188 3.198.188.691 0 2.006-.126 2.957-.189-.502 4.705-.556 12.6-.556 15.861 0 2.635.054 6.331.112 8.092 3.459-4.198 15.77-19.813 18.726-23.953.669.121 1.113.189 1.871.189.373 0 1.687-.126 2.391-.189zm35.551 0c-.47 4.567-.552 12.138-.556 15.562v.3c0 2.634.071 11.102.556 15.87a23.164 23.164 0 00-2.89-.184c-1.063 0-2.328.062-3.256.183.479-4.545.55-12.455.556-15.465v-1.09c-.008-3.12-.058-6.673-.112-7.908-4.271 4.332-15.595 19.136-19.17 24.463a8.001 8.001 0 00-1.804-.183c-.382 0-1.512.112-2.001.183.466-4.545.549-12.455.556-15.465v-.998c-.01-3.505-.095-10.832-.556-15.268 1.058.063 2.431.189 3.185.189.69 0 2.014-.126 2.957-.189-.473 4.428-.549 11.682-.556 15.24v.621c0 2.635.053 6.331.111 8.092 3.46-4.198 15.757-19.813 18.709-23.953.69.121 1.135.189 1.889.189.372 0 1.7-.126 2.382-.189zm-218.642 0l-15.007 13.42c1.893 2.253 11.862 13.486 16.38 18.311-1.687-.12-2.88-.183-3.76-.183-1.135 0-2.831.062-4.146.183-2.324-3.638-9.421-11.976-13.306-16.246h-1.014c0 2.325.058 11.48.543 16.246a22.629 22.629 0 00-2.876-.183c-1.055 0-2.31.062-3.27.183.491-4.545.58-12.455.586-15.465v-.998c-.009-3.505-.1-10.832-.587-15.268 1.081.059 2.468.189 3.221.189.673 0 1.997-.126 2.926-.189-.485 4.705-.543 12.662-.543 13.8h1.014c2.068 0 12.678-12.048 13.688-13.8.875.063 2.31.189 3.064.189.642 0 2.149-.126 3.087-.189zm-34.977 0c-.492 4.567-.565 12.138-.57 15.562v.3c0 2.634.063 11.102.57 15.87a23.127 23.127 0 00-2.893-.184c-1.064 0-2.324.062-3.258.183.494-4.767.561-13.235.561-15.233-2.763-.198-6.532-.444-7.977-.444-1.709 0-5.9.112-8.425.305 0 2.137.072 10.6.57 15.372a23.147 23.147 0 00-2.885-.183c-1.068 0-2.324.062-3.27.183.474-4.545.553-12.455.56-15.465v-.998c-.009-3.505-.091-10.832-.56-15.268 1.067.059 2.458.189 3.216.189.69 0 2-.126 2.943-.189-.498 4.763-.57 12.662-.57 12.976 2.643.13 6.465.26 8.493.26 2.068 0 6.025-.126 7.91-.26v-.126c-.009-1.098-.094-8.402-.561-12.85 1.05.063 2.44.189 3.19.189.7 0 2.014-.126 2.956-.189zm-95.543-13.867c4.02.193 10.669.565 12.127.565 3.504 0 10.655-.314 14.742-.56a19.898 19.898 0 00-.188 2.258c0 .434.13 1.443.188 2.128-3.647-.502-9.672-.874-11.543-.874-1.315 0-6.411.121-9.17.372v15.75h3.198c6.542 0 20.297 1.25 20.297 12.598 0 9.217-7.73 13.42-17.896 13.357-1.14 0-5.402-.184-8.12-.184-1.18 0-2.626.063-3.635.184.371-6.64.493-15.705.502-23.42v-1.751c-.004-7.065-.066-17.11-.502-20.423zm153.288 0c2.082.058 4.909.193 6.353.193 2.185 0 5.025-.188 6.645-.188 11.62 0 16.15 3.512 16.15 11.407 0 10.234-8.613 13.486-18.829 13.486-.57 0-2.965-.12-4.163-.25v10.842c0 3.137.125 6.967.511 10.104a28.455 28.455 0 00-3.208-.184c-1.14 0-2.454.063-3.459.184.371-6.635.502-15.71.511-23.42v-2.179c-.008-7.036-.088-16.748-.51-19.995zm46.148 15.682c-6.784 0-10.108 7.088-10.108 14.548 0 7.088 2.952 13.607 9.605 13.607 6.407 0 10.243-6.147 10.243-14.548 0-6.774-2.643-13.607-9.74-13.607zm-145.765 13.733l-4.154.623c-4.522.694-9.552 2.258-9.552 7.034 0 3.634 2.02 5.578 6.093 5.578 2.517 0 5.03-.883 7.613-3.575v-9.66zm-47.516-6.466v19.011c1.634.063 3.572.126 5.335.126 7.416 0 11.732-3.455 11.732-9.916 0-6.958-5.137-9.22-17.067-9.22zm158.883-19.432c-1.058 0-4.71.059-5.594.189v17.612c.767.14 2.014.26 2.642.26 8.794 0 13.944-3.512 13.944-10.166 0-6.205-4.9-7.895-10.992-7.895z"/><circle cx="63.5" cy="191.5" r="61" stroke="#676E7B" stroke-width="5" opacity=".2"/><circle cx="191.5" cy="63.5" r="61" stroke="#676E7B" stroke-width="5" opacity=".2"/><circle cx="191.5" cy="319.5" r="61" stroke="#676E7B" stroke-width="5" opacity=".2"/><circle cx="701.5" cy="191.5" r="61" stroke="#676E7B" stroke-width="5" opacity=".2"/><text fill="#8F96A3" font-family="PT_RussiaText, PT_Russia Text" font-size="14"><tspan x="432" y="68">Охранное поле</tspan></text><text fill="#8F96A3" font-family="PT_RussiaText, PT_Russia Text" font-size="14"><tspan x="432" y="323">Охранное поле</tspan></text></g></svg>