<svg xmlns="http://www.w3.org/2000/svg" width="308" height="240"><g fill="none" fill-rule="evenodd"><rect width="307" height="239" x=".5" y=".5" stroke="#E8E9EB" rx="4"/><path fill="#8F96A3" fill-rule="nonzero" d="M120.16 48.7v-.984h-1.656V40.3h-1.128l-2.016 1.452v1.236l2.016-1.452v6.18h-2.016v.984h4.8zm4.44.12c.432 0 .838-.068 1.218-.204.38-.136.71-.37.99-.702.28-.332.502-.774.666-1.326.164-.552.246-1.244.246-2.076v-.24c0-.776-.076-1.426-.228-1.95-.152-.524-.366-.944-.642-1.26a2.335 2.335 0 00-.984-.678 3.736 3.736 0 00-1.266-.204c-.424 0-.826.068-1.206.204-.38.136-.712.362-.996.678-.284.316-.508.736-.672 1.26-.164.524-.246 1.174-.246 1.95v.24c0 .832.084 1.524.252 2.076.168.552.394.994.678 1.326.284.332.614.566.99.702a3.5 3.5 0 001.2.204zm0-1.008c-.24 0-.478-.046-.714-.138a1.498 1.498 0 01-.636-.504c-.188-.244-.342-.58-.462-1.008-.12-.428-.18-.978-.18-1.65v-.24c0-.624.06-1.134.18-1.53.12-.396.274-.71.462-.942.188-.232.4-.392.636-.48a2.03 2.03 0 01.714-.132c.272 0 .53.044.774.132.244.088.456.248.636.48.18.232.322.546.426.942.104.396.156.906.156 1.53v.24c0 .68-.058 1.234-.174 1.662-.116.428-.268.764-.456 1.008s-.402.41-.642.498a2.08 2.08 0 01-.72.132zm5.712.888v-4.62l1.848 3.18h.84l1.848-3.18v4.62h1.032v-6.36h-1.032l-2.232 3.9-2.232-3.9h-1.104v6.36h1.032zm8.52 0v-4.62l1.848 3.18h.84l1.848-3.18v4.62h1.032v-6.36h-1.032l-2.232 3.9-2.232-3.9H137.8v6.36h1.032zm11.52 0l3.396-4.8v4.8h1.032v-6.36h-1.032l-3.396 4.8v-4.8h-1.032v6.36h1.032zm9.912-5.24c.04-.336.105-.628.198-.874.116-.308.276-.558.48-.75.204-.192.452-.332.744-.42a3.8 3.8 0 011.014-.144 16.441 16.441 0 001.398-.084c.34-.04.574-.096.702-.168V40c-.264.136-.584.214-.96.234-.376.02-.816.042-1.32.066-.624.032-1.142.16-1.554.384a2.679 2.679 0 00-.996.93c-.252.396-.43.876-.534 1.44a10.693 10.693 0 00-.156 1.926v.24c0 .568.078 1.076.234 1.524.156.448.368.826.636 1.134.268.308.584.542.948.702.364.16.758.24 1.182.24.432 0 .832-.076 1.2-.228.368-.152.684-.37.948-.654.264-.284.472-.624.624-1.02a3.71 3.71 0 00.228-1.338v-.24c0-.464-.068-.882-.204-1.254a2.677 2.677 0 00-.57-.942 2.532 2.532 0 00-.87-.594 2.874 2.874 0 00-1.116-.21c-.528 0-.992.124-1.392.372a2.26 2.26 0 00-.888 1.008v-.001l.024-.26zm2.016 4.424c-.264 0-.514-.054-.75-.162a1.831 1.831 0 01-.618-.462 2.264 2.264 0 01-.42-.726 2.759 2.759 0 01-.156-.954v-.24c0-.312.048-.594.144-.846a1.862 1.862 0 011.026-1.068c.236-.1.494-.15.774-.15s.538.05.774.15a1.862 1.862 0 011.026 1.068c.096.252.144.534.144.846v.24c0 .368-.048.696-.144.984-.096.288-.232.53-.408.726a1.73 1.73 0 01-.618.444c-.236.1-.494.15-.774.15zm7.14.936c.408 0 .796-.066 1.164-.198.368-.132.692-.332.972-.6.28-.268.504-.606.672-1.014.168-.408.252-.884.252-1.428v-.24c0-.512-.084-.964-.252-1.356a2.839 2.839 0 00-.672-.978 2.803 2.803 0 00-.972-.588 3.421 3.421 0 00-1.164-.198c-.408 0-.796.066-1.164.198a2.803 2.803 0 00-.972.588c-.28.26-.504.586-.672.978-.168.392-.252.844-.252 1.356v.24c0 .544.084 1.02.252 1.428.168.408.392.746.672 1.014s.604.468.972.6c.368.132.756.198 1.164.198zm0-.936c-.248 0-.492-.042-.732-.126a1.723 1.723 0 01-.642-.402 2.032 2.032 0 01-.456-.714c-.116-.292-.174-.646-.174-1.062v-.24c0-.384.058-.714.174-.99.116-.276.268-.502.456-.678a1.8 1.8 0 01.642-.39 2.201 2.201 0 011.464 0 1.8 1.8 0 01.642.39c.188.176.34.402.456.678.116.276.174.606.174.99v.24c0 .416-.058.77-.174 1.062-.116.292-.268.53-.456.714a1.723 1.723 0 01-.642.402c-.24.084-.484.126-.732.126zm3.78.936c.352 0 .666-.058.942-.174.276-.116.51-.318.702-.606.192-.288.338-.676.438-1.164.1-.488.15-1.104.15-1.848v-1.776h2.592V48.7h1.056v-6.36h-4.68v2.46c0 1.032-.084 1.788-.252 2.268-.168.48-.484.72-.948.72v1.032zm10.38 0c.32 0 .626-.04.918-.12.292-.08.554-.198.786-.354.232-.156.43-.35.594-.582.164-.232.278-.5.342-.804h-.948c-.064.288-.236.514-.516.678-.28.164-.672.246-1.176.246-.224 0-.452-.038-.684-.114a1.745 1.745 0 01-.624-.36 1.909 1.909 0 01-.456-.636c-.12-.26-.18-.574-.18-.942h4.704v-.792c0-.88-.25-1.57-.75-2.07-.5-.5-1.19-.75-2.07-.75-.392 0-.766.062-1.122.186a2.517 2.517 0 00-.936.576c-.268.26-.482.586-.642.978-.16.392-.24.852-.24 1.38v.24c0 .544.084 1.02.252 1.428.168.408.39.746.666 1.014s.594.468.954.6c.36.132.736.198 1.128.198zm1.764-3.852h-3.708c0-.32.056-.596.168-.828a1.63 1.63 0 011.032-.882 2.342 2.342 0 011.374 0c.22.068.412.174.576.318.164.144.296.332.396.564.1.232.154.508.162.828zm5.076 3.852c.32 0 .626-.04.918-.12.292-.08.554-.198.786-.354.232-.156.43-.35.594-.582.164-.232.278-.5.342-.804h-.948c-.064.288-.236.514-.516.678-.28.164-.672.246-1.176.246-.224 0-.452-.038-.684-.114a1.745 1.745 0 01-.624-.36 1.909 1.909 0 01-.456-.636c-.12-.26-.18-.574-.18-.942h4.704v-.792c0-.88-.25-1.57-.75-2.07-.5-.5-1.19-.75-2.07-.75-.392 0-.766.062-1.122.186a2.517 2.517 0 00-.936.576c-.268.26-.482.586-.642.978-.16.392-.24.852-.24 1.38v.24c0 .544.084 1.02.252 1.428.168.408.39.746.666 1.014s.594.468.954.6c.36.132.736.198 1.128.198zm1.764-3.852h-3.708c0-.32.056-.596.168-.828a1.63 1.63 0 011.032-.882 2.342 2.342 0 011.374 0c.22.068.412.174.576.318.164.144.296.332.396.564.1.232.154.508.162.828z"/><path fill="#8F96A3" d="M194 61.7h-1v-2h-78v2h-1v-5h1v2h78v-2h1v5z"/><path fill="#595959" fill-rule="nonzero" d="M215.221 178.309c2.13 0 4.468.409 7.09 1.807l-1.034 3.082h-.486c-1.433-2.34-3.44-3.287-5.69-3.287-4.806 0-7.105 4.646-7.105 9.172 0 5.227 2.886 9.301 7.961 9.301 1.675 0 3.198-.248 5.57-2.842l.368.451-.489 2.016c-1.964 1.325-4.181 1.977-6.725 1.977-6.393 0-10.575-4.483-10.575-10.822 0-6.62 4.508-10.855 11.115-10.855zm-20.711 0c2.138 0 4.468.409 7.09 1.807l-1.02 3.082h-.495c-1.436-2.34-3.437-3.287-5.7-3.287-4.799 0-7.092 4.646-7.092 9.172 0 5.227 2.87 9.301 7.956 9.301 1.686 0 3.2-.248 5.575-2.842l.374.451-.498 2.016c-1.97 1.325-4.173 1.977-6.722 1.977-6.401 0-10.583-4.483-10.583-10.822 0-6.62 4.508-10.855 11.115-10.855zm-123.485-.003c4.305 0 7.295 2.137 7.295 7.277v10.207c0 2.098.45 2.589 1.307 2.589.295 0 .745-.082.987-.17l.244.993c-1.307.657-2.538.784-3.074.784-1.352 0-2.212-.62-2.54-1.816l-.243-.9c-2.217 1.774-4.634 2.716-6.643 2.716-3.735 0-6.16-1.977-6.16-5.436 0-3.7 2.754-5.43 6.523-6.127l4.178-.781c1.4-.248 2.145-.66 2.145-1.69 0-4.482-1.889-5.635-5.005-5.635-2.42 0-4.227.702-5.537 3.377h-.494v-2.551c1.604-1.974 4.55-2.837 7.017-2.837zm99.325 0c6.233 0 10.13 4.528 10.13 10.692 0 6.296-4.066 10.985-10.495 10.985-6.315 0-10.258-4.644-10.258-10.407 0-6.826 4.35-11.27 10.623-11.27zm-112.806-8.684a13.17 13.17 0 00-.12 1.483c0 .285.084.947.12 1.399-2.383-.33-6.317-.573-7.54-.573-.857 0-4.181.074-5.985.243v10.33h2.088c4.271 0 13.253.821 13.253 8.265 0 6.045-5.047 8.802-11.685 8.766-.745 0-3.527-.122-5.3-.122-.773 0-1.717.037-2.375.122.237-4.29.32-10.131.328-15.138v-1.939c-.006-4.592-.058-10.749-.328-12.836 2.625.124 6.967.37 7.916.37 2.29 0 6.959-.204 9.628-.37zm187.243 9.099c-.313 2.867-.371 7.537-.378 9.903v.884c.006 2.052.063 7.104.378 10.027a15.375 15.375 0 00-1.888-.122c-.703 0-1.518.043-2.136.122.318-3.024.366-8.326.368-10.229v-.178c0-2.143-.039-4.771-.076-5.637-2.796 2.84-10.178 12.55-12.508 16.044a5.432 5.432 0 00-1.191-.122c-.25 0-.99.076-1.318.122.318-3.024.37-8.326.373-10.229v-.178c0-2.104-.045-7.323-.373-10.407.702.04 1.599.12 2.088.12.455 0 1.31-.08 1.933-.12-.326 3.087-.365 8.267-.365 10.407 0 1.725.039 4.153.078 5.303 2.254-2.754 10.291-12.995 12.225-15.71.441.079.73.12 1.225.12.242 0 1.099-.08 1.565-.12zm23.213 0c-.309 2.977-.362 7.9-.365 10.166v.24c0 1.726.045 7.284.365 10.408a15.166 15.166 0 00-1.888-.122c-.695 0-1.515.043-2.125.122.32-3.024.363-8.326.365-10.229v-.178c0-2.143-.033-4.771-.078-5.637-2.785 2.84-10.176 12.55-12.514 16.044a5.275 5.275 0 00-1.18-.122c-.25 0-.99.076-1.31.122.32-3.124.365-8.682.365-10.407 0-2.104-.045-7.323-.365-10.407.694.04 1.588.12 2.08.12.452 0 1.317-.08 1.933-.12-.315 2.977-.362 7.9-.365 10.166v.24c0 1.726.039 4.154.078 5.304 2.254-2.754 10.286-12.995 12.216-15.71.45.079.74.12 1.231.12.242 0 1.107-.08 1.557-.12zm-142.777-.003l-9.796 8.805c1.236 1.478 7.742 8.845 10.698 12.012-1.101-.08-1.883-.122-2.453-.122-.745 0-1.852.043-2.712.122-1.515-2.386-6.152-7.856-8.69-10.655h-.657v.314c.006 1.907.056 7.398.357 10.34a14.861 14.861 0 00-1.88-.12c-.686 0-1.509.042-2.133.12.326-3.025.38-8.322.382-10.23v-.18c0-2.1-.045-7.316-.382-10.403.703.04 1.605.118 2.097.118.444 0 1.31-.079 1.916-.121-.32 3.09-.357 8.303-.357 9.053h.658c1.352 0 8.282-7.906 8.94-9.053.572.042 1.508.121 2.003.121.416 0 1.402-.079 2.01-.121zm23.362-9.096c7.587 0 10.538 2.306 10.538 7.489 0 6.71-5.62 8.845-12.292 8.845-.374 0-1.939-.082-2.717-.164v7.111c0 2.055.084 4.568.334 6.629-.7-.08-1.394-.121-2.094-.121a20.4 20.4 0 00-2.259.12c.247-4.525.334-10.778.334-15.964v-.732c-.005-4.623-.057-11.068-.334-13.213 1.36.04 3.206.124 4.15.124 1.428 0 3.283-.124 4.34-.124zm-64.2 9.093c.694.045 1.604.124 2.096.124.453 0 1.31-.079 1.925-.121-.328 3.121-.373 8.303-.373 8.518 1.725.079 4.22.163 5.544.163 1.352 0 3.932-.082 5.163-.163v-.069c-.005-.668-.058-5.506-.366-8.45.689.043 1.596.122 2.083.122.458 0 1.315-.079 1.93-.121-.317 2.98-.367 7.902-.37 10.164v.621c.006 2.056.063 7.104.37 10.029a15.063 15.063 0 00-1.888-.121c-.692 0-1.515.042-2.125.12.323-3.126.366-8.678.366-9.995-1.802-.13-4.26-.293-5.205-.293-1.118 0-3.856.082-5.502.209 0 1.398.045 6.95.373 10.077a15.166 15.166 0 00-1.888-.121c-.694 0-1.515.042-2.133.12.313-3.025.362-8.322.365-10.23v-.179c0-2.1-.042-7.317-.365-10.404zm85.841 1.196c-4.426 0-6.6 4.649-6.6 9.544 0 4.646 1.932 8.926 6.269 8.926 4.187 0 6.688-4.034 6.688-9.547 0-4.44-1.723-8.923-6.357-8.923zm-95.18 9.005l-2.709.412c-2.956.454-6.238 1.477-6.238 4.613 0 2.382 1.318 3.66 3.976 3.66 1.647 0 3.282-.579 4.971-2.344v-6.34zm-31.025-4.238v12.471a89.97 89.97 0 003.485.082c4.84 0 7.658-2.267 7.658-6.502 0-4.565-3.355-6.05-11.143-6.05zm103.749-12.747c-.694 0-3.075.042-3.654.121v11.558c.5.09 1.316.166 1.723.166 5.741 0 9.11-2.298 9.11-6.662 0-4.075-3.203-5.183-7.18-5.183zM153.994 69.7c22.007 0 39.838 17.893 39.838 39.961 0 22.072-17.83 39.965-39.838 39.965-21.993 0-39.826-17.893-39.826-39.965 0-22.068 17.833-39.961 39.826-39.961zm0 3.087c-20.298 0-36.75 16.506-36.75 36.874 0 20.366 16.452 36.875 36.75 36.875 20.304 0 36.761-16.509 36.761-36.875 0-20.368-16.457-36.874-36.76-36.874zm2.54 8.169s.917 1.677 5.191.91c3.536-.631 5.494.29 5.494 1.478 0 0 2.513.301 3.637 1.032 1.124.733-.07 2.554-.07 2.554-.17-.335-.408-.53-1.09-.68 0 0-2.716-.704-3.663 1.072-2.068.178-3.85 1.418-4.69 3.107-.05.102-.834 1.661-.343 4.813.253 1.658 1.071 3.06 2.229 4.258.503.524 1.135.86 1.897.772 1.208-.14 2.214-.721 3.074-1.579.472-.473.621-1.009.259-1.626-.05-.082-.073-.172-.11-.265-1.07-2.597-.174-4.892 1.641-6.251 1.338-.996 2.872-1.111 4.44-.891 10.085 1.426 10.65 11.45 10.67 14.929v.24c0 9.138.141 15.62.203 16.872.104 1.895.767 2.292 1.18 2.591-.654.457-6.025-1.238-7.317-2.85-.093-.108-.265-.153-.405-.187-3.2-.752-3.206-4.108-3.266-5.128-2.675 0-3.712-2.935-4.001-3.7a9.468 9.468 0 01-.484-2.12c0 1.427-2.105 2.653-4.37.378 0 2.343-2.779 1.929-4.162.541-.12.474-.882 1.68-.882 1.68 1.585.288 2.299.638 3.052 1.3 1.76 1.554 1.959 4.14 1.959 5.476 0 0 2.417 2.377 3.378 3.257.283.262.595.493.905.73 2.484-2.789 3.316-1.697 3.31-1.695 1.835-.741 2.858.578 2.45 1.247-.424-.488-1.12-.344-1.542.034 2.478.417 1.905 2.247 1.236 2.627 0-.524-.166-1.108-.944-1.161.036.806-.503.947-1.02.967-1.228.05-3.283.11-3.91.724-.359.35-.187 1.376-.57 1.726a1.023 1.023 0 01-.702.256h-.14c-.063.378.05.804.528 1.306-1.785.15-3.125-1.432-2.24-2.273.37-.355 1.624-1.545 1.683-2.058.084-.552-.494-1.167-.894-1.528-.865-.77-1.792-1.458-2.7-2.171-.27-.212-.582-.4-.891-.57a1.182 1.182 0 00-.91-.098c-.686.214-.678.197-.855.079-.674-.446-1.891-1.452-4.432-1.732.172.108.29.22.385.353.138.189.23.417.383.73.157.353.286.716.435 1.069 1.641 3.894 3.266 7.72 4.901 11.616.548 1.289.065 2.414-1.262 3.037-.966.448-2.062.206-2.711-.73.188.645.278 1.2.01 1.737a2.31 2.31 0 01-1.224 1.15 2.948 2.948 0 01-1.729.206c-.587-.122-.978-.513-1.278-1.083-.051 1.269-.883 2.2-2.263 2.2s-2.211-.931-2.262-2.2c-.3.57-.691.961-1.279 1.083a2.95 2.95 0 01-1.728-.206 2.32 2.32 0 01-1.225-1.15c-.261-.536-.174-1.092.011-1.737-.646.936-1.745 1.178-2.709.73-1.324-.623-1.807-1.748-1.265-3.037 1.636-3.896 3.26-7.722 4.902-11.616.148-.353.275-.716.44-1.069.147-.313.24-.541.377-.73.096-.133.214-.245.385-.353-2.537.28-3.757 1.286-4.431 1.732l-.036.023c-.146.096-.182.097-.819-.102a1.184 1.184 0 00-.91.098c-.307.17-.621.358-.888.57-.914.713-1.841 1.401-2.7 2.171-.403.36-.982.976-.9 1.528.062.513 1.312 1.703 1.683 2.058.885.84-.452 2.422-2.24 2.273.478-.502.588-.928.529-1.305-.177-.003-.517.03-.838-.257-.388-.35-.213-1.376-.57-1.726-.63-.614-2.684-.673-3.912-.724-.517-.02-1.057-.16-1.02-.967-.781.053-.944.637-.944 1.161-.67-.38-1.245-2.21 1.236-2.625-.419-.38-1.116-.524-1.546-.036-.401-.669.619-1.988 2.454-1.247-.003-.002.826-1.094 3.31 1.695.31-.237.621-.468.908-.73.958-.88 3.38-3.257 3.38-3.257 0-1.336.2-3.922 1.957-5.475.75-.663 1.467-1.013 3.054-1.3 0 0-.767-1.207-.888-1.68-1.382 1.387-4.162 1.801-4.162-.542-2.265 2.275-4.37 1.049-4.37-.378a9.316 9.316 0 01-.483 2.12c-.284.765-1.324 3.7-3.999 3.7-.062 1.02-.067 4.376-3.268 5.128-.135.034-.312.08-.4.187-1.292 1.612-6.665 3.307-7.323 2.85.419-.299 1.077-.696 1.18-2.591.066-1.208.194-7.286.202-15.92v-.952c0-3.231.35-13.709 10.674-15.17 1.565-.22 3.105-.104 4.44.892 1.816 1.359 2.71 3.654 1.642 6.25-.034.094-.062.184-.11.266-.363.617-.216 1.153.256 1.626.862.858 1.866 1.438 3.074 1.58.764.087 1.394-.249 1.9-.773 1.158-1.198 1.944-2.605 2.228-4.258.537-3.138-.298-4.711-.345-4.813-.84-1.689-2.622-2.93-4.69-3.107-.945-1.776-3.662-1.071-3.662-1.071-.683.15-.922.344-1.094.68 0 0-1.191-1.822-.067-2.555 1.124-.73 3.64-1.032 3.64-1.032 0-1.187 1.955-2.11 5.49-1.478 4.272.767 5.19-.91 5.19-.91.178 2.052-1.385 3.112-1.885 3.397 1.619 1.765 3.887 5.292 4.426 10.297.537-5.005 2.808-8.532 4.43-10.297-.507-.285-2.066-1.345-1.89-3.397z"/></g></svg>