<svg xmlns="http://www.w3.org/2000/svg" width="376" height="279"><g fill="none" fill-rule="evenodd"><rect width="375" height="278" x=".5" y=".5" stroke="#E8E9EB" rx="4"/><path fill="#8F96A3" fill-rule="nonzero" d="M154.16 48.7v-.984h-1.656V40.3h-1.128l-2.016 1.452v1.236l2.016-1.452v6.18h-2.016v.984h4.8zm4.44.12c.432 0 .838-.068 1.218-.204.38-.136.71-.37.99-.702.28-.332.502-.774.666-1.326.164-.552.246-1.244.246-2.076v-.24c0-.776-.076-1.426-.228-1.95-.152-.524-.366-.944-.642-1.26a2.335 2.335 0 00-.984-.678 3.736 3.736 0 00-1.266-.204c-.424 0-.826.068-1.206.204-.38.136-.712.362-.996.678-.284.316-.508.736-.672 1.26-.164.524-.246 1.174-.246 1.95v.24c0 .832.084 1.524.252 2.076.168.552.394.994.678 1.326.284.332.614.566.99.702a3.5 3.5 0 001.2.204zm0-1.008c-.24 0-.478-.046-.714-.138a1.498 1.498 0 01-.636-.504c-.188-.244-.342-.58-.462-1.008-.12-.428-.18-.978-.18-1.65v-.24c0-.624.06-1.134.18-1.53.12-.396.274-.71.462-.942.188-.232.4-.392.636-.48a2.03 2.03 0 01.714-.132c.272 0 .53.044.774.132.244.088.456.248.636.48.18.232.322.546.426.942.104.396.156.906.156 1.53v.24c0 .68-.058 1.234-.174 1.662-.116.428-.268.764-.456 1.008s-.402.41-.642.498a2.08 2.08 0 01-.72.132zm5.712.888v-4.62l1.848 3.18h.84l1.848-3.18v4.62h1.032v-6.36h-1.032l-2.232 3.9-2.232-3.9h-1.104v6.36h1.032zm8.52 0v-4.62l1.848 3.18h.84l1.848-3.18v4.62h1.032v-6.36h-1.032l-2.232 3.9-2.232-3.9H171.8v6.36h1.032zm11.52 0l3.396-4.8v4.8h1.032v-6.36h-1.032l-3.396 4.8v-4.8h-1.032v6.36h1.032zm9.912-5.24c.04-.336.105-.628.198-.874.116-.308.276-.558.48-.75.204-.192.452-.332.744-.42a3.8 3.8 0 011.014-.144 16.441 16.441 0 001.398-.084c.34-.04.574-.096.702-.168V40c-.264.136-.584.214-.96.234-.376.02-.816.042-1.32.066-.624.032-1.142.16-1.554.384a2.679 2.679 0 00-.996.93c-.252.396-.43.876-.534 1.44a10.693 10.693 0 00-.156 1.926v.24c0 .568.078 1.076.234 1.524.156.448.368.826.636 1.134.268.308.584.542.948.702.364.16.758.24 1.182.24.432 0 .832-.076 1.2-.228.368-.152.684-.37.948-.654.264-.284.472-.624.624-1.02a3.71 3.71 0 00.228-1.338v-.24c0-.464-.068-.882-.204-1.254a2.677 2.677 0 00-.57-.942 2.532 2.532 0 00-.87-.594 2.874 2.874 0 00-1.116-.21c-.528 0-.992.124-1.392.372a2.26 2.26 0 00-.888 1.008v-.001l.024-.26zm2.016 4.424c-.264 0-.514-.054-.75-.162a1.831 1.831 0 01-.618-.462 2.264 2.264 0 01-.42-.726 2.759 2.759 0 01-.156-.954v-.24c0-.312.048-.594.144-.846a1.862 1.862 0 011.026-1.068c.236-.1.494-.15.774-.15s.538.05.774.15a1.862 1.862 0 011.026 1.068c.096.252.144.534.144.846v.24c0 .368-.048.696-.144.984-.096.288-.232.53-.408.726a1.73 1.73 0 01-.618.444c-.236.1-.494.15-.774.15zm7.14.936c.408 0 .796-.066 1.164-.198.368-.132.692-.332.972-.6.28-.268.504-.606.672-1.014.168-.408.252-.884.252-1.428v-.24c0-.512-.084-.964-.252-1.356a2.839 2.839 0 00-.672-.978 2.803 2.803 0 00-.972-.588 3.421 3.421 0 00-1.164-.198c-.408 0-.796.066-1.164.198a2.803 2.803 0 00-.972.588c-.28.26-.504.586-.672.978-.168.392-.252.844-.252 1.356v.24c0 .544.084 1.02.252 1.428.168.408.392.746.672 1.014s.604.468.972.6c.368.132.756.198 1.164.198zm0-.936c-.248 0-.492-.042-.732-.126a1.723 1.723 0 01-.642-.402 2.032 2.032 0 01-.456-.714c-.116-.292-.174-.646-.174-1.062v-.24c0-.384.058-.714.174-.99.116-.276.268-.502.456-.678a1.8 1.8 0 01.642-.39 2.201 2.201 0 011.464 0 1.8 1.8 0 01.642.39c.188.176.34.402.456.678.116.276.174.606.174.99v.24c0 .416-.058.77-.174 1.062-.116.292-.268.53-.456.714a1.723 1.723 0 01-.642.402c-.24.084-.484.126-.732.126zm3.78.936c.352 0 .666-.058.942-.174.276-.116.51-.318.702-.606.192-.288.338-.676.438-1.164.1-.488.15-1.104.15-1.848v-1.776h2.592V48.7h1.056v-6.36h-4.68v2.46c0 1.032-.084 1.788-.252 2.268-.168.48-.484.72-.948.72v1.032zm10.38 0c.32 0 .626-.04.918-.12.292-.08.554-.198.786-.354.232-.156.43-.35.594-.582.164-.232.278-.5.342-.804h-.948c-.064.288-.236.514-.516.678-.28.164-.672.246-1.176.246-.224 0-.452-.038-.684-.114a1.745 1.745 0 01-.624-.36 1.909 1.909 0 01-.456-.636c-.12-.26-.18-.574-.18-.942h4.704v-.792c0-.88-.25-1.57-.75-2.07-.5-.5-1.19-.75-2.07-.75-.392 0-.766.062-1.122.186a2.517 2.517 0 00-.936.576c-.268.26-.482.586-.642.978-.16.392-.24.852-.24 1.38v.24c0 .544.084 1.02.252 1.428.168.408.39.746.666 1.014s.594.468.954.6c.36.132.736.198 1.128.198zm1.764-3.852h-3.708c0-.32.056-.596.168-.828a1.63 1.63 0 011.032-.882 2.342 2.342 0 011.374 0c.22.068.412.174.576.318.164.144.296.332.396.564.1.232.154.508.162.828zm5.076 3.852c.32 0 .626-.04.918-.12.292-.08.554-.198.786-.354.232-.156.43-.35.594-.582.164-.232.278-.5.342-.804h-.948c-.064.288-.236.514-.516.678-.28.164-.672.246-1.176.246-.224 0-.452-.038-.684-.114a1.745 1.745 0 01-.624-.36 1.909 1.909 0 01-.456-.636c-.12-.26-.18-.574-.18-.942h4.704v-.792c0-.88-.25-1.57-.75-2.07-.5-.5-1.19-.75-2.07-.75-.392 0-.766.062-1.122.186a2.517 2.517 0 00-.936.576c-.268.26-.482.586-.642.978-.16.392-.24.852-.24 1.38v.24c0 .544.084 1.02.252 1.428.168.408.39.746.666 1.014s.594.468.954.6c.36.132.736.198 1.128.198zm1.764-3.852h-3.708c0-.32.056-.596.168-.828a1.63 1.63 0 011.032-.882 2.342 2.342 0 011.374 0c.22.068.412.174.576.318.164.144.296.332.396.564.1.232.154.508.162.828z"/><path fill="#8F96A3" d="M240 61.7h-1v-2H137v2h-1v-5h1v2h102v-2h1v5z"/><path fill="#595959" fill-rule="nonzero" d="M267.476 210.881c2.767 0 5.803.53 9.21 2.345l-1.345 3.997h-.631c-1.857-3.038-4.466-4.267-7.391-4.267-6.24 0-9.22 6.03-9.22 11.9 0 6.776 3.742 12.058 10.334 12.058 2.173 0 4.15-.317 7.233-3.682l.473.588-.632 2.616c-2.553 1.712-5.43 2.564-8.727 2.564-8.301 0-13.732-5.818-13.732-14.037 0-8.59 5.858-14.082 14.428-14.082zm-26.89 0c2.778 0 5.803.53 9.21 2.345l-1.325 3.997h-.641c-1.868-3.038-4.466-4.267-7.401-4.267-6.23 0-9.21 6.03-9.21 11.9 0 6.776 3.723 12.058 10.324 12.058 2.192 0 4.16-.317 7.243-3.682l.482.588-.64 2.616c-2.563 1.712-5.423 2.564-8.728 2.564-8.31 0-13.742-5.818-13.742-14.037 0-8.59 5.858-14.082 14.428-14.082zm-160.307 0c5.589 0 9.47 2.769 9.47 9.437v13.236c0 2.722.585 3.36 1.699 3.36.38 0 .965-.107 1.281-.214l.316 1.284c-1.7.852-3.296 1.015-3.993 1.015-1.754 0-2.869-.8-3.296-2.35l-.316-1.169c-2.877 2.295-6.016 3.52-8.625 3.52-4.847 0-7.994-2.565-7.994-7.048 0-4.802 3.574-7.045 8.467-7.948l5.423-1.014c1.82-.321 2.786-.857 2.786-2.188 0-5.817-2.452-7.31-6.5-7.31-3.138 0-5.487.907-7.186 4.378h-.64v-3.313c2.079-2.56 5.904-3.676 9.108-3.676zm128.943 0c8.097 0 13.158 5.867 13.158 13.867 0 8.168-5.283 14.25-13.63 14.25-8.2 0-13.316-6.027-13.316-13.5 0-8.857 5.646-14.617 13.788-14.617zm96.639.53c-.423 3.873-.489 10.292-.493 13.215v.687c.007 2.606.08 9.26.493 13.099a19.116 19.116 0 00-2.452-.158c-.91 0-1.967.051-2.776.158.416-3.948.48-10.875.483-13.312v-.193c0-2.774-.055-6.185-.102-7.311-3.631 3.686-13.213 16.28-16.24 20.816a6.926 6.926 0 00-1.541-.158c-.325 0-1.282.102-1.709.158.415-3.948.48-10.875.482-13.312v-.193c0-2.723-.055-9.494-.482-13.496.91.05 2.07.16 2.712.16.585 0 1.698-.109 2.507-.16-.4 3.744-.466 9.867-.473 12.912v.584c0 2.243.046 5.389.102 6.883 2.925-3.57 13.36-16.856 15.867-20.38.576.104.948.16 1.589.16.316 0 1.43-.108 2.033-.16zm-208.239-.002c.901.053 2.08.16 2.721.16.585 0 1.7-.107 2.498-.159-.427 4.049-.483 10.774-.483 11.044 2.238.106 5.478.214 7.196.214 1.754 0 5.107-.107 6.704-.214 0-.32-.057-7.041-.473-11.044.89.051 2.07.159 2.7.159.595 0 1.71-.107 2.508-.159-.428 4.003-.483 10.723-.483 13.496 0 2.243.055 9.448.483 13.505a18.783 18.783 0 00-2.452-.158c-.9 0-1.968.051-2.756.158.416-4.057.473-11.261.473-12.965-2.34-.167-5.534-.377-6.76-.377-1.448 0-5.004.103-7.14.264 0 1.815.056 9.02.483 13.077a18.888 18.888 0 00-2.451-.158c-.901 0-1.969.052-2.768.158.396-3.838.467-10.491.474-13.098v-.406c0-2.724-.056-9.494-.474-13.497zm-34.846-11.796a17.249 17.249 0 00-.157 1.922c0 .373.111 1.23.157 1.815-3.092-.428-8.198-.745-9.786-.745-1.114 0-5.431.103-7.771.317v13.398h2.71c5.544 0 17.206 1.065 17.206 10.722 0 7.842-6.555 11.42-15.172 11.37-.965 0-4.577-.158-6.88-.158-1.003 0-2.229.05-3.083.157.325-5.872.428-13.985.428-20.709v-.785c-.005-6.006-.063-14.493-.428-17.304 3.408.162 9.044.48 10.279.48 2.971 0 9.034-.266 12.497-.48zm87.864 11.797l-12.72 11.42c1.605 1.918 10.055 11.473 13.89 15.581-1.43-.107-2.442-.158-3.185-.158-.966 0-2.405.051-3.52.158-1.967-3.094-7.985-10.191-11.28-13.825h-.854v.32c.005 2.39.066 9.641.464 13.505a18.549 18.549 0 00-2.443-.158c-.89 0-1.958.051-2.766.158.436-4.057.492-11.261.492-13.505 0-2.723-.056-9.493-.492-13.496.91.052 2.08.159 2.72.159.576 0 1.7-.107 2.489-.159-.418 4.003-.464 10.774-.464 11.742h.854c1.755 0 10.752-10.253 11.606-11.742.742.051 1.96.159 2.6.159.538 0 1.82-.107 2.609-.159zm185.36 0c-.39 3.745-.464 9.868-.472 12.913v.99c.006 2.606.077 9.26.472 13.099-.8-.107-1.653-.158-2.451-.158-.9 0-1.969.051-2.758.158.427-4.057.474-11.262.474-13.505 0-2.774-.047-6.185-.103-7.311-3.62 3.686-13.212 16.28-16.249 20.816a6.78 6.78 0 00-1.531-.158c-.326 0-1.282.102-1.7.158.418-4.057.473-11.262.473-13.505 0-2.723-.055-9.494-.473-13.496.9.05 2.062.16 2.702.16.585 0 1.71-.109 2.507-.16-.427 4.002-.473 10.722-.473 13.496 0 2.243.046 5.389.103 6.883 2.925-3.57 13.351-16.856 15.858-20.38.585.104.956.16 1.597.16.316 0 1.439-.108 2.024-.16zm-155.031-11.798c9.85 0 13.685 2.993 13.685 9.713 0 8.703-7.297 11.476-15.96 11.476-.483 0-2.517-.107-3.529-.214v9.228c0 2.667.112 5.925.437 8.595-.91-.106-1.81-.157-2.72-.157-.967 0-2.08.05-2.934.157.31-5.616.426-13.283.435-19.824v-2.074c-.008-5.976-.079-14.15-.435-16.9 1.763.052 4.159.163 5.385.163 1.857 0 4.26-.163 5.636-.163zm28.096 13.344c-5.747 0-8.57 6.03-8.57 12.379 0 6.031 2.507 11.579 8.143 11.579 5.431 0 8.68-5.23 8.68-12.38 0-5.761-2.237-11.578-8.253-11.578zM85.497 224.64l-3.52.531c-3.834.59-8.096 1.923-8.096 5.985 0 3.09 1.708 4.747 5.162 4.747 2.136 0 4.262-.75 6.454-3.039v-8.224zm-40.278-5.496v16.172c1.383.05 3.026.107 4.521.107 6.287 0 9.944-2.941 9.944-8.433 0-5.923-4.354-7.846-14.465-7.846zm134.691-16.54c-.9 0-3.992.052-4.744.159v14.99c.65.116 1.708.219 2.238.219 7.455 0 11.827-2.988 11.827-8.648 0-5.281-4.159-6.72-9.32-6.72zM187.992 70c28.566 0 51.717 23.208 51.717 51.832 0 28.624-23.15 51.833-51.717 51.833-28.55 0-51.7-23.208-51.7-51.833 0-28.624 23.149-51.832 51.7-51.832zm0 4.004c-26.35 0-47.704 21.41-47.704 47.828 0 26.415 21.354 47.829 47.704 47.829 26.358 0 47.72-21.414 47.72-47.83 0-26.416-21.362-47.827-47.72-47.827zm11.51 12.311c.991-.186 2.137-.214 2.76-.09 1.637.32 2.638 1.203 2.862 1.419l.048.048c1.658.186 2.424.342 3.369.886.869.504 1.482 1.766 1.292 2.68-1.083-.566-2.27-1.014-3.459-.457 0 0 1.379.838 2.262 1.048.447.11 1.753.271 2.309-.166 1.059-.84.341-2.048.341-2.048 1.436.857 1.002 3.009-.94 3.319-2.342.381-3.929-.634-5.026-1.015.431.172.936.867 1.05 1.234l-.002-.003c-.06-.079-.62-.689-3.316.045l-.259.072c-.461.134-1.273.233-1.73.353-1.675.437-2.551 1.633-2.388 2.99-.372-.376-.561-.915-.561-.915s-.523.92-.015 2.582c-.413-.205-.75-.79-.75-.79-.185.214-.428 1.233-.48 2.123-.072 1.314.033 2.196.233 3.496.327 2.147 1.396 3.966 2.888 5.518.66.687 1.487 1.12 2.456 1.005 1.582-.18 2.888-.937 3.995-2.048.617-.618.813-1.309.342-2.108-.061-.106-.1-.224-.147-.343-1.382-3.367-.222-6.349 2.138-8.115 1.73-1.286 3.724-1.39 5.762-1.152 1.544.185 2.907.88 4.313 1.471.79.333 1.61.595 2.423.861.27.091.575.096.85.177.518.157.67.5.485 1-.033.086-.086.162-.134.257.817.377 1.725 1.467 2.147 2.115 1.283 1.967 2.01 5.134 2.067 5.99a2.93 2.93 0 01-.385-.014c1.083 1.357 1.687 5.815 2.086 7.815.114.595.233 1.186.365 1.838-.38-.038-.645-.08-.993-.205.115.324.874 1.757.566 5.61-.214 2.776.376 4.562.589 5.01-.37 0-.874-.138-1.173-.396.441.72.917 2.705.935 4.287.02 1.8-.103 4.123-.023 5.742.129 2.458.989 2.967 1.534 3.362-.68.176-1.562.058-2.185-.414-.46-.347-.732-.361-1.335-.376-1.033-.019-1.844-.495-2.6-1.162a1.897 1.897 0 00-1.035-.443c-1.103-.095-1.596-.523-2.347-1.305-.128-.128-.347-.2-.523-.243-4.156-.966-4.166-5.319-4.246-6.647-.604-.081-1.346-.781-1.683-1.306-.061-.095-.18-.223-.332-.175-1.691.524-2.812-2.33-3.173-3.32a12.097 12.097 0 01-.636-2.748l-.001.002-.008.062c-.13.751-1.402 1.913-2.597.086l-.102-.164c.004 3.086-2.376 2.543-2.96.505-.618 3.734-3.26 1.967-3.231-.829l-.001.027-.004.218c-.121 3.904-2.507 3.391-2.479 2.183l.005-.075c-.156.614-.84 1.357-.84 1.357 6.09 1.1 4.346 4.271 7.02 5.862-.93.324-1.766-.2-1.606.048.651 1 .936 1.862 1.084 2.881 0 0 3.143 3.077 4.394 4.224.48.438 1.007.828 1.525 1.223.146.115.36.243.569.344.039-.162.048-.31.061-.39.248-1.015.524-2.02 1.155-2.877.87-1.166 2.14-1.463 3.373-.686.485.31.945.414 1.497.414.964.005 1.79.91 1.768 1.867-.727-.495-1.563-.247-1.9.143 1.538.305 2.356 1.714 1.904 2.6a1.153 1.153 0 00-.451-.48c-.657-.363-1.231-.148-1.378.214-.318.804-.997 1.043-1.748 1.133-1.344.157-2.665.243-4.057.42-1.9.247-1.839 1.537-2.204 2.432a1.642 1.642 0 01-1.51 1.01c-.328 0-.628-.1-.884-.262-.162.518-.01 1.1.556 1.215-.462.171-1.36-.138-1.655-.762-.536-1.129-.298-2.03.648-2.844.08-.066.161-.133.246-.2.043-.037.086-.076.138-.109.256-.21.523-.424.76-.662.413-.4.494-.876.184-1.363-.279-.442-.607-.88-1.002-1.209-1.14-.971-2.322-1.895-3.505-2.819a8.906 8.906 0 00-1.15-.743c-.322-.175-.778-.276-1.188-.128-.912.328-1.439-.086-1.662-.257-.133-.1-1.396-1.357-5.192-1.882.536.338.769.867.988 1.405.184.463.369.924.565 1.387 2.133 5.047 4.241 10.014 6.375 15.066.698 1.667.076 3.134-1.65 3.939-1.258.585-2.678.276-3.524-.943.248.833.362 1.557.024 2.247a3.086 3.086 0 01-1.587 1.5 3.86 3.86 0 01-2.257.259c-.76-.158-1.263-.658-1.648-1.4-.067 1.652-1.089 2.628-2.504 2.819v.028c-.11.01-.223.015-.337.015-.033 0-.071-.005-.109-.005-.039 0-.072.005-.105.005a3.7 3.7 0 01-.337-.015v-.028c-1.416-.191-2.438-1.167-2.509-2.82-.38.743-.883 1.243-1.648 1.4-.746.152-1.567.042-2.261-.258-.694-.304-1.24-.8-1.577-1.5-.338-.69-.229-1.414.019-2.247-.836 1.219-2.261 1.528-3.52.943-1.725-.805-2.347-2.272-1.65-3.939 2.13-5.052 4.239-10.019 6.376-15.066.195-.463.37-.924.56-1.387.224-.538.456-1.067.99-1.405-3.797.525-5.06 1.781-5.193 1.882-.22.17-.746.585-1.663.257-.409-.148-.86-.047-1.188.128a8.897 8.897 0 00-1.15.743c-1.178.924-2.36 1.848-3.5 2.82-.395.328-.723.766-1.007 1.208-.3.487-.224.963.19 1.363a9.968 9.968 0 00.897.771l.242.2c.951.815 1.183 1.715.647 2.844-.3.624-1.188.933-1.658.762.575-.115.727-.697.56-1.215-.257.162-.56.262-.883.262a1.63 1.63 0 01-1.506-1.01c-.366-.895-.31-2.185-2.214-2.433-1.382-.176-2.699-.262-4.047-.419-.756-.09-1.426-.329-1.748-1.133-.143-.362-.727-.577-1.378-.215a1.2 1.2 0 00-.456.48c-.447-.885.366-2.294 1.91-2.6-.333-.39-1.174-.637-1.906-.142-.023-.958.803-1.862 1.773-1.867.55 0 1.011-.104 1.5-.414 1.226-.777 2.5-.48 3.364.686.637.857.912 1.862 1.149 2.876.02.08.034.229.072.391.209-.1.418-.229.57-.344.523-.395 1.045-.785 1.52-1.223 1.25-1.147 4.394-4.224 4.394-4.224.152-1.019.432-1.88 1.088-2.881.161-.247-.674.276-1.606-.048 2.67-1.59.932-4.762 7.012-5.862 0 0-.68-.743-.826-1.357.118 1.286-2.46 1.9-2.48-2.353l-.001.027-.001.122c-.071 2.66-2.54 4.287-3.203.875l-.035-.195c-.58 2.038-2.96 2.58-2.96-.505-1.254 2.114-2.64.78-2.703.014v.002l-.049.39c-.096.661-.259 1.35-.461 1.983l-.126.373c-.366.99-1.483 3.844-3.173 3.32-.153-.048-.276.08-.328.175-.338.525-1.078 1.225-1.692 1.306-.076 1.328-.09 5.68-4.246 6.647-.171.043-.395.115-.518.243-.75.782-1.245 1.21-2.352 1.305-.356.034-.764.2-1.035.443-.751.667-1.568 1.143-2.59 1.162-.612.015-.878.029-1.344.376-.622.472-1.506.59-2.185.414.551-.395 1.401-.904 1.53-3.362.09-1.62-.038-3.942-.02-5.742.02-1.582.49-3.567.936-4.287-.299.258-.797.395-1.177.395.218-.447.807-2.233.583-5.009-.299-3.853.467-5.286.58-5.61a3.883 3.883 0 01-.997.205c.128-.652.242-1.243.366-1.838.399-2 1.002-6.458 2.08-7.815 0 0-.218.024-.385.014.057-.856.784-4.023 2.072-5.99.427-.648 1.325-1.738 2.147-2.115-.043-.095-.1-.171-.133-.257-.186-.5-.033-.843.484-1 .275-.08.575-.086.851-.177.812-.266 1.629-.528 2.418-.86 1.406-.592 2.774-1.287 4.313-1.472 2.043-.238 4.038-.134 5.767 1.152 2.366 1.766 3.52 4.748 2.138 8.115-.048.119-.085.237-.148.343-.47.8-.28 1.49.343 2.108 1.107 1.11 2.418 1.868 3.99 2.048.974.115 1.8-.318 2.456-1.005 1.496-1.552 2.565-3.37 2.898-5.518.195-1.3.3-2.182.228-3.496-.048-.89-.294-1.91-.484-2.123 0 0-.333.585-.747.79.504-1.662-.014-2.582-.014-2.582s-.194.54-.565.915c.161-1.357-.712-2.553-2.39-2.99-.45-.12-1.268-.22-1.728-.353-3.098-.896-3.582-.114-3.582-.114l.038-.098c.168-.381.62-.978 1.026-1.136-1.103.381-2.69 1.396-5.036 1.015-1.943-.31-2.376-2.462-.936-3.32 0 0-.722 1.21.342 2.049.56.437 1.862.275 2.309.166.883-.21 2.257-1.048 2.257-1.048-1.183-.557-2.371-.11-3.459.457-.185-.914.428-2.176 1.297-2.68.941-.544 1.706-.7 3.368-.886 0 0 1.04-1.1 2.907-1.467.627-.124 1.772-.096 2.765.09 1.573.3 2.266.634 3.738 1.01 1.137.286 3.906.923 6.049-.51.018-.009-.79 1.815-2.842 2.334.565.171 1.64.019 2.447-.395-.37.514-1.06 1.271-2.133 1.619.313.319 1.368.385 1.952.067-.636.766-1.111 1.061-1.804 1.2 2.07 2.314 3.271 5.247 4.09 10.715l-.001-.003.066-.485c.691-4.97 1.94-7.803 3.842-10.015l.187-.213c-.695-.138-1.17-.433-1.806-1.2.585.32 1.64.253 1.948-.066-1.074-.348-1.762-1.105-2.124-1.62.803.415 1.873.567 2.448.396-2.062-.52-2.861-2.343-2.85-2.334 2.152 1.433 4.916.796 6.052.51 1.476-.376 2.166-.71 3.738-1.01zm-12.314 51.123a.536.536 0 00-.546.49c-.243 3.634-.988 16.305-1.14 19.572 0 .038-.005.075-.005.119-.005.047-.01.095-.01.138-.004.038-.004.07-.004.109-.058 1.472 1.068 2.48 2.517 2.405 1.453.077 2.584-.933 2.514-2.405v-.247c-.004-.043-.01-.08-.014-.119-.148-3.267-.894-15.938-1.137-19.572a.536.536 0 00-.546-.49.547.547 0 00-.55.542c-.004 3.508-.002 11.377 0 15.2v2.115c0 .124.024.262-.019.368-.052.123-.152.217-.247.322-.086-.104-.195-.2-.243-.322-.043-.106-.019-.244-.019-.368-.004-.861.005-12.763-.004-17.315 0-.3-.243-.542-.547-.542zm-2.651-.83a.44.44 0 00-.49.367c-.29 1.528-3.302 14.514-4.08 18.848-.243 1.333.365 2.348 1.639 2.8 1.643.586 3.182-.3 3.316-1.947.198-2.534 1.092-15.915 1.259-19.015a.446.446 0 00-.889-.062c-.27 2.119-1.924 13.472-2.252 16.172-.019.152-.019.319-.085.452-.057.12-.195.2-.3.3-.071-.124-.175-.233-.209-.361-.033-.115.01-.253.024-.377.1-.853 2.014-12.982 2.46-16.677a.456.456 0 00-.393-.5zm7.016-.002l-.086.002a.449.449 0 00-.394.5c.446 3.695 2.36 15.824 2.46 16.677.015.124.057.262.024.377-.033.13-.138.237-.214.361-.104-.1-.238-.18-.294-.3-.07-.133-.066-.3-.08-.452-.332-2.7-1.99-14.053-2.257-16.172a.446.446 0 00-.888.062c.161 3.1 1.06 16.481 1.259 19.015.128 1.647 1.677 2.533 3.31 1.947 1.278-.452 1.887-1.466 1.645-2.8-.78-4.334-3.796-17.32-4.076-18.848a.454.454 0 00-.495-.367zm-9.14-1.39a.42.42 0 00-.508.263c-.518 1.38-5.501 12.881-7.017 17.02-.46 1.272-.052 2.368 1.079 3.03 1.472.847 3.107.227 3.515-1.367.642-2.462 3.563-14.73 4.228-17.597a.42.42 0 00-.28-.49.412.412 0 00-.518.29c-.594 1.938-3.933 12.015-4.717 14.625-.048.147-.071.31-.162.429-.071.109-.218.166-.337.247-.053-.134-.123-.258-.138-.395-.01-.115.053-.24.09-.363.247-.823 4.02-11.786 5.03-15.167a.408.408 0 00-.265-.524zm11.256-.014l-.079.015a.417.417 0 00-.275.524c1.022 3.381 4.79 14.344 5.04 15.167.038.124.1.248.086.363-.008.137-.085.261-.138.395-.113-.081-.256-.138-.337-.247a.696.696 0 01-.092-.204l-.065-.225c-.793-2.61-4.123-12.687-4.721-14.625a.41.41 0 00-.513-.29.42.42 0 00-.281.49c.67 2.867 3.587 15.135 4.223 17.597.414 1.594 2.048 2.214 3.511 1.366 1.144-.662 1.554-1.757 1.088-3.029-1.515-4.139-6.508-15.64-7.016-17.02a.42.42 0 00-.51-.262zm-24.89 7.892c-.052.41-.28.78-.65.986a1.249 1.249 0 01-1.074.053c.029.08.048.161.07.247.034.11.191.657.21.723.152.582.68 1.02 1.316 1.02a1.34 1.34 0 001.021-.476c.466.904.052 1.4.052 1.4s.418-.143.66-.724c.22-.51.262-1.372-.403-2.177-.266-.318-.622-.552-.946-.819-.09-.076-.175-.157-.256-.233zm38.447 0c-.081.076-.167.157-.261.233-.319.267-.675.5-.942.819-.665.805-.621 1.668-.408 2.177.252.581.665.724.665.724s-.414-.496.047-1.4c.252.29.619.476 1.03.476.633 0 1.16-.438 1.312-1.02.02-.066.18-.613.21-.723.018-.086.042-.167.066-.247a1.262 1.262 0 01-1.073-.053 1.28 1.28 0 01-.646-.986zm1.234-.948a.88.88 0 000 1.757c.484 0 .878-.39.878-.876a.881.881 0 00-.878-.881zm-40.926 0a.881.881 0 00-.878.881.876.876 0 001.753 0 .88.88 0 00-.875-.881zm41.505-.118c.714.323.618 1.066.618 1.066.228-.224.593-.291.593-.291-.432-.514-.65-.666-1.211-.775zm-42.074 0c-.56.109-.785.26-1.217.775 0 0 .376.067.594.291 0 0-.09-.743.623-1.066zm.63-.248a3.696 3.696 0 00-2.545-.61.757.757 0 10.589 1.295c.162-.143.775-.766 1.957-.685zm43.36-.61a3.704 3.704 0 00-2.552.61c1.188-.08 1.801.542 1.958.686a.79.79 0 00.537.218.756.756 0 10.19-1.49.427.427 0 00-.134-.024zm1.648-.52a7.218 7.218 0 01-.542.225c-.09.038-.323.096-.403.124.28.152.413.471.413.8 0 .247-.058.476-.157.662.247-.025.504-.057.769-.09.162-.029.295-.44.296-.839 0-.471-.173-.881-.376-.881zm-49.21 0c-.196 0-.366.41-.366.882 0 .4.132.81.294.839.266.033.522.065.764.09a1.464 1.464 0 01-.156-.662c0-.329.133-.648.418-.8-.08-.028-.313-.086-.404-.124a9.412 9.412 0 01-.55-.224zm50.476-.537c-.293.12-.583.248-.849.362.214.228.36.61.36 1.057 0 .295-.065.562-.17.782.261-.034.514-.063.76-.092.214-.137.4-.523.4-1.033 0-.59-.252-1.014-.5-1.076zm-51.74 0c-.243.062-.495.486-.495 1.076 0 .51.19.896.405 1.033.232.03.493.058.754.092a1.762 1.762 0 01-.17-.782c0-.447.142-.83.356-1.057-.262-.114-.551-.242-.85-.362zm52.796-.42c-.19.072-.394.149-.608.235.271.261.452.723.452 1.26 0 .373-.09.706-.233.968l.57-.071c.3-.138.531-.62.532-1.177 0-.657-.323-1.215-.713-1.215zm-53.851 0c-.385 0-.713.558-.713 1.215 0 .557.233 1.04.532 1.177.157.018.347.043.57.071a2.09 2.09 0 01-.228-.967c0-.538.181-1 .456-1.261a30.775 30.775 0 00-.617-.235zm-.874-.247c-.889-.076-1.198.919-.998 1.448.205.543.513.924 1.036 1.08-.171-.275-.271-.646-.271-1.066 0-.605.219-1.12.546-1.395a2.281 2.281 0 00-.313-.067zm55.735-.003l-.136.003c-.08.01-.19.033-.308.067.327.276.546.79.546 1.395 0 .42-.104.791-.271 1.067.518-.157.832-.538 1.03-1.081.2-.53-.108-1.524-.997-1.448zm-8.812-1.311c.355.731.596 1.518.695 2.214.134.867.799.848 1.174.719a4.869 4.869 0 011.43-.251h.085c-2.104-.7-3.543-2.992-3.543-2.992zm-38.093-.302c-.095.148-1.506 2.307-3.528 2.983 0 0 .75-.014 1.514.252.371.129 1.031.148 1.165-.72.118-.794.422-1.709.854-2.523zm1.497-1.45c-1.909 1.757-2.118 4.724-2.118 4.724a4.85 4.85 0 01.817-.958c.327-.304.498-.652.574-.833.1-.238.129-.625.177-.986a6.163 6.163 0 01.534-1.916zm34.95 0s.414.79.551 1.947c.043.361.071.748.176.986.076.18.252.529.579.833.29.272.546.552.808.958 0 0-.21-2.967-2.114-4.725zm11.32 3.091l-.133.004c.46.19.608.819.532 1.19.48-.143.94-.033 1.24.268-.029-.796-.926-1.52-1.772-1.458zm-57.462.004c-.84-.062-1.739.662-1.767 1.458.299-.301.76-.41 1.245-.267-.086-.372.062-1.001.522-1.191zm52.994-.159l-.044.003c-.305.423-.537.885-.627 1.347.355-.2.746-.41 1.159-.614a.7.7 0 00-.106-.42c-.137-.233-.337-.338-.426-.313zm-48.614.003c-.09-.024-.285.08-.423.314-.1.166-.123.323-.104.419.414.205.802.414 1.16.614-.091-.462-.324-.924-.633-1.347zm.76-.326c-.047.025-.085.044-.128.082a.518.518 0 00-.176.228c-.019.048-.019.09-.005.115.229.395.409.795.58 1.195v-.127a6.882 6.882 0 00-.123-.928l-.015-.074a32.064 32.064 0 00-.133-.49zm47.059 0c-.057.167-.1.33-.133.491-.043.177-.157.772-.148 1.129l-.001-.002.135-.298c.09-.2.185-.4.288-.598l.163-.297c.014-.024.014-.067-.006-.115a.524.524 0 00-.174-.228c-.043-.038-.086-.057-.124-.082zm-61.547-12.124c-.31-.024-.471.333-.49 1.191l-.176 5.262c-.01.234-.085.362-.228.352-.147-.01-.19-.167-.195-.342l.043-4.448c0-.838-.185-.982-.447-.81-.683.438-.84 3.858-.783 5.091.119 2.605.365 5.172-.755 7.048 0 0 3.544-.776 3.857-9.557.033-1.053-.024-3.73-.826-3.787zm76.09 0h-.06c-.802.058-.864 2.734-.826 3.787.31 8.78 3.858 9.557 3.857 9.557-1.024-1.713-.91-4.002-.79-6.37l.034-.678c.058-1.233-.104-4.653-.788-5.09-.261-.173-.446-.03-.446.809l.043 4.448c-.006.175-.049.333-.19.342-.138.01-.223-.118-.228-.352l-.18-5.262c-.02-.858-.18-1.215-.485-1.19zm-12.916 11.568l-.055.014c-.129.1-.252.214-.366.333l-.047.053c-.048.047-.095.1-.138.148.19.076.366.232.502.457.08.142.133.285.148.423.228-.105.457-.204.684-.304a.364.364 0 00.043-.186.912.912 0 00-.162-.51 1.074 1.074 0 00-.394-.38c-.104-.048-.205-.063-.27-.034zm-50.263.014c-.071-.029-.166-.014-.266.033a1.125 1.125 0 00-.404.381.946.946 0 00-.161.51c0 .076.019.138.042.186.228.1.462.199.684.304.02-.138.072-.28.153-.423.128-.225.308-.381.498-.457-.042-.049-.085-.1-.133-.148-.014-.015-.033-.034-.047-.053a4.67 4.67 0 00-.366-.333zm41.43-3.2c.024.042.262.494.113 1.91-.024.214.02.576.138.838.162.362.59.752.59.752l.847.797c-.023-.039-.182-.325-.261-1.02l-.017-.167c-.072-.896-.55-2.176-1.41-3.11zm-32.651 0c-.86.934-1.345 2.214-1.41 3.11-.072.875-.276 1.19-.276 1.19l.001-.003.844-.797s.354-.323.539-.653l.05-.1a1.88 1.88 0 00.142-.838c-.151-1.486.11-1.91.11-1.91zm42.353 2.625l-.072.013a.429.429 0 00-.072.034c-.005 0-.005.004-.01.008-.109.057-.22.12-.328.191-.004.005-.004.015-.01.02a1.41 1.41 0 01.574.529c.144.228.23.485.22.714.214-.082.423-.158.636-.225.071-.095.067-.228.053-.31-.02-.19-.124-.4-.272-.576a1.162 1.162 0 00-.517-.37.476.476 0 00-.274-.015zm-51.987.013a.463.463 0 00-.27.015c-.177.056-.371.19-.519.37a1.133 1.133 0 00-.275.577.436.436 0 00.052.31 9 9 0 01.641.224 1.338 1.338 0 01.214-.715c.153-.228.347-.414.56-.52.006 0 .01-.004.015-.009a.042.042 0 00-.01-.019 3.095 3.095 0 00-.323-.19c0-.005-.01-.01-.01-.01a.357.357 0 00-.075-.033zm-9.52-8.938c.038-.823-.233-.943-.498-.829-.675.296-.675 3.553-.827 4.667-.323 2.424-.798 5.01-2.086 6.539 0 0 3.867-.152 5.069-7.257.161-.948.219-3.534-.499-3.71-.271-.057-.522.076-.546.919l-.46 4.243c-.049.205-.138.31-.267.286-.128-.029-.138-.177-.119-.338zm71.457-.83c-.262-.113-.538.006-.5.83l.233 4.52c.019.16.005.309-.124.337-.123.024-.213-.081-.26-.286l-.456-4.243c-.029-.843-.281-.976-.552-.92-.716.177-.66 2.763-.502 3.711 1.167 6.873 4.822 7.24 5.06 7.256l.013.001c-1.288-1.528-1.767-4.114-2.09-6.539-.147-1.114-.143-4.37-.822-4.666zm-12.033 9.93a5.433 5.433 0 00-.313.652.88.88 0 01.214.134.9.9 0 01.213.238 4.28 4.28 0 01.413-.515c0-.024 0-.052-.014-.085a.557.557 0 00-.172-.267.507.507 0 00-.275-.148c-.023-.01-.047-.01-.066-.01zm-47.885 0c-.024 0-.047 0-.072.01a.561.561 0 00-.28.147.56.56 0 00-.17.267c-.01.033-.01.061-.01.085.152.162.29.334.417.515a.741.741 0 01.205-.238.834.834 0 01.219-.134 6.296 6.296 0 00-.309-.652zm50.968-.458c-.132.006-.275.02-.418.053.162.09.309.219.442.372.199.238.327.514.36.78a.856.856 0 01.01.224 8.113 8.113 0 011.037-.214c-.114-.91-.85-1.228-1.43-1.215zm-54.061 0c-.58-.013-1.316.305-1.424 1.215.332.043.678.12 1.03.214a.924.924 0 01.01-.223c.033-.267.166-.543.365-.781.128-.152.285-.281.442-.372a2.247 2.247 0 00-.423-.053zm-.736-.156c-1.582-.372-2.356.319-2.518.971.575-.28 1.317-.028 1.516.223.061-.323.161-.975 1.002-1.194zm58.06.971c-.171-.652-.935-1.343-2.522-.971.84.219.94.871 1.003 1.194.194-.251.94-.504 1.52-.223zm-54.915-1.233c-.033-.015-.086-.005-.143.023a.767.767 0 00-.418.635c-.004.065.005.114.029.147.142.095.28.2.408.31a.91.91 0 01.229-.325c.119-.105.25-.186.38-.223a3.41 3.41 0 00-.485-.567zm49.286-.007l-.043.007a3.212 3.212 0 00-.48.567.983.983 0 01.376.223.95.95 0 01.238.325c.118-.11.256-.215.399-.31a.251.251 0 00.038-.147.771.771 0 00-.134-.373.71.71 0 00-.289-.262c-.058-.028-.109-.038-.148-.023zM203 132.32c.037.104.467 1.386-.007 2.983-.08.29-.152.772-.118 1.076.028.296.219.658.418.825.484.404.964.828.964.828s-.276-.405-.162-1.139c.186-1.209-.114-3.071-1.097-4.58zm-29.998-.005l-.163.268c-.844 1.456-1.107 3.172-.933 4.31.114.734-.157 1.139-.157 1.139s.47-.424.965-.828c.2-.167.389-.53.417-.825.034-.304-.038-.785-.123-1.076-.428-1.458-.11-2.654-.024-2.93l.018-.058zm47.197-3.227c-.218-.08-.508.034-.351.682l.86 3.729c.029.123.02.243-.08.275-.1.025-.181-.047-.224-.214l-.917-3.5c-.156-.605-.337-.829-.546-.761-.556.17-.1 2.152.08 2.895 1.345 5.58 4.704 5.737 4.703 5.737-1.101-1.141-1.887-3.36-2.3-5.333-.18-.876-.67-3.314-1.225-3.51zm-64.046.682c.162-.648-.132-.762-.342-.682-.56.196-1.054 2.634-1.235 3.51-.408 1.972-1.187 4.192-2.294 5.333 0 0 3.358-.157 4.702-5.737.181-.743.637-2.724.081-2.895-.218-.068-.39.156-.541.761l-.922 3.5c-.047.167-.124.239-.228.214-.1-.032-.1-.152-.076-.275zm57.618 6.785c-.232.039-.46.11-.654.235-.033.018-.067.046-.102.066.148.086.281.214.39.375.096.153.161.32.19.477.176-.11.375-.218.585-.314a.288.288 0 00.033-.119.706.706 0 00-.086-.386c-.104-.205-.25-.314-.356-.334zm-51.537.001c-.105.02-.252.129-.356.334a.766.766 0 00-.09.386c.004.047.018.09.042.118.21.096.4.205.58.315.024-.157.09-.324.185-.477.11-.16.247-.29.394-.375-.033-.02-.066-.048-.1-.067a1.707 1.707 0 00-.655-.234zm-.631 0c-.504.06-.965.28-1.184.59.352-.038.665-.005.955.081a1.134 1.134 0 01.229-.672zm52.805 0a1.18 1.18 0 01.223.671c.29-.086.604-.12.956-.081-.223-.31-.685-.53-1.179-.59zm-25.652-5.306c-.252-.123-.447-.033-.494.534l-.152 1.743c-.015.124-.01.29-.152.29-.143 0-.133-.166-.157-.29l-.147-1.743c-.052-.567-.242-.657-.495-.534-.66.325-.86 1.743-.859 2.163 0 1.19.784 3.152 1.658 3.652.874-.5 1.658-2.462 1.658-3.652 0-.42-.204-1.838-.86-2.163zm13.572 4.382c-.185-.329-.898-.272-1.549.376 0 0 .475-.063 1.064.21.585.276.67-.253.485-.586zm-27.102.376c-.65-.648-1.368-.705-1.548-.376-.185.333-.1.861.484.586.585-.273 1.064-.21 1.064-.21zm42.428-5.952c-.17-.049-.404.047-.27.518l.783 2.925c.019.09.019.18-.057.204-.08.024-.138-.029-.176-.147l-.831-2.748c-.134-.448-.27-.605-.438-.548-.432.148-.052 1.6.09 2.143.955 3.762 3.649 3.815 3.649 3.815-.87-.81-1.43-2.148-1.759-3.596-.15-.648-.554-2.443-.991-2.566zm-59.035.518c.133-.47-.095-.567-.266-.518-.432.123-.841 1.918-.988 2.566-.338 1.448-.894 2.786-1.768 3.596 0 0 2.694-.053 3.654-3.815.142-.542.517-1.995.085-2.143-.166-.057-.303.1-.427.548l-.837 2.748c-.038.118-.1.17-.175.147-.076-.024-.08-.114-.062-.204zm41.048 2.834c-.142-.015-.232.042-.209.252l.167 1.081c0 .047.019.11-.057.124-.071.02-.086-.043-.105-.086l-.318-1.048c-.076-.2-.181-.209-.3-.133-.308.195-.238 1-.17 1.262.152.677.622 1.415 1.169 1.281.546-.133.684-1.014.531-1.676-.071-.29-.342-1.015-.708-1.057zm-23.283-.002l-.05.002c-.366.042-.641.767-.704 1.057-.151.662-.014 1.543.532 1.676.542.134 1.022-.604 1.174-1.281.057-.261.138-1.067-.176-1.262-.12-.076-.229-.066-.3.133l-.317 1.048c-.025.043-.034.105-.105.086-.076-.015-.057-.077-.057-.124l.162-1.081c.023-.21-.068-.267-.21-.252zm7.517-1.798c-.242 0-.343.157-.11.648l.704 1.505c.047.104.128.242.024.299-.1.062-.176-.08-.243-.171l-.931-1.381c-.299-.452-.484-.448-.608-.234-.323.533.195 1.79.395 2.143.556.981 1.58 1.463 2.456 1.525.394-.787.308-2.263-.248-3.249-.204-.346-.812-1.09-1.439-1.085zm8.205 0c-.628-.005-1.24.739-1.44 1.085-.561.986-.646 2.462-.247 3.249.874-.062 1.9-.544 2.46-1.525.19-.352.712-1.61.39-2.143-.134-.214-.314-.218-.613.234l-.93 1.38c-.068.091-.138.234-.243.172-.105-.057-.02-.195.024-.3l.707-1.504c.229-.49.128-.648-.108-.648zm-17.887.739c-.01-.24-.137-.287-.318-.248-.452.1-.655.966-.684 1.309-.057.776.29 1.753 1.007 1.82.722.066 1.178-.843 1.24-1.639.023-.305-.038-1.234-.47-1.405-.171-.067-.304-.038-.357.195l-.204 1.243c-.014.052-.014.124-.109.114-.1-.01-.086-.076-.095-.128zm27.876-.248c-.177-.04-.3.008-.319.248v1.26c-.01.053 0 .12-.095.13-.096.009-.096-.063-.114-.115l-.204-1.243c-.048-.233-.18-.262-.35-.195-.433.171-.5 1.1-.476 1.405.067.796.523 1.705 1.24 1.638.718-.066 1.069-1.043 1.011-1.819-.028-.343-.233-1.21-.693-1.31zm-23.629.223c-.028-.205-.152-.238-.313-.19-.413.11-.541.852-.541 1.138 0 .652.394 1.447 1.059 1.461.665.01 1.025-.785 1.03-1.452 0-.257-.128-1.033-.541-1.147-.157-.044-.275-.015-.309.19l-.104 1.053c-.005.042 0 .1-.095.1-.09 0-.086-.062-.09-.1zm19.383-.19c-.156-.048-.28-.015-.309.19l-.09 1.053c-.014.038-.009.1-.1.1-.09 0-.085-.058-.1-.1l-.095-1.053c-.033-.205-.152-.234-.314-.19-.408.114-.537.89-.532 1.147 0 .667.357 1.462 1.026 1.452.67-.014 1.06-.809 1.056-1.461 0-.286-.128-1.029-.542-1.138zm-16.96-.638c-.01-.206-.114-.244-.251-.206-.362.086-.528.82-.547 1.105-.057.653.219 1.472.789 1.53.57.052.94-.72.993-1.387.019-.257-.024-1.038-.37-1.18-.134-.058-.243-.034-.286.166l-.167 1.052c-.009.039-.009.096-.09.09-.076-.004-.061-.066-.07-.108zm14.476-.206c-.138-.038-.237 0-.252.206v1.089c-.001.038-.01.078-.071.082-.076.005-.076-.052-.09-.09l-.162-1.053c-.048-.2-.152-.224-.287-.166-.341.142-.388.923-.37 1.18.057.666.419 1.439.994 1.386.565-.057.84-.876.79-1.529-.024-.286-.186-1.02-.552-1.105zm4.422-1.632c-.19-.034-.323.028-.323.285l.08 1.333c0 .058.015.13-.09.143-.1.015-.105-.061-.122-.113l-.305-1.302c-.066-.246-.213-.266-.38-.185-.452.215-.456 1.2-.409 1.515.119.843.665 1.776 1.42 1.657.75-.12 1.06-1.176.946-1.99-.053-.362-.324-1.268-.817-1.343zm-23.25.285c.006-.257-.127-.319-.318-.285-.49.075-.76.98-.812 1.343-.119.814.185 1.87.94 1.99.75.12 1.302-.814 1.421-1.657.048-.314.043-1.3-.404-1.515-.176-.08-.318-.061-.384.185l-.3 1.302c-.024.052-.024.128-.133.113-.1-.014-.08-.085-.09-.143zm20.571-.504c-.147-.029-.246.01-.262.19l-.008.934c-.005.038 0 .09-.072.095-.085.01-.085-.043-.09-.08l-.162-.925c-.043-.175-.148-.195-.286-.142-.345.128-.402.819-.385 1.042.043.595.414 1.266.99 1.215.579-.053.869-.781.822-1.353-.02-.257-.181-.9-.547-.976zm-18.15-.009l-.06.008c-.365.077-.527.72-.546.977-.042.571.238 1.3.823 1.352.579.052.94-.62.987-1.215.02-.223-.037-.914-.38-1.042-.138-.053-.251-.033-.29.143l-.156.923c-.015.038-.015.091-.09.082-.082-.006-.067-.058-.077-.096l-.01-.933c-.018-.181-.113-.22-.26-.19zm23.214-.254c-.143-.028-.247.01-.257.205v1.029c-.009.038 0 .095-.08.105-.08.005-.08-.057-.086-.095l-.166-1.01c-.043-.196-.153-.219-.29-.163-.35.14-.404.896-.38 1.144.052.648.423 1.39 1.003 1.338.58-.053.86-.852.817-1.481-.024-.281-.19-.985-.561-1.072zm-28.284-.008l-.058.008c-.37.087-.532.791-.556 1.072-.047.629.233 1.428.818 1.481.583.052.95-.69 1.001-1.338.025-.248-.028-1.005-.38-1.144-.138-.056-.246-.033-.29.163l-.16 1.01c-.015.038-.015.1-.091.095-.08-.01-.072-.067-.076-.105l-.01-1.029c-.009-.195-.113-.233-.256-.205zm29.675 1.936c-.204-.37-.446-.123-.474.12-.024.248.365.49.959.395 0 0-.271-.147-.485-.515zm-30.645.12c-.029-.243-.276-.49-.48-.12-.2.368-.48.515-.48.515.585.095.988-.147.96-.395zm22.336-5.12h-.053c-.683.034-1.561 1.206-1.813 1.63-.694 1.185-.874 2.857-.513 3.743.95-.12 2.303-1.101 2.997-2.286.248-.429.832-1.772.528-2.387-.118-.238-.315-.232-.68.315l-1.135 1.681c-.082.114-.172.286-.28.224-.11-.066 0-.229.056-.358l.898-1.814c.294-.59.2-.766-.058-.748zm-14.45 0c-.266-.018-.357.157-.058.748l.904 1.814c.056.13.156.292.051.358-.104.062-.199-.11-.28-.224l-1.135-1.68c-.366-.548-.566-.554-.674-.316-.314.615.275 1.958.517 2.387.693 1.185 2.052 2.167 3.003 2.286.36-.886.18-2.558-.513-3.744-.248-.423-1.131-1.595-1.815-1.629zm5.254.444c-.257-.086-.419.024-.385.595l.11 1.743c0 .118.032.28-.106.305-.128.019-.151-.148-.18-.262l-.399-1.705c-.128-.552-.323-.61-.541-.452-.575.409-.556 1.837-.494 2.252.175 1.171 1.05 2.024 1.947 2.4.746-.619 1.345-1.691 1.169-2.866-.057-.415-.452-1.786-1.121-2.01zm4.27.595c.042-.571-.124-.681-.386-.595-.664.224-1.058 1.595-1.12 2.01-.17 1.175.423 2.247 1.174 2.866.893-.376 1.776-1.229 1.942-2.4.067-.415.08-1.843-.485-2.252-.227-.157-.418-.1-.545.452l-.395 1.705c-.038.114-.053.281-.19.262-.14-.024-.105-.187-.1-.305zm-12.48-.296c-.013-.232-.128-.28-.289-.237-.413.095-.603.937-.628 1.266-.06.748.253 1.687.904 1.748.655.062 1.073-.819 1.135-1.586.024-.295-.033-1.19-.428-1.352-.147-.062-.275-.038-.318.195l-.19 1.195c-.014.048-.019.114-.1.11-.09-.005-.08-.076-.085-.124zm20.594-.237c-.16-.044-.275.005-.29.237v1.215c-.004.048.01.119-.075.124-.095.004-.095-.062-.11-.11l-.19-1.195c-.043-.233-.167-.257-.318-.195-.394.161-.447 1.057-.423 1.352.057.767.475 1.648 1.13 1.586.65-.062.965-1 .908-1.748-.023-.329-.219-1.171-.632-1.266zm-23.046.643l-.055.008c-.352.072-.504.71-.523.963-.048.566.224 1.291.774 1.338.542.052.894-.614.941-1.2.014-.224-.033-.905-.366-1.033-.128-.048-.228-.029-.27.147l-.153.91c-.01.033-.01.09-.08.08-.077-.004-.067-.056-.072-.09l-.009-.929c-.01-.175-.11-.214-.242-.186zm25.274.008c-.138-.028-.239.01-.247.186l-.006.93c-.008.033 0 .085-.075.09-.07.01-.07-.048-.085-.08l-.152-.911c-.033-.176-.142-.195-.266-.147-.337.128-.385.81-.366 1.032.046.587.394 1.253.94 1.2.551-.046.813-.77.774-1.337-.018-.252-.17-.891-.517-.963zm-38.113-5.804c-.128-.153-.27-.096-.413.433l-.794 3.196c-.033.109-.066.266-.156.247-.086-.019-.053-.176-.034-.286l.309-2.152c.086-.534-.015-.648-.2-.567-.474.215-.888 1.73-1.05 2.487-.365 1.69-.317 3.88.124 4.466.651-.348 1.582-2.276 1.948-4.024.143-.662.613-3.414.266-3.8zm51.305.433c-.137-.529-.279-.586-.413-.433-.347.386.119 3.138.262 3.8.374 1.748 1.301 3.676 1.947 4.024.447-.586.49-2.777.124-4.466-.162-.757-.571-2.272-1.045-2.487-.18-.08-.285.033-.205.567l.314 2.152c.014.11.052.267-.038.286-.09.02-.114-.138-.152-.247zm-55.149-.719c.063-.624-.066-.747-.289-.643-.57.267-1.097 2.487-1.245 3.367-.327 1.977-.114 4.515.48 5.177.775-.44 1.781-2.715 2.114-4.748.129-.777.361-3.153-.095-3.587-.18-.17-.343-.099-.485.511l-.646 3.128c-.029.128-.052.315-.162.295-.113-.019-.08-.2-.071-.333zm58.869-.643c-.223-.104-.36.02-.294.643l.399 3.167c.014.134.046.314-.062.333-.114.02-.133-.167-.171-.295l-.646-3.128c-.138-.61-.304-.682-.485-.51-.456.433-.223 2.809-.09 3.586.337 2.033 1.34 4.309 2.114 4.748.593-.662.802-3.2.479-5.177-.153-.88-.675-3.1-1.244-3.367zm-61.77-.39c.09-.643-.048-.78-.295-.69-.632.242-1.297 2.533-1.487 3.438-.437 2.043-.309 4.7.304 5.429.865-.415 2.052-2.725 2.494-4.83.171-.799.522-3.266.037-3.742-.18-.186-.365-.125-.54.509l-.836 3.272c-.043.128-.072.32-.195.29-.12-.024-.072-.21-.058-.347zm64.677-.69c-.247-.09-.39.047-.295.69l.575 3.329c.014.137.061.323-.058.348-.122.028-.155-.163-.198-.291l-.837-3.272c-.174-.634-.355-.695-.546-.51-.474.477-.128 2.944.042 3.744.452 2.104 1.635 4.414 2.5 4.829.617-.729.74-3.386.304-5.43-.195-.904-.855-3.195-1.487-3.437zm-9.306 3.456c-.147-.347-.263-.37-.375-.247-.285.319.318 2.324.622 3.015 1.482 3.4 3.235 3.519 1.695-.586-.19-.496-.674-1.6-1.025-1.71-.153-.048-.243.057-.153.419l.537 1.805c.014.08.047.18-.024.204-.081.024-.11-.075-.137-.152zm-45.99-.247c-.108-.124-.232-.1-.375.247l-1.135 2.748c-.033.077-.057.176-.138.152-.076-.023-.033-.123-.023-.204l.541-1.805c.085-.362 0-.467-.162-.42-.347.11-.831 1.215-1.016 1.711-1.544 4.105.204 3.986 1.696.586.3-.691.902-2.696.612-3.015zm23.791-1.838c-.332-.171-.589-.052-.656.7l-.204 2.93c-.023.16-.014.385-.204.385-.185 0-.176-.225-.195-.386l-.209-2.93c-.062-.751-.318-.87-.655-.699-.874.424-1.131 2.09-1.131 2.653 0 1.57 1.035 3.323 2.19 3.995 1.16-.672 2.2-2.424 2.2-3.995 0-.563-.267-2.23-1.136-2.653zm-36.25-1.705c.075-.657-.068-.785-.305-.68-.617.266-1.22 2.604-1.387 3.527-.375 2.086-.19 4.768.441 5.482.837-.443 1.948-2.829 2.348-4.971.142-.82.427-3.325-.058-3.796-.19-.181-.37-.104-.527.533l-.746 3.343c-.037.134-.066.329-.185.305-.119-.019-.076-.209-.066-.348zm70.844-.68c-.238-.105-.384.023-.304.68l.478 3.395c.015.139.057.33-.065.348-.12.024-.148-.17-.186-.305l-.74-3.343c-.158-.637-.343-.714-.53-.533-.483.471-.198 2.976-.051 3.796.39 2.142 1.507 4.528 2.343 4.97.627-.713.817-3.395.437-5.48-.171-.924-.76-3.262-1.382-3.529zm-29.79 2.37c-.305-.143-.562-.042-.623.691l-.167 2.467c-.019.153-.01.371-.185.371-.186 0-.176-.218-.196-.371l-.218-1.853c-.066-.737-.304-.848-.627-.685-.827.414-.912 1.686-.912 2.228 0 1.538.822 2.986 1.92 3.643 1.097-.657 2.081-2.361 2.081-3.895 0-.548-.238-2.19-1.073-2.596zm-10.951.691c-.057-.733-.318-.834-.618-.691-.836.405-1.078 2.048-1.078 2.596 0 1.534.984 3.238 2.09 3.895 1.097-.657 1.914-2.105 1.914-3.643 0-.542-.085-1.814-.912-2.228-.322-.163-.564-.052-.622.685l-.223 1.853c-.02.153-.01.371-.19.371s-.172-.218-.195-.371zm42.997-5.477c-.708.048-.836 2.277-.783 3.143.374 6.153 3.301 7.787 3.301 7.787-.599-1.6-.49-3.344-.376-5.486.052-1.02-.071-3.833-.67-4.19-.238-.138-.404-.02-.409.665l.062 3.492c-.008.147-.047.276-.17.28-.124.01-.194-.095-.21-.285l-.322-4.424c-.014-.71-.152-1-.423-.982zm-75.661 0c-.272-.018-.414.271-.428.982l-.323 4.424c-.005.19-.076.294-.204.29-.124-.009-.167-.138-.171-.285l.057-3.492c-.005-.685-.166-.803-.4-.666-.603.358-.731 3.172-.674 4.19.114 2.143.219 3.886-.38 5.487 0 0 2.926-1.634 3.311-7.787.047-.866-.08-3.095-.788-3.143zm48.164 4.191c-.26-.172-.499-.105-.636.595l-.366 1.591c-.038.148-.052.357-.213.338-.162-.018-.13-.228-.13-.38l-.051-1.044c-.038-.69-.171-.847-.475-.724-.788.31-.95 1.61-1.012 2.134-.18 1.481.323 2.881 1.226 3.628 1.054-.51 2.01-2.061 2.185-3.542.067-.524.17-2.115-.528-2.596zm-20.032.595c-.138-.7-.38-.767-.637-.595-.693.48-.598 2.072-.531 2.596.185 1.48 1.13 3.033 2.19 3.542.906-.747 1.41-2.147 1.23-3.628-.067-.524-.228-1.824-1.017-2.134-.304-.123-.437.033-.475.724l-.057 1.044c0 .152.038.362-.123.38-.162.019-.181-.19-.214-.338zm-2.432-.595c-.547.053-.889 1.18-.766 2.524.124 1.343.666 2.391 1.207 2.338.29-.024.514-.347.651-.842a7.141 7.141 0 01-.295-1.486 6.44 6.44 0 01.053-1.7c-.233-.534-.542-.857-.85-.834zm24.255 0c-.304-.023-.612.3-.845.833.084.49.104 1.077.052 1.701a7.096 7.096 0 01-.294 1.486c.138.495.366.818.646.842.546.053 1.083-.995 1.211-2.338.12-1.343-.227-2.471-.77-2.524zm-27.006-.18c0-.396-.129-.472-.323-.396-.484.172-.765 1.529-.813 2.085-.118 1.253.181 2.854.927 2.925.75.061 1.325-1.41 1.44-2.7.052-.49.014-1.782-.433-2.048-.176-.1-.318-.057-.39.333l-.299 2.076c-.019.077-.023.191-.123.186-.104-.01-.09-.129-.1-.21zm30.081-.396c-.19-.076-.323 0-.318.396l.109 2.252c-.005.08.01.2-.09.21-.106.004-.11-.11-.134-.187l-.294-2.076c-.076-.39-.214-.433-.39-.333-.446.266-.484 1.557-.438 2.048.123 1.29.699 2.761 1.445 2.7.75-.071 1.045-1.672.932-2.925-.056-.556-.332-1.913-.822-2.085zm-32.78-.415c.04-.414-.09-.504-.294-.452-.531.138-.964 1.672-1.074 2.248-.237 1.29-.07 2.957.709 3.119.778.167 1.491-1.328 1.738-2.657.1-.51.233-2.032-.214-2.353-.17-.123-.322-.09-.432.31l-.523 2.124c-.028.08-.047.2-.156.181-.1-.02-.072-.138-.072-.224zm35.453-.452c-.203-.052-.331.038-.293.452l.314 2.296c.004.086.033.204-.072.224-.105.02-.123-.1-.152-.18l-.523-2.125c-.11-.4-.261-.433-.433-.31-.445.32-.313 1.843-.218 2.353.247 1.329.96 2.824 1.738 2.657.785-.162.95-1.829.71-3.119-.11-.576-.538-2.11-1.07-2.248zm-38.131-.495c.066-.437-.067-.538-.285-.486-.57.12-1.07 1.586-1.217 2.191-.318 1.357-.08 2.971.66 3.157.732.187 1.583-1.152 1.915-2.548.124-.537.323-2.013-.133-2.376-.176-.138-.342-.105-.475.31l-.646 2.176c-.033.086-.057.214-.17.186-.11-.029-.072-.148-.067-.238zm40.801-.486c-.223-.052-.356.049-.29.486l.418 2.372c.01.09.044.21-.062.238-.113.028-.142-.1-.17-.186l-.646-2.177c-.138-.414-.304-.447-.48-.31-.451.364-.258 1.84-.129 2.377.333 1.396 1.178 2.735 1.92 2.548.736-.186.97-1.8.646-3.157-.139-.605-.642-2.071-1.207-2.19zm-43.59-.623c.076-.486-.052-.596-.276-.539-.57.143-1.168 1.924-1.33 2.595-.37 1.52-.076 3.01.49 3.592.778-.253 1.686-1.41 2.062-2.972.142-.595.408-2.366-.034-2.758-.176-.152-.338-.114-.494.353l-.656 2.23c-.038.094-.061.237-.176.214-.108-.03-.066-.173-.057-.273zm46.364-.539c-.219-.057-.35.053-.27.54l.47 2.441c.01.1.048.243-.057.273-.114.023-.142-.12-.176-.215l-.66-2.23c-.147-.466-.317-.504-.484-.352-.447.392-.185 2.163-.043 2.758.38 1.562 1.287 2.72 2.06 2.972.571-.581.861-2.073.495-3.592-.161-.671-.76-2.452-1.335-2.595zm2.714-1.271c-.233-.038-.37.077-.275.523l.655 2.606c.01.094.056.228-.062.257-.115.038-.143-.095-.19-.186l-.822-2.381c-.172-.433-.347-.457-.523-.296-.456.406-.18 1.986-.014 2.544.423 1.447 1.683 3.281 2.504 3.467.59-.605.574-2.848.162-4.257-.18-.63-.832-2.187-1.435-2.277zm-52.009-.006l-.057.006c-.603.09-1.25 1.648-1.43 2.277-.418 1.409-.428 3.652.162 4.257.816-.186 2.075-2.02 2.508-3.467.161-.558.437-2.138-.02-2.544-.18-.161-.35-.137-.522.296l-.831 2.38c-.038.092-.066.225-.185.187-.115-.029-.072-.163-.053-.257l.651-2.606c.09-.446-.043-.561-.28-.523zm23.258.873c0-.695-.199-.819-.484-.687-.736.343-1.055 1.858-1.088 2.373-.104 1.447.622 3.113 1.515 3.795.979-.548 1.933-2.096 2.033-3.543.038-.514-.07-2.062-.745-2.505-.262-.166-.475-.076-.575.614l-.328 2.548c-.034.148-.038.352-.19.338-.147-.01-.128-.21-.138-.357zm5.92-.687c-.28-.132-.48-.008-.48.687v2.576c-.01.147.015.348-.138.357-.157.014-.161-.19-.186-.338l-.338-2.548c-.094-.69-.308-.78-.569-.614-.679.443-.778 1.99-.746 2.505.1 1.447 1.055 2.995 2.034 3.543.888-.682 1.62-2.348 1.515-3.795-.038-.515-.356-2.03-1.093-2.373zm-9.9.259c.033-.696-.158-.84-.438-.74-.721.272-1.102 1.767-1.154 2.282-.167 1.448.542 2.771 1.373 3.543.973-.452 1.89-1.49 2.048-2.933.06-.515.023-2.081-.613-2.596-.243-.2-.456-.128-.58.553l-.404 2.066c-.033.143-.047.348-.195.32-.146-.025-.114-.23-.118-.377zm13.833-.74c-.28-.1-.465.044-.437.74l.085 2.118c0 .148.029.352-.119.377-.147.028-.162-.177-.199-.32l-.404-2.066c-.118-.681-.332-.753-.58-.553-.636.515-.67 2.081-.607 2.596.161 1.443 1.073 2.48 2.047 2.933.832-.772 1.54-2.095 1.377-3.543-.061-.515-.436-2.01-1.163-2.281zm-35.786-1.13l-.057.002c-.612.057-1.206 1.168-1.439 1.79-.522 1.405-.694 3.687-.147 4.335.83-.139 2.223-1.92 2.76-3.367.204-.558.413-1.738-.014-2.181-.162-.167-.343-.158-.542.271l-1.008 2.476c-.047.086-.084.22-.203.176-.11-.042-.058-.166-.034-.26l.865-2.688c.123-.452 0-.575-.238-.552zm57.363.002c-.237-.023-.365.1-.242.552l.874 2.687c.018.095.071.219-.04.261-.112.043-.155-.09-.202-.176l-1.008-2.476c-.198-.429-.38-.438-.546-.271-.422.443-.213 1.623-.005 2.18.527 1.448 1.924 3.23 2.756 3.368.546-.648.371-2.93-.147-4.334-.228-.623-.832-1.734-1.44-1.79zm-39.32 1.096c-.024-.62-.209-.715-.451-.587-.637.33-.86 1.682-.874 2.134-.034 1.291.664 2.734 1.482 3.3.845-.518 1.629-1.923 1.662-3.205.014-.457-.133-1.818-.75-2.186-.238-.142-.428-.051-.49.563l-.19 1.114c-.019.129-.014.31-.152.305-.137-.005-.124-.186-.137-.315zm21.67-.587c-.246-.128-.42-.033-.45.587l-.1 1.123c-.014.13 0 .31-.137.315-.139.005-.139-.176-.157-.305l-.191-1.114c-.066-.614-.251-.705-.485-.563-.617.368-.764 1.729-.754 2.186.038 1.282.821 2.687 1.672 3.205.808-.566 1.511-2.009 1.478-3.3-.014-.452-.238-1.805-.875-2.134zm-23.091.33c-.436.047-1.301.675-1.467 1.51-.214 1.085-.09 1.68.46 2.442.456.638 1.383.833 1.55.919-1.274-1.947-1.032-3.657-.543-4.872zm24.057 0c.494 1.214.736 2.924-.532 4.871.166-.086 1.083-.28 1.544-.919.55-.762.67-1.357.46-2.443-.166-.834-1.035-1.462-1.472-1.51zm-27.268.28c.019-.485-.105-.585-.29-.51-.48.197-.727 1.239-.765 1.597-.104 1.009.314 2.309.86 2.846.646-.323 1.302-1.442 1.402-2.446.043-.358.019-1.449-.404-1.806-.162-.133-.304-.08-.384.391l-.257 1.467c-.024.095-.038.237-.133.223-.1-.019-.081-.157-.081-.261zm30.774-.51c-.185-.075-.308.025-.29.51l.048 1.5c0 .105.024.243-.08.262-.096.014-.106-.128-.13-.223l-.256-1.467c-.086-.472-.223-.524-.385-.39-.423.356-.446 1.447-.408 1.805.105 1.004.755 2.123 1.401 2.446.551-.537.97-1.837.865-2.846-.039-.358-.29-1.4-.765-1.596zm-47.012-2.25l-.061.003c-.655.067-1.24 1.12-1.491 1.8-.56 1.538-.77 4.024-.186 4.73.898-.153 2.409-2.106 2.993-3.691.218-.605.39-1.681-.066-2.163-.177-.185-.366-.172-.59.296l-1.04 2.567c-.057.099-.095.242-.223.194-.12-.042-.057-.186-.033-.285l.893-2.843c.128-.496 0-.633-.257-.605zm63.017.003c-.252-.028-.39.11-.252.605l.893 2.843c.029.1.08.243-.038.285-.124.048-.167-.095-.218-.194l-1.042-2.567c-.222-.468-.413-.481-.589-.296-.456.482-.29 1.558-.071 2.163.584 1.585 2.1 3.538 2.999 3.69.58-.705.375-3.19-.185-4.728-.253-.681-.837-1.734-1.497-1.8zm-13.397 1.515c-.21-.068-.332.047-.271.533l.119 1.153c.01.1.043.242-.056.266-.105.028-.124-.114-.157-.214l-.347-1.091c-.133-.467-.28-.505-.446-.357-.419.396-.347 1.486-.276 1.843.204.995.949 1.81 1.663 2.076.546-.586.92-1.695.721-2.69-.071-.358-.428-1.377-.95-1.52zm-36.014.533c.067-.486-.062-.6-.26-.533-.528.142-.89 1.161-.956 1.518-.204.996.176 2.105.713 2.691.717-.266 1.467-1.081 1.672-2.076.071-.357.142-1.447-.275-1.843-.167-.148-.319-.11-.452.357l-.347 1.09c-.028.1-.047.243-.157.215-.1-.024-.06-.166-.056-.266zm52.532-4.019c-.27-.048-.428.11-.314.614l.812 3.196c.014.114.072.267-.056.3-.139.042-.166-.115-.219-.22l-.927-2.795c-.19-.505-.394-.534-.588-.352-.514.466-.343 1.9-.153 2.547.49 1.705 1.923 3.862 2.85 4.09.666-.69.637-3.309.162-4.96-.214-.735-.888-2.301-1.567-2.42zm-69.247-.008l-.063.008c-.69.119-1.364 1.685-1.573 2.42-.475 1.651-.498 4.27.157 4.96.931-.228 2.366-2.385 2.855-4.09.186-.647.356-2.08-.157-2.547-.2-.182-.394-.153-.588.352l-.923 2.795c-.047.105-.085.262-.218.22-.128-.033-.076-.186-.057-.3l.812-3.196c.11-.505-.047-.662-.308-.614zm14.158 2.408l-.051.004c-.542.071-1.03 1.04-1.144 1.381-.338.958-.115 2.139.346 2.791.741-.162 1.601-.905 1.934-1.867.114-.343.332-1.414-.03-1.857-.141-.171-.298-.157-.493.29l-.46.976c-.044.091-.086.23-.186.191-.095-.042-.043-.176-.019-.276l.247-1.062c.123-.471.02-.6-.195-.567zm40.913.004c-.214-.032-.318.096-.195.567l.247 1.062c.019.1.075.234-.027.276-.096.038-.138-.1-.181-.19l-.46-.976c-.191-.448-.348-.462-.49-.29-.36.442-.147 1.513-.029 1.856.333.962 1.188 1.705 1.933 1.867.46-.652.68-1.833.352-2.79-.12-.343-.609-1.31-1.15-1.382zm-58.156-4.095c.086-.605-.07-.738-.332-.657-.69.205-1.135 2.914-1.283 3.81-.319 1.914-.584 3.57-.983 4.919 0 0 2.84-.729 3.786-4.867.176-.748.366-2.557-.166-3.029-.205-.185-.437-.005-.542.62l-.694 2.924c-.028.166-.118.247-.256.214-.133-.029-.147-.148-.138-.277zm75.68-.657c-.26-.081-.423.052-.332.657l.607 3.657c.015.13-.01.248-.142.277-.123.033-.223-.048-.256-.214l-.689-2.925c-.11-.624-.338-.804-.541-.619-.538.472-.342 2.281-.171 3.03.95 4.137 3.79 4.866 3.79 4.866-.398-1.348-.67-3.005-.983-4.92-.142-.895-.598-3.604-1.283-3.809zm-37.074 1.567c-.293-.176-.517-.053-.575.743l-.18 2.99c-.022.166-.01.4-.18.4-.16 0-.156-.234-.175-.4l-.181-2.99c-.053-.796-.28-.92-.575-.743-.77.447-.998 2.205-.998 2.795 0 1.657.912 3.496 1.93 4.205 1.02-.71 1.938-2.548 1.938-4.205 0-.59-.239-2.348-1.004-2.795zm-5.067.653c.028-.695-.157-.839-.418-.733-.694.27-1.065 1.771-1.121 2.28-.157 1.443.432 3.185 1.226 3.958.935-.457 1.885-1.92 2.046-3.362.062-.515.038-2.081-.574-2.591-.233-.195-.432-.124-.557.562l-.445 2.8c-.038.143-.053.348-.195.32-.138-.025-.11-.229-.11-.377zm8.688-.734c-.27-.106-.445.038-.417.733l.146 2.858c0 .147.024.351-.114.375-.143.029-.157-.176-.186-.318l-.446-2.8c-.127-.687-.332-.758-.566-.563-.603.51-.63 2.077-.575 2.59.163 1.444 1.118 2.906 2.05 3.363.792-.772 1.391-2.514 1.23-3.958-.062-.509-.428-2.009-1.122-2.28zm-27.359 1.07l-.056.001c-.656.052-1.33 1.191-1.5 1.6-.49 1.148-.357 2.638.123 3.477.907-.143 2.014-1.015 2.503-2.168.171-.404.532-1.704.143-2.27-.148-.225-.343-.215-.608.313l-.823 1.568c-.066.104-.127.27-.246.214-.11-.057-.034-.214 0-.339l.584-1.686c.19-.56.076-.728-.176-.709zm45.663.001c-.251-.02-.366.148-.17.71l.58 1.685c.037.125.113.282 0 .339-.115.057-.177-.11-.243-.214l-.817-1.568c-.275-.528-.46-.538-.618-.314-.385.567-.024 1.867.147 2.271.489 1.153 1.597 2.025 2.493 2.168.484-.839.623-2.33.134-3.477-.176-.409-.85-1.548-1.506-1.6zm-15.035-1.928c-.242-.091-.395.047-.342.705l.36 2.704c.005.139.043.328-.08.357-.123.028-.147-.166-.18-.295l-.49-2.148c-.133-.638-.322-.7-.513-.504-.513.495-.456 1.971-.39 2.452.21 1.357 1.113 2.71 1.953 3.11.666-.748 1.102-2.41.893-3.767-.076-.476-.594-2.376-1.211-2.614zm-15.306.705c.056-.658-.095-.796-.333-.705-.622.238-1.14 2.138-1.22 2.614-.2 1.357.237 3.02.892 3.767.84-.4 1.743-1.753 1.953-3.11.076-.481.123-1.957-.38-2.452-.2-.196-.385-.134-.523.504l-.484 2.148c-.034.129-.062.323-.181.295-.128-.029-.09-.218-.08-.357zm-16.428-2.996c.195-.61.105-.747-.113-.681-.547.18-1.597 2.571-1.915 3.414-.713 1.91-1.135 4.605-.77 5.348.766-.32 2.17-2.576 2.908-4.543.275-.747 1.068-3.252.778-3.748-.118-.195-.275-.147-.526.439l-2.02 5.081c-.056.114-.118.3-.208.261-.096-.033-.02-.21.014-.338zm47.933-.681c-.214-.066-.3.071-.11.68l1.854 5.234c.032.129.103.305.01.338-.09.039-.148-.147-.21-.261l-2.01-5.081c-.255-.586-.412-.634-.531-.439-.295.496.498 3 .778 3.748.737 1.967 2.148 4.224 2.903 4.543.366-.743-.052-3.438-.77-5.348-.318-.843-1.363-3.234-1.914-3.414zm-13.499 1.727l-.073.002c-.162.028-.26.119-.062 1.028l.376 1.943c.023.143.07.339-.04.372-.104.043-.147-.158-.189-.29l-.46-1.462c-.19-.648-.367-.7-.527-.491-.419.538-.224 2.047-.1 2.537.328 1.377 1.292 2.706 2.1 3.068.531-.805.622-2.41.294-3.78-.115-.492-.78-3.04-1.392-2.925zm-20.971.002c-.617-.115-1.278 2.433-1.392 2.924-.332 1.372-.242 2.976.29 3.781.812-.362 1.782-1.691 2.11-3.068.113-.49.308-2-.105-2.537-.166-.21-.332-.157-.527.49l-.456 1.462c-.053.133-.09.334-.2.29-.109-.032-.057-.228-.038-.371l.376-1.943c.204-.909.099-1-.058-1.028zM162.79 96.104l-.277.003c-1.625.032-3.088.6-4.543 1.242-1.149.51-2.28 1.067-3.552 1.248-.248.038-.651.067-.647.405 0 .399.551.5 1.054.5.77.004 2.077-.124 3.027-.42-.238.344-.603 1.196-.622 1.4-.057.591.176.939.764.991.57.048 1.207-.39 1.687-.676.423-.253 1.145-.681 1.315-.877-.408.553-.807 1.106-1.016 1.749-.1.3-.042.609.119.776.157.166.537.267.808.214.77-.157 1.7-.962 2.422-1.715l-.001.001-.15.243c-.248.405-.487.8-.65 1.21l-.087.246c-.128.41-.152.834.114 1.115.285.314.741.334 1.102.219.706-.223 1.792-1.271 2.002-1.479l.036-.035c-.218.223-.855 1.176-1.13 1.795-.328.762.237 1.438 1.059 1.314a3.51 3.51 0 001.216-.41c-.095.191-.917 1.534-1.14 2.039-.2.457-.37.967-.394 1.467-.053.833.384 1.076 1.134.69.224-.118.443-.252.675-.39-.052.595-.156 1.129-.138 1.657.02.757.404 1.02 1.131.829.366-.1.718-.253 1.088-.381-.014.256-.033.49-.033.724.005.795.48 1.147 1.235.89.385-.133.727-.372 1.107-.567.023.134.048.296.07.457.172.943.828 1.286 1.683.848.114-.062.713-.49.902-.619.11.277.656.938 1.663 1.08-.494-1.214-.48-2.585-.18-3.728.09-.371-.053-.533-.433-.466-.208.038-.422.133-.641.166-.37.057-.746.148-1.107.1-1.682-.233-3.083-1.029-4.261-2.238-.694-.714-.912-1.505-.385-2.42.067-.118.114-.252.167-.38 1.097-2.686.56-5.343-1.454-7.22-1.426-1.328-3.164-1.628-5.016-1.594zm50.706.003c-1.863-.034-3.592.266-5.022 1.594-2.01 1.877-2.556 4.534-1.458 7.22.056.128.103.262.17.38.528.915.31 1.706-.384 2.42-1.174 1.21-2.58 2.005-4.266 2.238-.357.048-.738-.043-1.108-.1-.214-.033-.423-.128-.641-.166-.375-.067-.523.095-.423.466.294 1.143.305 2.514-.183 3.729 1.01-.143 1.554-.804 1.662-1.08.186.127.784.556.903.618.855.438 1.51.095 1.672-.848.028-.161.057-.323.076-.457.385.195.726.434 1.11.567.761.257 1.227-.095 1.232-.89.005-.234-.02-.468-.029-.724.37.128.718.28 1.083.38.731.192 1.116-.071 1.14-.828.015-.528-.09-1.062-.152-1.657.243.138.457.272.685.39.745.386 1.192.143 1.135-.69-.028-.5-.19-1.01-.394-1.467-.228-.505-1.04-1.848-1.14-2.039.394.215.745.338 1.217.41.816.124 1.386-.552 1.049-1.314-.27-.62-.903-1.572-1.126-1.795 0 0 1.264 1.267 2.042 1.514.362.115.809.095 1.103-.219.256-.28.233-.704.113-1.115-.18-.58-.541-1.128-.892-1.7v.001l.17.174c.64.64 1.402 1.28 2.075 1.493l.182.047c.271.053.65-.048.81-.214.16-.167.21-.477.115-.776-.21-.643-.607-1.196-1.016-1.749.166.196.893.624 1.316.877.48.286 1.117.724 1.687.676.59-.052.816-.4.765-.99-.015-.205-.386-1.057-.619-1.4.94.295 2.248.423 3.018.418.507 0 1.054-.1 1.054-.5.004-.337-.395-.366-.642-.404-1.268-.181-2.403-.738-3.553-1.248-1.459-.643-2.917-1.21-4.536-1.242zm-51.649 8.367l-.047.004c-.59.086-1.682 1.872-2.086 2.652-.912 1.762-1.757 4.83-1.44 5.61.822-.19 2.666-2.667 3.602-4.481.36-.695 1.263-2.671.993-3.205-.105-.21-.276-.19-.59.348l-2.55 4.596c-.077.114-.153.28-.242.228-.096-.048-.005-.205.042-.329l2.323-4.738c.256-.562.18-.715-.052-.68zm52.36.004c-.233-.034-.318.12-.066.681l2.327 4.738c.057.124.143.281.05.329-.096.053-.172-.114-.243-.228l-2.551-4.596c-.318-.538-.489-.557-.594-.348-.267.534.637 2.51.993 3.205.94 1.814 2.779 4.29 3.605 4.482.318-.782-.527-3.849-1.44-5.61-.403-.781-1.491-2.567-2.08-2.653zm2.66-1.456c-.256 0-.35.166-.08.723l2.418 4.405c.052.12.128.224.02.286-.11.067-.168-.048-.249-.157l-2.674-4.28c-.34-.515-.531-.515-.655-.287-.313.596.608 2.472.998 3.143 1.025 1.767 2.835 3.786 4 4.129.204-1.166-.533-3.881-1.535-5.596-.438-.761-1.577-2.352-2.243-2.366zm-57.732-.001c-.666.014-1.81 1.605-2.247 2.366-.993 1.715-1.73 4.43-1.53 5.592v.004c1.164-.342 2.974-2.362 3.995-4.128.39-.672 1.316-2.548 1.003-3.144-.124-.228-.32-.228-.66.286l-2.675 4.281c-.077.11-.133.224-.247.157-.105-.061-.029-.166.024-.286l2.413-4.405c.276-.557.18-.723-.076-.723zm26.464 2.819c-.032-.52-.19-.6-.394-.481-.531.29-.688 1.443-.688 1.828 0 1.086.626 2.296 1.33 2.758.703-.462 1.334-1.343 1.334-2.434 0-.38-.218-1.223-.755-1.4-.223-.066-.356-.028-.395.49l-.06 1.058c-.015.11-.01.267-.124.267s-.11-.157-.12-.267zm5.193-.481c-.204-.119-.356-.038-.395.481l-.123 1.82c-.014.109-.009.266-.124.266-.113 0-.108-.157-.123-.267l-.052-1.058c-.038-.518-.18-.556-.404-.49-.531.177-.756 1.02-.756 1.4 0 1.091.637 1.972 1.331 2.434.713-.462 1.34-1.672 1.34-2.758 0-.385-.162-1.538-.694-1.828zm-8.095-.343c.057-.586-.09-.7-.332-.615-.613.244-.993 1.496-1.07 1.93-.19 1.209.262 2.667.922 3.3.836-.39 1.725-1.63 1.925-2.839.065-.433.104-1.743-.405-2.162-.199-.161-.375-.1-.508.472l-.451 1.972c-.033.113-.057.29-.176.27-.123-.018-.09-.19-.085-.318zm10.94-.615c-.242-.085-.39.029-.342.615l.185 2.01c.01.128.043.3-.076.319-.128.019-.147-.158-.18-.271l-.451-1.972c-.137-.572-.314-.633-.513-.472-.509.42-.466 1.729-.4 2.162.196 1.21 1.089 2.449 1.92 2.838.659-.632 1.115-2.09.916-3.3-.071-.433-.446-1.685-1.06-1.929zm26.176-3.171c-.27-.014-.375.153-.114.738l2.152 4.253c.048.129.124.238.01.3-.115.062-.176-.057-.252-.167l-2.338-4.053c-.332-.547-.537-.552-.674-.318-.347.595.484 2.495.855 3.205.988 1.866 2.617 3.661 3.81 4.066.26-1.19-.224-3.652-1.184-5.462-.428-.8-1.577-2.52-2.265-2.562zm-63.57 0h-.054c-.689.043-1.848 1.762-2.265 2.562-.96 1.81-1.444 4.272-1.184 5.462 1.193-.405 2.822-2.2 3.805-4.066.38-.71 1.207-2.61.856-3.205-.138-.234-.332-.229-.67.318l-2.337 4.053c-.08.11-.138.23-.247.167-.115-.062-.043-.171.004-.3l2.153-4.253c.261-.585.152-.752-.115-.738zm23.784 3.181c.096-.49-.009-.6-.204-.537-.504.156-.917 1.195-1.012 1.552-.271 1.004-.047 2.262.404 2.843.684-.276 1.415-.957 1.682-1.967.095-.357.123-1.181-.267-1.462-.165-.114-.284-.105-.446.367l-.3.909c-.037.1-.07.243-.16.22-.095-.024-.053-.168-.039-.272zm16.151-.537c-.195-.062-.299.047-.199.538l.333 1.652c.018.104.061.248-.034.271-.09.024-.124-.119-.162-.22l-.299-.908c-.156-.472-.28-.481-.441-.367-.394.281-.366 1.105-.271 1.462.262 1.01.993 1.69 1.682 1.967.456-.581.664-1.839.399-2.843-.095-.357-.508-1.396-1.008-1.552zm26.414-3.82c-.237-.005-.324.152-.076.661l1.88 3.53c.05.11.12.21.016.267-.091.062-.149-.043-.214-.144l-2.442-3.771c-.314-.481-.49-.476-.599-.262-.285.548.998 2.89 1.354 3.515 1.61 2.757 3.748 3.228 3.748 3.228-.347-1.686-.717-2.966-1.306-4.138-.361-.729-1.762-2.876-2.361-2.886zm-69.177 0c-.608.01-2.004 2.157-2.366 2.886-.594 1.172-.964 2.452-1.306 4.138 0 0 2.137-.471 3.743-3.228.361-.624 1.639-2.967 1.358-3.515-.109-.214-.28-.22-.599.262l-2.436 3.771c-.07.1-.128.206-.228.144-.094-.057-.024-.158.024-.267l1.882-3.53c.246-.509.16-.666-.072-.66zm33.33 3.195c-.841-.476-1.52.543-1.008 1.23.537.737 1.506.637 1.881 1.913 0-.7-.06-1.552-.185-2.061-.114-.424-.413-.92-.688-1.082zm3.557 1.23c.504-.687-.17-1.706-1.006-1.23-.28.163-.584.658-.689 1.082-.129.51-.19 1.361-.19 2.061.38-1.276 1.35-1.176 1.885-1.914zm-6.247-4.963c-.213-.086-.346.033-.275.6l.219 1.767c.01.123.052.286-.062.304-.11.024-.133-.147-.166-.261l-.452-1.72c-.142-.552-.308-.614-.48-.452-.436.414-.346 1.7-.265 2.119.228 1.182 1.073 2.386 1.833 2.757.566-.628.912-2.057.68-3.243-.081-.418-.466-1.643-1.032-1.871zm8.161.6c.066-.567-.057-.686-.276-.6-.556.228-.945 1.453-1.03 1.87-.228 1.187.114 2.616.68 3.244.759-.37 1.61-1.575 1.833-2.757.081-.419.166-1.705-.266-2.119-.17-.162-.328-.1-.48.452l-.446 1.72c-.033.114-.062.285-.17.261-.105-.018-.072-.18-.059-.304zm3.193-.13c-.176-.08-.304 0-.29.444l.024 1.357c-.005.09.015.22-.08.234-.09.009-.1-.124-.12-.214l-.24-1.339c-.077-.428-.215-.485-.377-.376-.418.3-.46 1.282-.427 1.605.09.914.721 1.881 1.349 2.214.555-.453.987-1.52.897-2.438-.028-.324-.262-1.28-.736-1.486zm-14.527.444c.015-.443-.114-.524-.299-.443-.47.205-.698 1.162-.731 1.486-.09.919.341 1.985.897 2.438.632-.333 1.259-1.3 1.355-2.214.028-.323-.006-1.305-.428-1.605-.166-.11-.304-.052-.38.376l-.234 1.339c-.018.09-.027.223-.127.214-.1-.015-.076-.143-.076-.234zm8.87-.81c.047-.38-.048-.465-.219-.414-.427.13-.722.939-.784 1.22-.171.79.1 1.766.543 2.214.579-.224 1.22-1.005 1.391-1.79.058-.282.13-1.144-.214-1.444-.128-.114-.257-.076-.365.296l-.337 1.138c-.029.077-.049.186-.13.172-.085-.02-.051-.134-.042-.21zm-3.283-.414c-.171-.051-.271.034-.214.414l.157 1.182c.01.076.033.19-.043.21-.09.014-.11-.095-.133-.172l-.342-1.138c-.11-.372-.233-.41-.365-.296-.338.3-.276 1.162-.214 1.443.166.786.812 1.567 1.4 1.79.438-.447.709-1.423.533-2.213-.057-.281-.351-1.09-.779-1.22zm9.462-3.114c.105-.471-.004-.562-.19-.514-.503.128-.883 1.233-.95 1.59-.161.772-.194 1.558.252 2.324.495-.186 1.207-.553 1.553-1.539.114-.342.29-1.185-.085-1.447-.156-.11-.275-.1-.44.352l-.267.744c-.034.095-.077.233-.166.21-.086-.025-.048-.163-.024-.258zm-15.67-.514c-.182-.048-.295.043-.191.514l.318 1.462c.015.095.062.233-.028.258-.09.023-.124-.115-.167-.21l-.26-.744c-.167-.452-.286-.461-.442-.352-.38.262-.2 1.104-.081 1.447.342.987 1.055 1.354 1.544 1.54.451-.767.413-1.553.256-2.324-.076-.358-.446-1.463-.95-1.591zm13.467-.462c.118-.481.024-.595-.171-.543-.499.142-.955 1.157-1.064 1.51-.305 1-.162 2.257.26 2.857.68-.253 1.52-1.21 1.83-2.2.109-.357.313-1.448-.014-1.853-.13-.148-.276-.115-.452.353l-.557 1.428c-.036.095-.08.243-.17.215-.09-.029-.038-.172-.018-.272zm-11.283-.543c-.19-.052-.29.062-.17.543l.355 1.495c.02.1.067.243-.023.272-.09.028-.128-.12-.166-.215l-.551-1.428c-.186-.468-.329-.5-.456-.353-.329.405-.129 1.496-.015 1.853.309.99 1.15 1.947 1.83 2.2.418-.6.57-1.857.256-2.858-.11-.352-.56-1.367-1.06-1.51zm9.895-.447c-.122-.149-.265-.14-.478.314l-.637 1.395c-.048.094-.09.233-.186.195-.09-.033-.033-.166-.01-.267l.243-.771c.142-.476.047-.552-.152-.552-.475-.006-.802.814-.965 1.147-.442.934-.442 2.696-.147 3.139.931-.648 1.777-1.682 2.138-2.73.123-.351.537-1.47.194-1.87zm-8.204.314c-.204-.453-.356-.463-.475-.314-.342.4.072 1.519.19 1.87.366 1.048 1.207 2.082 2.138 2.73.295-.443.295-2.205-.142-3.139-.162-.333-.49-1.153-.97-1.147-.2 0-.294.076-.147.552l.243.771c.024.1.08.234-.01.267-.09.038-.138-.1-.185-.195zm-5.253-.477c.014-.333-.067-.395-.186-.338-.318.153-.494.872-.527 1.119-.076.686.18 1.5.536 1.839.429-.248.842-.768.927-1.457.028-.243-.023-.791-.314-.939-.118-.061-.199-.043-.256.285l-.1.53c-.015.067-.019.162-.085.157-.062-.01-.048-.11-.048-.181zm18.423-.338c-.13-.057-.2.005-.186.338l.052 1.015c0 .07.014.171-.043.18-.066.006-.077-.09-.095-.157l-.09-.529c-.067-.328-.137-.346-.266-.285-.28.148-.342.696-.304.939.076.69.494 1.209.917 1.457.356-.339.622-1.153.533-1.84-.024-.246-.2-.965-.518-1.118zm-1.701-4.41c-.148-.052-.243.03-.361.091-.332.166-.907.462-1.558.623.726.834 2.199.968 2.199.968s-1.445.995-1.558 3.147c2.056.022 3.19-1.197 3.352-1.385l.02-.024s.006.985.75 2.148c.267-1.32 1.711-1.715 1.958-1.763-.162-.009-.537-.02-1.017-.114-.133-.024-.218-.052-.36-.01-.157.048-.204.215-.204.215l-.076.162a.254.254 0 01-.347.12.255.255 0 01-.123-.35l.061-.123s.057-.128.023-.228c-.037-.115-.137-.152-.26-.21a5.047 5.047 0 01-.732-.448.407.407 0 00-.27-.095.433.433 0 00-.271.1l-1.207.876c-.105.082-.171.029-.195.015-.018-.028-.048-.09.043-.176l.98-1.076s.128-.134.128-.262a.317.317 0 00-.068-.23 4.561 4.561 0 01-.527-.808.488.488 0 00-.161-.196c-.096-.047-.209-.028-.209-.028l-.1.023a.264.264 0 01-.315-.2.266.266 0 01.205-.309s.161-.028.25-.057c.153-.048.087-.348-.05-.396zm-15.127-.016l-.08.016c-.138.048-.205.348-.048.396.081.029.252.057.252.057a.256.256 0 01.195.31.258.258 0 01-.309.2l-.1-.024s-.114-.02-.204.028a.413.413 0 00-.17.196c-.158.3-.329.576-.519.809a.283.283 0 00-.076.229c.005.128.134.262.134.262l.973 1.076c.1.086.066.148.038.176-.01.014-.081.067-.185-.015l-1.202-.875s-.123-.106-.27-.1a.42.42 0 00-.277.094 4.95 4.95 0 01-.736.448c-.118.058-.223.095-.261.21-.033.1.033.228.033.228l.057.124a.258.258 0 01-.128.348.25.25 0 01-.342-.12l-.071-.16s-.053-.168-.21-.215c-.137-.043-.227-.015-.365.01-.48.094-.85.104-1.012.113.247.048 1.696.443 1.957 1.763.746-1.163.75-2.148.75-2.148s1.136 1.433 3.374 1.409c-.119-2.152-1.563-3.147-1.563-3.147s1.482-.134 2.2-.968c-.646-.16-1.227-.457-1.55-.623-.127-.061-.222-.143-.365-.09zm13.635 1.484c-.49-.106-1.217.618-1.43.89-.462.606-.827 1.262-.76 2.114.503.047 1.272.028 1.985-.672.243-.247.988-1.123.77-1.514-.091-.161-.252-.167-.532.12l-.771.757c-.075.067-.16.17-.231.114-.068-.057.028-.158.085-.238l.822-1.048c.294-.362.232-.486.062-.523zm-12.119-.01l-.1.01c-.18.037-.238.16.053.523l.826 1.048c.057.08.152.18.086.238-.072.057-.162-.047-.229-.114l-.783-.758c-.276-.286-.437-.28-.528-.119-.214.39.528 1.267.774 1.514.713.7 1.478.72 1.987.672.066-.852-.3-1.508-.76-2.115-.21-.271-.941-.995-1.426-.89zm-9.681 1.647c-1.497-.452-1.958.262-1.958.262s.77-.223 2.148.205c1.368.424 2.023.157 2.023.157-.945-.11-1.677-.457-2.213-.624zm33.334.262s-.46-.714-1.963-.262c-.535.167-1.267.515-2.208.624 0 0 .646.267 2.023-.157 1.378-.428 2.148-.205 2.148-.205zm-41.425-2.028c-.233.747.186 1.657 1.145 1.928 1.758.5 3.52-.352 4.356-.77.917-.458 1.54-.168 1.54-.168s-.21-.233-.718-.41c-.66-.233-.983.096-2.08.6-.955.444-2.38.772-3.463.262-.903-.419-.78-1.442-.78-1.442zm47.553 0s.128 1.023-.774 1.442c-1.084.51-2.508.182-3.463-.261-1.098-.505-1.426-.834-2.08-.6-.416.144-.632.326-.696.387l-.022.022s.617-.29 1.54.167c.835.419 2.598 1.271 4.35.771.959-.271 1.382-1.181 1.145-1.928zm-11.063-1.643c-.585-.6-1.136.08-2.016.585-.475.272-1.729.776-2.688-.47.143.494.94 2.932 3.41 3.333 1.169.185 2.676.042 3.872-1.087 1.04-.985 1.53-2.019 1.002-2.347-.465-.282-.794.195-1.115.48-.324.292-.722.458-1.354.32-.609-.128-.85-.538-1.111-.814zm-23.411.585c-.88-.504-1.435-1.185-2.01-.585-.266.276-.503.686-1.117.814-.627.138-1.02-.028-1.349-.32-.322-.285-.655-.762-1.111-.48-.537.328-.048 1.362.993 2.347 1.197 1.129 2.708 1.272 3.876 1.087 2.47-.4 3.269-2.839 3.411-3.334-.96 1.247-2.214.743-2.693.471zm28.275-1.385c-.215-.171-.637.066-.615.761.063 1.625-1.419 2.762-1.419 2.762s1.863-1.233 3.444-1.423c1.62-.205 2.485.39 2.485.39-.266-2.147-2.94-2.447-3.283-2.304-.18.07-.175.237-.304.243-.209.004-.185-.334-.308-.43zm-34.536.761c.023-.695-.405-.932-.613-.761-.124.095-.105.433-.31.429-.127-.006-.127-.172-.298-.243-.352-.143-3.026.157-3.292 2.304 0 0 .864-.595 2.494-.39 1.576.19 3.434 1.423 3.434 1.423s-1.477-1.137-1.415-2.762zm12.332 1.806c-.276-.144-.48-.025-.456.133.028.229.935.533 1.78.052 0 0-.645.115-1.324-.185zm9.715.133c.023-.158-.186-.277-.462-.133-.67.3-1.325.185-1.325.185.846.481 1.758.177 1.787-.052zm-10.052-1.553c-.38-.166-.533.01-.518.157.028.253 1.244.548 2.185-.038 0 0-.808.186-1.667-.12zm10.446.157c.019-.147-.134-.323-.513-.157-.86.305-1.668.12-1.668.12.941.585 2.152.29 2.18.037zm-19.89-1.142c-.338 0-.619.252-.619.561 0 .315.281.567.619.567.337 0 .612-.252.612-.567 0-.31-.275-.561-.612-.561zm28.826 0c-.342 0-.619.252-.619.561 0 .315.277.567.619.567.337 0 .613-.252.613-.567 0-.31-.276-.561-.613-.561zm.228-1.59c-1.482-.382-2.523-.21-6.11.865-3.59 1.077-5.42.23-5.42.23 1.601 1.58 5.068.8 5.07.8.774 1.18 1.952.928 2.997.114 1.083-.834 1.573-.924 2.304-.867.518.033 1.107.286 1.572.472.67.275 1.292.461 1.544.104.256-.376-.233-1.276-1.957-1.719zm-23.178.865c-3.592-1.076-4.627-1.247-6.114-.866-1.72.443-2.213 1.343-1.952 1.719.242.357.873.171 1.548-.104.461-.186 1.05-.44 1.567-.472.737-.057 1.217.033 2.3.867 1.05.814 2.228 1.066 3.002-.114 0 0 3.468.78 5.064-.8 0 0-1.824.847-5.415-.23zm23.064 1.02c.128 0 .232.1.232.219s-.104.214-.232.214c-.138 0-.242-.095-.242-.214s.105-.219.242-.219zm-29.054 0c.128 0 .238.1.238.219s-.11.214-.238.214c-.133 0-.243-.095-.243-.214s.11-.219.243-.219z"/></g></svg>