<svg xmlns="http://www.w3.org/2000/svg" width="194" height="174"><g fill="none" fill-rule="evenodd"><rect width="193" height="173" x=".5" y=".5" stroke="#E8E9EB" rx="4"/><path fill="#8F96A3" fill-rule="nonzero" d="M87.34 48.52v-.984h-1.656V40.12h-1.128l-2.016 1.452v1.236l2.016-1.452v6.18H82.54v.984h4.8zm4.44.12c.432 0 .838-.068 1.218-.204.38-.136.71-.37.99-.702.28-.332.502-.774.666-1.326.164-.552.246-1.244.246-2.076v-.24c0-.776-.076-1.426-.228-1.95-.152-.524-.366-.944-.642-1.26a2.335 2.335 0 00-.984-.678A3.736 3.736 0 0091.78 40c-.424 0-.826.068-1.206.204-.38.136-.712.362-.996.678-.284.316-.508.736-.672 1.26-.164.524-.246 1.174-.246 1.95v.24c0 .832.084 1.524.252 2.076.168.552.394.994.678 1.326.284.332.614.566.99.702a3.5 3.5 0 001.2.204zm0-1.008c-.24 0-.478-.046-.714-.138a1.498 1.498 0 01-.636-.504c-.188-.244-.342-.58-.462-1.008-.12-.428-.18-.978-.18-1.65v-.24c0-.624.06-1.134.18-1.53.12-.396.274-.71.462-.942.188-.232.4-.392.636-.48a2.03 2.03 0 01.714-.132c.272 0 .53.044.774.132.244.088.456.248.636.48.18.232.322.546.426.942.104.396.156.906.156 1.53v.24c0 .68-.058 1.234-.174 1.662-.116.428-.268.764-.456 1.008s-.402.41-.642.498a2.08 2.08 0 01-.72.132zm5.712.888V43.9l1.848 3.18h.84l1.848-3.18v4.62h1.032v-6.36h-1.032l-2.232 3.9-2.232-3.9H96.46v6.36h1.032zm8.52 0V43.9l1.848 3.18h.84l1.848-3.18v4.62h1.032v-6.36h-1.032l-2.232 3.9-2.232-3.9h-1.104v6.36h1.032z"/><path fill="#8F96A3" d="M117 61.52h-1v-2H78v2h-1v-5h1v2h38v-2h1v5z"/><path fill="#595959" fill-rule="nonzero" d="M105.172 123.705c3.119-.002 5.066 2.254 5.066 5.335 0 3.139-2.034 5.48-5.25 5.48-3.155 0-5.128-2.315-5.128-5.193 0-3.402 2.174-5.622 5.312-5.622zm22.433-.002c1.065 0 2.236.207 3.55.902l-.52 1.541h-.24c-.717-1.17-1.723-1.641-2.849-1.641-2.4 0-3.552 2.319-3.552 4.575 0 2.607 1.44 4.64 3.98 4.64.837 0 1.6-.122 2.786-1.419l.18.228-.242 1.006c-.982.657-2.092.985-3.36.985-3.196 0-5.287-2.237-5.287-5.402 0-3.301 2.256-5.415 5.554-5.415zm-72.093 0c2.152 0 3.647 1.065 3.647 3.633v5.09c0 1.047.225 1.294.655 1.294.146 0 .37-.042.493-.082l.123.492c-.655.328-1.27.39-1.538.39-.676 0-1.106-.307-1.27-.902l-.123-.452c-1.108.882-2.316 1.354-3.322 1.354-1.865 0-3.077-.985-3.077-2.713 0-1.847 1.375-2.709 3.26-3.056l2.09-.388c.7-.125 1.071-.33 1.071-.842 0-2.239-.943-2.813-2.503-2.813-1.208 0-2.113.351-2.766 1.683h-.249v-1.274c.801-.984 2.275-1.414 3.51-1.414zm61.74 0c1.07 0 2.235.207 3.548.902l-.512 1.541h-.247c-.716-1.17-1.718-1.641-2.848-1.641-2.4 0-3.55 2.319-3.55 4.575 0 2.607 1.432 4.64 3.976 4.64.845 0 1.603-.122 2.79-1.419l.184.228-.247 1.006c-.985.657-2.087.985-3.362.985-3.197 0-5.289-2.237-5.289-5.402 0-3.301 2.256-5.415 5.556-5.415zm-46.06.207c-.154 1.448-.181 3.823-.184 4.987v.499c.005 1.083.036 3.486.185 4.899a7.04 7.04 0 00-.944-.062c-.347 0-.758.02-1.062.062.161-1.561.183-4.333.183-4.988-.903-.062-2.132-.142-2.603-.142-.558 0-1.93.04-2.75.102 0 .697.02 3.469.184 5.03a7.084 7.084 0 00-.943-.062c-.347 0-.759.02-1.066.062.145-1.413.177-3.816.182-4.9v-.295c0-1.047-.021-3.651-.182-5.19.347.016.801.058 1.048.058.225 0 .654-.042.961-.06-.164 1.557-.184 4.143-.184 4.248.86.04 2.107.082 2.77.082.676 0 1.967-.042 2.583-.082 0-.125-.022-2.711-.183-4.248.344.018.797.06 1.04.06.23 0 .659-.042.966-.06zm-22.42-4.538c-.04.247-.06.635-.06.738 0 .142.042.474.06.701-1.19-.165-3.158-.29-3.77-.29-.43 0-2.091.043-2.993.125v5.15h1.046c2.134 0 6.624.409 6.624 4.126 0 3.017-2.523 4.393-5.841 4.373-.373 0-1.765-.06-2.652-.06-.385 0-.857.018-1.186.06.126-2.259.165-5.38.165-7.966v-.577c-.004-2.286-.03-5.339-.165-6.38 1.313.06 3.483.185 3.958.185 1.144 0 3.48-.102 4.814-.185zm33.838 4.538l-4.9 4.393c.619.735 3.874 4.412 5.35 5.992a17 17 0 00-1.227-.062c-.371 0-.925.02-1.355.062-.758-1.19-3.075-3.919-4.345-5.317h-.328v.247c.004 1.024.03 3.644.179 5.07a6.988 6.988 0 00-.941-.062c-.344 0-.755.02-1.066.062.16-1.487.188-4.071.19-5.059v-.136c0-1.047-.022-3.651-.19-5.19.351.018.8.06 1.048.06.222 0 .654-.042.959-.06-.163 1.539-.179 4.143-.179 4.517h.328c.676 0 4.14-3.945 4.47-4.517.287.018.754.06 1.001.06.207 0 .7-.042 1.006-.06zm71.39-.002c-.151 1.452-.181 3.827-.184 4.987v.203c0 .866.023 3.638.184 5.195a7.463 7.463 0 00-.945-.058c-.348 0-.76.02-1.06.058.157-1.483.18-4.067.182-5.058v-.137c0-1.063-.018-2.377-.042-2.807-1.393 1.417-5.086 6.258-6.256 8.002a2.727 2.727 0 00-.592-.058c-.125 0-.492.04-.653.058.145-1.41.177-3.812.182-4.898v-.297c0-1.045-.021-3.647-.182-5.19.347.022.791.062 1.038.062.227 0 .66-.042.967-.062-.164 1.543-.182 4.127-.182 5.19 0 .866.018 2.076.04 2.649 1.126-1.373 5.14-6.485 6.108-7.84.225.043.367.063.614.063.125 0 .554-.042.781-.062zm-59.71-4.538c3.794 0 5.27 1.154 5.27 3.738 0 3.346-2.809 4.413-6.147 4.413-.187 0-.97-.042-1.359-.083v3.551c0 1.023.042 2.277.169 3.304a9.18 9.18 0 00-1.048-.058c-.373 0-.803.02-1.13.058.124-2.259.166-5.38.166-7.966v-.577c-.004-2.284-.031-5.337-.166-6.38.68.02 1.604.065 2.075.065.715 0 1.64-.065 2.17-.065zm48.102 4.538c-.159 1.452-.19 3.827-.192 4.987v.203c0 .866.023 3.638.192 5.195a7.564 7.564 0 00-.947-.058c-.352 0-.76.02-1.066.058.157-1.483.184-4.067.186-5.058v-.137c0-1.063-.022-2.377-.042-2.807-1.397 1.417-5.086 6.258-6.252 8.002a2.778 2.778 0 00-.596-.058c-.125 0-.494.04-.659.058.15-1.41.181-3.812.186-4.898v-.297c0-1.045-.021-3.647-.186-5.19.351.022.795.062 1.044.062.227 0 .656-.042.967-.062-.164 1.543-.182 4.127-.182 5.19 0 .866.018 2.076.04 2.649 1.124-1.373 5.143-6.485 6.108-7.84.223.043.365.063.612.063.125 0 .552-.042.787-.062zm-37.283.597c-2.214 0-3.3 2.317-3.3 4.76 0 2.317.964 4.455 3.136 4.455 2.091 0 3.344-2.013 3.344-4.762 0-2.219-.863-4.453-3.18-4.453zm-47.588 4.493l-1.355.205c-1.477.227-3.119.74-3.119 2.303 0 1.19.659 1.824 1.99 1.824.822 0 1.641-.287 2.484-1.17v-3.162zm-15.512-2.114v6.221c.534.02 1.166.042 1.743.042 2.42 0 3.83-1.13 3.83-3.245 0-2.279-1.679-3.018-5.573-3.018zm51.874-6.358c-.348 0-1.538.018-1.827.06v5.765c.251.04.657.083.861.083 2.873 0 4.557-1.148 4.557-3.324 0-2.034-1.6-2.584-3.591-2.584zm3.111-51.006c11.004 0 19.92 8.926 19.92 19.936s-8.916 19.939-19.92 19.939c-10.996 0-19.912-8.928-19.912-19.939 0-11.01 8.916-19.936 19.912-19.936zm1.273 5.613c-.09 1.022.694 1.55.943 1.694-.81.88-1.945 2.64-2.216 5.138-.269-2.498-1.401-4.258-2.212-5.138.25-.143 1.032-.672.943-1.694 0 0-.46.836-2.595.454-1.768-.316-2.746.144-2.746.737 0 0-1.256.149-1.818.515-.565.365.034 1.274.034 1.274.084-.17.204-.266.544-.338 0 0 1.359-.352 1.832.535 1.034.088 1.925.705 2.345 1.549.024.05.441.836.172 2.401-.14.824-.534 1.526-1.114 2.124-.253.262-.568.43-.95.386-.603-.07-1.105-.361-1.537-.79-.235-.235-.309-.502-.128-.81.024-.042.038-.086.054-.134.536-1.294.088-2.44-.819-3.117-.668-.496-1.44-.554-2.22-.444-5.163.728-5.337 5.954-5.337 7.568v.747c-.008 4.162-.07 7.08-.1 7.669-.053.946-.382 1.143-.59 1.294.328.227 3.014-.619 3.66-1.423.043-.052.131-.076.2-.092 1.601-.376 1.603-2.048 1.633-2.558 1.339 0 1.859-1.465 2.001-1.847.119-.328.207-.71.241-1.057 0 .711 1.052 1.324 2.186.189 0 1.167 1.39.962 2.08.27.06.236.443.837.443.837-.793.145-1.15.32-1.525.65-.88.773-.98 2.065-.98 2.73 0 0-1.21 1.186-1.69 1.626-.142.13-.297.247-.454.366-1.242-1.395-1.656-.848-1.654-.846-.917-.372-1.429.287-1.226.62.213-.243.562-.172.77.019-1.24.207-.95 1.119-.615 1.31 0-.263.082-.553.471-.58-.02.403.251.471.508.483.614.024 1.644.055 1.957.36.179.175.093.687.285.862.16.143.331.127.42.129.03.187-.026.4-.263.649.891.074 1.561-.714 1.118-1.134-.187-.176-.811-.77-.841-1.026-.04-.276.249-.581.447-.762.432-.384.896-.727 1.351-1.083.135-.107.291-.2.446-.283a.59.59 0 01.456-.05c.34.106.337.098.425.04.337-.226.948-.726 2.216-.867a.662.662 0 00-.193.177c-.068.095-.114.21-.186.366-.083.173-.147.356-.221.532-.821 1.942-1.632 3.85-2.45 5.796-.272.643-.031 1.206.63 1.515.483.223 1.033.103 1.356-.366-.094.324-.138.601-.006.868.129.268.337.457.612.575.263.119.577.159.866.1.293-.06.487-.253.638-.54.026.637.441 1.101 1.13 1.101.688 0 1.106-.466 1.132-1.1.149.286.343.481.636.54.291.058.603.018.868-.1.274-.117.483-.308.612-.576.13-.267.088-.546-.004-.868.323.47.87.59 1.353.366.664-.31.905-.872.632-1.515-.82-1.945-1.632-3.854-2.453-5.796-.074-.176-.134-.36-.217-.532-.072-.157-.122-.271-.19-.366a.671.671 0 00-.195-.177c1.268.141 1.88.641 2.218.866.09.059.084.067.427-.04a.585.585 0 01.454.05c.155.085.313.177.446.284.457.356.919.7 1.353 1.083.2.18.487.486.45.762-.033.257-.66.85-.844 1.026-.441.42.229 1.208 1.12 1.134-.239-.25-.293-.462-.265-.65.089-.001.26.015.42-.128.192-.175.106-.687.287-.862.315-.305 1.343-.336 1.957-.36.257-.012.528-.08.508-.484.391.028.473.318.473.58.336-.19.62-1.102-.62-1.31.213-.19.56-.26.77-.017.206-.334-.304-.993-1.221-.621.002-.002-.414-.549-1.656.846-.157-.119-.314-.236-.452-.366-.482-.44-1.694-1.626-1.694-1.626 0-.665-.099-1.957-.976-2.73-.38-.33-.734-.505-1.53-.65 0 0 .384-.6.446-.838.69.693 2.082.898 2.082-.27 1.132 1.136 2.184.523 2.184-.188.034.348.12.73.243 1.057.138.382.66 1.847 1.999 1.847.03.51.032 2.182 1.63 2.558.072.016.158.04.2.092.647.804 3.332 1.65 3.66 1.423-.207-.15-.536-.348-.59-1.294-.03-.588-.095-3.507-.102-7.669v-.747c0-1.614-.171-6.84-5.336-7.568-.779-.11-1.55-.052-2.216.444-.91.677-1.359 1.823-.821 3.117a.526.526 0 00.054.135c.183.307.109.574-.128.81-.43.428-.934.719-1.538.79-.383.043-.698-.125-.951-.387-.578-.598-.988-1.298-1.112-2.124-.247-1.573.148-2.35.17-2.401.42-.844 1.311-1.46 2.345-1.55.43-.805 1.593-.588 1.8-.541l.032.007c.34.072.46.169.544.338 0 0 .6-.909.038-1.274-.564-.366-1.82-.515-1.82-.515 0-.593-.978-1.053-2.746-.737-1.981.354-2.52-.341-2.586-.442z"/></g></svg>