<svg viewBox="0 0 324 185" xmlns="http://www.w3.org/2000/svg" xmlns:xlink="http://www.w3.org/1999/xlink"><defs><path id="a" d="M0 0h479.338v296.06H0z"/><path id="c" d="M0 0h479.338v296.06H0z"/><path id="e" d="M0 0h479.338v296.06H0z"/><path id="g" d="M0 0h479.338v296.06H0z"/><path id="i" d="M0 0h479.338v296.06H0z"/><path id="k" d="M0 0h479.338v296.06H0z"/><path id="m" d="M0 0h479.338v296.06H0z"/><path id="o" d="M0 0h479.338v296.06H0z"/><path id="q" d="M0 0h479.338v296.06H0z"/><path id="s" d="M0 0h479.338v296.06H0z"/><path id="u" d="M0 0h479.338v296.06H0z"/></defs><g fill="none" fill-rule="evenodd"><g transform="translate(-77.781 -56)"><mask id="b" fill="#fff"><use xlink:href="#a"/></mask><path d="M239.658 56.39c-31.137 0-56.385 25.248-56.385 56.39 0 31.143 25.248 56.397 56.385 56.397 31.16 0 56.407-25.254 56.407-56.396 0-31.143-25.248-56.39-56.407-56.39m35.632 73.004c-.119-.148-.363-.216-.568-.261-4.524-1.063-4.53-5.792-4.615-7.236-3.791 0-5.27-4.144-5.661-5.224a12.28 12.28 0 01-.688-2.99c0 2.013-2.979 3.746-6.184.535 0 3.302-3.94 2.722-5.895.762-.176.67-1.261 2.37-1.261 2.37 2.25.409 3.256.903 4.33 1.836 2.485 2.188 2.763 5.843 2.763 7.724 0 0 3.433 3.354 4.797 4.598.393.37.836.7 1.28 1.035 3.518-3.945 4.694-2.399 4.688-2.393 2.598-1.052 4.042.813 3.462 1.756-.597-.687-1.58-.489-2.183.051 3.513.586 2.706 3.166 1.757 3.706 0-.744-.233-1.563-1.342-1.642.057 1.142-.71 1.335-1.438 1.37-1.739.068-4.65.153-5.542 1.017-.511.494-.267 1.944-.812 2.438-.455.404-.938.358-1.188.364-.08.529.074 1.131.75 1.836-2.524.21-4.422-2.018-3.172-3.206.523-.5 2.297-2.177 2.388-2.904.108-.779-.705-1.643-1.274-2.154-1.227-1.086-2.535-2.058-3.83-3.064-.376-.301-.825-.563-1.262-.801a1.65 1.65 0 00-1.285-.143c-.972.302-.955.279-1.21.114-.956-.636-2.69-2.052-6.281-2.45a1.9 1.9 0 01.55.5c.194.268.336.592.54 1.035.234.489.404 1.006.615 1.506 2.324 5.49 4.626 10.89 6.946 16.393.773 1.819.09 3.41-1.79 4.285-1.365.631-2.917.296-3.832-1.034.262.91.38 1.7.011 2.455-.363.756-.954 1.296-1.733 1.626a4.125 4.125 0 01-2.456.284c-.83-.165-1.38-.716-1.801-1.529-.074 1.796-1.257 3.115-3.206 3.115-1.95 0-3.126-1.313-3.2-3.115-.427.813-.978 1.359-1.808 1.53a4.106 4.106 0 01-2.45-.285c-.778-.335-1.37-.87-1.733-1.626-.375-.756-.25-1.54.017-2.455-.915 1.324-2.473 1.665-3.842 1.034-1.87-.875-2.552-2.466-1.785-4.285 2.319-5.502 4.615-10.902 6.94-16.393.21-.5.392-1.017.625-1.506.205-.443.336-.767.529-1.034.136-.188.301-.347.545-.5-3.592.397-5.32 1.813-6.275 2.45-.25.164-.238.187-1.205-.115a1.67 1.67 0 00-1.29.143c-.438.238-.88.5-1.262.801-1.29 1.006-2.603 1.978-3.825 3.064-.563.511-1.381 1.375-1.268 2.154.086.727 1.853 2.404 2.382 2.904 1.256 1.188-.642 3.416-3.166 3.206.67-.705.83-1.307.745-1.836-.25-.006-.734.04-1.188-.364-.546-.494-.302-1.944-.807-2.438-.887-.864-3.803-.95-5.542-1.017-.728-.035-1.495-.228-1.438-1.37-1.103.08-1.336.898-1.336 1.642-.95-.54-1.768-3.12 1.745-3.706-.591-.54-1.58-.738-2.183-.05-.574-.944.876-2.809 3.473-1.757-.005-.006 1.165-1.552 4.684 2.393.443-.335.88-.665 1.284-1.035 1.359-1.244 4.786-4.598 4.786-4.598 0-1.881.284-5.536 2.774-7.724 1.063-.933 2.075-1.427 4.32-1.836 0 0-1.086-1.7-1.256-2.37-1.956 1.96-5.889 2.54-5.889-.762-3.211 3.211-6.19 1.478-6.19-.534a12.82 12.82 0 01-.682 2.99c-.403 1.08-1.875 5.223-5.667 5.223-.085 1.444-.09 6.173-4.626 7.236-.194.045-.444.113-.563.261-1.83 2.274-9.435 4.667-10.368 4.024.591-.426 1.524-.983 1.671-3.66.091-1.762.285-10.913.285-23.805 0-4.564.494-19.348 15.113-21.405 2.211-.313 4.394-.148 6.287 1.256 2.569 1.915 3.836 5.155 2.319 8.816-.046.136-.086.261-.154.38-.511.87-.301 1.626.364 2.291 1.222 1.21 2.643 2.035 4.354 2.234 1.08.125 1.972-.353 2.688-1.091 1.643-1.694 2.757-3.678 3.155-6.008.762-4.428-.42-6.65-.489-6.793-1.188-2.387-3.711-4.132-6.639-4.382-1.341-2.507-5.19-1.512-5.19-1.512-.96.205-1.3.478-1.54.955 0 0-1.693-2.57-.096-3.604 1.591-1.034 5.15-1.455 5.15-1.455 0-1.677 2.768-2.978 7.775-2.086 6.048 1.08 7.35-1.284 7.35-1.284.25 2.893-1.961 4.388-2.672 4.791 2.296 2.49 5.502 7.469 6.264 14.534.767-7.065 3.979-12.044 6.275-14.534-.705-.403-2.927-1.898-2.672-4.791 0 0 1.302 2.364 7.344 1.284 5.008-.892 7.776.41 7.776 2.086 0 0 3.558.42 5.155 1.455 1.592 1.035-.108 3.604-.108 3.604-.239-.477-.58-.75-1.54-.955 0 0-3.848-.995-5.19 1.512-2.927.25-5.45 1.995-6.639 4.382-.062.142-1.182 2.342-.483 6.793.353 2.336 1.512 4.314 3.15 6.008.715.738 1.608 1.216 2.693 1.09 1.711-.198 3.138-1.022 4.354-2.233.671-.665.881-1.42.364-2.29a1.486 1.486 0 01-.153-.381c-1.524-3.66-.25-6.9 2.324-8.816 1.887-1.404 4.07-1.569 6.275-1.256 14.625 2.057 15.108 16.841 15.108 21.405 0 12.892.2 22.043.29 23.805.154 2.677 1.086 3.234 1.671 3.66-.926.643-8.531-1.75-10.362-4.024" fill="#595959" fill-rule="nonzero" mask="url(#b)"/></g><g transform="translate(-77.781 -56)"><mask id="d" fill="#fff"><use xlink:href="#c"/></mask><path d="M89.477 197.92c3.24 0 9.856-.29 13.63-.522a17.77 17.77 0 00-.17 2.086c0 .403.119 1.341.17 1.983-3.37-.466-8.941-.818-10.675-.818-1.216 0-5.922.12-8.474.352v14.568h2.96c6.043 0 18.758 1.154 18.758 11.67 0 8.531-7.145 12.425-16.54 12.368-1.058 0-4.997-.17-7.509-.17-1.091 0-2.427.05-3.36.17.359-6.39.467-15.216.467-22.531 0-6.554-.051-16.478-.466-19.678 3.717.17 9.862.523 11.209.523zm-5.52 38.322c1.512.057 3.303.12 4.934.12 6.855 0 10.845-3.2 10.845-9.18 0-6.446-4.752-8.538-15.778-8.538v17.598z" fill="#595959" fill-rule="nonzero" mask="url(#d)"/></g><g transform="translate(-77.781 -56)"><mask id="f" fill="#fff"><use xlink:href="#e"/></mask><path d="M112.258 213.648c2.268-2.785 6.44-4.001 9.935-4.001 6.094 0 10.328 3.012 10.328 10.276v14.398c0 2.96.637 3.66 1.853 3.66a5.45 5.45 0 001.398-.233l.347 1.393c-1.853.926-3.598 1.102-4.354 1.102-1.915 0-3.132-.87-3.598-2.552l-.346-1.279c-3.138 2.496-6.56 3.831-9.407 3.831-5.28 0-8.714-2.785-8.714-7.673 0-5.224 3.894-7.662 9.23-8.645l5.918-1.097c1.984-.353 3.035-.932 3.035-2.382 0-6.332-2.671-7.957-7.088-7.957-3.422 0-5.985.994-7.832 4.763h-.705v-3.604zm15.625 10.976l-3.837.58c-4.183.642-8.832 2.091-8.832 6.513 0 3.365 1.864 5.161 5.632 5.161 2.33 0 4.65-.812 7.037-3.308v-8.946z" fill="#595959" fill-rule="nonzero" mask="url(#f)"/></g><g transform="translate(-77.781 -56)"><mask id="h" fill="#fff"><use xlink:href="#g"/></mask><path d="M144.077 210.403c.636 0 1.853-.12 2.722-.17-.466 4.404-.523 11.72-.523 12.015 2.439.114 5.968.233 7.844.233 1.916 0 5.57-.12 7.315-.233 0-.352-.062-7.668-.517-12.016.972.051 2.257.17 2.944.17.648 0 1.865-.119 2.734-.17-.466 4.354-.523 11.664-.523 14.682 0 2.438.057 10.276.523 14.693a19.85 19.85 0 00-2.671-.177c-.983 0-2.149.057-3.007.177.455-4.417.517-12.255.517-14.108-2.557-.176-6.036-.403-7.372-.403-1.58 0-5.462.113-7.787.29 0 1.972.057 9.81.523 14.226a20.147 20.147 0 00-2.671-.176c-.984 0-2.149.057-3.018.176.454-4.416.517-12.254.517-14.693 0-2.961-.063-10.327-.517-14.681.983.045 2.268.165 2.967.165" fill="#595959" mask="url(#h)"/></g><g transform="translate(-77.781 -56)"><mask id="j" fill="#fff"><use xlink:href="#i"/></mask><path d="M177.447 210.403c.631 0 1.853-.12 2.717-.17-.46 4.353-.506 11.72-.506 12.777h.927c1.915 0 11.726-11.158 12.658-12.778.813.051 2.137.17 2.836.17.585 0 1.984-.119 2.848-.17l-13.875 12.425c1.75 2.08 10.97 12.482 15.148 16.95-1.558-.12-2.66-.177-3.473-.177-1.052 0-2.62.057-3.837.177-2.148-3.365-8.707-11.084-12.305-15.04h-.927c0 2.154.046 10.623.506 15.04a19.81 19.81 0 00-2.666-.177c-.972 0-2.137.057-3.018.177.477-4.417.54-12.255.54-14.693 0-2.962-.063-10.328-.54-14.682.995.051 2.268.17 2.967.17" fill="#595959" mask="url(#j)"/></g><g transform="translate(-77.781 -56)"><mask id="l" fill="#fff"><use xlink:href="#k"/></mask><path d="M225.857 197.574c2.024 0 4.644-.182 6.145-.182 10.742 0 14.92 3.263 14.92 10.572 0 9.464-7.952 12.482-17.404 12.482-.529 0-2.746-.12-3.848-.233v10.044c0 2.893.119 6.44.477 9.344a26.026 26.026 0 00-2.967-.165c-1.057 0-2.273.057-3.2.165.352-6.389.472-15.216.472-22.531 0-6.548-.057-16.472-.472-19.678 1.927.057 4.541.182 5.877.182m2.257 19.797c8.133 0 12.902-3.245 12.902-9.401 0-5.752-4.53-7.31-10.168-7.31-.984 0-4.354.051-5.173.17v16.308c.71.114 1.859.233 2.439.233" fill="#595959" fill-rule="nonzero" mask="url(#l)"/></g><g transform="translate(-77.781 -56)"><mask id="n" fill="#fff"><use xlink:href="#m"/></mask><path d="M277.16 224.743c0 8.878-5.757 15.5-14.863 15.5-8.935 0-14.522-6.548-14.522-14.687 0-9.623 6.155-15.904 15.04-15.904 8.832-.005 14.346 6.378 14.346 15.091m-23.867.637c0 6.553 2.728 12.601 8.878 12.601 5.923 0 9.47-5.695 9.47-13.47 0-6.276-2.445-12.596-9.004-12.596-6.27 0-9.344 6.553-9.344 13.465" fill="#595959" fill-rule="nonzero" mask="url(#n)"/></g><g transform="translate(-77.781 -56)"><mask id="p" fill="#fff"><use xlink:href="#o"/></mask><path d="M305.62 216.558h-.7c-2.028-3.308-4.865-4.643-8.065-4.643-6.798 0-10.055 6.559-10.055 12.942 0 7.372 4.059 13.124 11.26 13.124 2.393 0 4.542-.347 7.901-4.013l.523.642-.7 2.848c-2.79 1.859-5.91 2.785-9.52 2.785-9.054 0-14.977-6.326-14.977-15.278 0-9.339 6.389-15.318 15.733-15.318 3.03 0 6.332.585 10.05 2.552l-1.45 4.36z" fill="#595959" mask="url(#p)"/></g><g transform="translate(-77.781 -56)"><mask id="r" fill="#fff"><use xlink:href="#q"/></mask><path d="M334.92 216.558h-.681c-2.03-3.308-4.877-4.643-8.066-4.643-6.798 0-10.06 6.559-10.06 12.942 0 7.372 4.08 13.124 11.27 13.124 2.371 0 4.53-.347 7.89-4.013l.512.642-.688 2.848c-2.78 1.859-5.923 2.785-9.515 2.785-9.049 0-14.971-6.326-14.971-15.278 0-9.339 6.388-15.318 15.727-15.318 3.018 0 6.332.585 10.055 2.552l-1.472 4.36z" fill="#595959" mask="url(#r)"/></g><g transform="translate(-77.781 -56)"><mask id="t" fill="#fff"><use xlink:href="#s"/></mask><path d="M343.526 239.436c-.352 0-1.398.114-1.864.165.466-4.405.529-12.243.529-14.693 0-2.956-.063-10.316-.53-14.682.996.063 2.252.177 2.957.177.642 0 1.858-.12 2.74-.177-.467 4.366-.518 11.675-.518 14.682 0 2.45.051 5.872.114 7.491 3.183-3.882 14.562-18.342 17.296-22.173.63.12 1.034.177 1.734.177.352 0 1.563-.12 2.228-.177-.478 4.366-.546 11.675-.546 14.682 0 2.45.068 10.288.546 14.693a21.442 21.442 0 00-2.683-.165c-.995 0-2.149.057-3.018.165.466-4.405.528-12.243.528-14.693 0-3.007-.062-6.724-.12-7.94-3.955 4.007-14.402 17.7-17.705 22.633a7.875 7.875 0 00-1.688-.165" fill="#595959" mask="url(#t)"/></g><g transform="translate(-77.781 -56)"><mask id="v" fill="#fff"><use xlink:href="#u"/></mask><path d="M376.408 239.436c-.353 0-1.393.114-1.847.165.454-4.405.517-12.243.517-14.693 0-2.956-.063-10.316-.517-14.682.983.063 2.24.177 2.938.177.642 0 1.87-.12 2.74-.177-.466 4.366-.517 11.675-.517 14.682 0 2.45.05 5.872.113 7.491 3.189-3.882 14.557-18.342 17.297-22.173.636.12 1.04.177 1.739.177.352 0 1.569-.12 2.21-.177-.454 4.366-.522 11.675-.522 14.682 0 2.45.068 10.288.523 14.693a21.156 21.156 0 00-2.677-.165c-.984 0-2.149.057-3.001.165.466-4.405.517-12.243.517-14.693 0-3.007-.051-6.724-.12-7.94-3.944 4.007-14.403 17.7-17.716 22.633a7.73 7.73 0 00-1.677-.165" fill="#595959" mask="url(#v)"/></g></g></svg>