<svg viewBox="0 0 191 44" xmlns="http://www.w3.org/2000/svg" xmlns:xlink="http://www.w3.org/1999/xlink"><defs><path id="a" d="M0 0h233.417v86.853H0z"/><path id="c" d="M0 0h233.417v86.853H0z"/><path id="e" d="M0 0h233.417v86.853H0z"/><path id="g" d="M0 0h233.417v86.853H0z"/><path id="i" d="M0 0h233.417v86.853H0z"/><path id="k" d="M0 0h233.417v86.853H0z"/><path id="m" d="M0 0h233.417v86.853H0z"/><path id="o" d="M0 0h233.417v86.853H0z"/><path id="q" d="M0 0h233.417v86.853H0z"/><path id="s" d="M0 0h233.417v86.853H0z"/><path id="u" d="M0 0h233.417v86.853H0z"/><path id="w" d="M0 0h233.417v86.853H0z"/><path id="y" d="M0 0h233.417v86.853H0z"/><path id="A" d="M0 0h233.417v86.853H0z"/><path id="C" d="M0 0h233.417v86.853H0z"/><path id="E" d="M0 0h233.417v86.853H0z"/></defs><g fill="none" fill-rule="evenodd"><g transform="translate(-21.549 -21.273)"><mask id="b" fill="#fff"><use xlink:href="#a"/></mask><path d="M78.14 35.703c.577 0 1.607-.063 1.993-.063 3.045 0 5.447.578 5.447 3.323 0 1.952-1.245 3.046-3.43 3.796 3.065.644 3.924 2.06 3.924 3.904 0 3.152-2.683 4.568-6.093 4.568-.813 0-2.1-.065-2.744-.065-.28 0-.986.045-1.285.065.128-2.36.17-5.62.17-8.322 0-2.422-.023-6.091-.17-7.27a96.86 96.86 0 002.187.064zm-.087 6.605c.236.021.621.044 1.135.044 2.382 0 4.203-.986 4.203-2.96 0-1.823-1.585-2.55-3.537-2.55-.495 0-1.352.02-1.801.041v5.425zm0 7.678c.472.02 1.264.045 1.821.045 2.189 0 4.012-.924 4.012-3.39 0-1.93-1.052-3.152-5.232-3.152h-.601v6.497z" fill="#FFF" fill-rule="nonzero" mask="url(#b)"/></g><g transform="translate(-21.549 -21.273)"><mask id="d" fill="#fff"><use xlink:href="#c"/></mask><path d="M88.974 41.474c1.223-.944 2.38-1.31 3.668-1.31 2.25 0 3.817 1.137 3.817 3.947v5.168c0 1.221.236 1.352.686 1.352.15 0 .321-.023.451-.045l.127.538c-.835.299-1.307.341-1.543.341-.708 0-1.159-.32-1.33-.942l-.128-.472c-1.16.921-2.424 1.414-3.473 1.414-1.954 0-3.219-1.029-3.219-2.83 0-1.93 1.308-2.83 3.002-3.132l2.594-.47c.73-.129 1.117-.344 1.117-.88 0-2.338-.987-3.152-2.618-3.152-1.264 0-2.316.472-2.893 1.716h-.258v-1.243zm5.769 4.224l-1.416.214c-1.543.236-3.259.772-3.259 2.401 0 1.245.685 1.91 2.079 1.91.86 0 1.717-.3 2.596-1.223v-3.302z" fill="#FFF" fill-rule="nonzero" mask="url(#d)"/></g><g transform="translate(-21.549 -21.273)"><mask id="f" fill="#fff"><use xlink:href="#e"/></mask><path d="M100.66 40.443c.237 0 .687-.044 1.008-.065a21.413 21.413 0 00-.107 1.674c.708-1.286 2.08-1.887 3.432-1.887 2.08 0 3.71 1.308 3.71 3.494 0 .538-.064 1.459-.064 2.146 0 .9.022 3.795.194 5.426a7.507 7.507 0 00-.988-.065c-.364 0-.792.021-1.115.065.17-1.63.193-4.526.193-5.426 0-3.282-.987-4.417-2.659-4.417-2.617 0-2.788 2.659-2.788 4.696 0 .385.021 3.517.192 5.148a7.45 7.45 0 00-.987-.066c-.364 0-.792.022-1.114.066.173-1.631.194-4.527.194-5.426 0-1.095-.021-3.817-.194-5.427.365.02.836.064 1.094.064" fill="#FFF" mask="url(#f)"/></g><g transform="translate(-21.549 -21.273)"><mask id="h" fill="#fff"><use xlink:href="#g"/></mask><path d="M112.842 34.395c.234 0 .685-.043 1.008-.063-.173 1.629-.194 4.74-.194 6.434v4.331H114c.707 0 4.332-4.118 4.675-4.719.3.021.793.066 1.05.066.216 0 .73-.045 1.052-.066l-5.126 4.59c.644.771 4.053 4.612 5.598 6.263-.58-.044-.987-.065-1.288-.065-.385 0-.964.021-1.415.065-.793-1.245-3.217-4.096-4.546-5.555h-.343c0 .792.02 3.925.193 5.555a7.435 7.435 0 00-.987-.065 8.93 8.93 0 00-1.114.065c.17-1.63.193-4.763.193-6.434v-4.03c0-1.696-.022-4.806-.193-6.435.362.02.834.063 1.093.063" fill="#FFF" mask="url(#h)"/></g><g transform="translate(-21.549 -21.273)"><mask id="j" fill="#fff"><use xlink:href="#i"/></mask><path d="M138.582 45.74c0 3.28-2.123 5.726-5.49 5.726-3.301 0-5.361-2.422-5.361-5.425 0-3.56 2.273-5.877 5.554-5.877 3.26 0 5.297 2.36 5.297 5.576m-8.814.236c0 2.423 1.01 4.655 3.282 4.655 2.187 0 3.494-2.103 3.494-4.976 0-2.316-.9-4.653-3.323-4.653-2.317 0-3.453 2.421-3.453 4.974" fill="#FFF" fill-rule="nonzero" mask="url(#j)"/></g><g transform="translate(-21.549 -21.273)"><mask id="l" fill="#fff"><use xlink:href="#k"/></mask><path d="M146.173 35.254c0 .214.045.643.065 1.008-.686-.26-1.051-.322-1.33-.322-1.222 0-1.865.645-1.865 1.909 0 .493.043 1.437.193 2.595.621 0 1.652-.087 2.358-.173a9.19 9.19 0 00-.043.687c0 .193.023.451.043.622-.728-.106-1.5-.171-1.76-.171h-.64v3.388c0 1.672.02 4.804.19 6.435a7.35 7.35 0 00-.985-.065c-.365 0-.793.02-1.115.065.172-1.63.193-4.763.193-6.435V41.41h-.364c-.194 0-.493.02-1.138.171.044-.214.065-.536.065-.643a4.71 4.71 0 00-.065-.666c.472.151.795.173 1.138.173h.364c0-3.475 2.38-6.22 4.16-6.22.278 0 .45.021.6.066-.02.298-.064.792-.064.964" fill="#FFF" mask="url(#l)"/></g><g transform="translate(-21.549 -21.273)"><mask id="n" fill="#fff"><use xlink:href="#m"/></mask><path d="M156.445 35.703c.58 0 2.144-.063 2.96-.063 2.746 0 4.503 1.202 4.503 3.538 0 2.102-1.544 3.925-4.61 4.246 3.988 5.104 4.825 6.113 6.326 7.807a17.584 17.584 0 00-1.5-.065c-.473 0-.988.02-1.417.065-1.523-2.232-4.095-5.512-5.832-7.572h-.773c0 2.573.02 5.212.172 7.572a9.897 9.897 0 00-2.273 0c.129-2.36.171-5.62.171-8.322 0-2.422-.021-6.09-.17-7.27.62.043 1.93.064 2.443.064zm-.343 6.82h.709c2.037 0 4.781-.514 4.781-3.108 0-1.609-1.243-2.573-3.733-2.573-.73 0-1.456.02-1.757.063v5.618z" fill="#FFF" fill-rule="nonzero" mask="url(#n)"/></g><g transform="translate(-21.549 -21.273)"><mask id="p" fill="#fff"><use xlink:href="#o"/></mask><path d="M168.391 40.443c.234 0 .686-.044 1.007-.065-.172 1.631-.193 4.527-.193 5.427 0 3.281.988 4.438 2.66 4.438 2.617 0 2.788-2.68 2.788-4.717 0-.385-.022-3.517-.193-5.148.364.02.835.065 1.095.065.235 0 .684-.044 1.005-.065-.171 1.61-.192 4.312-.192 5.427 0 .9.02 3.795.192 5.426a7.446 7.446 0 00-.987-.065c-.364 0-.792.021-1.113.065a21.24 21.24 0 00.106-1.673c-.708 1.285-2.078 1.908-3.43 1.908-2.081 0-3.71-1.328-3.71-3.518 0-.535.063-1.456.063-2.143 0-.9-.02-3.796-.192-5.427.365.02.834.065 1.094.065" fill="#FFF" mask="url(#p)"/></g><g transform="translate(-21.549 -21.273)"><mask id="r" fill="#fff"><use xlink:href="#q"/></mask><path d="M184.667 42.458c-.664-1.178-1.439-1.456-2.21-1.456-1.029 0-1.823.684-1.823 1.757 0 1.33 1.115 1.866 2.338 2.167 1.866.472 2.937 1.05 2.937 2.917 0 2.06-1.992 3.623-4.138 3.623-1.094 0-2.058-.3-2.83-.88a12.22 12.22 0 00.685-1.565c.816 1.332 1.653 1.61 2.553 1.61 1.244 0 2.229-.729 2.229-1.974 0-1.415-1.18-1.78-2.53-2.144-1.673-.451-2.745-1.288-2.745-3.024 0-2.015 1.48-3.324 3.645-3.324 1.14 0 1.802.257 2.532.728a15.023 15.023 0 00-.643 1.565" fill="#FFF" mask="url(#r)"/></g><g transform="translate(-21.549 -21.273)"><mask id="t" fill="#fff"><use xlink:href="#s"/></mask><path d="M193.48 42.458c-.665-1.178-1.437-1.456-2.209-1.456-1.029 0-1.823.684-1.823 1.757 0 1.33 1.117 1.866 2.34 2.167 1.864.472 2.936 1.05 2.936 2.917 0 2.06-1.994 3.623-4.139 3.623-1.093 0-2.058-.3-2.83-.88.236-.427.535-1.135.685-1.565.816 1.332 1.653 1.61 2.553 1.61 1.245 0 2.23-.729 2.23-1.974 0-1.415-1.18-1.78-2.53-2.144-1.674-.451-2.746-1.288-2.746-3.024 0-2.015 1.48-3.324 3.646-3.324 1.136 0 1.801.257 2.53.728a15.297 15.297 0 00-.644 1.565" fill="#FFF" mask="url(#t)"/></g><g transform="translate(-21.549 -21.273)"><mask id="v" fill="#fff"><use xlink:href="#u"/></mask><path d="M199.893 36.39c0 .686-.43 1.179-1.16 1.179-.729 0-1.157-.493-1.157-1.178 0-.645.472-1.137 1.158-1.137.729 0 1.159.363 1.159 1.137m-1.16 4.052c.236 0 .687-.044 1.01-.065-.171 1.61-.194 4.312-.194 5.427 0 .9.023 3.795.194 5.426a7.487 7.487 0 00-.987-.065c-.364 0-.795.021-1.116.065.172-1.63.193-4.526.193-5.426 0-1.094-.02-3.817-.193-5.427.364.02.836.065 1.094.065" fill="#FFF" fill-rule="nonzero" mask="url(#v)"/></g><g transform="translate(-21.549 -21.273)"><mask id="x" fill="#fff"><use xlink:href="#w"/></mask><path d="M203.58 41.474c1.223-.944 2.38-1.31 3.67-1.31 2.251 0 3.815 1.137 3.815 3.947v5.168c0 1.221.236 1.352.687 1.352.15 0 .322-.023.45-.045l.129.538c-.838.299-1.31.341-1.546.341-.706 0-1.156-.32-1.328-.942l-.129-.472c-1.157.921-2.422 1.414-3.475 1.414-1.95 0-3.217-1.029-3.217-2.83 0-1.93 1.31-2.83 3.004-3.132l2.594-.47c.73-.129 1.116-.344 1.116-.88 0-2.338-.987-3.152-2.616-3.152-1.265 0-2.316.472-2.895 1.716h-.258v-1.243zm5.77 4.224l-1.415.214c-1.545.236-3.26.772-3.26 2.401 0 1.245.687 1.91 2.08 1.91.857 0 1.715-.3 2.594-1.223v-3.302z" fill="#FFF" fill-rule="nonzero" mask="url(#x)"/></g><g transform="translate(-21.549 -21.273)"><mask id="z" fill="#fff"><use xlink:href="#y"/></mask><path d="M43.422 21.713c-11.989 0-21.71 9.722-21.71 21.712s9.721 21.712 21.71 21.712c11.995 0 21.716-9.721 21.716-21.712 0-11.99-9.721-21.712-21.716-21.712m0 41.747c-11.065 0-20.032-8.97-20.032-20.035 0-11.066 8.967-20.035 20.032-20.035 11.067 0 20.038 8.969 20.038 20.035 0 11.065-8.97 20.035-20.038 20.035" fill="#FFF" fill-rule="nonzero" mask="url(#z)"/></g><g transform="translate(-21.549 -21.273)"><mask id="B" fill="#fff"><use xlink:href="#A"/></mask><path d="M37.225 29.583c0 .05.046.09.102.09.054 0 .1-.04.1-.09 0-.05-.046-.092-.1-.092-.056 0-.102.042-.102.092" fill="#FFF" mask="url(#B)"/></g><g transform="translate(-21.549 -21.273)"><mask id="D" fill="#fff"><use xlink:href="#C"/></mask><path d="M49.527 29.672c.054 0 .098-.04.098-.089 0-.05-.044-.092-.098-.092-.058 0-.102.042-.102.092 0 .05.044.09.102.09" fill="#FFF" mask="url(#D)"/></g><g transform="translate(-21.549 -21.273)"><mask id="F" fill="#fff"><use xlink:href="#E"/></mask><path d="M60.496 49.963c-.034-.678.018-1.651.01-2.405-.008-.663-.207-1.494-.393-1.796a.824.824 0 00.493.165c-.09-.186-.337-.935-.247-2.098.13-1.614-.19-2.214-.238-2.35.146.052.257.07.417.086a64.18 64.18 0 01-.153-.77c-.168-.838-.421-2.705-.876-3.273 0 0 .094.01.161.006-.024-.36-.329-1.686-.867-2.51-.178-.271-.559-.728-.902-.886.02-.04.042-.071.056-.107.077-.21.014-.353-.204-.419-.115-.034-.243-.036-.357-.074-.34-.112-.686-.221-1.017-.36-.59-.248-1.163-.54-1.811-.617-.856-.1-1.694-.056-2.42.482-.991.74-1.478 1.99-.898 3.4.02.05.036.1.062.143.198.335.116.625-.143.884-.465.465-1.014.782-1.678.857-.407.048-.754-.133-1.031-.42-.627-.65-1.075-1.412-1.213-2.312-.084-.545-.128-.914-.098-1.465.022-.372.124-.8.202-.889 0 0 .141.245.315.331-.214-.696.006-1.081.006-1.081s.08.225.235.383c-.068-.569.3-1.07 1.004-1.253.191-.05.532-.092.726-.147 1.3-.376 1.502-.048 1.502-.048-.048-.154-.26-.445-.441-.517.46.16 1.127.585 2.11.425.816-.13.998-1.031.395-1.39 0 0 .301.506-.143.857-.234.184-.782.116-.97.07-.37-.088-.95-.439-.95-.439.5-.233.998-.046 1.453.192.08-.383-.178-.912-.543-1.123-.397-.228-.718-.293-1.414-.371 0 0-.437-.461-1.223-.615-.261-.052-.742-.04-1.159.038-.66.126-.95.265-1.57.423-.476.12-1.637.387-2.541-.213-.004-.004.331.76 1.197.977-.242.072-.69.008-1.028-.165.152.215.441.532.892.678-.13.133-.572.161-.818.028.268.32.467.444.758.502-.87.97-1.426 2.21-1.72 4.489-.342-2.29-.847-3.52-1.717-4.489.292-.058.491-.181.758-.502-.245.133-.688.105-.82-.028.451-.146.74-.463.896-.678-.339.173-.79.237-1.027.165a1.858 1.858 0 001.193-.977c-.9.6-2.063.333-2.54.213-.618-.158-.91-.297-1.57-.423-.416-.078-.897-.09-1.16-.038-.784.154-1.221.615-1.221.615-.698.078-1.02.143-1.415.37-.365.212-.622.74-.544 1.124.457-.238.955-.425 1.452-.192 0 0-.577.351-.948.439-.187.046-.734.114-.969-.07-.447-.351-.143-.857-.143-.857-.605.359-.424 1.26.392 1.39.986.16 1.652-.265 2.115-.425-.186.072-.395.363-.447.517 0 0 .204-.328 1.504.048.194.055.537.097.726.147.704.184 1.072.684 1.004 1.253.155-.158.237-.383.237-.383s.217.385.006 1.081c.174-.086.313-.331.313-.331.08.09.183.517.204.89.03.55-.014.92-.096 1.464-.14.9-.588 1.661-1.217 2.312-.275.287-.622.468-1.031.42-.66-.075-1.211-.392-1.676-.857-.261-.26-.34-.549-.144-.884.026-.044.042-.094.063-.143.58-1.41.095-2.66-.898-3.4-.726-.538-1.564-.582-2.422-.482-.646.078-1.22.369-1.811.616-.331.14-.674.25-1.015.36-.116.039-.242.041-.358.075-.217.066-.28.21-.203.419.014.036.038.068.056.107-.345.158-.722.615-.902.886-.54.824-.846 2.15-.87 2.51.07.004.162-.006.162-.006-.453.568-.706 2.435-.874 3.273-.052.25-.1.497-.153.77.16-.016.27-.034.419-.085-.048.135-.37.735-.244 2.35.094 1.162-.154 1.91-.245 2.097.16 0 .369-.057.494-.165-.187.302-.384 1.133-.392 1.796-.008.754.046 1.727.008 2.405-.054 1.03-.411 1.243-.643 1.409.285.073.656.024.918-.174.195-.145.307-.151.564-.157.43-.008.772-.208 1.088-.487a.802.802 0 01.434-.186c.465-.04.673-.219.988-.546a.48.48 0 01.217-.102c1.746-.405 1.752-2.228 1.784-2.784.257-.034.568-.327.71-.547.022-.04.074-.094.137-.074.71.22 1.18-.975 1.333-1.39.127-.357.227-.772.267-1.151.026.32.609.88 1.135-.006 0 1.292 1 1.065 1.243.211.26 1.564 1.368.824 1.36-.347.008 1.781 1.092 1.524 1.042.985.061.258.347.569.347.569-2.553.46-1.824 1.789-2.945 2.455.392.136.742-.083.675.02a2.8 2.8 0 00-.457 1.207s-1.32 1.289-1.845 1.77c-.2.183-.42.346-.639.511a1.516 1.516 0 01-.239.145c-.016-.069-.022-.13-.03-.164-.1-.425-.215-.846-.483-1.205-.363-.489-.898-.612-1.412-.287-.206.13-.399.173-.63.173-.407.002-.754.38-.744.782.307-.207.66-.104.8.06-.649.128-.99.718-.802 1.089a.5.5 0 01.191-.201c.274-.152.519-.062.579.09.135.337.416.436.734.474.566.066 1.119.102 1.7.176.8.104.775.644.929 1.019a.685.685 0 001.003.313c.07.217.006.461-.235.51.197.07.57-.059.696-.32.225-.473.128-.85-.271-1.191l-.102-.084a4.12 4.12 0 01-.377-.323c-.173-.167-.205-.367-.08-.57.12-.186.258-.37.423-.507.479-.407.975-.794 1.47-1.18a3.69 3.69 0 01.483-.312.631.631 0 01.499-.054c.385.137.606-.036.698-.108.056-.042.586-.568 2.18-.788-.223.142-.321.364-.415.589-.08.194-.153.387-.235.58-.898 2.115-1.784 4.195-2.677 6.312-.293.698-.032 1.313.692 1.65.529.245 1.127.115 1.478-.395-.104.349-.15.652-.008.94.142.294.371.502.662.63.292.125.637.171.95.108.321-.066.532-.276.692-.587.03.692.459 1.101 1.053 1.18v.013c.046.004.094.006.142.006l.044-.002.046.002c.048 0 .095-.002.141-.006v-.012c.595-.08 1.024-.49 1.052-1.18.161.31.373.52.692.586.315.063.658.017.947-.108.294-.128.523-.336.667-.63.141-.288.093-.591-.01-.94.355.51.951.64 1.48.395.724-.337.985-.952.692-1.65-.896-2.116-1.781-4.197-2.677-6.311a28.35 28.35 0 01-.237-.581c-.092-.225-.19-.447-.415-.589 1.594.22 2.124.747 2.18.788.094.072.315.245.698.108a.631.631 0 01.499.054c.167.094.333.193.482.311.497.387.994.774 1.473 1.181.165.138.303.322.42.506.13.204.096.404-.077.571-.1.1-.212.19-.32.278a.539.539 0 00-.057.045l-.104.084c-.397.34-.497.718-.271 1.19.123.262.5.392.694.32-.237-.048-.301-.292-.234-.509a.69.69 0 001.006-.313c.154-.375.128-.915.925-1.019.585-.074 1.14-.11 1.704-.176.315-.038.6-.137.734-.475.062-.15.303-.24.579-.09a.482.482 0 01.189.202c.19-.371-.154-.961-.8-1.089.142-.164.493-.267.798-.06.01-.401-.337-.78-.742-.782-.231 0-.425-.044-.628-.173-.519-.325-1.052-.202-1.417.287-.265.36-.38.78-.484 1.205-.006.034-.01.096-.026.164a1.404 1.404 0 01-.24-.145c-.217-.165-.438-.328-.64-.512-.525-.48-1.845-1.769-1.845-1.769a2.797 2.797 0 00-.455-1.207c-.068-.103.283.116.674-.02-1.123-.666-.39-1.995-2.948-2.455 0 0 .287-.312.353-.569-.056.539 1.03.796 1.041-.985-.012 1.171 1.097 1.911 1.357.347.245.854 1.245 1.08 1.243-.211.528.885 1.109.327 1.137.006.04.379.137.794.267 1.151.152.415.622 1.61 1.332 1.39.064-.02.114.034.14.074.142.22.453.513.706.547.034.556.038 2.38 1.784 2.784a.488.488 0 01.219.102c.315.327.522.507.985.546a.798.798 0 01.435.186c.318.28.659.478 1.092.487.253.006.366.012.56.157.261.198.632.248.918.174-.228-.166-.589-.38-.643-1.409zm-23.808-2.44s.118-.061.202-.215c.086-.156.19-.052.201.05.013.104-.157.205-.403.166zm-1.226 2.6c-.182.341-.31.724-.36 1.057-.055.363-.333.355-.488.3-.321-.11-.636-.104-.636-.104.88-.293 1.484-1.253 1.484-1.253zm-1.86.696c.017.074.063.323.059.473a4.615 4.615 0 00-.244-.501c-.006-.01-.006-.028.002-.048a.216.216 0 01.074-.095c.018-.016.034-.024.054-.034l.056.205zm-.552.062c.058-.097.14-.142.178-.131.13.177.227.37.265.564a9.79 9.79 0 00-.487-.257.267.267 0 01.044-.176zm-.146-.08a.505.505 0 00-.063.178c-.094-.044-.192-.086-.288-.128a.177.177 0 01-.018-.078.399.399 0 01.068-.213.477.477 0 01.17-.16c.042-.02.081-.026.111-.014a1.959 1.959 0 01.174.162c.02.02.038.042.056.062a.437.437 0 00-.21.191zm.44-.578c.01-.005.019-.005.03-.005.047.09.093.182.129.274a.34.34 0 00-.092.056.306.306 0 00-.086.1 1.976 1.976 0 00-.175-.216c0-.01 0-.022.004-.036a.233.233 0 01.071-.111.237.237 0 01.118-.062zm-.318-.362c.024-.011.046-.015.06-.01.076.072.146.152.204.238a.442.442 0 00-.16.094.386.386 0 00-.096.135 1.895 1.895 0 00-.172-.13c-.01-.013-.013-.033-.011-.061a.316.316 0 01.175-.266zm-.57-.129c.044-.085.105-.131.15-.14a.73.73 0 01.274.098c.015.008.028.02.042.028a.517.517 0 00-.243.357 2.427 2.427 0 00-.243-.132.096.096 0 01-.019-.05.32.32 0 01.039-.161zm.07.419a.153.153 0 01.032.014s.003.002.003.004c.046.024.092.05.136.08a.018.018 0 01.004.008.629.629 0 00-.241.222.561.561 0 00-.09.299 4.371 4.371 0 00-.27-.094.186.186 0 01-.021-.13.473.473 0 01.115-.241.488.488 0 01.218-.156.195.195 0 01.113-.006zm-.46.053a.652.652 0 00-.153.328.372.372 0 00-.004.093 3.357 3.357 0 00-.433-.09c.046-.38.355-.514.599-.508a.968.968 0 01.177.022.725.725 0 00-.186.155zm.274-.612a.482.482 0 00-.096.281 1.018 1.018 0 00-.401-.033c.092-.13.286-.222.497-.248zm-1.632.776c.068-.273.393-.562 1.057-.406-.353.091-.394.364-.42.5-.084-.106-.395-.211-.637-.094zm.46.946a.517.517 0 00-.522.112c.012-.334.39-.637.742-.61-.193.079-.255.342-.22.498zm.165.096c-.084-.222.045-.639.418-.607.034.004.08.014.132.028-.137.115-.23.331-.23.584 0 .176.043.332.114.447-.22-.065-.349-.225-.434-.452zm.71.498c-.126-.057-.224-.26-.224-.492 0-.275.138-.51.3-.51l.259.099c-.116.11-.192.303-.192.528 0 .156.038.296.096.405l-.24-.03zm.798.096l-.317-.038c-.09-.058-.17-.22-.17-.433 0-.247.105-.425.207-.45.126.05.248.103.357.151a.652.652 0 00-.15.443c0 .123.027.235.073.327zm.542.062a12.38 12.38 0 01-.32-.038c-.069-.012-.125-.184-.125-.351 0-.198.072-.37.154-.37.104.045.183.079.232.095.037.016.135.04.169.052-.12.063-.176.197-.176.335 0 .103.026.2.066.277zm.429.093a.317.317 0 01-.024-.634 1.556 1.556 0 011.07.256c-.497-.034-.755.227-.823.287a.323.323 0 01-.223.091zm.519.172a.53.53 0 00-.25-.122c.182-.215.276-.279.511-.325-.299.136-.261.447-.261.447zm.131-.028a.37.37 0 01.37-.369.37.37 0 01.366.37.367.367 0 01-.736 0zm.892.028c.034.032.07.066.108.098.135.111.285.21.397.342.28.338.261.7.17.913-.103.243-.278.303-.278.303s.174-.208-.022-.586a.564.564 0 01-.429.199.573.573 0 01-.553-.427 26.545 26.545 0 00-.087-.303c-.01-.036-.018-.07-.03-.104a.522.522 0 00.45-.022.544.544 0 00.274-.413zm.429-1.584a1.03 1.03 0 01-.241.35 2.026 2.026 0 00-.344.4s.088-1.242.89-1.978c0 0-.175.331-.231.816-.02.15-.032.313-.074.412zm.742-.901a.79.79 0 01-.06.351c-.068.152-.247.315-.247.315l-.355.335s.085-.132.115-.498c.028-.376.232-.912.593-1.303 0 0-.11.177-.046.8zm.656-.328a.584.584 0 01-.175.346c-.208.17-.405.347-.405.347s.113-.17.066-.477c-.078-.507.051-1.287.46-1.92 0 0-.203.555.002 1.253.036.122.066.324.052.451zm15.011 3.352c-.012.046-.08.275-.088.303a.571.571 0 01-.983.228c-.194.378-.02.586-.02.586s-.174-.06-.28-.303c-.09-.213-.107-.575.172-.912.112-.133.261-.232.395-.343.04-.032.076-.066.11-.097.02.171.115.327.271.413a.528.528 0 00.45.022c-.01.033-.02.067-.027.103zm-.176-.2a.369.369 0 010-.736.367.367 0 110 .736zm.503-.339s.04-.311-.26-.447c.236.046.328.11.51.325 0 0-.154.028-.25.122zm1.27-.303c-.11.014-.219.028-.322.038a.587.587 0 00.066-.277c0-.138-.056-.272-.174-.335.034-.012.132-.036.17-.052a3.48 3.48 0 00.227-.094c.085 0 .157.172.157.369 0 .167-.055.34-.123.351zm.013-1.147c.04.07.05.136.044.176a9.366 9.366 0 00-.487.257c.038-.194.136-.387.263-.564.038-.01.122.033.18.131zm-.066-.271l.058-.062.02-.022c.048-.05.1-.098.153-.14.028-.011.07-.006.114.015a.45.45 0 01.165.16c.046.07.07.147.068.213a.152.152 0 01-.018.078c-.095.042-.191.083-.287.127a.467.467 0 00-.062-.177.455.455 0 00-.211-.192zm.594 1.356c-.103.012-.21.024-.319.038a.762.762 0 00.072-.327.652.652 0 00-.152-.442c.112-.048.234-.102.357-.152.104.026.21.203.21.45 0 .214-.078.375-.168.433zm.477-.058l-.24.03a.848.848 0 00.098-.405c0-.225-.075-.418-.189-.528.09-.036.176-.068.255-.098.164 0 .3.234.3.509 0 .233-.098.435-.224.492zm-.022-1.704a.708.708 0 00-.186-.155.92.92 0 01.176-.022c.244-.006.553.128.6.509-.139.018-.285.05-.434.09a.358.358 0 00-.004-.094.652.652 0 00-.152-.328zm.732 1.206c-.084.227-.215.387-.433.453a.87.87 0 00.114-.447c0-.254-.092-.47-.23-.585a.89.89 0 01.13-.027c.373-.033.503.384.42.606zm.689.016a.515.515 0 00-.521-.112c.032-.156-.03-.42-.224-.499.355-.026.733.277.745.61zm-.06-1.058c-.244-.117-.557-.012-.639.094-.026-.135-.067-.409-.42-.5.666-.156.987.133 1.059.406zm-1.137-.528a1.019 1.019 0 00-.402.033.498.498 0 00-.093-.281c.207.026.4.118.495.248zm-.352.472a.47.47 0 01.114.242c.006.033.008.09-.022.13-.09.028-.177.06-.267.093a.55.55 0 00-.092-.299.592.592 0 00-.241-.222c.002-.002.002-.006.004-.007.046-.03.092-.057.138-.08.001-.003.001-.004.003-.004a.19.19 0 01.03-.014.202.202 0 01.116.006c.076.023.154.08.217.155zm-.686-.622a.73.73 0 01.275-.098c.045.009.106.055.15.14a.296.296 0 01.036.162.116.116 0 01-.014.05 2.22 2.22 0 00-.245.131.512.512 0 00-.243-.357c.013-.008.027-.02.041-.028zm-.207.162c.016-.006.038-.002.062.01.044.018.087.06.121.109a.327.327 0 01.056.156.103.103 0 01-.016.062c-.06.04-.117.083-.167.13a.395.395 0 00-.1-.136.418.418 0 00-.158-.094c.058-.086.124-.165.202-.237zm-.284.366c.008 0 .019 0 .028.005a.22.22 0 01.116.061.233.233 0 01.072.112.082.082 0 01.006.036c-.064.068-.122.14-.174.216a.377.377 0 00-.09-.1.362.362 0 00-.09-.056c.039-.092.08-.184.132-.274zm-.229.6c.014-.067.032-.134.056-.205.016.01.034.019.052.035a.218.218 0 01.074.095c.008.02.008.038.002.048a5.001 5.001 0 00-.246.5 2.368 2.368 0 01.062-.472zm-.188.707c.02 0 .038.004.057.01a.317.317 0 01-.08.624.33.33 0 01-.226-.091c-.065-.06-.323-.321-.821-.288a1.559 1.559 0 011.07-.255zm-.187-.15s-.319-.005-.636.106c-.158.054-.437.062-.493-.3a3.265 3.265 0 00-.359-1.058s.605.96 1.488 1.253zm-1.225.122a2.023 2.023 0 00-.339-.4 1.037 1.037 0 01-.243-.35c-.044-.1-.056-.262-.074-.413a2.585 2.585 0 00-.231-.816c.8.737.887 1.98.887 1.98zm-.778-1.149c.032.367.118.499.118.499l-.357-.335s-.18-.164-.248-.315a.765.765 0 01-.057-.351c.065-.623-.048-.8-.048-.8.361.391.563.927.592 1.302zm-.913-3.04c.09.154.203.216.203.216-.25.04-.413-.062-.403-.166.012-.102.114-.205.2-.05zm-.24 1.76c.208-.698.002-1.253.002-1.253.413.632.539 1.412.461 1.919-.048.307.068.477.068.477s-.202-.177-.405-.347a.586.586 0 01-.176-.345c-.013-.128.016-.33.05-.451zm10.49-5.8c-.047.898-.093 1.629.159 2.299 0 0-1.23-.684-1.387-3.261-.022-.364.032-1.297.33-1.317.113-.008.17.113.177.41l.135 1.854c.007.08.037.123.088.122v-.002c.052-.002.068-.056.072-.118l-.026-1.462c.002-.287.072-.337.172-.28.251.15.303 1.33.28 1.756zm-8.162-2.98l-.103-.444c-.052-.198-.008-.251.081-.237.228.03.433.435.483.578.138.401.046.896-.147 1.169-.314-.068-.673-.38-.812-.782-.05-.144-.14-.593.012-.778.06-.072.125-.066.205.122l.193.408c.019.038.036.097.076.08.044-.017.02-.073.012-.115zm.505-.382c-.072-.17-.223-.714-.062-.952.066-.094.144-.09.26.132l.343.656c.027.044.053.114.101.09.048-.024.016-.09 0-.142l-.243-.706c-.082-.235-.034-.305.072-.297.275.022.558.499.632.67.206.48.148 1.105-.056 1.456-.377-.06-.841-.425-1.047-.907zm1.692-.794l-.778-2.193c-.08-.255-.044-.312.046-.285.23.076.67 1.077.803 1.43.302.8.477 1.93.324 2.24-.318-.133-.91-1.079-1.22-1.902-.117-.313-.45-1.363-.326-1.57.05-.082.115-.062.223.183l.844 2.129c.026.048.05.125.088.11.04-.015.01-.088-.004-.142zm1.135-.686l-.978-1.985c-.106-.236-.07-.3.028-.285.247.035.704.784.874 1.11.383.739.738 2.023.604 2.35-.347-.08-1.119-1.117-1.514-1.876-.15-.292-.528-1.12-.417-1.343.044-.088.116-.08.25.146l1.07 1.925c.03.047.063.117.102.095.04-.02.004-.086-.02-.137zm1.149-.733l-1.016-1.845c-.114-.233-.073-.303.034-.303.28.006.758.672.942.991.42.719.73 1.856.644 2.343v.001c-.489-.143-1.249-.989-1.68-1.729-.163-.281-.55-1.067-.418-1.317.051-.095.131-.095.275.12l1.123 1.793c.034.046.058.094.104.066.045-.026.014-.07-.008-.12zm1.11-.807l-.903-1.782c-.11-.245-.066-.315.048-.309.29.018.772.738.951 1.073.403.758.607 1.79.497 2.288-.5-.17-1.185-.921-1.6-1.703-.155-.297-.505-1.093-.359-1.343.058-.098.144-.095.283.134l.982 1.697c.032.046.058.096.106.07.048-.026.015-.071-.004-.125zm.55 3.31l-.342-1.34c-.048-.211.018-.277.132-.257.285.05.568.706.658 1.014.2.692.212 1.789-.068 2.078-.389-.096-.991-1-1.197-1.713-.08-.272-.151-.872.064-1.068.082-.076.168-.063.247.148l.39 1.171c.022.044.033.11.091.092.054-.014.03-.078.024-.126zm-4.343.733c.073-.068.147-.058.22.124l.344.997c.02.038.032.094.08.078.05-.012.03-.068.026-.108l-.275-1.091c-.04-.187.017-.235.115-.22.254.039.527.69.603.954.173.59.18 1.53-.068 1.784-.345-.078-.874-.846-1.051-1.452-.07-.234-.186-.896.006-1.066zm1.144.337c-.087-.233-.175-.728.003-.913.07-.07.145-.066.23.113l.422 1.037c.02.037.038.092.086.074.046-.018.024-.07.016-.11l-.367-1.125c-.052-.189.002-.24.101-.23.256.023.509.488.605.75.217.588.29 1.543.062 1.815-.35-.058-.936-.804-1.158-1.41zm1.126-.652c-.092-.253-.162-.704.03-.906.073-.078.153-.072.247.124l.437 1.075c.022.042.04.102.092.082.05-.018.028-.078.016-.12l-.375-1.19c-.058-.208 0-.266.105-.254.278.028.523.469.629.754.235.644.32 1.686.078 1.981-.378-.064-1.014-.882-1.26-1.546zm.38 1.935c.08-.078.156-.052.23.213l.351 1.37c.018.055.032.135.084.122.05-.01.03-.088.024-.146l-.242-1.394c-.04-.27.02-.327.124-.289.266.102.543 1.061.625 1.44.183.856.131 1.969-.128 2.274-.363-.174-.86-1.14-1.05-2.023-.071-.334-.217-1.368-.017-1.567zm1.281 1.143c-.061-.343-.181-1.393.022-1.59.078-.076.156-.044.222.223l.311 1.4c.016.057.028.138.078.128.052-.007.034-.087.027-.146l-.2-1.422c-.035-.275.027-.329.127-.285.261.112.508 1.091.58 1.478.16.874.08 1.997-.183 2.296-.351-.185-.82-1.185-.984-2.082zm2.147-4.48c.131.801.245 1.495.413 2.06 0 0-1.193-.305-1.592-2.038-.072-.314-.154-1.072.072-1.27.085-.077.181-.001.227.26l.29 1.225c.013.07.055.104.107.09.056-.012.066-.062.06-.116l-.256-1.532c-.037-.253.03-.31.14-.275.287.086.479 1.22.539 1.596zm-1.973-4.91c.251.004.84.904.991 1.21.248.49.403 1.027.549 1.733 0 0-.898-.198-1.574-1.353-.15-.261-.688-1.242-.569-1.472.046-.09.12-.092.252.11l1.025 1.58c.028.042.052.086.09.06.044-.024.014-.066-.006-.112l-.79-1.479c-.104-.213-.068-.279.032-.277zm-9.334 4.233c-.042-.155.02-.223.178-.195.092.016.18.056.27.07.155.024.314.062.464.041.708-.097 1.298-.43 1.791-.937.291-.3.383-.63.162-1.013-.028-.05-.048-.106-.072-.16-.461-1.125-.231-2.238.612-3.024.6-.557 1.327-.682 2.109-.668.68.014 1.292.251 1.905.52.483.214.96.447 1.492.523.104.016.271.028.27.17 0 .167-.23.209-.443.209a4.767 4.767 0 01-1.267-.175c.097.143.253.5.26.586.02.247-.075.393-.322.415-.24.02-.507-.164-.708-.283-.178-.106-.483-.286-.553-.368.172.232.34.463.427.733.04.125.018.255-.048.325-.067.07-.227.112-.34.09-.326-.066-.715-.403-1.02-.718.147.239.299.468.375.711.05.172.06.35-.048.467-.124.132-.311.14-.463.092-.327-.104-.858-.634-.858-.634.094.093.36.492.473.752.142.319-.098.602-.44.55a1.461 1.461 0 01-.511-.171c.042.08.383.642.478.854.086.191.154.405.166.614.024.349-.164.45-.477.29-.095-.05-.185-.107-.287-.164.026.249.07.473.064.694-.01.317-.172.427-.48.347-.153-.042-.298-.106-.454-.16.004.108.014.206.012.304-.002.333-.197.48-.516.373-.162-.056-.306-.156-.467-.238-.008.056-.02.124-.032.192-.068.395-.343.538-.702.355-.05-.026-.302-.206-.38-.26-.045.116-.273.394-.697.453.205-.509.2-1.083.077-1.562zm2.362 2.23l-.05-.482c-.026-.204.026-.252.114-.224.22.06.369.487.399.636.084.418-.074.882-.303 1.128-.3-.112-.613-.453-.699-.87-.03-.15-.06-.606.116-.772.07-.062.132-.046.188.15l.145.456c.014.042.022.102.066.09.042-.01.028-.07.024-.111zm-3.323-2.74l.193.612c.018.056.036.14.08.122.046-.014.026-.096.016-.156l-.157-.814c-.084-.38-.042-.419.025-.43.258-.049.537 1.019.585 1.224.138.575.1 1.247-.124 1.584-.339-.151-.744-.708-.882-1.285-.051-.205-.133-.838.042-1.063.068-.088.142-.066.222.206zm-.373-1.472c.112.42.024.947-.168 1.19a1.224 1.224 0 01-.706-.824c-.04-.149-.052-.494.114-.612.068-.048.12-.044.185.154l.126.38c.016.043.03.103.068.092.04-.01.022-.07.014-.113l-.14-.692c-.042-.206.002-.252.084-.226.21.066.383.501.423.65zm-7.115 2.904c.05.012.061-.07.075-.124l.204-.9c.058-.267.135-.293.219-.21.211.207.192.825.16 1.027-.088.568-.467 1.134-.82 1.302-.275-.313-.459-1.01-.375-1.578.034-.2.251-.995.512-1.095.1-.038.164.02.14.295l-.15 1.133c-.003.058-.02.138.035.15zm.061-6.202l-.133-.612c-.044-.198.003-.236.08-.216.21.054.367.517.398.667.066.323.082.652-.107.973-.206-.078-.505-.231-.649-.644-.05-.144-.125-.497.034-.607.066-.046.116-.042.186.148l.11.311c.017.04.031.098.07.088.037-.01.017-.068.011-.108zm.942-.395l-.15-.626c-.05-.202-.008-.25.072-.228.21.06.399.485.445.633.131.419.068.945-.108 1.197-.285-.106-.638-.507-.768-.922-.048-.15-.132-.607.006-.776.054-.062.114-.048.192.148l.231.598c.016.04.032.102.07.09.038-.012.018-.072.01-.114zm.574 2.208l-.091-.74c-.03-.237.025-.287.115-.251.238.096.399.608.433.784.098.496-.048 1.095-.285 1.358-.32-.155-.674-.66-.77-1.155-.034-.175-.072-.714.112-.887.071-.068.141-.042.2.19l.19.72c.014.047.024.119.07.109.048-.008.03-.076.026-.128zm3.385.128c.047.01.058-.062.072-.11l.188-.72c.063-.231.13-.257.201-.19.182.174.146.713.112.888-.094.495-.45 1-.77 1.155-.238-.263-.381-.862-.285-1.358.036-.176.2-.688.433-.784.091-.036.143.014.115.251l-.09.74c-.005.052-.02.12.024.128zm.559-2.222c.038.012.056-.05.072-.09l.233-.598c.074-.196.136-.21.19-.148.137.17.052.627.005.776-.13.415-.482.816-.767.922-.178-.252-.238-.778-.11-1.197.046-.148.237-.573.447-.633.081-.021.121.026.072.228l-.15.626c-.008.042-.03.102.008.114zm.944.389c.038.01.055-.048.07-.088l.11-.311c.07-.19.12-.194.187-.148.157.11.083.463.035.607-.145.413-.444.566-.652.644-.187-.321-.173-.65-.106-.973.028-.15.188-.613.4-.667.077-.02.123.018.079.216l-.134.612c-.01.04-.025.098.01.108zm-1.409 6.38l-.062-1.198c-.012-.29.062-.351.176-.307.291.114.445.742.47.955.068.605-.183 1.335-.516 1.658-.39-.191-.792-.804-.86-1.408-.024-.216-.012-.872.242-1.085.097-.082.183-.052.237.235l.187 1.173c.012.06.018.146.079.134.057-.01.047-.096.047-.158zm-.177-2.618c-.028-.181-.046-.73.167-.906.084-.067.158-.041.216.198l.189.826c.014.047.022.121.076.114.05-.009.036-.08.032-.134l-.078-.842c-.02-.245.042-.293.144-.258.257.102.415.627.445.809.083.506-.108 1.117-.385 1.382-.35-.163-.725-.683-.806-1.189zm.855-2.134c-.014-.136.004-.547.18-.673.068-.046.126-.021.157.158l.102.56c.008.039.012.094.05.09.04-.006.032-.06.034-.097l-.01-.57c-.006-.185.048-.218.122-.185.2.086.297.487.309.623.038.385-.144.831-.377 1.021-.263-.14-.529-.544-.567-.927zm-1.013 2.3c0 .454-.263.961-.56 1.155h-.002a1.248 1.248 0 01-.559-1.02c0-.16.094-.512.317-.586.094-.028.154-.012.17.205l.022.443c.006.046.004.112.05.112h.001c.048 0 .046-.066.052-.112l.052-.762c.016-.217.08-.251.166-.202.223.122.291.605.291.766zm-.457 4.869c.01.062.012.147.078.142.064-.004.054-.088.058-.15v-1.08c0-.29.084-.342.201-.287.31.144.443.778.46.994.043.606-.264 1.304-.637 1.59-.411-.23-.812-.878-.854-1.484-.014-.216.028-.864.313-1.05.11-.07.2-.031.24.258l.141 1.067zm-.594.84c.365.177.477.875.477 1.11 0 .659-.437 1.393-.924 1.674-.485-.28-.92-1.015-.92-1.673 0-.236.108-.934.475-1.111.142-.072.25-.022.275.293l.088 1.227c.008.067.004.161.082.161.08 0 .076-.094.086-.161l.085-1.227c.028-.315.136-.365.276-.293zm-.724-1.115c-.042.606-.443 1.254-.854 1.484-.375-.286-.68-.984-.636-1.59.014-.216.147-.85.456-.994.12-.055.204-.003.204.288v1.079c.004.062-.004.146.058.15.064.005.066-.08.08-.142l.137-1.067c.042-.29.132-.327.241-.258.284.186.33.834.314 1.05zm-1.955-4.528c.05.007.06-.067.074-.114l.19-.826c.055-.24.129-.265.212-.198.214.176.198.725.17.906-.084.506-.457 1.026-.808 1.19-.277-.266-.467-.877-.387-1.383.032-.182.192-.707.45-.809.1-.035.163.013.139.258l-.076.842c-.002.054-.016.125.036.134zm-.116 1.836c.024-.213.18-.841.47-.955.11-.044.188.016.176.307l-.061 1.197c0 .062-.012.148.045.158.06.012.066-.074.082-.134l.188-1.173c.052-.287.135-.317.233-.235.257.213.267.87.241 1.085-.067.604-.466 1.217-.86 1.408-.332-.323-.58-1.053-.514-1.658zm1.478-.747c-.295-.194-.558-.7-.558-1.156 0-.161.066-.644.289-.766.086-.05.152-.015.165.202l.054.762c.004.046.002.112.05.112s.046-.066.052-.112l.026-.443c.016-.217.072-.233.166-.205.225.074.317.427.317.586 0 .457-.266.826-.56 1.02zm-2.517-3.55c.014-.135.11-.536.307-.622.078-.033.132 0 .126.186l-.01.569c0 .037-.01.091.032.097.042.004.046-.051.054-.09l.097-.56c.032-.18.09-.204.16-.158.177.126.191.537.18.673-.04.383-.304.787-.57.927-.233-.19-.414-.636-.376-1.021zm-.06 6.644c.022-.216.182-.842.485-.956.117-.042.197.018.183.31l-.034.887c.003.062-.012.147.05.157.062.012.068-.073.082-.133l.17-.866c.051-.285.141-.315.243-.232.267.216.283.872.257 1.088a1.535 1.535 0 01-.86 1.228c-.349-.323-.646-.877-.576-1.483zm1.053 1.453c.126-.06.236-.017.26.29l.07 1.033c.01.064.005.156.081.156s.072-.092.08-.156l.094-.776c.024-.309.125-.355.26-.287.348.173.384.706.384.934 0 .644-.343 1.25-.804 1.525-.465-.275-.878-.989-.878-1.631 0-.23.102-.918.453-1.088zm.956 5.429l-.295-.631c-.098-.206-.056-.271.045-.271.264-.002.519.309.605.454.233.413.269 1.031.104 1.36a1.305 1.305 0 01-1.032-.638c-.084-.147-.301-.674-.166-.897.053-.09.13-.092.256.097l.391.579c.028.038.06.097.102.071.044-.023.01-.08-.01-.124zm-.182-1.985c-.026-.174-.034-.772.208-.944.091-.066.173-.042.227.19l.168.714c.012.048.022.118.075.11.058-.01.044-.078.044-.128l-.046-.73c-.014-.24.054-.286.162-.25.281.094.447.669.47.842.075.492-.177.942-.49 1.201-.377-.157-.744-.515-.818-1.005zm1.3.933c.107-.051.186-.013.208.224l.062.73c.01.052.006.121.066.121.06 0 .058-.07.064-.121l.064-.73c.02-.237.101-.275.207-.224.275.136.361.73.361.906 0 .499-.33 1.32-.696 1.53-.367-.21-.696-1.031-.696-1.53 0-.176.084-.77.36-.906zm.699-1.129c.026-.173.191-.748.47-.841.11-.037.18.01.162.248l-.044.73c-.002.05-.016.118.042.129.058.007.064-.062.08-.11l.166-.714c.053-.232.133-.256.229-.19.237.172.232.77.203.944-.07.49-.44.848-.815 1.005-.315-.26-.565-.709-.493-1.2zm.774 1.734c.084-.146.341-.457.604-.455.1 0 .142.066.046.271l-.297.63c-.018.045-.054.103-.01.126.044.026.074-.034.102-.071l.391-.579c.125-.19.201-.187.257-.097.136.223-.084.75-.164.897-.235.41-.666.613-1.033.639-.167-.33-.132-.948.104-1.361zm.082-3.788c0-.228.035-.76.383-.934.135-.068.235-.022.263.287l.092.776c.008.064.004.156.082.156.073 0 .07-.092.077-.156l.07-1.033c.026-.307.134-.35.262-.29.35.17.45.858.45 1.088 0 .642-.413 1.356-.873 1.631-.461-.275-.806-.882-.806-1.525zm.846-2.392c-.026-.216-.012-.872.255-1.088.104-.083.193-.053.243.232l.17.866c.016.06.022.145.083.133.062-.01.05-.095.05-.157l-.035-.888c-.012-.291.065-.351.183-.31.305.115.463.74.489.957.068.606-.23 1.16-.579 1.483a1.538 1.538 0 01-.86-1.228zm1.372-1.243c-.353-.168-.732-.734-.82-1.302-.028-.202-.052-.82.164-1.028.08-.082.16-.056.215.212l.206.9c.013.053.024.135.075.123.052-.012.036-.092.034-.15l-.151-1.133c-.022-.275.042-.333.143-.295.26.1.477.896.509 1.095.088.569-.096 1.265-.375 1.578zm.483-7.704a.818.818 0 01-.385-.61c-.016-.102.01-.331.127-.393.054-.026.084-.018.112.12l.038.22c.008.029.012.069.04.067.024-.004.018-.046.018-.076l-.022-.425c-.006-.14.024-.165.078-.141.133.063.207.364.217.468.038.288-.074.628-.223.77zm.486-.754c-.313-.487-.315-.9-.315-.9s-.48.6-1.416.59c.048-.9.654-1.317.654-1.317s-.618-.056-.923-.406c.273-.067.514-.191.654-.26.05-.026.09-.06.152-.039.057.02.085.146.021.166-.038.012-.105.024-.105.024a.111.111 0 00-.086.13.11.11 0 00.132.083l.041-.01s.049-.008.088.012a.204.204 0 01.068.082c.068.126.138.242.222.339.02.028.03.05.027.096 0 .054-.053.11-.053.11l-.411.45c-.038.036-.026.062-.018.074.01.006.038.028.081-.006l.507-.367s.05-.044.114-.042a.17.17 0 01.114.04c.101.076.205.136.307.188.052.024.094.04.11.088.013.041-.01.095-.01.095l-.026.052a.107.107 0 00.051.146.107.107 0 00.146-.05l.032-.068s.02-.07.086-.09c.06-.018.096-.006.151.004.202.04.36.044.427.048-.103.02-.71.186-.822.738zm.407-1.015c-1.037-.168-1.372-1.189-1.432-1.396.403.522.93.31 1.129.197.37-.212.6-.497.846-.245.11.115.211.287.467.34.265.058.432-.011.568-.133.136-.12.274-.319.469-.201.221.137.016.57-.421.983-.502.473-1.135.533-1.626.455zm1-1.476c0-.13.115-.236.259-.236.141 0 .257.106.257.236 0 .131-.116.237-.257.237-.144 0-.26-.106-.26-.237zm1.615 1.57s-.323-.094-.901.085c-.579.178-.85.066-.85.066.395-.046.702-.192.927-.261.631-.19.824.11.824.11zm.795-.356c.4.186.999.324 1.454.11.379-.175.325-.604.325-.604.1.313-.078.694-.48.808-.737.21-1.477-.148-1.828-.323-.387-.192-.646-.07-.646-.07s.087-.098.3-.172c.276-.098.414.04.875.251zm-.824-1.517c.051.04.041.181.13.18.053-.003.051-.073.127-.103.143-.06 1.267.066 1.378.966 0 0-.363-.25-1.043-.164-.664.08-1.446.597-1.446.597s.622-.477.596-1.157c-.01-.292.168-.391.258-.32zm-6.073-.14s.769.355 2.276-.096c1.507-.45 1.943-.523 2.566-.363.724.186.93.563.822.72-.106.15-.367.072-.649-.044-.195-.077-.442-.183-.66-.197-.307-.024-.513.014-.967.363-.44.34-.934.447-1.259-.048 0 0-1.456.327-2.129-.335zm.078.67s.34.078.7-.05c.16-.07.224.004.216.066-.012.106-.52.23-.916-.016zm0 .623s.276.047.557-.078c.116-.06.203-.01.193.056-.012.095-.395.223-.75.022zm.58.296c.09-.113.396-.416.601-.372.072.016.098.067-.026.219l-.345.439c-.024.034-.064.076-.036.1.03.024.066-.02.098-.048l.323-.317c.118-.12.186-.118.224-.05.091.163-.222.53-.324.634a.99.99 0 01-.833.281c-.029-.357.125-.632.319-.886zm-1.06 1.682c.067-.14.205-.483.405-.48.083 0 .123.032.063.23l-.101.324c-.01.042-.034.098.004.112.04.016.057-.042.077-.082l.268-.584c.09-.19.15-.194.201-.132.144.167-.03.636-.082.784-.151.439-.506.872-.897 1.143-.124-.186-.124-.924.062-1.315zm-.59 2.027c.025-.118.149-.457.328-.51.072-.022.112.013.092.173l-.066.495c-.004.031-.018.08.018.088.034.005.042-.04.054-.072l.141-.477c.046-.156.1-.172.154-.124.144.126.114.487.09.605-.072.329-.341.656-.585.75-.185-.188-.299-.597-.227-.928zm-.06 1.636c.043-.178.17-.385.289-.453.35-.2.634.227.422.515-.225.309-.632.267-.792.801 0-.293.026-.65.08-.863zm-.33 3.742c.008.07.006.168.074.168.072 0 .066-.098.076-.168l.075-1.253c.024-.333.118-.385.242-.31.321.186.42.923.42 1.17 0 .694-.384 1.464-.813 1.761-.427-.297-.81-1.067-.81-1.761 0-.247.096-.984.419-1.17.124-.075.22-.023.241.31l.076 1.253zm-.086-2.879c-.157-.534-.564-.492-.79-.801-.215-.288.07-.714.423-.515.116.068.242.275.29.453.051.213.077.57.077.863zm-.506-2.341l-.066-.495c-.024-.16.018-.195.09-.174.18.054.303.393.327.511.073.331-.04.74-.224.928-.247-.094-.518-.421-.588-.75-.026-.118-.052-.48.09-.605.055-.048.108-.032.153.124l.144.477c.01.032.018.077.054.072h.002c.032-.009.022-.057.018-.088zm-.605-2.11l-.102-.324c-.061-.2-.022-.231.062-.231.202-.003.34.34.407.48.184.391.184 1.13.06 1.315-.391-.271-.744-.704-.898-1.143-.05-.148-.223-.617-.08-.784.05-.062.114-.058.2.132l.27.584c.02.04.04.098.077.082.038-.014.014-.07.004-.112zm-.375-.87a.989.989 0 01-.834-.282c-.103-.104-.415-.47-.325-.634.038-.068.106-.07.222.05l.329.317c.028.028.066.072.096.048.027-.024-.012-.066-.036-.1l-.347-.439c-.122-.152-.098-.203-.022-.22.203-.043.51.26.598.373.194.254.347.53.32.886zm.26-1.183c-.356.2-.737.073-.749-.022-.01-.066.076-.116.192-.056.285.125.556.078.556.078zm.002-.623c-.395.245-.906.122-.918.016-.006-.062.058-.136.217-.066.361.128.7.05.7.05zm-4.766-1.129c.625-.16 1.06-.088 2.567.363 1.508.451 2.274.096 2.274.096-.67.662-2.126.335-2.126.335-.325.495-.82.389-1.26.048-.456-.35-.657-.387-.966-.363-.218.014-.465.12-.659.197-.283.116-.548.194-.65.044-.11-.157.098-.534.82-.72zm.357.902c0 .131-.115.237-.257.237-.142 0-.26-.106-.26-.237 0-.13.118-.236.26-.236.142 0 .257.106.257.236zm-2.176.576c-.684-.086-1.048.164-1.048.164.112-.9 1.235-1.025 1.383-.966.072.03.072.1.126.102.085.002.077-.14.13-.18.087-.071.266.028.257.32-.026.68.594 1.157.594 1.157s-.78-.517-1.442-.597zm.295.629c-.351.175-1.091.532-1.83.323-.402-.114-.578-.495-.48-.808 0 0-.052.429.327.604.455.214 1.053.076 1.454-.11.461-.21.597-.349.874-.25a.759.759 0 01.301.17s-.261-.12-.646.07zm1.167.45c-.579-.18-.902-.085-.902-.085s.194-.3.822-.11c.226.07.533.215.93.261 0 0-.276.112-.85-.066zm.086-.634c-.437-.413-.643-.846-.417-.983.191-.118.33.081.467.2.137.123.303.192.566.135.257-.054.357-.226.469-.341.241-.252.475.033.844.245.201.114.728.325 1.13-.197-.06.207-.394 1.228-1.432 1.396-.49.078-1.125.018-1.627-.455zm2.034 1.47c-.11-.552-.718-.718-.822-.738.068-.004.224-.008.425-.048.058-.01.096-.022.154-.004.066.02.088.09.088.09l.03.068c.024.053.09.078.143.05a.108.108 0 00.054-.146l-.024-.052s-.028-.054-.014-.095c.016-.049.06-.064.11-.088a2.13 2.13 0 00.309-.188.177.177 0 01.116-.04.188.188 0 01.113.042l.505.367c.044.034.074.012.078.006.012-.012.026-.038-.016-.073l-.409-.451s-.054-.056-.056-.11a.119.119 0 01.032-.096 1.98 1.98 0 00.218-.339.173.173 0 01.071-.082c.038-.02.086-.012.086-.012l.042.01a.108.108 0 00.13-.083.107.107 0 00-.082-.13s-.072-.012-.106-.024c-.066-.02-.038-.146.02-.166.06-.022.1.013.154.038.136.07.379.194.65.261-.301.35-.923.406-.923.406s.606.416.656 1.318c-.94.01-1.417-.59-1.417-.59s-.001.412-.315.9zm.485.754c-.15-.142-.257-.482-.225-.77.014-.104.087-.405.221-.468.05-.024.084.001.078.141l-.022.425c0 .03-.006.072.02.076.028.002.03-.038.036-.066l.042-.222c.024-.137.058-.145.107-.12.122.063.144.292.132.394a.827.827 0 01-.389.61zm.044 3.705c.04-.15.213-.585.425-.65.082-.027.126.02.086.225l-.144.692c-.006.044-.024.104.016.113.038.01.052-.05.068-.091l.125-.381c.068-.198.118-.202.188-.154.163.118.151.463.112.612a1.233 1.233 0 01-.707.825c-.189-.244-.283-.77-.169-1.191zm-1.113 2.03c.048-.205.325-1.273.584-1.225.066.012.11.05.024.431l-.157.814c-.008.06-.03.142.016.156.046.018.061-.066.083-.122l.192-.612c.082-.272.152-.294.221-.206.174.225.092.858.044 1.063-.137.577-.545 1.134-.885 1.285-.224-.337-.262-1.01-.122-1.584zm-9.13-4.89c.534-.077 1.01-.31 1.492-.524.61-.269 1.225-.506 1.907-.52.778-.014 1.508.111 2.106.668.846.786 1.072 1.9.61 3.024-.021.054-.041.11-.07.16-.22.383-.129.714.163 1.013.494.507 1.083.84 1.789.937.151.02.309-.017.465-.042.091-.013.181-.053.269-.07.16-.027.22.04.181.196-.125.479-.131 1.053.076 1.562-.423-.06-.652-.337-.698-.453-.08.054-.331.234-.379.26-.36.183-.634.04-.706-.355a6.781 6.781 0 00-.03-.192c-.16.082-.303.182-.465.238-.317.107-.516-.04-.519-.373 0-.098.008-.196.015-.304-.156.054-.304.118-.457.16-.305.08-.467-.03-.475-.347-.008-.221.036-.445.058-.694-.098.057-.19.114-.283.163-.316.162-.5.06-.477-.29.01-.208.082-.422.165-.613.094-.212.44-.774.48-.854-.167.09-.316.141-.512.171-.345.052-.582-.231-.444-.55a3.78 3.78 0 01.474-.752s-.526.53-.855.634c-.152.048-.343.04-.463-.092-.112-.117-.102-.295-.048-.467.076-.243.225-.472.373-.711-.303.315-.694.652-1.017.718-.114.022-.274-.02-.34-.09-.067-.07-.091-.2-.05-.325.088-.27.256-.501.428-.733-.072.082-.375.262-.553.368-.201.12-.469.303-.708.283-.248-.022-.345-.168-.321-.415.008-.086.161-.443.261-.586a4.814 4.814 0 01-1.27.175c-.212 0-.444-.042-.444-.21-.002-.141.168-.153.272-.169zm6.57 7.184c.046.012.054-.048.066-.09l.146-.456c.056-.196.12-.212.19-.15.175.166.145.623.115.772-.086.417-.4.758-.702.87a1.374 1.374 0 01-.299-1.128c.028-.15.18-.576.4-.636.085-.028.138.02.11.224l-.05.483c-.001.042-.017.101.025.111zm-6.684-3.866c.046.026.07-.024.104-.07l.981-1.697c.142-.23.224-.232.281-.134.148.25-.2 1.046-.358 1.343-.413.782-1.098 1.534-1.599 1.703-.109-.498.094-1.53.497-2.288.176-.335.662-1.055.952-1.073.112-.006.158.064.048.31l-.904 1.78c-.02.055-.05.1-.002.126zm1.103.802c.048.028.072-.02.104-.066l1.123-1.793c.143-.215.225-.215.277-.12.132.25-.257 1.036-.42 1.317-.43.74-1.19 1.586-1.676 1.73h-.002v-.002c-.084-.487.225-1.624.642-2.343.183-.319.665-.985.944-.99.107 0 .147.069.032.302l-1.014 1.845c-.022.05-.054.094-.01.12zm1.14.75c.037.022.069-.048.101-.095l1.071-1.925c.132-.226.204-.234.247-.146.114.223-.265 1.051-.416 1.343-.393.76-1.167 1.797-1.513 1.877-.133-.328.222-1.612.605-2.35.17-.327.628-1.076.876-1.111.097-.015.13.05.022.285l-.976 1.985c-.02.051-.058.117-.018.137zm1.148.69c.038.016.064-.061.088-.11l.848-2.128c.105-.245.171-.265.221-.183.122.207-.211 1.257-.327 1.57-.31.823-.9 1.769-1.22 1.903-.154-.312.023-1.44.322-2.24.134-.354.575-1.355.804-1.43.092-.028.13.03.048.284l-.778 2.193c-.014.054-.046.127-.006.141zm-3.726-.654c.11-.02.175.046.13.257l-.341 1.34c-.008.047-.03.11.023.125.056.017.072-.048.092-.092l.387-1.17c.082-.212.164-.225.248-.149.215.196.143.796.065 1.068-.205.714-.808 1.617-1.198 1.713-.276-.29-.266-1.386-.066-2.078.088-.308.37-.964.66-1.014zM28.488 42c.1-.043.16.01.128.286l-.204 1.422c-.004.058-.022.138.028.146.05.01.062-.072.078-.128l.313-1.4c.066-.267.142-.3.221-.224.204.198.084 1.247.025 1.59-.168.898-.635 1.897-.986 2.083-.265-.3-.343-1.422-.186-2.297.07-.387.324-1.366.583-1.478zm.672 1.865c.08-.379.36-1.338.625-1.44.103-.038.161.02.123.29l-.241 1.394c-.006.057-.026.135.024.146.052.012.064-.068.082-.122l.35-1.37c.074-.266.152-.292.228-.214.203.2.056 1.233-.016 1.568-.185.882-.684 1.85-1.047 2.023-.257-.306-.311-1.419-.128-2.275zm.317-1.705c-.245-.295-.157-1.337.078-1.98.106-.286.351-.727.626-.755.108-.012.162.046.108.253l-.375 1.191c-.01.042-.036.102.014.12.054.02.07-.04.094-.082l.437-1.075c.094-.196.173-.202.247-.124.192.202.12.653.028.906-.245.664-.88 1.482-1.257 1.546zm1.289-1.299c.098-.26.347-.726.605-.75.1-.01.15.042.1.231l-.364 1.126c-.01.04-.032.091.014.11.05.017.066-.038.086-.075l.423-1.037c.083-.18.16-.183.227-.113.18.185.092.68.006.913-.225.607-.81 1.353-1.159 1.41-.23-.27-.157-1.226.062-1.815zm1.127.802c.076-.263.347-.915.6-.953.1-.016.156.032.118.219l-.273 1.091c-.008.04-.026.096.022.108.05.016.062-.04.078-.078l.349-.997c.071-.182.143-.192.22-.124.19.17.075.832.007 1.066-.182.606-.71 1.374-1.053 1.452-.248-.254-.244-1.194-.068-1.784zm1.303-2.306c.071-.171.355-.648.63-.67.106-.008.154.062.074.297l-.246.706c-.014.052-.046.118 0 .142.05.024.076-.046.104-.09l.345-.656c.112-.222.194-.226.256-.132.163.238.012.782-.06.952-.206.482-.67.848-1.051.907-.202-.35-.258-.975-.052-1.456zm1.149.828c.048-.143.253-.549.48-.578.09-.014.134.04.082.237l-.104.445c-.01.042-.031.098.008.115.042.017.06-.042.078-.08l.194-.408c.081-.188.147-.194.207-.122.152.185.06.634.012.778-.14.403-.5.714-.812.782-.193-.273-.287-.768-.145-1.169zm-6.436-4.674c.152-.305.739-1.205.994-1.209.098-.002.133.064.03.277l-.79 1.479c-.02.046-.05.088-.01.112.042.026.066-.018.096-.06l1.023-1.58c.133-.202.205-.2.251-.11.118.23-.419 1.211-.57 1.472-.675 1.155-1.572 1.353-1.572 1.353.143-.706.3-1.243.548-1.734zm-1.394 5.761c.168-.565.28-1.259.413-2.06.062-.375.25-1.51.539-1.596.11-.034.175.022.14.275l-.256 1.532c-.004.054.002.104.058.116.058.014.095-.02.107-.09l.292-1.225c.044-.261.141-.337.227-.26.223.198.144.956.07 1.27-.397 1.733-1.59 2.038-1.59 2.038zm-.034 4.295c.252-.67.208-1.4.16-2.298-.024-.427.03-1.606.283-1.755.098-.058.166-.008.168.279l-.024 1.462c.002.062.02.116.071.118v.002c.054.001.084-.042.086-.122l.136-1.853c.006-.298.066-.419.18-.411.297.02.35.953.33 1.317-.161 2.576-1.39 3.26-1.39 3.26zm-.291 5.557c.47-.786.367-1.86.317-2.952-.024-.517.042-1.95.33-2.133.109-.072.187-.012.187.34l-.018 1.863c.002.073.02.14.081.143.06.004.092-.05.096-.147l.074-2.204c.008-.36.076-.51.206-.499.337.024.36 1.145.347 1.586-.132 3.678-1.62 4.003-1.62 4.003zm.906-.37c.54-.64.74-1.724.875-2.74.064-.466.064-1.83.348-1.954.111-.048.225.002.209.347L28.43 48.3c-.008.068-.004.13.05.142.054.01.092-.034.112-.12l.193-1.777c.01-.353.116-.41.23-.386.3.074.277 1.157.209 1.554-.505 2.977-2.128 3.04-2.128 3.04zm1.33-.585c.465-.479.792-1.409.964-2.234.075-.367.283-1.389.518-1.471.088-.033.212.014.144.286l-.36 1.562c-.01.052-.01.102.033.115.043.01.076-.02.095-.09l.387-1.465c.064-.254.136-.348.228-.32.233.072.042.902-.034 1.213-.565 2.337-1.975 2.404-1.975 2.404zm2.926-2.316c-.402 1.576-1.533 1.598-1.533 1.598.366-.34.6-.9.741-1.506.062-.272.234-1.024.415-1.075.072-.02.168.02.112.217l-.329 1.225c-.008.038-.006.076.026.085.032.01.058-.011.074-.061l.35-1.151c.053-.188.11-.253.18-.23.182.062.024.67-.036.898zm.22-3.385c-.14.852-.563 1.805-.888 1.989-.25-.278-.339-1.34-.201-2.169.061-.369.283-1.298.522-1.41.094-.044.148.008.122.27l-.168 1.326c-.003.056-.017.132.03.14.046.008.056-.07.068-.124l.272-1.31c.06-.256.127-.286.203-.214.192.181.094 1.176.04 1.502zm.24 2.076c-.186-.245-.206-1.163-.053-1.87.068-.318.242-.952.441-1.042.078-.034.12.014.084.237l-.13.902c-.008.045-.021.111.014.12.038.008.052-.058.066-.104l.333-1.339c.06-.221.12-.245.174-.181.145.162-.052 1.314-.112 1.592-.154.732-.544 1.54-.818 1.685zm1.779-1.512c-.627 1.425-1.36 1.475-.713-.245.078-.208.282-.67.427-.716.068-.02.104.024.068.175l-.227.756c-.004.034-.022.076.01.086.034.01.044-.032.058-.064l.476-1.151c.06-.145.112-.155.158-.104.122.134-.132.974-.257 1.263zm.554-2.443c-.157.654-.538 1.139-.866 1.244-.237-.243-.36-.868-.205-1.504.068-.281.32-1.027.558-1.087.094-.024.148.022.116.226l-.197 1.023c-.004.041-.022.101.024.114.048.01.057-.05.074-.09l.275-.934c.066-.196.133-.211.207-.148.186.164.074.907.014 1.156zm.421 1.38c-.311-.078-.41-.754-.277-1.322.062-.254.271-.868.51-.918.092-.022.148.02.12.203l-.175.994c-.002.038-.018.088.028.1.047.012.057-.042.071-.078l.272-.912c.055-.173.125-.187.2-.13.19.152.107.77.055.996-.14.584-.497 1.145-.804 1.067zm1.93-.694c-.103.556-.402 1.183-.729 1.113-.327-.068-.397-.766-.297-1.307.045-.241.227-.883.45-.941.086-.022.14.016.124.19l-.134.96c0 .037-.012.086.03.095.046.008.054-.042.066-.076l.22-.89c.046-.168.11-.181.181-.13.188.134.132.772.09.986zm.087-2.24c.016-.15.12-.587.321-.669.078-.031.13.01.122.214l-.022.628c0 .044-.008.102.034.11.04.006.046-.054.055-.094l.108-.614c.034-.198.094-.22.162-.164.177.15.187.607.17.757-.042.42-.318.889-.59 1.024-.229-.225-.404-.77-.36-1.192zm1.111 2.435c-.048.541-.29 1.157-.605 1.131-.313-.03-.438-.7-.388-1.225.02-.233.137-.801.34-.873.082-.032.136 0 .136.165l-.048.944c.005.034-.002.083.042.087.042.003.044-.045.052-.077l.126-.87c.03-.164.09-.182.163-.14.188.112.204.653.182.858zm.064-2.375c.07-.35.433-.613.616-.633-.205.509-.307 1.225.228 2.04-.07-.035-.46-.117-.65-.384-.232-.32-.284-.569-.194-1.023zm.76 3.686c-.228.022-.455-.417-.507-.98-.052-.562.092-1.035.321-1.057.13-.01.26.126.357.35a2.68 2.68 0 00-.022.712c.022.231.066.442.124.622-.058.207-.151.343-.273.353zm-.104-3.563c.006-.19.1-.756.367-.894.102-.053.18-.013.19.246l.041.47c.007.055 0 .13.058.133.058.002.056-.074.064-.128l.08-.467c.026-.257.106-.295.205-.236.26.154.321.725.316.916-.015.537-.344 1.125-.699 1.343-.343-.238-.636-.842-.622-1.383zm.449 2.613c-.028-.219-.068-.885.223-1.087.108-.072.21-.044.267.25l.154.666c.014.062.022.15.09.141.068-.007.052-.095.052-.159l.024-.437c.016-.29.072-.355.2-.303.33.13.398.674.426.894.076.62-.136 1.206-.517 1.52-.445-.214-.841-.864-.92-1.485zm-.086 2.125c.01-.138.09-.491.263-.53.068-.019.116.001.122.099v.509c.002.02-.002.05.036.052.034.001.036-.026.042-.046l.08-.501c.017-.097.071-.108.133-.082.166.068.19.443.18.567-.026.321-.201.69-.477.664-.273-.026-.405-.419-.379-.732zm-.888.146c.008-.106.072-.374.22-.404.056-.012.098.005.102.078l.004.39c.001.013-.002.035.03.037.03.005.03-.02.033-.033l.064-.382c.018-.073.06-.081.114-.061.14.054.16.339.153.432-.02.246-.167.525-.394.503-.232-.02-.345-.323-.326-.56zm-.648.847c.01-.118.078-.413.233-.449.06-.011.104.004.108.086l.004.43c.002.017-.002.04.032.045.032.002.032-.024.038-.04l.068-.423c.018-.082.064-.092.121-.068.148.058.17.375.16.479-.022.27-.175.582-.42.56-.246-.021-.364-.356-.344-.62zm.373 2.502c-.245.115-.281-.106-.203-.246.076-.137.377-.113.65.158 0 0-.202-.027-.447.088zm.547-1.101c-.026.333-.218.714-.521.686-.301-.028-.447-.437-.423-.762.012-.144.098-.507.287-.549.076-.016.13.004.134.104l.004.529c.004.021-.002.05.04.054.04.004.04-.026.046-.048l.085-.52c.023-.098.078-.11.15-.082.182.071.208.46.198.588zm-.024-1.085c.022-.152.135-.531.34-.563.08-.014.136.012.134.12l-.034.558c.005.024-.003.054.039.06.045.006.045-.026.055-.048l.126-.545c.028-.103.088-.11.162-.077.187.09.19.503.17.634-.05.353-.282.744-.597.694-.317-.05-.445-.492-.395-.833zm.81 1.617c-.064.283-.266.593-.493.537-.23-.056-.287-.425-.224-.702.027-.122.142-.425.296-.443.06-.006.097.018.087.105l-.068.453c0 .02-.007.046.025.052.03.008.033-.018.043-.036l.134-.439c.03-.083.076-.087.126-.056.131.082.097.42.074.53zm.56-.054c-.28-.006-.445-.339-.445-.612 0-.12.054-.43.228-.477.067-.02.12-.006.131.08l.04.44c.002.017 0 .042.038.042.04 0 .038-.024.04-.041l.044-.441c.014-.086.064-.098.13-.08.173.048.227.373.227.48-.002.28-.154.613-.433.61zm.212-1.242c-.246-.022-.363-.327-.345-.567.007-.108.075-.377.229-.409.062-.012.102.004.11.08l.003.391c.004.016-.001.038.032.04.032.004.032-.018.038-.034l.066-.387c.016-.074.064-.082.122-.06.144.054.167.343.16.437-.02.25-.172.53-.415.509zm1.133.323c-.022.278-.178.602-.417.58-.24-.024-.355-.366-.332-.64.008-.12.078-.428.23-.463.058-.016.102 0 .106.086v.445c.004.018-.002.044.03.045.033.002.033-.021.037-.038l.07-.44c.018-.084.064-.094.12-.07.146.06.164.387.156.495zm-.733-1.402c-.101-.18-.349-.743-.217-1 .046-.1.13-.098.283.132l.477.704c.034.048.074.12.118.094.044-.028.002-.096-.022-.15l-.38-.76c-.125-.247-.087-.32.025-.313.287.014.658.505.762.683.29.496.367 1.197.215 1.568-.399-.05-.97-.462-1.26-.958zm-.27 10.46c-.172.668-.858.928-1.477.573-.475-.278-.646-.736-.453-1.27.637-1.733 2.73-6.55 2.946-7.129a.177.177 0 01.214-.11.171.171 0 01.112.22c-.425 1.416-2.009 6.008-2.113 6.353-.016.052-.042.104-.038.152.006.058.036.11.058.166.05-.034.112-.058.142-.104.038-.05.048-.118.068-.18.329-1.093 1.731-5.314 1.98-6.126a.172.172 0 01.218-.121.176.176 0 01.118.205c-.28 1.201-1.506 6.34-1.776 7.371zm2.283 1.053c-.056.69-.702 1.061-1.392.816-.535-.19-.79-.615-.688-1.173.327-1.816 1.591-7.255 1.711-7.895h.002a.185.185 0 01.206-.154.191.191 0 01.165.21c-.187 1.548-.991 6.628-1.033 6.986-.006.051-.024.109-.01.157.014.054.058.1.088.152.044-.042.101-.076.125-.126.028-.056.028-.126.036-.19.138-1.13.832-5.886.946-6.773a.187.187 0 01.373.026 722.09 722.09 0 01-.529 7.964zm1.293 1.506c-.609.032-1.081-.39-1.057-1.007 0-.016 0-.03.002-.046 0-.018.002-.038.004-.058l.002-.05c.063-1.368.377-6.676.478-8.198a.225.225 0 01.228-.205h.002c.127 0 .23.101.23.227.003 1.907 0 6.892.001 7.253 0 .052-.01.11.008.154.02.051.066.091.102.135.04-.044.082-.084.104-.135.017-.044.008-.102.008-.154 0-.361-.002-5.346 0-7.253a.23.23 0 01.231-.227c.122 0 .22.087.23.205.101 1.522.414 6.83.476 8.199l.006.05v.102c.03.616-.445 1.04-1.055 1.007zm2.685-.69c-.687.245-1.337-.126-1.39-.816a691.494 691.494 0 01-.53-7.965.187.187 0 01.373-.026c.113.888.809 5.643.948 6.774.006.064.004.134.034.19.024.05.08.083.124.125.032-.051.076-.097.09-.151.014-.048-.004-.106-.01-.158-.042-.357-.846-5.438-1.034-6.986a.189.189 0 01.374-.056c.117.64 1.384 6.08 1.711 7.896.102.559-.154.984-.69 1.173zm-.124-9.694c.214.578 2.31 5.395 2.946 7.13.196.532.024.99-.456 1.268-.615.355-1.3.096-1.474-.572-.268-1.032-1.493-6.17-1.774-7.371a.176.176 0 01.118-.206c.09-.028.19.026.215.122.252.811 1.65 5.032 1.983 6.126.02.061.03.13.066.18.034.045.094.07.141.103.023-.056.054-.108.058-.166.006-.048-.02-.1-.035-.152-.106-.345-1.688-4.936-2.117-6.352a.175.175 0 01.116-.22.176.176 0 01.213.11zm-.514-1.678c-.152-.371-.076-1.071.215-1.568.106-.177.475-.668.762-.683.108-.007.148.067.024.314l-.377.76c-.024.054-.07.121-.024.15.046.025.084-.047.117-.095l.477-.704c.154-.23.236-.231.286-.132.127.258-.118.82-.222 1-.291.497-.86.908-1.258.958zm.945 1.025c-.241.022-.393-.301-.417-.58-.008-.108.012-.435.156-.495.056-.024.1-.014.12.07l.067.44c.006.017.006.04.038.039.032-.002.03-.028.03-.046v-.445c.006-.085.048-.102.106-.085.154.035.221.342.231.462.022.274-.094.616-.33.64zm.301-1.412c-.008-.094.016-.383.162-.437.058-.022.101-.014.12.06l.067.387c.002.016.002.038.038.034.03-.002.028-.024.03-.04l.004-.39c.006-.077.048-.093.11-.08.153.031.221.3.23.408.02.24-.103.544-.346.567-.241.022-.397-.26-.415-.51zm.627 1.751c-.282.004-.431-.329-.431-.608-.002-.108.052-.433.223-.48.068-.019.118-.007.132.079l.04.441c.006.018.004.042.042.042.037 0 .036-.026.041-.042l.038-.441c.012-.086.064-.1.13-.08.174.046.228.357.228.477.001.273-.162.606-.443.612zm1.053.59c-.23.057-.427-.253-.49-.536-.029-.11-.059-.447.071-.529.05-.032.094-.028.126.056l.133.44c.008.017.014.043.044.035.032-.006.024-.032.024-.052l-.07-.453c-.01-.087.028-.11.088-.105.154.018.267.321.297.443.064.277.006.646-.223.702zm.84.033c-.248-.114-.447-.088-.447-.088.273-.271.572-.295.65-.158.078.14.042.361-.203.246zm-.028-.415c-.302.028-.493-.353-.521-.686-.01-.128.018-.517.2-.589.072-.028.127-.016.147.082l.086.52c.008.023.008.053.048.048.04-.004.036-.032.04-.053v-.529c.008-.1.06-.12.134-.104.193.042.279.405.29.549.024.325-.123.734-.424.762zm-.082-2.438l.07.423c.002.016.002.042.036.04.034-.004.03-.028.034-.044v-.43c.004-.083.047-.098.107-.086.156.036.226.33.236.448.017.264-.1.599-.343.62-.244.023-.4-.288-.421-.56-.01-.103.012-.42.16-.478.057-.024.103-.015.121.067zm-.732-.872c.052-.02.098-.011.112.062l.063.381c.007.014.007.038.036.034.032-.002.028-.024.032-.038l.002-.39c.004-.072.046-.089.104-.077.146.03.21.298.217.403.016.238-.093.541-.325.56-.23.023-.375-.256-.395-.502-.008-.093.012-.379.154-.433zm-.162 1.714c.044-.006.038-.036.038-.06l-.034-.558c0-.108.056-.134.136-.12.207.032.321.41.343.563.048.34-.082.783-.397.833-.317.05-.546-.34-.596-.694-.02-.131-.018-.544.171-.634.07-.034.132-.026.16.077l.128.545c.007.022.01.054.051.048zm-.624-1.4c.006.02.006.047.046.046.036-.003.03-.032.032-.052v-.51c.006-.097.054-.117.121-.099.174.04.256.393.266.531.024.313-.108.706-.381.732-.276.026-.451-.343-.475-.664-.01-.124.012-.5.178-.567.063-.026.115-.016.133.082l.08.5zm.377-2.209c-.074.62-.475 1.271-.918 1.484-.379-.313-.59-.899-.514-1.52.026-.219.093-.764.425-.893.127-.052.183.014.2.303l.02.437c0 .064-.013.152.055.16.068.007.074-.08.09-.142l.153-.667c.058-.293.158-.32.268-.249.293.202.249.868.22 1.087zm-.17-1.23c-.357-.218-.686-.806-.702-1.343-.004-.191.058-.762.317-.916.098-.06.176-.021.204.236l.08.467c.008.054.008.13.065.128.058-.003.052-.078.058-.132l.042-.47c.012-.26.086-.3.19-.247.267.138.361.705.367.894.014.54-.281 1.145-.62 1.383zm1.024 1.2c-.054.563-.28 1.002-.509.98-.118-.01-.213-.146-.271-.353a2.966 2.966 0 00.102-1.335c.097-.223.227-.358.354-.349.228.022.374.495.324 1.057zm.06-1.683c-.194.267-.579.35-.649.385.533-.816.43-1.532.224-2.04.183.02.548.282.618.632.088.454.038.704-.194 1.023zm.861 2.483c-.313.026-.554-.59-.606-1.13-.02-.206-.004-.747.183-.858.074-.042.132-.024.164.14l.124.869c.01.032.012.08.056.078.041-.004.035-.054.037-.088l-.046-.943c-.001-.166.054-.198.134-.166.206.072.321.64.345.873.048.525-.075 1.196-.39 1.225zm.144-2.374c-.271-.135-.545-.604-.589-1.024-.015-.15-.005-.607.172-.757.068-.055.126-.034.162.164l.107.614c.01.04.014.1.054.094.044-.008.034-.066.034-.11l-.02-.628c-.008-.204.044-.245.122-.214.2.082.305.52.321.669.044.423-.132.967-.363 1.192zm1.177 2.16c-.327.071-.627-.556-.73-1.112-.04-.214-.096-.852.091-.986.072-.051.136-.038.182.13l.22.89c.011.034.02.084.063.076.044-.009.032-.058.03-.094l-.132-.962c-.015-.173.038-.211.124-.19.224.059.403.7.45.942.1.54.031 1.239-.298 1.307zm1.205-.418c-.312.078-.667-.483-.806-1.067-.054-.225-.136-.844.053-.996.075-.057.144-.043.202.13l.271.912c.012.036.024.09.072.078.044-.012.03-.062.026-.1l-.175-.994c-.028-.183.028-.225.121-.203.238.05.449.664.507.918.136.568.038 1.244-.271 1.322zm.416-1.38c-.059-.25-.169-.992.018-1.155.07-.064.142-.048.204.147l.277.934c.014.04.026.1.074.09.044-.012.028-.072.024-.114l-.197-1.023c-.034-.204.021-.25.113-.226.241.06.493.806.56 1.087.154.637.033 1.261-.207 1.505-.325-.106-.706-.59-.866-1.245zm.56 2.443c-.129-.289-.382-1.129-.262-1.262.048-.052.096-.042.157.103l.479 1.152c.012.031.024.073.058.064.03-.01.016-.053.01-.086l-.226-.756c-.037-.152 0-.196.065-.176.147.046.35.509.43.716.647 1.72-.09 1.67-.712.245zm1.775 1.512c-.272-.145-.66-.953-.818-1.685-.06-.278-.256-1.43-.11-1.592.056-.064.116-.04.173.181l.334 1.34c.015.045.026.11.064.103.037-.008.021-.074.015-.12l-.131-.902c-.034-.223.01-.271.086-.237.199.09.37.724.438 1.041.154.708.136 1.626-.051 1.871zm.279-3.578c.076-.072.145-.042.203.213l.272 1.31c.016.055.023.133.071.124.046-.008.032-.083.026-.14l-.167-1.326c-.028-.261.03-.313.123-.27.24.112.46 1.042.523 1.411.136.828.048 1.891-.201 2.168-.325-.184-.746-1.137-.888-1.988-.056-.326-.154-1.32.038-1.502zm.181 4.887c-.06-.227-.219-.836-.038-.898.07-.023.128.042.184.23l.349 1.15c.016.05.04.072.074.062.032-.01.032-.047.024-.085l-.33-1.225c-.055-.197.043-.237.114-.217.184.051.353.803.417 1.075.138.606.373 1.167.738 1.506 0 0-1.13-.022-1.532-1.598zm.952-.088c-.076-.311-.267-1.14-.034-1.212.088-.029.163.065.23.319l.384 1.466c.018.07.052.1.094.09.042-.014.046-.064.034-.116l-.361-1.562c-.066-.272.056-.32.148-.286.233.082.438 1.104.514 1.47.174.826.503 1.756.965 2.235 0 0-1.41-.067-1.974-2.404zm1.175-.052c-.066-.397-.09-1.48.211-1.554.114-.023.22.032.231.386l.192 1.777c.02.086.058.13.11.12.054-.012.06-.074.052-.142l-.098-1.893c-.016-.345.1-.395.21-.347.285.123.283 1.488.344 1.955.136 1.015.337 2.098.878 2.738 0 0-1.623-.063-2.13-3.04zm1.416-.592c-.016-.44.01-1.562.347-1.586.128-.01.196.14.204.499l.075 2.204c.002.097.038.151.096.147.06-.004.078-.07.08-.143l-.018-1.863c0-.352.078-.412.188-.34.287.184.355 1.616.33 2.133-.051 1.091-.153 2.166.318 2.952 0 0-1.49-.325-1.62-4.003z" fill="#FFF" fill-rule="nonzero" mask="url(#F)"/></g></g></svg>