<svg viewBox="0 0 498 125" xmlns="http://www.w3.org/2000/svg" xmlns:xlink="http://www.w3.org/1999/xlink"><defs><path id="a" d="M0 0h621.389v248.552H0z"/><path id="c" d="M0 0h621.389v248.552H0z"/><path id="e" d="M0 0h621.389v248.552H0z"/><path id="g" d="M0 0h621.389v248.552H0z"/><path id="i" d="M0 0h621.389v248.552H0z"/><path id="k" d="M0 0h621.389v248.552H0z"/><path id="m" d="M0 0h621.389v248.552H0z"/><path id="o" d="M0 0h621.389v248.552H0z"/><path id="q" d="M0 0h621.389v248.552H0z"/><path id="s" d="M0 0h621.389v248.552H0z"/><path id="u" d="M0 0h621.389v248.552H0z"/></defs><g fill="none" fill-rule="evenodd"><g transform="translate(-61.477 -61.797)"><mask id="b" fill="#fff"><use xlink:href="#a"/></mask><path d="M124.398 62.143c-34.31 0-62.124 27.82-62.124 62.13 0 34.315 27.815 62.136 62.124 62.136 34.328 0 62.149-27.814 62.149-62.136 0-34.31-27.82-62.13-62.149-62.13m39.263 80.437c-.131-.163-.413-.238-.632-.288-4.986-1.172-4.992-6.389-5.092-7.973-4.178 0-5.793-4.566-6.238-5.75a14.25 14.25 0 01-.752-3.3c0 2.223-3.288 4.127-6.82.588 0 3.645-4.334 3-6.489.84-.194.739-1.39 2.611-1.39 2.611 2.48.451 3.595.996 4.766 2.023 2.737 2.418 3.05 6.432 3.05 8.506 0 0 3.783 3.701 5.28 5.073.438.4.927.77 1.41 1.14 3.882-4.34 5.172-2.643 5.166-2.637 2.862-1.159 4.453.902 3.827 1.941-.67-.757-1.754-.545-2.411.057 3.87.645 2.975 3.488 1.929 4.077 0-.814-.257-1.722-1.472-1.81.056 1.259-.783 1.478-1.59 1.51-1.917.08-5.124.168-6.101 1.127-.558.545-.288 2.142-.896 2.687-.495.444-1.027.388-1.303.394-.094.589.082 1.247.82 2.023-2.786.238-4.872-2.217-3.488-3.526.577-.557 2.524-2.405 2.625-3.2.125-.865-.777-1.817-1.403-2.374-1.347-1.196-2.787-2.267-4.215-3.382a9.984 9.984 0 00-1.385-.883c-.382-.213-.927-.313-1.421-.157-1.071.338-1.052.307-1.334.132-1.046-.696-2.95-2.255-6.915-2.706.27.175.457.35.601.557.213.295.364.652.595 1.134.257.551.451 1.115.683 1.666 2.555 6.05 5.098 12.006 7.647 18.057.846 2.01.094 3.77-1.973 4.728-1.509.702-3.219.326-4.227-1.133.294 1.002.426 1.866.019 2.705a3.598 3.598 0 01-1.91 1.785 4.582 4.582 0 01-2.7.32c-.914-.182-1.522-.79-1.992-1.679-.081 1.973-1.384 3.426-3.532 3.426s-3.445-1.447-3.526-3.426c-.47.89-1.077 1.49-1.992 1.679a4.576 4.576 0 01-2.7-.32c-.857-.363-1.509-.952-1.91-1.785-.407-.839-.275-1.697.02-2.705-1.015 1.453-2.725 1.835-4.235 1.133-2.06-.958-2.818-2.718-1.966-4.728 2.549-6.05 5.085-12.007 7.647-18.057.232-.551.426-1.115.683-1.666.225-.482.376-.84.588-1.134a2.17 2.17 0 01.602-.557c-3.959.445-5.863 2.004-6.915 2.706-.275.175-.257.206-1.328-.132a1.894 1.894 0 00-1.421.157 10.41 10.41 0 00-1.39.883c-1.422 1.115-2.87 2.186-4.21 3.382-.632.557-1.528 1.51-1.409 2.374.1.795 2.048 2.643 2.63 3.2 1.385 1.309-.707 3.77-3.488 3.526.74-.776.915-1.434.82-2.023-.275-.006-.807.05-1.308-.394-.601-.545-.332-2.142-.89-2.687-.977-.952-4.19-1.046-6.106-1.128-.802-.03-1.641-.25-1.585-1.509-1.221.088-1.472.996-1.472 1.81-1.045-.595-1.947-3.438 1.93-4.077-.658-.602-1.748-.814-2.412-.057-.632-1.04.958-3.094 3.827-1.941-.013-.006 1.284-1.704 5.16 2.637.49-.37.972-.733 1.416-1.14 1.497-1.372 5.274-5.073 5.274-5.073 0-2.074.313-6.094 3.05-8.506 1.177-1.027 2.292-1.572 4.766-2.023 0 0-1.196-1.872-1.384-2.611-2.16 2.16-6.495 2.805-6.495-.84-3.526 3.539-6.814 1.635-6.814-.588a14.25 14.25 0 01-.752 3.3c-.444 1.184-2.067 5.75-6.244 5.75-.094 1.59-.106 6.808-5.098 7.973-.213.05-.489.125-.62.288-2.017 2.505-10.397 5.142-11.418 4.434.645-.463 1.672-1.083 1.841-4.04.094-1.941.307-12.019.307-26.23 0-5.023.545-21.313 16.654-23.586 2.436-.339 4.841-.157 6.92 1.384 2.838 2.117 4.235 5.68 2.562 9.72-.05.144-.087.288-.169.413-.563.965-.338 1.792.401 2.53 1.347 1.335 2.912 2.237 4.798 2.456 1.183.138 2.173-.382 2.962-1.203 1.81-1.86 3.031-4.052 3.476-6.62.84-4.872-.463-7.328-.539-7.478-1.315-2.63-4.09-4.56-7.321-4.835-1.472-2.756-5.712-1.66-5.712-1.66-1.059.226-1.434.526-1.697 1.052 0 0-1.86-2.837-.113-3.97 1.76-1.14 5.674-1.604 5.674-1.604 0-1.847 3.057-3.282 8.574-2.298 6.658 1.19 8.099-1.416 8.099-1.416.275 3.188-2.161 4.835-2.944 5.28 2.524 2.743 6.063 8.224 6.902 16.015.845-7.791 4.378-13.272 6.908-16.015-.783-.445-3.22-2.092-2.943-5.28 0 0 1.434 2.606 8.098 1.416 5.518-.984 8.561.45 8.561 2.298 0 0 3.921.464 5.681 1.604 1.754 1.133-.106 3.97-.106 3.97-.27-.526-.64-.826-1.698-1.052 0 0-4.24-1.096-5.724 1.66-3.22.276-6 2.205-7.31 4.835-.074.15-1.302 2.58-.538 7.478.4 2.574 1.666 4.76 3.476 6.62.783.82 1.766 1.34 2.963 1.203 1.885-.22 3.45-1.121 4.797-2.455.733-.74.965-1.566.401-2.53a1.595 1.595 0 01-.17-.414c-1.671-4.04-.275-7.603 2.556-9.72 2.08-1.541 4.49-1.723 6.927-1.384 16.109 2.273 16.648 18.563 16.648 23.586 0 14.211.213 24.289.313 26.23.169 2.957 1.196 3.57 1.841 4.04-1.027.708-9.407-1.923-11.418-4.434" fill="#595959" fill-rule="nonzero" mask="url(#b)"/></g><g transform="translate(-61.477 -61.797)"><mask id="d" fill="#fff"><use xlink:href="#c"/></mask><path d="M229.368 102.577c3.42 0 10.428-.3 14.424-.545a19.31 19.31 0 00-.182 2.205c0 .432.132 1.422.182 2.092-3.57-.489-9.464-.858-11.299-.858-1.284 0-6.27.119-8.975.37v15.432h3.132c6.394 0 19.866 1.221 19.866 12.35 0 9.032-7.566 13.16-17.518 13.097-1.115 0-5.286-.182-7.948-.182-1.152 0-2.574.063-3.557.182.382-6.764.495-16.109.495-23.856 0-6.946-.057-17.45-.495-20.832 3.933.182 10.44.545 11.875.545zm-5.85 40.573c1.597.062 3.501.125 5.223.125 7.253 0 11.48-3.388 11.48-9.714 0-6.82-5.029-9.038-16.703-9.038v18.627z" fill="#595959" fill-rule="nonzero" mask="url(#d)"/></g><g transform="translate(-61.477 -61.797)"><mask id="f" fill="#fff"><use xlink:href="#e"/></mask><path d="M253.474 119.243c2.406-2.95 6.821-4.24 10.523-4.24 6.45 0 10.929 3.194 10.929 10.873v15.244c0 3.138.682 3.871 1.966 3.871.439 0 1.109-.125 1.478-.25l.37 1.478c-1.967.983-3.814 1.17-4.616 1.17-2.023 0-3.313-.914-3.802-2.705l-.37-1.346c-3.319 2.643-6.945 4.046-9.958 4.046-5.593 0-9.225-2.957-9.225-8.117 0-5.53 4.127-8.111 9.77-9.15l6.263-1.172c2.099-.37 3.22-.99 3.22-2.518 0-6.701-2.831-8.424-7.504-8.424-3.626 0-6.338 1.046-8.298 5.048h-.746v-3.808zm16.548 11.612l-4.065.614c-4.422.676-9.351 2.217-9.351 6.896 0 3.557 1.98 5.467 5.963 5.467 2.467 0 4.922-.87 7.453-3.507v-9.47z" fill="#595959" fill-rule="nonzero" mask="url(#f)"/></g><g transform="translate(-61.477 -61.797)"><mask id="h" fill="#fff"><use xlink:href="#g"/></mask><path d="M287.164 115.799c.676 0 1.96-.126 2.887-.182-.495 4.666-.557 12.407-.557 12.72 2.58.12 6.325.245 8.305.245 2.023 0 5.9-.126 7.747-.245 0-.375-.069-8.11-.551-12.72 1.027.056 2.386.182 3.119.182.683 0 1.973-.126 2.893-.182-.488 4.61-.557 12.345-.557 15.545 0 2.58.069 10.873.557 15.551a21.251 21.251 0 00-2.824-.181c-1.04 0-2.274.062-3.182.181.482-4.678.551-12.97.551-14.937-2.705-.194-6.394-.439-7.81-.439-1.672 0-5.774.132-8.242.314 0 2.092.063 10.384.557 15.062a21.55 21.55 0 00-2.83-.181c-1.04 0-2.274.062-3.195.181.482-4.678.545-12.97.545-15.55 0-3.139-.063-10.936-.545-15.546 1.034.056 2.386.182 3.132.182" fill="#595959" mask="url(#h)"/></g><g transform="translate(-61.477 -61.797)"><mask id="j" fill="#fff"><use xlink:href="#i"/></mask><path d="M322.494 115.799c.664 0 1.96-.126 2.875-.182-.482 4.61-.539 12.407-.539 13.522h.99c2.016 0 12.407-11.806 13.403-13.522.858.056 2.254.182 3 .182.626 0 2.104-.126 3.012-.182l-14.687 13.153c1.854 2.21 11.612 13.215 16.04 17.95-1.653-.126-2.824-.182-3.676-.182-1.121 0-2.775.063-4.065.182-2.267-3.564-9.22-11.737-13.021-15.927h-.99c0 2.28.057 11.248.539 15.927a21.09 21.09 0 00-2.818-.182c-1.028 0-2.261.063-3.195.182.501-4.679.57-12.971.57-15.552 0-3.137-.069-10.935-.57-15.545 1.046.05 2.393.176 3.132.176" fill="#595959" mask="url(#j)"/></g><g transform="translate(-61.477 -61.797)"><mask id="l" fill="#fff"><use xlink:href="#k"/></mask><path d="M373.745 102.208c2.148 0 4.923-.182 6.507-.182 11.374 0 15.802 3.445 15.802 11.186 0 10.021-8.43 13.221-18.426 13.221-.557 0-2.906-.125-4.07-.256v10.634c0 3.07.13 6.827.5 9.902a26.444 26.444 0 00-3.138-.187c-1.12 0-2.405.068-3.388.187.376-6.764.501-16.108.501-23.856 0-6.94-.063-17.449-.501-20.83 2.036.055 4.798.18 6.213.18m2.393 20.97c8.611 0 13.66-3.445 13.66-9.959 0-6.087-4.804-7.74-10.767-7.74-1.04 0-4.603.062-5.474.18v17.268c.745.125 1.967.25 2.58.25" fill="#595959" fill-rule="nonzero" mask="url(#l)"/></g><g transform="translate(-61.477 -61.797)"><mask id="n" fill="#fff"><use xlink:href="#m"/></mask><path d="M428.065 130.98c0 9.408-6.1 16.41-15.74 16.41-9.463 0-15.369-6.94-15.369-15.545 0-10.203 6.52-16.835 15.921-16.835 9.345-.007 15.188 6.751 15.188 15.97m-25.272.67c0 6.946 2.894 13.341 9.401 13.341 6.276 0 10.028-6.025 10.028-14.255 0-6.639-2.58-13.334-9.527-13.334-6.632-.006-9.902 6.94-9.902 14.249" fill="#595959" fill-rule="nonzero" mask="url(#n)"/></g><g transform="translate(-61.477 -61.797)"><mask id="p" fill="#fff"><use xlink:href="#o"/></mask><path d="M458.19 122.312h-.738c-2.161-3.507-5.155-4.916-8.537-4.916-7.196 0-10.641 6.946-10.641 13.703 0 7.798 4.303 13.892 11.919 13.892 2.53 0 4.803-.37 8.36-4.253l.558.683-.739 3.006c-2.956 1.973-6.257 2.957-10.07 2.957-9.596 0-15.865-6.696-15.865-16.166 0-9.895 6.764-16.221 16.66-16.221 3.206 0 6.695.614 10.628 2.706l-1.534 4.61z" fill="#595959" mask="url(#p)"/></g><g transform="translate(-61.477 -61.797)"><mask id="r" fill="#fff"><use xlink:href="#q"/></mask><path d="M489.212 122.312h-.727c-2.148-3.507-5.148-4.916-8.53-4.916-7.203 0-10.647 6.946-10.647 13.703 0 7.798 4.321 13.892 11.93 13.892 2.506 0 4.792-.37 8.35-4.253l.55.683-.726 3.006c-2.943 1.973-6.275 2.957-10.077 2.957-9.583 0-15.852-6.696-15.852-16.166 0-9.895 6.764-16.221 16.654-16.221 3.206 0 6.701.614 10.634 2.706l-1.56 4.61z" fill="#595959" mask="url(#r)"/></g><g transform="translate(-61.477 -61.797)"><mask id="t" fill="#fff"><use xlink:href="#s"/></mask><path d="M498.325 146.532c-.376 0-1.478.119-1.967.181.489-4.672.557-12.97.557-15.55 0-3.139-.068-10.936-.557-15.552 1.052.062 2.386.188 3.132.188.67 0 1.954-.126 2.887-.188-.489 4.616-.539 12.35-.539 15.551 0 2.58.05 6.207.113 7.93 3.376-4.11 15.432-19.416 18.326-23.481.657.119 1.09.188 1.829.188.37 0 1.66-.126 2.348-.188-.5 4.616-.57 12.35-.57 15.551 0 2.58.07 10.88.57 15.551a21.594 21.594 0 00-2.824-.181c-1.053 0-2.274.062-3.207.181.489-4.672.557-12.97.557-15.55 0-3.201-.068-7.128-.125-8.425-4.19 4.247-15.257 18.752-18.745 23.982a7.886 7.886 0 00-1.785-.188" fill="#595959" mask="url(#t)"/></g><g transform="translate(-61.477 -61.797)"><mask id="v" fill="#fff"><use xlink:href="#u"/></mask><path d="M533.135 146.532c-.376 0-1.478.119-1.954.181.476-4.672.545-12.97.545-15.55 0-3.139-.07-10.936-.545-15.552 1.04.062 2.374.188 3.113.188.676 0 1.973-.126 2.9-.188-.495 4.616-.552 12.35-.552 15.551 0 2.58.057 6.207.12 7.93 3.381-4.11 15.42-19.416 18.313-23.481.676.119 1.108.188 1.847.188.364 0 1.666-.126 2.336-.188-.482 4.616-.55 12.35-.55 15.551 0 2.58.068 10.88.55 15.551-.92-.125-1.91-.181-2.83-.181-1.04 0-2.274.062-3.188.181.494-4.672.55-12.97.55-15.55 0-3.201-.056-7.128-.118-8.425-4.184 4.247-15.263 18.752-18.764 23.982a7.773 7.773 0 00-1.773-.188" fill="#595959" mask="url(#v)"/></g></g></svg>