<svg viewBox="0 0 154 77" xmlns="http://www.w3.org/2000/svg" xmlns:xlink="http://www.w3.org/1999/xlink"><defs><path id="a" d="M0 0h199.788v123.399H0z"/><path id="c" d="M0 0h199.788v123.399H0z"/><path id="e" d="M0 0h199.788v123.399H0z"/><path id="g" d="M0 0h199.788v123.399H0z"/><path id="i" d="M0 0h199.788v123.399H0z"/><path id="k" d="M0 0h199.788v123.399H0z"/><path id="m" d="M0 0h199.788v123.399H0z"/><path id="o" d="M0 0h199.788v123.399H0z"/><path id="q" d="M0 0h199.788v123.399H0z"/><path id="s" d="M0 0h199.788v123.399H0z"/><path id="u" d="M0 0h199.788v123.399H0z"/><path id="w" d="M0 0h199.788v123.399H0z"/><path id="y" d="M0 0h199.788v123.399H0z"/><path id="A" d="M0 0h199.788v123.399H0z"/><path id="C" d="M0 0h199.788v123.399H0z"/><path id="E" d="M0 0h199.788v123.399H0z"/></defs><g fill="none" fill-rule="evenodd"><g transform="translate(-22.785 -23.451)"><mask id="b" fill="#fff"><use xlink:href="#a"/></mask><path d="M99.893 23.504c-12.979 0-23.501 10.524-23.501 23.503 0 12.98 10.523 23.503 23.5 23.503 12.985 0 23.508-10.524 23.508-23.503 0-12.98-10.523-23.503-23.507-23.503m0 45.19c-11.978 0-21.685-9.71-21.685-21.687 0-11.979 9.707-21.687 21.685-21.687 11.98 0 21.69 9.708 21.69 21.687 0 11.978-9.71 21.688-21.69 21.688" fill="#595959" fill-rule="nonzero" mask="url(#b)"/></g><g transform="translate(-22.785 -23.451)"><mask id="d" fill="#fff"><use xlink:href="#c"/></mask><path d="M93.185 32.023c0 .054.05.097.11.097.058 0 .108-.043.108-.097 0-.054-.05-.1-.108-.1-.06 0-.11.046-.11.1" fill="#595959" mask="url(#d)"/></g><g transform="translate(-22.785 -23.451)"><mask id="f" fill="#fff"><use xlink:href="#e"/></mask><path d="M106.501 32.12c.059 0 .106-.043.106-.097 0-.054-.047-.1-.106-.1-.062 0-.11.046-.11.1 0 .054.048.097.11.097" fill="#595959" mask="url(#f)"/></g><g transform="translate(-22.785 -23.451)"><mask id="h" fill="#fff"><use xlink:href="#g"/></mask><path d="M118.375 54.085c-.036-.734.02-1.788.01-2.604-.007-.717-.223-1.617-.424-1.944.136.117.365.18.533.18-.097-.203-.365-1.013-.268-2.272.14-1.747-.205-2.397-.257-2.544.158.057.28.076.452.093-.06-.295-.115-.563-.167-.833-.181-.907-.455-2.928-.948-3.544 0 0 .102.01.175.007-.026-.389-.356-1.825-.939-2.717-.192-.294-.605-.788-.976-.959.022-.043.046-.077.06-.116.085-.227.016-.383-.22-.454-.125-.036-.263-.039-.386-.08-.37-.12-.743-.24-1.101-.39-.64-.268-1.26-.583-1.961-.668-.926-.107-1.833-.06-2.619.523-1.073.8-1.6 2.153-.972 3.68.022.054.039.107.067.155.214.363.125.676-.155.956-.504.504-1.098.847-1.817.929-.44.052-.816-.145-1.116-.456-.678-.704-1.164-1.528-1.313-2.502-.09-.59-.138-.99-.106-1.585.024-.404.134-.866.219-.963 0 0 .153.265.34.358-.23-.754.007-1.17.007-1.17s.086.244.255.414c-.074-.615.324-1.157 1.086-1.355.207-.055.577-.1.786-.16 1.408-.407 1.626-.052 1.626-.052-.052-.167-.281-.482-.477-.56.499.173 1.22.633 2.285.46.882-.14 1.08-1.116.427-1.505 0 0 .326.549-.155.929-.253.198-.847.125-1.05.075-.401-.095-1.028-.475-1.028-.475.54-.252 1.08-.05 1.572.208.086-.415-.192-.987-.587-1.216-.43-.246-.778-.317-1.531-.402 0 0-.473-.498-1.324-.665-.282-.056-.803-.043-1.254.041-.715.136-1.028.287-1.7.458-.516.13-1.772.419-2.75-.231a2.022 2.022 0 001.295 1.058c-.261.078-.747.009-1.112-.179.164.233.477.576.965.734-.14.145-.62.175-.885.03.289.348.504.482.82.544-.941 1.05-1.543 2.393-1.86 4.86-.373-2.48-.919-3.81-1.86-4.86.315-.062.531-.196.82-.544-.265.145-.745.115-.887-.03.488-.158.801-.5.97-.734-.368.188-.856.257-1.112.18.932-.236 1.3-1.063 1.291-1.06-.974.65-2.233.362-2.75.232-.669-.17-.984-.322-1.699-.458-.45-.084-.971-.097-1.256-.04-.849.166-1.322.664-1.322.664-.755.085-1.103.156-1.53.402-.396.229-.674.801-.59 1.216.494-.257 1.034-.46 1.572-.208 0 0-.624.38-1.026.475-.203.05-.795.123-1.05-.075-.483-.38-.155-.929-.155-.929-.654.389-.458 1.365.426 1.505 1.066.173 1.787-.287 2.289-.46-.201.078-.428.393-.484.56 0 0 .22-.355 1.628.052.21.06.58.105.786.16.762.198 1.16.74 1.086 1.355.169-.17.257-.414.257-.414s.235.416.006 1.17c.189-.093.34-.358.34-.358.086.097.198.559.22.963.032.596-.015.995-.104 1.585-.151.974-.637 1.798-1.317 2.502-.298.311-.674.508-1.116.456-.715-.082-1.311-.425-1.814-.929-.283-.28-.37-.593-.156-.956.028-.048.046-.101.067-.156.629-1.526.104-2.878-.972-3.68-.785-.582-1.692-.63-2.62-.522-.7.085-1.323.4-1.962.668-.358.15-.73.27-1.099.39-.125.041-.261.044-.386.08-.235.071-.305.227-.22.454.014.039.04.073.06.116-.374.171-.782.665-.976.96-.585.891-.916 2.327-.942 2.716.076.004.176-.007.176-.007-.49.616-.765 2.637-.946 3.544-.056.27-.108.538-.167.833.173-.017.292-.036.454-.093-.052.147-.4.797-.264 2.544.102 1.259-.166 2.069-.265 2.271.173 0 .4-.062.535-.179-.203.327-.416 1.227-.425 1.944-.009.816.05 1.87.009 2.604-.059 1.114-.445 1.345-.696 1.524.309.08.71.026.993-.187.212-.158.333-.164.612-.17.464-.01.835-.225 1.176-.528a.87.87 0 01.471-.2c.503-.044.728-.238 1.07-.592a.516.516 0 01.235-.11c1.889-.439 1.895-2.412 1.93-3.015.279-.037.615-.354.769-.592.023-.043.08-.1.149-.08.768.238 1.276-1.055 1.442-1.504a5.6 5.6 0 00.29-1.247c.028.348.658.953 1.228-.006 0 1.4 1.082 1.153 1.345.229.281 1.693 1.482.892 1.473-.376.009 1.929 1.18 1.65 1.127 1.067.067.278.376.615.376.615-2.764.499-1.974 1.937-3.187 2.658.423.147.803-.09.73.022a3.03 3.03 0 00-.495 1.307s-1.43 1.395-1.997 1.915c-.216.199-.454.375-.691.554a1.63 1.63 0 01-.26.156c-.017-.073-.023-.14-.032-.177-.108-.46-.233-.915-.522-1.304-.393-.529-.972-.663-1.53-.311-.222.14-.431.188-.681.188-.441.002-.817.412-.806.846.332-.224.715-.112.866.065-.702.138-1.071.777-.868 1.179a.542.542 0 01.207-.218c.296-.164.561-.067.626.097.147.365.452.473.795.514.613.071 1.211.11 1.84.19.866.112.84.698 1.006 1.104a.741.741 0 001.086.338c.076.236.007.5-.255.551.214.078.618-.062.754-.345.244-.512.138-.92-.294-1.29l-.11-.09a4.528 4.528 0 01-.408-.35c-.188-.181-.222-.397-.086-.618.13-.2.278-.4.458-.548.518-.44 1.055-.86 1.59-1.278.163-.128.342-.235.523-.337a.684.684 0 01.54-.058c.417.148.657-.04.756-.117.06-.046.635-.615 2.36-.853-.242.153-.348.393-.449.637-.086.21-.166.419-.255.628-.971 2.29-1.93 4.541-2.898 6.832-.317.756-.034 1.422.75 1.786.572.266 1.22.125 1.6-.427-.112.378-.162.706-.009 1.019.154.317.402.542.717.68a1.77 1.77 0 001.028.117c.348-.072.576-.298.75-.635.031.75.496 1.192 1.14 1.279v.013c.049.004.1.006.153.006l.048-.002.049.002c.052 0 .103-.002.153-.006v-.013c.644-.087 1.108-.53 1.138-1.279.175.337.404.563.75.635.34.069.712.02 1.026-.117a1.4 1.4 0 00.72-.68c.154-.313.102-.642-.01-1.02.384.553 1.03.694 1.602.428.784-.364 1.067-1.03.75-1.786-.97-2.29-1.928-4.543-2.898-6.832-.09-.21-.173-.418-.257-.628-.1-.244-.205-.484-.449-.637 1.725.238 2.3.807 2.36.853.102.077.341.265.756.117a.682.682 0 01.54.058c.18.102.36.21.522.337.538.419 1.075.837 1.593 1.278.18.149.33.348.456.548.14.22.104.437-.084.618-.108.108-.229.205-.345.3-.024.015-.043.033-.063.05a4.91 4.91 0 00-.112.09c-.43.37-.538.778-.294 1.29.134.283.542.423.752.345-.257-.052-.326-.315-.253-.55a.746.746 0 001.088-.339c.167-.406.138-.992 1.002-1.104.633-.08 1.234-.119 1.844-.19.342-.04.65-.149.795-.514.067-.164.328-.261.626-.097a.524.524 0 01.205.218c.206-.402-.166-1.04-.865-1.18.153-.176.533-.288.863-.064.01-.434-.365-.844-.803-.846-.251 0-.46-.048-.68-.188-.561-.352-1.138-.218-1.534.31-.286.39-.412.845-.525 1.305-.006.037-.01.104-.027.177a1.511 1.511 0 01-.26-.156c-.235-.179-.474-.355-.692-.554-.569-.52-1.998-1.915-1.998-1.915a3.03 3.03 0 00-.492-1.307c-.073-.112.307.125.73-.022-1.216-.72-.423-2.16-3.192-2.658 0 0 .312-.337.383-.615-.062.583 1.114.862 1.126-1.067-.012 1.268 1.188 2.069 1.47.376.265.924 1.346 1.17 1.344-.229.572.959 1.2.354 1.231.006.043.41.15.86.29 1.247.164.449.673 1.742 1.442 1.505.069-.022.123.036.15.08.154.237.491.554.766.591.036.603.04 2.576 1.93 3.014.08.02.18.052.238.11.34.355.565.55 1.067.592.164.016.347.09.47.201.343.303.712.518 1.182.527.274.007.397.013.606.17.284.214.685.268.994.188-.248-.179-.64-.41-.698-1.524zm-25.771-2.64s.127-.068.218-.234c.093-.169.205-.056.218.054.013.112-.17.222-.436.18zm-1.328 2.813a3.7 3.7 0 00-.389 1.144c-.06.393-.36.384-.53.326-.347-.12-.688-.114-.688-.114.952-.317 1.607-1.356 1.607-1.356zm-2.013.753c.017.08.067.35.063.512a5.02 5.02 0 00-.264-.542c-.006-.01-.006-.03.003-.052a.235.235 0 01.08-.103c.019-.018.036-.026.058-.037l.06.222zm-.598.068c.063-.106.151-.154.192-.143.14.192.246.402.288.611a13.84 13.84 0 00-.527-.278.289.289 0 01.047-.19zm-.158-.087a.548.548 0 00-.069.192c-.101-.048-.207-.092-.31-.138a.192.192 0 01-.02-.084.428.428 0 01.073-.231.511.511 0 01.184-.173c.045-.022.088-.028.12-.015.057.045.113.097.167.15.006.01.015.018.022.025.021.021.04.045.06.067a.47.47 0 00-.227.207zm.475-.626c.011-.005.022-.005.033-.005.052.097.101.197.14.296a.37.37 0 00-.099.06.336.336 0 00-.093.109 2.136 2.136 0 00-.19-.234c0-.01 0-.024.004-.038a.254.254 0 01.078-.121.255.255 0 01.127-.067zm-.343-.391c.026-.013.05-.017.065-.01.082.077.158.163.22.256a.47.47 0 00-.172.101.413.413 0 00-.104.148 1.935 1.935 0 00-.186-.141.107.107 0 01-.013-.067.34.34 0 01.19-.287zm-.617-.14c.047-.093.114-.142.162-.151.108.017.209.05.298.106.015.008.03.02.045.03a.565.565 0 00-.18.17.59.59 0 00-.084.216 2.415 2.415 0 00-.263-.142.101.101 0 01-.02-.054.347.347 0 01.042-.175zm.075.453a.162.162 0 01.035.015s.004.002.004.004c.05.026.1.054.147.087a.02.02 0 01.004.008.683.683 0 00-.261.24.605.605 0 00-.097.324 4.524 4.524 0 00-.292-.102.197.197 0 01-.023-.14.513.513 0 01.125-.261.531.531 0 01.235-.168.21.21 0 01.123-.007zm-.497.058a.706.706 0 00-.166.354.418.418 0 00-.004.102 3.59 3.59 0 00-.468-.097c.049-.413.384-.557.647-.551a.98.98 0 01.192.024.778.778 0 00-.2.168zm.297-.663a.496.496 0 00-.104.305 1.096 1.096 0 00-.434-.037c.099-.14.309-.24.538-.268zm-1.767.84c.073-.295.426-.609 1.145-.44-.383.1-.428.395-.456.542-.09-.115-.428-.229-.689-.102zm.499 1.024c-.22-.065-.43-.015-.566.121.013-.36.421-.689.803-.661-.209.086-.276.371-.237.54zm.177.103c-.09-.24.05-.69.453-.656.037.004.087.015.143.03-.149.125-.248.359-.248.633 0 .19.045.359.123.484-.238-.071-.378-.244-.471-.49zm.768.54c-.136-.062-.241-.28-.241-.533 0-.298.149-.55.324-.55.088.032.181.066.28.105-.125.119-.207.328-.207.572 0 .169.041.32.104.439l-.26-.033zm.864.104l-.343-.041c-.097-.063-.184-.237-.184-.469 0-.267.115-.46.225-.487.136.054.268.112.387.164a.705.705 0 00-.162.479.8.8 0 00.077.354zm.588.067c-.11-.011-.227-.026-.348-.04-.073-.014-.134-.2-.134-.381 0-.214.078-.4.166-.4.113.048.2.085.25.102.042.017.148.043.185.056-.13.07-.19.214-.19.363 0 .112.027.216.07.3zm.464.101a.344.344 0 01-.026-.687 1.683 1.683 0 011.157.277c-.537-.036-.816.246-.89.311a.35.35 0 01-.241.1zm.561.186c-.099-.101-.27-.132-.27-.132.197-.233.299-.302.553-.351-.324.146-.283.483-.283.483zm.143-.03c0-.22.18-.4.4-.4a.4.4 0 01.397.4.398.398 0 01-.797 0zm.965.03c.037.035.076.071.117.106.147.12.308.227.43.371.302.365.282.756.183.987-.11.264-.3.328-.3.328s.188-.224-.024-.634a.61.61 0 01-.464.216.62.62 0 01-.599-.463 30.91 30.91 0 00-.094-.328c-.011-.039-.02-.075-.033-.112a.569.569 0 00.488-.024.59.59 0 00.296-.447zm.464-1.714c-.034.082-.112.24-.26.377a2.2 2.2 0 00-.372.435s.095-1.346.963-2.143c0 0-.19.359-.25.884-.022.163-.035.339-.08.447zm.804-.976a.854.854 0 01-.065.38c-.073.164-.268.34-.268.34l-.384.363s.093-.142.125-.54c.03-.405.25-.986.641-1.41 0 0-.118.193-.05.867zm.71-.355a.63.63 0 01-.19.374c-.225.184-.438.376-.438.376s.123-.184.071-.517c-.084-.548.056-1.392.499-2.076 0 0-.22.6.002 1.355.039.132.071.35.056.488zm16.25 3.628l-.096.328a.619.619 0 01-.596.463.62.62 0 01-.468-.216c-.21.41-.022.634-.022.634s-.187-.064-.302-.328c-.097-.23-.117-.622.186-.987.12-.144.283-.25.427-.371.043-.035.082-.071.12-.106a.58.58 0 00.293.447.575.575 0 00.488.024 1.42 1.42 0 00-.03.112zm-.19-.216a.4.4 0 010-.797.398.398 0 110 .797zm.543-.367s.044-.337-.28-.483c.254.049.354.118.55.351 0 0-.166.03-.27.132zm1.376-.328c-.12.015-.238.03-.35.04a.638.638 0 00.071-.3c0-.148-.06-.293-.187-.362.036-.013.142-.039.183-.056.052-.017.138-.054.246-.102.093 0 .171.186.171.4 0 .181-.06.367-.134.38zm.013-1.241a.317.317 0 01.047.19 11.27 11.27 0 00-.526.278c.04-.21.146-.419.285-.61.04-.012.131.035.194.142zm-.071-.294c.02-.022.04-.046.062-.067.007-.007.013-.016.022-.024.051-.054.107-.106.166-.151.03-.013.075-.007.123.015a.488.488 0 01.179.173c.05.075.076.16.074.23a.165.165 0 01-.02.085c-.103.046-.207.09-.311.138a.505.505 0 00-.067-.192.491.491 0 00-.228-.207zm.643 1.468l-.345.041c.047-.1.077-.22.077-.354a.706.706 0 00-.164-.48c.12-.051.253-.11.386-.163.113.027.227.22.227.487 0 .232-.084.406-.181.469zm.516-.063l-.26.033a.919.919 0 00.107-.439c0-.244-.082-.453-.205-.572.097-.039.19-.073.276-.106.177 0 .324.253.324.551 0 .252-.106.471-.242.533zm-.024-1.844a.77.77 0 00-.2-.168.988.988 0 01.19-.024c.263-.006.598.138.65.55-.151.02-.309.055-.471.098a.387.387 0 00-.004-.102.702.702 0 00-.165-.354zm.793 1.304c-.09.247-.233.42-.469.49a.939.939 0 00.123-.483c0-.274-.099-.508-.248-.633a.962.962 0 01.14-.03c.404-.034.545.417.454.656zm.745.018a.556.556 0 00-.564-.121c.035-.169-.032-.454-.242-.54.385-.028.793.3.806.661zm-.065-1.145c-.263-.127-.603-.013-.69.102-.03-.147-.075-.443-.457-.542.722-.169 1.07.145 1.147.44zm-1.23-.572a1.099 1.099 0 00-.435.037.534.534 0 00-.101-.305c.224.028.434.128.535.268zm-.38.512a.51.51 0 01.122.261c.007.037.009.097-.023.14a5.01 5.01 0 00-.29.102.587.587 0 00-.1-.324.64.64 0 00-.26-.24l.004-.008c.05-.033.1-.061.149-.087.002-.002.002-.004.004-.004a.195.195 0 01.033-.015.217.217 0 01.125.007.528.528 0 01.235.168zm-.744-.674a.79.79 0 01.298-.106c.048.01.114.059.162.151a.32.32 0 01.039.176.13.13 0 01-.015.053 2.38 2.38 0 00-.266.143.552.552 0 00-.263-.386c.015-.01.03-.022.045-.03zm-.224.175c.017-.006.04-.002.067.01.048.02.095.066.131.12a.35.35 0 01.06.168.12.12 0 01-.016.067c-.065.043-.128.09-.182.14a.431.431 0 00-.108-.147.447.447 0 00-.17-.1c.062-.094.134-.18.218-.258zm-.307.397c.009 0 .02 0 .03.005a.23.23 0 01.125.067c.041.037.068.08.078.12a.087.087 0 01.007.04 1.942 1.942 0 00-.188.233.408.408 0 00-.097-.108.4.4 0 00-.097-.061c.04-.1.086-.199.142-.296zm-.248.65c.015-.073.034-.147.06-.222.018.01.037.02.057.037.038.03.066.067.079.103.009.022.009.041.003.052-.104.18-.186.36-.266.542a2.586 2.586 0 01.067-.512zm-.203.765a.343.343 0 01-.026.687.36.36 0 01-.244-.1c-.07-.065-.35-.347-.89-.31.49-.334.99-.301 1.16-.277zm-.203-.162s-.346-.007-.689.114c-.17.058-.473.067-.534-.326a3.527 3.527 0 00-.388-1.144s.654 1.039 1.61 1.356zm-1.326.132a2.2 2.2 0 00-.367-.435 1.128 1.128 0 01-.264-.377c-.047-.108-.06-.284-.08-.447-.061-.525-.25-.884-.25-.884.866.797.961 2.143.961 2.143zm-.842-1.244c.034.397.127.54.127.54l-.386-.363s-.195-.177-.268-.341a.827.827 0 01-.063-.38c.071-.674-.051-.866-.051-.866.39.423.608 1.004.64 1.41zm-.99-3.291c.098.166.221.233.221.233-.27.043-.447-.067-.436-.18.013-.11.123-.222.216-.053zm-.258 1.904c.224-.755.002-1.355.002-1.355.447.684.583 1.528.499 2.076-.052.333.073.517.073.517s-.218-.192-.438-.376a.63.63 0 01-.19-.374 1.55 1.55 0 01.054-.488zm11.356-6.277c-.052.972-.101 1.762.17 2.488 0 0-1.33-.74-1.5-3.531-.024-.393.034-1.403.356-1.425.123-.008.186.123.192.445l.147 2.006c.007.086.039.134.095.132v-.002c.056-.002.074-.061.078-.128l-.029-1.583c.003-.31.078-.364.186-.302.272.162.329 1.438.305 1.9zm-8.836-3.226l-.113-.481c-.056-.214-.008-.272.089-.257.246.032.469.47.523.626.149.434.05.97-.16 1.265-.339-.073-.728-.41-.879-.846-.054-.156-.15-.642.013-.842.065-.078.136-.072.223.131l.209.443c.02.04.039.104.082.086.047-.019.021-.08.013-.125zm.546-.415c-.077-.183-.242-.772-.067-1.03.072-.101.156-.097.281.143l.372.71c.03.048.058.124.11.098.051-.026.017-.097 0-.154l-.264-.764c-.089-.255-.037-.33.078-.322.298.024.604.54.684.726.223.52.16 1.196-.06 1.576-.408-.065-.912-.46-1.134-.983zm1.831-.859l-.842-2.373c-.086-.276-.048-.339.05-.309.25.082.725 1.166.87 1.548.326.866.516 2.089.35 2.426-.343-.145-.985-1.169-1.32-2.06-.127-.34-.487-1.475-.353-1.7.054-.089.125-.067.241.199l.914 2.304c.028.052.054.136.095.118.042-.015.01-.095-.005-.153zm1.229-.743l-1.058-2.148c-.115-.255-.076-.324.03-.309.268.039.762.849.946 1.203.415.799.799 2.19.654 2.544-.375-.087-1.21-1.21-1.638-2.033-.162-.315-.573-1.21-.452-1.453.048-.095.126-.086.27.158l1.16 2.084c.032.052.067.127.11.103.042-.021.004-.093-.022-.149zm1.244-.792l-1.1-1.997c-.122-.253-.08-.328.037-.328.303.006.82.727 1.02 1.073.455.777.79 2.008.697 2.535v.002c-.529-.155-1.352-1.071-1.818-1.872-.177-.305-.596-1.155-.453-1.425.056-.104.142-.104.297.13l1.216 1.94c.037.05.063.102.113.072.049-.029.014-.076-.01-.13zm1.203-.875L114.305 38c-.118-.266-.07-.341.052-.335.313.02.835.8 1.03 1.162.436.82.656 1.937.538 2.477-.542-.184-1.283-.998-1.732-1.844-.168-.322-.546-1.184-.389-1.453.063-.107.156-.104.307.144l1.062 1.838c.035.05.063.104.115.075.052-.028.017-.077-.004-.136zm.593 3.583l-.369-1.45c-.052-.228.02-.3.143-.278.309.054.615.765.712 1.097.216.75.229 1.937-.073 2.25-.422-.103-1.073-1.082-1.296-1.855-.087-.293-.164-.943.07-1.155.088-.082.18-.069.267.16l.421 1.267c.024.048.037.119.1.1.058-.015.032-.084.025-.136zm-4.7.794c.08-.073.159-.062.237.134l.373 1.08c.022.04.035.101.087.084.054-.013.032-.074.028-.116l-.298-1.182c-.043-.203.02-.255.125-.237.275.04.57.747.653 1.032.187.639.194 1.656-.074 1.93-.373-.084-.946-.915-1.138-1.572-.076-.252-.201-.97.006-1.153zm1.239.365c-.095-.252-.19-.788.002-.989.076-.075.158-.071.248.123l.458 1.123c.022.039.042.1.093.08.05-.02.026-.075.017-.118l-.397-1.219c-.056-.205.002-.26.11-.25.277.026.55.53.655.812.235.637.315 1.671.067 1.965-.379-.063-1.014-.87-1.253-1.527zm1.217-.706c-.1-.274-.174-.762.033-.98.08-.084.167-.078.268.134l.473 1.164c.024.045.043.11.1.088.053-.02.03-.084.017-.13l-.407-1.289c-.062-.224 0-.287.115-.274.3.03.566.508.68.817.255.697.348 1.824.085 2.144-.409-.07-1.098-.955-1.364-1.674zm.413 2.095c.087-.085.169-.057.248.23l.38 1.484c.02.059.035.145.09.132.055-.011.033-.095.027-.158l-.262-1.51c-.043-.29.022-.353.134-.312.288.11.588 1.149.676 1.559.199.926.143 2.131-.138 2.462-.393-.188-.93-1.236-1.136-2.19-.077-.363-.235-1.481-.02-1.697zm1.386 1.237c-.066-.372-.196-1.507.024-1.72.084-.083.169-.048.24.24l.337 1.517c.017.06.03.149.084.138.056-.009.037-.095.03-.158l-.218-1.54c-.036-.297.03-.355.139-.308.283.12.55 1.181.628 1.6.173.946.086 2.162-.199 2.485-.38-.2-.888-1.282-1.065-2.254zm2.324-4.85c.143.868.266 1.62.447 2.23 0 0-1.292-.33-1.723-2.206-.078-.34-.167-1.16.078-1.373.092-.085.196-.003.246.28l.313 1.326c.015.075.06.113.116.097.06-.013.071-.067.065-.125l-.276-1.658c-.042-.275.032-.335.15-.298.312.093.52 1.321.584 1.727zm-2.136-5.314c.273.004.91.978 1.074 1.308.267.532.435 1.113.593 1.877 0 0-.972-.214-1.704-1.464-.161-.283-.745-1.345-.615-1.594.05-.097.13-.1.272.12l1.11 1.71c.03.045.056.092.097.064.048-.026.016-.071-.006-.12l-.855-1.601c-.113-.231-.074-.302.034-.3zm-10.103 4.582c-.046-.168.021-.242.192-.212.099.018.194.06.291.076.168.026.342.067.504.045.766-.105 1.405-.466 1.94-1.014.314-.324.414-.683.174-1.098-.03-.053-.052-.114-.078-.172-.499-1.218-.25-2.423.663-3.274.65-.602 1.436-.738 2.283-.723.736.015 1.399.272 2.062.563.522.232 1.038.484 1.615.566.112.018.293.03.291.184 0 .18-.248.226-.479.226-.35.003-.944-.056-1.371-.19.105.156.274.542.28.635.024.268-.079.426-.347.45-.26.021-.548-.178-.767-.307-.192-.115-.522-.31-.598-.398.186.25.367.501.462.793.043.136.02.276-.052.352-.073.076-.245.121-.369.097-.352-.07-.773-.436-1.103-.777.16.259.324.507.406.77.054.187.065.379-.052.506-.133.142-.337.151-.5.1-.355-.113-.93-.687-.93-.687.102.101.39.533.513.814.153.345-.106.652-.477.595a1.577 1.577 0 01-.553-.185c.045.086.414.695.518.924.092.207.166.439.179.665.026.378-.177.488-.516.314-.104-.054-.2-.115-.311-.178.028.27.075.512.069.752-.011.343-.186.462-.518.375-.167-.045-.324-.114-.493-.172.004.116.016.222.013.328-.002.36-.214.52-.56.404-.174-.06-.33-.169-.504-.257l-.034.207c-.074.427-.372.583-.76.384-.055-.028-.327-.222-.41-.28-.05.125-.297.425-.757.49.222-.55.217-1.173.084-1.69zm2.556 2.414l-.054-.522c-.028-.22.028-.273.124-.242.237.065.399.527.431.688.091.452-.08.955-.328 1.22-.324-.12-.663-.49-.755-.94-.033-.163-.065-.657.125-.836.076-.067.142-.05.203.161l.157.495c.016.045.024.11.072.097.045-.01.03-.075.025-.12zm-3.597-2.966l.21.662c.018.06.038.151.085.132.05-.015.029-.104.018-.169l-.17-.88c-.091-.413-.046-.454.027-.467.279-.052.581 1.104.633 1.326.15.622.108 1.35-.134 1.715-.367-.165-.805-.767-.954-1.391-.056-.223-.145-.907.045-1.151.073-.095.153-.071.24.223zm-.404-1.594c.12.455.026 1.025-.181 1.289a1.326 1.326 0 01-.765-.892c-.043-.162-.056-.535.123-.663.074-.052.13-.048.2.166l.137.413c.017.045.032.11.073.1.043-.012.024-.077.016-.124l-.152-.75c-.045-.222.002-.271.09-.243.228.071.416.542.459.704zm-7.703 3.143c.055.013.067-.075.083-.133l.22-.974c.063-.29.147-.317.237-.229.23.225.208.894.173 1.112-.095.615-.505 1.229-.887 1.41-.298-.339-.497-1.092-.406-1.708.037-.216.272-1.077.555-1.185.108-.041.177.021.15.32l-.161 1.226c-.005.063-.022.149.036.161zm.067-6.713l-.144-.663c-.048-.213.004-.254.086-.233.23.059.397.56.432.722.071.35.089.706-.116 1.053-.223-.084-.547-.25-.702-.698-.054-.155-.136-.537.037-.656.07-.05.125-.045.2.16l.119.337c.02.043.034.106.076.095.04-.01.02-.074.012-.117zm1.02-.427l-.162-.678c-.054-.218-.009-.27.077-.247.227.065.432.525.482.685.143.454.074 1.024-.116 1.296-.31-.115-.692-.55-.832-.998-.052-.162-.142-.657.007-.84.058-.067.123-.052.207.16l.25.648c.018.043.035.11.076.097.04-.013.02-.078.01-.123zm.622 2.39l-.1-.801c-.032-.257.028-.31.125-.272.258.103.432.659.47.848.105.538-.053 1.186-.31 1.471-.345-.168-.73-.714-.833-1.25-.037-.19-.078-.773.12-.961.079-.074.154-.045.219.205l.205.78c.015.052.026.13.075.118.052-.008.033-.082.029-.138zm3.664.138c.05.011.063-.066.078-.118l.202-.78c.07-.25.141-.279.219-.205.196.188.157.77.12.96-.101.537-.488 1.083-.833 1.251-.257-.285-.413-.933-.31-1.47.04-.19.217-.746.47-.85.099-.038.155.016.125.273l-.097.801c-.006.056-.021.13.026.138zm.605-2.405c.04.013.06-.054.077-.097l.253-.648c.08-.212.147-.227.205-.16.149.183.056.678.007.84-.14.449-.523.883-.832.998-.192-.272-.257-.842-.118-1.296.05-.16.257-.62.483-.685.09-.023.132.029.078.247l-.162.678c-.009.045-.032.11.009.123zm1.021.421c.041.01.06-.052.076-.095l.12-.337c.076-.205.13-.21.201-.16.171.12.09.501.039.656-.158.448-.481.614-.706.698-.203-.347-.188-.704-.115-1.053.03-.163.203-.663.432-.722.085-.021.134.02.086.233l-.144.663c-.01.043-.028.106.011.117zm-1.525 6.906l-.066-1.296c-.013-.315.066-.38.19-.333.315.123.481.804.51 1.035.073.654-.2 1.444-.56 1.794-.423-.207-.857-.87-.931-1.524-.026-.234-.013-.944.261-1.175.106-.089.2-.056.257.255l.203 1.27c.013.064.02.157.084.144.063-.01.052-.103.052-.17zm-.192-2.834c-.03-.196-.05-.79.182-.98.09-.073.17-.045.233.214l.205.894c.015.052.024.131.082.123.054-.009.039-.086.034-.145l-.084-.911c-.021-.266.046-.318.156-.279.278.11.449.678.481.875.09.548-.117 1.21-.417 1.496-.377-.176-.783-.738-.872-1.287zm.927-2.31c-.015-.147.004-.592.194-.728.074-.05.136-.023.171.17l.11.608c.008.04.013.1.054.097.043-.007.034-.065.036-.106l-.01-.616c-.007-.2.051-.237.131-.2.216.093.322.527.335.673.04.417-.156.9-.408 1.106-.285-.151-.572-.59-.613-1.004zm-1.097 2.49c0 .492-.285 1.04-.607 1.25h-.002a1.35 1.35 0 01-.605-1.104c0-.172.102-.554.344-.634.101-.03.166-.013.183.222l.024.48c.007.05.005.12.054.12h.002c.052 0 .05-.07.056-.12l.056-.825c.018-.236.087-.272.18-.219.241.132.315.655.315.83zm-.495 5.27c.011.068.013.16.085.154.069-.004.058-.095.062-.162V44.46c0-.315.09-.371.218-.311.335.155.48.842.497 1.075.048.657-.285 1.412-.689 1.721-.445-.248-.88-.95-.924-1.606-.015-.234.03-.935.339-1.136.119-.076.216-.035.259.278l.153 1.156zm-.643.91c.395.192.516.948.516 1.203 0 .712-.473 1.507-1 1.811-.525-.304-.995-1.099-.995-1.811 0-.255.116-1.011.514-1.203.153-.078.27-.024.298.317l.094 1.328c.01.073.005.175.089.175.087 0 .082-.102.093-.175l.092-1.328c.031-.34.148-.395.299-.317zm-.784-1.207c-.046.656-.48 1.358-.924 1.606-.406-.309-.736-1.064-.69-1.72.016-.234.16-.92.495-1.076.13-.06.22-.004.22.311v1.168c.005.067-.004.158.063.162.07.006.071-.086.087-.153l.149-1.156c.045-.313.142-.354.26-.278.308.2.357.902.34 1.136zm-2.116-4.902c.054.008.065-.071.08-.123l.205-.894c.06-.26.14-.287.23-.214.232.19.214.784.185.98-.091.549-.495 1.11-.875 1.287-.3-.287-.505-.948-.419-1.496.035-.197.207-.764.486-.875.11-.039.177.013.15.279l-.081.911c-.002.059-.017.137.039.145zm-.125 1.989c.025-.231.194-.911.51-1.034.118-.048.202.017.19.332l-.068 1.296c0 .067-.013.16.05.17.065.013.071-.08.089-.144l.202-1.27c.057-.311.147-.343.253-.255.279.231.29.942.261 1.175-.073.654-.505 1.317-.93 1.525-.36-.351-.629-1.141-.557-1.795zm1.6-.81c-.32-.21-.605-.758-.605-1.25 0-.175.071-.698.313-.83.093-.053.164-.017.18.219l.058.824c.004.05.002.121.054.121.051 0 .05-.07.056-.12l.028-.48c.017-.235.078-.253.18-.222.243.08.342.462.342.634 0 .495-.287.895-.606 1.104zm-2.725-3.842c.015-.146.118-.58.332-.674.084-.036.143 0 .136.201l-.01.616c0 .04-.012.1.034.106.045.004.05-.056.058-.097l.106-.607c.035-.194.097-.22.173-.17.192.135.207.58.194.727-.043.415-.328.853-.615 1.004-.253-.205-.45-.689-.408-1.106zm-.065 7.19c.024-.232.196-.91.524-1.033.128-.046.214.02.2.335l-.037.96c.002.067-.013.16.053.171.067.013.074-.08.089-.145l.184-.937c.056-.309.153-.341.263-.25.29.233.306.943.279 1.176a1.662 1.662 0 01-.931 1.33c-.378-.35-.7-.95-.624-1.606zm1.14 1.575c.136-.065.255-.02.28.313l.076 1.119c.01.07.007.168.089.168.082 0 .077-.099.086-.168l.101-.84c.027-.335.137-.385.283-.311.376.188.415.764.415 1.01 0 .698-.371 1.354-.87 1.652-.503-.298-.95-1.07-.95-1.766 0-.248.11-.993.49-1.177zm1.034 5.876l-.32-.682c-.105-.223-.06-.294.05-.294.285-.003.562.335.655.492.252.447.291 1.116.112 1.473a1.412 1.412 0 01-1.116-.691c-.091-.16-.326-.73-.18-.972.057-.097.14-.1.276.106l.424.626c.03.041.065.106.11.078.048-.026.01-.089-.01-.136zm-.196-2.149c-.028-.188-.037-.835.224-1.02.1-.072.188-.046.246.204l.182.773c.013.052.023.128.082.119.062-.011.048-.085.048-.138l-.05-.79c-.015-.26.058-.31.175-.27.304.101.484.723.51.91.08.534-.193 1.02-.532 1.3-.408-.17-.805-.557-.885-1.088zm1.407 1.01c.115-.055.201-.014.225.243l.067.79c.01.056.007.131.071.131.065 0 .063-.075.07-.13l.069-.791c.021-.257.11-.298.224-.242.298.147.391.79.391.98 0 .54-.356 1.43-.753 1.656-.398-.226-.754-1.116-.754-1.656 0-.19.09-.833.39-.98zm.756-1.221c.029-.188.208-.81.51-.911.119-.04.194.01.175.27l-.048.79c-.002.053-.018.127.046.138.062.009.069-.067.086-.119l.18-.773c.057-.25.144-.276.247-.205.257.186.251.833.22 1.021-.075.531-.476.918-.882 1.089-.342-.281-.611-.767-.534-1.3zm.838 1.876c.091-.157.37-.495.655-.492.107 0 .153.071.05.294l-.322.682c-.02.047-.059.11-.011.136.047.028.08-.037.11-.078l.423-.626c.136-.205.218-.203.279-.106.146.242-.091.812-.178.972a1.419 1.419 0 01-1.118.691c-.181-.357-.143-1.026.112-1.473zm.089-4.1c0-.247.038-.823.414-1.011.147-.074.255-.024.285.31l.1.84c.008.07.004.17.088.17.08 0 .076-.1.084-.17l.076-1.118c.028-.332.145-.378.283-.313.38.184.488.929.488 1.177 0 .696-.447 1.468-.945 1.766-.5-.298-.873-.954-.873-1.651zm.915-2.59c-.028-.233-.012-.943.277-1.177.112-.09.21-.058.263.251l.184.937c.017.065.023.158.09.145.067-.01.054-.104.054-.17l-.038-.961c-.013-.316.07-.38.198-.335.33.123.501.8.529 1.034.074.657-.248 1.257-.626 1.606a1.665 1.665 0 01-.93-1.33zm1.486-1.345c-.382-.181-.792-.795-.888-1.41-.03-.218-.056-.887.178-1.112.086-.088.172-.06.233.229l.222.974c.016.058.026.146.082.133.056-.012.039-.098.036-.161l-.163-1.227c-.024-.298.045-.36.155-.32.281.109.516.97.551 1.186.095.616-.103 1.37-.406 1.708zm.523-8.34a.887.887 0 01-.417-.66c-.017-.11.01-.358.138-.425.059-.028.09-.02.12.129l.042.24c.008.03.013.073.043.071.026-.004.02-.05.02-.082l-.024-.46c-.007-.151.026-.179.084-.153.145.069.225.395.236.507.04.311-.08.68-.242.834zm.526-.815c-.338-.527-.34-.974-.34-.974s-.52.65-1.534.639c.052-.976.709-1.427.709-1.427s-.67-.06-1-.439c.296-.073.557-.207.708-.283.054-.027.097-.065.164-.04.063.02.093.157.023.179-.04.013-.114.026-.114.026a.12.12 0 00-.093.14.12.12 0 00.143.09l.046-.01s.051-.009.095.013a.221.221 0 01.073.088c.074.136.15.262.24.367.021.03.032.054.03.104 0 .058-.058.119-.058.119l-.445.488c-.041.039-.028.067-.02.08.011.006.041.03.089-.007l.548-.397s.055-.048.123-.046a.185.185 0 01.124.044c.11.081.222.146.332.203.056.026.102.043.118.095.016.045-.01.103-.01.103l-.028.056a.116.116 0 00.056.158c.06.03.132.004.158-.054l.034-.073s.022-.076.093-.097c.065-.02.104-.007.164.004.218.043.389.047.462.052-.112.021-.769.2-.89.799zm.44-1.1c-1.122-.181-1.485-1.286-1.55-1.511.436.566 1.007.337 1.223.214.4-.23.65-.538.916-.266.118.125.228.311.505.37.287.062.468-.014.615-.146.146-.129.296-.345.507-.217.24.148.018.617-.455 1.064-.544.512-1.23.577-1.76.492zm1.082-1.598c0-.14.126-.254.282-.254.153 0 .278.114.278.254 0 .143-.125.257-.278.257-.156 0-.282-.114-.282-.257zm1.75 1.7s-.35-.102-.976.093c-.626.192-.92.07-.92.07.428-.049.76-.207 1.004-.282.682-.205.892.119.892.119zm.86-.384c.434.2 1.081.35 1.574.118.41-.19.351-.654.351-.654.108.339-.084.751-.52.875-.796.226-1.598-.16-1.978-.35-.419-.207-.7-.076-.7-.076s.096-.106.327-.185c.297-.107.447.043.945.272zm-.892-1.644c.056.044.045.197.14.195.058-.003.056-.078.138-.11.155-.065 1.371.071 1.492 1.044 0 0-.393-.27-1.13-.176-.718.086-1.565.645-1.565.645s.674-.516.645-1.252c-.01-.315.182-.423.28-.346zm-6.574-.15s.832.384 2.464-.105c1.63-.488 2.104-.565 2.777-.392.784.2 1.007.609.89.779-.115.162-.397.078-.702-.047-.211-.085-.479-.2-.714-.214-.333-.026-.555.015-1.048.393-.475.369-1.01.483-1.362-.052 0 0-1.577.354-2.305-.363zm.085.725s.367.084.758-.055c.172-.075.241.005.233.072-.013.115-.564.248-.991-.017zm0 .674s.298.051.602-.085c.125-.065.22-.01.21.06-.013.104-.428.242-.812.025zm.628.32c.097-.122.427-.45.65-.402.078.017.105.073-.028.237l-.374.475c-.026.037-.069.082-.039.108.033.026.072-.021.106-.052l.35-.343c.128-.13.2-.128.242-.054.1.177-.24.574-.35.686-.324.318-.674.326-.903.305-.03-.387.136-.684.346-.96zm-1.149 1.821c.074-.15.223-.522.439-.52.09 0 .133.035.069.25l-.11.35c-.011.046-.037.106.004.121.043.018.063-.045.084-.088l.29-.633c.097-.205.162-.21.217-.142.156.18-.032.689-.088.848-.164.475-.548.944-.972 1.238-.134-.201-.134-1 .067-1.424zm-.639 2.194c.028-.127.162-.494.356-.552.078-.024.121.015.1.187l-.071.536c-.005.034-.02.086.019.095.037.006.046-.043.059-.078l.153-.516c.05-.168.108-.186.166-.134.156.136.123.527.097.655-.078.356-.37.71-.632.811-.201-.203-.325-.645-.247-1.004zm-.065 1.771c.048-.192.186-.417.314-.49.38-.216.686.246.457.557-.243.335-.684.29-.857.868 0-.317.028-.704.086-.935zm-.356 4.051c.009.075.007.181.08.181.077 0 .071-.106.081-.18l.082-1.357c.027-.36.128-.417.262-.337.347.203.456 1 .456 1.268 0 .751-.417 1.585-.881 1.906-.463-.321-.877-1.155-.877-1.906 0-.268.103-1.065.453-1.268.134-.08.238-.024.262.337l.082 1.356zm-.093-3.116c-.17-.579-.61-.533-.855-.868-.233-.311.076-.773.458-.557.125.073.261.298.313.49.056.231.084.618.084.935zm-.549-2.535l-.07-.536c-.027-.172.019-.211.097-.187.194.058.328.425.354.552.08.359-.044.801-.242 1.004-.268-.101-.561-.455-.637-.811-.028-.128-.056-.519.097-.655.06-.052.117-.034.166.134l.156.516c.01.035.02.084.058.078h.002c.035-.009.024-.06.02-.095zm-.654-2.285l-.11-.35c-.067-.215-.024-.25.067-.25.218-.002.367.37.44.52.2.424.2 1.223.065 1.424-.423-.294-.805-.763-.971-1.238-.054-.16-.242-.667-.087-.848.054-.068.123-.063.216.142l.292.633c.021.043.043.106.084.088.041-.015.015-.075.004-.12zm-.406-.941c-.23.021-.578.013-.902-.305-.112-.112-.45-.51-.352-.686.04-.074.114-.076.24.054l.356.343c.03.03.071.078.104.052.03-.026-.013-.071-.04-.108l-.375-.475c-.132-.164-.106-.22-.024-.237.22-.048.553.28.648.403.21.275.376.572.345.959zm.281-1.28c-.384.217-.797.08-.81-.024-.01-.072.082-.126.208-.06.308.135.602.084.602.084zm.002-.674c-.427.265-.98.132-.993.017-.007-.067.063-.147.235-.072.391.139.758.055.758.055zm-5.159-1.222c.676-.173 1.147-.096 2.78.392 1.632.489 2.461.104 2.461.104-.725.717-2.302.363-2.302.363-.351.535-.887.42-1.364.052-.493-.378-.71-.42-1.046-.393-.235.015-.502.13-.712.214-.307.125-.594.209-.704.047-.118-.17.106-.579.887-.78zm.387.975c0 .143-.125.257-.278.257-.154 0-.281-.114-.281-.257 0-.14.127-.254.28-.254.154 0 .28.114.28.254zm-2.356.625c-.74-.093-1.133.176-1.133.176.12-.973 1.336-1.109 1.496-1.044.078.032.078.107.136.11.093.002.084-.151.14-.195.095-.077.29.03.28.346-.03.736.643 1.252.643 1.252s-.845-.56-1.562-.645zm.32.68c-.38.19-1.181.576-1.98.35-.437-.124-.627-.536-.52-.875 0 0-.057.464.353.654.493.231 1.14.083 1.575-.118.498-.23.645-.379.945-.272.231.08.327.185.327.185s-.283-.131-.7.076zm1.263.488c-.626-.195-.976-.093-.976-.093s.21-.324.89-.119c.244.075.576.233 1.006.283 0 0-.298.121-.92-.071zm.093-.687c-.473-.447-.695-.916-.451-1.064.207-.128.358.088.505.217.149.132.328.208.613.145.279-.058.387-.244.508-.369.26-.272.513.037.913.266.218.123.788.352 1.224-.214-.064.225-.427 1.33-1.55 1.511-.531.085-1.218.02-1.762-.492zm2.202 1.592c-.118-.599-.777-.778-.89-.8.074-.004.243-.008.46-.051.063-.011.104-.024.167-.004.071.02.095.097.095.097l.032.073a.114.114 0 00.156.054.117.117 0 00.058-.158l-.026-.056s-.03-.058-.015-.103c.017-.052.065-.07.119-.095.112-.057.222-.122.334-.203a.191.191 0 01.126-.044.204.204 0 01.123.046l.546.397c.048.037.08.013.084.006.013-.012.029-.04-.017-.08l-.442-.487s-.059-.061-.061-.12a.128.128 0 01.035-.103c.086-.105.164-.23.235-.367a.187.187 0 01.078-.088c.04-.022.092-.013.092-.013l.046.01a.117.117 0 00.14-.09.116.116 0 00-.088-.14s-.078-.013-.115-.026c-.071-.022-.04-.158.022-.18.065-.024.108.014.166.041.147.076.41.21.704.283-.326.378-1 .439-1 .439s.657.45.71 1.427c-1.016.01-1.532-.64-1.532-.64s-.002.448-.342.975zm.525.816c-.162-.154-.278-.523-.244-.834.015-.112.095-.438.24-.507.054-.026.09.002.084.153l-.024.46c0 .032-.006.078.022.082.03.002.032-.04.039-.071l.045-.24c.026-.149.063-.157.117-.13.132.068.155.316.142.426a.896.896 0 01-.421.66zm.048 4.01c.043-.162.23-.633.46-.704.088-.028.136.021.092.244l-.155.749c-.007.047-.026.112.017.123.041.01.056-.054.074-.1l.136-.412c.073-.214.127-.218.203-.166.177.128.164.501.12.663a1.335 1.335 0 01-.764.892c-.205-.264-.307-.834-.183-1.29zm-1.205 2.198c.052-.222.352-1.378.632-1.326.072.013.12.054.026.466l-.17.881c-.009.065-.033.154.017.169.05.02.067-.071.09-.132l.208-.662c.089-.294.164-.318.24-.223.188.244.099.928.047 1.15-.149.625-.59 1.227-.959 1.392-.241-.366-.282-1.093-.131-1.715zm-9.883-5.295c.578-.082 1.092-.334 1.614-.566.661-.291 1.326-.548 2.065-.563.842-.015 1.632.12 2.28.723.916.851 1.16 2.056.661 3.274-.024.058-.045.119-.076.172-.24.415-.14.774.175 1.098.536.548 1.173.909 1.937 1.014.164.022.335-.019.503-.045.1-.015.197-.058.292-.076.172-.03.237.044.196.212-.136.518-.142 1.14.083 1.69-.459-.064-.707-.364-.756-.49-.087.059-.359.253-.41.281-.39.199-.687.043-.765-.384a7.574 7.574 0 00-.032-.207c-.173.088-.329.196-.503.257-.344.116-.56-.043-.562-.404 0-.106.009-.212.015-.328-.168.058-.328.127-.494.172-.331.087-.506-.032-.514-.375-.009-.24.038-.482.062-.752-.105.063-.205.124-.306.178-.341.174-.54.064-.516-.314a1.94 1.94 0 01.179-.665c.101-.229.475-.838.518-.924-.18.097-.341.153-.553.185-.373.057-.63-.25-.481-.595.125-.281.414-.713.514-.814 0 0-.57.574-.927.686-.164.052-.371.043-.5-.1-.122-.126-.11-.318-.052-.505.082-.263.244-.511.403-.77-.328.34-.751.706-1.1.777-.124.024-.297-.021-.368-.097-.073-.076-.1-.216-.054-.352.095-.292.276-.542.462-.793-.078.089-.406.283-.598.398-.218.13-.508.328-.767.306-.267-.023-.373-.181-.347-.449.008-.093.175-.479.283-.634a5.258 5.258 0 01-1.376.19c-.229 0-.48-.046-.48-.227-.001-.154.182-.166.295-.184zm7.112 7.778c.05.013.059-.052.072-.097l.157-.495c.06-.211.13-.228.205-.161.19.179.158.673.125.835-.092.451-.433.82-.76.942-.243-.266-.416-.769-.323-1.22.03-.162.194-.624.434-.69.09-.03.149.022.118.243l-.054.522c-.002.046-.02.11.026.121zm-7.236-4.185c.05.029.076-.026.113-.075l1.062-1.838c.153-.248.242-.25.304-.144.16.27-.216 1.131-.388 1.453-.447.846-1.188 1.66-1.73 1.844-.118-.54.102-1.657.538-2.477.19-.363.717-1.142 1.03-1.162.12-.006.17.07.052.335l-.979 1.928c-.021.059-.054.108-.002.136zm1.194.868c.052.03.078-.021.113-.071l1.216-1.94c.155-.234.244-.234.3-.13.142.27-.279 1.12-.456 1.425-.464.8-1.287 1.716-1.814 1.872h-.002v-.002c-.09-.527.244-1.758.695-2.536.199-.345.72-1.066 1.022-1.073.116 0 .16.076.034.328l-1.097 1.998c-.023.054-.058.101-.01.13zm1.234.812c.04.024.075-.051.11-.103l1.16-2.084c.142-.244.22-.253.267-.158.123.242-.287 1.138-.451 1.453-.426.823-1.264 1.946-1.637 2.033-.145-.355.24-1.745.654-2.544.184-.354.68-1.164.948-1.203.106-.015.14.054.024.309l-1.056 2.148c-.022.056-.063.128-.02.15zm1.243.747c.041.018.07-.066.095-.118l.918-2.304c.114-.266.185-.288.24-.199.131.225-.23 1.36-.354 1.7-.335.891-.974 1.915-1.322 2.06-.166-.337.026-1.56.35-2.426.144-.382.622-1.466.87-1.548.1-.03.14.033.052.309l-.842 2.373c-.016.058-.05.138-.007.153zm-4.033-.708c.118-.021.19.05.14.279l-.37 1.449c-.008.052-.032.12.027.136.06.019.077-.052.099-.1l.419-1.267c.088-.229.177-.242.268-.16.233.212.155.862.071 1.155-.223.773-.875 1.752-1.298 1.855-.298-.313-.287-1.5-.071-2.25.095-.332.402-1.043.715-1.097zm-.42 3.682c.108-.047.174.01.139.309l-.22 1.54c-.005.062-.024.148.03.157.054.01.067-.078.084-.138l.339-1.516c.071-.29.153-.324.24-.242.22.214.09 1.35.026 1.721-.182.972-.687 2.054-1.067 2.254-.287-.323-.371-1.54-.2-2.485.075-.419.35-1.48.63-1.6zm.728 2.019c.087-.41.39-1.45.676-1.559.112-.041.175.021.134.313l-.261 1.51c-.007.062-.028.146.026.157.056.013.069-.073.088-.132l.38-1.483c.08-.288.164-.316.246-.231.22.216.061 1.334-.017 1.697-.2.954-.74 2.002-1.133 2.19-.279-.33-.337-1.535-.139-2.462zm.344-1.846c-.266-.32-.17-1.447.084-2.144.114-.31.38-.787.678-.817.117-.013.175.05.117.274l-.406 1.29c-.011.045-.04.11.015.129.058.022.075-.043.101-.088l.473-1.164c.102-.212.188-.218.268-.134.207.218.13.706.03.98-.265.72-.952 1.604-1.36 1.674zm1.395-1.406c.106-.283.375-.786.654-.812.108-.01.164.045.108.25l-.393 1.219c-.011.043-.035.099.015.118.054.02.071-.041.093-.08l.458-1.123c.09-.194.172-.198.246-.123.194.201.1.737.006.99-.244.656-.877 1.463-1.254 1.526-.249-.294-.17-1.328.067-1.965zm1.22.868c.082-.285.375-.991.65-1.032.107-.018.168.034.127.237l-.296 1.182c-.008.042-.028.103.024.116.054.017.067-.043.084-.084l.378-1.08c.078-.196.155-.207.238-.134.207.184.082.9.008 1.153-.196.657-.769 1.488-1.14 1.573-.268-.275-.263-1.292-.073-1.93zm1.41-2.496c.077-.186.384-.702.682-.726.115-.009.166.067.08.322l-.266.764c-.015.057-.05.128 0 .154.054.026.082-.05.113-.097l.373-.711c.121-.24.21-.244.277-.143.177.258.013.847-.065 1.03-.223.523-.726.918-1.138.983-.218-.38-.279-1.056-.056-1.576zm1.244.896c.051-.155.274-.594.52-.626.097-.015.144.043.088.257l-.112.48c-.01.046-.034.107.009.126.045.018.064-.045.084-.086l.21-.443c.088-.203.16-.209.224-.131.164.2.065.686.013.842-.151.436-.542.773-.879.846-.21-.296-.31-.831-.157-1.265zM83.1 38.44c.165-.33.8-1.304 1.076-1.308.106-.002.144.069.032.3l-.855 1.6c-.022.05-.054.095-.01.121.045.028.07-.02.103-.065l1.107-1.71c.145-.218.223-.216.273-.119.127.249-.454 1.311-.618 1.594-.73 1.25-1.702 1.464-1.702 1.464.156-.764.325-1.345.594-1.877zm-1.509 6.237c.181-.612.302-1.363.447-2.23.067-.407.27-1.635.583-1.728.119-.037.19.023.151.298l-.276 1.658c-.004.058.002.112.063.125.062.016.103-.022.116-.097l.315-1.326c.048-.283.154-.365.246-.28.242.213.156 1.034.076 1.373-.43 1.876-1.721 2.207-1.721 2.207zm-.037 4.649c.273-.726.225-1.516.173-2.488-.026-.462.033-1.738.307-1.9.106-.062.179-.009.181.302l-.026 1.583c.002.067.022.126.078.128v.002c.058.002.09-.046.093-.132l.147-2.006c.006-.322.07-.453.194-.445.322.022.38 1.032.358 1.425-.174 2.79-1.505 3.53-1.505 3.53zm-.315 6.016c.51-.851.397-2.015.343-3.196-.025-.56.046-2.11.357-2.309.118-.077.203-.012.203.368l-.02 2.017c.002.08.022.15.089.155.065.004.1-.054.103-.16l.08-2.386c.009-.389.082-.55.223-.54.365.026.39 1.24.375 1.717-.142 3.982-1.753 4.334-1.753 4.334zm.98-.402c.586-.693.802-1.865.948-2.965.07-.505.07-1.982.376-2.116.121-.051.244.003.227.376l-.106 2.05c-.009.073-.004.14.054.153.058.01.1-.037.121-.13l.21-1.924c.01-.382.124-.442.248-.417.326.08.3 1.253.226 1.683-.546 3.221-2.304 3.29-2.304 3.29zm1.44-.633c.504-.518.858-1.524 1.044-2.418.082-.397.306-1.503.561-1.592.095-.036.229.015.156.31l-.39 1.69c-.01.056-.01.11.035.125.048.011.083-.021.104-.097l.42-1.587c.068-.274.146-.376.245-.345.253.077.046.975-.037 1.312-.61 2.53-2.137 2.602-2.137 2.602zm3.169-2.507c-.437 1.706-1.661 1.73-1.661 1.73.397-.367.65-.974.803-1.63.067-.294.253-1.108.45-1.164.077-.022.18.022.12.235l-.356 1.326c-.009.041-.007.082.028.093.034.01.063-.013.08-.067l.38-1.246c.056-.203.119-.274.194-.248.197.067.026.726-.038.971zm.237-3.664c-.151.922-.609 1.954-.96 2.153-.27-.3-.368-1.451-.22-2.347.068-.4.308-1.406.567-1.527.101-.048.16.009.131.291l-.181 1.436c-.005.061-.02.143.032.152.05.008.06-.076.073-.134l.294-1.419c.065-.276.139-.309.22-.231.208.196.102 1.274.044 1.626zm.259 2.248c-.2-.266-.222-1.26-.056-2.025.073-.344.261-1.03.477-1.128.084-.037.13.015.09.257l-.14.976c-.008.05-.023.121.016.13.04.008.056-.063.07-.112l.362-1.45c.064-.24.129-.265.187-.196.158.175-.056 1.423-.12 1.723-.167.793-.59 1.667-.886 1.825zm1.926-1.637c-.678 1.542-1.472 1.596-.77-.265.084-.225.304-.726.461-.776.074-.021.113.026.074.19l-.246.819c-.004.036-.024.082.01.092.037.011.048-.034.063-.069l.516-1.246c.065-.157.121-.168.17-.112.132.145-.142 1.054-.278 1.367zm.6-2.645c-.17.708-.583 1.233-.937 1.347-.257-.263-.39-.94-.222-1.628.074-.305.345-1.112.605-1.177.101-.026.16.024.125.245l-.214 1.107c-.004.045-.024.11.026.123.052.011.063-.054.08-.097l.298-1.01c.07-.212.145-.23.224-.16.201.177.08.98.016 1.25zm.456 1.494c-.337-.084-.445-.816-.3-1.431.067-.275.294-.94.553-.994.099-.024.16.022.13.22l-.19 1.076c-.003.04-.02.095.03.108.051.013.062-.046.077-.084l.294-.988c.06-.187.136-.202.216-.14.207.165.117.834.06 1.078-.15.633-.537 1.24-.87 1.155zm2.09-.752c-.112.603-.436 1.281-.79 1.205-.354-.073-.43-.829-.322-1.414.05-.261.247-.956.488-1.02.093-.023.152.018.134.206l-.144 1.041c0 .039-.013.093.032.102.05.008.058-.046.071-.082l.238-.964c.05-.181.119-.196.196-.14.203.145.143.836.097 1.066zm.093-2.424c.017-.162.13-.635.348-.724.084-.034.14.011.132.231l-.024.68c0 .048-.009.11.037.12.043.006.05-.059.06-.102l.117-.665c.036-.214.101-.238.175-.177.192.162.203.656.183.818-.045.456-.343.963-.637 1.11-.248-.244-.438-.833-.39-1.291zm1.203 2.636c-.052.585-.313 1.252-.654 1.225-.34-.033-.475-.758-.421-1.326.021-.253.149-.868.37-.946.087-.035.146 0 .146.18l-.052 1.02c.004.037-.002.091.045.095.046.003.048-.049.056-.084l.136-.941c.033-.177.098-.197.178-.151.203.12.22.706.196.928zm.07-2.571c.075-.379.468-.663.666-.685-.222.55-.332 1.326.247 2.209-.076-.039-.497-.127-.705-.417-.25-.345-.306-.615-.209-1.107zm.822 3.99c-.246.024-.492-.451-.549-1.06-.056-.61.1-1.12.348-1.145.14-.01.28.136.386.378-.04.222-.049.488-.023.771.023.25.071.48.134.674-.063.224-.164.371-.296.382zm-.112-3.857c.006-.205.107-.818.397-.967.11-.058.194-.015.205.266l.045.51c.007.058 0 .14.063.142.063.002.06-.08.07-.138l.086-.506c.028-.278.114-.32.222-.255.28.167.347.784.341.991-.015.581-.371 1.219-.756 1.454-.371-.257-.689-.911-.673-1.497zm.486 2.83c-.03-.238-.074-.96.241-1.178.117-.078.227-.047.29.27l.166.721c.015.067.024.162.097.154.074-.009.056-.104.056-.173l.026-.473c.017-.313.078-.384.216-.328.359.14.432.73.462.967.082.672-.147 1.307-.56 1.645-.48-.23-.91-.934-.994-1.606zm-.094 2.299c.011-.15.098-.531.286-.575.073-.02.125.003.131.108v.551c.003.022-.002.054.04.056.036.002.038-.028.045-.05l.086-.541c.02-.106.078-.117.144-.089.18.073.206.48.195.613-.028.348-.218.747-.516.72-.296-.029-.439-.454-.41-.793zm-.96.157c.008-.114.077-.404.237-.436.06-.013.106.005.11.084l.004.422c.003.015-.002.038.033.04.032.005.032-.021.037-.036l.069-.413c.02-.08.065-.088.123-.066.151.058.173.367.166.468-.021.266-.181.568-.428.544-.25-.021-.373-.35-.352-.607zm-.702.918c.01-.127.084-.447.252-.486.065-.013.113.005.117.093l.004.467c.002.017-.002.043.035.047.034.003.034-.026.041-.043l.073-.458c.02-.088.07-.099.132-.074.16.064.184.407.173.52-.024.293-.19.63-.456.606-.265-.024-.393-.387-.371-.672zm.404 2.708c-.266.125-.305-.114-.22-.266.081-.149.407-.123.703.17 0 0-.218-.027-.483.096zm.591-1.192c-.028.36-.235.773-.564.743-.325-.03-.483-.473-.457-.825.013-.156.106-.549.31-.594.083-.017.141.004.146.113l.004.572c.004.023-.003.054.043.058.043.004.043-.028.05-.052l.093-.564c.023-.105.084-.118.162-.088.196.078.224.499.213.637zm-.026-1.174c.024-.165.147-.575.37-.61.086-.015.147.013.144.13l-.037.605c.005.026-.004.058.042.064.05.007.05-.028.06-.051l.136-.59c.03-.112.095-.121.175-.084.203.097.205.544.184.687-.054.382-.305.805-.646.751-.344-.054-.482-.533-.428-.902zm.877 1.75c-.069.307-.287.642-.533.582-.249-.061-.311-.46-.242-.76.028-.132.153-.46.32-.48.064-.007.105.02.095.114l-.074.49c0 .022-.008.05.026.057.032.008.037-.02.048-.04l.144-.474c.032-.09.082-.095.136-.06.143.088.106.453.08.571zm.607-.058c-.302-.006-.482-.367-.482-.663 0-.129.059-.466.247-.516.073-.021.13-.006.142.087l.043.477c.002.017 0 .045.041.045.044 0 .041-.026.044-.045l.047-.477c.015-.093.069-.106.14-.087.188.052.246.404.246.52-.002.303-.166.664-.468.66zm.229-1.345c-.266-.024-.393-.354-.374-.613.009-.117.082-.408.249-.443.067-.013.11.004.118.087l.005.423c.004.017-.003.04.034.043.035.004.035-.02.041-.037l.072-.419c.017-.08.069-.088.131-.064.156.058.182.371.173.472-.022.27-.186.575-.45.551zm1.226.35c-.023.302-.192.652-.451.628-.259-.026-.384-.397-.359-.693.01-.13.085-.462.249-.501.062-.017.11 0 .114.093v.482c.005.019-.002.047.033.05.036.001.036-.024.04-.042l.076-.477c.02-.09.07-.101.13-.076.158.065.177.42.168.536zm-.792-1.518c-.11-.194-.378-.804-.235-1.082.049-.108.14-.106.306.143l.516.762c.037.052.08.13.128.101.047-.03.002-.103-.024-.162l-.41-.822c-.137-.268-.096-.348.026-.34.31.016.712.547.824.739.316.538.398 1.296.234 1.697-.432-.054-1.05-.499-1.365-1.036zm-.294 11.324c-.186.723-.928 1.004-1.598.62-.514-.3-.7-.797-.49-1.374.689-1.877 2.954-7.092 3.19-7.718a.191.191 0 01.23-.119c.1.03.156.137.121.238-.46 1.533-2.174 6.504-2.286 6.877-.018.056-.046.113-.041.165.006.062.038.118.062.179.054-.037.121-.063.154-.112.04-.054.051-.128.073-.194.356-1.184 1.874-5.753 2.144-6.632a.187.187 0 01.236-.132.19.19 0 01.127.223c-.302 1.3-1.63 6.862-1.922 7.979zm2.473 1.14c-.06.747-.76 1.148-1.508.883-.578-.205-.855-.665-.745-1.27.354-1.965 1.723-7.853 1.853-8.547h.002a.2.2 0 01.223-.166c.11.013.19.114.179.227-.203 1.675-1.073 7.175-1.119 7.562-.006.056-.025.119-.01.17.015.059.062.108.095.165.047-.046.11-.082.136-.136.03-.06.03-.136.038-.205.15-1.225.901-6.373 1.024-7.334a.203.203 0 01.404.028 788.3 788.3 0 01-.572 8.623zm1.4 1.63c-.66.034-1.171-.423-1.145-1.09 0-.018 0-.033.002-.05 0-.02.002-.041.004-.063l.002-.054c.07-1.481.408-7.227.519-8.875a.243.243 0 01.246-.222h.002c.138 0 .248.11.248.246.004 2.064 0 7.461.002 7.852 0 .056-.01.118.01.166.02.056.07.1.11.147.043-.048.088-.091.112-.147.02-.048.008-.11.008-.166 0-.391-.002-5.788 0-7.852 0-.136.112-.246.25-.246.132 0 .238.095.249.222.11 1.648.45 7.394.517 8.875l.006.054v.113c.032.667-.482 1.125-1.143 1.09zm2.905-.747c-.742.265-1.446-.136-1.505-.883-.09-1.15-.499-7.217-.572-8.623a.203.203 0 01.404-.028c.12.961.875 6.109 1.026 7.334.006.069.004.144.036.205.026.054.087.09.134.136.034-.057.082-.106.097-.164.015-.052-.004-.115-.01-.171-.046-.387-.916-5.887-1.12-7.562a.204.204 0 01.18-.227.207.207 0 01.225.166c.127.694 1.498 6.582 1.853 8.547.11.605-.167 1.065-.748 1.27zm-.133-10.495c.23.626 2.5 5.841 3.189 7.718.212.577.026 1.073-.494 1.373-.665.385-1.408.104-1.597-.62-.289-1.116-1.615-6.679-1.92-7.978a.19.19 0 01.128-.223.187.187 0 01.234.132c.272.879 1.785 5.448 2.146 6.632.021.066.032.14.071.194.037.05.102.075.153.112.024-.06.06-.117.063-.18.006-.051-.022-.108-.039-.164-.114-.373-1.827-5.344-2.29-6.877a.19.19 0 01.124-.238.19.19 0 01.232.12zm-.558-1.816c-.164-.401-.082-1.16.234-1.697.114-.192.513-.723.824-.739.117-.008.16.072.026.34l-.408.822c-.026.059-.076.132-.026.162.05.029.09-.05.128-.101l.516-.762c.166-.249.255-.251.309-.143.138.278-.128.888-.24 1.082-.315.537-.93.982-1.363 1.036zm1.024 1.11c-.261.024-.426-.326-.451-.628-.009-.117.013-.471.168-.536.06-.025.108-.015.13.076l.073.477c.007.018.007.043.042.041.034-.002.032-.03.032-.05v-.48c.007-.094.052-.111.114-.094.167.039.24.371.25.501.024.296-.101.667-.358.693zm.326-1.528c-.008-.102.018-.415.175-.473.063-.024.11-.015.13.065l.073.418c.002.018.002.042.041.037.033-.002.03-.026.033-.043l.004-.423c.007-.082.052-.1.119-.087.166.035.24.326.248.443.021.26-.11.59-.374.613-.261.024-.43-.28-.45-.55zm.678 1.895c-.305.005-.466-.356-.466-.658-.003-.117.056-.469.241-.52.074-.02.128-.007.143.086l.043.477c.007.019.005.045.046.045s.039-.028.045-.045l.041-.477c.013-.093.07-.108.14-.087.189.05.247.387.247.516.001.296-.176.657-.48.663zm1.14.64c-.248.06-.462-.275-.531-.582-.03-.118-.063-.483.078-.572.053-.034.101-.03.136.06l.144.476c.009.02.015.047.048.039.034-.007.026-.035.026-.056l-.076-.49c-.01-.096.03-.122.095-.115.166.02.29.348.322.48.07.3.007.699-.242.76zm.91.034c-.269-.123-.485-.095-.485-.095.296-.294.62-.32.704-.17.085.15.046.39-.22.265zm-.031-.45c-.326.031-.533-.381-.564-.742-.01-.138.02-.56.216-.637.078-.03.138-.017.16.088l.093.564c.008.024.008.056.051.052.044-.004.039-.035.044-.058v-.572c.008-.109.064-.13.144-.113.21.045.303.438.316.594.026.352-.134.795-.46.825zm-.088-2.638l.075.458c.003.017.003.046.04.043.036-.004.032-.03.036-.047v-.467c.004-.088.051-.106.116-.093.169.04.244.359.255.486.02.285-.107.648-.371.672-.263.023-.432-.313-.455-.607-.012-.112.012-.455.172-.519.062-.025.112-.014.132.074zm-.793-.943c.056-.022.106-.013.121.066l.069.413c.007.015.007.04.038.037.035-.003.031-.026.035-.041l.002-.422c.004-.08.05-.097.113-.084.158.032.227.322.235.436.017.257-.102.586-.352.607-.248.024-.407-.278-.428-.544-.008-.101.014-.41.167-.468zm-.175 1.854c.048-.006.041-.038.041-.064l-.037-.605c0-.117.061-.145.147-.13.225.035.348.445.372.61.051.369-.089.848-.43.902-.343.054-.592-.37-.646-.751-.021-.143-.02-.59.186-.687.076-.037.143-.028.173.084l.138.59c.008.023.01.058.056.051zm-.676-1.516c.007.022.007.052.05.05.039-.002.032-.034.034-.056v-.55c.007-.106.06-.128.132-.109.188.044.277.426.287.575.026.339-.117.764-.412.792-.298.028-.488-.37-.514-.719-.011-.133.013-.54.192-.613.069-.028.125-.017.145.089l.086.541zm.408-2.39c-.08.672-.514 1.376-.993 1.606-.41-.338-.64-.973-.557-1.645.028-.237.101-.827.46-.967.138-.056.198.015.216.328l.023.473c0 .07-.015.164.059.173.073.008.08-.087.097-.154l.166-.721c.062-.317.171-.348.29-.27.317.218.27.94.24 1.177zm-.183-1.332c-.387-.235-.743-.873-.76-1.454-.005-.207.062-.824.342-.99.107-.065.19-.024.22.254l.088.506c.008.058.008.14.07.138.063-.002.057-.084.063-.143l.046-.51c.013-.28.093-.323.205-.265.29.149.391.762.397.967.016.586-.304 1.24-.671 1.497zm1.108 1.3c-.059.609-.303 1.084-.551 1.06-.127-.011-.231-.158-.294-.382a3.21 3.21 0 00.11-1.445c.106-.242.246-.388.384-.378.247.024.405.536.35 1.145zm.064-1.823c-.21.29-.626.378-.701.417.576-.883.466-1.658.242-2.209.198.022.593.306.669.685.095.492.04.762-.21 1.107zm.933 2.689c-.34.027-.6-.64-.656-1.225-.022-.222-.004-.808.199-.928.08-.046.142-.026.177.15l.133.942c.011.035.013.087.061.084.045-.004.039-.058.041-.094l-.05-1.022c-.002-.179.059-.214.145-.179.223.078.348.693.374.946.051.568-.083 1.293-.424 1.326zm.156-2.57c-.294-.147-.59-.654-.637-1.11-.018-.162-.007-.656.185-.818.074-.06.136-.037.175.177l.117.665c.01.043.015.108.058.101.048-.008.037-.07.037-.118l-.021-.68c-.01-.22.047-.266.13-.232.217.09.331.562.349.724.047.458-.143 1.047-.393 1.29zm1.273 2.338c-.353.076-.678-.602-.79-1.205-.043-.23-.103-.921.1-1.066.077-.056.146-.041.196.14l.238.964c.013.036.021.09.069.082.048-.01.035-.063.033-.102l-.143-1.041c-.017-.188.041-.229.133-.205.242.063.437.758.487 1.02.11.584.034 1.34-.323 1.413zm1.305-.453c-.337.085-.722-.522-.873-1.155-.058-.244-.146-.913.059-1.078.08-.062.155-.047.218.14l.293.988c.013.038.026.097.078.084.048-.013.033-.067.028-.108l-.19-1.076c-.03-.198.03-.244.132-.22.257.054.485.72.548.994.147.615.042 1.347-.293 1.431zm.451-1.494c-.064-.27-.183-1.073.02-1.25.075-.07.153-.052.22.16l.3 1.01c.015.043.028.108.08.097.048-.013.03-.078.026-.123l-.214-1.107c-.037-.22.023-.27.123-.245.26.065.533.872.606 1.177.167.689.035 1.365-.224 1.628-.352-.114-.764-.639-.937-1.347zm.605 2.645c-.138-.313-.413-1.222-.283-1.367.051-.056.104-.045.17.112l.519 1.246c.012.035.025.08.062.07.032-.011.017-.057.01-.093l-.243-.819c-.041-.164 0-.211.07-.19.159.05.38.55.465.776.7 1.861-.096 1.807-.77.265zm1.922 1.637c-.294-.158-.715-1.032-.886-1.825-.065-.3-.276-1.548-.118-1.723.06-.07.125-.043.187.197l.361 1.449c.018.049.028.12.07.112.04-.009.023-.08.017-.13l-.143-.976c-.037-.242.01-.294.093-.257.215.097.401.784.475 1.128.166.766.147 1.76-.056 2.025zm.302-3.874c.082-.078.158-.045.22.231l.294 1.419c.017.058.026.142.078.134.049-.01.034-.091.028-.152l-.182-1.436c-.03-.282.033-.339.134-.291.259.121.496 1.127.565 1.527.147.896.053 2.047-.217 2.347-.352-.2-.808-1.231-.961-2.153-.06-.352-.166-1.43.04-1.626zm.196 5.29c-.064-.246-.237-.904-.04-.971.075-.026.137.045.198.248l.378 1.246c.017.054.044.078.08.067.035-.01.035-.052.026-.093l-.356-1.326c-.061-.213.045-.257.123-.235.198.056.382.87.45 1.164.15.656.405 1.263.8 1.63 0 0-1.225-.024-1.659-1.73zm1.03-.095c-.082-.337-.289-1.235-.036-1.312.095-.03.177.07.248.345l.417 1.587c.02.076.056.108.102.097.045-.015.05-.069.036-.125l-.39-1.69c-.072-.295.06-.346.159-.31.252.09.475 1.195.557 1.592.187.894.544 1.9 1.045 2.418 0 0-1.526-.071-2.138-2.602zm1.272-.056c-.071-.43-.097-1.602.229-1.682.123-.026.238.035.25.417l.208 1.924c.021.093.062.14.118.13.059-.013.065-.08.057-.154l-.106-2.05c-.018-.373.108-.427.227-.375.309.134.307 1.611.374 2.116.146 1.1.364 2.272.95 2.965 0 0-1.758-.069-2.307-3.29zm1.533-.641c-.017-.477.011-1.69.376-1.717.138-.01.212.151.22.54l.082 2.386c.003.106.041.164.104.16.064-.005.084-.076.086-.155l-.02-2.017c0-.38.085-.445.204-.368.31.2.384 1.75.358 2.309-.056 1.181-.166 2.345.344 3.196 0 0-1.613-.352-1.754-4.334z" fill="#595959" fill-rule="nonzero" mask="url(#h)"/></g><g transform="translate(-22.785 -23.451)"><mask id="j" fill="#fff"><use xlink:href="#i"/></mask><path d="M25.445 82.358c.652 0 1.814-.072 2.249-.072 3.435 0 6.145.652 6.145 3.749 0 2.201-1.405 3.435-3.87 4.281 3.457.726 4.426 2.323 4.426 4.403 0 3.557-3.026 5.153-6.872 5.153-.918 0-2.368-.073-3.096-.073-.315 0-1.112.05-1.45.073.146-2.661.193-6.339.193-9.386 0-2.732-.026-6.871-.192-8.2.603.024 2.079.072 2.467.072zm-.097 7.45c.266.024.7.05 1.28.05 2.687 0 4.741-1.113 4.741-3.34 0-2.056-1.788-2.877-3.99-2.877-.557 0-1.525.024-2.031.048v6.119zm0 8.66c.532.024 1.426.05 2.054.05 2.469 0 4.526-1.042 4.526-3.823 0-2.177-1.187-3.556-5.903-3.556h-.677v7.33z" fill="#595959" fill-rule="nonzero" mask="url(#j)"/></g><g transform="translate(-22.785 -23.451)"><mask id="l" fill="#fff"><use xlink:href="#k"/></mask><path d="M37.667 88.867c1.379-1.066 2.684-1.477 4.137-1.477 2.539 0 4.305 1.282 4.305 4.451v5.831c0 1.377.266 1.523.775 1.523.169 0 .361-.025.508-.05l.143.607c-.942.338-1.474.385-1.74.385-.799 0-1.308-.362-1.5-1.063l-.145-.532c-1.308 1.039-2.734 1.595-3.918 1.595-2.203 0-3.63-1.16-3.63-3.193 0-2.177 1.475-3.192 3.385-3.531l2.927-.531c.824-.145 1.26-.388 1.26-.992 0-2.638-1.114-3.556-2.953-3.556-1.426 0-2.612.533-3.264 1.935h-.29v-1.402zm6.507 4.764l-1.597.242c-1.741.266-3.676.87-3.676 2.708 0 1.404.773 2.154 2.344 2.154.97 0 1.937-.339 2.929-1.38v-3.724z" fill="#595959" fill-rule="nonzero" mask="url(#l)"/></g><g transform="translate(-22.785 -23.451)"><mask id="n" fill="#fff"><use xlink:href="#m"/></mask><path d="M50.85 87.704c.265 0 .774-.05 1.135-.073a24.29 24.29 0 00-.12 1.887c.798-1.45 2.346-2.128 3.871-2.128 2.347 0 4.184 1.475 4.184 3.942 0 .606-.071 1.644-.071 2.42 0 1.015.024 4.28.219 6.12a8.58 8.58 0 00-1.115-.073c-.41 0-.894.024-1.258.073.193-1.84.217-5.105.217-6.12 0-3.702-1.113-4.983-2.998-4.983-2.952 0-3.145 3-3.145 5.297 0 .434.024 3.967.216 5.807a8.511 8.511 0 00-1.112-.074c-.411 0-.895.025-1.257.074.194-1.84.218-5.106.218-6.12 0-1.235-.024-4.306-.218-6.122.41.023.943.073 1.233.073" fill="#595959" mask="url(#n)"/></g><g transform="translate(-22.785 -23.451)"><mask id="p" fill="#fff"><use xlink:href="#o"/></mask><path d="M64.59 80.881c.263 0 .772-.048 1.136-.071-.195 1.837-.218 5.346-.218 7.258v4.885h.387c.798 0 4.887-4.646 5.274-5.322.338.023.894.073 1.185.073.242 0 .822-.05 1.185-.073l-5.78 5.177c.725.87 4.57 5.201 6.313 7.064a20.475 20.475 0 00-1.452-.073c-.435 0-1.089.023-1.597.073-.894-1.404-3.629-4.621-5.128-6.266h-.387c0 .894.023 4.427.218 6.266a8.434 8.434 0 00-1.113-.073c-.411 0-.896.023-1.257.073.193-1.84.218-5.372.218-7.258v-4.547c0-1.912-.025-5.42-.218-7.257.409.023.941.071 1.233.071" fill="#595959" mask="url(#p)"/></g><g transform="translate(-22.785 -23.451)"><mask id="r" fill="#fff"><use xlink:href="#q"/></mask><path d="M93.623 93.678c0 3.7-2.394 6.459-6.193 6.459-3.723 0-6.047-2.731-6.047-6.12 0-4.014 2.565-6.627 6.266-6.627 3.676 0 5.974 2.66 5.974 6.288m-9.941.266c0 2.734 1.138 5.251 3.701 5.251 2.467 0 3.942-2.371 3.942-5.613 0-2.612-1.016-5.249-3.749-5.249-2.613 0-3.894 2.732-3.894 5.611" fill="#595959" fill-rule="nonzero" mask="url(#r)"/></g><g transform="translate(-22.785 -23.451)"><mask id="t" fill="#fff"><use xlink:href="#s"/></mask><path d="M102.186 81.85c0 .242.05.726.074 1.137-.775-.292-1.186-.363-1.5-.363-1.378 0-2.104.727-2.104 2.153 0 .557.048 1.622.217 2.927.701 0 1.863-.097 2.66-.194a10.33 10.33 0 00-.047.774c0 .218.025.509.048.701-.821-.119-1.693-.192-1.986-.192h-.722v3.822c0 1.885.023 5.418.216 7.257a8.406 8.406 0 00-1.112-.073c-.412 0-.894.024-1.258.073.194-1.84.218-5.372.218-7.257v-3.822h-.41c-.22 0-.557.023-1.284.192.05-.24.074-.604.074-.725s-.025-.483-.074-.75c.532.17.896.194 1.283.194h.411c0-3.92 2.685-7.015 4.693-7.015.314 0 .506.023.677.073-.024.338-.074.894-.074 1.089" fill="#595959" mask="url(#t)"/></g><g transform="translate(-22.785 -23.451)"><mask id="v" fill="#fff"><use xlink:href="#u"/></mask><path d="M113.773 82.358c.653 0 2.417-.072 3.337-.072 3.098 0 5.08 1.355 5.08 3.99 0 2.371-1.742 4.427-5.2 4.79 4.499 5.757 5.443 6.896 7.136 8.806a20.132 20.132 0 00-1.693-.073c-.532 0-1.113.023-1.597.073-1.718-2.517-4.62-6.218-6.578-8.54h-.872c0 2.902.023 5.878.194 8.54a11.256 11.256 0 00-2.565 0c.146-2.662.193-6.339.193-9.387 0-2.731-.024-6.87-.193-8.2.702.049 2.178.073 2.758.073zm-.387 7.692h.798c2.299 0 5.394-.58 5.394-3.506 0-1.814-1.402-2.903-4.21-2.903-.822 0-1.643.024-1.982.072v6.337z" fill="#595959" fill-rule="nonzero" mask="url(#v)"/></g><g transform="translate(-22.785 -23.451)"><mask id="x" fill="#fff"><use xlink:href="#w"/></mask><path d="M127.247 87.704c.264 0 .775-.05 1.137-.073-.195 1.84-.218 5.106-.218 6.12 0 3.702 1.113 5.008 3 5.008 2.952 0 3.144-3.024 3.144-5.32 0-.436-.024-3.969-.217-5.808.41.023.942.073 1.235.073.266 0 .772-.05 1.134-.073-.192 1.816-.217 4.863-.217 6.12 0 1.016.025 4.282.217 6.121a8.519 8.519 0 00-1.112-.073c-.412 0-.895.024-1.256.073.048-.412.119-1.452.119-1.886-.798 1.45-2.344 2.151-3.87 2.151-2.346 0-4.184-1.498-4.184-3.968 0-.604.072-1.643.072-2.417 0-1.015-.024-4.282-.217-6.121.41.023.94.073 1.233.073" fill="#595959" mask="url(#x)"/></g><g transform="translate(-22.785 -23.451)"><mask id="z" fill="#fff"><use xlink:href="#y"/></mask><path d="M145.607 89.977c-.75-1.33-1.624-1.643-2.494-1.643-1.16 0-2.056.772-2.056 1.982 0 1.5 1.258 2.105 2.637 2.445 2.105.532 3.313 1.184 3.313 3.29 0 2.322-2.246 4.086-4.667 4.086-1.235 0-2.322-.338-3.192-.991.266-.483.603-1.281.772-1.767.92 1.503 1.864 1.817 2.88 1.817 1.403 0 2.514-.823 2.514-2.228 0-1.595-1.331-2.006-2.853-2.418-1.887-.508-3.097-1.452-3.097-3.411 0-2.273 1.67-3.749 4.112-3.749 1.285 0 2.033.29 2.855.82a16.92 16.92 0 00-.724 1.767" fill="#595959" mask="url(#z)"/></g><g transform="translate(-22.785 -23.451)"><mask id="B" fill="#fff"><use xlink:href="#A"/></mask><path d="M155.547 89.977c-.75-1.33-1.62-1.643-2.491-1.643-1.161 0-2.057.772-2.057 1.982 0 1.5 1.26 2.105 2.638 2.445 2.104.532 3.314 1.184 3.314 3.29 0 2.322-2.25 4.086-4.67 4.086-1.233 0-2.32-.338-3.191-.991.266-.483.603-1.281.772-1.767.92 1.503 1.864 1.817 2.88 1.817 1.404 0 2.516-.823 2.516-2.228 0-1.595-1.331-2.006-2.855-2.418-1.887-.508-3.097-1.452-3.097-3.411 0-2.273 1.67-3.749 4.113-3.749 1.282 0 2.032.29 2.854.82-.241.51-.532 1.187-.726 1.767" fill="#595959" mask="url(#B)"/></g><g transform="translate(-22.785 -23.451)"><mask id="D" fill="#fff"><use xlink:href="#C"/></mask><path d="M162.78 83.133c0 .772-.485 1.33-1.307 1.33s-1.306-.558-1.306-1.33c0-.728.533-1.282 1.306-1.282.822 0 1.307.41 1.307 1.282m-1.307 4.57c.266 0 .775-.048 1.139-.072-.193 1.816-.219 4.863-.219 6.12 0 1.016.026 4.282.219 6.121a8.557 8.557 0 00-1.113-.073c-.41 0-.896.024-1.259.073.195-1.84.218-5.105.218-6.12 0-1.234-.023-4.305-.218-6.121.41.023.943.073 1.233.073" fill="#595959" fill-rule="nonzero" mask="url(#D)"/></g><g transform="translate(-22.785 -23.451)"><mask id="F" fill="#fff"><use xlink:href="#E"/></mask><path d="M166.94 88.867c1.38-1.066 2.685-1.477 4.138-1.477 2.54 0 4.305 1.282 4.305 4.451v5.831c0 1.377.266 1.523.775 1.523.169 0 .363-.025.508-.05l.145.607c-.946.338-1.478.385-1.744.385-.797 0-1.304-.362-1.498-1.063l-.145-.532c-1.306 1.039-2.733 1.595-3.92 1.595-2.2 0-3.628-1.16-3.628-3.193 0-2.177 1.477-3.192 3.388-3.531l2.926-.531c.822-.145 1.257-.388 1.257-.992 0-2.638-1.112-3.556-2.95-3.556-1.426 0-2.612.533-3.266 1.935h-.29v-1.402zm6.507 4.764l-1.596.242c-1.742.266-3.677.87-3.677 2.708 0 1.404.775 2.154 2.347 2.154.967 0 1.934-.339 2.926-1.38v-3.724z" fill="#595959" fill-rule="nonzero" mask="url(#F)"/></g></g></svg>