<svg viewBox="0 0 125 29" xmlns="http://www.w3.org/2000/svg" xmlns:xlink="http://www.w3.org/1999/xlink"><defs><path id="a" d="M0 0h152.362v56.693H0z"/><path id="c" d="M0 0h152.362v56.693H0z"/><path id="e" d="M0 0h152.362v56.693H0z"/><path id="g" d="M0 0h152.362v56.693H0z"/><path id="i" d="M0 0h152.362v56.693H0z"/><path id="k" d="M0 0h152.362v56.693H0z"/><path id="m" d="M0 0h152.362v56.693H0z"/><path id="o" d="M0 0h152.362v56.693H0z"/><path id="q" d="M0 0h152.362v56.693H0z"/><path id="s" d="M0 0h152.362v56.693H0z"/><path id="u" d="M0 0h152.362v56.693H0z"/><path id="w" d="M0 0h152.362v56.693H0z"/><path id="y" d="M0 0h152.362v56.693H0z"/><path id="A" d="M0 0h152.362v56.693H0z"/></defs><g fill="none" fill-rule="evenodd"><g transform="translate(-13.727 -13.904)"><mask id="b" fill="#fff"><use xlink:href="#a"/></mask><path d="M51.036 23.313c.377 0 1.048-.041 1.3-.041 1.989 0 3.557.377 3.557 2.169 0 1.274-.813 1.988-2.24 2.477 2.001.42 2.561 1.345 2.561 2.548 0 2.059-1.751 2.981-3.976 2.981-.531 0-1.37-.041-1.791-.041-.183 0-.644.028-.839.041.084-1.54.111-3.668.111-5.431 0-1.581-.015-3.977-.111-4.745.349.014 1.203.042 1.428.042zm-.057 4.311c.154.014.406.029.741.029 1.555 0 2.743-.644 2.743-1.933 0-1.189-1.034-1.664-2.308-1.664-.323 0-.883.014-1.176.027v3.541zm0 5.012c.308.014.826.028 1.189.028 1.428 0 2.619-.603 2.619-2.213 0-1.259-.687-2.057-3.415-2.057h-.393v4.242z" fill="#FFF" fill-rule="nonzero" mask="url(#b)"/></g><g transform="translate(-13.727 -13.904)"><mask id="d" fill="#fff"><use xlink:href="#c"/></mask><path d="M58.107 27.079c.798-.616 1.554-.854 2.395-.854 1.469 0 2.491.742 2.491 2.575v3.375c0 .797.153.882.448.882.098 0 .209-.015.294-.03l.083.352c-.545.195-.853.224-1.007.224-.462 0-.756-.21-.868-.616l-.084-.307c-.757.6-1.583.923-2.267.923-1.275 0-2.101-.672-2.101-1.848 0-1.26.854-1.848 1.959-2.044l1.694-.309c.477-.084.729-.223.729-.573 0-1.526-.645-2.057-1.709-2.057-.825 0-1.512.308-1.889 1.12h-.168v-.813zm3.766 2.757l-.925.141c-1.007.153-2.127.504-2.127 1.567 0 .812.448 1.246 1.358 1.246.56 0 1.12-.196 1.694-.798v-2.156z" fill="#FFF" fill-rule="nonzero" mask="url(#d)"/></g><g transform="translate(-13.727 -13.904)"><mask id="f" fill="#fff"><use xlink:href="#e"/></mask><path d="M65.736 26.407c.153 0 .448-.028.657-.042-.027.238-.07.84-.07 1.092.463-.839 1.357-1.232 2.241-1.232 1.358 0 2.421.855 2.421 2.282 0 .351-.041.952-.041 1.4 0 .588.014 2.478.126 3.542a5.003 5.003 0 00-.645-.043c-.238 0-.517.015-.728.043.112-1.064.126-2.954.126-3.542 0-2.142-.644-2.884-1.735-2.884-1.708 0-1.82 1.737-1.82 3.066 0 .251.014 2.296.125 3.36a4.952 4.952 0 00-.644-.043c-.238 0-.517.015-.727.043.112-1.064.126-2.954.126-3.542 0-.714-.014-2.491-.126-3.542.237.013.545.042.714.042" fill="#FFF" mask="url(#f)"/></g><g transform="translate(-13.727 -13.904)"><mask id="h" fill="#fff"><use xlink:href="#g"/></mask><path d="M73.688 22.458c.152 0 .447-.027.657-.041-.112 1.063-.126 3.094-.126 4.2v2.828h.224c.462 0 2.828-2.688 3.053-3.081.194.014.517.042.685.042.14 0 .476-.028.686-.042l-3.346 2.997c.42.503 2.646 3.01 3.654 4.088a11.573 11.573 0 00-.841-.042c-.251 0-.629.013-.923.042-.519-.812-2.101-2.675-2.968-3.626h-.224c0 .518.014 2.562.126 3.626a4.799 4.799 0 00-.643-.042c-.239 0-.519.013-.728.042.111-1.064.126-3.108.126-4.2v-2.631c0-1.106-.015-3.137-.126-4.2.235.013.544.04.714.04" fill="#FFF" mask="url(#h)"/></g><g transform="translate(-13.727 -13.904)"><mask id="j" fill="#fff"><use xlink:href="#i"/></mask><path d="M90.488 29.864c0 2.142-1.385 3.738-3.583 3.738-2.154 0-3.5-1.581-3.5-3.541 0-2.324 1.484-3.836 3.626-3.836 2.127 0 3.457 1.539 3.457 3.639m-5.753.154c0 1.582.659 3.039 2.144 3.039 1.426 0 2.279-1.373 2.279-3.248 0-1.512-.587-3.038-2.169-3.038-1.511 0-2.254 1.581-2.254 3.247" fill="#FFF" fill-rule="nonzero" mask="url(#j)"/></g><g transform="translate(-13.727 -13.904)"><mask id="l" fill="#fff"><use xlink:href="#k"/></mask><path d="M95.444 23.02c0 .139.028.419.042.657-.448-.169-.687-.21-.868-.21-.798 0-1.218.421-1.218 1.246 0 .323.028.939.126 1.694.406 0 1.078-.056 1.54-.113a5.533 5.533 0 00-.028.449c0 .126.015.294.028.406a10.949 10.949 0 00-1.148-.112h-.419v2.211c0 1.092.014 3.136.125 4.2a4.803 4.803 0 00-.644-.042c-.238 0-.517.013-.727.042.111-1.064.126-3.108.126-4.2v-2.211h-.239c-.126 0-.321.013-.742.112a2.8 2.8 0 00.042-.42c0-.07-.014-.279-.042-.435.308.099.52.113.742.113h.239c0-2.268 1.553-4.06 2.714-4.06.183 0 .294.014.393.043-.013.195-.042.518-.042.63" fill="#FFF" mask="url(#l)"/></g><g transform="translate(-13.727 -13.904)"><mask id="n" fill="#fff"><use xlink:href="#m"/></mask><path d="M102.15 23.313c.378 0 1.397-.041 1.931-.041 1.792 0 2.94.784 2.94 2.309 0 1.372-1.009 2.562-3.011 2.771 2.604 3.332 3.15 3.991 4.13 5.097a11.555 11.555 0 00-.979-.043c-.309 0-.645.014-.924.043-.995-1.457-2.673-3.599-3.808-4.943h-.505c0 1.68.015 3.402.112 4.943a6.522 6.522 0 00-1.484 0c.084-1.541.111-3.669.111-5.433 0-1.58-.013-3.976-.111-4.744.407.027 1.262.041 1.598.041zm-.225 4.452h.463c1.33 0 3.121-.336 3.121-2.029 0-1.05-.812-1.68-2.437-1.68-.476 0-.951.014-1.147.041v3.668z" fill="#FFF" fill-rule="nonzero" mask="url(#n)"/></g><g transform="translate(-13.727 -13.904)"><mask id="p" fill="#fff"><use xlink:href="#o"/></mask><path d="M109.946 26.407c.153 0 .448-.028.658-.042-.113 1.064-.127 2.954-.127 3.542 0 2.142.645 2.896 1.737 2.896 1.708 0 1.819-1.75 1.819-3.079 0-.252-.015-2.295-.126-3.359.237.014.545.042.714.042.154 0 .447-.028.657-.042-.112 1.051-.126 2.813-.126 3.542 0 .588.014 2.478.126 3.542a4.98 4.98 0 00-.645-.043c-.237 0-.518.015-.727.043.027-.239.069-.841.069-1.092-.462.839-1.357 1.245-2.24 1.245-1.356 0-2.421-.867-2.421-2.297 0-.349.041-.95.041-1.398 0-.588-.014-2.478-.125-3.542.241.013.547.042.716.042" fill="#FFF" mask="url(#p)"/></g><g transform="translate(-13.727 -13.904)"><mask id="r" fill="#fff"><use xlink:href="#q"/></mask><path d="M120.571 27.722c-.434-.77-.938-.951-1.443-.951-.672 0-1.189.447-1.189 1.147 0 .868.728 1.218 1.526 1.415 1.218.309 1.918.686 1.918 1.904 0 1.343-1.302 2.365-2.702 2.365-.714 0-1.343-.196-1.848-.574.154-.279.35-.742.447-1.021.532.869 1.079 1.051 1.666 1.051.812 0 1.455-.478 1.455-1.289 0-.924-.769-1.161-1.65-1.4-1.093-.293-1.793-.84-1.793-1.973 0-1.316.968-2.17 2.381-2.17.742 0 1.176.168 1.651.475a9.925 9.925 0 00-.419 1.021" fill="#FFF" mask="url(#r)"/></g><g transform="translate(-13.727 -13.904)"><mask id="t" fill="#fff"><use xlink:href="#s"/></mask><path d="M126.323 27.722c-.434-.77-.937-.951-1.44-.951-.673 0-1.191.447-1.191 1.147 0 .868.729 1.218 1.527 1.415 1.217.309 1.917.686 1.917 1.904 0 1.343-1.303 2.365-2.702 2.365-.714 0-1.343-.196-1.848-.574.154-.279.35-.742.447-1.021.533.869 1.079 1.051 1.667 1.051.812 0 1.456-.478 1.456-1.289 0-.924-.77-1.161-1.651-1.4-1.094-.293-1.792-.84-1.792-1.973 0-1.316.965-2.17 2.38-2.17.74 0 1.175.168 1.65.475-.139.294-.307.685-.42 1.021" fill="#FFF" mask="url(#t)"/></g><g transform="translate(-13.727 -13.904)"><mask id="v" fill="#fff"><use xlink:href="#u"/></mask><path d="M130.509 23.761c0 .448-.279.77-.756.77s-.756-.322-.756-.77c0-.42.309-.741.756-.741.476 0 .756.236.756.741m-.756 2.646c.153 0 .448-.028.658-.042-.111 1.051-.126 2.813-.126 3.542 0 .588.015 2.478.126 3.542a4.972 4.972 0 00-.643-.043c-.239 0-.52.015-.729.043.112-1.064.126-2.954.126-3.542 0-.714-.014-2.491-.126-3.542.237.013.545.042.714.042" fill="#FFF" fill-rule="nonzero" mask="url(#v)"/></g><g transform="translate(-13.727 -13.904)"><mask id="x" fill="#fff"><use xlink:href="#w"/></mask><path d="M132.916 27.079c.799-.616 1.554-.854 2.395-.854 1.472 0 2.491.742 2.491 2.575v3.375c0 .797.154.882.448.882.098 0 .211-.015.294-.03l.084.352c-.547.195-.854.224-1.009.224-.46 0-.754-.21-.867-.616l-.084-.307c-.755.6-1.581.923-2.269.923-1.272 0-2.1-.672-2.1-1.848 0-1.26.854-1.848 1.961-2.044l1.693-.309c.476-.084.728-.223.728-.573 0-1.526-.644-2.057-1.707-2.057-.825 0-1.512.308-1.89 1.12h-.169v-.813h.001zm3.766 2.757l-.923.141c-1.009.153-2.128.504-2.128 1.567 0 .812.448 1.246 1.358 1.246.559 0 1.118-.196 1.692-.798v-2.156h.001z" fill="#FFF" fill-rule="nonzero" mask="url(#x)"/></g><g transform="translate(-13.727 -13.904)"><mask id="z" fill="#fff"><use xlink:href="#y"/></mask><path d="M28.373 14.174c-7.825 0-14.171 6.346-14.171 14.172 0 7.827 6.346 14.173 14.171 14.173 7.83 0 14.176-6.346 14.176-14.173 0-7.826-6.346-14.172-14.176-14.172m0 27.25c-7.222 0-13.075-5.855-13.075-13.078 0-7.223 5.853-13.077 13.075-13.077 7.225 0 13.08 5.854 13.08 13.077s-5.855 13.078-13.08 13.078" fill="#FFF" fill-rule="nonzero" mask="url(#z)"/></g><g transform="translate(-13.727 -13.904)"><mask id="B" fill="#fff"><use xlink:href="#A"/></mask><path d="M28.373 38.976c.491 0 .787-.33.805-.781.107.203.246.341.455.383.205.041.427.012.615-.071a.83.83 0 00.436-.409c.093-.19.062-.387-.004-.615.23.332.621.418.964.258.471-.22.643-.62.45-1.077-.582-1.382-1.16-2.739-1.744-4.121-.053-.125-.098-.253-.157-.378-.051-.11-.085-.191-.133-.259a.482.482 0 00-.138-.125c.903.1 1.338.456 1.577.614.064.042.06.048.304-.028a.422.422 0 01.324.035c.109.061.221.127.316.202.325.253.655.497.961.77.143.127.349.346.321.541-.023.184-.467.605-.6.73-.315.299.161.859.797.807-.169-.178-.209-.329-.188-.463.063-.001.185.011.298-.091.138-.124.076-.488.203-.612.224-.218.955-.238 1.392-.257.183-.007.376-.057.362-.343.279.019.336.226.336.412.239-.136.444-.784-.438-.933h-.001c.149-.134.397-.185.55-.012.143-.238-.22-.705-.874-.441.002-.003-.293-.389-1.176.601-.112-.084-.222-.166-.324-.26a81.278 81.278 0 01-1.203-1.154c0-.474-.071-1.392-.696-1.942-.267-.234-.521-.358-1.087-.461 0 0 .274-.428.317-.596.492.492 1.48.639 1.48-.192.807.808 1.555.373 1.555-.134.025.247.088.519.172.752.101.271.47 1.312 1.423 1.312.022.361.024 1.552 1.163 1.817.048.013.112.029.142.067.46.571 2.371 1.173 2.606 1.011-.149-.106-.383-.247-.42-.919-.024-.443-.073-2.743-.073-5.984 0-1.146-.123-4.861-3.797-5.379-.556-.079-1.105-.037-1.58.316-.646.482-.964 1.296-.584 2.216.012.033.022.066.039.095.129.219.077.409-.091.576-.307.304-.664.51-1.094.56-.272.031-.496-.088-.676-.274-.412-.424-.701-.922-.793-1.509-.173-1.118.107-1.672.123-1.707.299-.599.933-1.039 1.669-1.102.336-.63 1.304-.381 1.304-.381.241.053.327.123.388.242 0 0 .424-.647.024-.906-.4-.259-1.295-.366-1.295-.366 0-.421-.695-.749-1.953-.524-1.521.271-1.848-.323-1.848-.323-.063.728.493 1.103.671 1.205-.576.626-1.383 1.877-1.575 3.652-.191-1.775-.998-3.026-1.574-3.652.178-.102.733-.477.67-1.205 0 0-.326.594-1.847.323-1.258-.225-1.953.103-1.953.524 0 0-.895.107-1.295.366-.4.259.024.906.024.906.061-.119.146-.189.388-.242 0 0 .967-.249 1.304.381.736.063 1.37.503 1.669 1.102.016.035.314.594.123 1.707-.102.586-.381 1.085-.794 1.509-.179.186-.404.305-.675.274-.43-.05-.787-.256-1.094-.56-.168-.167-.22-.357-.092-.576.018-.029.028-.062.04-.095.38-.92.062-1.734-.584-2.216-.475-.353-1.024-.395-1.581-.316-3.673.518-3.796 4.233-3.796 5.379 0 3.241-.049 5.541-.073 5.984-.037.672-.271.812-.42.919.235.162 2.146-.439 2.606-1.011.03-.038.094-.055.142-.067 1.139-.266 1.141-1.456 1.163-1.817.953 0 1.322-1.041 1.423-1.312.084-.233.147-.505.172-.752 0 .507.748.941 1.555.134 0 .831.988.685 1.48.192.043.168.317.596.317.596-.566.103-.82.227-1.087.461-.625.551-.696 1.469-.696 1.942 0 0-.862.843-1.203 1.154-.102.094-.213.176-.324.26-.884-.989-1.178-.604-1.176-.601-.654-.264-1.017.203-.874.441.153-.173.401-.122.549.012-.883.148-.677.797-.438.933 0-.187.057-.394.335-.412-.014.286.179.336.362.343.438.019 1.169.039 1.393.257.127.124.065.488.203.612.113.102.234.09.298.091.021.134-.019.285-.188.463.636.053 1.112-.508.797-.807-.133-.125-.577-.547-.6-.73-.028-.195.177-.414.321-.541.306-.272.636-.517.961-.77.095-.075.207-.142.316-.202a.422.422 0 01.324-.035c.243.076.24.07.304.028.239-.158.673-.515 1.576-.614a.491.491 0 00-.137.125c-.048.067-.082.148-.134.259-.058.125-.104.253-.157.378-.583 1.382-1.162 2.739-1.743 4.121-.193.457-.021.857.449 1.077.344.16.735.074.965-.258-.066.229-.098.425-.004.615.091.19.24.326.435.409.188.083.411.112.615.071.209-.042.348-.18.455-.383.018.451.315.781.805.781" fill="#FFF" mask="url(#B)"/></g></g></svg>