<svg xmlns="http://www.w3.org/2000/svg" width="536" height="214"><g fill="none" fill-rule="evenodd"><rect width="535" height="213" x=".5" y=".5" stroke="#E8E9EB" rx="4"/><path fill="#8F96A3" fill-rule="nonzero" d="M58.16 49v-.984h-1.656V40.6h-1.128l-2.016 1.452v1.236l2.016-1.452v6.18H53.36V49h4.8zm4.44.12c.432 0 .838-.068 1.218-.204.38-.136.71-.37.99-.702.28-.332.502-.774.666-1.326.164-.552.246-1.244.246-2.076v-.24c0-.776-.076-1.426-.228-1.95-.152-.524-.366-.944-.642-1.26a2.335 2.335 0 00-.984-.678 3.736 3.736 0 00-1.266-.204c-.424 0-.826.068-1.206.204-.38.136-.712.362-.996.678-.284.316-.508.736-.672 1.26-.164.524-.246 1.174-.246 1.95v.24c0 .832.084 1.524.252 2.076.168.552.394.994.678 1.326.284.332.614.566.99.702a3.5 3.5 0 001.2.204zm0-1.008c-.24 0-.478-.046-.714-.138a1.498 1.498 0 01-.636-.504c-.188-.244-.342-.58-.462-1.008-.12-.428-.18-.978-.18-1.65v-.24c0-.624.06-1.134.18-1.53.12-.396.274-.71.462-.942.188-.232.4-.392.636-.48a2.03 2.03 0 01.714-.132c.272 0 .53.044.774.132.244.088.456.248.636.48.18.232.322.546.426.942.104.396.156.906.156 1.53v.24c0 .68-.058 1.234-.174 1.662-.116.428-.268.764-.456 1.008s-.402.41-.642.498a2.08 2.08 0 01-.72.132zm5.712.888v-4.62l1.848 3.18H71l1.848-3.18V49h1.032v-6.36h-1.032l-2.232 3.9-2.232-3.9H67.28V49h1.032zm8.52 0v-4.62l1.848 3.18h.84l1.848-3.18V49H82.4v-6.36h-1.032l-2.232 3.9-2.232-3.9H75.8V49h1.032zm11.52 0l3.396-4.8V49h1.032v-6.36h-1.032l-3.396 4.8v-4.8H87.32V49h1.032zm9.912-5.24c.04-.336.105-.628.198-.874.116-.308.276-.558.48-.75.204-.192.452-.332.744-.42a3.8 3.8 0 011.014-.144 16.441 16.441 0 001.398-.084c.34-.04.574-.096.702-.168V40.3c-.264.136-.584.214-.96.234-.376.02-.816.042-1.32.066-.624.032-1.142.16-1.554.384a2.679 2.679 0 00-.996.93c-.252.396-.43.876-.534 1.44a10.693 10.693 0 00-.156 1.926v.24c0 .568.078 1.076.234 1.524.156.448.368.826.636 1.134.268.308.584.542.948.702.364.16.758.24 1.182.24.432 0 .832-.076 1.2-.228.368-.152.684-.37.948-.654.264-.284.472-.624.624-1.02a3.71 3.71 0 00.228-1.338v-.24c0-.464-.068-.882-.204-1.254a2.677 2.677 0 00-.57-.942 2.532 2.532 0 00-.87-.594 2.874 2.874 0 00-1.116-.21c-.528 0-.992.124-1.392.372a2.26 2.26 0 00-.888 1.008v-.001l.024-.26zm2.016 4.424c-.264 0-.514-.054-.75-.162a1.831 1.831 0 01-.618-.462 2.264 2.264 0 01-.42-.726 2.759 2.759 0 01-.156-.954v-.24c0-.312.048-.594.144-.846a1.862 1.862 0 011.026-1.068c.236-.1.494-.15.774-.15s.538.05.774.15a1.862 1.862 0 011.026 1.068c.096.252.144.534.144.846v.24c0 .368-.048.696-.144.984-.096.288-.232.53-.408.726a1.73 1.73 0 01-.618.444c-.236.1-.494.15-.774.15zm7.14.936c.408 0 .796-.066 1.164-.198.368-.132.692-.332.972-.6.28-.268.504-.606.672-1.014.168-.408.252-.884.252-1.428v-.24c0-.512-.084-.964-.252-1.356a2.839 2.839 0 00-.672-.978 2.803 2.803 0 00-.972-.588 3.421 3.421 0 00-1.164-.198c-.408 0-.796.066-1.164.198a2.803 2.803 0 00-.972.588c-.28.26-.504.586-.672.978-.168.392-.252.844-.252 1.356v.24c0 .544.084 1.02.252 1.428.168.408.392.746.672 1.014s.604.468.972.6c.368.132.756.198 1.164.198zm0-.936c-.248 0-.492-.042-.732-.126a1.723 1.723 0 01-.642-.402 2.032 2.032 0 01-.456-.714c-.116-.292-.174-.646-.174-1.062v-.24c0-.384.058-.714.174-.99.116-.276.268-.502.456-.678a1.8 1.8 0 01.642-.39 2.201 2.201 0 011.464 0 1.8 1.8 0 01.642.39c.188.176.34.402.456.678.116.276.174.606.174.99v.24c0 .416-.058.77-.174 1.062-.116.292-.268.53-.456.714a1.723 1.723 0 01-.642.402c-.24.084-.484.126-.732.126zm3.78.936c.352 0 .666-.058.942-.174.276-.116.51-.318.702-.606.192-.288.338-.676.438-1.164.1-.488.15-1.104.15-1.848v-1.776h2.592V49h1.056v-6.36h-4.68v2.46c0 1.032-.084 1.788-.252 2.268-.168.48-.484.72-.948.72v1.032zm10.38 0c.32 0 .626-.04.918-.12.292-.08.554-.198.786-.354.232-.156.43-.35.594-.582.164-.232.278-.5.342-.804h-.948c-.064.288-.236.514-.516.678-.28.164-.672.246-1.176.246-.224 0-.452-.038-.684-.114a1.745 1.745 0 01-.624-.36 1.909 1.909 0 01-.456-.636c-.12-.26-.18-.574-.18-.942h4.704v-.792c0-.88-.25-1.57-.75-2.07-.5-.5-1.19-.75-2.07-.75-.392 0-.766.062-1.122.186a2.517 2.517 0 00-.936.576c-.268.26-.482.586-.642.978-.16.392-.24.852-.24 1.38v.24c0 .544.084 1.02.252 1.428.168.408.39.746.666 1.014s.594.468.954.6c.36.132.736.198 1.128.198zm1.764-3.852h-3.708c0-.32.056-.596.168-.828a1.63 1.63 0 011.032-.882 2.342 2.342 0 011.374 0c.22.068.412.174.576.318.164.144.296.332.396.564.1.232.154.508.162.828zm5.076 3.852c.32 0 .626-.04.918-.12.292-.08.554-.198.786-.354.232-.156.43-.35.594-.582.164-.232.278-.5.342-.804h-.948c-.064.288-.236.514-.516.678-.28.164-.672.246-1.176.246-.224 0-.452-.038-.684-.114a1.745 1.745 0 01-.624-.36 1.909 1.909 0 01-.456-.636c-.12-.26-.18-.574-.18-.942h4.704v-.792c0-.88-.25-1.57-.75-2.07-.5-.5-1.19-.75-2.07-.75-.392 0-.766.062-1.122.186a2.517 2.517 0 00-.936.576c-.268.26-.482.586-.642.978-.16.392-.24.852-.24 1.38v.24c0 .544.084 1.02.252 1.428.168.408.39.746.666 1.014s.594.468.954.6c.36.132.736.198 1.128.198zm1.764-3.852h-3.708c0-.32.056-.596.168-.828a1.63 1.63 0 011.032-.882 2.342 2.342 0 011.374 0c.22.068.412.174.576.318.164.144.296.332.396.564.1.232.154.508.162.828z"/><path fill="#8F96A3" d="M144 62h-1v-2H41v2h-1v-5h1v2h102v-2h1v5z"/><path fill="#595959" fill-rule="nonzero" d="M91.935 70c28.694 0 51.95 23.283 51.95 52 0 28.718-23.256 52-51.95 52C63.255 174 40 150.718 40 122c0-28.717 23.255-52 51.935-52zm0 4.017c-26.469 0-47.92 21.48-47.92 47.983 0 26.5 21.451 47.983 47.92 47.983 26.476 0 47.934-21.483 47.934-47.983 0-26.503-21.458-47.983-47.934-47.983zm11.56 12.35c.997-.186 2.147-.215 2.772-.09 1.724.337 2.745 1.292 2.903 1.45l.022.021c1.665.187 2.434.344 3.383.889.874.506 1.49 1.772 1.299 2.69-1.088-.57-2.281-1.018-3.475-.46 0 0 1.385.842 2.272 1.052.448.11 1.761.272 2.32-.167 1.063-.842.343-2.055.343-2.055 1.441.86 1.007 3.02-.945 3.33-2.353.383-3.946-.635-5.049-1.017.434.172.94.87 1.055 1.237 0 0-.482-.784-3.593.115-.463.134-1.28.233-1.737.354-1.685.439-2.563 1.638-2.4 2.999-.373-.377-.564-.917-.564-.917s-.524.922-.014 2.59c-.415-.206-.754-.793-.754-.793-.186.215-.43 1.237-.482 2.13-.072 1.32.034 2.203.234 3.507.33 2.155 1.403 3.98 2.9 5.537.665.688 1.495 1.123 2.469 1.008 1.589-.181 2.9-.94 4.013-2.055.62-.62.816-1.313.343-2.115-.062-.106-.1-.225-.148-.344-1.389-3.378-.224-6.369 2.147-8.142 1.737-1.29 3.741-1.394 5.789-1.155 1.55.186 2.92.883 4.333 1.476.792.334 1.617.597 2.433.864.272.09.578.096.854.177.52.157.673.502.487 1.004-.033.085-.086.162-.134.257.821.378 1.733 1.471 2.158 2.122 1.288 1.973 2.018 5.15 2.075 6.01-.162.01-.386-.014-.386-.014 1.088 1.361 1.694 5.833 2.095 7.84.114.597.234 1.19.367 1.843-.382-.038-.649-.08-.997-.204.115.324.878 1.762.568 5.627-.215 2.785.377 4.578.591 5.026-.372 0-.877-.138-1.178-.397.444.722.92 2.714.94 4.3.019 1.806-.105 4.137-.024 5.762.129 2.466.993 2.977 1.537 3.373-.683.178-1.57.059-2.196-.414-.463-.35-.735-.364-1.34-.378-1.036-.02-1.852-.497-2.61-1.166a1.907 1.907 0 00-1.041-.444c-1.108-.096-1.603-.526-2.357-1.31-.13-.129-.348-.2-.525-.244-4.176-.969-4.185-5.336-4.266-6.668-.607-.08-1.35-.783-1.69-1.31-.062-.095-.181-.223-.334-.175-1.699.525-2.824-2.337-3.187-3.33-.31-.856-.544-1.85-.64-2.758v.002l-.008.062c-.13.753-1.407 1.919-2.609.086l-.102-.164c.004 3.094-2.387 2.55-2.973.506-.621 3.746-3.275 1.973-3.246-.831v.023l-.004.217c-.121 3.924-2.52 3.407-2.491 2.193l.004-.073c-.156.615-.844 1.36-.844 1.36 6.117 1.104 4.366 4.286 7.053 5.883-.936.324-1.776-.202-1.613.047a6.703 6.703 0 011.088 2.89s3.159 3.087 4.414 4.237c.482.44 1.012.83 1.532 1.227.148.117.362.244.572.346.039-.163.048-.311.062-.392.248-1.018.525-2.026 1.16-2.887.873-1.17 2.148-1.466 3.388-.688.487.31.95.416 1.503.416.969.005 1.799.911 1.775 1.872-.73-.496-1.57-.248-1.908.144 1.545.306 2.366 1.72 1.913 2.608a1.153 1.153 0 00-.453-.482c-.66-.362-1.236-.147-1.384.215-.32.807-1.002 1.047-1.756 1.138-1.35.157-2.677.243-4.076.42-1.908.248-1.846 1.542-2.213 2.44a1.65 1.65 0 01-1.518 1.014c-.33 0-.63-.1-.888-.263-.162.52-.01 1.103.559 1.219-.463.171-1.365-.138-1.661-.765-.539-1.132-.3-2.036.65-2.852.08-.066.161-.133.247-.201.043-.037.086-.075.139-.109.258-.21.524-.425.763-.664.415-.402.496-.88.186-1.367-.281-.443-.61-.884-1.007-1.213-1.145-.975-2.333-1.9-3.522-2.828a8.866 8.866 0 00-1.154-.746c-.325-.176-.783-.277-1.193-.128-.916.328-1.446-.088-1.67-.26-.134-.099-1.403-1.36-5.216-1.887.539.34.773.871.993 1.41.186.464.371.927.567 1.391 2.143 5.065 4.261 10.048 6.404 15.116.701 1.673.076 3.144-1.656 3.952-1.264.588-2.69.277-3.54-.946v.001l.058.206c.187.68.263 1.29.041 1.873l-.076.174a3.1 3.1 0 01-1.593 1.505c-.692.301-1.513.411-2.267.259-.763-.158-1.269-.66-1.656-1.405-.067 1.657-1.093 2.636-2.515 2.828v.029a3.94 3.94 0 01-.338.015c-.034 0-.072-.006-.11-.006-.038 0-.071.006-.105.006-.114 0-.23-.006-.339-.015v-.029c-1.422-.191-2.448-1.17-2.52-2.828-.382.746-.887 1.247-1.655 1.405-.75.152-1.575.042-2.272-.259-.697-.305-1.245-.803-1.584-1.505-.34-.692-.23-1.418.02-2.254l-.002.001-.117.16c-.811 1.036-2.082 1.32-3.245.86l-.173-.075c-1.732-.808-2.357-2.28-1.656-3.952 2.138-5.069 4.257-10.052 6.404-15.116.195-.464.372-.927.563-1.39.224-.54.459-1.07.993-1.41-3.813.526-5.083 1.787-5.216 1.887-.22.172-.749.587-1.67.259-.41-.149-.864-.048-1.193.128a8.93 8.93 0 00-1.155.746c-1.184.927-2.371 1.854-3.517 2.828-.396.33-.725.77-1.011 1.213-.3.488-.225.965.19 1.367a9.86 9.86 0 00.902.773l.243.2c.955.818 1.189 1.72.65 2.853-.3.627-1.194.936-1.666.765.578-.116.73-.699.563-1.22a1.664 1.664 0 01-.887.264c-.683 0-1.27-.42-1.513-1.013-.367-.898-.31-2.193-2.224-2.44-1.388-.178-2.71-.264-4.065-.421-.76-.091-1.432-.33-1.756-1.138-.144-.362-.73-.577-1.384-.215a1.19 1.19 0 00-.458.482c-.449-.888.367-2.302 1.918-2.608-.334-.392-1.179-.64-1.914-.144-.023-.96.807-1.867 1.78-1.872.554 0 1.016-.105 1.508-.416 1.23-.777 2.51-.482 3.378.688.64.86.917 1.87 1.156 2.887.019.08.033.228.071.392.21-.102.42-.23.573-.346.525-.396 1.05-.787 1.527-1.227 1.255-1.15 4.414-4.237 4.414-4.237.152-1.022.434-1.887 1.092-2.89.162-.248-.677.277-1.613-.047 2.682-1.597.936-4.78 7.044-5.882 0 0-.682-.745-.83-1.361.119 1.29-2.472 1.906-2.491-2.36l-.001.027v.122c-.073 2.667-2.552 4.3-3.218.878l-.035-.196c-.582 2.045-2.973 2.59-2.973-.506-1.26 2.121-2.654.784-2.716.014l-.001.002-.048.392c-.097.662-.26 1.353-.464 1.989l-.126.374c-.368.994-1.49 3.856-3.188 3.33-.152-.048-.277.08-.329.176-.34.527-1.083 1.23-1.699 1.31-.076 1.332-.09 5.7-4.266 6.668-.172.044-.396.115-.52.244-.754.784-1.25 1.214-2.363 1.31-.357.033-.768.2-1.04.444-.754.669-1.574 1.147-2.6 1.166-.616.014-.883.028-1.351.378-.625.472-1.513.591-2.195.414.554-.396 1.408-.908 1.537-3.373.09-1.625-.038-3.956-.02-5.762.02-1.586.492-3.578.94-4.3-.3.259-.8.397-1.183.397.22-.449.812-2.24.587-5.026-.3-3.865.468-5.303.582-5.627-.357.124-.62.166-1.002.204.129-.654.244-1.246.368-1.844.4-2.006 1.007-6.478 2.09-7.84 0 0-.22.024-.387.015.057-.86.788-4.037 2.081-6.01.43-.65 1.331-1.744 2.157-2.122-.043-.095-.1-.172-.134-.257-.185-.502-.033-.847.487-1.004.276-.081.577-.086.854-.177.816-.267 1.637-.53 2.429-.864 1.412-.593 2.786-1.29 4.333-1.476 2.051-.239 4.056-.135 5.793 1.155 2.377 1.773 3.536 4.764 2.148 8.142-.049.12-.087.238-.149.344-.472.802-.281 1.495.344 2.115 1.112 1.114 2.429 1.874 4.008 2.055.978.115 1.809-.32 2.468-1.008 1.503-1.557 2.576-3.382 2.91-5.537.196-1.304.3-2.187.23-3.507-.049-.893-.296-1.915-.487-2.13 0 0-.334.587-.75.793.506-1.668-.014-2.59-.014-2.59s-.196.54-.568.917c.163-1.361-.715-2.56-2.4-3-.453-.12-1.274-.22-1.737-.353-3.111-.899-3.598-.115-3.598-.115.124-.368.625-1.065 1.069-1.237-1.107.382-2.7 1.4-5.058 1.017-1.952-.31-2.386-2.47-.94-3.33 0 0-.726 1.213.343 2.055.563.439 1.871.277 2.32.167.798-.19 1.995-.89 2.227-1.027l.04-.024c-1.189-.56-2.382-.11-3.475.458-.186-.917.43-2.183 1.302-2.689.946-.545 1.714-.702 3.384-.889 0 0 1.045-1.103 2.92-1.471.63-.125 1.78-.096 2.778.09 1.58.301 2.276.636 3.756 1.014 1.14.286 3.922.926 6.074-.512.019-.01-.792 1.82-2.854 2.341.568.172 1.646.02 2.458-.396-.373.516-1.064 1.275-2.143 1.624.315.32 1.375.387 1.962.067-.64.769-1.117 1.065-1.814 1.204 2.08 2.322 3.289 5.264 4.109 10.75l-.001-.004.064-.471c.695-5 1.951-7.846 3.868-10.069l.182-.206c-.697-.139-1.173-.435-1.813-1.204.587.32 1.646.253 1.956-.067-1.078-.349-1.77-1.108-2.133-1.624.806.415 1.88.568 2.458.396-2.07-.52-2.873-2.35-2.863-2.34 2.161 1.437 4.939.797 6.079.51 1.484-.377 2.176-.712 3.756-1.013zm-12.37 51.288a.54.54 0 00-.548.492c-.243 3.646-.993 16.357-1.145 19.636 0 .038-.005.076-.005.12-.005.047-.01.094-.01.138-.004.037-.004.07-.004.11-.058 1.476 1.073 2.488 2.529 2.412 1.46.077 2.596-.936 2.524-2.413v-.248l-.014-.119c-.148-3.279-.897-15.99-1.14-19.636a.54.54 0 00-.55-.492.549.549 0 00-.553.545c-.004 3.967 0 13.501 0 16.5v.87c0 .125.024.263-.019.37-.053.122-.152.217-.248.323-.086-.105-.196-.2-.244-.324-.042-.106-.019-.244-.019-.368-.004-.865.005-12.805-.004-17.371a.546.546 0 00-.55-.545zm-2.662-.832a.443.443 0 00-.492.368c-.29 1.533-3.316 14.56-4.099 18.91-.243 1.337.368 2.355 1.647 2.808 1.651.588 3.197-.3 3.331-1.953.2-2.543 1.097-15.967 1.264-19.076a.448.448 0 00-.893-.062c-.271 2.125-1.931 13.516-2.261 16.224-.02.153-.02.32-.086.454-.057.12-.196.2-.3.3-.072-.124-.177-.233-.21-.362-.034-.116.01-.254.023-.378.1-.856 2.023-13.024 2.472-16.731a.458.458 0 00-.396-.502zm7.049-.003l-.087.002a.452.452 0 00-.396.502c.449 3.707 2.372 15.876 2.472 16.731.014.124.057.263.024.378-.033.13-.139.239-.215.363-.105-.1-.238-.181-.295-.301-.072-.133-.068-.301-.082-.454-.334-2.708-2-14.099-2.266-16.224a.448.448 0 00-.893.063c.162 3.109 1.064 16.533 1.264 19.076.13 1.653 1.685 2.541 3.327 1.953 1.283-.453 1.894-1.47 1.651-2.81-.783-4.348-3.813-17.375-4.094-18.91a.455.455 0 00-.497-.367zm-9.182-1.393a.423.423 0 00-.51.264c-.52 1.384-5.527 12.923-7.048 17.075-.463 1.276-.053 2.375 1.082 3.039 1.48.85 3.121.229 3.532-1.371.644-2.47 3.579-14.778 4.247-17.654a.421.421 0 00-.282-.491.412.412 0 00-.52.29c-.596 1.944-3.951 12.053-4.738 14.672-.049.148-.072.31-.162.43-.072.11-.22.168-.34.248-.052-.134-.123-.258-.138-.396-.01-.115.053-.24.09-.364.25-.826 4.038-11.823 5.054-15.215a.41.41 0 00-.267-.527zm11.307-.014l-.079.015a.42.42 0 00-.277.527c1.027 3.392 4.81 14.389 5.064 15.215.038.124.1.249.085.364-.01.138-.085.262-.138.396-.114-.08-.257-.139-.339-.248-.085-.12-.11-.282-.157-.43-.797-2.619-4.142-12.728-4.743-14.672a.412.412 0 00-.516-.29.421.421 0 00-.281.491c.672 2.876 3.602 15.184 4.242 17.654.415 1.6 2.056 2.221 3.527 1.37 1.149-.664 1.56-1.763 1.092-3.038-1.523-4.153-6.538-15.69-7.048-17.076a.42.42 0 00-.51-.263zm-25.002 7.917c-.053.41-.282.784-.654.989-.186.1-.392.148-.592.148-.167 0-.329-.034-.486-.095.028.08.047.162.07.248.034.11.192.659.21.726a1.37 1.37 0 001.323 1.023c.41 0 .777-.187 1.026-.477.467.906.052 1.404.052 1.404s.42-.143.663-.726c.22-.512.263-1.376-.405-2.185-.268-.318-.625-.554-.95-.82a6.656 6.656 0 01-.257-.235zm38.619.001c-.081.076-.167.158-.262.234-.32.267-.678.502-.945.82-.669.81-.626 1.675-.41 2.185.252.584.667.727.667.727s-.415-.498.048-1.405c.253.29.62.477 1.035.477.635 0 1.165-.44 1.317-1.022.02-.067.182-.616.21-.726.02-.086.043-.168.067-.248a1.262 1.262 0 01-1.078-.053 1.286 1.286 0 01-.65-.989zm1.24-.952a.883.883 0 00-.873.885.877.877 0 101.756 0 .885.885 0 00-.883-.885zm-41.11 0a.885.885 0 00-.882.885c0 .487.395.877.882.877.482 0 .878-.39.878-.877a.884.884 0 00-.878-.885zm41.693-.118c.715.324.62 1.07.62 1.07.23-.225.597-.293.597-.293-.434-.515-.654-.668-1.217-.777zm-42.265 0c-.563.11-.788.263-1.222.777 0 0 .377.068.597.292 0 0-.09-.745.625-1.07zm.634-.25a3.72 3.72 0 00-2.558-.61.436.436 0 00-.138.023.76.76 0 10.73 1.276c.163-.144.778-.769 1.966-.688zm43.553-.61a3.726 3.726 0 00-2.561.61c1.192-.08 1.808.545 1.965.688a.765.765 0 001.302-.54.759.759 0 00-.571-.735.425.425 0 00-.135-.023zm1.657-.521c-.24.105-.43.186-.545.224-.09.038-.324.096-.405.125.281.152.416.473.416.802 0 .25-.058.478-.158.664.248-.024.506-.057.773-.09.162-.029.296-.44.296-.841 0-.473-.173-.884-.377-.884zm-49.433 0c-.196 0-.367.41-.367.884 0 .4.133.812.296.84.267.034.525.067.768.091a1.456 1.456 0 01-.157-.664c0-.329.133-.65.42-.802-.082-.029-.316-.087-.406-.125a9.226 9.226 0 01-.554-.224zm50.707-.54c-.296.12-.587.25-.855.364.215.228.363.611.363 1.06 0 .295-.067.563-.172.783.263-.033.516-.062.764-.091.215-.138.4-.525.4-1.036 0-.592-.252-1.017-.5-1.08zm-51.976 0c-.244.062-.497.487-.497 1.079 0 .512.192.899.406 1.037.234.03.496.058.76.091a1.758 1.758 0 01-.173-.783c0-.45.144-.832.358-1.06-.262-.115-.554-.244-.854-.364zm53.035-.421c-.19.072-.396.149-.61.235.271.263.452.726.452 1.265 0 .374-.09.708-.233.97.22-.028.42-.054.573-.071.3-.138.534-.622.534-1.18 0-.66-.325-1.22-.716-1.22zm-54.095 0c-.386 0-.716.56-.716 1.219 0 .558.234 1.042.535 1.18.157.017.349.043.573.072a2.09 2.09 0 01-.23-.971c0-.54.182-1.003.459-1.265-.22-.086-.425-.162-.62-.235zm55.11-.25l-.137.003c-.08.01-.19.032-.31.066.33.276.549.793.549 1.4 0 .42-.105.793-.273 1.07.52-.157.836-.54 1.037-1.085.2-.531-.11-1.528-1.003-1.451zm-55.988.002c-.892-.076-1.202.92-1.002 1.452.206.545.516.928 1.04 1.085-.171-.278-.271-.65-.271-1.07 0-.608.22-1.124.549-1.401a2.305 2.305 0 00-.316-.066zm47.135-1.318c.356.734.6 1.523.699 2.221.134.87.802.85 1.18.72a4.9 4.9 0 011.482-.252h.039c-2.113-.702-3.56-3-3.56-3zm-38.261-.308l-.018.028c-.182.278-1.57 2.316-3.53 2.969 0 0 .754-.014 1.523.252.371.13 1.035.15 1.169-.72.118-.798.424-1.715.859-2.532l-.003.003zm1.5-1.45c-1.917 1.762-2.128 4.74-2.128 4.74a4.85 4.85 0 01.821-.961c.33-.306.5-.655.578-.837.1-.238.128-.627.176-.988.134-1.161.553-1.954.553-1.954zm35.108-.002s.415.793.553 1.954c.043.363.072.751.177.99.076.18.253.53.582.836.29.272.549.553.811.96 0 0-.21-2.976-2.123-4.74zm315.807-22.4c2.723 0 4.31.616 6.055 1.742-.513 1.083-1.128 2.518-1.537 3.75-1.589-2.823-3.442-3.49-5.287-3.49-2.462 0-4.362 1.64-4.362 4.21 0 3.186 2.668 4.469 5.592 5.19 4.466 1.13 7.027 2.514 7.027 6.986 0 4.932-4.764 8.677-9.898 8.677-2.619 0-4.924-.718-6.77-2.105.565-1.025 1.28-2.72 1.639-3.75 1.952 3.19 3.953 3.856 6.106 3.856 2.975 0 5.333-1.746 5.333-4.73 0-3.387-2.823-4.26-6.051-5.134-4.004-1.08-6.569-3.083-6.569-7.243 0-4.825 3.541-7.959 8.722-7.959zm21.085 0c2.72 0 4.31.616 6.054 1.742-.512 1.083-1.129 2.518-1.54 3.75-1.59-2.823-3.437-3.49-5.283-3.49-2.462 0-4.362 1.64-4.362 4.21 0 3.186 2.672 4.469 5.596 5.19 4.461 1.13 7.027 2.514 7.027 6.986 0 4.932-4.772 8.677-9.902 8.677-2.615 0-4.924-.718-6.77-2.105.565-1.025 1.28-2.72 1.638-3.75 1.952 3.19 3.954 3.856 6.107 3.856 2.978 0 5.336-1.746 5.336-4.73 0-3.387-2.824-4.26-6.054-5.134-4.003-1.08-6.569-3.083-6.569-7.243 0-4.825 3.54-7.959 8.722-7.959zm-35.961.51c-.396 3.731-.457 9.911-.46 12.727v.27c0 2.155.05 9.09.46 12.995a17.792 17.792 0 00-2.36-.156c-.872 0-1.897.051-2.664.156.102-.876.253-3.083.253-4.006-1.692 3.077-4.972 4.57-8.207 4.57-4.976 0-8.873-3.182-8.873-8.425 0-1.284.152-3.489.152-5.133l-.001-.403c-.006-2.515-.072-8.906-.458-12.595.871.05 1.995.156 2.616.156.56 0 1.642-.107 2.41-.156-.413 3.906-.463 10.842-.463 12.998 0 7.858 2.363 10.628 6.362 10.628 6.165 0 6.656-6.224 6.67-11.07v-.379c-.005-1.403-.068-8.438-.46-12.178.87.05 1.997.156 2.617.156.564 0 1.639-.106 2.406-.156zm-103.522-.512c7.796 0 12.67 5.649 12.67 13.353 0 7.857-5.078 13.713-13.134 13.713-7.896 0-12.824-5.799-12.824-12.993 0-8.524 5.439-14.073 13.288-14.073zm-97.227 0c5.383 0 9.13 2.722 9.13 9.45v12.38c0 2.925.564 3.237 1.642 3.237.36 0 .768-.055 1.079-.107l.303 1.287c-1.998.717-3.126.819-3.69.819-1.695 0-2.774-.769-3.182-2.258l-.307-1.129c-2.774 2.206-5.8 3.387-8.309 3.387-4.673 0-7.699-2.464-7.699-6.78 0-4.622 3.128-6.778 7.18-7.5l6.206-1.126c1.748-.308 2.672-.823 2.672-2.106 0-5.6-2.361-7.55-6.262-7.55-3.024 0-5.54 1.13-6.921 4.109h-.617v-2.977c2.925-2.261 5.694-3.136 8.775-3.136zm274.164 0c5.387 0 9.128 2.722 9.128 9.45v12.38c0 2.925.565 3.237 1.643 3.237.359 0 .772-.055 1.079-.107l.306 1.287c-2.005.717-3.133.819-3.698.819-1.69 0-2.765-.769-3.177-2.258l-.307-1.129c-2.77 2.206-5.795 3.387-8.314 3.387-4.664 0-7.695-2.464-7.695-6.78 0-4.622 3.132-6.778 7.185-7.5l6.206-1.126c1.745-.308 2.668-.823 2.668-2.106 0-5.6-2.36-7.55-6.258-7.55-3.024 0-5.54 1.13-6.925 4.109h-.616v-2.977h-.001c2.924-2.261 5.693-3.136 8.776-3.136zM120.87 139.697l-.134.003c.462.19.61.821.534 1.194.482-.144.945-.034 1.246.268-.029-.798-.93-1.524-1.78-1.462zm-57.722.003c-.845-.062-1.747.664-1.775 1.462.3-.302.763-.41 1.25-.268-.086-.373.062-1.004.525-1.194zm53.233-.16l-.045.002c-.305.425-.54.888-.63 1.352.358-.2.75-.41 1.165-.616a.707.707 0 00-.106-.42c-.138-.235-.339-.34-.429-.316zm-48.833.002c-.091-.024-.287.082-.425.315-.1.168-.124.325-.105.42.415.206.806.417 1.165.617-.091-.464-.325-.927-.635-1.352zm.764-.325c-.048.025-.087.043-.13.082a.518.518 0 00-.176.229c-.02.047-.02.09-.005.114.23.397.41.797.583 1.2l-.001-.002v-.126a6.84 6.84 0 00-.123-.932l-.015-.074-.133-.491zm47.27-.001c-.057.169-.1.33-.133.492-.044.179-.159.775-.148 1.133l-.001-.002.135-.3c.09-.2.185-.4.29-.6l.163-.298c.014-.024.014-.067-.005-.114a.522.522 0 00-.177-.229c-.043-.038-.086-.057-.124-.082zm220.872-39.251c.667 0 1.076.05 1.438.156-.049.715-.155 1.898-.155 2.31 0 .511.106 1.54.155 2.414-1.641-.622-2.515-.773-3.181-.773-2.923 0-4.462 1.545-4.462 4.573 0 1.181.102 3.443.461 6.215 1.487 0 3.952-.207 5.642-.413a22.087 22.087 0 00-.102 1.645c0 .463.053 1.08.102 1.49-1.741-.255-3.59-.41-4.211-.41h-1.533v8.115c0 4.004.05 11.505.458 15.41a17.629 17.629 0 00-2.358-.155c-.873 0-1.896.05-2.668.156.396-3.756.458-10.835.463-14.934v-8.592h-.87c-.466 0-1.181.049-2.723.41.105-.512.156-1.284.156-1.542s-.051-1.024-.156-1.593c1.13.361 1.9.413 2.722.413h.87c0-8.323 5.695-14.895 9.952-14.895zm-97.228 14.227c4.976 0 8.874 3.134 8.874 8.369 0 1.287-.152 3.493-.152 5.14 0 2.155.052 9.089.465 12.995a17.937 17.937 0 00-2.365-.156c-.87 0-1.895.051-2.667.156.409-3.906.46-10.84.46-12.995 0-7.86-2.36-10.58-6.36-10.58-6.162 0-6.654 6.174-6.667 11.02v.481c.007 1.611.075 8.418.458 12.075a17.8 17.8 0 00-2.36-.157c-.872 0-1.896.052-2.666.157.39-3.69.456-10.08.462-12.593v-.403c0-2.62-.05-9.14-.462-12.997.872.048 2 .155 2.616.155.565 0 1.642-.107 2.41-.156-.102.876-.256 3.084-.256 4.008 1.693-3.08 4.975-4.519 8.21-4.519zm226.66.511c-.395 3.732-.459 9.912-.462 12.728v.27c0 2.155.054 9.089.463 12.995a17.89 17.89 0 00-2.361-.156c-.87 0-1.9.051-2.67.156.4-3.798.46-10.457.462-12.805v-.19c0-2.62-.049-9.142-.462-12.998.872.05 2 .156 2.616.156.565 0 1.643-.107 2.415-.156zm-205.473-14.482c-.397 3.752-.458 10.784-.463 14.928v10.856h.821c1.693 0 10.365-9.864 11.186-11.302.716.05 1.896.157 2.513.157.513 0 1.744-.106 2.514-.157l-12.261 10.994c1.539 1.846 9.694 11.044 13.39 14.999-1.385-.106-2.36-.156-3.08-.156-.923 0-2.307.05-3.386.156-1.896-2.981-7.696-9.811-10.875-13.305h-.821c0 1.898.05 9.4.462 13.305a17.766 17.766 0 00-2.36-.156c-.871 0-1.9.05-2.666.156.393-3.755.458-10.836.463-14.933v-10.13c0-4.06-.054-11.51-.463-15.412.867.05 1.995.152 2.616.152.56 0 1.638-.102 2.41-.152zm108.976 3.134c6.57 0 10.774 2.878 10.774 8.475 0 5.033-3.695 9.398-11.03 10.167 9.542 12.225 11.544 14.642 15.134 18.699a42.015 42.015 0 00-3.59-.156c-1.129 0-2.36.049-3.387.156-3.645-5.345-9.797-13.203-13.952-18.135h-1.848c0 6.163.049 12.482.411 18.135a21.506 21.506 0 00-2.618-.156c-.92 0-1.998.049-2.82.156.294-5.407.4-12.786.409-19.08v-1.624c-.004-5.78-.066-13.938-.408-16.637 1.486.102 4.617.15 5.846.15 1.387 0 5.128-.15 7.08-.15zm-189.634 0c7.284 0 13.031 1.384 13.031 7.959 0 4.675-2.978 7.295-8.207 9.092 7.333 1.54 9.388 4.932 9.388 9.348 0 7.55-6.418 10.941-14.576 10.941-1.945 0-5.021-.155-6.564-.155-.668 0-2.358.107-3.074.155.294-5.406.4-12.785.408-19.08v-1.623c-.005-5.78-.07-13.939-.408-16.637 1.28.051 4.41.151 5.233.151 1.381 0 3.845-.151 4.769-.151zM53.757 127.053c-.31-.024-.473.334-.492 1.195l-.176 5.279c-.01.234-.086.363-.23.353-.147-.01-.19-.169-.195-.344l.043-4.462c0-.841-.186-.985-.449-.813-.687.44-.844 3.87-.787 5.108.12 2.614.367 5.189-.759 7.07 0 0 3.56-.778 3.875-9.587.033-1.056-.024-3.742-.83-3.799zm76.434 0h-.06c-.806.057-.868 2.744-.83 3.799.31 8.81 3.875 9.587 3.875 9.587-1.126-1.882-.883-4.456-.76-7.07.059-1.237-.104-4.668-.79-5.108-.263-.173-.45-.028-.45.813l.044 4.462c-.005.176-.048.334-.191.344-.139.01-.225-.12-.23-.353l-.18-5.279c-.02-.861-.182-1.219-.488-1.195zm-12.973 11.606l-.056.014c-.13.1-.253.215-.368.335-.019.018-.033.037-.047.052-.049.047-.096.1-.139.148.19.076.367.233.506.46.08.142.133.285.148.424.229-.105.458-.205.687-.305a.363.363 0 00.042-.187.915.915 0 00-.162-.511 1.079 1.079 0 00-.395-.382c-.105-.049-.206-.063-.272-.034zm-50.491.013c-.072-.028-.167-.014-.268.034a1.142 1.142 0 00-.405.382.955.955 0 00-.162.512c0 .075.02.138.043.186.229.1.463.2.687.305.02-.138.072-.281.153-.425.129-.225.31-.382.5-.459-.042-.048-.086-.1-.133-.148a4.688 4.688 0 00-.415-.387zm8.817-3.209l-.178.205c-.752.912-1.176 2.08-1.238 2.915-.071.877-.277 1.194-.277 1.194l.001-.002.849-.802s.355-.323.541-.654l.05-.1c.12-.263.163-.626.143-.84-.152-1.493.11-1.917.11-1.917l-.001.001zm32.801.002l.012.025c.055.115.235.609.1 1.888-.024.215.02.578.138.84.163.364.593.754.593.754l.851.801c-.022-.039-.182-.326-.262-1.023l-.017-.168c-.071-.898-.553-2.183-1.417-3.12l.002.003zm-42.477 2.644a.466.466 0 00-.272.015 1.16 1.16 0 00-.52.372 1.133 1.133 0 00-.277.578.447.447 0 00.052.311c.215.067.435.144.645.225-.005-.23.071-.488.214-.717a1.505 1.505 0 01.578-.531.044.044 0 00-.01-.019 2.76 2.76 0 00-.324-.19c0-.006-.01-.01-.01-.01a.365.365 0 00-.076-.034zm52.22-.014l-.072.013a.452.452 0 00-.072.034c-.005 0-.005.004-.01.01a3.604 3.604 0 00-.329.19c-.004.005-.004.015-.01.019a1.417 1.417 0 01.578.531c.143.23.229.488.22.717.215-.081.424-.158.64-.224.07-.096.066-.23.052-.311-.02-.193-.125-.402-.273-.579a1.166 1.166 0 00-.52-.372.484.484 0 00-.276-.015zm9.996-9.784c-.262-.115-.54.005-.5.831l.234 4.534c.018.162.004.31-.125.34-.124.024-.215-.082-.263-.288l-.458-4.257c-.028-.846-.281-.978-.553-.923-.72.178-.663 2.772-.506 3.723 1.213 7.128 5.097 7.28 5.097 7.28-1.294-1.532-1.776-4.127-2.1-6.559-.148-1.117-.143-4.386-.826-4.681zm-71.78.831c.039-.826-.233-.946-.5-.831-.678.295-.678 3.564-.83 4.681-.325 2.432-.802 5.026-2.095 6.56 0 0 3.884-.153 5.091-7.281.163-.951.22-3.545-.5-3.723-.273-.055-.525.078-.55.923l-.462 4.257c-.048.207-.138.312-.267.287-.13-.028-.139-.177-.12-.339zm59.693 9.128a5.577 5.577 0 00-.315.655.867.867 0 01.215.134.902.902 0 01.214.24 4.23 4.23 0 01.416-.518c0-.024 0-.052-.015-.085a.557.557 0 00-.171-.267.524.524 0 00-.277-.149c-.024-.01-.048-.01-.067-.01zm-48.101 0c-.024 0-.048 0-.072.01a.566.566 0 00-.281.15.557.557 0 00-.172.266c-.01.033-.01.062-.01.086.154.162.292.335.42.517a.733.733 0 01.206-.24.814.814 0 01.219-.133 6.264 6.264 0 00-.31-.656zm238.856-22.074c-5.542 0-8.26 5.8-8.26 11.913 0 5.804 2.415 11.149 7.851 11.149 5.232 0 8.36-5.035 8.36-11.917 0-5.546-2.154-11.145-7.951-11.145zM64.79 137.81c-.583-.014-1.323.306-1.432 1.22.334.043.683.119 1.035.214a.892.892 0 01.01-.224c.033-.267.168-.545.367-.784.129-.153.286-.281.444-.373a2.314 2.314 0 00-.424-.053zm54.304 0a2.33 2.33 0 00-.42.053c.162.091.31.22.444.373.2.24.329.517.363.784a.858.858 0 01.01.224 8.278 8.278 0 011.04-.215c-.115-.913-.855-1.233-1.437-1.219zm3.278.819c-.171-.655-.94-1.348-2.534-.975.846.22.945.875 1.008 1.2.195-.254.944-.507 1.526-.225zm-58.322-.975c-1.589-.373-2.367.32-2.53.975.578-.282 1.323-.029 1.523.225.062-.326.162-.98 1.007-1.2zm52.667-.27l-.042.007a3.193 3.193 0 00-.482.568 1 1 0 01.376.225.94.94 0 01.24.325c.119-.11.257-.215.4-.311a.246.246 0 00.038-.148.785.785 0 00-.133-.373.73.73 0 00-.291-.263c-.058-.028-.11-.037-.148-.023zm-49.508.007c-.034-.014-.086-.005-.143.023a.775.775 0 00-.296.263.757.757 0 00-.124.373c-.005.066.005.115.028.148.143.096.282.2.41.311a.924.924 0 01.23-.325c.12-.105.253-.186.382-.225a3.418 3.418 0 00-.487-.568zm147.496-9.949l-3.387.515c-3.692.565-7.795 1.848-7.795 5.75 0 2.981 1.638 4.572 4.971 4.572 2.056 0 4.108-.718 6.21-2.928v-7.909zm274.162 0l-3.383.515c-3.695.565-7.799 1.848-7.799 5.75 0 2.981 1.643 4.572 4.976 4.572 2.051 0 4.103-.718 6.206-2.928v-7.909zm-381.86 5.072s.491 1.328-.005 3c-.081.29-.152.774-.12 1.08.03.295.22.659.42.827.487.406.97.83.97.83l-.002-.001c-.036-.058-.23-.397-.181-.977l.02-.164c.186-1.213-.115-3.081-1.103-4.595zm-30.132.002l-.164.268c-.847 1.461-1.112 3.183-.936 4.324.096.624-.083 1.01-.141 1.114l-.017.029s.472-.425.969-.831c.2-.168.39-.531.42-.827.033-.305-.038-.788-.125-1.08-.49-1.672-.004-3-.004-3l-.002.003zm-16.924-2.554c.162-.65-.134-.765-.343-.685-.564.198-1.06 2.644-1.241 3.523-.41 1.977-1.194 4.205-2.305 5.35 0 0 3.373-.158 4.723-5.756.182-.746.64-2.733.082-2.904-.22-.068-.392.157-.544.764l-.926 3.51c-.047.169-.124.24-.23.216-.099-.033-.099-.153-.075-.277zm64.335-.685c-.22-.08-.51.034-.353.685l.863 3.741c.03.124.02.244-.08.277-.1.024-.181-.047-.225-.215l-.921-3.51c-.158-.608-.339-.833-.548-.765-.559.171-.1 2.158.08 2.904 1.35 5.598 4.724 5.757 4.724 5.757-1.106-1.147-1.894-3.374-2.31-5.351-.18-.88-.672-3.325-1.23-3.523zm-6.457 7.493c-.233.038-.462.11-.658.235-.034.018-.067.047-.1.066.148.087.281.215.391.378.095.153.162.32.19.477.177-.11.378-.22.588-.315a.278.278 0 00.034-.12.71.71 0 00-.087-.387c-.105-.204-.252-.314-.358-.334zm-51.77 0c-.105.02-.253.13-.358.334a.767.767 0 00-.091.388.23.23 0 00.043.119c.21.096.401.206.583.315.023-.157.09-.324.185-.477.11-.163.249-.292.396-.378-.033-.02-.066-.048-.1-.066a1.728 1.728 0 00-.658-.235zm110.157-14.618h-1.437v15.562c1.128.049 3.025.106 4.357.106 5.236 0 9.598-2.212 9.598-8.118 0-4.623-2.517-7.55-12.518-7.55zm-57.747 14.617a1.195 1.195 0 01.224.674c.292-.085.606-.12.96-.081-.225-.31-.688-.531-1.184-.593zm-53.045 0c-.505.062-.969.283-1.188.593.353-.038.668-.004.959.08a1.133 1.133 0 01.23-.673zm27.276-5.322c-.253-.123-.448-.032-.496.536l-.152 1.749c-.014.123-.01.291-.154.291-.142 0-.133-.167-.156-.291l-.148-1.749c-.053-.568-.244-.659-.497-.536-.663.326-.864 1.75-.864 2.17 0 1.194.788 3.162 1.665 3.664.879-.5 1.666-2.47 1.666-3.664 0-.42-.205-1.844-.864-2.17zm13.634 4.396c-.186-.33-.902-.272-1.556.377 0 0 .477-.062 1.069.21.587.277.673-.252.487-.587zm-27.224.377c-.653-.65-1.374-.706-1.556-.377-.186.335-.1.864.487.588.587-.274 1.07-.212 1.07-.21zm-16.683-5.45c.134-.473-.095-.569-.267-.521-.434.124-.845 1.925-.993 2.574-.338 1.453-.897 2.796-1.774 3.608 0 0 2.705-.052 3.67-3.827.142-.545.52-2.002.085-2.15-.167-.057-.305.1-.43.55l-.84 2.756c-.038.12-.1.172-.176.148-.077-.024-.08-.114-.062-.205zm59.301-.521c-.171-.048-.405.048-.272.52l.788 2.934c.018.091.018.181-.058.205-.08.024-.138-.028-.177-.148l-.834-2.757c-.134-.449-.272-.606-.44-.55-.433.149-.051 1.606.091 2.15.916 3.603 3.423 3.815 3.649 3.827h.016c-.873-.81-1.436-2.154-1.765-3.607-.154-.65-.559-2.45-.998-2.574zm-41.455 3.361l-.05.002c-.369.043-.645.77-.707 1.06-.153.665-.014 1.547.534 1.682.544.134 1.026-.606 1.179-1.285.057-.262.138-1.07-.177-1.267-.12-.075-.229-.066-.3.135l-.32 1.051c-.024.043-.034.105-.105.086-.076-.015-.058-.078-.058-.124l.163-1.085c.023-.21-.067-.268-.21-.253zm23.389.002c-.144-.014-.234.043-.21.253l.167 1.085c0 .047.019.109-.058.124-.07.02-.085-.043-.104-.086l-.32-1.051c-.077-.202-.182-.211-.3-.135-.311.197-.24 1.005-.173 1.267.153.679.625 1.419 1.174 1.285.549-.135.687-1.017.535-1.681-.072-.291-.344-1.018-.711-1.06zm-7.597-1.806c-.63-.004-1.246.74-1.446 1.09-.563.988-.65 2.469-.248 3.259.878-.063 1.908-.545 2.471-1.529.192-.354.716-1.616.392-2.15-.134-.215-.315-.22-.615.234l-.936 1.386c-.067.09-.139.233-.244.17-.104-.056-.019-.194.025-.3l.71-1.51c.23-.492.13-.65-.11-.65zm-8.241 0c-.243 0-.344.157-.11.65l.707 1.51c.047.105.128.243.023.298-.1.063-.177-.08-.243-.17l-.936-1.387c-.3-.453-.486-.448-.61-.233-.325.534.195 1.796.396 2.15.558.983 1.589 1.466 2.467 1.529.396-.79.31-2.27-.249-3.259-.205-.347-.815-1.093-1.445-1.089zm18.276.492c-.176-.038-.3.009-.32.249v1.265c-.01.053 0 .12-.095.13-.095.01-.095-.062-.115-.115l-.205-1.247c-.047-.234-.18-.263-.353-.196-.434.172-.501 1.104-.477 1.41.067.798.525 1.71 1.246 1.643.72-.067 1.073-1.046 1.016-1.826-.029-.344-.234-1.213-.697-1.313zm-28.001.25c-.01-.24-.139-.288-.32-.25-.453.1-.659.97-.687 1.314-.058.779.29 1.758 1.011 1.825.725.067 1.183-.845 1.246-1.643.024-.306-.039-1.238-.472-1.409-.173-.067-.306-.037-.359.195l-.204 1.248c-.015.053-.015.125-.11.114-.1-.01-.087-.077-.096-.129zm23.735-.216c-.157-.047-.282-.014-.31.19l-.091 1.057c-.014.038-.01.1-.1.1-.09 0-.086-.058-.1-.1l-.095-1.057c-.034-.205-.153-.234-.316-.19-.41.115-.538.892-.534 1.151 0 .669.358 1.467 1.03 1.457.673-.014 1.065-.812 1.06-1.466 0-.287-.129-1.032-.544-1.142zm-19.47.19c-.028-.206-.152-.238-.314-.19-.415.11-.544.855-.544 1.141 0 .655.396 1.452 1.064 1.467.668.01 1.03-.788 1.035-1.458 0-.258-.128-1.036-.544-1.15-.158-.044-.276-.015-.31.19l-.105 1.056c-.005.042 0 .1-.095.1-.091 0-.086-.061-.091-.1zm2.434-.831c-.01-.205-.114-.244-.253-.205-.362.085-.53.82-.549 1.108-.057.656.22 1.477.793 1.534.572.053.944-.723.997-1.39.02-.258-.024-1.043-.372-1.186-.134-.057-.243-.033-.287.168l-.167 1.055c-.01.039-.01.096-.09.09-.077-.003-.062-.065-.072-.108zm14.54-.204c-.138-.04-.238 0-.253.205v1.093c-.001.037-.01.078-.072.082-.076.005-.076-.053-.09-.091l-.163-1.056c-.046-.2-.152-.224-.285-.167-.344.142-.392.926-.373 1.184.057.669.42 1.444.998 1.391.567-.057.844-.878.791-1.533-.023-.288-.185-1.024-.552-1.108zm-18.911-1.353c.005-.258-.128-.32-.32-.286-.49.075-.763.984-.816 1.347-.119.817.187 1.876.945 1.997.754.12 1.308-.817 1.427-1.662.048-.315.043-1.305-.405-1.52-.177-.08-.32-.062-.387.185l-.3 1.306c-.025.052-.025.13-.134.114-.1-.014-.081-.085-.092-.143zm23.354-.286c-.191-.034-.324.028-.324.286l.081 1.338c0 .058.014.128-.09.143-.101.015-.106-.062-.125-.114l-.305-1.306c-.067-.247-.215-.266-.382-.185-.454.215-.458 1.204-.41 1.52.119.846.668 1.781 1.426 1.662.755-.12 1.064-1.18.95-1.997-.053-.363-.325-1.272-.82-1.347zm-2.692-.22c-.147-.03-.248.009-.262.191l-.01.936c-.004.039 0 .09-.07.096-.087.01-.087-.044-.092-.082l-.162-.927c-.043-.176-.148-.195-.286-.143-.349.129-.406.822-.387 1.046.043.598.415 1.272.993 1.219.582-.054.873-.784.825-1.357-.019-.259-.18-.903-.549-.98zm-18.23-.008l-.06.007c-.368.078-.53.721-.549.98-.043.574.239 1.304.826 1.357.582.053.945-.62.992-1.219.02-.224-.038-.917-.382-1.046-.138-.053-.253-.033-.29.143l-.158.927c-.015.038-.015.091-.091.082-.049-.003-.063-.023-.069-.047l-.007-.049-.01-.936c-.019-.182-.114-.22-.262-.192zm23.318-.254c-.144-.03-.249.008-.258.204v1.032c-.01.039 0 .095-.082.106-.08.005-.08-.058-.085-.096l-.167-1.013c-.043-.197-.153-.22-.29-.162-.354.138-.407.898-.383 1.147.052.65.425 1.394 1.007 1.342.582-.052.863-.855.82-1.486-.023-.282-.19-.989-.562-1.074zm-28.411-.01l-.06.009c-.37.086-.534.792-.557 1.074-.048.632.234 1.435.82 1.485.588.052.955-.692 1.007-1.342.024-.248-.028-1.008-.382-1.146-.137-.057-.247-.035-.29.162l-.163 1.014c-.014.038-.014.1-.09.095-.081-.01-.072-.067-.077-.106l-.01-1.031c-.009-.196-.114-.234-.257-.205zm29.808 1.942c-.204-.37-.447-.124-.477.12-.023.25.367.492.964.397 0 0-.272-.147-.487-.517zm-30.783.12c-.029-.244-.277-.492-.482-.12-.2.37-.482.517-.482.517.587.095.993-.147.964-.397zm7.921-5.135c-.267-.018-.358.159-.057.751l.907 1.82c.057.13.158.291.052.358-.105.063-.2-.11-.281-.224l-1.141-1.687c-.367-.55-.567-.555-.677-.317-.315.618.276 1.965.52 2.395.697 1.19 2.061 2.174 3.016 2.295.362-.889.18-2.566-.516-3.756-.248-.425-1.136-1.6-1.823-1.635zm14.517-.002l-.053.001c-.687.034-1.57 1.21-1.823 1.635-.697 1.19-.878 2.867-.515 3.756.954-.12 2.314-1.104 3.011-2.295.248-.43.835-1.777.53-2.395-.12-.238-.315-.233-.683.317l-1.14 1.686c-.081.115-.172.287-.282.225-.11-.067 0-.23.058-.36l.901-1.818c.296-.592.2-.769-.057-.751zm-9.24.447c-.256-.087-.42.024-.385.596l.11 1.75c0 .12.033.281-.106.305-.128.02-.153-.148-.181-.262l-.401-1.71c-.129-.555-.325-.612-.544-.454-.577.41-.558 1.844-.496 2.26.177 1.174 1.055 2.03 1.956 2.407.75-.621 1.351-1.698 1.174-2.876-.057-.416-.453-1.791-1.126-2.016zm4.29.596c.044-.572-.123-.682-.385-.596-.669.225-1.065 1.6-1.127 2.016-.171 1.178.425 2.255 1.18 2.876.896-.377 1.783-1.232 1.95-2.408.068-.415.082-1.848-.486-2.26-.229-.157-.42-.1-.548.454l-.397 1.71c-.038.115-.053.282-.19.263-.14-.024-.106-.186-.1-.306zm8.151-.534c-.162-.044-.277.005-.29.238v1.22c-.005.047.009.118-.077.123-.096.005-.096-.062-.11-.11l-.191-1.199c-.043-.234-.166-.259-.319-.197-.396.163-.45 1.062-.425 1.358.057.77.477 1.653 1.135 1.59.654-.061.97-1.003.912-1.752-.024-.33-.22-1.176-.635-1.271zm-20.686.238c-.014-.233-.13-.282-.291-.238-.415.094-.605.94-.63 1.27-.062.75.253 1.692.907 1.754.659.062 1.078-.821 1.14-1.591.025-.297-.033-1.195-.429-1.358-.148-.062-.277-.036-.32.197l-.19 1.2c-.015.047-.02.114-.101.11-.09-.006-.08-.078-.086-.125zm-2.464.408l-.055.008c-.354.072-.506.712-.525.965-.048.57.224 1.296.778 1.343.543.053.897-.615.944-1.205.015-.224-.033-.906-.367-1.035-.129-.049-.23-.029-.272.147l-.153.913c-.01.033-.01.091-.08.081-.077-.005-.068-.057-.072-.09l-.01-.933c-.01-.175-.11-.215-.243-.186zm25.389.007c-.139-.029-.239.01-.249.186l-.005.933c-.008.033 0 .085-.076.09-.071.01-.071-.047-.086-.08l-.152-.914c-.034-.175-.144-.195-.268-.147-.338.13-.386.812-.367 1.035.048.59.396 1.258.945 1.205.553-.047.816-.774.778-1.342-.02-.253-.172-.893-.52-.966zm-38.286-5.822c-.129-.153-.272-.096-.415.434l-.796 3.206c-.034.11-.067.267-.158.248-.086-.02-.053-.177-.034-.287l.31-2.159c.087-.535-.014-.65-.2-.568-.477.215-.893 1.734-1.055 2.494-.367 1.696-.32 3.892.124 4.48.655-.347 1.59-2.282 1.957-4.036.143-.664.615-3.426.267-3.812zm51.537.434c-.138-.53-.281-.587-.415-.434-.349.386.12 3.148.263 3.812.377 1.754 1.307 3.688 1.956 4.037.449-.589.491-2.785.124-4.481-.162-.76-.572-2.28-1.05-2.494-.181-.082-.286.033-.205.568l.315 2.16c.014.11.052.267-.038.286-.09.02-.115-.138-.153-.248zm3.736-1.367c-.223-.105-.362.02-.295.645l.4 3.177c.015.135.048.316-.062.334-.114.021-.133-.165-.171-.295l-.65-3.138c-.138-.612-.304-.684-.486-.512-.458.435-.224 2.818-.09 3.597.338 2.04 1.345 4.322 2.123 4.763.597-.664.806-3.21.482-5.193-.153-.884-.678-3.11-1.25-3.378zm-59.133.646c.062-.626-.067-.75-.291-.645-.573.268-1.103 2.494-1.25 3.378-.33 1.982-.115 4.529.481 5.193.778-.44 1.79-2.723 2.124-4.763.129-.78.363-3.163-.095-3.598-.181-.171-.344-.1-.487.513l-.649 3.138c-.03.129-.053.315-.162.295-.115-.018-.081-.2-.072-.334zm-2.915-1.037c.09-.645-.049-.783-.297-.692-.634.244-1.303 2.541-1.493 3.449-.44 2.05-.31 4.715.305 5.448.869-.417 2.061-2.733 2.506-4.846.171-.802.524-3.277.038-3.755-.182-.186-.368-.124-.544.511l-.84 3.283c-.043.128-.072.32-.196.29-.12-.025-.072-.21-.058-.348zm64.97-.693c-.25-.09-.392.047-.297.692l.578 3.34c.013.138.062.324-.058.35-.124.028-.157-.163-.2-.292l-.84-3.283c-.176-.634-.357-.697-.549-.51-.477.477-.129 2.953.043 3.753.453 2.113 1.642 4.43 2.51 4.846.62-.731.744-3.397.306-5.447-.196-.908-.86-3.205-1.494-3.449zm-9.35 3.468c-.147-.348-.262-.371-.376-.248-.287.32.32 2.332.625 3.025 1.489 3.41 3.25 3.53 1.704-.587-.19-.498-.678-1.606-1.03-1.715-.154-.05-.244.057-.154.42l.54 1.81c.013.082.047.182-.025.206-.081.023-.11-.077-.138-.153zm-46.197-.249c-.109-.123-.233-.1-.376.248l-1.14 2.758c-.034.077-.058.176-.14.154-.045-.015-.048-.057-.04-.106l.017-.1.544-1.811c.086-.363 0-.468-.163-.42-.348.11-.835 1.218-1.02 1.715-1.551 4.12.204 3.999 1.703.588.3-.693.907-2.705.615-3.026zm23.899-1.842c-.334-.173-.592-.053-.66.702l-.204 2.938c-.024.161-.014.387-.206.387-.185 0-.176-.225-.195-.387l-.21-2.938c-.062-.755-.32-.875-.658-.702-.878.425-1.136 2.096-1.136 2.66 0 1.578 1.04 3.335 2.2 4.009 1.164-.674 2.21-2.432 2.21-4.008 0-.565-.268-2.236-1.141-2.661zm-36.415-1.71c.076-.66-.067-.789-.305-.684-.62.267-1.227 2.613-1.394 3.54-.377 2.094-.19 4.783.444 5.5.84-.445 1.957-2.838 2.358-4.988.143-.822.43-3.335-.058-3.808-.19-.182-.372-.104-.53.535l-.75 3.354c-.037.134-.065.33-.185.306-.12-.02-.076-.21-.066-.35zm71.164-.685c-.239-.105-.387.024-.306.684l.482 3.405c.015.14.058.331-.066.35-.12.024-.149-.171-.186-.306l-.745-3.353c-.158-.64-.344-.717-.53-.535-.487.472-.2 2.985-.052 3.808.391 2.149 1.513 4.543 2.352 4.986.63-.716.821-3.406.44-5.5-.172-.926-.764-3.272-1.389-3.539zm-29.925 2.38c-.306-.144-.564-.043-.625.693l-.167 2.474c-.02.154-.01.373-.186.373-.186 0-.177-.22-.196-.373l-.22-1.858c-.066-.74-.305-.851-.63-.688-.83.415-.916 1.691-.916 2.236 0 1.542.826 2.995 1.929 3.654 1.101-.659 2.09-2.368 2.09-3.907 0-.55-.239-2.198-1.079-2.605zm-10.999.693c-.058-.736-.32-.837-.62-.694-.84.407-1.084 2.055-1.084 2.605 0 1.538.988 3.248 2.1 3.907 1.102-.659 1.923-2.112 1.923-3.654 0-.545-.086-1.82-.917-2.236-.324-.163-.567-.052-.625.688l-.224 1.858c-.018.154-.01.373-.19.373-.182 0-.172-.22-.196-.373zm43.19-5.495c-.71.048-.84 2.284-.787 3.154.377 6.172 3.317 7.81 3.317 7.81-.602-1.604-.492-3.354-.378-5.503.053-1.022-.07-3.845-.673-4.204-.238-.138-.405-.02-.41.669l.062 3.502c-.01.148-.047.277-.171.282-.124.009-.196-.096-.21-.287l-.325-4.438c-.014-.713-.153-1.003-.425-.985zm-76.002 0c-.272-.018-.415.272-.43.985l-.324 4.438c-.005.191-.076.296-.205.291-.125-.009-.167-.138-.172-.286l.057-3.502c-.005-.688-.167-.807-.4-.669-.607.359-.736 3.182-.678 4.204.115 2.15.22 3.899-.382 5.504 0 0 2.94-1.64 3.326-7.811.048-.87-.08-3.106-.792-3.154zm48.383 4.205c-.263-.173-.502-.106-.64.596l-.367 1.596c-.039.149-.053.358-.215.34-.162-.019-.13-.23-.13-.382l-.051-1.047c-.038-.693-.172-.85-.477-.726-.793.31-.955 1.615-1.017 2.14-.181 1.487.325 2.891 1.231 3.64 1.06-.51 2.018-2.068 2.195-3.554.067-.525.172-2.121-.53-2.603zm-20.124.596c-.138-.702-.382-.769-.64-.596-.696.482-.6 2.078-.533 2.603.186 1.486 1.135 3.044 2.2 3.554.91-.749 1.417-2.153 1.236-3.64-.068-.525-.23-1.83-1.022-2.14-.305-.123-.44.033-.477.726l-.057 1.047c0 .153.038.363-.124.382-.163.018-.182-.191-.215-.34zm21.922-.596c-.305-.024-.615.3-.848.836.085.491.104 1.08.052 1.706a7.111 7.111 0 01-.296 1.49c.138.496.367.821.649.846.548.052 1.088-1 1.217-2.346.12-1.348-.23-2.48-.774-2.532zm-24.365 0c-.549.053-.893 1.184-.768 2.532.124 1.347.668 2.398 1.212 2.346.291-.025.516-.349.653-.846a7.111 7.111 0 01-.295-1.49 6.425 6.425 0 01.052-1.706c-.234-.535-.544-.86-.854-.836zm27.453-.578c-.191-.077-.324 0-.32.397l.11 2.259c-.005.081.01.2-.09.21-.106.005-.11-.11-.134-.187l-.296-2.082c-.077-.392-.215-.435-.392-.335-.448.267-.487 1.563-.439 2.055.125 1.294.702 2.77 1.451 2.708.755-.07 1.05-1.676.936-2.933-.058-.558-.335-1.92-.826-2.092zm-30.216.396c0-.397-.128-.474-.324-.397-.487.172-.768 1.534-.816 2.092-.12 1.258.181 2.863.93 2.934.754.061 1.331-1.414 1.446-2.708.052-.492.014-1.788-.434-2.055-.177-.101-.32-.058-.392.334l-.3 2.083c-.02.077-.024.191-.124.186-.105-.01-.09-.128-.1-.21zm32.903-1.266c-.206-.052-.335.038-.296.453l.315 2.304c.005.086.033.205-.072.225-.105.019-.124-.101-.153-.182l-.524-2.132c-.11-.4-.263-.434-.435-.31-.448.32-.315 1.85-.22 2.36.249 1.333.965 2.834 1.747 2.666.788-.163.955-1.835.711-3.129-.11-.578-.539-2.116-1.073-2.255zm-35.614.453c.04-.415-.09-.505-.295-.453-.534.139-.97 1.677-1.08 2.255-.237 1.294-.07 2.966.713 3.129.782.168 1.498-1.333 1.746-2.666.1-.51.233-2.04-.215-2.36-.172-.124-.324-.09-.434.31l-.525 2.132c-.028.081-.048.2-.157.182-.1-.02-.072-.14-.072-.225zm38.296-1.437c-.225-.053-.358.048-.291.487l.419 2.38c.01.09.043.21-.062.238-.114.03-.143-.1-.172-.186l-.649-2.184c-.138-.414-.305-.448-.482-.31-.453.364-.257 1.845-.128 2.384.333 1.4 1.183 2.743 1.928 2.557.74-.187.973-1.807.648-3.168-.138-.607-.644-2.078-1.211-2.198zm-40.986.487c.066-.439-.068-.54-.287-.487-.572.12-1.074 1.59-1.222 2.198-.32 1.361-.08 2.98.663 3.168.736.186 1.59-1.157 1.924-2.557.124-.54.324-2.02-.134-2.384-.176-.138-.343-.104-.477.31l-.65 2.184c-.032.086-.056.215-.17.186-.11-.028-.073-.148-.067-.238zm43.772-1.653c-.22-.057-.353.053-.272.54l.472 2.45c.01.1.049.245-.057.274-.114.023-.143-.12-.176-.215l-.664-2.237c-.148-.468-.32-.506-.486-.354-.449.393-.186 2.17-.044 2.767.382 1.567 1.294 2.728 2.072 2.982.572-.583.863-2.08.496-3.604-.162-.673-.764-2.46-1.34-2.603zm-46.574.54c.076-.487-.053-.598-.277-.54-.572.143-1.173 1.93-1.335 2.603-.373 1.524-.077 3.02.49 3.603.784-.253 1.695-1.414 2.072-2.981.143-.597.41-2.374-.034-2.767-.176-.153-.338-.115-.496.353l-.658 2.237c-.039.096-.062.239-.177.215-.11-.03-.066-.173-.058-.273zm-2.944-1.822l-.057.006c-.607.091-1.255 1.654-1.436 2.285-.421 1.413-.43 3.664.162 4.27.82-.186 2.084-2.025 2.519-3.477.162-.559.439-2.146-.02-2.552-.18-.162-.352-.138-.524.296l-.835 2.389c-.038.091-.066.225-.186.186-.115-.028-.072-.163-.053-.257l.654-2.614c.091-.448-.043-.564-.281-.526zm52.243.006c-.234-.038-.372.078-.277.526l.659 2.614c.01.094.057.229-.062.257-.115.04-.144-.095-.191-.186l-.826-2.389c-.172-.434-.348-.458-.524-.296-.458.406-.182 1.993-.015 2.552.425 1.452 1.69 3.291 2.515 3.478.591-.607.577-2.858.162-4.271-.181-.631-.835-2.194-1.441-2.285zm-28.88.87c0-.697-.2-.821-.487-.688-.74.344-1.059 1.863-1.092 2.38-.105 1.452.625 3.123 1.522 3.807.983-.55 1.942-2.102 2.043-3.554.037-.516-.072-2.069-.75-2.514-.262-.166-.477-.075-.577.617l-.33 2.556c-.033.149-.037.353-.19.34-.148-.01-.13-.211-.139-.36zm5.946-.688c-.281-.133-.482-.01-.482.689v2.584c-.01.148.014.349-.138.358-.158.014-.162-.19-.186-.339l-.339-2.556c-.095-.692-.31-.783-.573-.617-.682.445-.782 1.998-.75 2.514.101 1.452 1.06 3.005 2.044 3.554.892-.684 1.627-2.355 1.522-3.807-.039-.517-.358-2.036-1.098-2.38zm-9.944.259c.033-.698-.159-.842-.44-.741-.725.272-1.107 1.772-1.16 2.288-.167 1.453.545 2.78 1.38 3.554.978-.453 1.899-1.494 2.057-2.942.061-.516.023-2.088-.616-2.605-.243-.2-.458-.128-.582.555l-.406 2.073c-.033.144-.048.35-.196.32-.105-.016-.118-.126-.119-.242v-.135zm13.895-.741c-.281-.1-.467.043-.439.74l.086 2.126c0 .148.029.354-.12.378-.147.028-.161-.177-.2-.32l-.406-2.074c-.118-.683-.333-.755-.582-.555-.639.517-.672 2.089-.61 2.605.162 1.448 1.078 2.489 2.057 2.942.834-.774 1.545-2.101 1.383-3.554-.062-.516-.439-2.016-1.169-2.288zm-35.947-1.135l-.057.002c-.615.058-1.212 1.171-1.446 1.797-.525 1.41-.697 3.697-.148 4.348.835-.14 2.233-1.926 2.773-3.378.205-.56.415-1.744-.015-2.188-.162-.168-.343-.158-.544.272l-1.011 2.484c-.048.086-.086.22-.205.177-.11-.043-.057-.167-.034-.262l.869-2.696c.123-.453 0-.577-.239-.554zm57.621.002c-.238-.023-.367.1-.243.554l.878 2.696c.019.095.072.22-.038.262-.114.043-.158-.09-.205-.177l-1.012-2.484c-.2-.43-.382-.44-.549-.272-.424.444-.215 1.629-.005 2.188.53 1.452 1.933 3.239 2.768 3.378.549-.65.373-2.939-.148-4.348-.23-.626-.835-1.74-1.446-1.797zm-39.497 1.1c-.024-.622-.21-.717-.453-.589-.64.33-.864 1.687-.878 2.14-.034 1.296.667 2.744 1.488 3.312.85-.52 1.637-1.93 1.67-3.215.015-.459-.133-1.825-.753-2.194-.239-.143-.43-.052-.491.565l-.192 1.117c-.019.13-.014.311-.152.306-.139-.005-.124-.186-.139-.315zm21.77-.589c-.249-.128-.425-.033-.454.589l-.1 1.127c-.014.129 0 .31-.138.315-.139.005-.139-.177-.158-.306l-.19-1.117c-.067-.617-.254-.708-.488-.565-.62.369-.767 1.735-.758 2.194.038 1.285.826 2.694 1.68 3.215.81-.568 1.517-2.016 1.484-3.311-.014-.454-.24-1.81-.878-2.141zm262.637-8.341c-1.745 0-3.485.05-4.203.152v13.456h1.694c4.874 0 11.439-1.232 11.439-7.446 0-3.852-2.975-6.162-8.93-6.162zm-261.668 8.671c.495 1.218.74 2.934-.535 4.888.167-.086 1.088-.282 1.55-.922.554-.765.673-1.362.464-2.451-.167-.837-1.041-1.467-1.48-1.515zm-24.166 0c-.439.048-1.307.678-1.474 1.515-.215 1.089-.091 1.686.463 2.45.458.64 1.388.837 1.555.923-1.279-1.954-1.035-3.67-.544-4.888zm99.23-8.671c-1.184 0-3.236.05-4.31.1v12.993c.564.05 1.487.105 2.717.105 5.697 0 10.053-2.363 10.053-7.09 0-4.366-3.791-6.108-8.46-6.108zm-71.543 8.442c-.186-.076-.31.024-.291.511l.047 1.505c0 .105.025.244-.08.264-.095.013-.106-.13-.13-.226l-.257-1.471c-.086-.473-.224-.525-.386-.392-.425.358-.449 1.452-.41 1.811.104 1.008.758 2.13 1.407 2.455.554-.54.973-1.844.869-2.856-.04-.359-.292-1.405-.77-1.601zm-30.912.511c.019-.487-.106-.587-.291-.511-.483.196-.731 1.242-.77 1.6-.104 1.013.316 2.317.865 2.857.649-.325 1.308-1.447 1.407-2.455.044-.359.02-1.453-.405-1.81-.162-.134-.306-.082-.386.391l-.258 1.471c-.024.096-.038.239-.134.226-.1-.02-.081-.159-.081-.264zm-16.312-2.77l-.061.004c-.659.067-1.246 1.123-1.499 1.806-.562 1.543-.772 4.037-.186 4.744.903-.153 2.42-2.112 3.007-3.702.22-.607.391-1.687-.067-2.17-.176-.186-.367-.172-.592.297l-1.044 2.575c-.058.1-.096.243-.225.195-.12-.043-.058-.186-.033-.286l.897-2.853c.128-.496 0-.634-.258-.606zm63.3.004c-.252-.028-.39.11-.252.606l.897 2.853c.029.1.081.243-.038.286-.124.048-.167-.095-.22-.195l-1.045-2.575c-.224-.47-.415-.483-.592-.297-.458.483-.29 1.563-.07 2.17.586 1.59 2.108 3.549 3.01 3.702.582-.707.377-3.201-.186-4.744-.254-.683-.84-1.739-1.503-1.806zm-13.456 1.52c-.21-.068-.334.047-.272.534l.119 1.157c.01.1.043.243-.057.267-.105.028-.124-.115-.158-.215l-.348-1.094c-.134-.468-.281-.507-.448-.358-.42.397-.349 1.49-.278 1.849.206.998.955 1.815 1.67 2.082.55-.587.927-1.7.726-2.7-.071-.357-.43-1.38-.954-1.523zm-36.176.534c.067-.487-.062-.602-.263-.535-.53.143-.892 1.166-.958 1.524-.206 1 .176 2.112.715 2.7.72-.268 1.474-1.085 1.68-2.083.071-.358.142-1.452-.277-1.85-.167-.148-.32-.11-.453.36l-.349 1.093c-.028.1-.047.243-.157.215-.1-.024-.062-.167-.058-.267zm-16.791-4.04l-.064.009c-.692.118-1.369 1.69-1.58 2.426-.476 1.658-.5 4.285.158 4.978.936-.229 2.377-2.393 2.868-4.103.187-.65.358-2.088-.157-2.557-.201-.182-.397-.152-.592.354l-.926 2.805c-.047.104-.086.262-.22.22-.128-.034-.076-.187-.056-.302l.815-3.206c.11-.506-.047-.664-.31-.615zm69.559.009c-.272-.049-.43.109-.315.615l.816 3.206c.014.115.072.268-.057.301-.139.043-.167-.115-.22-.22l-.93-2.804c-.192-.506-.397-.536-.592-.354-.516.469-.343 1.907-.153 2.557.492 1.71 1.933 3.874 2.863 4.103.669-.693.64-3.32.163-4.978-.215-.736-.893-2.308-1.575-2.426zm-14.24 2.412c-.214-.033-.32.095-.195.568l.248 1.066c.02.1.076.234-.03.277-.095.038-.137-.101-.18-.192l-.463-.979c-.19-.449-.349-.463-.492-.291-.362.444-.148 1.519-.028 1.863.334.965 1.193 1.71 1.942 1.873.463-.655.683-1.84.353-2.8-.119-.343-.61-1.314-1.155-1.385zm-41.096-.005l-.052.005c-.544.07-1.035 1.042-1.15 1.385-.34.96-.115 2.145.348 2.8.744-.162 1.609-.908 1.943-1.873.114-.344.334-1.42-.03-1.863-.142-.172-.3-.158-.496.291l-.462.979c-.044.091-.086.23-.186.192-.096-.043-.044-.177-.02-.277l.248-1.066c.125-.473.02-.601-.195-.568zm58.7-4.763c-.262-.081-.424.053-.334.659l.611 3.67c.014.128-.01.248-.144.277-.124.033-.223-.049-.257-.215l-.692-2.934c-.11-.626-.34-.808-.544-.621-.54.473-.343 2.288-.172 3.039.954 4.15 3.809 4.882 3.809 4.882-.401-1.353-.673-3.015-.988-4.934-.143-.9-.602-3.617-1.289-3.823zm-76.022.659c.087-.606-.071-.74-.333-.659-.693.206-1.14 2.924-1.289 3.823-.32 1.92-.587 3.581-.988 4.934 0 0 2.853-.731 3.803-4.882.177-.751.368-2.566-.167-3.04-.205-.186-.439-.004-.544.622l-.697 2.934c-.028.166-.118.248-.257.215-.133-.03-.148-.149-.138-.278zm38.781.913c-.295-.177-.52-.053-.576.745l-.182 3c-.024.168-.009.402-.181.402-.162 0-.158-.234-.177-.402l-.181-3c-.053-.798-.281-.922-.578-.745-.773.448-1.002 2.212-1.002 2.804 0 1.663.917 3.507 1.938 4.219 1.026-.712 1.947-2.556 1.947-4.22 0-.591-.239-2.355-1.008-2.803zm3.637-.082c-.272-.105-.448.04-.42.736l.148 2.867c0 .148.024.353-.114.377-.144.029-.158-.177-.187-.32l-.448-2.81c-.129-.687-.334-.759-.568-.563-.606.511-.634 2.083-.577 2.599.162 1.448 1.121 2.915 2.056 3.373.797-.775 1.398-2.523 1.236-3.97-.061-.511-.43-2.016-1.126-2.289zm-8.728.736c.029-.697-.157-.841-.42-.736-.696.273-1.068 1.778-1.126 2.288-.157 1.448.434 3.196 1.232 3.971.94-.458 1.894-1.925 2.056-3.373.062-.516.038-2.088-.577-2.6-.235-.195-.435-.123-.559.565l-.448 2.809c-.038.143-.053.349-.196.32-.138-.024-.11-.229-.11-.377zm-18.755.338l-.056.001c-.659.053-1.336 1.195-1.507 1.605-.492 1.152-.359 2.647.123 3.488.912-.143 2.023-1.018 2.515-2.173.173-.407.535-1.71.143-2.28-.148-.224-.344-.215-.61.315l-.826 1.573c-.067.105-.129.272-.248.215-.11-.057-.034-.215 0-.34l.587-1.691c.191-.563.076-.731-.177-.712zm45.87.001c-.254-.02-.368.149-.172.712l.582 1.691c.038.125.115.283 0 .34-.115.057-.177-.11-.244-.215l-.82-1.573c-.277-.53-.463-.54-.62-.315-.387.57-.025 1.873.147 2.28.492 1.155 1.603 2.03 2.506 2.173.486-.84.625-2.336.133-3.488-.177-.41-.854-1.552-1.513-1.605zM99.8 108.717c-.243-.09-.396.048-.343.708l.362 2.713c.005.14.043.33-.081.358-.124.028-.148-.167-.181-.296l-.492-2.154c-.133-.641-.324-.703-.515-.507-.515.497-.458 1.978-.392 2.46.21 1.362 1.118 2.719 1.962 3.121.668-.75 1.107-2.418.897-3.78-.076-.477-.597-2.383-1.217-2.623zm-15.375.708c.057-.66-.095-.799-.334-.708-.625.24-1.145 2.146-1.227 2.623-.2 1.362.24 3.03.898 3.78.845-.402 1.75-1.759 1.96-3.12.077-.483.125-1.964-.38-2.46-.201-.197-.387-.135-.526.506l-.486 2.154c-.033.13-.062.324-.181.296-.13-.029-.091-.219-.082-.358zm-16.501-3.006c.195-.611.104-.75-.115-.683-.549.182-1.603 2.58-1.923 3.425-.715 1.916-1.14 4.62-.773 5.366.769-.32 2.181-2.585 2.92-4.558.278-.75 1.074-3.263.783-3.76-.12-.196-.277-.147-.53.44l-2.028 5.098c-.057.114-.12.3-.21.262-.095-.033-.02-.21.015-.34zm48.149-.683c-.215-.066-.301.072-.11.683l1.861 5.25c.033.13.105.307.01.34-.091.038-.149-.148-.21-.262l-2.02-5.098c-.257-.587-.414-.636-.534-.44-.295.497.502 3.01.783 3.76.74 1.973 2.157 4.237 2.916 4.558.367-.745-.053-3.45-.774-5.366-.32-.845-1.37-3.243-1.922-3.425zm-34.625 1.735c-.621-.116-1.285 2.441-1.399 2.933-.333 1.376-.243 2.986.292 3.794.815-.364 1.789-1.697 2.118-3.078.114-.492.31-2.006-.105-2.546-.167-.21-.334-.157-.53.493l-.458 1.467c-.053.132-.09.333-.2.29-.11-.033-.058-.229-.039-.373l.378-1.949c.205-.912.1-1.003-.057-1.031zm21.065-.002l-.074.002c-.162.028-.262.12-.062 1.031l.377 1.95c.024.143.071.34-.038.372-.105.043-.148-.158-.191-.29l-.463-1.467c-.19-.65-.368-.703-.53-.493-.42.54-.224 2.054-.1 2.546.329 1.381 1.298 2.714 2.11 3.078.534-.808.625-2.418.295-3.794-.115-.492-.782-3.049-1.398-2.933zm15.039-11.278c-1.871-.034-3.608.267-5.044 1.6-2.019 1.883-2.568 4.549-1.465 7.243.057.129.104.263.172.382.529.917.31 1.71-.387 2.427-1.179 1.214-2.591 2.012-4.285 2.245-.358.049-.74-.042-1.112-.1-.215-.033-.424-.129-.644-.167-.377-.067-.525.095-.425.468.296 1.146.306 2.522-.186 3.741 1.016-.143 1.56-.807 1.67-1.084.186.128.788.558.907.62.86.44 1.517.096 1.68-.85.028-.162.057-.324.076-.459.387.196.73.436 1.117.57.763.257 1.23-.096 1.236-.894.005-.235-.02-.469-.03-.726.373.128.721.281 1.089.382.735.191 1.121-.072 1.145-.832.015-.53-.09-1.065-.152-1.662.243.138.458.273.687.392.749.387 1.197.143 1.14-.693-.028-.501-.191-1.012-.396-1.47-.23-.508-1.045-1.855-1.145-2.047.396.215.749.34 1.222.411.82.125 1.393-.554 1.054-1.318-.272-.621-.907-1.577-1.13-1.801 0 0 1.269 1.27 2.05 1.519.364.115.812.096 1.108-.22.258-.282.234-.706.115-1.118-.182-.583-.545-1.132-.897-1.705.73.755 1.66 1.563 2.438 1.72.272.052.654-.048.816-.215.158-.168.21-.478.114-.779-.21-.645-.61-1.2-1.02-1.754.166.196.896.626 1.32.88.483.286 1.122.726 1.695.678.592-.053.82-.401.769-.994-.015-.205-.387-1.06-.621-1.404.945.296 2.257.425 3.03.42.51 0 1.06-.1 1.06-.502.004-.339-.397-.367-.645-.405-1.274-.182-2.414-.74-3.57-1.252-1.464-.645-2.93-1.214-4.556-1.247zm-50.934-.002l-.278.002c-1.633.033-3.102.602-4.563 1.247-1.155.511-2.29 1.07-3.569 1.252-.248.038-.654.066-.65.405 0 .402.554.502 1.06.502.774.005 2.086-.124 3.04-.42-.239.344-.606 1.199-.625 1.404-.057.593.177.941.768.994.573.048 1.212-.392 1.694-.678.425-.254 1.15-.684 1.322-.88-.41.554-.811 1.109-1.02 1.754-.101.3-.044.611.118.779.158.167.54.267.811.215.774-.157 1.709-.965 2.434-1.72-.353.573-.711 1.122-.892 1.705-.13.412-.153.836.114 1.118.287.316.745.335 1.108.22.708-.224 1.8-1.275 2.01-1.484l.037-.035c-.22.224-.86 1.18-1.136 1.801-.33.764.239 1.443 1.064 1.318a3.529 3.529 0 001.222-.41c-.096.19-.921 1.538-1.146 2.045-.2.459-.372.97-.396 1.47-.052.837.387 1.08 1.14.694.225-.12.444-.254.678-.392-.052.597-.157 1.133-.138 1.662.02.76.406 1.023 1.136.832.367-.1.72-.254 1.093-.382-.015.257-.034.491-.034.726.005.798.482 1.151 1.24.894.388-.134.73-.374 1.113-.57.024.135.047.297.072.459.171.946.83 1.29 1.688.85.115-.062.716-.492.907-.62.11.277.659.941 1.67 1.084-.496-1.219-.481-2.595-.181-3.74.09-.374-.052-.536-.434-.469-.21.038-.425.134-.645.167-.372.058-.749.149-1.111.1-1.69-.233-3.097-1.03-4.28-2.245-.697-.717-.916-1.51-.387-2.427.066-.119.114-.253.167-.382 1.102-2.694.563-5.36-1.46-7.243-1.432-1.333-3.178-1.634-5.04-1.6zm-.947 8.396l-.047.005c-.592.085-1.69 1.877-2.095 2.66-.917 1.768-1.766 4.845-1.446 5.629.826-.192 2.677-2.676 3.617-4.496.363-.697 1.27-2.68.997-3.215-.104-.21-.277-.192-.591.348l-2.563 4.611c-.077.115-.153.282-.243.229-.096-.048-.005-.205.043-.33l2.333-4.753c.258-.564.181-.717-.052-.683zm52.596.005c-.233-.034-.32.12-.066.683l2.338 4.754c.057.124.144.281.048.329-.096.053-.172-.114-.244-.229l-2.562-4.61c-.32-.54-.492-.56-.597-.35-.267.536.64 2.519.998 3.216.944 1.82 2.792 4.304 3.621 4.496.32-.784-.529-3.86-1.445-5.629-.405-.783-1.5-2.575-2.09-2.66zm2.673-1.462c-.257 0-.353.166-.082.726l2.43 4.419c.052.12.129.225.019.287-.11.066-.168-.048-.249-.158l-2.686-4.295c-.343-.515-.535-.515-.658-.286-.316.597.61 2.48 1.002 3.153 1.03 1.772 2.849 3.798 4.018 4.142.205-1.17-.535-3.893-1.542-5.614-.439-.764-1.584-2.36-2.252-2.374zm-57.993 0c-.668.014-1.819 1.61-2.257 2.374-.998 1.72-1.738 4.444-1.537 5.61v.004c1.169-.344 2.987-2.37 4.013-4.142.391-.674 1.322-2.556 1.007-3.153-.124-.23-.32-.23-.663.286l-2.687 4.295c-.077.11-.133.224-.248.158-.105-.062-.029-.167.024-.287l2.424-4.42c.277-.559.181-.725-.076-.725zm31.8 2.345c-.205-.119-.358-.038-.396.483l-.124 1.826c-.015.11-.01.267-.125.267-.114 0-.109-.158-.124-.267l-.052-1.062c-.038-.52-.181-.559-.406-.492-.534.178-.758 1.022-.758 1.405 0 1.094.639 1.978 1.336 2.442.715-.464 1.346-1.678 1.346-2.767 0-.387-.163-1.544-.697-1.835zm-5.216.483c-.033-.521-.19-.602-.396-.483-.534.291-.692 1.448-.692 1.835 0 1.089.63 2.303 1.336 2.767.706-.464 1.342-1.348 1.342-2.442 0-.383-.22-1.227-.76-1.405-.224-.067-.358-.028-.396.492l-.062 1.062c-.014.11-.01.267-.124.267s-.11-.158-.12-.267zm8.074-1.443c-.243-.086-.391.029-.344.616l.186 2.017c.01.129.044.3-.076.32-.129.019-.148-.158-.182-.272l-.452-1.978c-.139-.574-.315-.636-.516-.474-.51.42-.467 1.735-.4 2.17.195 1.212 1.092 2.456 1.928 2.847.662-.635 1.12-2.098.92-3.31-.071-.436-.448-1.692-1.064-1.936zm-10.99.616c.058-.587-.09-.702-.334-.616-.615.244-.997 1.5-1.073 1.935-.192 1.213.262 2.676.925 3.311.84-.391 1.732-1.635 1.933-2.848.067-.434.105-1.748-.406-2.169-.2-.162-.377-.1-.51.474l-.454 1.978c-.033.114-.057.29-.176.272-.124-.02-.091-.191-.086-.32zm37.283-3.798c-.272-.014-.377.153-.114.74l2.161 4.267c.048.13.125.239.01.301-.115.063-.177-.057-.253-.167l-2.348-4.066c-.333-.55-.54-.554-.677-.32-.349.597.487 2.504.858 3.215.993 1.873 2.63 3.674 3.828 4.08.262-1.194-.224-3.664-1.188-5.48-.43-.802-1.584-2.527-2.277-2.57zm-63.855 0h-.055c-.692.043-1.856 1.768-2.276 2.57-.964 1.816-1.45 4.286-1.189 5.48 1.198-.406 2.835-2.207 3.823-4.08.381-.711 1.212-2.618.858-3.214-.137-.235-.333-.23-.672.319l-2.348 4.066c-.08.11-.138.23-.248.167-.115-.062-.043-.172.005-.3l2.162-4.267c.262-.588.152-.755-.115-.74zm23.89 3.192c.096-.493-.009-.602-.204-.54-.507.158-.922 1.2-1.017 1.558-.272 1.008-.048 2.269.405 2.852.688-.277 1.423-.96 1.69-1.974.095-.357.124-1.184-.267-1.466-.167-.115-.287-.106-.45.368l-.3.912c-.038.1-.072.244-.162.22-.095-.024-.053-.168-.038-.272zm16.225-.54c-.196-.062-.3.047-.2.54l.333 1.658c.02.104.063.248-.033.272-.09.024-.124-.12-.162-.22l-.3-.912c-.158-.474-.282-.483-.444-.368-.396.282-.367 1.109-.272 1.466.262 1.013.997 1.697 1.689 1.974.458-.583.668-1.844.401-2.852-.096-.358-.51-1.4-1.012-1.558zm363.313-1.553c1.745 0 2.773.87 2.773 2.722 0 1.641-1.028 2.823-2.773 2.823-1.744 0-2.769-1.182-2.769-2.823 0-1.544 1.13-2.722 2.77-2.722zm-406.27-2.279c-.61.01-2.013 2.164-2.376 2.895-.597 1.176-.97 2.46-1.312 4.152 0 0 2.147-.473 3.76-3.239.363-.626 1.646-2.976 1.365-3.526-.11-.215-.283-.22-.602.263l-2.448 3.784c-.071.1-.129.206-.229.143-.095-.057-.023-.157.024-.267l1.89-3.541c.248-.51.162-.669-.072-.664zm69.489 0c-.238-.005-.324.153-.076.664l1.89 3.54c.047.11.119.211.014.268-.09.063-.148-.043-.215-.143l-2.453-3.784c-.314-.483-.491-.478-.601-.263-.287.55 1.002 2.9 1.36 3.526 1.618 2.766 3.765 3.24 3.765 3.24-.348-1.692-.72-2.977-1.312-4.153-.363-.73-1.771-2.885-2.372-2.895zm-32.435 4.439c.506-.689-.171-1.71-1.011-1.233-.282.163-.587.66-.693 1.085-.129.51-.19 1.366-.19 2.068.382-1.28 1.355-1.18 1.894-1.92zm-3.574-1.233c-.845-.477-1.527.544-1.012 1.233.54.74 1.513.64 1.89 1.92 0-.702-.062-1.557-.186-2.068-.115-.426-.415-.922-.692-1.085zm-2.701-3.746c-.215-.086-.348.034-.277.602l.22 1.773c.01.124.052.287-.062.305-.11.024-.134-.147-.167-.262l-.454-1.725c-.143-.554-.31-.616-.481-.453-.44.415-.35 1.705-.268 2.125.23 1.186 1.078 2.394 1.842 2.766.568-.63.916-2.064.682-3.254-.08-.42-.467-1.648-1.035-1.877zm8.199.602c.066-.568-.058-.688-.277-.602-.559.23-.95 1.458-1.036 1.877-.23 1.19.114 2.624.682 3.254.764-.372 1.618-1.58 1.842-2.766.082-.42.167-1.71-.266-2.125-.173-.163-.33-.101-.483.453l-.448 1.725c-.033.115-.062.286-.173.262-.104-.018-.07-.181-.056-.305zm3.206-.13c-.177-.08-.305 0-.291.446l.024 1.362c-.005.09.014.219-.081.234-.091.008-.1-.124-.12-.215l-.243-1.343c-.076-.43-.215-.487-.377-.377-.42.3-.463 1.285-.43 1.61.091.917.726 1.886 1.356 2.22.558-.453.992-1.523.901-2.445-.028-.325-.262-1.285-.739-1.491zm-14.593.446c.015-.445-.114-.526-.3-.445-.472.206-.702 1.166-.735 1.491-.09.922.343 1.992.902 2.446.634-.335 1.264-1.304 1.36-2.221.029-.325-.005-1.31-.43-1.61-.167-.11-.305-.053-.381.377l-.234 1.343c-.02.09-.029.224-.13.215-.1-.015-.075-.144-.075-.234zm5.612-1.228c-.172-.052-.272.034-.214.415l.157 1.185c.01.077.033.191-.043.211-.09.014-.11-.095-.133-.172l-.344-1.142c-.11-.372-.234-.411-.367-.297-.339.301-.277 1.166-.215 1.448.167.788.816 1.572 1.407 1.797.44-.45.711-1.43.534-2.222-.057-.282-.352-1.094-.782-1.223zm3.298.415c.048-.381-.048-.467-.22-.415-.43.13-.725.941-.787 1.223-.172.793.1 1.772.544 2.222.582-.225 1.226-1.009 1.398-1.797.057-.282.129-1.147-.214-1.448-.13-.114-.258-.075-.368.297l-.34 1.142c-.028.077-.047.186-.128.172-.086-.02-.052-.134-.043-.21zm6.208-3.54c.105-.472-.005-.563-.191-.516-.506.13-.888 1.238-.954 1.596-.162.774-.196 1.563.252 2.332.497-.187 1.213-.554 1.561-1.543.114-.345.291-1.19-.086-1.453-.157-.11-.277-.1-.444.353l-.267.746c-.033.095-.076.234-.167.21-.086-.024-.048-.162-.024-.258zm-15.742-.516c-.182-.047-.297.044-.192.516l.32 1.467c.015.096.062.234-.028.259-.092.023-.125-.116-.168-.211l-.262-.746c-.167-.453-.286-.463-.444-.353-.382.263-.2 1.108-.081 1.453.344.989 1.06 1.356 1.55 1.543.455-.77.416-1.558.259-2.332-.076-.358-.449-1.466-.954-1.596zm13.528-.463c.119-.482.023-.597-.172-.545-.5.143-.959 1.161-1.069 1.515-.306 1.004-.162 2.264.262 2.867.683-.254 1.527-1.215 1.837-2.208.11-.358.315-1.453-.014-1.858-.129-.149-.277-.116-.453.353l-.558 1.434c-.038.095-.082.243-.172.215-.09-.03-.039-.172-.019-.273zm-11.334-.545c-.19-.052-.29.063-.171.545l.357 1.5c.02.1.067.244-.023.273-.091.028-.13-.12-.167-.215l-.554-1.434c-.186-.469-.33-.502-.458-.353-.33.405-.129 1.5-.014 1.858.31.993 1.155 1.954 1.837 2.208.42-.603.573-1.863.258-2.867-.11-.354-.564-1.372-1.065-1.515zm9.94-.448c-.123-.15-.267-.139-.482.315l-.639 1.4c-.048.094-.09.234-.186.196-.09-.034-.034-.168-.01-.268l.244-.774c.143-.477.047-.554-.153-.554-.478-.006-.807.817-.969 1.151-.444.936-.444 2.704-.148 3.149.936-.65 1.785-1.687 2.148-2.738.124-.353.539-1.477.196-1.877zm-8.24.315c-.206-.454-.359-.464-.478-.315-.344.4.072 1.524.19 1.877.368 1.051 1.213 2.088 2.148 2.738.296-.445.296-2.213-.143-3.149-.163-.334-.49-1.157-.973-1.151-.201 0-.296.077-.148.554l.243.774c.024.1.081.234-.01.268-.09.038-.138-.102-.186-.196zm13.227-.817c-.129-.057-.2.004-.186.339l.053 1.018c0 .07.014.171-.044.18-.066.006-.076-.09-.095-.157l-.09-.53c-.068-.33-.139-.348-.268-.287-.281.149-.343.698-.305.942a1.96 1.96 0 00.921 1.462c.358-.34.625-1.156.534-1.845-.024-.248-.2-.97-.52-1.122zm-18.505.339c.014-.335-.068-.396-.186-.34-.32.153-.497.875-.53 1.123-.077.689.181 1.505.54 1.845.429-.25.843-.77.93-1.462.028-.244-.024-.793-.316-.942-.119-.061-.2-.043-.257.287l-.1.53c-.015.068-.019.163-.086.158-.063-.01-.048-.11-.048-.181zm1.602-4.78l-.08.017c-.138.047-.206.348-.048.397.081.028.253.057.253.057a.257.257 0 01.195.31.258.258 0 01-.31.2l-.1-.023s-.114-.019-.205.029a.414.414 0 00-.172.196c-.157.3-.329.578-.52.811a.284.284 0 00-.077.23c.006.128.135.263.135.263l.977 1.08c.1.086.067.148.039.177-.01.013-.081.066-.187-.016l-1.207-.878s-.124-.106-.272-.1a.422.422 0 00-.277.095 5.1 5.1 0 01-.739.449c-.12.058-.225.095-.263.21-.033.1.034.23.034.23l.057.123a.259.259 0 01-.129.35.252.252 0 01-.344-.12l-.07-.162s-.054-.168-.211-.215c-.139-.043-.229-.015-.367.01-.483.095-.854.104-1.017.114.248.048 1.703.444 1.967 1.768.749-1.166.753-2.155.753-2.155s1.14 1.438 3.389 1.414c-.12-2.16-1.57-3.157-1.57-3.157s1.488-.135 2.209-.971c-.649-.162-1.231-.459-1.556-.625-.129-.062-.224-.144-.368-.091zm15.195.017c-.149-.053-.243.029-.363.09-.334.167-.911.464-1.565.626.73.836 2.209.97 2.209.97s-1.45.999-1.565 3.158c2.066.022 3.204-1.201 3.367-1.39l.02-.024s.006.989.755 2.155c.268-1.324 1.718-1.72 1.967-1.768-.163-.01-.54-.02-1.022-.115-.134-.024-.22-.052-.363-.009-.157.047-.205.215-.205.215l-.076.162a.255.255 0 01-.349.12.257.257 0 01-.124-.35l.063-.124s.056-.129.023-.229c-.038-.115-.138-.152-.262-.21a5.07 5.07 0 01-.735-.45.408.408 0 00-.272-.095c-.153-.005-.272.1-.272.1l-1.213.88c-.104.081-.171.028-.195.015-.019-.029-.048-.091.043-.177l.983-1.08s.129-.135.129-.263a.318.318 0 00-.067-.23 4.52 4.52 0 01-.53-.811.49.49 0 00-.162-.196c-.095-.048-.21-.029-.21-.029l-.1.024a.263.263 0 01-.315-.2.267.267 0 01.205-.311s.162-.029.253-.057c.153-.049.086-.35-.052-.397zM85.91 90.739l-.1.01c-.181.038-.239.162.052.525l.83 1.052c.058.08.153.181.087.238-.072.058-.163-.047-.23-.114l-.787-.76c-.277-.287-.439-.281-.53-.12-.215.393.53 1.272.778 1.52.716.702 1.484.721 1.995.673.067-.854-.3-1.513-.764-2.121-.21-.272-.944-.998-1.431-.892zm12.173.01c-.492-.105-1.222.62-1.436.893-.463.608-.83 1.267-.763 2.121.505.048 1.278.03 1.994-.673.243-.248.992-1.127.773-1.52-.09-.161-.253-.167-.534.12l-.773.76c-.077.067-.163.172-.234.114-.067-.057.028-.157.086-.238l.825-1.052c.296-.363.234-.487.062-.524zm11.586 1.906s-.462-.716-1.97-.262c-.54.166-1.275.516-2.22.625 0 0 .65.268 2.034-.157 1.384-.43 2.156-.206 2.156-.206zm-33.484-.262c-1.503-.454-1.966.262-1.966.262s.773-.224 2.157.206c1.374.425 2.032.157 2.032.157-.949-.11-1.683-.459-2.223-.625zm39.64-1.772s.13 1.026-.777 1.447c-1.089.511-2.52.182-3.479-.263-1.102-.506-1.432-.837-2.09-.602-.511.177-.72.41-.72.41s.62-.29 1.545.168c.84.42 2.61 1.276 4.371.774.964-.272 1.389-1.185 1.15-1.934zm-47.767 0c-.234.749.186 1.662 1.15 1.934 1.766.502 3.537-.354 4.376-.774.921-.458 1.546-.168 1.546-.168s-.21-.233-.72-.41c-.663-.235-.988.096-2.09.602-.96.445-2.39.774-3.48.263-.906-.42-.782-1.447-.782-1.447zm13.138-1.062c-.884-.506-1.442-1.19-2.019-.587-.267.277-.506.688-1.122.817-.629.138-1.026-.029-1.355-.32-.324-.287-.659-.765-1.117-.483-.538.33-.047 1.367.998 2.355 1.203 1.133 2.72 1.276 3.893 1.09 2.482-.402 3.284-2.847 3.427-3.344-.964 1.251-2.224.745-2.705.472zm23.515-.587c-.587-.602-1.14.081-2.023.587-.477.273-1.737.779-2.7-.472.142.497.944 2.942 3.425 3.344 1.175.186 2.687.043 3.89-1.09 1.045-.988 1.536-2.025 1.007-2.355-.468-.282-.797.196-1.122.482-.325.292-.725.459-1.36.321-.61-.13-.854-.54-1.117-.817zm4.887-.802c-.215-.172-.639.066-.616.763.062 1.63-1.427 2.771-1.427 2.771s1.87-1.236 3.46-1.428c1.627-.205 2.496.391 2.496.391-.267-2.153-2.954-2.454-3.298-2.311-.18.071-.176.238-.305.244-.21.004-.186-.335-.31-.43zm-34.692.763c.024-.697-.406-.935-.616-.763-.123.095-.104.434-.31.43-.129-.006-.129-.173-.3-.244-.353-.143-3.04.158-3.307 2.311 0 0 .868-.596 2.505-.39 1.584.19 3.45 1.427 3.45 1.427s-1.483-1.14-1.422-2.77zm12.388 1.812c-.276-.144-.482-.025-.458.133.028.23.94.535 1.789.053 0 0-.649.114-1.331-.186zm9.759.133c.024-.158-.186-.277-.463-.133-.673.3-1.332.186-1.332.186.85.482 1.766.177 1.795-.053zM86.955 89.32c-.382-.166-.534.01-.52.159.029.253 1.25.549 2.195-.04 0 0-.811.187-1.675-.119zm10.493.159c.02-.149-.133-.325-.515-.159a3.339 3.339 0 01-1.638.127l-.037-.007c.945.588 2.162.292 2.19.039zm8.976-1.147c-.343 0-.62.253-.62.563 0 .316.277.569.62.569.339 0 .616-.253.616-.569 0-.31-.277-.563-.616-.563zm-28.955 0c-.34 0-.62.253-.62.563 0 .316.28.569.62.569.339 0 .615-.253.615-.569 0-.31-.276-.563-.615-.563zm5.902-.727c-3.607-1.08-4.647-1.252-6.14-.869-1.728.444-2.224 1.348-1.962 1.724.243.359.877.173 1.555-.104.463-.186 1.055-.44 1.575-.473.74-.058 1.222.033 2.31.87 1.055.816 2.238 1.07 3.015-.115 0 0 3.484.783 5.087-.803 0 0-1.832.85-5.44-.23zm23.283-.869c-1.49-.383-2.534-.21-6.137.87-3.607 1.08-5.445.229-5.445.229 1.608 1.586 5.092.803 5.092.803.778 1.184 1.96.93 3.011.114 1.088-.836 1.579-.927 2.314-.87.52.034 1.112.288 1.58.474.673.277 1.298.463 1.55.104.258-.376-.233-1.28-1.965-1.724zm-29.3 1.892c.128 0 .24.1.24.22s-.112.215-.24.215c-.134 0-.243-.096-.243-.215 0-.12.11-.22.243-.22zm29.185 0c.13 0 .234.1.234.22s-.105.215-.234.215c-.137 0-.243-.097-.243-.215 0-.12.106-.22.243-.22z"/></g></svg>