<svg xmlns="http://www.w3.org/2000/svg" xmlns:xlink="http://www.w3.org/1999/xlink" width="417" height="284"><defs><rect id="a" width="417" height="284" rx="4"/></defs><g fill="none" fill-rule="evenodd"><mask id="b" fill="#fff"><use xlink:href="#a"/></mask><use fill="#F2F3F5" xlink:href="#a"/><path stroke="#E4E6EB" stroke-opacity=".8" d="M-630 534L624-720M-622 534L632-720M-614 534L640-720M-606 534L648-720M-598 534L656-720M-590 534L664-720M-582 534L672-720M-574 534L680-720M-566 534L688-720M-558 534L696-720M-550 534L704-720M-542 534L712-720M-534 534L720-720M-526 534L728-720M-518 534L736-720M-510 534L744-720M-502 534L752-720M-494 534L760-720M-486 534L768-720M-478 534L776-720M-470 534L784-720M-462 534L792-720M-454 534L800-720M-446 534L808-720M-438 534L816-720M-430 534L824-720M-422 534L832-720M-414 534L840-720M-406 534L848-720M-398 534L856-720M-390 534L864-720M-382 534L872-720M-374 534L880-720M-366 534L888-720M-358 534L896-720M-350 534L904-720M-342 534L912-720M-334 534L920-720M-326 534L928-720M-318 534L936-720M-310 534L944-720M-302 534L952-720M-294 534L960-720M-286 534L968-720M-278 534L976-720M-270 534L984-720M-262 534L992-720M-254 534L1000-720M-246 534L1008-720M-238 534L1016-720M-230 534L1024-720M-222 534L1032-720M-214 534L1040-720M-206 534L1048-720M-198 534L1056-720M-190 534L1064-720M-182 534L1072-720M-174 534L1080-720M-166 534L1088-720M-158 534L1096-720M-150 534L1104-720M-142 534L1112-720M-134 534L1120-720M-126 534L1128-720M-118 534L1136-720M-110 534L1144-720M-102 534L1152-720M-94 534L1160-720M-86 534L1168-720M-78 534L1176-720M-70 534L1184-720M-62 534L1192-720M-54 534L1200-720M-46 534L1208-720M-38 534L1216-720M-30 534L1224-720M-22 534L1232-720M-14 534L1240-720M-6 534L1248-720M2 534L1256-720M10 534L1264-720M18 534L1272-720M26 534L1280-720M34 534L1288-720M42 534L1296-720M50 534L1304-720M58 534L1312-720M66 534L1320-720M74 534L1328-720M82 534L1336-720M90 534L1344-720M98 534L1352-720M106 534L1360-720M114 534L1368-720M122 534L1376-720M130 534L1384-720M138 534L1392-720M146 534L1400-720M154 534L1408-720M162 534L1416-720M170 534L1424-720M178 534L1432-720M186 534L1440-720M194 534L1448-720M202 534L1456-720M210 534L1464-720M218 534L1472-720M226 534L1480-720M234 534L1488-720M242 534L1496-720M250 534L1504-720M258 534L1512-720M266 534L1520-720M274 534L1528-720M282 534L1536-720M290 534L1544-720M298 534L1552-720M306 534L1560-720M314 534L1568-720M322 534L1576-720M330 534L1584-720M338 534L1592-720M346 534L1600-720M354 534L1608-720M362 534L1616-720M370 534L1624-720M378 534L1632-720M386 534L1640-720M394 534L1648-720M402 534L1656-720M410 534L1664-720" mask="url(#b)"/><text fill="#8F96A3" font-family="PT_RussiaText, PT_Russia Text" font-size="14"><tspan x="24" y="31">Охранное поле</tspan></text><text fill="#8F96A3" font-family="PT_RussiaText, PT_Russia Text" font-size="14"><tspan x="288" y="31">Охранное поле</tspan></text><path fill="#FFF" d="M54 54h310v176H54z"/><path fill="#595959" fill-rule="nonzero" d="M291.702 200.717c2.878 0 6.036.553 9.578 2.442l-1.397 4.163h-.657c-1.936-3.161-4.646-4.441-7.687-4.441-6.492 0-9.597 6.277-9.597 12.39 0 7.062 3.899 12.566 10.755 12.566 2.262 0 4.32-.336 7.524-3.84l.497.61-.66 2.723c-2.654 1.79-5.65 2.67-9.085 2.67-8.636 0-14.285-6.056-14.285-14.618 0-8.944 6.089-14.665 15.014-14.665zm-27.979 0c2.89 0 6.037.553 9.578 2.442l-1.378 4.163h-.668c-1.94-3.161-4.643-4.441-7.699-4.441-6.484 0-9.581 6.277-9.581 12.39 0 7.062 3.876 12.566 10.747 12.566 2.278 0 4.324-.336 7.532-3.84l.505.61-.672 2.723c-2.662 1.79-5.638 2.67-9.081 2.67-8.648 0-14.297-6.056-14.297-14.618 0-8.944 6.09-14.665 15.014-14.665zm-166.812-.003c5.816 0 9.855 2.887 9.855 9.83v13.788c0 2.834.608 3.497 1.765 3.497a4.76 4.76 0 001.333-.229l.33 1.341c-1.765.888-3.428 1.059-4.153 1.059-1.826 0-2.988-.838-3.432-2.453l-.326-1.215c-2.996 2.396-6.26 3.668-8.975 3.668-5.045 0-8.321-2.67-8.321-7.343 0-4.998 3.72-7.336 8.811-8.277l5.645-1.055c1.89-.335 2.897-.891 2.897-2.282 0-6.056-2.551-7.614-6.762-7.614-3.268 0-5.71.949-7.478 4.563h-.668v-3.447c2.167-2.666 6.146-3.831 9.479-3.831zm134.176 0c8.42 0 13.685 6.117 13.685 14.443 0 8.505-5.493 14.84-14.179 14.84-8.53 0-13.856-6.274-13.856-14.06 0-9.22 5.876-15.223 14.35-15.223zM78.7 188.982a17.79 17.79 0 00-.163 2.004c0 .384.114 1.28.163 1.889-3.22-.446-8.534-.773-10.185-.773-1.158 0-5.65.099-8.086.327v13.956h2.82c5.77 0 17.904 1.108 17.904 11.164 0 8.166-6.819 11.891-15.785 11.842-1.006 0-4.765-.164-7.16-.164-1.044 0-2.32.05-3.208.164.338-6.117.444-14.57.444-21.566 0-6.281-.05-15.788-.444-18.843 3.546.168 9.411.5 10.694.5 3.094 0 9.4-.275 13.006-.5zm252.943 12.292c-.427 3.91-.504 10.304-.512 13.47v.998c.006 2.702.08 9.65.512 13.649a20.77 20.77 0 00-2.551-.164c-.95 0-2.05.057-2.886.164.421-3.999.491-10.947.497-13.65v-.409c0-2.895-.052-6.445-.102-7.614-3.777 3.836-13.75 16.953-16.897 21.673a7.338 7.338 0 00-1.61-.164c-.338 0-1.336.103-1.78.164.42-3.999.497-10.947.504-13.65v-.99c-.008-3.13-.088-9.571-.504-13.477.949.053 2.16.163 2.82.163.616 0 1.77-.11 2.612-.163-.44 4.17-.493 11.167-.493 14.058 0 2.331.053 5.61.106 7.165 3.045-3.722 13.902-17.556 16.514-21.223.596.106.987.163 1.655.163.327 0 1.485-.11 2.115-.163zm31.357 0c-.42 4.04-.49 10.733-.493 13.775v.283c0 2.331.06 9.838.493 14.059a20.487 20.487 0 00-2.551-.164c-.938 0-2.046.057-2.87.164.436-4.11.49-11.335.493-13.864v-.195c0-2.895-.045-6.445-.106-7.614-3.762 3.836-13.746 16.953-16.905 21.673a7.125 7.125 0 00-1.594-.164c-.338 0-1.336.103-1.77.164.422-4.11.49-11.335.494-13.864v-.195c0-2.841-.06-9.892-.493-14.058.937.053 2.145.163 2.809.163.611 0 1.78-.11 2.612-.163-.427 4.04-.49 10.733-.493 13.775v.283c0 2.331.052 5.61.106 7.165 3.044-3.722 13.894-17.556 16.502-21.223.607.106.999.163 1.663.163.326 0 1.496-.11 2.103-.163zm-192.874-.004l-13.234 11.895c1.67 1.996 10.459 11.948 14.453 16.226-1.488-.107-2.544-.164-3.314-.164a44.98 44.98 0 00-3.664.164c-2.046-3.223-8.31-10.612-11.738-14.394h-.888c0 2.06.049 10.17.482 14.394-.82-.107-1.7-.164-2.54-.164-.926 0-2.039.057-2.881.164.455-4.224.516-11.724.516-14.063 0-2.837-.06-9.884-.516-14.054.949.053 2.167.16 2.832.16.6 0 1.769-.107 2.589-.164-.433 4.174-.482 11.217-.482 12.23h.888c1.826 0 11.188-10.68 12.076-12.23.774.057 2.039.164 2.707.164.562 0 1.894-.107 2.714-.164zm31.559-12.288c10.25 0 14.236 3.116 14.236 10.117 0 9.065-7.593 11.948-16.605 11.948-.505 0-2.62-.11-3.671-.22v9.605c0 2.777.114 6.17.451 8.955a25.147 25.147 0 00-2.828-.164c-1.006 0-2.167.057-3.052.164.32-5.859.442-13.862.451-20.683v-2.095c-.008-6.228-.08-14.763-.451-17.627 1.837.054 4.332.168 5.607.168 1.929 0 4.434-.168 5.862-.168zm-86.727 12.284c.938.06 2.168.168 2.833.168.61 0 1.769-.107 2.6-.164-.444 4.216-.505 11.217-.505 11.506 2.331.107 5.702.221 7.49.221 1.826 0 5.311-.11 6.974-.22v-.13c-.008-1.035-.083-7.453-.494-11.377.93.057 2.157.164 2.813.164.62 0 1.777-.107 2.608-.164-.43 4.044-.497 10.737-.5 13.772v.693c.006 2.708.08 9.65.5 13.652a20.348 20.348 0 00-2.55-.164c-.935 0-2.047.057-2.87.164.436-4.224.493-11.724.493-13.503-2.434-.175-5.755-.396-7.03-.396-1.512 0-5.21.11-7.434.282v.3c.007 2.28.081 9.285.505 13.313a20.487 20.487 0 00-2.551-.164c-.938 0-2.046.057-2.882.164.437-4.224.494-11.724.494-14.062 0-2.838-.057-9.884-.494-14.055zm115.962 1.615c-5.98 0-8.918 6.28-8.918 12.893 0 6.277 2.612 12.059 8.47 12.059 5.656 0 9.035-5.45 9.035-12.897 0-5.999-2.327-12.055-8.587-12.055zm-128.577 12.165l-3.66.556c-3.993.614-8.427 1.996-8.427 6.232 0 3.218 1.78 4.944 5.372 4.944 2.224 0 4.434-.781 6.715-3.165v-8.567zm-41.91-5.724v16.846c1.438.057 3.15.11 4.707.11 6.537 0 10.345-3.062 10.345-8.783 0-6.166-4.533-8.173-15.053-8.173zm140.15-17.22c-.937 0-4.152.057-4.935.164v15.612c.676.122 1.777.225 2.328.225 7.755 0 12.307-3.104 12.307-9 0-5.504-4.328-7.001-9.7-7.001zM208.994 54c29.728 0 53.816 24.171 53.816 53.983 0 29.816-24.088 53.987-53.817 53.987-29.71 0-53.8-24.171-53.8-53.987 0-29.812 24.09-53.983 53.8-53.983zm0 4.17c-27.421 0-49.645 22.298-49.645 49.813 0 27.511 22.224 49.812 49.644 49.812 27.429 0 49.66-22.3 49.66-49.812 0-27.515-22.231-49.812-49.66-49.812zm3.431 11.035s1.238 2.266 7.012 1.23c4.776-.853 7.422.393 7.422 1.996 0 0 3.394.408 4.912 1.394 1.519.99-.095 3.451-.095 3.451-.228-.453-.55-.716-1.473-.918 0 0-3.667-.952-4.946 1.447-2.794.24-5.201 1.916-6.336 4.198-.069.137-1.128 2.243-.463 6.502.341 2.24 1.446 4.132 3.01 5.75.68.71 1.534 1.163 2.562 1.045 1.633-.19 2.992-.976 4.154-2.133.637-.64.839-1.364.349-2.198-.068-.11-.099-.233-.148-.358-1.447-3.508-.236-6.609 2.217-8.444 1.807-1.345 3.88-1.501 5.998-1.204 13.951 1.973 14.414 16.127 14.414 20.492v1.08c.012 11.773.193 20.07.274 21.712.14 2.56 1.036 3.096 1.594 3.5-.884.617-8.139-1.672-9.885-3.85-.126-.145-.357-.206-.547-.252-4.324-1.017-4.332-5.55-4.411-6.928-3.614 0-5.015-3.965-5.406-4.997a12.79 12.79 0 01-.653-2.865c0 1.928-2.844 3.584-5.903.51 0 3.166-3.755 2.606-5.623.732-.163.64-1.192 2.27-1.192 2.27 2.141.389 3.106.86 4.123 1.756 2.377 2.099 2.646 5.591 2.646 7.397 0 0 3.265 3.21 4.563 4.399.384.354.805.667 1.223.986 3.356-3.766 4.48-2.292 4.472-2.289 2.479-1.001 3.86.781 3.31 1.684-.573-.66-1.515-.465-2.084.046 3.348.563 2.574 3.035 1.67 3.55 0-.709-.224-1.497-1.275-1.57.049 1.09-.68 1.28-1.378 1.307-1.66.068-4.434.148-5.281.978-.486.473-.254 1.86-.77 2.332-.437.388-.9.342-1.14.346-.083.51.069 1.086.714 1.764-2.41.202-4.221-1.935-3.025-3.07.5-.48 2.194-2.088 2.274-2.78.113-.747-.669-1.578-1.208-2.065-1.169-1.04-2.422-1.97-3.648-2.933a8.873 8.873 0 00-1.203-.77 1.597 1.597 0 00-1.23-.133c-.927.29-.915.267-1.154.107-.912-.602-2.555-1.962-5.987-2.339.231.145.39.297.52.476.186.256.311.564.516.987.213.476.387.967.589 1.443 2.217 5.26 4.41 10.43 6.62 15.693.74 1.74.088 3.26-1.704 4.102-1.306.606-2.787.278-3.664-.986.255.872.376 1.622.016 2.346a3.12 3.12 0 01-1.656 1.554c-.71.316-1.556.43-2.334.278-.794-.164-1.321-.693-1.728-1.463-.068 1.714-1.192 2.971-3.056 2.971s-2.987-1.257-3.056-2.97c-.406.769-.933 1.298-1.727 1.462a3.986 3.986 0 01-2.335-.278c-.74-.312-1.306-.83-1.655-1.554-.353-.724-.235-1.474.015-2.346-.873 1.264-2.357 1.592-3.66.986-1.787-.842-2.44-2.361-1.708-4.102 2.21-5.264 4.404-10.433 6.621-15.693.201-.476.372-.967.596-1.443.198-.423.323-.731.509-.987.129-.179.288-.331.52-.476-3.428.377-5.076 1.737-5.987 2.339-.243.16-.228.183-1.154-.107a1.599 1.599 0 00-1.23.134 8.831 8.831 0 00-1.2.769c-1.233.964-2.486 1.893-3.648 2.933-.543.487-1.325 1.318-1.215 2.064.084.693 1.773 2.3 2.274 2.78 1.196 1.136-.61 3.273-3.025 3.07.645-.677.793-1.252.714-1.763-.24-.004-.699.042-1.132-.346-.524-.473-.288-1.86-.77-2.332-.85-.83-3.626-.91-5.285-.978-.698-.027-1.427-.217-1.378-1.307-1.055.073-1.275.861-1.275 1.57-.904-.515-1.682-2.987 1.67-3.547-.566-.514-1.507-.708-2.088-.05-.543-.902.835-2.684 3.314-1.683-.004-.003 1.116-1.477 4.472 2.29.418-.32.84-.633 1.226-.987 1.22-1.12 4.2-4.039 4.536-4.369l.031-.03c0-1.806.27-5.298 2.642-7.397 1.014-.895 1.982-1.367 4.127-1.756 0 0-1.036-1.63-1.2-2.27-1.867 1.874-5.622 2.434-5.622-.731-3.06 3.073-5.903 1.417-5.903-.51a12.6 12.6 0 01-.653 2.864c-.383 1.032-1.788 4.997-5.402 4.997-.084 1.379-.091 5.911-4.415 6.928-.182.046-.422.107-.54.251-1.746 2.18-9.004 4.468-9.892 3.851.565-.404 1.454-.94 1.594-3.5.091-1.691.273-10.448.273-22.792v-.134c.011-4.513.61-18.405 14.419-20.358 2.114-.297 4.195-.141 5.998 1.204 2.452 1.835 3.66 4.936 2.217 8.444-.046.125-.084.247-.148.358-.49.834-.293 1.558.345 2.198 1.166 1.157 2.52 1.942 4.153 2.133 1.033.118 1.883-.336 2.567-1.044 1.564-1.619 2.627-3.52 3.01-5.751.725-4.24-.402-6.365-.467-6.502-1.135-2.282-3.542-3.958-6.336-4.198-1.275-2.4-4.946-1.447-4.946-1.447-.923.202-1.246.465-1.477.918 0 0-1.61-2.46-.091-3.45 1.518-.987 4.916-1.395 4.916-1.395 0-1.603 2.642-2.849 7.418-1.996 5.77 1.036 7.012-1.23 7.012-1.23.239 2.773-1.872 4.205-2.548 4.59 2.187 2.384 5.25 7.149 5.98 13.91.724-6.761 3.792-11.526 5.982-13.91-.683-.385-2.79-1.817-2.55-4.59z"/><circle cx="209" cy="54" r="52" stroke="#676E7B" stroke-width="4" opacity=".2"/><circle cx="209" cy="230" r="52" stroke="#676E7B" stroke-width="4" opacity=".2"/><circle cx="54" cy="230" r="52" stroke="#676E7B" stroke-width="4" opacity=".2"/><circle cx="363" cy="230" r="52" stroke="#676E7B" stroke-width="4" opacity=".2"/></g></svg>