<svg viewBox="0 0 82 47" xmlns="http://www.w3.org/2000/svg" xmlns:xlink="http://www.w3.org/1999/xlink"><defs><path id="a" d="M0 0h120.472v74.409H0z"/><path id="c" d="M0 0h120.472v74.409H0z"/><path id="e" d="M0 0h120.472v74.409H0z"/><path id="g" d="M0 0h120.472v74.409H0z"/><path id="i" d="M0 0h120.472v74.409H0z"/><path id="k" d="M0 0h120.472v74.409H0z"/><path id="m" d="M0 0h120.472v74.409H0z"/><path id="o" d="M0 0h120.472v74.409H0z"/><path id="q" d="M0 0h120.472v74.409H0z"/><path id="s" d="M0 0h120.472v74.409H0z"/><path id="u" d="M0 0h120.472v74.409H0z"/><path id="w" d="M0 0h120.472v74.409H0z"/></defs><g fill="none" fill-rule="evenodd"><g transform="translate(-19.68 -13.904)"><mask id="b" fill="#fff"><use xlink:href="#a"/></mask><path d="M60.234 14.173c-7.826 0-14.172 6.346-14.172 14.173 0 7.828 6.346 14.174 14.172 14.174 7.831 0 14.176-6.346 14.176-14.174 0-7.827-6.345-14.173-14.176-14.173m0 27.251c-7.223 0-13.077-5.855-13.077-13.078 0-7.224 5.854-13.078 13.077-13.078 7.225 0 13.081 5.854 13.081 13.078 0 7.223-5.856 13.078-13.081 13.078" fill="#FFF" fill-rule="nonzero" mask="url(#b)"/></g><g transform="translate(-19.68 -13.904)"><mask id="d" fill="#fff"><use xlink:href="#c"/></mask><path d="M60.234 38.976c.491 0 .787-.33.805-.78.107.202.246.341.455.384.205.04.428.01.615-.073a.82.82 0 00.436-.408c.095-.19.063-.387-.004-.616a.755.755 0 00.965.259c.472-.221.644-.62.449-1.077-.582-1.382-1.16-2.739-1.744-4.12-.053-.125-.099-.254-.155-.379-.054-.111-.087-.192-.136-.259a.465.465 0 00-.137-.125c.904.099 1.337.456 1.577.614.063.042.06.048.304-.028a.422.422 0 01.324.035c.11.06.221.127.317.202.323.253.653.497.961.77.142.128.348.346.318.542-.021.182-.467.604-.599.73-.315.298.162.859.797.806-.17-.178-.21-.329-.188-.463.063-.001.185.011.3-.091.136-.124.075-.488.203-.612.223-.218.954-.239 1.391-.257.184-.007.376-.057.363-.343.277.019.336.226.336.412.238-.135.442-.784-.44-.931v-.001c.15-.134.398-.185.549-.012.145-.237-.219-.705-.872-.442.002-.001-.294-.388-1.178.601-.11-.084-.221-.166-.322-.259a73.912 73.912 0 01-1.202-1.155c0-.474-.071-1.391-.697-1.942-.268-.235-.522-.359-1.086-.461 0 0 .271-.428.314-.596.492.492 1.481.639 1.481-.192.806.807 1.555.372 1.555-.134.026.247.088.518.172.752.103.271.472 1.312 1.424 1.312.021.362.023 1.552 1.162 1.819.05.012.111.028.144.066.46.572 2.371 1.173 2.604 1.011-.147-.106-.383-.247-.42-.919-.022-.444-.072-2.743-.072-5.984 0-1.146-.122-4.862-3.797-5.38-.558-.078-1.104-.037-1.58.316-.646.482-.965 1.296-.584 2.217.013.033.021.065.039.094.129.219.076.409-.092.577-.306.304-.664.51-1.094.56-.271.031-.496-.088-.675-.274-.412-.425-.703-.922-.793-1.51-.175-1.118.104-1.671.122-1.707.299-.599.933-1.039 1.669-1.102.337-.63 1.303-.38 1.303-.38.243.053.328.122.388.241 0 0 .425-.646.025-.906-.4-.259-1.294-.366-1.294-.366 0-.421-.697-.748-1.955-.524-1.521.272-1.847-.323-1.847-.323-.063.728.492 1.104.672 1.205-.577.626-1.385 1.877-1.576 3.652-.192-1.775-.999-3.026-1.575-3.652.178-.101.734-.477.671-1.205 0 0-.327.595-1.847.323-1.258-.224-1.954.103-1.954.524 0 0-.895.107-1.295.366-.4.26.024.906.024.906.061-.119.146-.188.389-.241 0 0 .967-.25 1.303.38.736.063 1.37.503 1.669 1.102.017.036.314.594.123 1.707-.101.586-.381 1.085-.793 1.51-.18.186-.404.305-.676.274-.43-.05-.787-.256-1.094-.56-.168-.168-.22-.358-.091-.577.017-.029.027-.061.039-.094.38-.921.062-1.735-.584-2.217-.475-.353-1.023-.394-1.58-.316-3.674.518-3.798 4.234-3.798 5.38 0 3.241-.048 5.54-.072 5.984-.037.672-.271.813-.42.919.234.162 2.146-.439 2.606-1.011.031-.038.094-.054.142-.066 1.139-.267 1.141-1.457 1.163-1.819.952 0 1.322-1.041 1.423-1.312.084-.234.147-.505.172-.752 0 .506.749.941 1.555.134 0 .831.989.684 1.481.192.043.168.316.596.316.596-.565.102-.82.226-1.087.461-.625.551-.696 1.468-.696 1.942 0 0-.862.843-1.203 1.155-.102.093-.213.175-.323.259-.884-.989-1.179-.602-1.178-.601-.653-.263-1.016.205-.873.442.153-.173.401-.122.55.012v.001c-.883.147-.678.796-.44.931 0-.186.058-.393.336-.412-.013.286.179.336.363.343.437.018 1.168.039 1.392.257.127.124.065.488.203.612.114.102.235.09.298.091.021.134-.018.285-.188.463.636.053 1.112-.508.797-.806-.132-.126-.577-.548-.599-.73-.029-.196.177-.414.32-.542.306-.273.636-.517.961-.77.095-.075.207-.142.316-.202a.422.422 0 01.324-.035c.244.076.24.07.304.028.24-.158.674-.515 1.577-.614a.465.465 0 00-.137.125c-.049.067-.082.148-.134.259-.059.125-.104.254-.157.379-.584 1.381-1.162 2.738-1.744 4.12-.193.457-.021.856.45 1.077a.754.754 0 00.964-.259c-.066.229-.097.426-.004.616.092.19.241.326.436.408.188.083.41.113.615.073.209-.043.348-.182.455-.384.018.45.314.78.805.78" fill="#FFF" mask="url(#d)"/></g><g transform="translate(-19.68 -13.904)"><mask id="f" fill="#fff"><use xlink:href="#e"/></mask><path d="M22.487 49.743c.815 0 2.476-.072 3.426-.131a4.656 4.656 0 00-.043.526c0 .101.03.336.043.496a27.851 27.851 0 00-2.683-.203c-.305 0-1.488.026-2.13.086v3.664h.743c1.52 0 4.716.291 4.716 2.931 0 2.144-1.796 3.122-4.158 3.109-.265 0-1.255-.043-1.886-.043-.275 0-.611.013-.845.043.089-1.606.117-3.825.117-5.662 0-1.649-.013-4.145-.117-4.947.934.044 2.479.131 2.817.131zm-1.386 9.632c.379.015.83.029 1.24.029 1.722 0 2.725-.804 2.725-2.306 0-1.619-1.194-2.146-3.965-2.146v4.423z" fill="#FFF" fill-rule="nonzero" mask="url(#f)"/></g><g transform="translate(-19.68 -13.904)"><mask id="h" fill="#fff"><use xlink:href="#g"/></mask><path d="M28.213 53.698c.571-.7 1.619-1.006 2.497-1.006 1.532 0 2.596.758 2.596 2.581v3.62c0 .744.16.918.465.918.105 0 .265-.029.351-.06l.087.352a2.591 2.591 0 01-1.094.278c-.481 0-.787-.22-.904-.644l-.086-.319c-.789.629-1.649.963-2.364.963-1.329 0-2.192-.701-2.192-1.928 0-1.312.98-1.926 2.321-2.173l1.487-.277c.498-.088.763-.234.763-.599 0-1.59-.672-1.999-1.781-1.999-.861 0-1.504.249-1.97 1.198h-.176v-.905zm3.928 2.757l-.964.146c-1.052.161-2.22.524-2.22 1.636 0 .845.469 1.298 1.415 1.298.586 0 1.168-.205 1.769-.831v-2.249z" fill="#FFF" fill-rule="nonzero" mask="url(#h)"/></g><g transform="translate(-19.68 -13.904)"><mask id="j" fill="#fff"><use xlink:href="#i"/></mask><path d="M36.21 52.881c.161 0 .466-.028.685-.043-.117 1.107-.133 2.945-.133 3.021a54.44 54.44 0 001.973.058c.481 0 1.399-.029 1.837-.058 0-.088-.015-1.925-.13-3.021.245.015.568.043.741.043.163 0 .468-.028.687-.043-.117 1.096-.132 2.933-.132 3.69 0 .614.015 2.583.132 3.692a5.377 5.377 0 00-.672-.043c-.246 0-.539.015-.756.043.115-1.109.13-3.078.13-3.545-.641-.046-1.516-.104-1.852-.104-.398 0-1.372.029-1.958.074 0 .496.016 2.465.133 3.574a5.414 5.414 0 00-.672-.043c-.247 0-.539.015-.759.043.115-1.109.13-3.078.13-3.692 0-.745-.015-2.595-.13-3.69.247.016.571.044.746.044" fill="#FFF" mask="url(#j)"/></g><g transform="translate(-19.68 -13.904)"><mask id="l" fill="#fff"><use xlink:href="#k"/></mask><path d="M44.598 52.881c.158 0 .466-.028.682-.043-.114 1.096-.127 2.945-.127 3.211h.234c.481 0 2.947-2.804 3.181-3.211.204.015.537.043.713.043.148 0 .499-.028.715-.043l-3.486 3.123c.44.524 2.755 3.137 3.807 4.26-.392-.028-.67-.043-.873-.043-.265 0-.659.015-.965.043-.539-.846-2.189-2.786-3.092-3.779h-.234c0 .541.013 2.67.127 3.779a5.306 5.306 0 00-.669-.043 6.6 6.6 0 00-.759.043c.12-1.109.136-3.078.136-3.692 0-.745-.016-2.595-.136-3.69.25.014.571.042.746.042" fill="#FFF" mask="url(#l)"/></g><g transform="translate(-19.68 -13.904)"><mask id="n" fill="#fff"><use xlink:href="#m"/></mask><path d="M56.765 49.656c.508 0 1.168-.044 1.544-.044 2.7 0 3.75.818 3.75 2.656 0 2.38-2 3.137-4.374 3.137-.133 0-.69-.029-.967-.058v2.522c0 .729.03 1.62.119 2.351a6.646 6.646 0 00-.745-.043c-.265 0-.571.015-.804.043.088-1.605.119-3.823.119-5.662 0-1.648-.015-4.144-.119-4.946.484.014 1.141.044 1.477.044m.567 4.976c2.043 0 3.242-.815 3.242-2.363 0-1.445-1.14-1.838-2.555-1.838-.247 0-1.094.015-1.3.043v4.099c.178.032.468.059.613.059" fill="#FFF" fill-rule="nonzero" mask="url(#n)"/></g><g transform="translate(-19.68 -13.904)"><mask id="p" fill="#fff"><use xlink:href="#o"/></mask><path d="M69.659 56.484c0 2.233-1.447 3.896-3.735 3.896-2.247 0-3.65-1.647-3.65-3.691 0-2.421 1.548-3.997 3.78-3.997 2.218 0 3.605 1.606 3.605 3.792m-5.998.162c0 1.648.688 3.166 2.231 3.166 1.49 0 2.38-1.431 2.38-3.386 0-1.575-.613-3.165-2.262-3.165-1.575 0-2.349 1.649-2.349 3.385" fill="#FFF" fill-rule="nonzero" mask="url(#p)"/></g><g transform="translate(-19.68 -13.904)"><mask id="r" fill="#fff"><use xlink:href="#q"/></mask><path d="M76.811 54.427h-.176c-.511-.83-1.223-1.166-2.028-1.166-1.708 0-2.524 1.648-2.524 3.253 0 1.854 1.021 3.299 2.831 3.299.6 0 1.139-.088 1.984-1.008l.133.16-.177.715c-.701.47-1.485.701-2.392.701-2.278 0-3.766-1.59-3.766-3.838 0-2.348 1.604-3.85 3.955-3.85a5.2 5.2 0 012.523.641l-.363 1.093z" fill="#FFF" mask="url(#r)"/></g><g transform="translate(-19.68 -13.904)"><mask id="t" fill="#fff"><use xlink:href="#s"/></mask><path d="M84.176 54.427h-.173c-.51-.83-1.224-1.166-2.025-1.166-1.71 0-2.528 1.648-2.528 3.253 0 1.854 1.027 3.299 2.833 3.299.596 0 1.138-.088 1.982-1.008l.131.16-.174.715c-.699.47-1.488.701-2.393.701-2.275 0-3.763-1.59-3.763-3.838 0-2.348 1.604-3.85 3.955-3.85.758 0 1.59.145 2.523.641l-.368 1.093z" fill="#FFF" mask="url(#t)"/></g><g transform="translate(-19.68 -13.904)"><mask id="v" fill="#fff"><use xlink:href="#u"/></mask><path d="M86.339 60.178c-.089 0-.352.027-.469.043.117-1.108.133-3.079.133-3.691 0-.746-.016-2.597-.133-3.691.25.014.569.043.743.043.162 0 .466-.029.688-.043-.116 1.095-.13 2.932-.13 3.691 0 .612.014 1.473.028 1.881.802-.977 3.662-4.609 4.35-5.572.157.028.26.043.436.043.086 0 .391-.029.557-.043-.12 1.095-.135 2.932-.135 3.691 0 .612.015 2.583.135 3.691a5.489 5.489 0 00-.672-.043c-.25 0-.54.015-.76.043.117-1.108.131-3.079.131-3.691 0-.76-.014-1.692-.027-1.999-.995 1.007-3.622 4.451-4.451 5.69a1.94 1.94 0 00-.424-.043" fill="#FFF" mask="url(#v)"/></g><g transform="translate(-19.68 -13.904)"><mask id="x" fill="#fff"><use xlink:href="#w"/></mask><path d="M94.603 60.178c-.089 0-.352.027-.466.043.114-1.108.13-3.079.13-3.691 0-.746-.016-2.597-.13-3.691.247.014.565.043.74.043.161 0 .469-.029.688-.043-.116 1.095-.13 2.932-.13 3.691 0 .612.014 1.473.028 1.881.802-.977 3.66-4.609 4.347-5.572.16.028.263.043.438.043.086 0 .394-.029.554-.043-.114 1.095-.13 2.932-.13 3.691 0 .612.016 2.583.13 3.691a5.414 5.414 0 00-.672-.043c-.247 0-.539.015-.756.043.118-1.108.13-3.079.13-3.691 0-.76-.012-1.692-.028-1.999-.991 1.007-3.621 4.451-4.453 5.69a1.883 1.883 0 00-.42-.043" fill="#FFF" mask="url(#x)"/></g></g></svg>