<svg width="40" height="16" fill="none" xmlns="http://www.w3.org/2000/svg"><g clip-path="url(#clip0_5409_20885)"><path fill-rule="evenodd" clip-rule="evenodd" d="M2.564 0h26.872c.892 0 1.215.093 1.54.267.327.174.583.43.757.756.174.326.267.65.267 1.54v10.873c0 .892-.093 1.215-.267 1.54a1.81 1.81 0 01-.756.757c-.326.174-.65.267-1.54.267H2.563c-.892 0-1.215-.093-1.54-.267a1.817 1.817 0 01-.757-.756C.093 14.65 0 14.327 0 13.437V2.563c0-.892.093-1.215.267-1.54a1.81 1.81 0 01.756-.757C1.35.093 1.673 0 2.563 0z" fill="#8F96A3"/><path d="M11.15 10.469H8.477L7.927 12H5.984L8.9 4h2.057l2.915 8H11.7l-.548-1.531zM9.06 8.892h1.509l-.755-2.378-.754 2.378zM14.785 4h3.258c1.112 0 1.931.243 2.457.731.533.48.8 1.147.8 2 0 .854-.267 1.524-.8 2.012-.526.48-1.345.72-2.457.72h-1.2v2.538h-2.058V4zm3.029 3.771c.526 0 .895-.087 1.109-.262.213-.176.32-.435.32-.778s-.107-.602-.32-.777c-.214-.175-.583-.263-1.11-.263h-.97v2.08h.97zM22.556 4h2.058v8h-2.058V4z" fill="#fff"/></g><defs><clipPath id="clip0_5409_20885"><path fill="#fff" d="M0 0h40v16H0z"/></clipPath></defs></svg>