<svg width="20" height="20" fill="none" xmlns="http://www.w3.org/2000/svg"><mask id="a" style="mask-type:alpha" maskUnits="userSpaceOnUse" x="0" y="0" width="20" height="20"><path fill="#D9D9D9" d="M0 0h20v20H0z"/></mask><g mask="url(#a)"><path d="M3 4.925A.075.075 0 002.925 5v11.5c0 .433.155.805.463 1.112.307.308.68.463 1.112.463H14a.075.075 0 00.075-.075v-1.5a.075.075 0 00-.075-.075H4.575V5a.075.075 0 00-.075-.075H3zm3.388 9.687c.307.308.68.463 1.112.463h8a1.52 1.52 0 001.112-.463 1.52 1.52 0 00.463-1.112v-10a1.52 1.52 0 00-.463-1.112 1.52 1.52 0 00-1.112-.463h-8a1.52 1.52 0 00-1.112.463A1.52 1.52 0 005.925 3.5v10c0 .432.155.805.463 1.112zm9.037-11.037v9.85h-7.85v-9.85h7.85z" fill="#8F96A3" stroke="#8F96A3" stroke-width=".15" stroke-linejoin="round"/></g></svg>