<svg width="21" height="21" fill="none" xmlns="http://www.w3.org/2000/svg"><mask id="a" style="mask-type:alpha" maskUnits="userSpaceOnUse" x="0" y="0" width="21" height="21"><path fill="#D9D9D9" d="M.109.74h20v20h-20z"/></mask><g mask="url(#a)"><path d="M3.11 5.665a.075.075 0 00-.076.075v11.5c0 .432.155.805.463 1.112.308.308.68.463 1.112.463h9.5a.075.075 0 00.075-.075v-1.5a.075.075 0 00-.075-.075H4.684V5.74a.075.075 0 00-.075-.075h-1.5zm3.387 9.687c.308.308.68.463 1.112.463h8a1.52 1.52 0 001.113-.463 1.52 1.52 0 00.462-1.112v-10a1.52 1.52 0 00-.462-1.113 1.52 1.52 0 00-1.113-.462h-8a1.52 1.52 0 00-1.112.462 1.52 1.52 0 00-.463 1.113v10c0 .432.155.804.463 1.112zm9.037-11.037v9.85h-7.85v-9.85h7.85z" fill="#1C1B1F" stroke="#000" stroke-width=".15" stroke-linejoin="round"/></g></svg>