<svg xmlns="http://www.w3.org/2000/svg" width="212" height="175"><g fill="none" fill-rule="evenodd"><rect width="211" height="174" x=".5" y=".5" stroke="#E8E9EB" rx="4"/><path fill="#8F96A3" fill-rule="nonzero" d="M96.34 48.52v-.984h-1.656V40.12h-1.128l-2.016 1.452v1.236l2.016-1.452v6.18H91.54v.984h4.8zm4.44.12c.432 0 .838-.068 1.218-.204.38-.136.71-.37.99-.702.28-.332.502-.774.666-1.326.164-.552.246-1.244.246-2.076v-.24c0-.776-.076-1.426-.228-1.95-.152-.524-.366-.944-.642-1.26a2.335 2.335 0 00-.984-.678A3.736 3.736 0 00100.78 40c-.424 0-.826.068-1.206.204-.38.136-.712.362-.996.678-.284.316-.508.736-.672 1.26-.164.524-.246 1.174-.246 1.95v.24c0 .832.084 1.524.252 2.076.168.552.394.994.678 1.326.284.332.614.566.99.702a3.5 3.5 0 001.2.204zm0-1.008c-.24 0-.478-.046-.714-.138a1.498 1.498 0 01-.636-.504c-.188-.244-.342-.58-.462-1.008-.12-.428-.18-.978-.18-1.65v-.24c0-.624.06-1.134.18-1.53.12-.396.274-.71.462-.942.188-.232.4-.392.636-.48a2.03 2.03 0 01.714-.132c.272 0 .53.044.774.132.244.088.456.248.636.48.18.232.322.546.426.942.104.396.156.906.156 1.53v.24c0 .68-.058 1.234-.174 1.662-.116.428-.268.764-.456 1.008s-.402.41-.642.498a2.08 2.08 0 01-.72.132zm5.712.888V43.9l1.848 3.18h.84l1.848-3.18v4.62h1.032v-6.36h-1.032l-2.232 3.9-2.232-3.9h-1.104v6.36h1.032zm8.52 0V43.9l1.848 3.18h.84l1.848-3.18v4.62h1.032v-6.36h-1.032l-2.232 3.9-2.232-3.9h-1.104v6.36h1.032z"/><path fill="#8F96A3" d="M126 61.52h-1v-2H87v2h-1v-5h1v2h38v-2h1v5z"/><path fill="#595959" fill-rule="nonzero" d="M56.153 124.019c2.177 0 3.694 1.104 3.694 3.834v5.02c0 1.188.228 1.317.665 1.317.144 0 .309-.022.435-.045l.124.526c-.81.29-1.265.329-1.492.329-.688 0-1.125-.308-1.29-.912l-.123-.461c-1.122.896-2.346 1.373-3.363 1.373-1.89 0-3.114-.998-3.114-2.75 0-1.876 1.264-2.749 2.905-3.043l2.51-.455c.708-.126 1.082-.334 1.082-.855 0-2.273-.955-3.062-2.535-3.062-1.222 0-2.24.459-2.8 1.665h-.25v-1.208c1.184-.918 2.306-1.273 3.552-1.273zm110.93 0c2.175 0 3.69 1.104 3.69 3.834v5.02c0 1.188.229 1.317.666 1.317.144 0 .311-.022.435-.045l.126.526c-.811.29-1.269.329-1.496.329-.683 0-1.118-.308-1.285-.912l-.126-.461c-1.12.896-2.342 1.373-3.36 1.373-1.89 0-3.113-.998-3.113-2.75 0-1.876 1.267-2.749 2.905-3.043l2.513-.455c.703-.126 1.077-.334 1.077-.855 0-2.273-.957-3.062-2.53-3.062-1.226 0-2.245.459-2.802 1.665h-.25v-1.208h-.002c1.183-.918 2.303-1.273 3.552-1.273zm-71.59.002c3.153-.002 5.125 2.289 5.125 5.417 0 3.187-2.053 5.562-5.312 5.562-3.196 0-5.19-2.35-5.19-5.27 0-3.455 2.2-5.71 5.377-5.71zm56.428.002c1.102 0 1.745.25 2.45.71a15.513 15.513 0 00-.62 1.518c-.64-1.147-1.39-1.416-2.137-1.416-.996 0-1.764.665-1.764 1.708 0 1.291 1.08 1.811 2.262 2.105 1.806.457 2.844 1.02 2.844 2.832 0 2.002-1.929 3.52-4.008 3.52-1.057 0-1.99-.29-2.74-.853a11.9 11.9 0 00.664-1.52c.789 1.294 1.6 1.565 2.47 1.565 1.206 0 2.159-.708 2.159-1.92 0-1.373-1.143-1.726-2.448-2.081-1.62-.439-2.66-1.253-2.66-2.938 0-1.96 1.43-3.23 3.528-3.23zm-8.53 0c1.102 0 1.743.25 2.45.71a15.024 15.024 0 00-.618 1.518c-.64-1.147-1.394-1.416-2.14-1.416-.995 0-1.765.665-1.765 1.708 0 1.291 1.08 1.811 2.263 2.105 1.807.457 2.844 1.02 2.844 2.832 0 2.002-1.928 3.52-4.007 3.52-1.06 0-1.99-.29-2.74-.853a11.9 11.9 0 00.664-1.52c.789 1.294 1.6 1.565 2.47 1.565 1.204 0 2.159-.708 2.159-1.92 0-1.373-1.144-1.726-2.45-2.081-1.62-.439-2.659-1.253-2.659-2.938 0-1.96 1.432-3.23 3.53-3.23zm-14.984.204c.356.022.813.065 1.061.065.228 0 .665-.043.976-.063-.169 1.585-.187 4.397-.187 5.272 0 3.187.956 4.312 2.574 4.312 2.533 0 2.697-2.604 2.697-4.581v-.127c-.003-.695-.03-3.408-.185-4.876.352.02.807.063 1.06.063.227 0 .662-.043.973-.063-.155 1.47-.184 3.883-.187 5.066v.506c.006 1.098.038 3.538.187 4.973a7.16 7.16 0 00-.955-.066c-.354 0-.767.023-1.078.066.041-.358.102-1.253.102-1.627-.683 1.247-2.01 1.853-3.32 1.853-2.014 0-3.592-1.292-3.592-3.42 0-.52.061-1.412.061-2.08 0-.876-.018-3.688-.187-5.273zm-60.299-.206c2.013 0 3.59 1.27 3.59 3.395 0 .522-.063 1.418-.063 2.085 0 .873.023 3.687.19 5.273a7.19 7.19 0 00-.958-.066 8.59 8.59 0 00-1.077.066c.164-1.586.185-4.4.185-5.273 0-3.189-.956-4.293-2.574-4.293-2.46 0-2.687 2.446-2.697 4.398v.292c.003.69.032 3.408.184 4.876a7.106 7.106 0 00-.953-.066c-.354 0-.768.023-1.08.066.161-1.51.185-4.134.187-5.135v-.138c0-1.063-.018-3.71-.187-5.272.352.02.81.063 1.06.063.227 0 .664-.043.973-.063a21.21 21.21 0 00-.103 1.626c.687-1.25 2.012-1.834 3.323-1.834zm91.705.208c-.165 1.563-.185 4.189-.185 5.272 0 .873.02 3.687.185 5.273a7.153 7.153 0 00-.953-.066c-.354 0-.769.023-1.082.066.169-1.586.187-4.4.187-5.273 0-1.063-.018-3.71-.187-5.272.354.02.811.063 1.061.063.226 0 .663-.043.974-.063zm-115.766-4.603c2.946 0 5.272.559 5.272 3.23 0 1.895-1.204 2.956-3.32 3.687 2.966.624 3.797 1.997 3.797 3.79 0 3.063-2.596 4.44-5.897 4.44-.787 0-2.03-.063-2.655-.063-.27 0-.953.043-1.244.064.124-2.294.165-5.46.165-8.086v-.563c-.004-2.322-.034-5.443-.165-6.5.518.023 1.783.06 2.118.06.557 0 1.555-.06 1.93-.06zm32.632-1.271c-.167 1.58-.187 4.605-.187 6.247v4.21h.333c.685 0 4.194-4.002 4.525-4.585.29.02.769.063 1.017.063.207 0 .707-.043 1.016-.063l-4.96 4.458c.624.749 3.924 4.479 5.418 6.086a16.378 16.378 0 00-1.244-.065c-.374 0-.935.02-1.373.065-.766-1.21-3.112-3.982-4.399-5.398h-.333c0 .773.02 3.813.187 5.398a6.806 6.806 0 00-.953-.065c-.354 0-.77.02-1.08.065.167-1.585.187-4.627.187-6.251v-3.918c0-1.644-.02-4.666-.187-6.247.352.02.807.06 1.06.06.225 0 .662-.042.973-.06zm44.09 1.27c2.662 0 4.363 1.168 4.363 3.437 0 2.042-1.496 3.813-4.464 4.125 3.863 4.959 4.672 5.94 6.123 7.584a17.108 17.108 0 00-1.451-.063c-.456 0-.954.023-1.37.063-1.474-2.166-3.965-5.356-5.646-7.353h-.75c0 2.501.022 5.06.167 7.353a8.806 8.806 0 00-1.06-.063c-.371 0-.808.023-1.142.063.117-2.116.158-4.976.164-7.469v-1.177c-.003-2.324-.032-5.443-.164-6.5.606.04 1.872.062 2.366.062.562 0 2.076-.061 2.865-.061zm-13.325-1.374c.27 0 .437.02.582.063-.019.292-.061.769-.061.936 0 .208.042.627.063.978-.665-.251-1.019-.312-1.287-.312-1.183 0-1.805.63-1.805 1.854 0 .482.04 1.4.187 2.522.6 0 1.598-.084 2.283-.167-.02.208-.043.502-.043.667 0 .188.024.439.043.604-.706-.104-1.454-.165-1.704-.165h-.62v3.29c0 1.625.018 4.667.185 6.248a7.156 7.156 0 00-.955-.063 9.22 9.22 0 00-1.08.063c.167-1.58.187-4.625.187-6.247v-3.291h-.351c-.187 0-.478.018-1.102.165.042-.21.065-.52.065-.626a4.66 4.66 0 00-.065-.645c.457.147.77.167 1.102.167h.351c0-3.377 2.304-6.041 4.025-6.041zm-12.014 6.584c-2.242 0-3.342 2.35-3.342 4.831 0 2.353.976 4.524 3.175 4.524 2.119 0 3.383-2.042 3.383-4.834 0-2.252-.87-4.521-3.216-4.521zm-37.244 4.562l-1.37.21c-1.494.229-3.155.75-3.155 2.33 0 1.212.665 1.855 2.012 1.855.832 0 1.663-.29 2.513-1.187v-3.208zm110.925 0l-1.368.21c-1.492.229-3.157.75-3.157 2.33 0 1.212.667 1.855 2.017 1.855.83 0 1.657-.29 2.508-1.187v-3.208zm-126.497-2.146h-.581v6.313c.457.02 1.226.042 1.764.042 2.119 0 3.883-.897 3.883-3.293 0-1.875-1.018-3.062-5.066-3.062zm76.664-6.458c-.71 0-1.41.02-1.704.059v5.46h.687c1.974 0 4.627-.498 4.627-3.018 0-1.563-1.205-2.501-3.61-2.501zm-75.5 0c-.479 0-1.31.022-1.745.043v5.268c.228.02.602.043 1.1.043 2.305 0 4.067-.957 4.067-2.877 0-1.767-1.534-2.477-3.423-2.477zm115.061-1.545c.706 0 1.122.353 1.122 1.104 0 .665-.416 1.147-1.122 1.147-.71 0-1.124-.482-1.124-1.147 0-.624.462-1.104 1.124-1.104zM105.995 69c11.144 0 20.174 9.063 20.174 20.243 0 11.179-9.03 20.244-20.174 20.244-11.136 0-20.166-9.065-20.166-20.244 0-11.18 9.03-20.243 20.166-20.243zm1.289 5.699c-.092 1.038.703 1.575.955 1.72-.821.893-1.97 2.68-2.244 5.217-.272-2.536-1.419-4.324-2.24-5.217.254-.145 1.045-.682.955-1.72 0 0-.465.849-2.628.46-1.791-.32-2.781.148-2.781.75 0 0-1.273.153-1.842.522-.508.33-.086 1.095.014 1.262l.02.032c.086-.172.208-.27.551-.345 0 0 1.377-.355 1.856.545 1.047.09 1.95.716 2.375 1.573.024.05.447.849.175 2.438-.143.837-.541 1.549-1.129 2.155-.256.267-.575.438-.961.393-.612-.073-1.12-.367-1.557-.801-.238-.24-.313-.51-.13-.823.024-.043.038-.087.054-.136.543-1.314.09-2.477-.829-3.165-.677-.504-1.458-.563-2.248-.451-5.229.739-5.406 6.046-5.406 7.684v.383c-.004 4.425-.07 7.547-.101 8.162-.053.961-.387 1.161-.598 1.314.333.23 3.053-.628 3.708-1.444.043-.053.132-.078.201-.094 1.622-.382 1.624-2.08 1.655-2.598 1.356 0 1.882-1.487 2.027-1.875.12-.332.21-.72.244-1.073 0 .722 1.065 1.343 2.213.192 0 1.185 1.407.977 2.106.273.061.24.45.851.45.851-.803.147-1.165.324-1.545.66-.89.785-.992 2.097-.992 2.772 0 0-1.226 1.204-1.712 1.65-.144.133-.3.252-.46.372-1.258-1.414-1.676-.861-1.674-.86-.93-.377-1.448.293-1.243.631.216-.246.57-.175.781.019-1.256.21-.963 1.136-.624 1.33 0-.267.083-.561.478-.59-.02.41.254.48.514.492.622.025 1.665.055 1.982.365.181.178.094.698.289.876.162.145.335.128.425.13.03.19-.027.406-.267.66.903.075 1.582-.725 1.133-1.151-.19-.18-.822-.782-.852-1.043-.04-.28.252-.592.453-.773.437-.39.907-.739 1.368-1.1.136-.108.295-.202.452-.288a.596.596 0 01.461-.05c.346.107.342.1.431.04.342-.229.96-.737 2.244-.88a.671.671 0 00-.195.18c-.069.096-.116.212-.189.371-.083.176-.148.362-.224.541-.831 1.971-1.654 3.91-2.482 5.885-.274.653-.03 1.224.639 1.538.49.227 1.047.104 1.374-.371-.096.328-.138.61-.006.881.13.272.341.463.62.584.266.12.583.16.876.102.297-.061.494-.257.646-.55.027.648.448 1.119 1.145 1.119.697 0 1.12-.473 1.146-1.118.15.292.348.49.645.549.295.059.61.018.878-.102.279-.119.49-.312.62-.584.132-.271.09-.555-.004-.881.327.477.882.598 1.37.371.673-.314.917-.885.64-1.538-.829-1.975-1.652-3.914-2.484-5.885-.075-.18-.136-.365-.22-.54-.072-.16-.123-.276-.192-.372a.68.68 0 00-.197-.18c1.284.143 1.904.651 2.246.88.091.06.085.067.433-.04a.588.588 0 01.46.05c.156.086.316.18.45.288.464.361.932.71 1.37 1.1.204.181.497.493.456.773-.032.261-.667.863-.854 1.043-.447.426.232 1.226 1.135 1.15-.242-.253-.297-.469-.269-.659.09-.002.262.015.425-.13.195-.178.108-.698.29-.876.32-.31 1.36-.34 1.983-.365.26-.012.535-.081.514-.492.397.029.48.323.48.59.34-.194.628-1.12-.628-1.33.215-.194.567-.265.78-.019.208-.338-.309-1.008-1.238-.63.002-.002-.418-.555-1.677.859-.158-.12-.317-.239-.457-.371-.437-.4-1.466-1.406-1.677-1.613l-.039-.038c0-.675-.1-1.987-.988-2.773-.384-.335-.744-.512-1.549-.659 0 0 .388-.61.451-.85.7.703 2.109.911 2.109-.274 1.146 1.15 2.211.53 2.211-.192.035.353.122.74.244 1.073.143.388.671 1.875 2.027 1.875.03.519.032 2.216 1.65 2.598.074.016.161.04.204.094.655.816 3.375 1.675 3.706 1.444-.21-.153-.543-.353-.598-1.314-.032-.632-.103-3.917-.103-8.545v-.095c-.009-1.738-.27-6.864-5.402-7.589-.79-.112-1.571-.053-2.246.45-.921.689-1.376 1.852-.832 3.166a.534.534 0 00.055.136c.185.312.11.584-.13.823-.435.434-.945.728-1.557.801-.388.045-.707-.126-.964-.393-.585-.606-1-1.316-1.126-2.155-.25-1.598.15-2.387.173-2.438.425-.857 1.328-1.484 2.374-1.573.48-.9 1.856-.545 1.856-.545.344.075.466.173.551.345 0 0 .608-.923.039-1.294-.571-.37-1.844-.522-1.844-.522 0-.602-.99-1.07-2.779-.75-1.931.347-2.509-.293-2.61-.434z"/></g></svg>