<svg viewBox="0 0 545 124" xmlns="http://www.w3.org/2000/svg" xmlns:xlink="http://www.w3.org/1999/xlink"><defs><path id="a" d="M0 0h665.63v247.673H0z"/><path id="c" d="M0 0h665.63v247.673H0z"/><path id="e" d="M0 0h665.63v247.673H0z"/><path id="g" d="M0 0h665.63v247.673H0z"/><path id="i" d="M0 0h665.63v247.673H0z"/><path id="k" d="M0 0h665.63v247.673H0z"/><path id="m" d="M0 0h665.63v247.673H0z"/><path id="o" d="M0 0h665.63v247.673H0z"/><path id="q" d="M0 0h665.63v247.673H0z"/><path id="s" d="M0 0h665.63v247.673H0z"/><path id="u" d="M0 0h665.63v247.673H0z"/><path id="w" d="M0 0h665.63v247.673H0z"/><path id="y" d="M0 0h665.63v247.673H0z"/></defs><g fill="none" fill-rule="evenodd"><g transform="translate(-61.531 -61.797)"><mask id="b" fill="#fff"><use xlink:href="#a"/></mask><path d="M222.965 101.846c1.647 0 4.58-.18 5.679-.18 8.687 0 15.534 1.647 15.534 9.48 0 5.56-3.545 8.68-9.78 10.821 8.737 1.835 11.19 5.873 11.19 11.128 0 8.993-7.651 13.03-17.375 13.03-2.315 0-5.985-.18-7.826-.18-.792 0-2.808.131-3.663.18.368-6.727.487-16.02.487-23.727 0-6.909-.07-17.375-.487-20.733 1.529.063 5.255.181 6.24.181zm-.25 18.836a39.14 39.14 0 003.245.124c6.784 0 11.977-2.808 11.977-8.444 0-5.198-4.519-7.27-10.086-7.27-1.404 0-3.857.062-5.136.118v15.472zm0 21.893c1.348.062 3.607.13 5.199.13 6.234 0 11.44-2.633 11.44-9.666 0-5.505-2.996-8.994-14.929-8.994h-1.71v18.53z" fill="#595959" fill-rule="nonzero" mask="url(#b)"/></g><g transform="translate(-61.531 -61.797)"><mask id="d" fill="#fff"><use xlink:href="#c"/></mask><path d="M253.857 118.297c3.49-2.69 6.79-3.725 10.46-3.725 6.416 0 10.885 3.239 10.885 11.246v14.747c0 3.483.674 3.85 1.96 3.85.43 0 .917-.068 1.285-.13l.362 1.529c-2.384.855-3.726.973-4.4.973-2.022 0-3.308-.91-3.788-2.69l-.375-1.341c-3.301 2.627-6.909 4.031-9.904 4.031-5.567 0-9.174-2.933-9.174-8.07 0-5.504 3.725-8.069 8.562-8.93l7.396-1.342c2.084-.362 3.183-.98 3.183-2.509 0-6.665-2.809-8.993-7.458-8.993-3.608 0-6.61 1.348-8.257 4.9h-.737v-3.546zm16.452 12.046l-4.032.617c-4.406.668-9.3 2.203-9.3 6.847 0 3.55 1.96 5.448 5.93 5.448 2.453 0 4.899-.861 7.402-3.489v-9.423z" fill="#595959" fill-rule="nonzero" mask="url(#d)"/></g><g transform="translate(-61.531 -61.797)"><mask id="f" fill="#fff"><use xlink:href="#e"/></mask><path d="M287.184 115.364c.674 0 1.96-.13 2.877-.18-.125 1.041-.312 3.669-.312 4.767 2.022-3.67 5.935-5.38 9.786-5.38 5.941 0 10.585 3.733 10.585 9.967 0 1.53-.181 4.157-.181 6.117 0 2.565.056 10.815.549 15.47a20.25 20.25 0 00-2.815-.193c-1.042 0-2.259.07-3.183.194.493-4.656.55-12.906.55-15.471 0-9.362-2.815-12.595-7.583-12.595-7.458 0-7.945 7.577-7.945 13.387 0 1.099.063 10.023.55 14.685a20.317 20.317 0 00-2.815-.193c-1.036 0-2.266.068-3.177.193.487-4.656.55-12.906.55-15.471 0-3.12-.063-10.884-.55-15.472 1.036.044 2.384.175 3.114.175" fill="#595959" mask="url(#f)"/></g><g transform="translate(-61.531 -61.797)"><mask id="h" fill="#fff"><use xlink:href="#g"/></mask><path d="M321.921 98.114c.662 0 1.948-.125 2.871-.18-.493 4.649-.549 13.517-.549 18.348v12.35h.974c2.022 0 12.363-11.745 13.337-13.455.855.056 2.259.187 3.001.187.606 0 2.079-.13 2.99-.187l-14.616 13.087c1.834 2.203 11.558 13.144 15.964 17.856-1.654-.125-2.808-.181-3.67-.181-1.104 0-2.746.062-4.038.18-2.253-3.544-9.168-11.676-12.968-15.839h-.974c0 2.26.056 11.196.55 15.84a21.355 21.355 0 00-2.81-.181c-1.041 0-2.27.062-3.182.18.487-4.643.555-13.58.555-18.341v-11.496c0-4.83-.068-13.7-.555-18.349 1.036.056 2.384.181 3.12.181" fill="#595959" mask="url(#h)"/></g><g transform="translate(-61.531 -61.797)"><mask id="j" fill="#fff"><use xlink:href="#i"/></mask><path d="M395.321 130.467c0 9.356-6.053 16.327-15.652 16.327-9.418 0-15.29-6.909-15.29-15.472 0-10.147 6.484-16.757 15.84-16.757 9.292.007 15.102 6.728 15.102 15.902m-25.138.674c0 6.897 2.877 13.275 9.361 13.275 6.235 0 9.967-5.998 9.967-14.192 0-6.603-2.559-13.262-9.48-13.262-6.597-.006-9.848 6.896-9.848 14.18" fill="#595959" fill-rule="nonzero" mask="url(#j)"/></g><g transform="translate(-61.531 -61.797)"><mask id="l" fill="#fff"><use xlink:href="#k"/></mask><path d="M416.971 100.567c0 .612.131 1.835.181 2.877-1.953-.743-2.995-.924-3.788-.924-3.482 0-5.317 1.841-5.317 5.449 0 1.404.118 4.1.549 7.395 1.766 0 4.706-.243 6.721-.487-.05.618-.124 1.467-.124 1.954 0 .55.075 1.292.124 1.779-2.072-.306-4.28-.487-5.017-.487h-1.829v9.655c0 4.768.056 13.705.543 18.354a20.155 20.155 0 00-2.808-.187c-1.043 0-2.26.062-3.183.187.493-4.65.555-13.586.555-18.354v-9.655h-1.042c-.55 0-1.404.05-3.245.487.13-.612.187-1.53.187-1.835 0-.312-.063-1.224-.187-1.898 1.348.425 2.265.487 3.245.487h1.042c0-9.91 6.784-17.737 11.858-17.737.799 0 1.286.063 1.71.194-.044.849-.175 2.253-.175 2.746" fill="#595959" mask="url(#l)"/></g><g transform="translate(-61.531 -61.797)"><mask id="n" fill="#fff"><use xlink:href="#m"/></mask><path d="M446.26 101.846c1.654 0 6.11-.18 8.444-.18 7.833 0 12.844 3.426 12.844 10.09 0 5.999-4.406 11.191-13.143 12.102 11.37 14.56 13.76 17.437 18.042 22.262a51.243 51.243 0 00-4.281-.181c-1.348 0-2.815.062-4.032.18-4.35-6.365-11.683-15.72-16.632-21.58h-2.21c0 7.333.057 14.853.488 21.58a26.234 26.234 0 00-3.12-.18c-1.1 0-2.385.062-3.359.18.369-6.727.487-16.02.487-23.727 0-6.91-.068-17.37-.487-20.733 1.76.125 5.499.187 6.96.187zm-.973 19.447h2.015c5.81 0 13.637-1.46 13.637-8.862 0-4.587-3.539-7.34-10.64-7.34-2.08 0-4.157.063-5.012.182v16.02z" fill="#595959" fill-rule="nonzero" mask="url(#n)"/></g><g transform="translate(-61.531 -61.797)"><mask id="p" fill="#fff"><use xlink:href="#o"/></mask><path d="M480.323 115.364c.668 0 1.96-.13 2.877-.18-.493 4.649-.555 12.906-.555 15.47 0 9.356 2.815 12.651 7.589 12.651 7.458 0 7.945-7.645 7.945-13.443 0-1.105-.063-10.03-.55-14.685 1.037.05 2.385.181 3.121.181.668 0 1.953-.131 2.87-.181-.486 4.587-.542 12.288-.542 15.471 0 2.565.056 10.816.543 15.472a20.25 20.25 0 00-2.815-.194c-1.036 0-2.26.069-3.176.194.124-1.049.305-3.676.305-4.775-2.015 3.664-5.929 5.436-9.785 5.436-5.93 0-10.573-3.782-10.573-10.023 0-1.529.175-4.156.175-6.11 0-2.565-.056-10.821-.543-15.471 1.036.056 2.378.187 3.114.187" fill="#595959" mask="url(#p)"/></g><g transform="translate(-61.531 -61.797)"><mask id="r" fill="#fff"><use xlink:href="#q"/></mask><path d="M526.737 121.112c-1.897-3.357-4.1-4.156-6.303-4.156-2.94 0-5.199 1.953-5.199 5.017 0 3.789 3.177 5.318 6.66 6.173 5.33 1.348 8.381 2.99 8.381 8.319 0 5.873-5.68 10.329-11.802 10.329-3.12 0-5.866-.855-8.07-2.503.669-1.217 1.524-3.239 1.948-4.468 2.328 3.794 4.718 4.593 7.283 4.593 3.539 0 6.36-2.078 6.36-5.63 0-4.031-3.364-5.067-7.215-6.11-4.774-1.291-7.826-3.675-7.826-8.624 0-5.748 4.219-9.48 10.391-9.48 3.252 0 5.137.73 7.221 2.072-.605 1.285-1.336 3.002-1.829 4.468" fill="#595959" mask="url(#r)"/></g><g transform="translate(-61.531 -61.797)"><mask id="t" fill="#fff"><use xlink:href="#s"/></mask><path d="M551.87 121.112c-1.898-3.357-4.094-4.156-6.297-4.156-2.934 0-5.2 1.953-5.2 5.017 0 3.789 3.184 5.318 6.666 6.173 5.324 1.348 8.382 2.99 8.382 8.319 0 5.873-5.692 10.329-11.808 10.329-3.12 0-5.867-.855-8.07-2.503.668-1.217 1.523-3.239 1.948-4.468 2.327 3.794 4.711 4.593 7.283 4.593 3.545 0 6.36-2.078 6.36-5.63 0-4.031-3.365-5.067-7.215-6.11-4.775-1.291-7.833-3.675-7.833-8.624 0-5.748 4.225-9.48 10.398-9.48 3.245 0 5.136.73 7.214 2.072-.605 1.285-1.335 3.002-1.828 4.468" fill="#595959" mask="url(#t)"/></g><g transform="translate(-61.531 -61.797)"><mask id="v" fill="#fff"><use xlink:href="#u"/></mask><path d="M570.156 103.806c0 1.953-1.223 3.364-3.308 3.364-2.078 0-3.295-1.41-3.295-3.364 0-1.835 1.354-3.24 3.295-3.24 2.085 0 3.308 1.037 3.308 3.24m-3.308 11.558c.674 0 1.96-.13 2.883-.18-.486 4.586-.555 12.288-.555 15.47 0 2.566.069 10.816.555 15.472a20.383 20.383 0 00-2.814-.194c-1.036 0-2.266.07-3.183.194.493-4.656.549-12.906.549-15.471 0-3.12-.056-10.885-.55-15.472 1.037.05 2.385.181 3.115.181" fill="#595959" fill-rule="nonzero" mask="url(#v)"/></g><g transform="translate(-61.531 -61.797)"><mask id="x" fill="#fff"><use xlink:href="#w"/></mask><path d="M580.672 118.297c3.488-2.69 6.79-3.725 10.466-3.725 6.416 0 10.878 3.239 10.878 11.246v14.747c0 3.483.668 3.85 1.953 3.85.43 0 .918-.068 1.286-.13l.368 1.529c-2.39.855-3.738.973-4.406.973-2.016 0-3.295-.91-3.782-2.69l-.368-1.341c-3.302 2.627-6.909 4.031-9.91 4.031-5.568 0-9.181-2.933-9.181-8.07 0-5.504 3.738-8.069 8.569-8.93l7.401-1.342c2.079-.362 3.177-.98 3.177-2.509 0-6.665-2.808-8.993-7.458-8.993-3.595 0-6.603 1.348-8.25 4.9h-.737v-3.546h-.006zm16.451 12.046l-4.032.617c-4.406.668-9.299 2.203-9.299 6.847 0 3.55 1.96 5.448 5.93 5.448 2.452 0 4.892-.861 7.401-3.489v-9.423z" fill="#595959" fill-rule="nonzero" mask="url(#x)"/></g><g transform="translate(-61.531 -61.797)"><mask id="z" fill="#fff"><use xlink:href="#y"/></mask><path d="M123.958 61.923c-34.188 0-61.904 27.722-61.904 61.91 0 34.194 27.716 61.917 61.904 61.917 34.207 0 61.93-27.716 61.93-61.917 0-34.188-27.723-61.91-61.93-61.91m39.125 80.153c-.131-.163-.412-.238-.63-.288-4.969-1.167-4.975-6.365-5.075-7.944-4.162 0-5.772-4.55-6.216-5.73a14.2 14.2 0 01-.749-3.288c0 2.215-3.276 4.112-6.796.586 0 3.632-4.319 2.99-6.466.836-.193.737-1.385 2.603-1.385 2.603 2.471.45 3.582.992 4.75 2.016 2.727 2.409 3.039 6.41 3.039 8.475 0 0 3.77 3.688 5.26 5.055.438.4.924.768 1.405 1.136 3.87-4.325 5.155-2.634 5.149-2.627 2.852-1.155 4.437.898 3.813 1.934-.668-.755-1.747-.543-2.403.056 3.857.643 2.965 3.477 1.922 4.063 0-.811-.255-1.716-1.466-1.803.056 1.254-.78 1.473-1.585 1.504-1.91.08-5.105.168-6.079 1.123-.555.543-.287 2.135-.893 2.678-.493.443-1.023.386-1.298.393-.093.586.082 1.242.818 2.016-2.777.237-4.856-2.21-3.476-3.514.574-.556 2.515-2.397 2.615-3.19.125-.86-.774-1.81-1.398-2.365-1.342-1.192-2.778-2.259-4.2-3.37a9.98 9.98 0 00-1.38-.88c-.38-.212-.923-.312-1.416-.156-1.068.337-1.049.306-1.33.131-1.042-.692-2.94-2.246-6.89-2.696.269.175.456.35.6.556.212.293.361.649.592 1.13.256.549.45 1.11.68 1.66 2.547 6.028 5.08 11.963 7.62 17.992.843 2.003.094 3.757-1.965 4.712-1.504.699-3.208.325-4.213-1.13.294.999.425 1.86.019 2.697a3.585 3.585 0 01-1.904 1.778 4.565 4.565 0 01-2.69.318c-.91-.18-1.516-.786-1.984-1.672-.081 1.966-1.38 3.414-3.52 3.414s-3.432-1.442-3.514-3.414c-.468.886-1.073 1.485-1.984 1.672a4.56 4.56 0 01-2.69-.318c-.855-.362-1.504-.948-1.904-1.778-.405-.837-.274-1.692.02-2.697-1.012 1.448-2.716 1.829-4.22 1.13-2.053-.955-2.808-2.709-1.96-4.712 2.54-6.029 5.068-11.964 7.62-17.993.232-.549.425-1.11.681-1.66.225-.48.375-.836.587-1.13.15-.205.33-.38.599-.555-3.944.443-5.842 1.997-6.89 2.696-.275.175-.256.206-1.323-.13a1.887 1.887 0 00-1.417.155c-.48.262-.967.556-1.385.88-1.417 1.111-2.859 2.178-4.194 3.37-.63.556-1.523 1.504-1.405 2.366.1.792 2.041 2.633 2.622 3.189 1.379 1.304-.706 3.757-3.477 3.514.737-.774.912-1.43.818-2.016-.275-.007-.805.05-1.304-.393-.6-.543-.331-2.135-.887-2.678-.973-.948-4.175-1.042-6.085-1.123-.798-.031-1.635-.25-1.579-1.504-1.217.087-1.466.992-1.466 1.803-1.042-.593-1.941-3.426 1.922-4.063-.655-.599-1.741-.81-2.403-.056-.63-1.036.955-3.083 3.814-1.934-.013-.007 1.279-1.698 5.142 2.627.487-.368.967-.73 1.41-1.136 1.492-1.367 5.255-5.055 5.255-5.055 0-2.066.312-6.072 3.04-8.475 1.173-1.024 2.284-1.567 4.75-2.016 0 0-1.193-1.866-1.38-2.603-2.153 2.154-6.472 2.796-6.472-.836-3.514 3.526-6.79 1.63-6.79-.586a14.2 14.2 0 01-.75 3.289c-.442 1.18-2.059 5.729-6.221 5.729-.094 1.585-.106 6.784-5.08 7.944-.213.05-.487.125-.618.288-2.01 2.496-10.36 5.123-11.378 4.418.643-.462 1.667-1.08 1.835-4.025.094-1.935.306-11.977.306-26.137 0-5.006.543-21.238 16.595-23.504 2.428-.337 4.824-.156 6.896 1.38 2.827 2.109 4.219 5.66 2.553 9.685-.05.144-.088.287-.169.412-.562.961-.337 1.785.4 2.522 1.341 1.329 2.902 2.228 4.78 2.446 1.18.137 2.166-.38 2.952-1.198 1.804-1.854 3.02-4.038 3.464-6.597.836-4.855-.462-7.302-.537-7.452-1.31-2.62-4.075-4.543-7.296-4.818-1.466-2.746-5.691-1.654-5.691-1.654-1.055.225-1.43.525-1.692 1.049 0 0-1.853-2.827-.112-3.957C99.5 83.51 103.4 83.05 103.4 83.05c0-1.842 3.046-3.27 8.544-2.29 6.634 1.185 8.07-1.411 8.07-1.411.274 3.176-2.153 4.818-2.934 5.26 2.516 2.734 6.042 8.195 6.878 15.959.843-7.764 4.362-13.225 6.884-15.958-.78-.443-3.208-2.085-2.933-5.261 0 0 1.429 2.596 8.07 1.41 5.497-.98 8.53.45 8.53 2.29 0 0 3.907.462 5.661 1.598 1.748 1.13-.106 3.957-.106 3.957-.268-.524-.637-.824-1.691-1.049 0 0-4.225-1.092-5.705 1.654-3.207.275-5.978 2.197-7.283 4.818-.075.15-1.298 2.572-.536 7.452.399 2.565 1.66 4.743 3.463 6.597.78.817 1.76 1.335 2.952 1.198 1.879-.218 3.439-1.117 4.78-2.446.731-.737.962-1.56.4-2.522a1.6 1.6 0 01-.168-.412c-1.667-4.025-.275-7.576 2.546-9.686 2.072-1.535 4.475-1.716 6.903-1.379 16.051 2.266 16.588 18.498 16.588 23.504 0 14.16.212 24.202.312 26.137.169 2.945 1.192 3.557 1.835 4.025-1.024.705-9.374-1.916-11.377-4.418" fill="#595959" fill-rule="nonzero" mask="url(#z)"/></g></g></svg>