<svg width="20" height="20" fill="none" xmlns="http://www.w3.org/2000/svg"><mask id="a" style="mask-type:alpha" maskUnits="userSpaceOnUse" x="0" y="0" width="20" height="20"><path fill="#D9D9D9" d="M0 0h20v20H0z"/></mask><g mask="url(#a)"><path d="M4.5 18a1.45 1.45 0 01-1.06-.44A1.445 1.445 0 013 16.5V5h1.5v11.5H14V18H4.5zm3-3a1.45 1.45 0 01-1.06-.44A1.445 1.445 0 016 13.5v-10c0-.413.147-.766.44-1.06.294-.293.647-.44 1.06-.44h8c.412 0 .766.147 1.06.44.293.294.44.647.44 1.06v10c0 .412-.147.766-.44 1.06-.294.293-.647.44-1.06.44h-8zm0-1.5h8v-10h-8v10z" fill="#8F96A3"/></g></svg>