<svg width="24" height="24" fill="none" xmlns="http://www.w3.org/2000/svg"><path fill="#E5E5E5" d="M0 0h24v24H0z"/><g clip-path="url(#clip0_4564_87211)"><path fill="#fff" d="M-1159-608H204v4436h-1363z"/><mask id="a" style="mask-type:alpha" maskUnits="userSpaceOnUse" x="0" y="0" width="24" height="24"><path fill="#D9D9D9" d="M0 0h24v24H0z"/></mask><g mask="url(#a)"><mask id="b" maskUnits="userSpaceOnUse" x="3.5" y="2.615" width="17" height="19" fill="#000"><path fill="#fff" d="M3.5 2.615h17v19h-17z"/><path d="M9.4 16.154l2.6-2.6 2.6 2.6 1.054-1.054-2.6-2.6 2.6-2.6L14.6 8.846l-2.6 2.6-2.6-2.6L8.346 9.9l2.6 2.6-2.6 2.6L9.4 16.154zM7.308 20.5c-.505 0-.933-.175-1.283-.525a1.745 1.745 0 01-.525-1.283V6h-1V4.5H9v-.885h6V4.5h4.5V6h-1v12.692c0 .505-.175.933-.525 1.283-.35.35-.778.525-1.283.525H7.308zM17 6H7v12.692c0 .077.032.148.096.212a.294.294 0 00.212.096h9.384a.294.294 0 00.212-.096.294.294 0 00.096-.212V6z"/></mask><path d="M9.4 16.154l2.6-2.6 2.6 2.6 1.054-1.054-2.6-2.6 2.6-2.6L14.6 8.846l-2.6 2.6-2.6-2.6L8.346 9.9l2.6 2.6-2.6 2.6L9.4 16.154zM7.308 20.5c-.505 0-.933-.175-1.283-.525a1.745 1.745 0 01-.525-1.283V6h-1V4.5H9v-.885h6V4.5h4.5V6h-1v12.692c0 .505-.175.933-.525 1.283-.35.35-.778.525-1.283.525H7.308zM17 6H7v12.692c0 .077.032.148.096.212a.294.294 0 00.212.096h9.384a.294.294 0 00.212-.096.294.294 0 00.096-.212V6z" fill="#ED1A34"/><path d="M6.9 6v13h.2V6h-.2zm2.5 10.154l-.141.141.141.141.141-.14-.141-.142zm2.6-2.6l.141-.142-.141-.141-.141.141.141.142zm2.6 2.6l-.141.141.141.141.141-.14-.141-.142zm1.054-1.054l.141.141.142-.141-.142-.142-.141.142zm-2.6-2.6l-.142-.142-.141.142.141.141.142-.141zm2.6-2.6l.141.141.142-.141-.142-.142-.141.142zM14.6 8.846l.141-.141-.141-.142-.141.142.141.141zm-2.6 2.6l-.141.141.141.142.141-.142-.141-.141zm-2.6-2.6l.141-.141-.141-.142-.141.142.141.141zM8.346 9.9l-.141-.142-.142.142.142.141.141-.141zm2.6 2.6l.142.141.141-.141-.141-.142-.142.142zm-2.6 2.6l-.141-.142-.142.142.142.141.141-.141zM5.5 6h.2v-.2h-.2V6zm-1 0h-.2v.2h.2V6zm0-1.5v-.2h-.2v.2h.2zm4.5 0v.2h.2v-.2H9zm0-.885v-.2h-.2v.2H9zm6 0h.2v-.2H15v.2zm0 .885h-.2v.2h.2v-.2zm4.5 0h.2v-.2h-.2v.2zm0 1.5v.2h.2V6h-.2zm-1 0v-.2h-.2V6h.2zM17 6h.2v-.2H17V6zM7 6v-.2h-.2V6H7zm.096 12.904l-.141.141.141-.141zm9.808 0l.141.141-.141-.141zM9.54 16.295l2.6-2.6-.282-.283-2.6 2.6.282.283zm2.318-2.6l2.6 2.6.282-.283-2.6-2.6-.282.283zm2.882 2.6l1.054-1.054-.283-.283-1.053 1.054.282.283zm1.054-1.337l-2.6-2.6-.283.283 2.6 2.6.283-.283zm-2.6-2.317l2.6-2.6-.283-.283-2.6 2.6.283.283zm2.6-2.883L14.74 8.705l-.282.282 1.053 1.054.283-.283zM14.46 8.705l-2.6 2.6.282.282 2.6-2.6-.282-.282zm-2.318 2.6l-2.6-2.6-.282.282 2.6 2.6.282-.282zm-2.882-2.6L8.205 9.758l.283.283L9.54 8.987l-.282-.282zM8.205 10.04l2.6 2.6.283-.283-2.6-2.6-.283.283zm2.6 2.317l-2.6 2.6.283.283 2.6-2.6-.283-.283zm-2.6 2.883l1.054 1.054.282-.283-1.053-1.054-.283.283zm-.897 5.06c-.454 0-.83-.155-1.142-.467l-.282.283c.388.389.867.584 1.424.584v-.4zm-1.142-.467a1.545 1.545 0 01-.466-1.14h-.4c0 .556.195 1.035.584 1.423l.282-.283zm-.466-1.14V6h-.4v12.692h.4zM5.5 5.8h-1v.4h1v-.4zm-.8.2V4.5h-.4V6h.4zm-.2-1.3H9v-.4H4.5v.4zm4.7-.2v-.885h-.4V4.5h.4zM9 3.815h6v-.4H9v.4zm5.8-.2V4.5h.4v-.885h-.4zM15 4.7h4.5v-.4H15v.4zm4.3-.2V6h.4V4.5h-.4zm.2 1.3h-1v.4h1v-.4zm-1.2.2v12.692h.4V6h-.4zm0 12.692c0 .453-.155.83-.466 1.141l.282.283c.389-.388.584-.867.584-1.424h-.4zm-.466 1.141a1.545 1.545 0 01-1.142.467v.4c.557 0 1.036-.195 1.424-.584l-.282-.283zm-1.142.467H7.308v.4h9.384v-.4zM17 5.8H7v.4h10v-.4zM6.8 6v12.692h.4V6h-.4zm0 12.692c0 .14.06.259.155.353l.283-.283c-.034-.034-.038-.055-.038-.07h-.4zm.155.353a.493.493 0 00.353.155v-.4c-.015 0-.037-.004-.07-.038l-.283.283zm.353.155h9.384v-.4H7.308v.4zm9.384 0a.49.49 0 00.353-.155l-.283-.283c-.033.034-.055.038-.07.038v.4zm.353-.155a.494.494 0 00.155-.353h-.4c0 .015-.004.036-.038.07l.283.283zm.155-.353V6h-.4v12.692h.4z" fill="#ED1A34" mask="url(#b)"/></g><path d="M153 47h-1173v2H153v-2z" fill="#E8E9EB" mask="url(#path-1-inside-1_4564_87211)"/></g><defs><clipPath id="clip0_4564_87211"><path fill="#fff" transform="translate(-1159 -608)" d="M0 0h1363v4436H0z"/></clipPath></defs></svg>