<svg width="40" height="16" fill="none" xmlns="http://www.w3.org/2000/svg"><g clip-path="url(#clip0_5409_20880)" fill-rule="evenodd" clip-rule="evenodd"><path d="M2.564 0h26.872c.892 0 1.215.093 1.54.267.327.174.583.43.757.756.174.326.267.65.267 1.54v10.873c0 .892-.093 1.215-.267 1.54a1.81 1.81 0 01-.756.757c-.326.174-.65.267-1.54.267H2.563c-.892 0-1.215-.093-1.54-.267a1.817 1.817 0 01-.757-.756C.093 14.65 0 14.327 0 13.437V2.563c0-.892.093-1.215.267-1.54a1.81 1.81 0 01.756-.757C1.35.093 1.673 0 2.563 0z" fill="#E8E9EB"/><path d="M16 9v2h-2V9h2zm2-2v2h-2V7h2zm-2-2v2h-2V5h2z" fill="#8F96A3"/></g><defs><clipPath id="clip0_5409_20880"><path fill="#fff" d="M0 0h40v16H0z"/></clipPath></defs></svg>