<svg width="20" height="20" fill="none" xmlns="http://www.w3.org/2000/svg"><mask id="a" style="mask-type:alpha" maskUnits="userSpaceOnUse" x="0" y="0" width="20" height="20"><path fill="#D9D9D9" d="M0 0h20v20H0z"/></mask><g mask="url(#a)"><path d="M13.25 17v-2.25H11v-1.5h2.25V11h1.5v2.25H17v1.5h-2.25V17h-1.5zM3 16v-1.5h6.042c.027.264.07.52.125.77.055.25.139.494.25.73H3zm0-3.5V11h7.02a7.219 7.219 0 00-.447.719 4.07 4.07 0 00-.323.781H3zM3 9V7.5h14V9H3zm0-3.5V4h14v1.5H3z" fill="#111214"/></g></svg>