<svg viewBox="0 0 135 77" xmlns="http://www.w3.org/2000/svg" xmlns:xlink="http://www.w3.org/1999/xlink"><defs><path id="a" d="M0 0h199.623v123.297H0z"/><path id="c" d="M0 0h199.623v123.297H0z"/><path id="e" d="M0 0h199.623v123.297H0z"/><path id="g" d="M0 0h199.623v123.297H0z"/><path id="i" d="M0 0h199.623v123.297H0z"/><path id="k" d="M0 0h199.623v123.297H0z"/><path id="m" d="M0 0h199.623v123.297H0z"/><path id="o" d="M0 0h199.623v123.297H0z"/><path id="q" d="M0 0h199.623v123.297H0z"/><path id="s" d="M0 0h199.623v123.297H0z"/><path id="u" d="M0 0h199.623v123.297H0z"/><path id="w" d="M0 0h199.623v123.297H0z"/><path id="y" d="M0 0h199.623v123.297H0z"/><path id="A" d="M0 0h199.623v123.297H0z"/></defs><g fill="none" fill-rule="evenodd"><g transform="translate(-32.277 -23.25)"><mask id="b" fill="#fff"><use xlink:href="#a"/></mask><path d="M37.264 82.425c1.35 0 4.103-.12 5.676-.217a7.796 7.796 0 00-.072.871c0 .17.05.557.072.822-1.405-.194-3.724-.337-4.445-.337-.506 0-2.467.046-3.53.143v6.07h1.232c2.517 0 7.814.483 7.814 4.858 0 3.553-2.977 5.175-6.89 5.151-.44 0-2.08-.07-3.126-.07-.455 0-1.012.022-1.4.07.148-2.66.194-6.336.194-9.382 0-2.73-.02-6.866-.194-8.196 1.548.074 4.108.217 4.669.217zm-2.299 15.96c.629.022 1.375.048 2.054.048 2.855 0 4.516-1.333 4.516-3.82 0-2.685-1.977-3.555-6.57-3.555v7.326z" fill="#FFF" fill-rule="nonzero" mask="url(#b)"/></g><g transform="translate(-32.277 -23.25)"><mask id="d" fill="#fff"><use xlink:href="#c"/></mask><path d="M46.752 88.979c.944-1.16 2.682-1.666 4.137-1.666 2.538 0 4.301 1.255 4.301 4.276v5.997c0 1.233.266 1.522.772 1.522.173 0 .438-.048.582-.097l.143.582a4.297 4.297 0 01-1.813.46c-.797 0-1.303-.363-1.497-1.065l-.144-.53c-1.307 1.04-2.732 1.595-3.917 1.595-2.201 0-3.631-1.162-3.631-3.193 0-2.176 1.623-3.192 3.846-3.6l2.462-.46c.827-.146 1.266-.389 1.266-.992 0-2.635-1.114-3.312-2.952-3.312-1.425 0-2.493.411-3.264 1.984h-.291v-1.501zm6.507 4.569l-1.599.24c-1.741.268-3.677.871-3.677 2.712 0 1.4.776 2.15 2.345 2.15.97 0 1.936-.34 2.93-1.376v-3.726z" fill="#FFF" fill-rule="nonzero" mask="url(#d)"/></g><g transform="translate(-32.277 -23.25)"><mask id="f" fill="#fff"><use xlink:href="#e"/></mask><path d="M60.002 87.625c.265 0 .772-.048 1.134-.072-.194 1.834-.22 4.881-.22 5.003 1.017.049 2.489.098 3.269.098.797 0 2.32-.049 3.045-.098 0-.145-.026-3.19-.215-5.003.404.023.94.072 1.227.072.27 0 .776-.048 1.138-.072-.194 1.813-.22 4.858-.22 6.115 0 1.016.026 4.28.22 6.118a8.551 8.551 0 00-1.113-.071c-.409 0-.894.023-1.252.071.189-1.838.215-5.102.215-5.874-1.063-.076-2.514-.17-3.07-.17-.658 0-2.273.046-3.243.12 0 .821.025 4.086.22 5.924a8.599 8.599 0 00-1.114-.072c-.41 0-.894.024-1.257.072.19-1.838.215-5.102.215-6.119 0-1.233-.025-4.3-.215-6.114.41.024.945.072 1.236.072" fill="#FFF" mask="url(#f)"/></g><g transform="translate(-32.277 -23.25)"><mask id="h" fill="#fff"><use xlink:href="#g"/></mask><path d="M73.901 87.625c.261 0 .771-.048 1.13-.072-.19 1.813-.21 4.881-.21 5.32h.387c.797 0 4.884-4.645 5.272-5.32.337.023.89.072 1.18.072.245 0 .827-.048 1.185-.072l-5.777 5.174c.73.87 4.567 5.198 6.308 7.06a20.683 20.683 0 00-1.446-.072c-.439 0-1.092.023-1.598.071-.894-1.402-3.627-4.617-5.124-6.263h-.388c0 .895.021 4.425.211 6.263a8.445 8.445 0 00-1.11-.071c-.404 0-.889.023-1.256.071.198-1.838.224-5.102.224-6.118 0-1.234-.026-4.302-.224-6.115.413.024.945.072 1.236.072" fill="#FFF" mask="url(#h)"/></g><g transform="translate(-32.277 -23.25)"><mask id="j" fill="#fff"><use xlink:href="#i"/></mask><path d="M94.06 82.282c.843 0 1.935-.074 2.56-.074 4.474 0 6.216 1.356 6.216 4.4 0 3.943-3.315 5.2-7.25 5.2-.219 0-1.142-.049-1.602-.097v4.18c0 1.209.05 2.685.198 3.895a11.631 11.631 0 00-2.568 0c.148-2.66.198-6.336.198-9.383 0-2.73-.025-6.865-.198-8.195.801.023 1.89.074 2.446.074m.94 8.244c3.387 0 5.373-1.353 5.373-3.917 0-2.394-1.89-3.045-4.234-3.045-.409 0-1.813.023-2.155.072v6.79c.295.054.776.1 1.017.1" fill="#FFF" fill-rule="nonzero" mask="url(#j)"/></g><g transform="translate(-32.277 -23.25)"><mask id="l" fill="#fff"><use xlink:href="#k"/></mask><path d="M115.428 93.596c0 3.7-2.4 6.456-6.19 6.456-3.724 0-6.049-2.73-6.049-6.116 0-4.013 2.565-6.623 6.263-6.623 3.677 0 5.976 2.659 5.976 6.283m-9.94.266c0 2.733 1.14 5.246 3.699 5.246 2.466 0 3.942-2.37 3.942-5.609 0-2.61-1.016-5.246-3.749-5.246-2.61 0-3.892 2.733-3.892 5.609" fill="#FFF" fill-rule="nonzero" mask="url(#l)"/></g><g transform="translate(-32.277 -23.25)"><mask id="n" fill="#fff"><use xlink:href="#m"/></mask><path d="M127.278 90.187h-.291c-.849-1.377-2.028-1.934-3.362-1.934-2.83 0-4.183 2.733-4.183 5.392 0 3.07 1.691 5.463 4.69 5.463.995 0 1.889-.144 3.289-1.668l.219.266-.291 1.185c-1.164.776-2.463 1.162-3.964 1.162-3.774 0-6.241-2.636-6.241-6.36 0-3.892 2.66-6.38 6.553-6.38 1.261 0 2.635.24 4.183 1.063l-.602 1.81z" fill="#FFF" mask="url(#n)"/></g><g transform="translate(-32.277 -23.25)"><mask id="p" fill="#fff"><use xlink:href="#o"/></mask><path d="M139.481 90.187h-.286c-.844-1.377-2.028-1.934-3.357-1.934-2.834 0-4.188 2.733-4.188 5.392 0 3.07 1.7 5.463 4.694 5.463.987 0 1.885-.144 3.285-1.668l.215.266-.287 1.185c-1.16.776-2.467 1.162-3.964 1.162-3.77 0-6.236-2.636-6.236-6.36 0-3.892 2.66-6.38 6.552-6.38 1.257 0 2.636.24 4.184 1.063l-.612 1.81z" fill="#FFF" mask="url(#p)"/></g><g transform="translate(-32.277 -23.25)"><mask id="r" fill="#fff"><use xlink:href="#q"/></mask><path d="M143.066 99.715a9.71 9.71 0 00-.776.072c.194-1.839.219-5.103.219-6.119 0-1.234-.025-4.301-.22-6.115.414.023.941.073 1.232.073.266 0 .772-.05 1.139-.073-.194 1.814-.215 4.858-.215 6.115 0 1.016.021 2.441.047 3.118 1.328-1.617 6.068-7.637 7.206-9.233.262.047.43.073.722.073.143 0 .649-.05.923-.073-.199 1.814-.224 4.858-.224 6.115 0 1.016.025 4.28.224 6.119a8.703 8.703 0 00-1.114-.072c-.413 0-.893.023-1.26.072.194-1.839.22-5.103.22-6.119 0-1.257-.026-2.802-.048-3.312-1.649 1.67-6 7.375-7.375 9.43a3.153 3.153 0 00-.7-.07" fill="#FFF" mask="url(#r)"/></g><g transform="translate(-32.277 -23.25)"><mask id="t" fill="#fff"><use xlink:href="#s"/></mask><path d="M156.759 99.715c-.148 0-.583.046-.772.072.19-1.839.215-5.103.215-6.119 0-1.234-.026-4.301-.215-6.115.409.023.936.073 1.227.073.266 0 .776-.05 1.139-.073-.194 1.814-.215 4.858-.215 6.115 0 1.016.02 2.441.046 3.118 1.329-1.617 6.064-7.637 7.203-9.233.265.047.434.073.725.073.144 0 .654-.05.92-.073-.19 1.814-.215 4.858-.215 6.115 0 1.016.025 4.28.214 6.119a8.61 8.61 0 00-1.113-.072c-.409 0-.894.023-1.252.072.193-1.839.215-5.103.215-6.119a99.81 99.81 0 00-.047-3.312c-1.644 1.67-6 7.375-7.38 9.43a3.086 3.086 0 00-.695-.07" fill="#FFF" mask="url(#t)"/></g><g transform="translate(-32.277 -23.25)"><mask id="v" fill="#fff"><use xlink:href="#u"/></mask><path d="M99.81 23.485c-12.968 0-23.482 10.514-23.482 23.483 0 12.97 10.515 23.484 23.482 23.484 12.974 0 23.488-10.515 23.488-23.484 0-12.969-10.514-23.483-23.488-23.483m0 45.153c-11.968 0-21.666-9.702-21.666-21.67 0-11.969 9.698-21.67 21.666-21.67 11.97 0 21.673 9.701 21.673 21.67 0 11.968-9.702 21.67-21.673 21.67" fill="#FFF" fill-rule="nonzero" mask="url(#v)"/></g><g transform="translate(-32.277 -23.25)"><mask id="x" fill="#fff"><use xlink:href="#w"/></mask><path d="M93.108 31.996c0 .054.05.097.11.097.058 0 .108-.043.108-.097 0-.053-.05-.099-.108-.099-.06 0-.11.046-.11.1" fill="#FFF" mask="url(#x)"/></g><g transform="translate(-32.277 -23.25)"><mask id="z" fill="#fff"><use xlink:href="#y"/></mask><path d="M106.413 32.093c.059 0 .106-.043.106-.097 0-.053-.048-.099-.106-.099-.062 0-.11.046-.11.1 0 .053.048.096.11.096" fill="#FFF" mask="url(#z)"/></g><g transform="translate(-32.277 -23.25)"><mask id="B" fill="#fff"><use xlink:href="#A"/></mask><path d="M118.277 54.04c-.036-.734.02-1.786.01-2.602-.007-.716-.223-1.616-.424-1.942.136.117.365.18.533.18-.097-.203-.365-1.013-.268-2.27.14-1.746-.204-2.395-.256-2.542.157.056.278.076.45.093-.06-.295-.114-.563-.165-.833-.182-.906-.456-2.926-.948-3.54 0 0 .102.01.175.006-.026-.388-.356-1.823-.939-2.714-.191-.294-.604-.788-.975-.958.022-.043.046-.078.06-.117.085-.226.016-.382-.22-.453-.124-.036-.262-.039-.385-.08-.37-.12-.742-.24-1.1-.39-.64-.268-1.259-.583-1.96-.667-.925-.107-1.831-.06-2.617.522-1.072.8-1.598 2.151-.97 3.677.021.054.038.108.066.155.214.362.125.676-.155.956-.503.503-1.096.846-1.815.928-.44.051-.815-.145-1.115-.456-.678-.703-1.163-1.527-1.312-2.5-.09-.59-.138-.988-.106-1.584.024-.403.134-.865.218-.962 0 0 .154.265.341.358-.23-.753.007-1.17.007-1.17s.086.245.255.415c-.074-.615.323-1.157 1.085-1.355.207-.054.576-.1.785-.16 1.407-.405 1.625-.052 1.625-.052-.052-.166-.282-.48-.477-.558.498.172 1.219.632 2.283.46.881-.141 1.078-1.116.426-1.505 0 0 .326.548-.155.928-.252.199-.845.125-1.048.076-.401-.095-1.028-.475-1.028-.475.54-.252 1.08-.05 1.571.207.086-.414-.192-.986-.587-1.214-.429-.247-.776-.318-1.53-.402 0 0-.472-.498-1.322-.664-.282-.057-.803-.044-1.253.04-.714.136-1.028.288-1.698.458-.516.13-1.771.418-2.749-.231a2.02 2.02 0 001.295 1.057c-.261.078-.747.009-1.112-.179.164.233.477.576.965.734-.14.144-.62.175-.885.03.29.347.504.481.82.544-.94 1.048-1.542 2.39-1.86 4.855-.371-2.478-.917-3.807-1.857-4.855.315-.063.53-.197.82-.544-.266.145-.745.114-.887-.03.488-.158.8-.5.969-.734-.367.188-.855.257-1.111.18.931-.236 1.298-1.062 1.29-1.058-.973.65-2.231.36-2.747.231-.669-.17-.984-.322-1.698-.457-.45-.085-.97-.098-1.256-.041-.847.166-1.32.664-1.32.664-.755.084-1.102.155-1.53.402-.394.228-.673.8-.589 1.214.494-.257 1.034-.46 1.571-.207 0 0-.624.38-1.025.475-.203.05-.794.123-1.048-.076-.484-.38-.156-.928-.156-.928-.654.389-.457 1.364.425 1.504 1.066.173 1.787-.287 2.287-.46-.2.079-.427.393-.483.56 0 0 .22-.354 1.627.051.21.06.58.106.785.16.762.198 1.159.74 1.085 1.355.169-.17.257-.415.257-.415s.235.417.007 1.17c.187-.093.339-.358.339-.358.086.097.198.559.22.962.032.596-.016.995-.104 1.584-.151.973-.637 1.797-1.316 2.5-.298.311-.673.507-1.116.456-.714-.082-1.31-.425-1.812-.928-.283-.28-.37-.594-.155-.956.028-.047.045-.101.067-.155.628-1.526.103-2.876-.971-3.677-.786-.582-1.692-.63-2.62-.522-.699.084-1.32.4-1.959.667-.358.15-.729.27-1.098.39-.125.041-.261.044-.386.08-.235.071-.304.227-.22.453.015.04.04.074.06.117-.373.17-.78.664-.975.958-.585.89-.915 2.326-.94 2.714.075.004.174-.006.174-.006-.49.614-.764 2.634-.945 3.54-.056.27-.108.538-.166.833.173-.017.291-.037.453-.093-.052.147-.4.796-.263 2.542.101 1.257-.166 2.067-.265 2.27.172 0 .399-.063.534-.18-.202.326-.416 1.226-.424 1.942-.009.816.05 1.868.008 2.602-.058 1.114-.444 1.344-.695 1.523.309.08.71.026.993-.187.211-.158.332-.164.61-.17.465-.01.835-.225 1.176-.527a.87.87 0 01.47-.2c.503-.044.728-.238 1.069-.592a.515.515 0 01.235-.11c1.888-.438 1.894-2.41 1.928-3.012.28-.037.616-.354.769-.591.023-.043.08-.101.149-.08.768.237 1.275-1.055 1.441-1.504.138-.386.246-.835.289-1.245.028.347.658.952 1.228-.006 0 1.398 1.08 1.152 1.344.229.28 1.691 1.48.89 1.471-.376.009 1.927 1.18 1.648 1.127 1.066.066.278.375.615.375.615-2.762.498-1.972 1.935-3.185 2.656.423.147.803-.09.73.021a3.027 3.027 0 00-.494 1.306s-1.429 1.394-1.996 1.914c-.216.198-.453.375-.69.554-.07.052-.165.11-.26.155-.017-.073-.023-.14-.032-.177-.108-.46-.233-.915-.522-1.303-.393-.528-.971-.662-1.527-.31a1.2 1.2 0 01-.682.187c-.44.002-.816.412-.805.846.332-.225.714-.112.865.064-.701.139-1.07.777-.867 1.179a.542.542 0 01.207-.218c.296-.164.56-.067.626.097.146.364.45.473.794.514.612.07 1.21.11 1.838.19.865.112.84.696 1.005 1.102a.74.74 0 001.085.338c.076.235.007.499-.254.55.213.078.617-.062.753-.344.243-.512.138-.92-.294-1.289l-.11-.09a4.524 4.524 0 01-.408-.35c-.187-.18-.222-.397-.086-.617.13-.2.278-.4.458-.548.517-.44 1.055-.859 1.59-1.277.162-.127.34-.235.522-.337a.684.684 0 01.54-.058c.416.149.655-.039.755-.116.06-.046.634-.615 2.358-.853-.242.153-.348.393-.45.637-.085.21-.165.418-.254.628-.97 2.287-1.928 4.537-2.895 6.826-.317.755-.035 1.42.748 1.785.572.265 1.22.125 1.6-.428-.113.378-.163.706-.01 1.018.154.318.402.542.717.68.315.136.688.186 1.027.117.347-.071.576-.298.749-.634.032.749.496 1.19 1.139 1.277v.013c.05.004.101.007.153.007.015 0 .03-.003.048-.003.017 0 .034.003.05.003.05 0 .103-.003.152-.007v-.013c.643-.086 1.107-.528 1.138-1.277.174.336.403.563.748.634.34.069.712.02 1.025-.117a1.4 1.4 0 00.72-.68c.154-.312.103-.64-.01-1.018.384.553 1.03.693 1.6.428.784-.365 1.067-1.03.75-1.785-.97-2.289-1.927-4.54-2.896-6.826-.088-.21-.172-.419-.256-.628-.1-.244-.205-.484-.449-.637 1.724.238 2.298.807 2.358.853.102.077.341.265.755.116a.681.681 0 01.54.058c.18.102.36.21.522.337a47.8 47.8 0 011.592 1.277 2.3 2.3 0 01.455.548c.14.22.104.436-.084.617-.107.108-.228.205-.345.3-.023.015-.043.033-.062.05-.039.03-.076.06-.112.09-.43.37-.538.777-.294 1.289.134.282.542.422.751.345-.257-.052-.326-.316-.252-.55a.746.746 0 001.087-.339c.166-.406.138-.99 1.001-1.102.632-.08 1.232-.12 1.843-.19.34-.041.65-.15.794-.514.066-.164.327-.261.625-.097a.523.523 0 01.205.218c.205-.402-.166-1.04-.865-1.179.154-.176.533-.289.863-.064.01-.434-.365-.844-.803-.846-.25 0-.46-.047-.68-.187-.56-.352-1.136-.218-1.532.31-.286.388-.411.844-.524 1.303-.006.037-.01.104-.028.177a1.51 1.51 0 01-.258-.155c-.236-.18-.475-.356-.693-.554-.568-.52-1.996-1.914-1.996-1.914a3.027 3.027 0 00-.492-1.306c-.073-.112.307.126.73-.021-1.215-.721-.423-2.158-3.189-2.656 0 0 .31-.337.382-.615-.061.582 1.113.86 1.126-1.066-.013 1.267 1.186 2.067 1.467.376.265.923 1.346 1.169 1.344-.23.572.959 1.2.354 1.23.007.043.41.15.859.29 1.245.163.449.672 1.741 1.44 1.504.07-.021.123.037.151.08.153.237.49.554.765.591.036.602.04 2.574 1.928 3.012.08.02.18.052.238.11.34.354.565.548 1.066.591a.86.86 0 01.47.2c.343.303.711.519 1.18.527.274.007.397.013.607.17.283.214.684.268.992.188-.247-.179-.638-.41-.697-1.523zm-25.75-2.638s.127-.067.218-.234c.093-.168.205-.056.218.054.013.113-.17.223-.436.18zm-1.327 2.81a3.697 3.697 0 00-.388 1.144c-.06.393-.36.384-.529.326-.347-.12-.688-.114-.688-.114.951-.317 1.605-1.355 1.605-1.355zm-2.01.754c.016.08.066.35.062.511a5.017 5.017 0 00-.263-.541c-.007-.011-.007-.03.002-.052a.235.235 0 01.08-.104.238.238 0 01.058-.037l.06.223zm-.598.067c.062-.106.15-.153.192-.142.14.192.246.4.287.61-.162-.09-.339-.185-.527-.278a.288.288 0 01.048-.19zm-.158-.086a.548.548 0 00-.07.191c-.1-.047-.206-.092-.31-.137a.192.192 0 01-.019-.085.428.428 0 01.073-.23.51.51 0 01.184-.173c.045-.022.088-.028.12-.016.057.046.113.098.167.152l.021.023c.022.022.041.046.06.067a.47.47 0 00-.226.208zm.475-.626c.01-.005.021-.005.032-.005.052.097.102.197.14.296a.37.37 0 00-.099.06.336.336 0 00-.093.108 2.134 2.134 0 00-.19-.233c0-.01 0-.024.005-.039a.254.254 0 01.078-.12.255.255 0 01.127-.067zm-.343-.39c.026-.014.05-.018.065-.011.082.077.157.163.22.256a.47.47 0 00-.173.101.413.413 0 00-.104.148 1.934 1.934 0 00-.185-.14c-.011-.016-.015-.038-.013-.068a.34.34 0 01.19-.287zm-.617-.14c.047-.094.114-.143.162-.152.107.017.209.05.297.106.016.008.03.021.045.03a.564.564 0 00-.179.17.59.59 0 00-.084.216 2.52 2.52 0 00-.263-.142.101.101 0 01-.02-.054.347.347 0 01.042-.175zm.075.452a.162.162 0 01.035.015s.004.002.004.004c.05.026.1.054.147.087a.02.02 0 01.004.008.683.683 0 00-.261.24.605.605 0 00-.097.324 4.52 4.52 0 00-.291-.102.197.197 0 01-.024-.14.513.513 0 01.125-.261.53.53 0 01.235-.168.21.21 0 01.123-.007zm-.496.058a.705.705 0 00-.166.354.418.418 0 00-.005.101 3.587 3.587 0 00-.467-.096c.049-.413.383-.557.646-.55a.924.924 0 01.193.023.778.778 0 00-.201.168zm.296-.662a.495.495 0 00-.104.304 1.095 1.095 0 00-.434-.037c.1-.14.31-.24.538-.267zm-1.765.84c.073-.296.425-.61 1.143-.44-.382.098-.427.394-.455.54-.09-.114-.427-.228-.688-.1zm.498 1.022c-.22-.065-.43-.015-.565.12.013-.36.42-.687.802-.66-.209.087-.276.372-.237.54zm.177.103c-.09-.24.05-.69.453-.655a.89.89 0 01.142.03c-.148.125-.248.358-.248.632 0 .19.046.358.123.483-.237-.07-.377-.244-.47-.49zm.768.54c-.136-.062-.242-.28-.242-.533 0-.298.15-.55.324-.55a14 14 0 01.28.106c-.124.118-.207.327-.207.57 0 .17.041.32.104.44a10.439 10.439 0 00-.259-.033zm.863.104c-.119-.016-.237-.029-.343-.042-.097-.062-.183-.237-.183-.468 0-.267.114-.46.224-.487.136.054.267.112.386.164a.705.705 0 00-.162.479c0 .133.029.254.078.354zm.587.066a13.56 13.56 0 01-.347-.04c-.074-.013-.134-.2-.134-.38 0-.214.078-.4.166-.4.112.048.199.085.25.102.041.017.147.043.184.056-.13.069-.19.213-.19.362 0 .112.028.216.07.3zm.464.102a.343.343 0 01-.026-.686 1.682 1.682 0 011.156.276c-.537-.037-.815.246-.889.31a.35.35 0 01-.241.1zm.56.185a.573.573 0 00-.269-.132c.196-.233.298-.302.553-.351-.324.146-.283.483-.283.483zm.143-.03a.4.4 0 01.4-.4.4.4 0 01.396.4.397.397 0 01-.796 0zm.965.03c.037.035.075.071.116.106.147.12.309.227.43.37.301.366.282.756.183.987-.11.263-.3.328-.3.328s.188-.225-.024-.634a.61.61 0 01-.464.216.62.62 0 01-.597-.462l-.095-.328a1.646 1.646 0 00-.032-.112.568.568 0 00.487-.024.59.59 0 00.296-.447zm.463-1.713c-.034.082-.112.24-.26.378-.134.123-.251.25-.372.433 0 0 .096-1.344.962-2.14 0 0-.19.358-.25.882-.021.164-.034.34-.08.447zm.803-.975a.853.853 0 01-.065.38c-.073.164-.267.34-.267.34l-.384.363s.093-.143.125-.54c.03-.405.25-.985.64-1.408 0 0-.118.191-.049.865zm.71-.354a.63.63 0 01-.19.373c-.224.184-.438.376-.438.376s.123-.184.071-.516c-.084-.548.056-1.392.499-2.075 0 0-.22.6.002 1.354.039.132.071.35.056.488zm16.236 3.625c-.013.05-.087.297-.095.328a.618.618 0 01-.596.462.62.62 0 01-.468-.216c-.21.41-.021.634-.021.634s-.188-.065-.302-.328c-.097-.23-.117-.621.185-.986.121-.144.283-.25.428-.371a2.51 2.51 0 00.118-.106.58.58 0 00.294.447.574.574 0 00.487.024c-.01.036-.022.073-.03.112zm-.19-.216a.399.399 0 010-.796.397.397 0 110 .796zm.543-.367s.044-.337-.28-.483c.255.05.354.118.55.351 0 0-.166.03-.27.132zm1.375-.328c-.12.016-.238.03-.35.041a.637.637 0 00.072-.3c0-.149-.06-.293-.188-.362.037-.013.143-.039.183-.056.052-.017.139-.054.246-.102.093 0 .171.186.171.4 0 .18-.06.367-.134.38zm.013-1.24a.316.316 0 01.047.19c-.187.093-.364.187-.526.278.041-.21.147-.418.285-.61.04-.011.131.036.194.142zm-.071-.294c.02-.021.04-.045.062-.067l.022-.023c.051-.054.107-.106.166-.152.03-.012.075-.006.123.016a.487.487 0 01.179.172c.05.076.075.16.073.231a.164.164 0 01-.02.085c-.103.045-.207.09-.31.137a.505.505 0 00-.067-.191.49.49 0 00-.228-.208zm.642 1.467c-.112.013-.226.026-.345.042.048-.1.078-.22.078-.354a.705.705 0 00-.164-.48c.12-.051.252-.11.386-.163.112.028.227.22.227.487 0 .231-.085.406-.182.468zm.516-.062l-.259.032a.918.918 0 00.106-.438c0-.244-.082-.453-.205-.571.097-.04.19-.074.276-.106.177 0 .324.252.324.55 0 .252-.106.47-.242.533zM112.1 54.3a.77.77 0 00-.2-.168.998.998 0 01.19-.024c.263-.006.598.138.65.55-.152.02-.31.055-.471.097a.387.387 0 00-.004-.1.701.701 0 00-.165-.355zm.792 1.303c-.09.246-.233.42-.468.49a.938.938 0 00.123-.483c0-.274-.1-.507-.248-.632a.961.961 0 01.14-.03c.404-.035.544.416.453.655zm.745.018a.556.556 0 00-.564-.121c.035-.168-.032-.453-.241-.54.384-.027.792.3.805.66zm-.065-1.144c-.263-.127-.602-.013-.69.101-.029-.146-.074-.442-.456-.54.721-.17 1.068.144 1.146.44zm-1.23-.572a1.098 1.098 0 00-.434.037.534.534 0 00-.101-.304c.224.028.434.127.535.267zm-.38.512a.51.51 0 01.124.26c.006.038.008.098-.024.14a5.936 5.936 0 00-.29.103.587.587 0 00-.099-.324.64.64 0 00-.26-.24l.004-.008c.049-.033.1-.061.149-.087.002-.002.002-.004.004-.004a.195.195 0 01.033-.015.217.217 0 01.124.007.528.528 0 01.235.168zm-.742-.673a.789.789 0 01.298-.106c.047.009.114.058.161.15a.32.32 0 01.04.176.13.13 0 01-.016.054 2.378 2.378 0 00-.266.142.552.552 0 00-.263-.386c.016-.009.031-.022.046-.03zm-.224.175c.018-.007.04-.003.067.01a.32.32 0 01.131.119.349.349 0 01.06.168.12.12 0 01-.016.067c-.065.043-.128.09-.182.14a.43.43 0 00-.108-.147.447.447 0 00-.17-.1c.063-.094.134-.18.218-.257zm-.307.396c.009 0 .02 0 .03.005a.23.23 0 01.125.066.246.246 0 01.085.161 1.94 1.94 0 00-.188.232.408.408 0 00-.097-.108.4.4 0 00-.097-.06c.041-.1.086-.199.142-.296zm-.247.65a1.78 1.78 0 01.06-.223c.017.011.037.02.056.037.039.03.066.067.08.104.008.021.008.04.002.052-.103.179-.186.36-.266.541a2.584 2.584 0 01.068-.511zm-.203.764a.343.343 0 01-.026.686.36.36 0 01-.244-.1c-.071-.064-.35-.347-.889-.31.49-.333.988-.3 1.159-.276zm-.203-.162s-.345-.007-.688.114c-.171.058-.473.067-.534-.326a3.524 3.524 0 00-.388-1.143s.654 1.038 1.61 1.355zm-1.325.131a2.198 2.198 0 00-.367-.433 1.127 1.127 0 01-.263-.378c-.047-.108-.06-.283-.08-.447-.062-.524-.25-.882-.25-.882.865.796.96 2.14.96 2.14zm-.841-1.242c.034.396.127.539.127.539l-.386-.363s-.195-.176-.268-.34a.827.827 0 01-.062-.38c.07-.674-.052-.865-.052-.865.39.423.608 1.003.64 1.409zm-.989-3.289c.097.167.22.234.22.234-.27.043-.446-.067-.435-.18.012-.11.122-.222.215-.054zm-.259 1.903c.225-.755.002-1.354.002-1.354.447.683.583 1.527.499 2.075-.052.332.073.516.073.516s-.218-.192-.437-.376a.63.63 0 01-.19-.373 1.55 1.55 0 01.053-.488zm11.348-6.27c-.051.971-.101 1.76.17 2.486 0 0-1.329-.74-1.499-3.528-.024-.392.035-1.402.356-1.424.123-.008.186.123.192.445l.147 2.004c.007.087.039.134.095.132v-.002c.056-.002.073-.06.077-.128l-.028-1.581c.002-.31.078-.365.186-.302.272.162.328 1.437.304 1.898zm-8.829-3.223l-.112-.481c-.056-.214-.009-.272.089-.257.245.032.468.47.522.626.149.434.05.969-.16 1.264-.338-.073-.727-.41-.878-.846-.053-.155-.15-.64.013-.841.065-.078.136-.071.223.132l.209.442c.02.04.038.103.082.086.047-.02.02-.08.012-.125zm.546-.414c-.077-.184-.241-.773-.066-1.03.07-.1.155-.097.28.143l.371.71c.03.047.058.123.11.097.052-.026.017-.097 0-.153l-.263-.764c-.089-.254-.037-.33.077-.321.298.023.604.54.684.724.223.52.16 1.196-.06 1.576-.408-.065-.91-.46-1.133-.982zm1.83-.86l-.842-2.37c-.086-.276-.047-.339.05-.309.25.082.725 1.165.87 1.547.325.865.515 2.087.35 2.423-.344-.144-.985-1.167-1.32-2.058-.126-.339-.487-1.474-.353-1.698.054-.089.125-.067.242.198l.912 2.303c.028.051.054.136.095.118.043-.015.01-.095-.004-.153zm1.227-.741l-1.057-2.147c-.114-.254-.075-.324.03-.308.268.038.762.848.946 1.201.414.799.798 2.188.653 2.542-.375-.086-1.21-1.209-1.637-2.03-.161-.315-.572-1.21-.45-1.452.047-.095.125-.087.269.157l1.159 2.082c.032.052.066.128.11.104.042-.022.003-.093-.023-.15zm1.243-.792l-1.098-1.995c-.123-.253-.08-.328.037-.328.302.006.82.727 1.018 1.072.455.777.79 2.007.697 2.533v.002c-.529-.155-1.35-1.07-1.816-1.87-.177-.305-.596-1.155-.453-1.424.056-.104.142-.104.297.13l1.214 1.939c.037.05.063.1.113.07.05-.027.015-.075-.009-.129zm1.202-.874l-.977-1.926c-.119-.266-.071-.341.052-.335.312.02.834.799 1.028 1.16.436.82.656 1.936.538 2.476-.542-.184-1.282-.997-1.73-1.843-.169-.321-.546-1.182-.389-1.452.062-.106.156-.104.306.144l1.062 1.837c.035.05.062.103.114.075.052-.028.018-.077-.004-.136zm.593 3.58l-.368-1.448c-.053-.229.02-.3.142-.278.309.054.615.763.712 1.096.216.748.229 1.935-.074 2.248-.42-.104-1.072-1.081-1.294-1.854-.087-.293-.164-.942.07-1.154.087-.082.18-.069.266.16l.421 1.266c.024.048.037.119.1.1.058-.015.032-.085.025-.136zm-4.697.793c.08-.073.16-.062.238.134l.373 1.08c.021.04.034.1.086.083.054-.013.033-.073.029-.116l-.298-1.18c-.043-.203.02-.255.125-.238.274.041.57.747.652 1.032.187.638.194 1.655-.074 1.929-.373-.085-.945-.915-1.137-1.571-.076-.253-.201-.969.006-1.153zm1.239.365c-.095-.252-.19-.787.002-.988.076-.075.158-.071.248.123l.458 1.122c.021.039.04.1.092.08.05-.02.026-.076.018-.119l-.397-1.217c-.056-.205.002-.26.11-.25.276.026.55.529.654.811.235.637.314 1.67.067 1.964-.379-.063-1.013-.87-1.252-1.526zm1.216-.705c-.1-.274-.174-.762.033-.98.08-.084.166-.078.267.134l.473 1.163c.024.045.043.11.1.088.053-.02.03-.084.017-.13l-.406-1.287c-.062-.225 0-.287.115-.274.3.03.565.507.68.816.254.696.347 1.823.083 2.142-.408-.07-1.096-.954-1.362-1.672zm.412 2.093c.087-.085.17-.057.249.23l.38 1.483c.019.058.034.144.09.131.054-.01.032-.095.026-.157l-.261-1.508c-.044-.292.021-.354.133-.313.287.11.587 1.148.676 1.558.198.925.142 2.13-.138 2.46-.393-.189-.93-1.235-1.135-2.189-.078-.362-.235-1.48-.02-1.695zm1.386 1.236c-.067-.371-.197-1.506.023-1.72.085-.082.169-.047.24.242l.337 1.514c.017.061.03.15.084.139.056-.009.036-.095.03-.158l-.218-1.538c-.036-.298.03-.356.139-.309.282.121.55 1.18.627 1.599.173.945.086 2.16-.198 2.483-.38-.2-.887-1.281-1.064-2.252zm2.321-4.846c.143.867.266 1.618.447 2.229 0 0-1.29-.33-1.721-2.205-.078-.34-.167-1.159.077-1.373.093-.084.196-.002.246.28l.313 1.326c.015.075.06.112.116.097.06-.013.071-.067.065-.125l-.276-1.657c-.041-.274.032-.335.15-.298.312.093.519 1.32.583 1.726zm-2.133-5.31c.272.005.908.978 1.072 1.308.267.53.435 1.11.593 1.875 0 0-.97-.214-1.702-1.463-.162-.283-.745-1.344-.615-1.592.05-.098.13-.1.272.118l1.109 1.709c.03.045.056.093.097.065.048-.026.015-.071-.007-.121l-.854-1.6c-.112-.23-.073-.301.035-.299zm-10.096 4.579c-.045-.169.022-.242.192-.212.1.017.194.06.292.075.168.027.34.068.503.046.766-.106 1.404-.466 1.937-1.014.315-.324.415-.682.175-1.096-.03-.054-.052-.115-.078-.173-.498-1.216-.25-2.42.663-3.27.65-.603 1.434-.739 2.28-.723.736.015 1.398.271 2.06.563.523.23 1.039.483 1.615.565.112.017.293.03.29.183 0 .181-.247.227-.478.227-.35.002-.943-.056-1.37-.19.105.156.274.542.28.634.024.268-.08.425-.347.45-.259.02-.548-.178-.766-.307-.192-.115-.522-.309-.598-.397.186.25.366.5.462.792.043.136.02.276-.052.351-.073.076-.245.121-.369.097-.352-.07-.772-.435-1.102-.776.16.259.324.507.405.77.055.186.065.378-.05.505-.134.142-.338.15-.502.099-.353-.112-.927-.686-.927-.686.1.101.388.533.511.813.153.345-.106.652-.476.596a1.576 1.576 0 01-.553-.186c.045.087.414.695.518.924.092.207.166.438.179.664.026.378-.177.488-.516.313-.103-.054-.2-.114-.31-.177.027.27.075.512.068.751-.01.343-.185.462-.518.375-.166-.045-.323-.114-.491-.172.004.116.015.222.013.328-.003.36-.214.52-.56.403-.174-.06-.33-.168-.504-.257l-.034.208c-.074.427-.371.582-.76.384-.054-.029-.326-.223-.41-.28-.05.125-.296.424-.755.489.222-.55.217-1.172.083-1.69zm2.555 2.412l-.054-.522c-.028-.22.028-.273.123-.242.237.065.4.526.432.688.09.451-.08.954-.328 1.22-.324-.121-.663-.49-.755-.941-.033-.162-.065-.656.125-.835.075-.067.142-.05.203.161l.157.494c.015.046.024.11.071.097.045-.01.03-.075.026-.12zm-3.595-2.965l.21.663c.019.06.038.15.086.131.05-.015.028-.103.017-.168l-.17-.88c-.09-.412-.045-.453.028-.466.278-.052.58 1.102.632 1.325.149.621.108 1.348-.134 1.713-.366-.164-.804-.767-.954-1.39-.056-.222-.144-.906.046-1.15.073-.095.153-.071.24.222zm-.403-1.592c.12.455.026 1.025-.181 1.288a1.325 1.325 0 01-.764-.891c-.043-.162-.056-.535.123-.662.073-.052.13-.048.2.166l.136.412c.017.045.032.11.074.099.043-.01.023-.076.015-.123l-.151-.749c-.046-.222.002-.271.09-.243.227.07.415.541.458.703zm-7.696 3.141c.054.013.067-.075.082-.133l.22-.973c.063-.29.146-.318.237-.23.229.225.207.894.173 1.112-.095.615-.505 1.228-.887 1.409-.298-.339-.496-1.092-.406-1.707.037-.215.273-1.076.555-1.184.108-.041.177.021.151.32l-.162 1.224c-.004.063-.021.15.037.162zm.067-6.707l-.145-.663c-.047-.213.004-.254.087-.233.228.058.396.559.431.72.071.35.089.706-.117 1.054-.222-.084-.545-.25-.7-.698-.055-.155-.137-.537.036-.655.071-.05.125-.045.2.16l.12.336c.019.043.034.106.075.095.04-.01.02-.073.013-.116zm1.018-.428l-.162-.677c-.054-.218-.008-.27.078-.246.227.064.431.524.481.684.143.453.074 1.022-.116 1.295-.31-.115-.69-.549-.831-.997-.052-.162-.143-.656.007-.84.058-.067.123-.052.207.16l.25.647c.017.043.034.11.075.097.041-.013.02-.077.011-.123zm.621 2.389l-.099-.8c-.032-.257.028-.311.125-.273.257.104.432.659.469.848.105.537-.052 1.185-.309 1.47-.345-.169-.73-.714-.833-1.25-.037-.19-.077-.772.12-.96.079-.073.154-.045.219.205l.205.78c.015.051.026.129.075.118.052-.009.033-.082.028-.138zm3.662.138c.05.01.062-.067.078-.119l.202-.779c.069-.25.14-.278.218-.205.196.188.158.77.12.96-.1.536-.487 1.081-.832 1.25-.257-.285-.412-.933-.309-1.47.039-.19.216-.744.468-.848.1-.038.155.016.126.272l-.097.8c-.006.057-.022.13.026.139zm.604-2.404c.041.013.06-.054.077-.097l.253-.647c.08-.212.146-.227.205-.16.149.184.056.678.007.84-.14.448-.523.882-.831.997-.192-.273-.257-.842-.119-1.295.05-.16.257-.62.483-.684.09-.024.132.028.078.246l-.161.677c-.01.046-.033.11.008.123zm1.02.421c.041.01.06-.052.076-.095l.121-.337c.075-.204.13-.209.2-.16.171.12.09.501.04.656-.158.447-.482.613-.706.698-.203-.348-.188-.704-.115-1.053.03-.162.203-.663.432-.72.084-.022.134.019.086.232l-.144.663c-.01.043-.028.105.01.116zm-1.523 6.9l-.066-1.294c-.013-.316.066-.38.19-.333.314.123.48.803.508 1.033.074.654-.198 1.444-.558 1.794-.423-.208-.857-.87-.93-1.524-.026-.233-.014-.943.26-1.174.106-.088.2-.056.257.255l.203 1.269c.013.064.02.157.084.144.063-.01.052-.103.052-.17zm-.192-2.83c-.03-.197-.05-.79.182-.98.09-.074.17-.046.233.213l.204.894c.016.051.024.131.082.122.054-.008.039-.086.035-.144l-.085-.91c-.021-.266.046-.318.156-.28.278.111.449.678.481.875.09.548-.117 1.208-.416 1.495-.378-.177-.783-.738-.872-1.286zm.926-2.31c-.015-.146.004-.59.194-.726.074-.05.136-.024.17.17l.11.606c.01.041.013.101.054.097.044-.006.035-.065.037-.106l-.01-.614c-.007-.201.051-.238.13-.201.216.093.322.526.335.673.041.416-.155.9-.407 1.105-.285-.151-.572-.59-.613-1.003zm-1.096 2.488c0 .492-.285 1.04-.607 1.25h-.002a1.349 1.349 0 01-.604-1.103c0-.173.102-.555.343-.634.102-.03.167-.013.184.222l.023.479c.007.05.005.12.054.12h.002c.052 0 .05-.07.056-.12l.056-.824c.018-.236.087-.272.18-.218.241.131.315.653.315.828zm-.495 5.267c.012.067.014.16.085.153.07-.004.058-.095.063-.162v-1.167c0-.315.09-.37.217-.311.335.155.48.841.496 1.075.048.656-.284 1.41-.688 1.72-.444-.249-.878-.95-.923-1.606-.015-.233.03-.934.339-1.135.118-.075.215-.034.258.278l.153 1.155zm-.642.908c.394.192.516.947.516 1.202 0 .712-.473 1.506-1 1.81-.524-.304-.994-1.098-.994-1.81 0-.255.116-1.01.514-1.202.153-.077.269-.023.297.317l.095 1.327c.009.073.005.175.088.175.087 0 .083-.102.093-.175l.093-1.327c.03-.34.147-.394.298-.317zm-.784-1.206c-.045.656-.478 1.357-.923 1.605-.405-.308-.736-1.063-.688-1.72.015-.233.16-.919.494-1.074.13-.06.22-.004.22.311v1.167c.004.067-.004.158.063.162.069.006.07-.086.086-.153l.149-1.155c.045-.312.142-.353.26-.278.307.2.357.902.34 1.135zm-2.114-4.898c.054.009.065-.07.08-.122l.205-.894c.06-.259.14-.287.23-.213.232.19.214.783.184.98-.09.547-.494 1.108-.874 1.285-.3-.287-.505-.947-.418-1.495.034-.197.207-.764.485-.874.11-.039.177.013.151.278l-.082.91c-.002.06-.017.137.04.145zm-.125 1.988c.026-.23.194-.91.51-1.034.118-.047.202.018.19.333l-.068 1.294c0 .067-.013.16.05.17.065.014.071-.08.088-.144l.203-1.268c.056-.311.147-.343.253-.255.278.23.289.94.26 1.174-.073.653-.504 1.316-.93 1.523-.36-.35-.627-1.14-.556-1.793zm1.599-.81c-.32-.209-.604-.757-.604-1.249 0-.175.071-.697.313-.828.092-.054.164-.018.179.218l.058.824c.004.05.002.12.054.12s.05-.07.056-.12l.028-.48c.017-.234.078-.252.179-.221.244.08.343.461.343.634 0 .494-.287.893-.606 1.102zm-2.723-3.838c.015-.147.119-.58.332-.673.084-.037.143 0 .136.2l-.01.615c0 .041-.012.1.034.106.045.004.05-.056.058-.097l.106-.606c.034-.194.097-.22.173-.17.191.135.207.58.194.727-.044.414-.328.852-.615 1.003-.253-.205-.449-.689-.408-1.105zm-.065 7.185c.024-.233.197-.91.524-1.034.128-.045.214.02.199.335l-.037.96c.002.067-.012.16.054.17.067.013.074-.08.089-.144l.183-.937c.056-.308.153-.34.263-.25.29.233.307.943.279 1.176a1.66 1.66 0 01-.93 1.329c-.378-.35-.7-.95-.624-1.605zm1.14 1.572c.135-.064.254-.019.28.314l.075 1.117c.011.07.007.168.089.168.082 0 .077-.099.086-.168l.101-.84c.027-.333.137-.383.283-.31.376.188.414.764.414 1.01 0 .697-.37 1.353-.869 1.65-.503-.297-.95-1.07-.95-1.764 0-.249.11-.993.49-1.177zm1.033 5.872l-.32-.682c-.105-.223-.06-.294.05-.294.285-.002.561.335.654.492.252.447.291 1.116.112 1.472a1.411 1.411 0 01-1.115-.69c-.091-.16-.326-.73-.18-.972.057-.097.141-.099.276.106l.424.626c.03.04.064.105.11.077.047-.025.01-.088-.011-.135zm-.196-2.147c-.029-.188-.037-.835.224-1.02.099-.072.188-.046.246.204l.181.773c.013.051.024.127.082.118.063-.01.048-.084.048-.138l-.05-.79c-.015-.258.058-.308.175-.27.304.102.483.723.509.911.08.533-.192 1.019-.53 1.299-.409-.17-.806-.557-.885-1.087zm1.406 1.01c.115-.057.2-.016.225.241l.067.79c.01.056.006.131.07.131.066 0 .063-.075.07-.131l.069-.79c.021-.257.11-.298.224-.242.298.147.39.79.39.98 0 .54-.355 1.428-.752 1.655-.397-.227-.753-1.116-.753-1.655 0-.19.09-.833.39-.98zm.755-1.222c.028-.188.207-.809.509-.91.119-.04.194.01.175.27l-.047.79c-.003.053-.018.126.045.137.062.009.069-.067.086-.118l.18-.773c.057-.25.144-.276.247-.205.257.186.25.833.22 1.02-.075.531-.476.918-.882 1.088-.34-.28-.61-.766-.533-1.299zm.838 1.875c.09-.157.369-.494.654-.492.107 0 .153.071.049.294l-.321.682c-.02.047-.059.11-.011.135.047.028.08-.036.11-.077l.422-.626c.136-.205.218-.203.279-.106.146.242-.09.811-.177.971-.255.445-.72.663-1.118.69-.18-.355-.142-1.024.113-1.471zm.088-4.097c0-.246.038-.822.414-1.01.147-.073.255-.023.285.31l.099.84c.009.07.005.168.089.168.08 0 .075-.099.084-.168l.075-1.117c.028-.333.145-.378.284-.314.379.184.487.928.487 1.177 0 .695-.447 1.467-.945 1.764-.499-.297-.872-.953-.872-1.65zm.915-2.587c-.028-.233-.013-.943.276-1.176.112-.09.21-.058.263.25l.184.937c.017.065.023.157.09.144.067-.01.054-.103.054-.17l-.039-.96c-.013-.315.072-.38.199-.335.33.123.5.8.528 1.034.074.656-.247 1.255-.625 1.605a1.664 1.664 0 01-.93-1.329zm1.484-1.344c-.381-.181-.791-.794-.887-1.409-.03-.218-.056-.887.177-1.111.087-.089.173-.06.233.229l.223.973c.015.058.026.146.082.133.056-.013.038-.099.036-.162l-.164-1.225c-.024-.298.046-.36.156-.32.28.109.515.97.55 1.185.095.615-.104 1.368-.406 1.707zm.523-8.333a.886.886 0 01-.417-.66c-.017-.11.01-.358.138-.425.058-.028.09-.02.12.13l.042.239c.008.03.013.074.043.071.026-.004.02-.05.02-.082l-.024-.46c-.007-.15.026-.178.084-.152.145.069.225.394.235.506.04.311-.08.68-.241.833zm.526-.815c-.339-.527-.34-.973-.34-.973s-.52.65-1.533.638c.052-.975.708-1.426.708-1.426s-.67-.06-.999-.438c.296-.073.557-.207.708-.282.054-.028.097-.065.164-.041.062.021.092.157.023.179-.04.013-.114.026-.114.026a.12.12 0 00-.093.14.12.12 0 00.143.09l.045-.01s.052-.009.095.013a.221.221 0 01.073.088c.074.136.15.261.24.367.021.03.032.054.03.103 0 .058-.058.12-.058.12l-.445.487c-.04.039-.027.067-.02.08.012.006.042.03.09-.007l.547-.397s.054-.048.123-.045a.185.185 0 01.123.043c.11.082.223.147.333.203.056.026.101.043.118.095.015.045-.01.103-.01.103l-.028.056a.116.116 0 00.056.158c.06.03.13.004.157-.054l.034-.073s.022-.076.093-.097c.065-.02.104-.007.164.004.218.043.388.047.462.052-.112.021-.768.2-.89.798zm.44-1.098c-1.122-.182-1.484-1.286-1.55-1.51.436.564 1.006.336 1.222.213.4-.229.65-.537.915-.265.118.125.228.31.505.369.287.062.468-.013.615-.145.146-.13.295-.346.506-.218.24.149.018.617-.455 1.063-.543.512-1.228.577-1.758.493zm1.08-1.597c0-.14.126-.255.282-.255.153 0 .278.115.278.255 0 .142-.125.257-.278.257-.156 0-.281-.115-.281-.257zm1.749 1.698s-.35-.101-.976.093c-.625.192-.919.07-.919.07.428-.049.76-.206 1.003-.282.682-.204.892.119.892.119zm.858-.384c.434.2 1.081.35 1.573.119.41-.19.352-.654.352-.654.108.338-.085.75-.52.874-.796.226-1.596-.16-1.976-.35-.42-.207-.7-.076-.7-.076s.096-.105.327-.185c.297-.106.446.043.944.272zm-.89-1.642c.055.043.044.196.14.194.058-.002.055-.078.137-.11.156-.064 1.37.072 1.491 1.044 0 0-.393-.27-1.128-.176-.718.086-1.564.645-1.564.645s.673-.516.644-1.252c-.01-.315.182-.422.28-.345zm-6.568-.151s.83.384 2.461-.104c1.63-.487 2.102-.565 2.775-.392.783.2 1.006.608.89.778-.115.162-.398.078-.702-.047-.211-.084-.479-.198-.714-.213-.332-.026-.555.015-1.047.392-.474.37-1.01.483-1.36-.051-.002 0-1.576.353-2.303-.363zm.084.725s.367.084.757-.054c.172-.075.242.004.233.071-.013.115-.563.248-.99-.017zm0 .673s.297.052.602-.084c.125-.065.22-.01.209.06-.013.104-.427.242-.811.024zm.627.321c.098-.123.428-.45.65-.403.078.017.105.073-.028.237l-.373.475c-.026.037-.07.082-.04.108.033.026.072-.021.106-.052l.35-.343c.127-.13.2-.127.242-.054.099.177-.24.574-.35.686a1.07 1.07 0 01-.902.304c-.03-.386.136-.683.345-.958zm-1.148 1.82c.074-.151.223-.523.439-.52.09 0 .133.034.069.25l-.11.35c-.011.045-.037.105.004.12.044.017.063-.045.084-.088l.29-.633c.097-.205.161-.209.217-.142.156.181-.032.689-.088.848-.164.475-.548.943-.971 1.236-.134-.2-.134-.999.066-1.422zm-.638 2.192c.028-.128.162-.494.356-.553.078-.023.12.015.1.188l-.072.535c-.004.034-.02.086.02.095.036.006.045-.043.058-.078l.153-.515c.05-.169.108-.186.166-.134.156.136.124.526.097.654-.077.355-.368.71-.632.81-.2-.202-.324-.644-.246-1.002zm-.064 1.769c.047-.192.185-.417.312-.49.38-.216.686.246.457.557-.243.334-.683.289-.856.867 0-.317.028-.703.087-.934zm-.357 4.047c.009.076.007.182.08.182.077 0 .071-.106.082-.182l.082-1.354c.026-.361.127-.417.26-.337.348.202.456.999.456 1.266 0 .751-.416 1.584-.88 1.905-.462-.321-.876-1.154-.876-1.905 0-.267.103-1.064.453-1.266.134-.08.237-.024.261.337l.082 1.354zm-.092-3.113c-.17-.578-.61-.533-.855-.867-.233-.311.076-.773.458-.557.125.073.26.298.312.49.057.23.085.617.085.934zm-.549-2.533l-.07-.535c-.027-.173.019-.211.097-.188.194.059.327.425.353.553.08.358-.043.8-.241 1.003-.268-.102-.561-.456-.637-.811-.028-.128-.056-.518.097-.654.06-.052.117-.035.166.134l.156.515c.01.035.02.084.058.078h.002c.035-.009.024-.06.02-.095zm-.653-2.283l-.11-.35c-.067-.215-.024-.25.066-.25.218-.002.367.37.44.52.2.423.2 1.222.065 1.422-.422-.293-.804-.761-.97-1.236-.054-.16-.242-.667-.087-.848.054-.067.123-.063.216.142l.291.633c.022.043.043.105.085.088.04-.015.015-.075.004-.12zm-.406-.94c-.23.021-.578.012-.902-.305-.112-.112-.449-.509-.351-.686.04-.073.114-.075.24.054l.355.343c.03.03.071.078.104.052.03-.026-.013-.071-.039-.108l-.375-.475c-.132-.164-.106-.22-.024-.237.22-.047.552.28.647.403.21.275.375.572.345.958zm.28-1.28c-.384.218-.795.08-.808-.024-.011-.07.081-.125.207-.06.308.136.602.084.602.084zm.003-.673c-.427.265-.98.132-.993.017-.006-.067.063-.146.236-.071.39.138.757.054.757.054zm-5.155-1.221c.676-.173 1.146-.095 2.777.392 1.631.488 2.46.104 2.46.104-.725.716-2.3.363-2.3.363-.352.534-.887.42-1.364.051-.492-.377-.71-.418-1.044-.392-.235.015-.503.13-.712.213-.307.125-.593.21-.703.047-.119-.17.106-.578.886-.778zm.387.975c0 .142-.126.257-.279.257-.153 0-.28-.115-.28-.257 0-.14.127-.255.28-.255.153 0 .279.115.279.255zm-2.354.624c-.74-.093-1.133.176-1.133.176.121-.972 1.336-1.108 1.495-1.044.078.032.078.108.136.11.093.002.084-.15.14-.194.095-.077.29.03.279.345-.028.736.643 1.252.643 1.252s-.844-.56-1.56-.645zm.319.68c-.38.189-1.18.575-1.979.349-.435-.123-.625-.536-.52-.874 0 0-.056.464.354.654.492.23 1.14.082 1.573-.12.499-.228.645-.377.945-.27.231.079.326.184.326.184s-.283-.13-.7.076zm1.262.487c-.625-.194-.975-.093-.975-.093s.21-.323.89-.119c.243.076.575.233 1.004.283 0 0-.297.121-.919-.071zm.093-.687c-.473-.446-.695-.914-.451-1.063.207-.128.358.088.505.218.149.132.328.207.612.145.28-.059.387-.244.508-.37.26-.271.513.037.913.266.217.123.787.351 1.223-.214-.065.225-.427 1.33-1.55 1.51-.53.085-1.216.02-1.76-.492zm2.2 1.59c-.118-.597-.776-.776-.888-.797.073-.005.241-.01.46-.052.062-.011.103-.024.165-.004.072.02.095.097.095.097l.033.073a.114.114 0 00.155.054.117.117 0 00.058-.158l-.025-.056s-.03-.058-.016-.103c.018-.052.065-.07.119-.095.112-.056.222-.121.334-.203a.191.191 0 01.126-.043.2.2 0 01.123.045l.545.397c.048.037.08.013.085.006.012-.012.028-.04-.018-.08l-.442-.487s-.058-.06-.06-.119a.128.128 0 01.034-.103c.087-.106.164-.231.235-.367a.187.187 0 01.078-.088c.041-.022.093-.013.093-.013l.045.01a.117.117 0 00.14-.09.116.116 0 00-.088-.14s-.078-.013-.115-.026c-.07-.022-.04-.158.022-.18.065-.023.108.014.166.042.147.075.41.21.704.282-.326.378-1 .438-1 .438s.657.451.71 1.426c-1.016.011-1.531-.638-1.531-.638s-.002.446-.341.973zm.525.816c-.162-.153-.278-.522-.244-.833.015-.112.095-.437.24-.506.053-.026.09.002.084.153l-.024.46c0 .031-.007.077.022.081.03.003.032-.04.038-.071l.046-.24c.026-.148.062-.157.116-.129.132.067.156.315.143.425a.895.895 0 01-.421.66zm.048 4.007c.043-.162.23-.632.46-.703.088-.028.135.021.092.243l-.155.75c-.007.046-.026.111.017.122.04.01.056-.054.073-.1l.136-.411c.073-.214.127-.218.203-.166.177.127.164.5.12.662a1.334 1.334 0 01-.763.891c-.205-.263-.307-.833-.183-1.288zm-1.204 2.197c.051-.223.351-1.377.632-1.325.07.013.118.054.026.466l-.171.88c-.009.065-.032.153.018.168.049.02.066-.071.09-.131l.207-.663c.089-.293.164-.317.24-.222.187.244.099.928.047 1.15-.149.623-.59 1.226-.958 1.39-.242-.365-.283-1.092-.131-1.713zm-9.876-5.29c.578-.083 1.092-.335 1.614-.566.66-.292 1.325-.548 2.063-.563.841-.016 1.63.12 2.278.722.915.85 1.159 2.055.66 3.271-.023.058-.045.12-.075.173-.24.414-.14.772.175 1.096.535.548 1.171.908 1.935 1.014.164.022.334-.02.503-.046.1-.015.196-.058.291-.075.172-.03.237.043.196.212-.136.517-.142 1.139.082 1.689-.457-.065-.705-.364-.755-.49-.086.058-.358.252-.41.28-.388.2-.686.044-.764-.383a7.568 7.568 0 00-.032-.208c-.172.089-.328.197-.503.257-.343.117-.558-.043-.56-.403 0-.106.008-.212.015-.328-.169.058-.328.127-.494.172-.33.087-.506-.032-.514-.375-.009-.24.039-.481.062-.75-.105.062-.204.122-.306.176-.34.175-.54.065-.515-.313.01-.226.088-.457.179-.664.101-.229.474-.837.518-.924-.18.097-.341.153-.553.186-.373.056-.63-.25-.481-.596.125-.28.414-.712.513-.813 0 0-.57.574-.925.686-.164.052-.371.043-.5-.1-.122-.126-.11-.318-.052-.504.081-.263.243-.511.403-.77-.328.34-.75.705-1.1.776-.123.024-.296-.021-.367-.097-.074-.075-.1-.215-.054-.351.095-.292.276-.542.461-.792-.077.088-.405.282-.597.397-.218.13-.507.328-.766.306-.267-.024-.373-.181-.347-.449.008-.092.174-.478.282-.634-.431.134-1.025.192-1.374.19-.229 0-.48-.046-.48-.227-.001-.153.182-.166.294-.183zm7.107 7.77c.05.013.059-.051.072-.097l.157-.494c.06-.211.13-.228.205-.161.19.179.158.673.125.835-.093.45-.433.82-.76.94-.243-.265-.416-.768-.323-1.22.03-.16.194-.622.434-.687.09-.03.149.021.119.242l-.055.522c-.002.045-.02.11.026.12zm-7.23-4.18c.05.027.076-.027.113-.076l1.061-1.837c.153-.248.242-.25.304-.144.16.27-.216 1.13-.388 1.452-.447.846-1.187 1.659-1.728 1.843-.119-.54.101-1.655.537-2.475.19-.362.716-1.142 1.03-1.161.12-.006.17.07.051.335l-.978 1.926c-.021.059-.054.108-.001.136zm1.194.866c.051.03.077-.021.112-.07l1.214-1.94c.156-.233.244-.233.3-.13.143.27-.278 1.12-.455 1.424-.464.8-1.286 1.716-1.812 1.87h-.002v-.001c-.091-.527.244-1.757.694-2.533.199-.345.719-1.066 1.021-1.073.116 0 .16.076.034.328l-1.096 1.996c-.023.054-.058.102-.01.13zm1.232.812c.04.024.075-.052.11-.104l1.158-2.082c.142-.244.22-.252.268-.157.123.241-.287 1.137-.451 1.452-.425.821-1.263 1.944-1.636 2.03-.144-.354.24-1.743.654-2.542.183-.353.68-1.163.947-1.201.106-.016.14.054.024.308l-1.055 2.147c-.022.056-.063.127-.02.149zm1.242.746c.041.018.07-.067.095-.118l.917-2.303c.115-.265.185-.287.24-.198.131.224-.23 1.36-.354 1.698-.335.89-.973 1.914-1.32 2.058-.167-.336.025-1.558.349-2.423.144-.382.621-1.465.87-1.547.099-.03.14.033.051.309l-.841 2.37c-.016.06-.05.14-.007.154zm-4.03-.707c.119-.022.19.05.14.278l-.369 1.448c-.008.051-.032.12.026.136.06.019.078-.052.1-.1l.418-1.266c.088-.229.177-.242.268-.16.233.212.155.861.07 1.154-.222.773-.873 1.75-1.296 1.854-.298-.313-.287-1.5-.071-2.248.095-.333.401-1.042.714-1.096zm-.419 3.678c.108-.047.173.011.139.309l-.22 1.538c-.005.063-.024.15.03.158.054.01.067-.078.084-.139l.338-1.514c.072-.289.154-.324.24-.242.22.214.09 1.349.026 1.72-.182.97-.686 2.052-1.066 2.252-.287-.323-.37-1.538-.2-2.483.075-.419.349-1.478.63-1.599zm.727 2.018c.087-.41.389-1.448.676-1.558.112-.041.175.021.133.313l-.26 1.508c-.007.062-.029.146.025.157.056.013.07-.073.089-.131l.38-1.483c.08-.287.163-.315.245-.23.22.215.061 1.333-.017 1.695-.2.954-.74 2-1.132 2.188-.279-.33-.337-1.533-.139-2.46zm.343-1.845c-.265-.32-.17-1.446.085-2.142.114-.309.38-.786.677-.816.117-.013.175.05.117.274l-.406 1.288c-.01.045-.039.11.015.13.058.021.076-.044.102-.09l.472-1.162c.101-.212.188-.218.268-.134.207.218.129.706.03.98-.266.718-.952 1.603-1.36 1.672zm1.394-1.405c.106-.282.376-.785.654-.811.108-.01.164.045.108.25l-.393 1.217c-.01.043-.034.1.015.119.054.02.071-.041.093-.08l.458-1.122c.09-.194.172-.198.245-.123.195.2.1.736.007.988-.244.656-.876 1.463-1.254 1.526-.248-.294-.17-1.327.067-1.964zm1.22.868c.081-.285.375-.99.649-1.032.107-.017.168.035.127.237l-.296 1.18c-.008.044-.028.104.024.117.054.017.067-.043.084-.084l.378-1.079c.077-.196.155-.207.237-.134.207.184.082.9.009 1.153-.197.656-.768 1.486-1.14 1.57-.267-.273-.263-1.29-.073-1.928zm1.408-2.495c.078-.185.384-.7.682-.724.114-.01.166.067.08.32l-.266.765c-.015.056-.05.127 0 .153.054.026.082-.05.112-.097l.374-.71c.12-.24.21-.244.276-.142.177.256.013.845-.065 1.029-.222.522-.725.917-1.137.982-.218-.38-.278-1.055-.056-1.576zm1.243.896c.052-.155.274-.594.52-.626.097-.015.144.043.088.257l-.112.48c-.01.046-.034.107.009.126.045.017.064-.045.084-.086l.21-.442c.088-.203.159-.21.223-.132.165.2.065.686.014.841-.151.436-.542.773-.878.846-.21-.295-.311-.83-.158-1.264zm-6.96-5.055c.164-.33.798-1.303 1.074-1.308.106-.002.145.07.033.3L83.284 39c-.022.05-.054.095-.01.12.045.029.07-.019.103-.064l1.106-1.709c.145-.218.223-.216.272-.118.128.248-.453 1.31-.617 1.592-.73 1.249-1.7 1.463-1.7 1.463.156-.764.324-1.344.594-1.875zm-1.508 6.23c.18-.61.301-1.36.446-2.228.067-.406.27-1.633.583-1.726.118-.037.19.024.15.298l-.275 1.657c-.005.058.002.112.062.125.063.015.104-.022.117-.097l.315-1.325c.047-.283.153-.365.246-.28.241.213.155 1.033.075 1.372-.43 1.875-1.72 2.205-1.72 2.205zm-.037 4.646c.272-.725.224-1.515.172-2.486-.025-.461.033-1.736.307-1.898.106-.063.179-.009.181.302l-.026 1.581c.002.067.022.126.078.128v.002c.058.002.09-.045.093-.132l.147-2.004c.006-.322.07-.453.194-.445.321.022.38 1.032.358 1.424-.175 2.788-1.504 3.528-1.504 3.528zm-.315 6.01c.509-.85.397-2.012.343-3.192-.026-.559.045-2.108.356-2.307.118-.078.203-.013.203.367l-.02 2.015c.002.08.022.151.089.155.065.005.099-.053.103-.159l.08-2.384c.009-.389.082-.55.223-.54.364.026.39 1.239.375 1.716-.142 3.978-1.752 4.33-1.752 4.33zm.98-.4c.584-.692.8-1.864.947-2.963.069-.504.069-1.98.375-2.114.12-.052.244.002.226.376l-.105 2.047c-.009.073-.005.14.054.153.058.011.099-.036.12-.13l.21-1.922c.01-.381.125-.442.248-.416.326.08.3 1.252.226 1.681-.545 3.219-2.302 3.288-2.302 3.288zm1.438-.633c.503-.517.857-1.523 1.043-2.416.082-.397.306-1.502.56-1.59.096-.037.23.015.156.308l-.389 1.69c-.01.056-.01.11.035.125.047.01.082-.022.104-.097l.418-1.586c.07-.274.147-.375.246-.345.253.078.046.975-.037 1.312-.61 2.528-2.136 2.6-2.136 2.6zm3.166-2.505c-.436 1.705-1.66 1.729-1.66 1.729.397-.367.65-.973.803-1.63.067-.293.253-1.106.449-1.162.078-.022.181.022.12.235l-.355 1.325c-.009.041-.007.082.028.092.034.011.062-.013.08-.066l.38-1.245c.056-.203.118-.274.193-.249.197.067.026.726-.038.971zm.237-3.66c-.151.92-.609 1.951-.96 2.15-.27-.3-.367-1.45-.218-2.345.067-.4.306-1.405.565-1.525.102-.048.16.008.131.29l-.18 1.435c-.005.061-.02.143.032.152.05.009.06-.076.073-.134l.293-1.417c.065-.277.139-.31.22-.232.208.197.102 1.273.044 1.625zm.259 2.245c-.2-.265-.222-1.258-.056-2.023.073-.343.26-1.03.477-1.127.083-.037.13.015.09.257l-.14.975c-.009.05-.024.12.015.13.04.008.056-.063.071-.113l.36-1.447c.065-.24.13-.266.188-.197.158.175-.056 1.422-.12 1.722-.167.792-.59 1.666-.885 1.823zm1.925-1.635c-.678 1.54-1.472 1.594-.771-.266.084-.224.304-.725.462-.774.073-.022.112.025.073.19l-.246.817c-.004.037-.024.082.01.093.038.01.049-.034.064-.069l.515-1.245c.065-.157.121-.168.17-.112.132.144-.142 1.053-.277 1.366zm.6-2.643c-.171.708-.584 1.232-.937 1.346-.257-.263-.39-.939-.223-1.627.074-.304.346-1.11.605-1.176.101-.026.16.024.125.244l-.214 1.107c-.004.045-.023.11.026.123.052.01.063-.054.08-.097l.298-1.01c.07-.211.144-.229.224-.16.2.178.08.98.015 1.25zm.454 1.493c-.336-.085-.444-.816-.3-1.43.067-.275.294-.94.553-.993.099-.024.16.022.13.22l-.19 1.075c-.003.04-.02.094.03.107.051.013.062-.045.077-.084l.294-.986c.06-.188.135-.203.216-.14.207.164.116.833.06 1.076-.151.633-.537 1.24-.87 1.155zm2.089-.751c-.112.602-.436 1.28-.79 1.204-.353-.074-.429-.829-.321-1.413.05-.262.246-.956.488-1.019.092-.023.15.017.133.205l-.144 1.04c0 .039-.013.093.032.102.05.008.058-.046.071-.082l.238-.963c.05-.181.118-.196.196-.14.203.145.142.835.097 1.066zm.093-2.423c.017-.162.13-.634.347-.723.084-.034.14.011.132.231l-.024.68c0 .047-.009.11.037.118.043.007.05-.058.06-.101l.117-.665c.036-.213.1-.237.174-.176.192.161.203.655.184.817-.045.455-.343.962-.637 1.109-.248-.244-.438-.833-.39-1.29zm1.202 2.634c-.052.585-.314 1.251-.654 1.224-.339-.033-.475-.758-.421-1.325.021-.253.15-.867.37-.945.087-.035.146 0 .146.18l-.052 1.02c.004.036-.002.09.045.094.046.003.048-.05.056-.084l.136-.94c.033-.177.097-.197.177-.151.203.12.22.705.197.927zm.069-2.57c.075-.377.468-.662.666-.683-.222.55-.332 1.325.246 2.207-.075-.039-.496-.127-.703-.416-.25-.346-.307-.615-.21-1.107zm.821 3.988c-.245.024-.491-.451-.548-1.06-.056-.608.1-1.12.348-1.143.14-.01.28.136.386.377a3.229 3.229 0 00.11 1.444c-.062.224-.164.37-.296.382zm-.112-3.854c.007-.204.108-.817.397-.966.11-.058.194-.015.205.265l.046.51c.006.058 0 .14.062.142.063.002.06-.08.07-.138l.086-.505c.028-.278.114-.32.222-.255.28.167.347.783.34.99-.014.581-.37 1.218-.754 1.453-.372-.257-.689-.91-.674-1.496zm.486 2.827c-.03-.237-.074-.958.242-1.176.116-.078.226-.048.289.27l.166.72c.015.067.023.162.097.153.073-.008.056-.103.056-.172l.026-.473c.017-.313.077-.384.216-.328.358.14.431.73.461.967.082.671-.147 1.305-.559 1.644-.48-.23-.91-.934-.994-1.605zm-.093 2.297c.01-.148.097-.53.285-.573.073-.02.125.002.131.107v.55c.003.022-.002.055.04.057.036.002.038-.028.045-.05l.086-.541c.02-.106.078-.117.144-.089.18.073.205.48.195.613-.028.348-.218.747-.516.718-.296-.027-.438-.453-.41-.792zm-.96.158c.009-.114.078-.403.237-.436.06-.013.106.005.11.084l.004.421c.003.015-.002.039.033.041.032.005.032-.021.037-.036l.069-.413c.02-.08.065-.088.123-.066.15.058.172.366.166.467-.022.266-.181.568-.428.544-.25-.02-.373-.35-.351-.606zm-.701.917c.01-.127.084-.446.252-.485.065-.013.112.004.117.092l.004.466c.002.018-.002.043.034.048.035.002.035-.026.042-.043l.073-.458c.02-.088.069-.099.131-.073.16.063.184.406.173.518-.024.293-.19.63-.455.606-.265-.024-.393-.386-.371-.67zm.403 2.706c-.265.125-.304-.115-.22-.266.082-.149.408-.123.703.17 0 0-.217-.028-.483.096zm.591-1.191c-.028.36-.235.772-.563.742-.325-.03-.483-.473-.457-.824.013-.156.105-.548.31-.593.083-.018.14.004.145.112l.004.571c.005.024-.002.054.044.059.043.004.043-.029.05-.052l.092-.563c.024-.106.084-.12.162-.089.196.078.224.499.213.637zm-.025-1.174c.023-.164.146-.574.368-.608.087-.016.147.013.145.129l-.037.604c.005.026-.004.058.041.065.05.007.05-.028.06-.052l.137-.59c.03-.11.094-.12.174-.083.203.097.205.544.184.686-.054.382-.305.805-.645.75-.344-.053-.481-.532-.427-.9zm.875 1.75c-.069.306-.287.64-.532.58-.249-.06-.311-.46-.242-.76.028-.13.153-.459.32-.478.064-.007.105.019.094.114l-.073.49c0 .021-.009.05.026.056.032.009.036-.02.047-.039l.145-.475c.032-.09.082-.095.136-.06.142.088.105.453.08.572zm.607-.059c-.302-.006-.481-.366-.481-.662 0-.13.058-.466.246-.515.073-.022.13-.007.142.086l.043.477c.002.017 0 .045.041.045.043 0 .041-.026.043-.045l.048-.477c.015-.093.069-.106.14-.086.187.052.246.403.246.52-.003.301-.166.662-.468.657zm.229-1.344c-.266-.023-.393-.353-.374-.612.009-.117.082-.408.248-.443.067-.013.11.005.119.087l.004.423c.005.017-.002.04.035.043.034.004.034-.02.04-.037l.072-.419c.017-.08.069-.088.132-.064.155.058.18.37.172.472-.021.27-.185.574-.448.55zm1.225.35c-.024.302-.192.652-.451.628-.259-.026-.384-.397-.358-.693.008-.13.084-.462.248-.5.062-.018.11 0 .114.093v.48c.005.02-.002.048.033.05.036.002.036-.023.04-.041l.076-.477c.02-.09.07-.101.13-.075.157.065.177.418.168.535zm-.792-1.517c-.11-.194-.377-.803-.235-1.081.05-.108.14-.105.306.143l.516.761c.037.052.08.13.127.102.048-.03.003-.104-.023-.162l-.41-.822c-.136-.268-.095-.348.026-.34.31.016.711.547.824.739.315.537.397 1.295.233 1.696-.432-.054-1.05-.499-1.364-1.036zm-.293 11.315c-.186.722-.928 1.003-1.597.619-.513-.3-.699-.796-.49-1.373.689-1.875 2.952-7.085 3.187-7.71a.191.191 0 01.231-.12c.1.03.155.137.12.238-.459 1.532-2.172 6.498-2.284 6.872-.017.056-.045.112-.041.164.006.062.039.118.062.179.054-.037.121-.063.154-.112.04-.054.051-.128.073-.194.356-1.183 1.873-5.748 2.142-6.626a.187.187 0 01.236-.132.19.19 0 01.127.222c-.302 1.299-1.629 6.857-1.92 7.973zm2.47 1.139c-.06.746-.76 1.147-1.506.882-.578-.205-.854-.665-.744-1.269.353-1.963 1.721-7.847 1.851-8.54h.002a.2.2 0 01.222-.165c.11.013.19.114.18.226-.204 1.674-1.073 7.17-1.118 7.556-.007.056-.026.119-.011.17.015.059.063.108.095.164.047-.045.11-.082.136-.136.03-.06.03-.135.039-.204.148-1.224.9-6.368 1.022-7.328a.203.203 0 01.404.029 787.648 787.648 0 01-.572 8.615zm1.398 1.628c-.658.035-1.169-.422-1.143-1.09 0-.016 0-.031.002-.049 0-.02.002-.04.004-.062l.002-.054c.07-1.48.408-7.221.518-8.867a.243.243 0 01.246-.223h.003c.138 0 .248.11.248.246.004 2.063 0 7.455.002 7.845 0 .056-.011.119.008.167.022.055.072.098.11.146.044-.048.09-.09.113-.146.02-.048.008-.11.008-.167 0-.39-.002-5.782 0-7.845 0-.135.112-.246.25-.246.132 0 .238.095.249.223.11 1.646.449 7.387.516 8.867l.006.054v.112c.032.667-.482 1.124-1.142 1.09zm2.904-.746c-.742.265-1.445-.136-1.504-.882a726.66 726.66 0 01-.571-8.615.203.203 0 01.403-.028c.12.96.874 6.103 1.025 7.327.006.069.004.144.036.204.026.054.087.09.134.136.034-.056.082-.105.097-.163.015-.052-.004-.115-.01-.171-.046-.386-.915-5.882-1.118-7.556a.204.204 0 01.179-.226.206.206 0 01.225.166c.127.692 1.497 6.576 1.85 8.54.11.604-.165 1.063-.746 1.268zm-.133-10.486c.23.626 2.498 5.836 3.186 7.711.212.577.026 1.073-.494 1.373-.664.384-1.406.103-1.594-.62-.29-1.115-1.614-6.673-1.919-7.972a.19.19 0 01.128-.222.187.187 0 01.233.132c.272.878 1.784 5.443 2.145 6.626.021.066.032.14.07.194.038.05.103.075.154.112.024-.06.059-.117.063-.18.006-.051-.022-.107-.04-.163-.114-.374-1.825-5.34-2.289-6.872a.189.189 0 01.125-.238.19.19 0 01.232.12zm-.557-1.814c-.164-.401-.082-1.159.233-1.696.114-.192.513-.723.823-.738.117-.009.16.071.027.339l-.408.822c-.026.058-.076.132-.026.162.05.028.09-.05.128-.102l.515-.761c.166-.248.255-.25.309-.143.138.278-.127.887-.24 1.081-.315.537-.93.982-1.361 1.036zm1.023 1.109c-.262.024-.426-.326-.451-.628-.009-.117.013-.47.168-.535.06-.026.108-.015.13.075l.073.477c.007.018.007.043.041.041.035-.002.032-.03.032-.05v-.48c.007-.094.052-.11.115-.094.166.04.24.372.25.501.023.296-.102.667-.358.693zm.325-1.528c-.008-.1.018-.414.175-.472.063-.024.11-.015.13.065l.073.418c.003.018.003.041.041.037.033-.002.03-.026.033-.043l.004-.423c.007-.082.052-.1.119-.086.166.034.239.325.248.442.021.259-.11.589-.374.613-.261.023-.43-.281-.449-.55zm.678 1.894c-.304.005-.466-.356-.466-.658-.002-.116.056-.467.241-.52.074-.019.128-.006.143.087l.043.477c.007.019.005.045.046.045.04 0 .039-.028.045-.045l.04-.477c.014-.093.07-.108.141-.086.188.05.246.386.246.515.002.296-.175.656-.48.662zm1.14.64c-.25.06-.463-.275-.532-.581-.03-.119-.062-.484.078-.572.053-.035.101-.03.136.06l.144.475c.009.02.015.048.048.039.034-.007.026-.035.026-.056l-.076-.49c-.01-.095.03-.12.095-.114.166.019.289.347.321.479.07.3.007.699-.24.76zm.907.034c-.268-.124-.483-.095-.483-.095.296-.294.62-.32.703-.17.084.15.046.39-.22.265zm-.03-.449c-.326.03-.533-.382-.563-.742-.01-.138.02-.56.216-.637.077-.03.137-.017.16.089l.092.563c.008.023.008.056.052.052.043-.005.038-.035.043-.059v-.571c.008-.108.064-.13.144-.112.21.045.302.437.315.593.027.351-.133.794-.459.824zm-.088-2.637l.075.458c.003.017.003.045.04.043.036-.005.032-.03.036-.048v-.466c.004-.088.051-.105.116-.092.169.039.244.358.255.485.02.285-.108.647-.371.671-.263.024-.432-.313-.455-.606-.011-.112.013-.455.173-.518.062-.026.111-.015.13.073zm-.792-.942c.056-.022.106-.013.12.066l.07.413c.006.015.006.04.038.036.035-.002.03-.026.035-.04l.002-.422c.004-.08.05-.097.112-.084.158.033.227.322.235.436.018.257-.101.585-.351.606-.249.024-.407-.278-.428-.544-.008-.1.014-.41.167-.467zm-.175 1.853c.048-.007.041-.039.041-.065l-.037-.604c0-.116.061-.145.147-.13.224.035.347.445.371.61.052.368-.088.847-.43.9-.342.055-.59-.368-.644-.75-.021-.142-.02-.589.186-.686.075-.037.142-.028.172.084l.138.59c.008.023.01.058.056.05zm-.675-1.515c.006.022.006.052.05.05.038-.002.032-.035.034-.056v-.55c.007-.106.059-.128.132-.108.187.043.276.425.286.573.026.34-.116.764-.412.792-.297.029-.487-.37-.513-.718-.011-.134.013-.54.192-.613.069-.028.125-.017.145.089l.086.541zm.407-2.388c-.08.67-.513 1.374-.992 1.605-.41-.339-.639-.973-.557-1.644.029-.237.102-.826.46-.967.138-.056.198.015.215.328l.024.473c0 .069-.015.164.059.172.073.009.08-.086.097-.153l.166-.72c.062-.318.17-.348.289-.27.317.218.27.939.24 1.176zm-.183-1.331c-.386-.235-.742-.872-.76-1.453-.004-.207.063-.823.343-.99.106-.064.19-.023.22.255l.087.505c.008.058.008.14.071.138.063-.002.056-.084.063-.143l.045-.509c.013-.28.093-.323.205-.265.29.149.39.762.397.966.015.585-.304 1.24-.67 1.496zm1.107 1.298c-.058.609-.302 1.084-.55 1.06-.127-.011-.231-.158-.294-.382a3.208 3.208 0 00.11-1.444c.106-.241.246-.388.384-.377.247.024.404.535.35 1.143zm.065-1.82c-.21.289-.626.377-.701.416.575-.882.465-1.657.241-2.207.199.021.594.306.67.684.094.492.04.761-.21 1.107zm.932 2.686c-.34.027-.6-.639-.656-1.224-.022-.222-.004-.807.199-.927.08-.046.142-.026.176.15l.134.941c.011.035.013.087.06.084.046-.004.04-.058.042-.094l-.05-1.02c-.002-.18.058-.215.145-.18.222.078.348.692.373.945.051.567-.082 1.292-.423 1.325zm.155-2.568c-.293-.147-.589-.654-.636-1.109-.018-.162-.007-.656.185-.817.074-.061.136-.037.175.176l.117.665c.01.043.015.108.058.101.048-.008.037-.07.037-.118l-.022-.68c-.009-.22.048-.265.131-.231.216.089.33.561.348.723.047.457-.143 1.046-.393 1.29zm1.273 2.337c-.353.076-.678-.602-.79-1.204-.043-.231-.103-.921.1-1.066.077-.056.146-.041.196.14l.238.963c.013.036.02.09.069.082.047-.01.034-.063.032-.102l-.142-1.04c-.018-.188.04-.228.133-.205.242.063.436.757.486 1.019.11.584.034 1.34-.322 1.413zm1.303-.453c-.337.084-.72-.522-.872-1.155-.058-.243-.146-.912.059-1.076.08-.063.155-.048.218.14l.293.986c.013.039.026.097.077.084.048-.013.033-.067.029-.107l-.19-1.075c-.03-.198.03-.244.131-.22.257.054.486.718.549.992.146.615.04 1.346-.294 1.43zm.451-1.493c-.064-.27-.183-1.072.02-1.25.075-.069.153-.051.22.16l.3 1.01c.015.043.027.108.08.097.047-.013.03-.078.025-.123l-.213-1.107c-.037-.22.023-.27.122-.244.261.065.533.872.607 1.176.166.688.034 1.364-.225 1.627-.351-.114-.763-.638-.936-1.346zm.604 2.643c-.138-.313-.412-1.222-.282-1.366.05-.056.103-.045.17.112l.518 1.245c.012.035.025.08.062.069.032-.01.017-.056.011-.093l-.244-.817c-.04-.165 0-.212.07-.19.159.05.38.55.465.774.7 1.86-.096 1.806-.77.266zm1.92 1.635c-.293-.157-.714-1.03-.884-1.823-.065-.3-.276-1.547-.119-1.722.061-.069.126-.043.188.197l.36 1.447c.018.05.028.121.07.112.04-.008.023-.08.017-.13l-.143-.974c-.036-.242.011-.294.093-.257.215.097.401.784.475 1.127.166.765.146 1.758-.056 2.023zm.302-3.87c.083-.078.158-.046.22.23l.294 1.418c.017.058.026.143.078.134.049-.01.034-.09.028-.152l-.181-1.434c-.03-.283.032-.339.133-.291.259.12.496 1.126.565 1.525.147.895.052 2.045-.217 2.345-.352-.199-.808-1.23-.96-2.15-.06-.353-.167-1.43.04-1.626zm.197 5.285c-.065-.245-.237-.904-.041-.97.076-.026.138.045.199.248l.377 1.245c.017.053.044.077.08.066.035-.01.035-.051.026-.092l-.356-1.325c-.06-.213.045-.257.123-.235.198.056.382.87.45 1.163.15.656.404 1.262.799 1.629 0 0-1.224-.024-1.657-1.729zm1.029-.094c-.082-.337-.289-1.234-.036-1.312.094-.03.177.07.247.345l.417 1.586c.02.075.056.108.102.097.045-.015.05-.07.036-.125l-.39-1.69c-.072-.293.06-.345.159-.308.252.088.475 1.193.557 1.59.187.893.544 1.899 1.044 2.416 0 0-1.525-.071-2.136-2.6zm1.27-.056c-.07-.43-.096-1.601.229-1.682.123-.025.238.035.25.417l.208 1.922c.021.093.062.141.118.13.059-.013.065-.08.057-.153l-.106-2.048c-.018-.373.108-.427.227-.375.308.134.306 1.61.373 2.114.146 1.098.364 2.27.95 2.962 0 0-1.757-.068-2.305-3.287zm1.533-.641c-.018-.477.01-1.69.375-1.716.138-.01.212.151.22.54l.082 2.384c.002.106.041.164.103.16.065-.005.084-.076.087-.156l-.02-2.015c0-.38.085-.445.203-.367.31.199.384 1.748.358 2.307-.056 1.18-.166 2.343.343 3.193 0 0-1.61-.352-1.751-4.33z" fill="#FFF" fill-rule="nonzero" mask="url(#B)"/></g></g></svg>