<svg viewBox="0 0 324 161" xmlns="http://www.w3.org/2000/svg" xmlns:xlink="http://www.w3.org/1999/xlink"><defs><path id="a" d="M0 0h419.038v258.816H0z"/><path id="c" d="M0 0h419.038v258.816H0z"/><path id="e" d="M0 0h419.038v258.816H0z"/><path id="g" d="M0 0h419.038v258.816H0z"/><path id="i" d="M0 0h419.038v258.816H0z"/><path id="k" d="M0 0h419.038v258.816H0z"/><path id="m" d="M0 0h419.038v258.816H0z"/><path id="o" d="M0 0h419.038v258.816H0z"/><path id="q" d="M0 0h419.038v258.816H0z"/><path id="s" d="M0 0h419.038v258.816H0z"/><path id="u" d="M0 0h419.038v258.816H0z"/><path id="w" d="M0 0h419.038v258.816H0z"/><path id="y" d="M0 0h419.038v258.816H0z"/></defs><g fill="none" fill-rule="evenodd"><g transform="translate(-47.559 -49.055)"><mask id="b" fill="#fff"><use xlink:href="#a"/></mask><path d="M53.376 172.73c1.361 0 3.801-.145 4.716-.145 7.2 0 12.884 1.362 12.884 7.866 0 4.616-2.942 7.2-8.114 8.979 7.25 1.52 9.282 4.864 9.282 9.232 0 7.458-6.346 10.812-14.415 10.812-1.923 0-4.964-.154-6.49-.154-.66 0-2.33.105-3.04.154.303-5.585.402-13.297.402-19.692 0-5.724-.055-14.41-.403-17.197 1.267.055 4.358.144 5.178.144zm-.209 15.631c.557.05 1.471.105 2.688.105 5.635 0 9.943-2.33 9.943-7.006 0-4.304-3.751-6.033-8.367-6.033-1.168 0-3.2.055-4.264.105v12.83zm0 18.167c1.118.05 2.997.104 4.313.104 5.178 0 9.49-2.186 9.49-8.02 0-4.566-2.488-7.458-12.382-7.458h-1.42v15.374z" fill="#595959" fill-rule="nonzero" mask="url(#b)"/></g><g transform="translate(-47.559 -49.055)"><mask id="d" fill="#fff"><use xlink:href="#c"/></mask><path d="M79 186.384c2.893-2.236 5.635-3.1 8.681-3.1 5.322 0 9.029 2.687 9.029 9.336v12.228c0 2.892.556 3.205 1.625 3.205.352 0 .755-.054 1.063-.11l.303 1.283c-1.977.705-3.09.8-3.647.8-1.68 0-2.748-.75-3.15-2.221l-.303-1.123c-2.743 2.181-5.735 3.344-8.219 3.344-4.621 0-7.612-2.43-7.612-6.698 0-4.567 3.09-6.693 7.1-7.409l6.137-1.108c1.729-.308 2.643-.815 2.643-2.082 0-5.535-2.335-7.458-6.196-7.458-2.986 0-5.476 1.118-6.842 4.054H79v-2.941zm13.65 9.997l-3.349.512c-3.652.557-7.712 1.824-7.712 5.674 0 2.952 1.625 4.517 4.92 4.517 2.032 0 4.064-.705 6.141-2.892v-7.81z" fill="#595959" fill-rule="nonzero" mask="url(#d)"/></g><g transform="translate(-47.559 -49.055)"><mask id="f" fill="#fff"><use xlink:href="#e"/></mask><path d="M106.653 183.949c.556 0 1.624-.104 2.38-.154-.1.87-.254 3.046-.254 3.96 1.68-3.046 4.92-4.467 8.125-4.467 4.919 0 8.775 3.096 8.775 8.268 0 1.272-.154 3.454-.154 5.079 0 2.126.054 8.978.462 12.84a17.638 17.638 0 00-2.34-.16c-.86 0-1.874.055-2.634.16.402-3.862.452-10.714.452-12.84 0-7.767-2.335-10.455-6.29-10.455-6.187 0-6.594 6.3-6.594 11.115 0 .91.05 8.318.452 12.18a17.433 17.433 0 00-2.33-.16c-.865 0-1.879.055-2.64.16.413-3.862.458-10.714.458-12.84 0-2.59-.045-9.034-.457-12.84.86.05 1.977.154 2.589.154" fill="#595959" mask="url(#f)"/></g><g transform="translate(-47.559 -49.055)"><mask id="h" fill="#fff"><use xlink:href="#g"/></mask><path d="M135.472 169.639c.552 0 1.62-.105 2.38-.15-.407 3.851-.457 11.215-.457 15.215v10.251h.815c1.675 0 10.251-9.744 11.061-11.165.706.05 1.878.154 2.484.154.507 0 1.73-.104 2.485-.154l-12.124 10.857c1.525 1.824 9.59 10.907 13.242 14.822-1.367-.109-2.33-.159-3.041-.159-.914 0-2.286.05-3.354.16-1.873-2.947-7.607-9.7-10.753-13.148h-.815c0 1.883.05 9.286.457 13.147-.76-.109-1.57-.159-2.33-.159-.865 0-1.883.05-2.638.16.407-3.862.457-11.27.457-15.225v-9.54c0-4.006-.05-11.365-.457-15.216.86.05 1.972.15 2.588.15" fill="#595959" mask="url(#h)"/></g><g transform="translate(-47.559 -49.055)"><mask id="j" fill="#fff"><use xlink:href="#i"/></mask><path d="M196.366 196.48c0 7.762-5.018 13.546-12.983 13.546-7.812 0-12.686-5.724-12.686-12.835 0-8.412 5.376-13.903 13.143-13.903 7.706-.005 12.526 5.575 12.526 13.193m-20.85.556c0 5.73 2.386 11.016 7.762 11.016 5.178 0 8.268-4.974 8.268-11.771 0-5.486-2.126-11.011-7.86-11.011-5.481 0-8.17 5.724-8.17 11.766" fill="#595959" fill-rule="nonzero" mask="url(#j)"/></g><g transform="translate(-47.559 -49.055)"><mask id="l" fill="#fff"><use xlink:href="#k"/></mask><path d="M214.324 171.67c0 .508.104 1.526.154 2.38-1.625-.61-2.49-.76-3.145-.76-2.892 0-4.413 1.536-4.413 4.517 0 1.173.1 3.41.457 6.142 1.466 0 3.906-.204 5.58-.407-.05.506-.104 1.222-.104 1.624 0 .458.06 1.069.104 1.471-1.724-.253-3.552-.402-4.163-.402h-1.516v8.015c0 3.955.045 11.363.452 15.214a17.556 17.556 0 00-2.335-.154c-.865 0-1.873.055-2.639.154.408-3.85.457-11.264.457-15.214v-8.015h-.86c-.456 0-1.167.044-2.692.402a9.964 9.964 0 00.159-1.525c0-.259-.055-1.009-.16-1.57 1.119.357 1.884.407 2.694.407h.86c0-8.224 5.63-14.713 9.838-14.713.66 0 1.068.05 1.421.154-.045.71-.15 1.873-.15 2.28" fill="#595959" mask="url(#l)"/></g><g transform="translate(-47.559 -49.055)"><mask id="n" fill="#fff"><use xlink:href="#m"/></mask><path d="M238.622 172.734c1.371 0 5.073-.149 7.001-.149 6.504 0 10.663 2.842 10.663 8.368 0 4.974-3.657 9.287-10.911 10.047 9.44 12.074 11.418 14.464 14.966 18.47a41.971 41.971 0 00-3.548-.155c-1.113 0-2.33.055-3.349.154-3.602-5.277-9.69-13.043-13.799-17.908h-1.833c0 6.092.055 12.323.407 17.908a21.603 21.603 0 00-2.588-.154c-.91 0-1.978.055-2.793.154.308-5.585.403-13.292.403-19.687 0-5.729-.055-14.41-.403-17.197 1.48.095 4.576.15 5.784.15zm-.81 16.134h1.68c4.824 0 11.309-1.212 11.309-7.349 0-3.806-2.947-6.092-8.825-6.092-1.734 0-3.444.05-4.164.144v13.297z" fill="#595959" fill-rule="nonzero" mask="url(#n)"/></g><g transform="translate(-47.559 -49.055)"><mask id="p" fill="#fff"><use xlink:href="#o"/></mask><path d="M266.885 183.949c.557 0 1.625-.104 2.385-.154-.412 3.86-.457 10.708-.457 12.84 0 7.761 2.335 10.499 6.29 10.499 6.192 0 6.594-6.34 6.594-11.155 0-.925-.044-8.323-.452-12.184.86.05 1.973.154 2.589.154.557 0 1.62-.104 2.38-.154-.402 3.806-.457 10.201-.457 12.84 0 2.126.055 8.978.457 12.84a17.563 17.563 0 00-2.335-.16c-.865 0-1.874.055-2.634.16.1-.87.249-3.052.249-3.96-1.67 3.035-4.915 4.51-8.115 4.51-4.924 0-8.78-3.144-8.78-8.327 0-1.267.15-3.439.15-5.068 0-2.132-.045-8.98-.458-12.84.87.055 1.988.159 2.594.159" fill="#595959" mask="url(#p)"/></g><g transform="translate(-47.559 -49.055)"><mask id="r" fill="#fff"><use xlink:href="#q"/></mask><path d="M305.394 188.72c-1.565-2.793-3.409-3.45-5.232-3.45-2.43 0-4.313 1.62-4.313 4.16 0 3.145 2.638 4.412 5.53 5.128 4.418 1.113 6.952 2.484 6.952 6.896 0 4.875-4.71 8.572-9.794 8.572-2.589 0-4.865-.706-6.698-2.077.561-1.009 1.267-2.688 1.625-3.702 1.928 3.15 3.91 3.811 6.037 3.811 2.942 0 5.277-1.724 5.277-4.676 0-3.344-2.798-4.203-5.988-5.068-3.96-1.068-6.499-3.05-6.499-7.155 0-4.77 3.498-7.866 8.626-7.866 2.693 0 4.258.611 5.988 1.73-.497 1.063-1.108 2.479-1.51 3.696" fill="#595959" mask="url(#r)"/></g><g transform="translate(-47.559 -49.055)"><mask id="t" fill="#fff"><use xlink:href="#s"/></mask><path d="M326.239 188.72c-1.566-2.793-3.4-3.45-5.223-3.45-2.434 0-4.313 1.62-4.313 4.16 0 3.145 2.639 4.412 5.53 5.128 4.413 1.113 6.952 2.484 6.952 6.896 0 4.875-4.715 8.572-9.798 8.572-2.584 0-4.865-.706-6.699-2.077.562-1.009 1.268-2.688 1.625-3.702 1.928 3.15 3.91 3.811 6.037 3.811 2.947 0 5.277-1.724 5.277-4.676 0-3.344-2.792-4.203-5.982-5.068-3.96-1.068-6.504-3.05-6.504-7.155 0-4.77 3.498-7.866 8.626-7.866 2.693 0 4.263.611 5.987 1.73-.497 1.063-1.108 2.479-1.515 3.696" fill="#595959" mask="url(#t)"/></g><g transform="translate(-47.559 -49.055)"><mask id="v" fill="#fff"><use xlink:href="#u"/></mask><path d="M341.419 174.354c0 1.62-1.019 2.793-2.743 2.793-1.734 0-2.748-1.173-2.748-2.793 0-1.52 1.128-2.688 2.748-2.688 1.724 0 2.743.86 2.743 2.688m-2.743 9.595c.551 0 1.62-.104 2.38-.154-.403 3.806-.452 10.201-.452 12.84 0 2.126.05 8.978.452 12.84a17.546 17.546 0 00-2.33-.16c-.865 0-1.879.055-2.644.16.412-3.862.457-10.714.457-12.84 0-2.59-.045-9.034-.457-12.84.865.05 1.983.154 2.594.154" fill="#595959" fill-rule="nonzero" mask="url(#v)"/></g><g transform="translate(-47.559 -49.055)"><mask id="x" fill="#fff"><use xlink:href="#w"/></mask><path d="M350.144 186.384c2.892-2.236 5.63-3.1 8.68-3.1 5.317 0 9.02 2.687 9.02 9.336v12.228c0 2.892.56 3.205 1.63 3.205.352 0 .76-.054 1.062-.11l.309 1.283c-1.983.705-3.101.8-3.658.8-1.67 0-2.732-.75-3.14-2.221l-.308-1.123c-2.738 2.181-5.724 3.344-8.214 3.344-4.62 0-7.607-2.43-7.607-6.698 0-4.567 3.096-6.693 7.1-7.409l6.142-1.108c1.72-.308 2.634-.815 2.634-2.082 0-5.535-2.34-7.458-6.187-7.458-2.996 0-5.485 1.118-6.847 4.054h-.611v-2.941h-.005zm13.645 9.997l-3.35.512c-3.647.557-7.716 1.824-7.716 5.674 0 2.952 1.63 4.517 4.93 4.517 2.026 0 4.049-.705 6.13-2.892v-7.81h.006z" fill="#595959" fill-rule="nonzero" mask="url(#x)"/></g><g transform="translate(-47.559 -49.055)"><mask id="z" fill="#fff"><use xlink:href="#y"/></mask><path d="M209.51 49.297c-27.22 0-49.293 22.071-49.293 49.296 0 27.225 22.072 49.302 49.292 49.302 27.24 0 49.311-22.077 49.311-49.302 0-27.225-22.071-49.296-49.31-49.296m31.15 63.82c-.105-.129-.319-.189-.498-.228-3.955-.93-3.96-5.064-4.035-6.326-3.314 0-4.606-3.622-4.954-4.566a10.962 10.962 0 01-.596-2.614c0 1.76-2.603 3.27-5.406.467 0 2.887-3.443 2.38-5.153.666-.154.586-1.103 2.072-1.103 2.072 1.968.358 2.847.79 3.787 1.605 2.17 1.913 2.414 5.108 2.414 6.753 0 0 3.002 2.931 4.194 4.02.343.323.73.61 1.118.904 3.076-3.443 4.104-2.097 4.1-2.092 2.27-.92 3.532.71 3.026 1.535-.522-.6-1.382-.427-1.908.045 3.07.512 2.365 2.768 1.535 3.24 0-.651-.204-1.367-1.173-1.436.05.999-.62 1.168-1.257 1.197-1.52.06-4.064.135-4.845.89-.447.432-.233 1.7-.71 2.131-.398.353-.82.314-1.039.319-.07.462.065.988.656 1.604-2.206.184-3.866-1.764-2.772-2.802.457-.437 2.007-1.903 2.087-2.54.099-.68-.617-1.44-1.113-1.882-1.074-.95-2.217-1.8-3.35-2.679-.327-.263-.72-.491-1.103-.7a1.443 1.443 0 00-1.123-.124c-.85.263-.834.243-1.058.099-.835-.557-2.35-1.794-5.49-2.142.213.135.362.274.481.438.17.233.294.516.472.904.204.427.353.88.537 1.317 2.032 4.8 4.045 9.52 6.072 14.33.676 1.59.08 2.981-1.565 3.747-1.193.551-2.55.258-3.35-.905.23.795.334 1.486.01 2.147-.317.66-.834 1.133-1.515 1.421a3.606 3.606 0 01-2.146.248c-.726-.144-1.208-.626-1.575-1.336-.065 1.57-1.099 2.723-2.803 2.723s-2.733-1.148-2.797-2.723c-.373.71-.855 1.187-1.58 1.336a3.59 3.59 0 01-2.142-.248c-.68-.293-1.198-.76-1.516-1.421-.323-.661-.218-1.347.015-2.147-.8 1.158-2.161 1.456-3.359.905-1.635-.766-2.23-2.157-1.56-3.747 2.022-4.81 4.035-9.53 6.067-14.33.184-.438.343-.89.547-1.317.179-.388.293-.67.462-.904.119-.164.263-.303.477-.438-3.14.348-4.651 1.585-5.486 2.142-.219.144-.209.164-1.053-.1a1.46 1.46 0 00-1.128.125c-.383.209-.77.437-1.103.7-1.128.88-2.276 1.73-3.344 2.679-.492.442-1.208 1.202-1.109 1.883.075.636 1.62 2.102 2.082 2.539 1.099 1.038-.561 2.986-2.767 2.802.586-.616.725-1.142.65-1.604-.218-.005-.64.034-1.038-.319-.477-.432-.263-1.699-.705-2.131-.776-.755-3.325-.83-4.845-.89-.636-.03-1.307-.198-1.257-1.197-.964.07-1.168.785-1.168 1.436-.83-.472-1.545-2.728 1.526-3.24-.517-.472-1.382-.646-1.908-.045-.502-.824.765-2.454 3.036-1.535-.005-.005 1.018-1.351 4.094 2.092.387-.293.77-.581 1.123-.904 1.187-1.089 4.184-4.02 4.184-4.02 0-1.645.248-4.84 2.425-6.753.929-.815 1.813-1.247 3.776-1.605 0 0-.95-1.486-1.098-2.072-1.71 1.714-5.148 2.221-5.148-.666-2.807 2.803-5.411 1.292-5.411-.467-.085.86-.303 1.804-.596 2.614-.353.944-1.64 4.566-4.954 4.566-.075 1.262-.08 5.396-4.045 6.326-.17.04-.388.099-.492.228-1.6 1.988-8.248 4.08-9.063 3.518.516-.372 1.331-.86 1.46-3.2.08-1.54.249-9.54.249-20.81 0-3.99.432-16.914 13.212-18.712 1.933-.274 3.841-.13 5.496 1.098 2.246 1.674 3.354 4.506 2.027 7.706-.04.12-.074.229-.134.333-.447.76-.263 1.421.318 2.003 1.068 1.058 2.31 1.774 3.806 1.953.944.109 1.724-.308 2.35-.96 1.437-1.475 2.41-3.21 2.758-5.247.666-3.87-.367-5.813-.427-5.937-1.039-2.087-3.245-3.613-5.804-3.831-1.172-2.192-4.536-1.327-4.536-1.327-.84.184-1.138.422-1.347.84 0 0-1.48-2.246-.084-3.15 1.39-.9 4.501-1.273 4.501-1.273 0-1.466 2.42-2.603 6.798-1.823 5.287.944 6.425-1.123 6.425-1.123.218 2.529-1.715 3.836-2.336 4.188 2.008 2.177 4.81 6.53 5.476 12.706.67-6.176 3.478-10.53 5.486-12.706-.616-.352-2.56-1.66-2.336-4.188 0 0 1.138 2.067 6.425 1.123 4.373-.78 6.793.357 6.793 1.823 0 0 3.11.373 4.506 1.272 1.392.905-.094 3.15-.094 3.15-.209-.417-.507-.655-1.347-.84 0 0-3.363-.864-4.536 1.328-2.56.218-4.765 1.744-5.804 3.83-.055.125-1.033 2.048-.422 5.938.308 2.043 1.322 3.772 2.753 5.248.626.65 1.406 1.068 2.355.959 1.495-.18 2.743-.895 3.806-1.953.586-.582.77-1.242.318-2.003a1.299 1.299 0 01-.134-.333c-1.332-3.2-.219-6.032 2.032-7.706 1.65-1.228 3.558-1.372 5.49-1.098 12.78 1.798 13.203 14.722 13.203 18.712 0 11.27.174 19.27.254 20.81.134 2.34.949 2.828 1.46 3.2-.81.562-7.458-1.53-9.058-3.518" fill="#595959" fill-rule="nonzero" mask="url(#z)"/></g></g></svg>