<svg viewBox="0 0 114 29" xmlns="http://www.w3.org/2000/svg" xmlns:xlink="http://www.w3.org/1999/xlink"><defs><path id="a" d="M0 0h141.734v56.693H0z"/><path id="c" d="M0 0h141.734v56.693H0z"/><path id="e" d="M0 0h141.734v56.693H0z"/><path id="g" d="M0 0h141.734v56.693H0z"/><path id="i" d="M0 0h141.734v56.693H0z"/><path id="k" d="M0 0h141.734v56.693H0z"/><path id="m" d="M0 0h141.734v56.693H0z"/><path id="o" d="M0 0h141.734v56.693H0z"/><path id="q" d="M0 0h141.734v56.693H0z"/><path id="s" d="M0 0h141.734v56.693H0z"/><path id="u" d="M0 0h141.734v56.693H0z"/><path id="w" d="M0 0h141.734v56.693H0z"/></defs><g fill="none" fill-rule="evenodd"><g transform="translate(-13.958 -13.911)"><mask id="b" fill="#fff"><use xlink:href="#a"/></mask><path d="M28.375 14.174c-7.826 0-14.171 6.346-14.171 14.172 0 7.827 6.345 14.173 14.171 14.173 7.83 0 14.175-6.346 14.175-14.173 0-7.826-6.345-14.172-14.175-14.172m0 27.25c-7.223 0-13.076-5.855-13.076-13.078 0-7.223 5.853-13.077 13.076-13.077 7.225 0 13.079 5.854 13.079 13.077S35.6 41.424 28.375 41.424" fill="#595959" fill-rule="nonzero" mask="url(#b)"/></g><g transform="translate(-13.958 -13.911)"><mask id="d" fill="#fff"><use xlink:href="#c"/></mask><path d="M28.375 38.976c.49 0 .787-.33.805-.781.107.203.246.341.455.383.205.041.427.012.615-.071a.83.83 0 00.436-.409c.093-.19.062-.387-.004-.615.23.332.621.418.964.258.471-.22.643-.62.45-1.077-.582-1.382-1.16-2.739-1.744-4.121-.053-.125-.098-.253-.157-.378-.051-.11-.086-.191-.134-.259a.491.491 0 00-.137-.125c.903.1 1.337.456 1.577.614.063.042.06.048.304-.028a.422.422 0 01.324.035c.109.061.221.127.316.202.325.253.655.497.961.77.143.127.349.346.32.541-.023.184-.467.605-.599.73-.315.299.161.859.797.807-.17-.178-.21-.329-.189-.463.064-.001.185.011.299-.091.137-.124.075-.488.203-.612.223-.218.954-.238 1.392-.257.183-.007.376-.057.362-.343.278.019.336.226.336.412.238-.136.444-.784-.439-.933.149-.134.396-.185.549-.012.143-.238-.219-.705-.873-.441.001-.003-.293-.389-1.177.601-.111-.084-.222-.166-.323-.26-.341-.312-1.203-1.154-1.203-1.154 0-.474-.071-1.392-.697-1.942-.267-.234-.521-.358-1.086-.461 0 0 .273-.428.316-.596.492.492 1.481.639 1.481-.192.806.808 1.555.373 1.555-.134.025.247.088.519.172.752.101.271.47 1.312 1.423 1.312.022.361.024 1.552 1.163 1.817.048.013.111.029.142.067.459.571 2.371 1.173 2.605 1.011-.149-.106-.383-.247-.42-.919-.024-.443-.073-2.743-.073-5.984 0-1.146-.123-4.861-3.796-5.379-.557-.079-1.105-.037-1.58.316-.646.482-.964 1.296-.584 2.216.012.033.022.066.039.095.129.219.077.409-.091.576-.307.304-.664.51-1.094.56-.272.031-.496-.088-.676-.274-.412-.424-.702-.922-.793-1.509-.174-1.118.106-1.672.122-1.707.299-.599.934-1.039 1.669-1.102.337-.63 1.304-.381 1.304-.381.242.053.327.123.388.242 0 0 .424-.647.024-.906-.399-.259-1.294-.366-1.294-.366 0-.421-.696-.749-1.954-.524-1.521.271-1.847-.323-1.847-.323-.063.728.492 1.103.671 1.205-.577.626-1.383 1.877-1.575 3.652-.192-1.775-.998-3.026-1.575-3.652.178-.102.734-.477.671-1.205 0 0-.327.594-1.848.323-1.257-.225-1.953.103-1.953.524 0 0-.895.107-1.295.366-.399.259.024.906.024.906.062-.119.147-.189.389-.242 0 0 .967-.249 1.304.381.735.063 1.37.503 1.669 1.102.016.035.313.594.122 1.707-.101.586-.381 1.085-.793 1.509-.18.186-.404.305-.676.274-.43-.05-.787-.256-1.094-.56-.168-.167-.22-.357-.091-.576.017-.029.027-.062.039-.095.38-.92.062-1.734-.584-2.216-.475-.353-1.023-.395-1.58-.316-3.673.518-3.797 4.233-3.797 5.379 0 3.241-.049 5.541-.073 5.984-.037.672-.271.812-.42.919.235.162 2.146-.439 2.606-1.011.031-.038.094-.055.142-.067 1.139-.266 1.141-1.456 1.163-1.817.953 0 1.322-1.041 1.423-1.312.084-.233.147-.505.172-.752 0 .507.749.941 1.555.134 0 .831.989.685 1.481.192.043.168.316.596.316.596-.565.103-.819.227-1.087.461-.625.551-.696 1.469-.696 1.942 0 0-.862.843-1.203 1.154-.101.094-.212.176-.323.26-.884-.989-1.179-.604-1.177-.601-.654-.264-1.016.203-.873.441.152-.173.4-.122.549.012-.883.148-.678.797-.439.933 0-.187.057-.394.336-.412-.014.286.179.336.362.343.437.019 1.168.039 1.392.257.127.124.065.488.203.612.114.102.235.09.298.091.021.134-.018.285-.188.463.636.053 1.112-.508.797-.807-.132-.125-.577-.547-.599-.73-.029-.195.177-.414.32-.541.306-.272.636-.517.961-.77.095-.075.207-.142.316-.202a.422.422 0 01.324-.035c.244.076.241.07.304.028.239-.158.674-.515 1.577-.614a.482.482 0 00-.138.125c-.048.067-.082.148-.133.259-.059.125-.104.253-.157.378-.584 1.382-1.162 2.739-1.744 4.121-.193.457-.021.857.45 1.077.343.16.734.074.964-.258-.066.229-.097.425-.004.615a.83.83 0 00.436.409c.188.083.41.112.615.071.209-.042.348-.18.455-.383.018.451.315.781.805.781" fill="#595959" mask="url(#d)"/></g><g transform="translate(-13.958 -13.911)"><mask id="f" fill="#fff"><use xlink:href="#e"/></mask><path d="M52.311 23.397c.781 0 2.375-.07 3.286-.125a4.447 4.447 0 00-.042.504c0 .097.029.322.042.475a26.79 26.79 0 00-2.573-.195c-.293 0-1.429.027-2.044.083v3.515h.713c1.458 0 4.524.279 4.524 2.812 0 2.057-1.723 2.995-3.989 2.981-.254 0-1.204-.041-1.81-.041-.263 0-.585.014-.81.041.086-1.541.112-3.668.112-5.432 0-1.581-.011-3.975-.112-4.744.896.043 2.378.126 2.703.126zm-1.331 9.239c.364.014.796.028 1.189.028 1.653 0 2.615-.771 2.615-2.213 0-1.553-1.145-2.058-3.804-2.058v4.243z" fill="#595959" fill-rule="nonzero" mask="url(#f)"/></g><g transform="translate(-13.958 -13.911)"><mask id="h" fill="#fff"><use xlink:href="#g"/></mask><path d="M57.803 27.19c.547-.67 1.553-.963 2.396-.963 1.47 0 2.49.725 2.49 2.475v3.472c0 .715.153.882.446.882.101 0 .254-.029.337-.057l.083.337a2.479 2.479 0 01-1.049.267c-.461 0-.754-.21-.867-.617l-.083-.306c-.756.601-1.582.923-2.268.923-1.275 0-2.102-.673-2.102-1.849 0-1.26.94-1.849 2.227-2.085l1.426-.267c.478-.084.732-.224.732-.573 0-1.525-.645-1.917-1.709-1.917-.825 0-1.443.238-1.89 1.149h-.169v-.871zm3.768 2.646l-.926.139c-1.008.155-2.129.504-2.129 1.57 0 .811.45 1.245 1.358 1.245.561 0 1.121-.197 1.697-.798v-2.156z" fill="#595959" fill-rule="nonzero" mask="url(#h)"/></g><g transform="translate(-13.958 -13.911)"><mask id="j" fill="#fff"><use xlink:href="#i"/></mask><path d="M65.474 26.408c.154 0 .446-.028.656-.042-.111 1.063-.127 2.826-.127 2.896.589.029 1.441.058 1.893.058a33.1 33.1 0 001.763-.058c0-.083-.015-1.846-.125-2.896.234.014.544.042.711.042.156 0 .449-.028.659-.042-.113 1.05-.127 2.812-.127 3.54 0 .588.014 2.478.127 3.542a5.148 5.148 0 00-.645-.041c-.237 0-.518.014-.726.041.11-1.064.125-2.954.125-3.4-.616-.044-1.456-.099-1.778-.099-.381 0-1.315.025-1.878.068 0 .477.016 2.366.127 3.431a5.153 5.153 0 00-.643-.041c-.238 0-.518.014-.729.041.111-1.064.125-2.954.125-3.542 0-.714-.014-2.49-.125-3.54.238.013.548.042.717.042" fill="#595959" mask="url(#j)"/></g><g transform="translate(-13.958 -13.911)"><mask id="l" fill="#fff"><use xlink:href="#k"/></mask><path d="M73.521 26.408c.15 0 .445-.028.652-.042-.108 1.05-.121 2.826-.121 3.08h.226c.461 0 2.826-2.689 3.051-3.08.195.014.515.042.683.042.143 0 .479-.028.688-.042l-3.345 2.995c.422.503 2.644 3.01 3.651 4.087a12.578 12.578 0 00-.838-.041c-.253 0-.631.014-.924.041-.518-.812-2.1-2.673-2.966-3.626h-.226c0 .519.013 2.562.121 3.626a5.037 5.037 0 00-.641-.041c-.235 0-.515.014-.729.041.115-1.064.131-2.954.131-3.542 0-.714-.016-2.49-.131-3.54.241.013.55.042.718.042" fill="#595959" mask="url(#l)"/></g><g transform="translate(-13.958 -13.911)"><mask id="n" fill="#fff"><use xlink:href="#m"/></mask><path d="M85.191 23.314c.487 0 1.12-.042 1.481-.042 2.59 0 3.6.784 3.6 2.546 0 2.284-1.92 3.01-4.197 3.01-.127 0-.661-.027-.928-.056v2.42c0 .7.028 1.555.114 2.255a6.959 6.959 0 00-1.486 0c.086-1.54.114-3.669.114-5.432 0-1.581-.014-3.975-.114-4.744.464.013 1.094.043 1.416.043m.545 4.773c1.96 0 3.108-.784 3.108-2.269 0-1.385-1.092-1.762-2.45-1.762-.236 0-1.05.013-1.247.042v3.931c.171.031.449.058.589.058" fill="#595959" fill-rule="nonzero" mask="url(#n)"/></g><g transform="translate(-13.958 -13.911)"><mask id="p" fill="#fff"><use xlink:href="#o"/></mask><path d="M97.562 29.864c0 2.143-1.39 3.738-3.584 3.738-2.155 0-3.501-1.581-3.501-3.541 0-2.323 1.483-3.834 3.626-3.834 2.128 0 3.459 1.539 3.459 3.637m-5.754.154c0 1.582.658 3.037 2.141 3.037 1.428 0 2.283-1.372 2.283-3.247 0-1.512-.589-3.037-2.171-3.037-1.512 0-2.253 1.582-2.253 3.247" fill="#595959" fill-rule="nonzero" mask="url(#p)"/></g><g transform="translate(-13.958 -13.911)"><mask id="r" fill="#fff"><use xlink:href="#q"/></mask><path d="M104.422 27.89h-.169c-.49-.797-1.175-1.119-1.945-1.119-1.639 0-2.422 1.582-2.422 3.121 0 1.777.978 3.163 2.715 3.163.576 0 1.093-.083 1.904-.966l.127.154-.169.686c-.675.449-1.427.673-2.295.673-2.185 0-3.612-1.526-3.612-3.682 0-2.253 1.54-3.693 3.793-3.693a5 5 0 012.422.615l-.349 1.048z" fill="#595959" mask="url(#r)"/></g><g transform="translate(-13.958 -13.911)"><mask id="t" fill="#fff"><use xlink:href="#s"/></mask><path d="M111.486 27.89h-.166c-.488-.797-1.174-1.119-1.943-1.119-1.64 0-2.424 1.582-2.424 3.121 0 1.777.983 3.163 2.717 3.163.571 0 1.091-.083 1.902-.966l.124.154-.166.686c-.671.449-1.429.673-2.295.673-2.183 0-3.61-1.526-3.61-3.682 0-2.253 1.541-3.693 3.794-3.693.728 0 1.525.139 2.421.615l-.354 1.048z" fill="#595959" mask="url(#t)"/></g><g transform="translate(-13.958 -13.911)"><mask id="v" fill="#fff"><use xlink:href="#u"/></mask><path d="M113.562 33.407c-.085 0-.337.025-.449.041.112-1.064.127-2.954.127-3.542 0-.714-.015-2.49-.127-3.54.239.014.545.042.713.042.154 0 .447-.028.659-.042-.112 1.05-.124 2.812-.124 3.54 0 .588.012 1.413.025 1.806.771-.937 3.515-4.422 4.174-5.346.149.027.248.042.417.042.083 0 .376-.028.533-.042-.113 1.05-.129 2.812-.129 3.54 0 .588.016 2.478.129 3.542a5.205 5.205 0 00-.644-.041c-.239 0-.517.014-.73.041.112-1.064.128-2.954.128-3.542 0-.729-.016-1.622-.026-1.918-.955.967-3.476 4.271-4.271 5.46a1.84 1.84 0 00-.405-.041" fill="#595959" mask="url(#v)"/></g><g transform="translate(-13.958 -13.911)"><mask id="x" fill="#fff"><use xlink:href="#w"/></mask><path d="M121.488 33.407c-.085 0-.337.025-.446.041.109-1.064.124-2.954.124-3.542 0-.714-.015-2.49-.124-3.54.236.014.542.042.71.042.154 0 .449-.028.659-.042-.112 1.05-.124 2.812-.124 3.54 0 .588.012 1.413.025 1.806.771-.937 3.512-4.422 4.17-5.346.154.027.253.042.421.042.083 0 .379-.028.531-.042-.108 1.05-.124 2.812-.124 3.54 0 .588.016 2.478.124 3.542a5.156 5.156 0 00-.644-.041c-.237 0-.519.014-.726.041.112-1.064.124-2.954.124-3.542 0-.729-.012-1.622-.025-1.918-.952.967-3.476 4.271-4.273 5.46a1.781 1.781 0 00-.402-.041" fill="#595959" mask="url(#x)"/></g></g></svg>