<svg xmlns="http://www.w3.org/2000/svg" width="152" height="24"><g fill="none"><path fill="#005CA9" d="M21.884.086c-5.836 0-8.107 2.507-8.107 8.955 0 6.523 2.27 9.066 8.107 9.066s8.158-2.56 8.158-9.084c0-6.447-2.292-8.955-8.172-8.955m0 14.257c-2.66 0-3.49-.717-3.49-5.255.014-4.807.933-5.237 3.504-5.237 2.572 0 3.552.43 3.552 5.255 0 4.524-.844 5.24-3.552 5.24"/><path fill="#E62249" d="M99.14.577H86.762a.225.225 0 00-.226.211 71.826 71.826 0 01-2.89 16.553.23.23 0 00.215.294H88.1a.229.229 0 00.215-.158 65.543 65.543 0 002.503-12.928h4.063v12.86c0 .125.101.226.226.226h4.034a.225.225 0 00.225-.226V.802c0-.124-.1-.225-.225-.225m52.344 0h-4.038a.225.225 0 00-.225.225v12.846a9.8 9.8 0 01-2.772.358c-2.679 0-3.294-.817-3.294-4.374V.802c0-.124-.1-.225-.225-.225h-4.038a.225.225 0 00-.225.225v9.267c0 5.796 1.952 8.053 6.967 8.053a24.525 24.525 0 007.932-1.451.222.222 0 00.143-.211V.802c0-.124-.1-.225-.225-.225M65.843.591H61.74a.222.222 0 00-.219.168 103.279 103.279 0 01-3.705 11.305L53.694.716a.225.225 0 00-.211-.146h-4.156a.225.225 0 00-.183.096.219.219 0 00-.028.204l6.173 16.976c-.644 1.3-1.223 2.378-1.789 3.424-.41.767-.811 1.512-1.216 2.307a.233.233 0 000 .222.229.229 0 00.194.108h4.495a.227.227 0 00.2-.122c.762-1.469 1.703-3.51 2.58-5.595A160.01 160.01 0 0066.06.88a.225.225 0 00-.218-.29"/><path fill="#005CA9" d="M46.176 13.662a.233.233 0 00-.118-.129.229.229 0 00-.175 0c-1.333.422-2.72.645-4.117.663-2.818 0-4.16-.763-4.16-5.087 0-3.46.412-5.086 4.16-5.086 1.118.006 2.23.178 3.298.508a.229.229 0 00.26-.11 88.392 88.392 0 001.67-3.275.226.226 0 000-.186.211.211 0 00-.139-.125A18.439 18.439 0 0041.487 0c-5.915 0-8.548 2.787-8.548 9.038 0 6.34 2.633 9.166 8.53 9.166 1.477 0 4.392-.308 5.794-.87a.226.226 0 00.129-.287l-1.216-3.385z"/><path fill="#E62249" d="M80.564 13.662a.233.233 0 00-.118-.129.229.229 0 00-.176 0 14.235 14.235 0 01-4.116.663c-2.815 0-4.156-.763-4.156-5.087 0-3.46.408-5.086 4.156-5.086 1.12.008 2.232.182 3.3.516a.225.225 0 00.262-.112 88.392 88.392 0 001.67-3.274.226.226 0 000-.186.211.211 0 00-.14-.125A18.439 18.439 0 0075.857 0c-5.897 0-8.525 2.787-8.525 9.038 0 6.34 2.628 9.166 8.526 9.166 1.477 0 4.392-.308 5.797-.87a.226.226 0 00.126-.287l-1.216-3.385zM119.01.591h-4.105a.222.222 0 00-.218.168 102.87 102.87 0 01-3.702 11.305L106.861.716a.229.229 0 00-.21-.146h-4.157a.225.225 0 00-.185.096.219.219 0 00-.026.204l6.17 16.976a90.695 90.695 0 01-1.788 3.417c-.415.767-.816 1.516-1.223 2.314a.226.226 0 000 .222.229.229 0 00.19.108h4.523a.225.225 0 00.2-.122c.762-1.469 1.707-3.507 2.58-5.595A159.608 159.608 0 00119.224.88a.225.225 0 00-.215-.29m15.162-.013h-11.956a.225.225 0 00-.225.225V17.41c0 .125.1.226.225.226h4.034a.226.226 0 00.222-.226V4.549h6.245a.222.222 0 00.207-.136c.476-1.121.966-2.31 1.452-3.528a.222.222 0 00-.207-.308"/><path fill="#005CA9" d="M12.181.577H.225A.225.225 0 000 .802V17.41c0 .125.1.226.225.226h4.038a.225.225 0 00.225-.226V4.549h6.241a.23.23 0 00.208-.136c.476-1.121.962-2.31 1.452-3.528a.233.233 0 00-.022-.212.232.232 0 00-.19-.096"/></g></svg>